<?xml version="1.0" encoding="utf-8"?>
<!-- Generator: Adobe Illustrator 22.0.0, SVG Export Plug-In . SVG Version: 6.00 Build 0)  -->
<svg version="1.1" id="Capa_1" xmlns="http://www.w3.org/2000/svg" xmlns:xlink="http://www.w3.org/1999/xlink" x="0px" y="0px"
	 viewBox="0 0 60.5 70.8" style="enable-background:new 0 0 60.5 70.8;" xml:space="preserve">
<style type="text/css">
	.st0{clip-path:url(#SVGID_2_);}
	.st1{clip-path:url(#SVGID_4_);}
	.st2{clip-path:url(#SVGID_6_);}
	.st3{clip-path:url(#SVGID_8_);fill:#FFFFFF;}
	.st4{clip-path:url(#SVGID_10_);fill:#F1F1F1;}
	.st5{clip-path:url(#SVGID_12_);fill:#E2E2E2;}
	.st6{clip-path:url(#SVGID_14_);fill:#D4D4D4;}
	.st7{clip-path:url(#SVGID_16_);fill:#C5C5C5;}
	.st8{clip-path:url(#SVGID_18_);fill:#B7B7B7;}
	.st9{clip-path:url(#SVGID_20_);fill:#A8A8A8;}
	.st10{clip-path:url(#SVGID_22_);fill:#9A9A9A;}
	.st11{clip-path:url(#SVGID_24_);fill:#8B8B8B;}
	.st12{clip-path:url(#SVGID_26_);fill:#7D7D7D;}
	.st13{clip-path:url(#SVGID_28_);fill:#6E6E6E;}
	.st14{clip-path:url(#SVGID_30_);fill:#606060;}
	.st15{opacity:0.6;clip-path:url(#SVGID_4_);}
	.st16{clip-path:url(#SVGID_32_);fill:#BABCBE;}
	.st17{clip-path:url(#SVGID_34_);fill:url(#SVGID_35_);}
	.st18{clip-path:url(#SVGID_37_);fill:url(#SVGID_38_);}
	.st19{clip-path:url(#SVGID_40_);fill:#657483;}
	.st20{opacity:0.6;clip-path:url(#SVGID_40_);}
	.st21{clip-path:url(#SVGID_42_);fill:#B3B5B8;}
	.st22{clip-path:url(#SVGID_44_);fill:#B3B5B8;}
	.st23{clip-path:url(#SVGID_46_);fill:url(#SVGID_47_);}
	.st24{clip-path:url(#SVGID_49_);fill:url(#SVGID_50_);}
	.st25{clip-path:url(#SVGID_52_);fill:#657483;}
	.st26{opacity:0.6;clip-path:url(#SVGID_52_);}
	.st27{clip-path:url(#SVGID_54_);fill:#B3B5B8;}
	.st28{clip-path:url(#SVGID_56_);fill:#B3B5B8;}
	.st29{clip-path:url(#SVGID_58_);fill:url(#SVGID_59_);}
	.st30{clip-path:url(#SVGID_61_);fill:#FFFFFF;}
	.st31{clip-path:url(#SVGID_61_);}
	.st32{clip-path:url(#SVGID_63_);}
	.st33{clip-path:url(#SVGID_65_);fill:url(#SVGID_66_);}
	.st34{clip-path:url(#SVGID_68_);fill:#FFFFFF;}
	.st35{clip-path:url(#SVGID_70_);fill:url(#SVGID_71_);}
	.st36{clip-path:url(#SVGID_73_);fill:#FFFFFF;}
	.st37{clip-path:url(#SVGID_73_);}
	.st38{clip-path:url(#SVGID_75_);}
	.st39{clip-path:url(#SVGID_77_);fill:url(#SVGID_78_);}
	.st40{clip-path:url(#SVGID_80_);fill:#FFFFFF;}
	.st41{clip-path:url(#SVGID_82_);fill:url(#SVGID_83_);}
	.st42{clip-path:url(#SVGID_85_);}
	.st43{clip-path:url(#SVGID_87_);}
	.st44{clip-path:url(#SVGID_89_);fill:url(#SVGID_90_);}
	.st45{clip-path:url(#SVGID_92_);}
	.st46{clip-path:url(#SVGID_94_);fill:url(#SVGID_95_);}
	.st47{clip-path:url(#SVGID_97_);fill:#C2BFC0;}
	.st48{clip-path:url(#SVGID_99_);fill:#303134;}
	.st49{clip-path:url(#SVGID_101_);fill:#303134;}
	.st50{clip-path:url(#SVGID_103_);fill:#A9ABAE;}
	.st51{clip-path:url(#SVGID_105_);fill:url(#SVGID_106_);}
	.st52{clip-path:url(#SVGID_108_);fill:#FFFFFF;}
	.st53{clip-path:url(#SVGID_108_);fill:#5A5B5D;}
	.st54{clip-path:url(#SVGID_108_);fill:#757578;}
</style>
<g>
	<defs>
		<rect id="SVGID_1_" width="60.5" height="70.8"/>
	</defs>
	<clipPath id="SVGID_2_">
		<use xlink:href="#SVGID_1_"  style="overflow:visible;"/>
	</clipPath>
	<g class="st0">
		<defs>
			<rect id="SVGID_3_" y="0" width="60.5" height="70.8"/>
		</defs>
		<clipPath id="SVGID_4_">
			<use xlink:href="#SVGID_3_"  style="overflow:visible;"/>
		</clipPath>
		<g class="st1">
			<g>
				<defs>
					<rect id="SVGID_5_" x="0" y="0" width="60.5" height="70.8"/>
				</defs>
				<clipPath id="SVGID_6_">
					<use xlink:href="#SVGID_5_"  style="overflow:visible;"/>
				</clipPath>
				<g class="st2">
					<g>
						<defs>
							<rect id="SVGID_7_" x="3.6" y="3.6" width="56.9" height="67.1"/>
						</defs>
						<clipPath id="SVGID_8_">
							<use xlink:href="#SVGID_7_"  style="overflow:visible;"/>
						</clipPath>
						<path class="st3" d="M60.5,58.5c0-0.1,0-0.3,0-0.4c0-0.3,0-0.6,0-0.9c0-0.2,0-0.3,0-0.5c0-0.3,0-0.6-0.1-0.8
							c0-0.2,0-0.3,0-0.5c0-0.3-0.1-0.6-0.1-0.9c0-0.1,0-0.2,0-0.3c-0.1-0.4-0.1-0.8-0.2-1.2c0-0.1,0-0.1,0-0.2
							c-0.1-0.3-0.1-0.6-0.2-1c0-0.1-0.1-0.3-0.1-0.4c-0.1-0.3-0.1-0.5-0.2-0.8c0-0.1-0.1-0.3-0.1-0.4c-0.1-0.2-0.1-0.5-0.2-0.7
							c0-0.1-0.1-0.2-0.1-0.4c-0.1-0.3-0.2-0.6-0.3-0.8c0-0.1,0-0.1-0.1-0.2c-0.1-0.3-0.3-0.7-0.4-1c0-0.1-0.1-0.1-0.1-0.2
							c-0.1-0.2-0.2-0.5-0.3-0.7c0-0.1-0.1-0.2-0.1-0.3c-0.1-0.2-0.2-0.4-0.3-0.6c-0.1-0.1-0.1-0.2-0.2-0.3
							c-0.1-0.2-0.2-0.4-0.4-0.6c0-0.1-0.1-0.2-0.1-0.2c-0.3-0.6-0.7-1.1-1-1.6c0-0.1-0.1-0.1-0.1-0.2c-0.1-0.2-0.3-0.4-0.4-0.6
							c0,0,0-0.1-0.1-0.1c0,0,0,0,0,0c-2-2.7-4.2-4.6-5.8-5.7c-2.1-1.5-3.5-3.2-4.5-5.1l0-2c-0.8-1.6-1.6-3.7-1.9-5.6
							c-0.3-1.7-1-3-1.6-3.9c0,0,0,0,0,0c-0.5-0.7-1.1-1.2-1.5-1.6c-1.3-6.8-4.1-11.3-6-13.3c-0.4-0.4-0.9-0.8-1.6-0.9
							c-0.1,0-0.1,0-0.2,0c-0.1,0-0.1,0-0.2,0c-0.6,0.1-1.2,0.5-1.6,0.9c-2,2-4.7,6.4-6,13.3c-0.4,0.3-0.9,0.8-1.5,1.6c0,0,0,0,0,0
							c-0.5,0.6-1,1.7-1.3,2.7l0,1.8c-0.1,0.4-0.2,0.8-0.3,1.2c-0.8,4.4-2.3,8-6.4,10.9c-1.6,1.1-3.8,3-5.8,5.7c0,0,0,0,0,0
							c0,0,0,0.1-0.1,0.1c-0.1,0.2-0.3,0.4-0.4,0.6c0,0.1-0.1,0.1-0.1,0.2c-0.4,0.5-0.7,1.1-1,1.6c0,0.1-0.1,0.2-0.1,0.2
							C7.1,44.6,7,44.8,6.9,45c-0.1,0.1-0.1,0.2-0.2,0.3c-0.1,0.2-0.2,0.4-0.3,0.6c0,0.1-0.1,0.2-0.1,0.3c-0.1,0.2-0.2,0.5-0.3,0.7
							c0,0.1-0.1,0.1-0.1,0.2c-0.1,0.3-0.3,0.7-0.4,1c0,0.1,0,0.1-0.1,0.2c-0.1,0.3-0.2,0.6-0.3,0.8C5,49.3,5,49.4,5,49.5
							c-0.1,0.2-0.2,0.5-0.2,0.7c0,0.1-0.1,0.3-0.1,0.4c-0.1,0.2-0.1,0.5-0.2,0.8c0,0.1-0.1,0.3-0.1,0.4c-0.1,0.3-0.1,0.6-0.2,1
							c0,0.1,0,0.1,0,0.2C4,53.4,4,53.8,3.9,54.2c0,0.1,0,0.2,0,0.3c0,0.3-0.1,0.6-0.1,0.9c0,0.2,0,0.3,0,0.5c0,0.3,0,0.6-0.1,0.8
							c0,0.2,0,0.3,0,0.5c0,0.3,0,0.6,0,0.9c0,0.1,0,0.3,0,0.4c0,0.5,0,0.9,0,1.4c0,0-0.1,0.7,0.9,0.8c1,0.1,18.4,1.2,18.4,1.2h0.3
							c0,0,0.1,0.9,1.6,1.7c0,0,0,0.1,0,0.1c0,0,0,0,0,0c0,0.1-0.1,0.3-0.1,0.4l0,0c-0.1,0.3-0.2,0.6-0.3,0.9h0
							c0,0.1-0.1,0.3-0.1,0.4h0c-0.1,0.3-0.1,0.6-0.2,0.9v0c0,0,0,0,0,0c0,0.1,0,0.1,0,0.2c0,0.1,0,0.2,0,0.2h0
							c-0.1,0.3-0.1,0.6-0.1,0.9c0,0,0,0,0,0c0,0.1,0,0.3,0,0.4h0c0,0.3,0,0.6-0.1,0.9h0v0c0,0,0,0.1,0,0.1c0,0.1,0,0.2,0,0.3
							c0,0,0,0,0,0c0,0.2,0,0.4,0,0.6c0,0,0,0,0.1,0c0,0,0,0,0,0c0,0,0.1,0,0.2,0.1c0,0,0,0,0,0v0c0.5,0.2,1.7,0.5,3.2,0.5
							c0,0,0,0,0,0c0.8,0,1.4-0.1,2-0.2v0c0,0,0,0,0,0c0.1,0,0.1,0,0.2,0c0.1,0,0.2,0,0.3-0.1c0.1,0,0.1,0,0.1,0
							c0.1,0,0.2-0.1,0.3-0.1c0,0,0.1,0,0.1,0c0.1,0,0.1,0,0.2-0.1c0,0,0,0,0.1,0c0.1,0,0.1,0,0.2-0.1c0,0,0,0,0,0c0,0,0,0,0,0
							c0-0.2,0-0.4,0-0.6c0,0,0,0,0,0c0-0.1,0-0.2,0-0.3c0,0,0-0.1,0-0.1v0l0,0c0-0.3,0-0.6-0.1-1h0c0-0.1,0-0.3,0-0.4c0,0,0,0,0,0
							c0-0.3-0.1-0.6-0.1-0.9h0c0-0.1,0-0.1,0-0.2c0-0.1,0-0.1,0-0.2c0,0,0,0,0-0.1h0c-0.1-0.3-0.1-0.6-0.2-0.9c0,0,0,0,0,0
							c0-0.1-0.1-0.3-0.1-0.4l0,0c0-0.1,0-0.1,0-0.2c0.3,0,0.6,0,0.9,0.1c0,0.1,0,0.1,0,0.1s-0.2,1,0.9,1.3h0.4
							c1-0.3,0.9-1.3,0.9-1.3s0-0.1,0-0.1c0.3,0,0.5,0,0.8,0c0,0.1,0,0.1-0.1,0.2h0c0,0.1-0.1,0.3-0.1,0.4h0
							c-0.1,0.3-0.1,0.6-0.2,0.9l0,0l0,0c0,0.1,0,0.1,0,0.2c0,0.1,0,0.1,0,0.2h0c-0.1,0.3-0.1,0.6-0.1,0.9c0,0,0,0,0,0
							c0,0.1,0,0.3,0,0.4h0c0,0.3,0,0.6-0.1,0.9h0v0c0,0,0,0.1,0,0.1c0,0.1,0,0.2,0,0.3c0,0,0,0,0,0c0,0.2,0,0.4,0,0.6
							c0,0,0,0,0.1,0l0,0c0,0,0.1,0,0.2,0.1c0,0,0,0,0,0v0c0.5,0.2,1.7,0.5,3.2,0.5c0,0,0,0,0,0c0.8,0,1.4-0.1,2-0.2v0c0,0,0,0,0,0
							c0.1,0,0.1,0,0.1,0c0.1,0,0.2,0,0.3-0.1c0,0,0.1,0,0.1,0c0.1,0,0.2-0.1,0.3-0.1c0,0,0.1,0,0.1,0c0.1,0,0.1,0,0.2-0.1
							c0,0,0,0,0.1,0c0.1,0,0.1,0,0.2-0.1c0,0,0,0,0,0c0,0,0,0,0,0c0-0.2,0-0.4,0-0.6c0,0,0,0,0,0c0-0.1,0-0.2,0-0.3
							c0,0,0-0.1,0-0.1c0,0,0,0,0,0c0,0,0,0,0,0c0-0.3,0-0.6-0.1-1h0c0-0.1,0-0.3,0-0.4c0,0,0,0,0,0c0-0.3-0.1-0.6-0.1-0.9h0
							c0-0.1,0-0.1,0-0.2c0-0.1,0-0.1,0-0.2c0,0,0,0,0-0.1h0c-0.1-0.3-0.1-0.6-0.2-0.9l0,0c0-0.1-0.1-0.3-0.1-0.4l0,0
							c-0.1-0.3-0.2-0.6-0.3-0.9c0,0,0,0,0,0c0-0.1-0.1-0.3-0.1-0.4c0,0,0,0,0,0c0,0,0,0,0-0.1c1.6-0.8,1.7-1.7,1.7-1.7h0.3
							c0,0,17.4-1.1,18.4-1.2c1-0.1,0.9-0.8,0.9-0.8C60.5,59.5,60.5,59,60.5,58.5"/>
					</g>
				</g>
				<g class="st2">
					<g>
						<defs>
							<rect id="SVGID_9_" x="3.3" y="3.3" width="56.9" height="67.1"/>
						</defs>
						<clipPath id="SVGID_10_">
							<use xlink:href="#SVGID_9_"  style="overflow:visible;"/>
						</clipPath>
						<path class="st4" d="M60.2,58.2c0-0.1,0-0.3,0-0.4c0-0.3,0-0.6,0-0.9c0-0.2,0-0.3,0-0.5c0-0.3,0-0.6-0.1-0.8
							c0-0.2,0-0.3,0-0.5c0-0.3-0.1-0.6-0.1-0.9c0-0.1,0-0.2,0-0.3c-0.1-0.4-0.1-0.8-0.2-1.2c0-0.1,0-0.1,0-0.2
							c-0.1-0.3-0.1-0.6-0.2-1c0-0.1-0.1-0.3-0.1-0.4c-0.1-0.3-0.1-0.5-0.2-0.8c0-0.1-0.1-0.3-0.1-0.4c-0.1-0.2-0.1-0.5-0.2-0.7
							c0-0.1-0.1-0.2-0.1-0.4c-0.1-0.3-0.2-0.6-0.3-0.8c0-0.1,0-0.1-0.1-0.2c-0.1-0.3-0.3-0.7-0.4-1c0-0.1-0.1-0.1-0.1-0.2
							c-0.1-0.2-0.2-0.5-0.3-0.7c0-0.1-0.1-0.2-0.1-0.3c-0.1-0.2-0.2-0.4-0.3-0.6c-0.1-0.1-0.1-0.2-0.2-0.3
							c-0.1-0.2-0.2-0.4-0.4-0.6c0-0.1-0.1-0.2-0.1-0.2c-0.3-0.6-0.7-1.1-1-1.6c0-0.1-0.1-0.1-0.1-0.2c-0.1-0.2-0.3-0.4-0.4-0.6
							c0,0,0-0.1-0.1-0.1c0,0,0,0,0,0c-2-2.7-4.2-4.6-5.8-5.7c-2.1-1.5-3.5-3.2-4.5-5.1l0-2C43.7,27,43,24.9,42.6,23
							c-0.3-1.7-1-3-1.6-3.9c0,0,0,0,0,0c-0.5-0.7-1.1-1.3-1.5-1.6c-1.3-6.8-4.1-11.3-6-13.3c-0.4-0.4-0.9-0.8-1.6-0.9
							c-0.1,0-0.1,0-0.2,0c-0.1,0-0.1,0-0.2,0c-0.6,0.1-1.2,0.5-1.6,0.9c-2,2-4.7,6.4-6,13.3c-0.4,0.3-0.9,0.8-1.5,1.6c0,0,0,0,0,0
							c-0.5,0.6-1,1.7-1.3,2.7l0,1.8c-0.1,0.4-0.2,0.8-0.3,1.2c-0.8,4.4-2.3,8-6.4,10.9c-1.6,1.1-3.8,3-5.8,5.7c0,0,0,0,0,0
							c0,0,0,0.1-0.1,0.1c-0.1,0.2-0.3,0.4-0.4,0.6c0,0.1-0.1,0.1-0.1,0.2c-0.4,0.5-0.7,1.1-1,1.6C7,43.9,7,44,6.9,44
							c-0.1,0.2-0.2,0.4-0.4,0.6c-0.1,0.1-0.1,0.2-0.2,0.3c-0.1,0.2-0.2,0.4-0.3,0.6c0,0.1-0.1,0.2-0.1,0.3
							c-0.1,0.2-0.2,0.5-0.3,0.7c0,0.1-0.1,0.1-0.1,0.2c-0.1,0.3-0.3,0.7-0.4,1c0,0.1,0,0.1-0.1,0.2c-0.1,0.3-0.2,0.6-0.3,0.8
							c0,0.1-0.1,0.2-0.1,0.4c-0.1,0.2-0.2,0.5-0.2,0.7c0,0.1-0.1,0.3-0.1,0.4c-0.1,0.2-0.1,0.5-0.2,0.8c0,0.1-0.1,0.3-0.1,0.4
							c-0.1,0.3-0.1,0.6-0.2,1c0,0.1,0,0.1,0,0.2c-0.1,0.4-0.1,0.8-0.2,1.2c0,0.1,0,0.2,0,0.3c0,0.3-0.1,0.6-0.1,0.9
							c0,0.2,0,0.3,0,0.5c0,0.3,0,0.6-0.1,0.8c0,0.2,0,0.3,0,0.5c0,0.3,0,0.6,0,0.9c0,0.1,0,0.3,0,0.4c0,0.5,0,0.9,0,1.4
							c0,0-0.1,0.7,0.9,0.8c1,0.1,18.4,1.2,18.4,1.2h0.3c0,0,0.1,0.9,1.6,1.7c0,0,0,0.1,0,0.1c0,0,0,0,0,0c0,0.1-0.1,0.3-0.1,0.4h0
							c-0.1,0.3-0.2,0.6-0.3,0.9c0,0.1-0.1,0.3-0.1,0.4h0c-0.1,0.3-0.1,0.6-0.2,0.9h0c0,0,0,0,0,0c0,0.1,0,0.1,0,0.2
							c0,0.1,0,0.2,0,0.2c0,0,0,0,0,0c-0.1,0.3-0.1,0.6-0.1,0.9c0,0,0,0,0,0c0,0.1,0,0.3,0,0.4c0,0.3,0,0.6-0.1,0.9h0v0
							c0,0,0,0.1,0,0.1c0,0.1,0,0.2,0,0.3c0,0,0,0,0,0c0,0.2,0,0.4,0,0.6c0,0,0,0,0.1,0c0,0,0,0,0,0c0,0,0.1,0,0.2,0.1c0,0,0,0,0,0
							v0c0.5,0.2,1.7,0.5,3.2,0.5v0h0c0.8,0,1.4-0.1,2-0.2c0,0,0,0,0,0c0.1,0,0.1,0,0.2,0c0.1,0,0.2,0,0.3-0.1c0.1,0,0.1,0,0.1,0
							c0.1,0,0.2-0.1,0.3-0.1c0,0,0.1,0,0.1,0c0.1,0,0.1,0,0.2-0.1c0,0,0,0,0.1,0c0.1,0,0.1,0,0.2-0.1c0,0,0,0,0,0c0,0,0,0,0,0
							c0-0.2,0-0.4,0-0.6c0,0,0,0,0,0c0-0.1,0-0.2,0-0.3c0,0,0-0.1,0-0.1c0,0,0,0,0,0h0c0-0.3,0-0.6-0.1-1h0c0-0.1,0-0.3,0-0.4h0
							c0-0.3-0.1-0.6-0.1-0.9c0,0,0,0,0,0c0-0.1,0-0.1,0-0.2c0-0.1,0-0.1,0-0.2c0,0,0,0,0-0.1h0c-0.1-0.3-0.1-0.6-0.2-0.9
							c0,0,0,0,0,0c0-0.1-0.1-0.3-0.1-0.4h0c0-0.1,0-0.1,0-0.2c0.3,0,0.6,0,0.9,0.1c0,0.1,0,0.1,0,0.1s-0.2,1,0.9,1.3h0.4
							c1-0.3,0.9-1.3,0.9-1.3s0-0.1,0-0.1c0.3,0,0.5,0,0.8,0c0,0.1,0,0.1-0.1,0.2h0c0,0.1-0.1,0.3-0.1,0.4h0
							c-0.1,0.3-0.1,0.6-0.2,0.9h0c0,0,0,0,0,0c0,0.1,0,0.1,0,0.2c0,0.1,0,0.1,0,0.2c0,0,0,0,0,0c-0.1,0.3-0.1,0.6-0.1,0.9
							c0,0,0,0,0,0c0,0.1,0,0.3,0,0.4h0c0,0.3,0,0.6-0.1,0.9h0c0,0,0,0,0,0c0,0,0,0.1,0,0.1c0,0.1,0,0.2,0,0.3c0,0,0,0,0,0
							c0,0.2,0,0.4,0,0.6c0,0,0,0,0.1,0h0c0,0,0.1,0,0.2,0.1c0,0,0,0,0,0v0c0.5,0.2,1.7,0.5,3.2,0.5v0h0c0.8,0,1.4-0.1,2-0.2
							c0,0,0,0,0,0c0.1,0,0.1,0,0.1,0c0.1,0,0.2,0,0.3-0.1c0,0,0.1,0,0.1,0c0.1,0,0.2-0.1,0.3-0.1c0,0,0.1,0,0.1,0
							c0.1,0,0.1,0,0.2-0.1c0,0,0,0,0.1,0c0.1,0,0.1,0,0.2-0.1c0,0,0,0,0,0c0,0,0,0,0,0c0-0.2,0-0.4,0-0.6c0,0,0,0,0,0
							c0-0.1,0-0.2,0-0.3l0-0.1c0,0,0,0,0,0h0c0-0.3,0-0.6-0.1-1h0c0-0.1,0-0.3,0-0.4h0c0-0.3-0.1-0.6-0.1-0.9c0,0,0,0,0,0
							c0-0.1,0-0.1,0-0.2c0-0.1,0-0.1,0-0.2c0,0,0,0,0-0.1h0c-0.1-0.3-0.1-0.6-0.2-0.9c0,0,0,0,0,0c0-0.1-0.1-0.3-0.1-0.4h0
							c-0.1-0.3-0.2-0.6-0.3-0.9c0,0,0,0,0,0c0-0.1-0.1-0.3-0.1-0.4c0,0,0,0,0,0c0,0,0,0,0-0.1c1.6-0.8,1.7-1.7,1.7-1.7h0.3
							c0,0,17.4-1.1,18.4-1.2c1-0.1,0.9-0.8,0.9-0.8C60.1,59.1,60.1,58.7,60.2,58.2"/>
					</g>
				</g>
				<g class="st2">
					<g>
						<defs>
							<rect id="SVGID_11_" x="3" y="3" width="56.9" height="67.1"/>
						</defs>
						<clipPath id="SVGID_12_">
							<use xlink:href="#SVGID_11_"  style="overflow:visible;"/>
						</clipPath>
						<path class="st5" d="M59.8,57.9c0-0.1,0-0.3,0-0.4c0-0.3,0-0.6,0-0.9c0-0.2,0-0.3,0-0.5c0-0.3,0-0.6-0.1-0.8
							c0-0.2,0-0.3,0-0.5c0-0.3-0.1-0.6-0.1-0.9c0-0.1,0-0.2,0-0.3c-0.1-0.4-0.1-0.8-0.2-1.2c0-0.1,0-0.1,0-0.2
							c-0.1-0.3-0.1-0.6-0.2-1c0-0.1-0.1-0.3-0.1-0.4c-0.1-0.3-0.1-0.5-0.2-0.8c0-0.1-0.1-0.3-0.1-0.4c-0.1-0.2-0.1-0.5-0.2-0.7
							c0-0.1-0.1-0.2-0.1-0.4c-0.1-0.3-0.2-0.6-0.3-0.8c0-0.1,0-0.1-0.1-0.2c-0.1-0.3-0.3-0.7-0.4-1c0-0.1-0.1-0.1-0.1-0.2
							c-0.1-0.2-0.2-0.5-0.3-0.7c0-0.1-0.1-0.2-0.1-0.3c-0.1-0.2-0.2-0.4-0.3-0.6c-0.1-0.1-0.1-0.2-0.2-0.3
							c-0.1-0.2-0.2-0.4-0.4-0.6c0-0.1-0.1-0.2-0.1-0.2c-0.3-0.6-0.7-1.1-1-1.6c0-0.1-0.1-0.1-0.1-0.2c-0.1-0.2-0.3-0.4-0.4-0.6
							c0,0,0-0.1-0.1-0.1c0,0,0,0,0,0c-2-2.7-4.2-4.6-5.8-5.7c-2.1-1.5-3.5-3.2-4.5-5.1l0-2c-0.8-1.6-1.6-3.7-1.9-5.6
							c-0.3-1.7-1-3-1.6-3.9l0,0c-0.5-0.7-1.1-1.3-1.5-1.6c-1.3-6.8-4.1-11.3-6-13.3C32.7,3.4,32.2,3,31.6,3c-0.1,0-0.1,0-0.2,0
							c-0.1,0-0.1,0-0.2,0C30.6,3,30,3.4,29.7,3.8c-2,2-4.7,6.4-6,13.3c-0.4,0.3-0.9,0.8-1.5,1.6l0,0c-0.5,0.6-1,1.7-1.3,2.7l0,1.8
							c-0.1,0.4-0.2,0.8-0.3,1.2c-0.8,4.4-2.3,8-6.4,10.9c-1.6,1.1-3.8,3-5.8,5.7c0,0,0,0,0,0c0,0,0,0.1-0.1,0.1
							c-0.1,0.2-0.3,0.4-0.4,0.6c0,0.1-0.1,0.1-0.1,0.2c-0.4,0.5-0.7,1.1-1,1.6c0,0.1-0.1,0.2-0.1,0.2c-0.1,0.2-0.2,0.4-0.4,0.6
							c-0.1,0.1-0.1,0.2-0.2,0.3c-0.1,0.2-0.2,0.4-0.3,0.6c0,0.1-0.1,0.2-0.1,0.3c-0.1,0.2-0.2,0.5-0.3,0.7c0,0.1-0.1,0.1-0.1,0.2
							c-0.1,0.3-0.3,0.7-0.4,1c0,0.1,0,0.1-0.1,0.2c-0.1,0.3-0.2,0.6-0.3,0.8c0,0.1-0.1,0.2-0.1,0.3c-0.1,0.2-0.2,0.5-0.2,0.7
							C4,49.7,4,49.9,4,50c-0.1,0.2-0.1,0.5-0.2,0.8c0,0.1-0.1,0.3-0.1,0.4c-0.1,0.3-0.1,0.6-0.2,1c0,0.1,0,0.1,0,0.2
							c-0.1,0.4-0.1,0.8-0.2,1.2c0,0.1,0,0.2,0,0.3c0,0.3-0.1,0.6-0.1,0.9c0,0.2,0,0.3,0,0.5c0,0.3,0,0.6-0.1,0.8c0,0.2,0,0.3,0,0.5
							c0,0.3,0,0.6,0,0.9c0,0.1,0,0.3,0,0.4c0,0.5,0,0.9,0,1.4c0,0-0.1,0.7,0.9,0.8c1,0.1,18.4,1.2,18.4,1.2h0.3
							c0,0,0.1,0.9,1.6,1.7c0,0,0,0.1,0,0.1c0,0,0,0,0,0c0,0.1-0.1,0.3-0.1,0.4h0c-0.1,0.3-0.2,0.6-0.3,0.9c0,0,0,0,0,0
							c0,0.1-0.1,0.3-0.1,0.4c0,0,0,0,0,0c-0.1,0.3-0.1,0.6-0.2,0.9l0,0c0,0,0,0,0,0c0,0.1,0,0.1,0,0.2c0,0.1,0,0.2,0,0.2
							c0,0,0,0,0,0c-0.1,0.3-0.1,0.6-0.1,0.9c0,0,0,0,0,0c0,0.1,0,0.3,0,0.4l0,0c0,0.3,0,0.6-0.1,0.9v0c0,0,0,0.1,0,0.1
							c0,0.1,0,0.2,0,0.3c0,0,0,0,0,0c0,0.2,0,0.4,0,0.6c0,0,0,0,0.1,0c0,0,0,0,0,0c0,0,0.1,0,0.2,0.1c0,0,0,0,0,0
							c0.5,0.2,1.7,0.5,3.2,0.5c0,0,0,0,0,0c0.8,0,1.4-0.1,2-0.2v0c0,0,0,0,0,0c0.1,0,0.1,0,0.2,0c0.1,0,0.2,0,0.3-0.1
							c0.1,0,0.1,0,0.1,0c0.1,0,0.2-0.1,0.3-0.1c0,0,0.1,0,0.1,0c0.1,0,0.1,0,0.2-0.1c0,0,0,0,0.1,0c0.1,0,0.1,0,0.2-0.1
							c0,0,0,0,0,0c0,0,0,0,0,0c0-0.2,0-0.4,0-0.6c0,0,0,0,0,0c0-0.1,0-0.2,0-0.3c0,0,0-0.1,0-0.1c0,0,0,0,0,0h0c0-0.3,0-0.6-0.1-1
							c0,0,0,0,0,0c0-0.1,0-0.3,0-0.4c0,0,0,0,0,0c0-0.3-0.1-0.6-0.1-0.9h0c0-0.1,0-0.1,0-0.2c0-0.1,0-0.1,0-0.2c0,0,0,0,0-0.1
							c0,0,0,0,0,0c-0.1-0.3-0.1-0.6-0.2-0.9c0,0,0,0,0,0c0-0.1-0.1-0.3-0.1-0.4c0-0.1,0-0.1,0-0.2c0.3,0,0.6,0,0.9,0.1
							c0,0.1,0,0.1,0,0.1s-0.2,1,0.9,1.3h0.4c1-0.3,0.9-1.3,0.9-1.3s0-0.1,0-0.1c0.3,0,0.5,0,0.8,0c0,0.1,0,0.1-0.1,0.2c0,0,0,0,0,0
							c0,0.1-0.1,0.3-0.1,0.4c0,0,0,0,0,0c-0.1,0.3-0.1,0.6-0.2,0.9v0c0,0,0,0,0,0c0,0.1,0,0.1,0,0.2c0,0.1,0,0.1,0,0.2c0,0,0,0,0,0
							c-0.1,0.3-0.1,0.6-0.1,0.9c0,0,0,0,0,0c0,0.1,0,0.3,0,0.4v0c0,0.3,0,0.6-0.1,0.9h0v0c0,0,0,0.1,0,0.1c0,0.1,0,0.2,0,0.3
							c0,0,0,0,0,0c0,0.2,0,0.4,0,0.6c0,0,0,0,0.1,0c0,0,0,0,0,0c0,0,0.1,0,0.2,0.1c0,0,0,0,0,0c0.5,0.2,1.7,0.5,3.2,0.5
							c0,0,0,0,0,0c0.8,0,1.4-0.1,2-0.2v0c0,0,0,0,0,0c0.1,0,0.1,0,0.1,0c0.1,0,0.2,0,0.3-0.1c0,0,0.1,0,0.1,0
							c0.1,0,0.2-0.1,0.3-0.1c0,0,0.1,0,0.1,0c0.1,0,0.1,0,0.2-0.1c0,0,0,0,0.1,0c0.1,0,0.1,0,0.2-0.1c0,0,0,0,0,0c0,0,0,0,0,0
							c0-0.2,0-0.4,0-0.6c0,0,0,0,0,0c0-0.1,0-0.2,0-0.3c0,0,0-0.1,0-0.1v0h0c0-0.3,0-0.6-0.1-1l0,0c0-0.1,0-0.3,0-0.4c0,0,0,0,0,0
							c0-0.3-0.1-0.6-0.1-0.9h0c0-0.1,0-0.1,0-0.2c0-0.1,0-0.1,0-0.2c0,0,0,0,0-0.1c0,0,0,0,0,0c-0.1-0.3-0.1-0.6-0.2-0.9
							c0,0,0,0,0,0c0-0.1-0.1-0.3-0.1-0.4h0c-0.1-0.3-0.2-0.6-0.3-0.9h0c0-0.1-0.1-0.3-0.1-0.4c0,0,0,0,0,0c0,0,0,0,0-0.1
							c1.6-0.8,1.7-1.7,1.7-1.7h0.3c0,0,17.4-1.1,18.4-1.2c1-0.1,0.9-0.8,0.9-0.8C59.8,58.8,59.8,58.3,59.8,57.9"/>
					</g>
				</g>
				<g class="st2">
					<g>
						<defs>
							<rect id="SVGID_13_" x="2.6" y="2.6" width="56.9" height="67.1"/>
						</defs>
						<clipPath id="SVGID_14_">
							<use xlink:href="#SVGID_13_"  style="overflow:visible;"/>
						</clipPath>
						<path class="st6" d="M59.5,57.6c0-0.1,0-0.3,0-0.4c0-0.3,0-0.6,0-0.9c0-0.2,0-0.3,0-0.5c0-0.3,0-0.6-0.1-0.8
							c0-0.2,0-0.3,0-0.5c0-0.3-0.1-0.6-0.1-0.9c0-0.1,0-0.2,0-0.3c-0.1-0.4-0.1-0.8-0.2-1.2c0-0.1,0-0.1,0-0.2
							c-0.1-0.3-0.1-0.6-0.2-1c0-0.1-0.1-0.3-0.1-0.4c-0.1-0.3-0.1-0.5-0.2-0.8c0-0.1-0.1-0.3-0.1-0.4c-0.1-0.2-0.1-0.5-0.2-0.7
							c0-0.1-0.1-0.2-0.1-0.4c-0.1-0.3-0.2-0.6-0.3-0.8c0-0.1,0-0.1-0.1-0.2c-0.1-0.3-0.3-0.7-0.4-1c0-0.1-0.1-0.1-0.1-0.2
							c-0.1-0.2-0.2-0.5-0.3-0.7c0-0.1-0.1-0.2-0.1-0.3c-0.1-0.2-0.2-0.4-0.3-0.6c-0.1-0.1-0.1-0.2-0.2-0.3
							c-0.1-0.2-0.2-0.4-0.4-0.6c0-0.1-0.1-0.2-0.1-0.2c-0.3-0.6-0.7-1.1-1-1.6c0-0.1-0.1-0.1-0.1-0.2c-0.1-0.2-0.3-0.4-0.4-0.6
							c0,0,0-0.1-0.1-0.1c0,0,0,0,0,0c-2-2.7-4.2-4.6-5.8-5.7c-2.1-1.5-3.5-3.2-4.5-5.1l0-2c-0.8-1.6-1.6-3.7-1.9-5.6
							c-0.3-1.7-1-3-1.6-3.9c0,0,0,0,0,0c-0.5-0.7-1.1-1.3-1.5-1.6c-1.3-6.8-4.1-11.3-6-13.3c-0.4-0.4-0.9-0.8-1.6-0.9
							c-0.1,0-0.1,0-0.2,0c-0.1,0-0.1,0-0.2,0c-0.6,0.1-1.2,0.5-1.6,0.9c-2,2-4.7,6.4-6,13.3c-0.4,0.3-0.9,0.8-1.5,1.6c0,0,0,0,0,0
							c-0.5,0.6-1,1.7-1.3,2.7l0,1.8c-0.1,0.4-0.2,0.8-0.3,1.2c-0.8,4.4-2.3,8-6.4,10.9c-1.6,1.1-3.8,3-5.8,5.7c0,0,0,0,0,0
							c0,0,0,0.1-0.1,0.1c-0.1,0.2-0.3,0.4-0.4,0.6c0,0.1-0.1,0.1-0.1,0.2c-0.4,0.5-0.7,1.1-1,1.6c0,0.1-0.1,0.2-0.1,0.2
							C6.2,43.6,6,43.8,5.9,44c-0.1,0.1-0.1,0.2-0.2,0.3c-0.1,0.2-0.2,0.4-0.3,0.6c0,0.1-0.1,0.2-0.1,0.3C5.2,45.5,5.1,45.7,5,46
							c0,0.1-0.1,0.1-0.1,0.2c-0.1,0.3-0.3,0.7-0.4,1c0,0.1,0,0.1-0.1,0.2c-0.1,0.3-0.2,0.6-0.3,0.8C4,48.3,4,48.4,4,48.6
							c-0.1,0.2-0.2,0.5-0.2,0.7c0,0.1-0.1,0.3-0.1,0.4c-0.1,0.2-0.1,0.5-0.2,0.8c0,0.1-0.1,0.3-0.1,0.4c-0.1,0.3-0.1,0.6-0.2,1
							c0,0.1,0,0.1,0,0.2C3,52.4,3,52.8,2.9,53.2c0,0.1,0,0.2,0,0.3c0,0.3-0.1,0.6-0.1,0.9c0,0.2,0,0.3,0,0.5c0,0.3,0,0.6-0.1,0.8
							c0,0.2,0,0.3,0,0.5c0,0.3,0,0.6,0,0.9c0,0.1,0,0.3,0,0.4c0,0.5,0,0.9,0,1.4c0,0-0.1,0.7,0.9,0.8c1,0.1,18.4,1.2,18.4,1.2h0.3
							c0,0,0.1,0.9,1.6,1.7c0,0,0,0.1,0,0.1c0,0,0,0,0,0c0,0.1-0.1,0.3-0.1,0.4h0c-0.1,0.3-0.2,0.6-0.3,0.9h0c0,0.1-0.1,0.3-0.1,0.4
							c0,0,0,0,0,0c-0.1,0.3-0.1,0.6-0.2,0.9h0c0,0,0,0,0,0c0,0.1,0,0.1,0,0.2c0,0.1,0,0.2,0,0.2c0,0,0,0,0,0
							c-0.1,0.3-0.1,0.6-0.1,0.9c0,0,0,0,0,0c0,0.1,0,0.3,0,0.4h0c0,0.3,0,0.6-0.1,0.9h0v0c0,0,0,0.1,0,0.1c0,0.1,0,0.2,0,0.3
							c0,0,0,0,0,0c0,0.2,0,0.4,0,0.6c0,0,0,0,0.1,0c0,0,0,0,0,0c0,0,0.1,0,0.2,0.1c0,0,0,0,0,0v0c0.5,0.2,1.7,0.5,3.2,0.5v0h0
							c0.8,0,1.4-0.1,2-0.2c0,0,0,0,0,0c0.1,0,0.1,0,0.2,0c0.1,0,0.2,0,0.3-0.1c0.1,0,0.1,0,0.1,0c0.1,0,0.2-0.1,0.3-0.1
							c0,0,0.1,0,0.1,0c0.1,0,0.1,0,0.2-0.1c0,0,0,0,0.1,0c0.1,0,0.1,0,0.2-0.1c0,0,0,0,0,0c0,0,0,0,0,0c0-0.2,0-0.4,0-0.6
							c0,0,0,0,0,0c0-0.1,0-0.2,0-0.3c0,0,0-0.1,0-0.1c0,0,0,0,0,0h0c0-0.3,0-0.6-0.1-1h0c0-0.1,0-0.3,0-0.4c0,0,0,0,0,0
							c0-0.3-0.1-0.6-0.1-0.9c0,0,0,0,0,0c0-0.1,0-0.1,0-0.2c0-0.1,0-0.1,0-0.2c0,0,0,0,0-0.1h0c-0.1-0.3-0.1-0.6-0.2-0.9h0
							c0-0.1-0.1-0.3-0.1-0.4h0c0-0.1,0-0.1,0-0.2c0.3,0,0.6,0,0.9,0.1c0,0.1,0,0.1,0,0.1s-0.2,1,0.9,1.3h0.4c1-0.3,0.9-1.3,0.9-1.3
							s0-0.1,0-0.1c0.3,0,0.5,0,0.8,0c0,0.1,0,0.1-0.1,0.2h0c0,0.1-0.1,0.3-0.1,0.4l0,0c-0.1,0.3-0.1,0.6-0.2,0.9h0c0,0,0,0,0,0
							c0,0.1,0,0.1,0,0.2c0,0.1,0,0.1,0,0.2c0,0,0,0,0,0c-0.1,0.3-0.1,0.6-0.1,0.9c0,0,0,0,0,0c0,0.1,0,0.3,0,0.4
							c0,0.3,0,0.6-0.1,0.9h0c0,0,0,0,0,0c0,0,0,0.1,0,0.1c0,0.1,0,0.2,0,0.3c0,0,0,0,0,0c0,0.2,0,0.4,0,0.6c0,0,0,0,0.1,0
							c0,0,0,0,0,0c0,0,0.1,0,0.2,0.1c0,0,0,0,0,0v0c0.5,0.2,1.7,0.5,3.2,0.5v0h0c0.8,0,1.4-0.1,2-0.2c0,0,0,0,0,0
							c0.1,0,0.1,0,0.1,0c0.1,0,0.2,0,0.3-0.1c0,0,0.1,0,0.1,0c0.1,0,0.2-0.1,0.3-0.1c0,0,0.1,0,0.1,0c0.1,0,0.1,0,0.2-0.1
							c0,0,0,0,0.1,0c0.1,0,0.1,0,0.2-0.1c0,0,0,0,0,0c0,0,0,0,0,0c0-0.2,0-0.4,0-0.6c0,0,0,0,0,0c0-0.1,0-0.2,0-0.3
							c0,0,0-0.1,0-0.1c0,0,0,0,0,0h0c0-0.3,0-0.6-0.1-1h0c0-0.1,0-0.3,0-0.4c0,0,0,0,0,0c0-0.3-0.1-0.6-0.1-0.9c0,0,0,0,0,0
							c0-0.1,0-0.1,0-0.2c0-0.1,0-0.1,0-0.2c0,0,0,0,0-0.1h0c-0.1-0.3-0.1-0.6-0.2-0.9h0c0-0.1-0.1-0.3-0.1-0.4h0
							c-0.1-0.3-0.2-0.6-0.3-0.9h0c0-0.1-0.1-0.3-0.1-0.4c0,0,0,0,0,0c0,0,0,0,0-0.1c1.6-0.8,1.7-1.7,1.7-1.7h0.3
							c0,0,17.4-1.1,18.4-1.2c1-0.1,0.9-0.8,0.9-0.8C59.5,58.5,59.5,58,59.5,57.6"/>
					</g>
				</g>
				<g class="st2">
					<g>
						<defs>
							<rect id="SVGID_15_" x="2.3" y="2.3" width="56.9" height="67.1"/>
						</defs>
						<clipPath id="SVGID_16_">
							<use xlink:href="#SVGID_15_"  style="overflow:visible;"/>
						</clipPath>
						<path class="st7" d="M59.2,57.2c0-0.1,0-0.3,0-0.4c0-0.3,0-0.6,0-0.9c0-0.2,0-0.3,0-0.5c0-0.3,0-0.6-0.1-0.8
							c0-0.2,0-0.3,0-0.5c0-0.3-0.1-0.6-0.1-0.9c0-0.1,0-0.2,0-0.3c-0.1-0.4-0.1-0.8-0.2-1.2c0-0.1,0-0.1,0-0.2
							c-0.1-0.3-0.1-0.6-0.2-1c0-0.1-0.1-0.3-0.1-0.4c-0.1-0.3-0.1-0.5-0.2-0.8c0-0.1-0.1-0.3-0.1-0.4c-0.1-0.2-0.1-0.5-0.2-0.7
							c0-0.1-0.1-0.2-0.1-0.4c-0.1-0.3-0.2-0.6-0.3-0.8c0-0.1,0-0.1-0.1-0.2c-0.1-0.3-0.3-0.7-0.4-1c0-0.1-0.1-0.1-0.1-0.2
							c-0.1-0.2-0.2-0.5-0.3-0.7c0-0.1-0.1-0.2-0.1-0.3c-0.1-0.2-0.2-0.4-0.3-0.6c-0.1-0.1-0.1-0.2-0.2-0.3
							c-0.1-0.2-0.2-0.4-0.4-0.6c0-0.1-0.1-0.2-0.1-0.2c-0.3-0.6-0.7-1.1-1-1.6c0-0.1-0.1-0.1-0.1-0.2c-0.1-0.2-0.3-0.4-0.4-0.6
							c0,0,0-0.1-0.1-0.1c0,0,0,0,0,0c-2-2.7-4.2-4.6-5.8-5.7c-2.1-1.5-3.5-3.2-4.5-5.1l0-2C42.7,26,42,23.9,41.6,22
							c-0.3-1.7-1-3-1.6-3.9l0,0c-0.5-0.7-1.1-1.3-1.5-1.6c-1.3-6.8-4.1-11.3-6-13.3c-0.4-0.4-0.9-0.8-1.6-0.9c-0.1,0-0.1,0-0.2,0
							c-0.1,0-0.1,0-0.2,0c-0.6,0.1-1.2,0.5-1.6,0.9c-2,2-4.7,6.4-6,13.3c-0.4,0.3-0.9,0.8-1.5,1.6c0,0,0,0,0,0
							c-0.5,0.6-1,1.7-1.3,2.7l0,1.8c-0.1,0.4-0.2,0.8-0.3,1.2c-0.8,4.4-2.3,8-6.4,10.9c-1.6,1.1-3.8,3-5.8,5.7c0,0,0,0,0,0
							c0,0,0,0.1-0.1,0.1c-0.1,0.2-0.3,0.4-0.4,0.6c0,0.1-0.1,0.1-0.1,0.2c-0.4,0.5-0.7,1.1-1,1.6C6,42.9,6,43,6,43.1
							c-0.1,0.2-0.2,0.4-0.4,0.6c-0.1,0.1-0.1,0.2-0.2,0.3c-0.1,0.2-0.2,0.4-0.3,0.6c0,0.1-0.1,0.2-0.1,0.3
							c-0.1,0.2-0.2,0.5-0.3,0.7c0,0.1-0.1,0.1-0.1,0.2c-0.1,0.3-0.3,0.7-0.4,1c0,0.1,0,0.1-0.1,0.2c-0.1,0.3-0.2,0.6-0.3,0.8
							c0,0.1-0.1,0.2-0.1,0.4c-0.1,0.2-0.2,0.5-0.2,0.7c0,0.1-0.1,0.3-0.1,0.4c-0.1,0.2-0.1,0.5-0.2,0.8c0,0.1-0.1,0.3-0.1,0.4
							c-0.1,0.3-0.1,0.6-0.2,1c0,0.1,0,0.1,0,0.2c-0.1,0.4-0.1,0.8-0.2,1.2c0,0.1,0,0.2,0,0.3c0,0.3-0.1,0.6-0.1,0.9
							c0,0.2,0,0.3,0,0.5c0,0.3,0,0.6-0.1,0.8c0,0.2,0,0.3,0,0.5c0,0.3,0,0.6,0,0.9c0,0.1,0,0.3,0,0.4c0,0.5,0,0.9,0,1.4
							c0,0-0.1,0.7,0.9,0.8c1,0.1,18.4,1.2,18.4,1.2h0.3c0,0,0.1,0.9,1.6,1.7c0,0,0,0.1,0,0.1c0,0,0,0,0,0c0,0.1-0.1,0.3-0.1,0.4h0
							c-0.1,0.3-0.2,0.6-0.3,0.9h0c0,0.1-0.1,0.3-0.1,0.4h0c-0.1,0.3-0.1,0.6-0.2,0.9h0c0,0,0,0,0,0c0,0.1,0,0.1,0,0.2
							c0,0.1,0,0.2,0,0.2c0,0,0,0,0,0c-0.1,0.3-0.1,0.6-0.1,0.9c0,0,0,0,0,0c0,0.1,0,0.3,0,0.4h0c0,0.3,0,0.6-0.1,0.9c0,0,0,0,0,0
							c0,0,0,0.1,0,0.1c0,0.1,0,0.2,0,0.3c0,0,0,0,0,0c0,0.2,0,0.4,0,0.6c0,0,0,0,0.1,0c0,0,0,0,0,0c0,0,0.1,0,0.2,0.1c0,0,0,0,0,0
							c0.5,0.2,1.7,0.5,3.2,0.5v0h0c0.8,0,1.4-0.1,2-0.2v0c0,0,0,0,0,0c0.1,0,0.1,0,0.2,0c0.1,0,0.2,0,0.3-0.1c0.1,0,0.1,0,0.1,0
							c0.1,0,0.2-0.1,0.3-0.1c0,0,0.1,0,0.1,0c0.1,0,0.1,0,0.2-0.1c0,0,0,0,0.1,0c0.1,0,0.1,0,0.2-0.1c0,0,0,0,0,0c0,0,0,0,0,0
							c0-0.2,0-0.4,0-0.6c0,0,0,0,0,0c0-0.1,0-0.2,0-0.3c0,0,0-0.1,0-0.1c0,0,0,0,0,0h0c0-0.3,0-0.6-0.1-1h0c0-0.1,0-0.3,0-0.4
							c0,0,0,0,0,0c0-0.3-0.1-0.6-0.1-0.9c0,0,0,0,0,0c0-0.1,0-0.1,0-0.2c0-0.1,0-0.1,0-0.2c0,0,0,0,0-0.1h0
							c-0.1-0.3-0.1-0.6-0.2-0.9h0c0-0.1-0.1-0.3-0.1-0.4c0-0.1,0-0.1,0-0.2c0.3,0,0.6,0,0.9,0.1c0,0.1,0,0.1,0,0.1s-0.2,1,0.9,1.3
							h0.4c1-0.3,0.9-1.3,0.9-1.3s0-0.1,0-0.1c0.3,0,0.5,0,0.8,0c0,0.1,0,0.1-0.1,0.2h0c0,0.1-0.1,0.3-0.1,0.4h0
							c-0.1,0.3-0.1,0.6-0.2,0.9c0,0,0,0,0,0c0,0.1,0,0.1,0,0.2c0,0.1,0,0.1,0,0.2c0,0,0,0,0,0c-0.1,0.3-0.1,0.6-0.1,0.9
							c0,0,0,0,0,0c0,0.1,0,0.3,0,0.4h0c0,0.3,0,0.6-0.1,0.9c0,0,0,0,0,0c0,0,0,0.1,0,0.1c0,0.1,0,0.2,0,0.3c0,0,0,0,0,0
							c0,0.2,0,0.4,0,0.6c0,0,0,0,0.1,0h0c0,0,0.1,0,0.2,0.1c0,0,0,0,0,0c0.5,0.2,1.7,0.5,3.2,0.5v0h0c0.8,0,1.4-0.1,2-0.2v0
							c0,0,0,0,0,0c0.1,0,0.1,0,0.1,0c0.1,0,0.2,0,0.3-0.1c0,0,0.1,0,0.1,0c0.1,0,0.2-0.1,0.3-0.1c0,0,0.1,0,0.1,0
							c0.1,0,0.1,0,0.2-0.1c0,0,0,0,0.1,0c0.1,0,0.1,0,0.2-0.1c0,0,0,0,0,0c0,0,0,0,0,0c0-0.2,0-0.4,0-0.6c0,0,0,0,0,0
							c0-0.1,0-0.2,0-0.3c0,0,0-0.1,0-0.1c0,0,0,0,0,0h0c0-0.3,0-0.6-0.1-1h0c0-0.1,0-0.3,0-0.4c0,0,0,0,0,0c0-0.3-0.1-0.6-0.1-0.9
							c0,0,0,0,0,0c0-0.1,0-0.1,0-0.2c0-0.1,0-0.1,0-0.2c0,0,0,0,0-0.1h0c-0.1-0.3-0.1-0.6-0.2-0.9h0c0-0.1-0.1-0.3-0.1-0.4
							c-0.1-0.3-0.2-0.6-0.3-0.9h0c0-0.1-0.1-0.3-0.1-0.4c0,0,0,0,0,0c0,0,0,0,0-0.1c1.6-0.8,1.7-1.7,1.7-1.7h0.3
							c0,0,17.4-1.1,18.4-1.2c1-0.1,0.9-0.8,0.9-0.8C59.2,58.1,59.2,57.7,59.2,57.2"/>
					</g>
				</g>
				<g class="st2">
					<g>
						<defs>
							<rect id="SVGID_17_" x="2" y="2" width="56.9" height="67.1"/>
						</defs>
						<clipPath id="SVGID_18_">
							<use xlink:href="#SVGID_17_"  style="overflow:visible;"/>
						</clipPath>
						<path class="st8" d="M58.8,56.9c0-0.1,0-0.3,0-0.4c0-0.3,0-0.6,0-0.9c0-0.2,0-0.3,0-0.5c0-0.3,0-0.6-0.1-0.8
							c0-0.2,0-0.3,0-0.5c0-0.3-0.1-0.6-0.1-0.9c0-0.1,0-0.2,0-0.3c-0.1-0.4-0.1-0.8-0.2-1.2c0-0.1,0-0.1,0-0.2
							c-0.1-0.3-0.1-0.6-0.2-1c0-0.1-0.1-0.3-0.1-0.4c-0.1-0.3-0.1-0.5-0.2-0.8c0-0.1-0.1-0.3-0.1-0.4c-0.1-0.2-0.1-0.5-0.2-0.7
							c0-0.1-0.1-0.2-0.1-0.4c-0.1-0.3-0.2-0.6-0.3-0.8c0-0.1,0-0.1-0.1-0.2c-0.1-0.3-0.3-0.7-0.4-1c0-0.1-0.1-0.1-0.1-0.2
							c-0.1-0.2-0.2-0.5-0.3-0.7c0-0.1-0.1-0.2-0.1-0.3c-0.1-0.2-0.2-0.4-0.3-0.6c-0.1-0.1-0.1-0.2-0.2-0.3
							c-0.1-0.2-0.2-0.4-0.4-0.6c0-0.1-0.1-0.2-0.1-0.2c-0.3-0.6-0.7-1.1-1-1.6c0-0.1-0.1-0.1-0.1-0.2c-0.1-0.2-0.3-0.4-0.4-0.6
							c0,0,0-0.1-0.1-0.1c0,0,0,0,0,0c-2-2.7-4.2-4.6-5.8-5.7c-2.1-1.5-3.5-3.2-4.5-5.1l0-2c-0.8-1.6-1.6-3.7-1.9-5.6
							c-0.3-1.7-1-3-1.6-3.9c0,0,0,0,0,0c-0.5-0.7-1.1-1.3-1.5-1.6c-1.3-6.8-4.1-11.3-6-13.3C31.7,2.4,31.2,2,30.6,2
							c-0.1,0-0.1,0-0.2,0c-0.1,0-0.1,0-0.2,0c-0.6,0.1-1.2,0.5-1.6,0.9c-2,2-4.7,6.4-6,13.3c-0.4,0.3-0.9,0.8-1.5,1.6l0,0
							c-0.5,0.6-1,1.7-1.3,2.7l0,1.8c-0.1,0.4-0.2,0.8-0.3,1.2c-0.8,4.4-2.3,8-6.4,10.9c-1.6,1.1-3.8,3-5.8,5.7c0,0,0,0,0,0
							c0,0,0,0.1-0.1,0.1c-0.1,0.2-0.3,0.4-0.4,0.6c0,0.1-0.1,0.1-0.1,0.2c-0.4,0.5-0.7,1.1-1,1.6c0,0.1-0.1,0.2-0.1,0.2
							c-0.1,0.2-0.2,0.4-0.4,0.6c-0.1,0.1-0.1,0.2-0.2,0.3c-0.1,0.2-0.2,0.4-0.3,0.6c0,0.1-0.1,0.2-0.1,0.3
							c-0.1,0.2-0.2,0.5-0.3,0.7c0,0.1-0.1,0.1-0.1,0.2c-0.1,0.3-0.3,0.7-0.4,1c0,0.1,0,0.1-0.1,0.2c-0.1,0.3-0.2,0.6-0.3,0.8
							c0,0.1-0.1,0.2-0.1,0.4c-0.1,0.2-0.2,0.5-0.2,0.7C3.1,48.8,3,48.9,3,49c-0.1,0.2-0.1,0.5-0.2,0.8c0,0.1-0.1,0.3-0.1,0.4
							c-0.1,0.3-0.1,0.6-0.2,1c0,0.1,0,0.1,0,0.2c-0.1,0.4-0.1,0.8-0.2,1.2c0,0.1,0,0.2,0,0.3c0,0.3-0.1,0.6-0.1,0.9
							c0,0.2,0,0.3,0,0.5c0,0.3,0,0.6-0.1,0.8c0,0.2,0,0.3,0,0.5c0,0.3,0,0.6,0,0.9c0,0.1,0,0.3,0,0.4c0,0.5,0,0.9,0,1.4
							c0,0-0.1,0.7,0.9,0.8c1,0.1,18.4,1.2,18.4,1.2h0.3c0,0,0.1,0.9,1.6,1.7c0,0,0,0.1,0,0.1c0,0,0,0,0,0c0,0.1-0.1,0.3-0.1,0.4
							l0,0c-0.1,0.3-0.2,0.6-0.3,0.9h0c0,0.1-0.1,0.3-0.1,0.4c0,0,0,0,0,0c-0.1,0.3-0.1,0.6-0.2,0.9c0,0,0,0,0,0c0,0.1,0,0.1,0,0.2
							c0,0.1,0,0.2,0,0.2h0c-0.1,0.3-0.1,0.6-0.1,0.9c0,0,0,0,0,0c0,0.1,0,0.3,0,0.4h0c0,0.3,0,0.6-0.1,0.9h0v0c0,0,0,0.1,0,0.1
							c0,0.1,0,0.2,0,0.3c0,0,0,0,0,0c0,0.2,0,0.4,0,0.6c0,0,0,0,0.1,0c0,0,0,0,0,0c0,0,0.1,0,0.2,0.1c0,0,0,0,0,0v0
							c0.5,0.2,1.7,0.5,3.2,0.5v0h0c0.8,0,1.4-0.1,2-0.2c0,0,0,0,0,0c0.1,0,0.1,0,0.2,0c0.1,0,0.2,0,0.3-0.1c0.1,0,0.1,0,0.1,0
							c0.1,0,0.2-0.1,0.3-0.1c0,0,0.1,0,0.1,0c0.1,0,0.1,0,0.2-0.1c0,0,0,0,0.1,0c0.1,0,0.1,0,0.2-0.1c0,0,0,0,0,0c0,0,0,0,0,0
							c0-0.2,0-0.4,0-0.6c0,0,0,0,0,0c0-0.1,0-0.2,0-0.3c0,0,0-0.1,0-0.1v0l0,0c0-0.3,0-0.6-0.1-1c0,0,0,0,0,0c0-0.1,0-0.3,0-0.4
							c0,0,0,0,0,0c0-0.3-0.1-0.6-0.1-0.9h0c0-0.1,0-0.1,0-0.2c0-0.1,0-0.1,0-0.2c0,0,0,0,0-0.1h0c-0.1-0.3-0.1-0.6-0.2-0.9
							c0,0,0,0,0,0c0-0.1-0.1-0.3-0.1-0.4h0c0-0.1,0-0.1,0-0.2c0.3,0,0.6,0,0.9,0.1c0,0.1,0,0.1,0,0.1s-0.2,1,0.9,1.3h0.4
							c1-0.3,0.9-1.3,0.9-1.3s0-0.1,0-0.1c0.3,0,0.5,0,0.8,0c0,0.1,0,0.1-0.1,0.2h0c0,0.1-0.1,0.3-0.1,0.4h0
							c-0.1,0.3-0.1,0.6-0.2,0.9h0c0,0,0,0,0,0l0,0.2c0,0.1,0,0.1,0,0.2h0c-0.1,0.3-0.1,0.6-0.1,0.9c0,0,0,0,0,0c0,0.1,0,0.3,0,0.4
							h0c0,0.3,0,0.6-0.1,0.9h0v0c0,0,0,0.1,0,0.1c0,0.1,0,0.2,0,0.3c0,0,0,0,0,0c0,0.2,0,0.4,0,0.6c0,0,0,0,0.1,0c0,0,0,0,0,0
							c0,0,0.1,0,0.2,0.1c0,0,0,0,0,0c0.5,0.2,1.7,0.5,3.2,0.5v0h0c0.8,0,1.4-0.1,2-0.2c0,0,0,0,0,0c0.1,0,0.1,0,0.1,0
							c0.1,0,0.2,0,0.3-0.1c0,0,0.1,0,0.1,0c0.1,0,0.2-0.1,0.3-0.1c0,0,0.1,0,0.1,0c0.1,0,0.1,0,0.2-0.1c0,0,0,0,0.1,0
							c0.1,0,0.1,0,0.2-0.1c0,0,0,0,0,0c0,0,0,0,0,0c0-0.2,0-0.4,0-0.6c0,0,0,0,0,0c0-0.1,0-0.2,0-0.3c0,0,0-0.1,0-0.1c0,0,0,0,0,0
							c0,0,0,0,0,0c0-0.3,0-0.6-0.1-1l0,0c0-0.1,0-0.3,0-0.4c0,0,0,0,0,0c0-0.3-0.1-0.6-0.1-0.9h0c0-0.1,0-0.1,0-0.2
							c0-0.1,0-0.1,0-0.2c0,0,0,0,0-0.1h0c-0.1-0.3-0.1-0.6-0.2-0.9c0,0,0,0,0,0c0-0.1-0.1-0.3-0.1-0.4h0c-0.1-0.3-0.2-0.6-0.3-0.9
							h0c0-0.1-0.1-0.3-0.1-0.4c0,0,0,0,0,0c0,0,0,0,0-0.1c1.6-0.8,1.7-1.7,1.7-1.7h0.3c0,0,17.4-1.1,18.4-1.2
							c1-0.1,0.9-0.8,0.9-0.8C58.8,57.8,58.8,57.4,58.8,56.9"/>
					</g>
				</g>
				<g class="st2">
					<g>
						<defs>
							<rect id="SVGID_19_" x="1.6" y="1.6" width="56.9" height="67.1"/>
						</defs>
						<clipPath id="SVGID_20_">
							<use xlink:href="#SVGID_19_"  style="overflow:visible;"/>
						</clipPath>
						<path class="st9" d="M58.5,56.6c0-0.1,0-0.3,0-0.4c0-0.3,0-0.6,0-0.9c0-0.2,0-0.3,0-0.5c0-0.3,0-0.6-0.1-0.8
							c0-0.2,0-0.3,0-0.5c0-0.3-0.1-0.6-0.1-0.9c0-0.1,0-0.2,0-0.3c-0.1-0.4-0.1-0.8-0.2-1.2c0-0.1,0-0.1,0-0.2
							c-0.1-0.3-0.1-0.6-0.2-1c0-0.1-0.1-0.3-0.1-0.4c-0.1-0.3-0.1-0.5-0.2-0.8c0-0.1-0.1-0.3-0.1-0.4c-0.1-0.2-0.1-0.5-0.2-0.7
							c0-0.1-0.1-0.2-0.1-0.4c-0.1-0.3-0.2-0.6-0.3-0.8c0-0.1,0-0.1-0.1-0.2c-0.1-0.3-0.3-0.7-0.4-1c0-0.1-0.1-0.1-0.1-0.2
							c-0.1-0.2-0.2-0.5-0.3-0.7c0-0.1-0.1-0.2-0.1-0.3c-0.1-0.2-0.2-0.4-0.3-0.6c-0.1-0.1-0.1-0.2-0.2-0.3
							c-0.1-0.2-0.2-0.4-0.4-0.6c0-0.1-0.1-0.2-0.1-0.2c-0.3-0.6-0.7-1.1-1-1.6c0-0.1-0.1-0.1-0.1-0.2c-0.1-0.2-0.3-0.4-0.4-0.6
							c0,0,0-0.1-0.1-0.1c0,0,0,0,0,0c-2-2.7-4.2-4.6-5.8-5.7c-2.1-1.5-3.5-3.2-4.5-5.1l0-2c-0.8-1.6-1.6-3.7-1.9-5.6
							c-0.3-1.7-1-3-1.6-3.9c0,0,0,0,0,0c-0.5-0.7-1.1-1.3-1.5-1.6c-1.3-6.8-4.1-11.3-6-13.3c-0.4-0.4-0.9-0.8-1.6-0.9
							c-0.1,0-0.1,0-0.2,0c-0.1,0-0.1,0-0.2,0c-0.6,0.1-1.2,0.5-1.6,0.9c-2,2-4.7,6.4-6,13.3c-0.4,0.3-0.9,0.8-1.5,1.6c0,0,0,0,0,0
							c-0.5,0.6-1,1.7-1.3,2.7l0,1.8c-0.1,0.4-0.2,0.8-0.3,1.2c-0.8,4.4-2.3,8-6.4,10.9c-1.6,1.1-3.8,3-5.8,5.7c0,0,0,0,0,0
							c0,0,0,0.1-0.1,0.1c-0.1,0.2-0.3,0.4-0.4,0.6c0,0.1-0.1,0.1-0.1,0.2c-0.4,0.5-0.7,1.1-1,1.6c0,0.1-0.1,0.2-0.1,0.2
							c-0.1,0.2-0.2,0.4-0.4,0.6c-0.1,0.1-0.1,0.2-0.2,0.3c-0.1,0.2-0.2,0.4-0.3,0.6c0,0.1-0.1,0.2-0.1,0.3C4.2,44.5,4.1,44.7,4,45
							c0,0.1-0.1,0.1-0.1,0.2c-0.1,0.3-0.3,0.7-0.4,1c0,0.1,0,0.1-0.1,0.2c-0.1,0.3-0.2,0.6-0.3,0.8c0,0.1-0.1,0.2-0.1,0.4
							c-0.1,0.2-0.2,0.5-0.2,0.7c0,0.1-0.1,0.3-0.1,0.4c-0.1,0.2-0.1,0.5-0.2,0.8c0,0.1-0.1,0.3-0.1,0.4c-0.1,0.3-0.1,0.6-0.2,1
							c0,0.1,0,0.1,0,0.2C2,51.4,2,51.8,1.9,52.2c0,0.1,0,0.2,0,0.3c0,0.3-0.1,0.6-0.1,0.9c0,0.2,0,0.3,0,0.5c0,0.3,0,0.6-0.1,0.8
							c0,0.2,0,0.3,0,0.5c0,0.3,0,0.6,0,0.9c0,0.1,0,0.3,0,0.4c0,0.5,0,0.9,0,1.4c0,0-0.1,0.7,0.9,0.8C3.6,58.9,21,60,21,60h0.3
							c0,0,0.1,0.9,1.6,1.7c0,0,0,0.1,0,0.1c0,0,0,0,0,0c0,0.1-0.1,0.3-0.1,0.4h0c-0.1,0.3-0.2,0.6-0.3,0.9c0,0.1-0.1,0.3-0.1,0.4h0
							c-0.1,0.3-0.1,0.6-0.2,0.9c0,0,0,0,0,0c0,0,0,0,0,0c0,0.1,0,0.1,0,0.2c0,0.1,0,0.2,0,0.2c0,0,0,0,0,0
							c-0.1,0.3-0.1,0.6-0.1,0.9c0,0,0,0,0,0c0,0.1,0,0.3,0,0.4c0,0.3,0,0.6-0.1,0.9l0,0v0c0,0,0,0.1,0,0.1c0,0.1,0,0.2,0,0.3
							c0,0,0,0,0,0c0,0.2,0,0.4,0,0.6c0,0,0,0,0.1,0c0,0,0,0,0,0c0,0,0.1,0,0.2,0.1c0,0,0,0,0,0v0c0.5,0.2,1.7,0.5,3.2,0.5v0h0
							c0.8,0,1.4-0.1,2-0.2l0,0c0.1,0,0.1,0,0.2,0c0.1,0,0.2,0,0.3-0.1c0.1,0,0.1,0,0.1,0c0.1,0,0.2-0.1,0.3-0.1c0,0,0.1,0,0.1,0
							c0.1,0,0.1,0,0.2-0.1c0,0,0,0,0.1,0c0.1,0,0.1,0,0.2-0.1c0,0,0,0,0,0c0,0,0,0,0,0c0-0.2,0-0.4,0-0.6c0,0,0,0,0,0
							c0-0.1,0-0.2,0-0.3c0,0,0-0.1,0-0.1c0,0,0,0,0,0l0,0c0-0.3,0-0.6-0.1-1c0-0.1,0-0.3,0-0.4c0,0,0,0,0,0c0-0.3-0.1-0.6-0.1-0.9
							c0,0,0,0,0,0c0-0.1,0-0.1,0-0.2c0-0.1,0-0.1,0-0.2c0,0,0,0,0-0.1h0c-0.1-0.3-0.1-0.6-0.2-0.9c0,0,0,0,0,0
							c0-0.1-0.1-0.3-0.1-0.4l0,0c0-0.1,0-0.1,0-0.2c0.3,0,0.6,0,0.9,0.1c0,0.1,0,0.1,0,0.1s-0.2,1,0.9,1.3h0.4
							c1-0.3,0.9-1.3,0.9-1.3s0-0.1,0-0.1c0.3,0,0.5,0,0.8,0c0,0.1,0,0.1-0.1,0.2h0c0,0.1-0.1,0.3-0.1,0.4h0
							c-0.1,0.3-0.1,0.6-0.2,0.9l0,0c0,0,0,0,0,0c0,0.1,0,0.1,0,0.2c0,0.1,0,0.1,0,0.2c0,0,0,0,0,0c-0.1,0.3-0.1,0.6-0.1,0.9
							c0,0,0,0,0,0c0,0.1,0,0.3,0,0.4h0c0,0.3,0,0.6-0.1,0.9l0,0v0c0,0,0,0.1,0,0.1c0,0.1,0,0.2,0,0.3c0,0,0,0,0,0
							c0,0.2,0,0.4,0,0.6c0,0,0,0,0.1,0c0,0,0,0,0,0c0,0,0.1,0,0.2,0.1c0,0,0,0,0,0v0c0.5,0.2,1.7,0.5,3.2,0.5v0h0
							c0.8,0,1.4-0.1,2-0.2c0,0,0,0,0,0c0.1,0,0.1,0,0.1,0c0.1,0,0.2,0,0.3-0.1c0,0,0.1,0,0.1,0c0.1,0,0.2-0.1,0.3-0.1
							c0,0,0.1,0,0.1,0c0.1,0,0.1,0,0.2-0.1c0,0,0,0,0.1,0c0.1,0,0.1,0,0.2-0.1c0,0,0,0,0,0c0,0,0,0,0,0c0-0.2,0-0.4,0-0.6
							c0,0,0,0,0,0c0-0.1,0-0.2,0-0.3l0-0.1c0,0,0,0,0,0l0,0c0-0.3,0-0.6-0.1-1h0c0-0.1,0-0.3,0-0.4c0,0,0,0,0,0
							c0-0.3-0.1-0.6-0.1-0.9c0,0,0,0,0,0c0-0.1,0-0.1,0-0.2c0-0.1,0-0.1,0-0.2c0,0,0,0,0-0.1h0c-0.1-0.3-0.1-0.6-0.2-0.9
							c0,0,0,0,0,0c0-0.1-0.1-0.3-0.1-0.4l0,0c-0.1-0.3-0.2-0.6-0.3-0.9h0c0-0.1-0.1-0.3-0.1-0.4c0,0,0,0,0,0c0,0,0,0,0-0.1
							c1.6-0.8,1.7-1.7,1.7-1.7h0.3c0,0,17.4-1.1,18.4-1.2c1-0.1,0.9-0.8,0.9-0.8C58.5,57.5,58.5,57,58.5,56.6"/>
					</g>
				</g>
				<g class="st2">
					<g>
						<defs>
							<rect id="SVGID_21_" x="1.3" y="1.3" width="56.9" height="67.1"/>
						</defs>
						<clipPath id="SVGID_22_">
							<use xlink:href="#SVGID_21_"  style="overflow:visible;"/>
						</clipPath>
						<path class="st10" d="M58.2,56.2c0-0.1,0-0.3,0-0.4c0-0.3,0-0.6,0-0.9c0-0.2,0-0.3,0-0.5c0-0.3,0-0.6-0.1-0.8
							c0-0.2,0-0.3,0-0.5c0-0.3-0.1-0.6-0.1-0.9c0-0.1,0-0.2,0-0.3c-0.1-0.4-0.1-0.8-0.2-1.2c0-0.1,0-0.1,0-0.2
							c-0.1-0.3-0.1-0.6-0.2-1c0-0.1-0.1-0.3-0.1-0.4c-0.1-0.3-0.1-0.5-0.2-0.8c0-0.1-0.1-0.3-0.1-0.4c-0.1-0.2-0.1-0.5-0.2-0.7
							c0-0.1-0.1-0.2-0.1-0.4c-0.1-0.3-0.2-0.6-0.3-0.8c0-0.1,0-0.1-0.1-0.2c-0.1-0.3-0.3-0.7-0.4-1c0-0.1-0.1-0.1-0.1-0.2
							c-0.1-0.2-0.2-0.5-0.3-0.7c0-0.1-0.1-0.2-0.1-0.3c-0.1-0.2-0.2-0.4-0.3-0.6c-0.1-0.1-0.1-0.2-0.2-0.3
							c-0.1-0.2-0.2-0.4-0.4-0.6c0-0.1-0.1-0.2-0.1-0.2c-0.3-0.6-0.7-1.1-1-1.6c0-0.1-0.1-0.1-0.1-0.2c-0.1-0.2-0.3-0.4-0.4-0.6
							c0,0,0-0.1-0.1-0.1c0,0,0,0,0,0c-2-2.7-4.2-4.6-5.8-5.7c-2.1-1.5-3.5-3.2-4.5-5.1l0-2C41.8,25,41,22.9,40.6,21
							c-0.3-1.7-1-3-1.6-3.9c0,0,0,0,0,0c-0.5-0.7-1.1-1.2-1.5-1.6c-1.3-6.8-4.1-11.3-6-13.3c-0.4-0.4-0.9-0.8-1.6-0.9
							c-0.1,0-0.1,0-0.2,0c-0.1,0-0.1,0-0.2,0c-0.6,0.1-1.2,0.5-1.6,0.9c-2,2-4.7,6.4-6,13.3c-0.4,0.3-0.9,0.8-1.5,1.6l0,0
							c-0.5,0.6-1,1.7-1.3,2.7l0,1.8c-0.1,0.4-0.2,0.8-0.3,1.2c-0.8,4.4-2.3,8-6.4,10.9c-1.6,1.1-3.8,3-5.8,5.7c0,0,0,0,0,0
							c0,0,0,0.1-0.1,0.1c-0.1,0.2-0.3,0.4-0.4,0.6c0,0.1-0.1,0.1-0.1,0.2c-0.4,0.5-0.7,1.1-1,1.6C5.1,41.9,5,42,5,42.1
							c-0.1,0.2-0.2,0.4-0.4,0.6c-0.1,0.1-0.1,0.2-0.2,0.3c-0.1,0.2-0.2,0.4-0.3,0.6c0,0.1-0.1,0.2-0.1,0.3
							c-0.1,0.2-0.2,0.5-0.3,0.7c0,0.1-0.1,0.1-0.1,0.2c-0.1,0.3-0.3,0.7-0.4,1c0,0.1,0,0.1-0.1,0.2c-0.1,0.3-0.2,0.6-0.3,0.8
							c0,0.1-0.1,0.2-0.1,0.3c-0.1,0.2-0.2,0.5-0.2,0.7c0,0.1-0.1,0.3-0.1,0.4c-0.1,0.2-0.1,0.5-0.2,0.8c0,0.1-0.1,0.3-0.1,0.4
							c-0.1,0.3-0.1,0.6-0.2,1c0,0.1,0,0.1,0,0.2c-0.1,0.4-0.1,0.8-0.2,1.2c0,0.1,0,0.2,0,0.3c0,0.3-0.1,0.6-0.1,0.9
							c0,0.2,0,0.3,0,0.5c0,0.3,0,0.6-0.1,0.8c0,0.2,0,0.3,0,0.5c0,0.3,0,0.6,0,0.9c0,0.1,0,0.3,0,0.4c0,0.5,0,0.9,0,1.4
							c0,0-0.1,0.7,0.9,0.8c1,0.1,18.4,1.2,18.4,1.2h0.3c0,0,0.1,0.9,1.6,1.7c0,0,0,0.1,0,0.1c0,0,0,0,0,0c0,0.1-0.1,0.3-0.1,0.4h0
							c-0.1,0.3-0.2,0.6-0.3,0.9h0c0,0.1-0.1,0.3-0.1,0.4h0c-0.1,0.3-0.1,0.6-0.2,0.9h0c0,0,0,0,0,0c0,0,0,0.1,0,0.2
							c0,0.1,0,0.2,0,0.2c0,0,0,0,0,0c-0.1,0.3-0.1,0.6-0.1,0.9c0,0,0,0,0,0c0,0.1,0,0.3,0,0.4h0c0,0.3,0,0.6-0.1,0.9v0
							c0,0,0,0.1,0,0.1c0,0.1,0,0.2,0,0.3c0,0,0,0,0,0c0,0.2,0,0.4,0,0.6c0,0,0,0,0.1,0c0,0,0,0,0,0c0,0,0.1,0,0.2,0.1c0,0,0,0,0,0
							c0.5,0.2,1.7,0.5,3.2,0.5v0c0,0,0,0,0,0c0.8,0,1.4-0.1,2-0.2v0c0,0,0,0,0,0c0.1,0,0.1,0,0.2,0c0.1,0,0.2,0,0.3-0.1
							c0.1,0,0.1,0,0.1,0c0.1,0,0.2-0.1,0.3-0.1c0,0,0.1,0,0.1,0c0.1,0,0.1,0,0.2-0.1c0,0,0,0,0.1,0c0.1,0,0.1,0,0.2-0.1
							c0,0,0,0,0,0c0,0,0,0,0,0c0-0.2,0-0.4,0-0.6c0,0,0,0,0,0c0-0.1,0-0.2,0-0.3c0,0,0-0.1,0-0.1v0h0c0-0.3,0-0.6-0.1-1
							c0,0,0,0,0,0c0-0.1,0-0.3,0-0.4c0,0,0,0,0,0c0-0.3-0.1-0.6-0.1-0.9h0c0-0.1,0-0.1,0-0.2c0-0.1,0-0.1,0-0.2c0,0,0,0,0-0.1h0
							c-0.1-0.3-0.1-0.6-0.2-0.9h0c0-0.1-0.1-0.3-0.1-0.4c0-0.1,0-0.1,0-0.2c0.3,0,0.6,0,0.9,0.1c0,0.1,0,0.1,0,0.1s-0.2,1,0.9,1.3
							h0.4c1-0.3,0.9-1.3,0.9-1.3s0-0.1,0-0.1c0.3,0,0.5,0,0.8,0c0,0.1,0,0.1-0.1,0.2h0c0,0.1-0.1,0.3-0.1,0.4h0
							c-0.1,0.3-0.1,0.6-0.2,0.9c0,0,0,0,0,0c0,0.1,0,0.1,0,0.2c0,0.1,0,0.1,0,0.2c0,0,0,0,0,0c-0.1,0.3-0.1,0.6-0.1,0.9
							c0,0,0,0,0,0c0,0.1,0,0.3,0,0.4h0c0,0.3,0,0.6-0.1,0.9h0v0c0,0,0,0.1,0,0.1c0,0.1,0,0.2,0,0.3c0,0,0,0,0,0c0,0.2,0,0.4,0,0.6
							c0,0,0,0,0.1,0c0,0,0,0,0,0c0,0,0.1,0,0.2,0.1c0,0,0,0,0,0c0.5,0.2,1.7,0.5,3.2,0.5v0c0,0,0,0,0,0c0.8,0,1.4-0.1,2-0.2v0
							c0,0,0,0,0,0c0.1,0,0.1,0,0.1,0c0.1,0,0.2,0,0.3-0.1c0,0,0.1,0,0.1,0c0.1,0,0.2-0.1,0.3-0.1c0,0,0.1,0,0.1,0
							c0.1,0,0.1,0,0.2-0.1c0,0,0,0,0.1,0c0.1,0,0.1,0,0.2-0.1c0,0,0,0,0,0c0,0,0,0,0,0c0-0.2,0-0.4,0-0.6c0,0,0,0,0,0
							c0-0.1,0-0.2,0-0.3c0,0,0-0.1,0-0.1v0h0c0-0.3,0-0.6-0.1-1c0,0,0,0,0,0c0-0.1,0-0.3,0-0.4c0,0,0,0,0,0c0-0.3-0.1-0.6-0.1-0.9
							h0c0-0.1,0-0.1,0-0.2c0-0.1,0-0.1,0-0.2c0,0,0,0,0-0.1h0c-0.1-0.3-0.1-0.6-0.2-0.9h0c0-0.1-0.1-0.3-0.1-0.4h0
							c-0.1-0.3-0.2-0.6-0.3-0.9h0c0-0.1-0.1-0.3-0.1-0.4c0,0,0,0,0,0c0,0,0,0,0-0.1c1.6-0.8,1.7-1.7,1.7-1.7h0.3
							c0,0,17.4-1.1,18.4-1.2c1-0.1,0.9-0.8,0.9-0.8C58.2,57.2,58.2,56.7,58.2,56.2"/>
					</g>
				</g>
				<g class="st2">
					<g>
						<defs>
							<rect id="SVGID_23_" x="1" y="1" width="56.9" height="67.1"/>
						</defs>
						<clipPath id="SVGID_24_">
							<use xlink:href="#SVGID_23_"  style="overflow:visible;"/>
						</clipPath>
						<path class="st11" d="M57.9,55.9c0-0.1,0-0.3,0-0.4c0-0.3,0-0.6,0-0.9c0-0.2,0-0.3,0-0.5c0-0.3,0-0.6-0.1-0.8
							c0-0.2,0-0.3,0-0.5c0-0.3-0.1-0.6-0.1-0.9c0-0.1,0-0.2,0-0.3c-0.1-0.4-0.1-0.8-0.2-1.2c0-0.1,0-0.1,0-0.2
							c-0.1-0.3-0.1-0.6-0.2-1c0-0.1-0.1-0.3-0.1-0.4c-0.1-0.3-0.1-0.5-0.2-0.8c0-0.1-0.1-0.3-0.1-0.4c-0.1-0.2-0.1-0.5-0.2-0.7
							c0-0.1-0.1-0.2-0.1-0.4c-0.1-0.3-0.2-0.6-0.3-0.8c0-0.1,0-0.1-0.1-0.2c-0.1-0.3-0.3-0.7-0.4-1c0-0.1-0.1-0.1-0.1-0.2
							c-0.1-0.2-0.2-0.5-0.3-0.7c0-0.1-0.1-0.2-0.1-0.3c-0.1-0.2-0.2-0.4-0.3-0.6c-0.1-0.1-0.1-0.2-0.2-0.3
							c-0.1-0.2-0.2-0.4-0.4-0.6c0-0.1-0.1-0.2-0.1-0.2c-0.3-0.6-0.7-1.1-1-1.6c0-0.1-0.1-0.1-0.1-0.2c-0.1-0.2-0.3-0.4-0.4-0.6
							c0,0,0-0.1-0.1-0.1c0,0,0,0,0,0c-2-2.7-4.2-4.6-5.8-5.7c-2.1-1.5-3.5-3.2-4.5-5.1l0-2c-0.8-1.6-1.6-3.7-1.9-5.6
							c-0.3-1.7-1-3-1.6-3.9l0,0c-0.5-0.7-1.1-1.3-1.5-1.6c-1.3-6.8-4.1-11.3-6-13.3c-0.4-0.4-0.9-0.8-1.6-0.9c-0.1,0-0.1,0-0.2,0
							c-0.1,0-0.1,0-0.2,0c-0.6,0.1-1.2,0.5-1.6,0.9c-2,2-4.7,6.4-6,13.3c-0.4,0.3-0.9,0.8-1.5,1.6c0,0,0,0,0,0
							c-0.5,0.6-1,1.7-1.3,2.7l0,1.8c-0.1,0.4-0.2,0.8-0.3,1.2c-0.8,4.4-2.3,8-6.4,10.9c-1.6,1.1-3.8,3-5.8,5.7c0,0,0,0,0,0
							c0,0,0,0.1-0.1,0.1c-0.1,0.2-0.3,0.4-0.4,0.6c0,0.1-0.1,0.1-0.1,0.2c-0.4,0.5-0.7,1.1-1,1.6c0,0.1-0.1,0.2-0.1,0.2
							c-0.1,0.2-0.2,0.4-0.4,0.6c-0.1,0.1-0.1,0.2-0.2,0.3c-0.1,0.2-0.2,0.4-0.3,0.6c0,0.1-0.1,0.2-0.1,0.3
							c-0.1,0.2-0.2,0.5-0.3,0.7c0,0.1-0.1,0.1-0.1,0.2c-0.1,0.3-0.3,0.7-0.4,1c0,0.1,0,0.1-0.1,0.2c-0.1,0.3-0.2,0.6-0.3,0.8
							c0,0.1-0.1,0.2-0.1,0.4c-0.1,0.2-0.2,0.5-0.2,0.7C2.1,47.8,2,47.9,2,48c-0.1,0.2-0.1,0.5-0.2,0.8c0,0.1-0.1,0.3-0.1,0.4
							c-0.1,0.3-0.1,0.6-0.2,1c0,0.1,0,0.1,0,0.2c-0.1,0.4-0.1,0.8-0.2,1.2c0,0.1,0,0.2,0,0.3c0,0.3-0.1,0.6-0.1,0.9
							c0,0.2,0,0.3,0,0.5c0,0.3,0,0.6-0.1,0.8c0,0.2,0,0.3,0,0.5c0,0.3,0,0.6,0,0.9c0,0.1,0,0.3,0,0.4c0,0.5,0,0.9,0,1.4
							c0,0-0.1,0.7,0.9,0.8c1,0.1,18.4,1.2,18.4,1.2h0.3c0,0,0.1,0.9,1.6,1.7c0,0,0,0.1,0,0.1c0,0,0,0,0,0c0,0.1-0.1,0.3-0.1,0.4h0
							c-0.1,0.3-0.2,0.6-0.3,0.9c0,0,0,0,0,0c0,0.1-0.1,0.3-0.1,0.4l0,0c-0.1,0.3-0.1,0.6-0.2,0.9h0c0,0,0,0,0,0c0,0,0,0.1,0,0.2
							c0,0.1,0,0.2,0,0.2c0,0,0,0,0,0c-0.1,0.3-0.1,0.6-0.1,0.9c0,0,0,0,0,0c0,0.1,0,0.3,0,0.4c0,0.3,0,0.6-0.1,0.9h0v0
							c0,0,0,0.1,0,0.1c0,0.1,0,0.2,0,0.3c0,0,0,0,0,0c0,0.2,0,0.4,0,0.6c0,0,0,0,0.1,0c0,0,0,0,0,0c0,0,0.1,0,0.2,0.1c0,0,0,0,0,0
							v0c0.5,0.2,1.7,0.5,3.2,0.5c0,0,0,0,0,0c0.8,0,1.4-0.1,2-0.2c0,0,0,0,0,0c0.1,0,0.1,0,0.2,0c0.1,0,0.2,0,0.3-0.1
							c0.1,0,0.1,0,0.1,0c0.1,0,0.2-0.1,0.3-0.1c0,0,0.1,0,0.1,0c0.1,0,0.1,0,0.2-0.1c0,0,0,0,0.1,0c0.1,0,0.1,0,0.2-0.1
							c0,0,0,0,0,0c0,0,0,0,0,0c0-0.2,0-0.4,0-0.6c0,0,0,0,0,0c0-0.1,0-0.2,0-0.3c0,0,0-0.1,0-0.1c0,0,0,0,0,0h0c0-0.3,0-0.6-0.1-1
							h0c0-0.1,0-0.3,0-0.4c0,0,0,0,0,0c0-0.3-0.1-0.6-0.1-0.9c0,0,0,0,0,0c0-0.1,0-0.1,0-0.2c0-0.1,0-0.1,0-0.2c0,0,0,0,0-0.1
							c0,0,0,0,0,0c-0.1-0.3-0.1-0.6-0.2-0.9h0c0-0.1-0.1-0.3-0.1-0.4h0c0-0.1,0-0.1,0-0.2c0.3,0,0.6,0,0.9,0.1c0,0.1,0,0.1,0,0.1
							s-0.2,1,0.9,1.3h0.4c1-0.3,0.9-1.3,0.9-1.3s0-0.1,0-0.1c0.3,0,0.5,0,0.8,0c0,0.1,0,0.1-0.1,0.2v0c0,0.1-0.1,0.3-0.1,0.4
							c0,0,0,0,0,0c-0.1,0.3-0.1,0.6-0.2,0.9h0c0,0,0,0,0,0c0,0.1,0,0.1,0,0.2c0,0.1,0,0.1,0,0.2c0,0,0,0,0,0
							c-0.1,0.3-0.1,0.6-0.1,0.9c0,0,0,0,0,0c0,0.1,0,0.3,0,0.4c0,0.3,0,0.6-0.1,0.9h0v0c0,0,0,0.1,0,0.1c0,0.1,0,0.2,0,0.3
							c0,0,0,0,0,0c0,0.2,0,0.4,0,0.6c0,0,0,0,0.1,0l0,0c0,0,0.1,0,0.2,0.1c0,0,0,0,0,0v0c0.5,0.2,1.7,0.5,3.2,0.5c0,0,0,0,0,0
							c0.8,0,1.4-0.1,2-0.2c0,0,0,0,0,0c0.1,0,0.1,0,0.1,0c0.1,0,0.2,0,0.3-0.1c0,0,0.1,0,0.1,0c0.1,0,0.2-0.1,0.3-0.1
							c0,0,0.1,0,0.1,0c0.1,0,0.1,0,0.2-0.1c0,0,0,0,0.1,0c0.1,0,0.1,0,0.2-0.1c0,0,0,0,0,0c0,0,0,0,0,0c0-0.2,0-0.4,0-0.6
							c0,0,0,0,0,0c0-0.1,0-0.2,0-0.3c0,0,0-0.1,0-0.1c0,0,0,0,0,0h0c0-0.3,0-0.6-0.1-1h0c0-0.1,0-0.3,0-0.4c0,0,0,0,0,0
							c0-0.3-0.1-0.6-0.1-0.9c0,0,0,0,0,0c0-0.1,0-0.1,0-0.2c0-0.1,0-0.1,0-0.2c0,0,0,0,0-0.1c0,0,0,0,0,0c-0.1-0.3-0.1-0.6-0.2-0.9
							h0c0-0.1-0.1-0.3-0.1-0.4h0c-0.1-0.3-0.2-0.6-0.3-0.9h0c0-0.1-0.1-0.3-0.1-0.4c0,0,0,0,0,0c0,0,0,0,0-0.1
							c1.6-0.8,1.7-1.7,1.7-1.7h0.3c0,0,17.4-1.1,18.4-1.2c1-0.1,0.9-0.8,0.9-0.8C57.8,56.8,57.8,56.4,57.9,55.9"/>
					</g>
				</g>
				<g class="st2">
					<g>
						<defs>
							<rect id="SVGID_25_" x="0.7" y="0.7" width="56.9" height="67.1"/>
						</defs>
						<clipPath id="SVGID_26_">
							<use xlink:href="#SVGID_25_"  style="overflow:visible;"/>
						</clipPath>
						<path class="st12" d="M57.5,55.6c0-0.1,0-0.3,0-0.4c0-0.3,0-0.6,0-0.9c0-0.2,0-0.3,0-0.5c0-0.3,0-0.6-0.1-0.8
							c0-0.2,0-0.3,0-0.5c0-0.3-0.1-0.6-0.1-0.9c0-0.1,0-0.2,0-0.3c-0.1-0.4-0.1-0.8-0.2-1.2c0-0.1,0-0.1,0-0.2
							c-0.1-0.3-0.1-0.6-0.2-1c0-0.1-0.1-0.3-0.1-0.4c-0.1-0.3-0.1-0.5-0.2-0.8c0-0.1-0.1-0.3-0.1-0.4c-0.1-0.2-0.1-0.5-0.2-0.7
							c0-0.1-0.1-0.2-0.1-0.4c-0.1-0.3-0.2-0.6-0.3-0.8c0-0.1,0-0.1-0.1-0.2c-0.1-0.3-0.3-0.7-0.4-1c0-0.1-0.1-0.1-0.1-0.2
							c-0.1-0.2-0.2-0.5-0.3-0.7c0-0.1-0.1-0.2-0.1-0.3c-0.1-0.2-0.2-0.4-0.3-0.6c-0.1-0.1-0.1-0.2-0.2-0.3
							c-0.1-0.2-0.2-0.4-0.4-0.6c0-0.1-0.1-0.2-0.1-0.2c-0.3-0.6-0.7-1.1-1-1.6c0-0.1-0.1-0.1-0.1-0.2c-0.1-0.2-0.3-0.4-0.4-0.6
							c0,0,0-0.1-0.1-0.1c0,0,0,0,0,0c-2-2.7-4.2-4.6-5.8-5.7c-2.1-1.5-3.5-3.2-4.5-5.1l0-2c-0.8-1.6-1.6-3.7-1.9-5.6
							c-0.3-1.7-1-3-1.6-3.9l0,0c-0.5-0.7-1.1-1.3-1.5-1.6c-1.3-6.8-4.1-11.3-6-13.3c-0.4-0.4-0.9-0.8-1.6-0.9c-0.1,0-0.1,0-0.2,0
							c-0.1,0-0.1,0-0.2,0c-0.6,0.1-1.2,0.5-1.6,0.9c-2,2-4.7,6.4-6,13.3c-0.4,0.3-0.9,0.8-1.5,1.6c0,0,0,0,0,0
							c-0.5,0.6-1,1.7-1.3,2.7l0,1.8c-0.1,0.4-0.2,0.8-0.3,1.2c-0.8,4.4-2.3,8-6.4,10.9c-1.6,1.1-3.8,3-5.8,5.7c0,0,0,0,0,0
							c0,0,0,0.1-0.1,0.1c-0.1,0.2-0.3,0.4-0.4,0.6c0,0.1-0.1,0.1-0.1,0.2c-0.4,0.5-0.7,1.1-1,1.6c0,0.1-0.1,0.2-0.1,0.2
							C4.2,41.6,4.1,41.8,4,42c-0.1,0.1-0.1,0.2-0.2,0.3c-0.1,0.2-0.2,0.4-0.3,0.6c0,0.1-0.1,0.2-0.1,0.3C3.2,43.5,3.1,43.8,3,44
							c0,0.1-0.1,0.1-0.1,0.2c-0.1,0.3-0.3,0.7-0.4,1c0,0.1,0,0.1-0.1,0.2c-0.1,0.3-0.2,0.6-0.3,0.8c0,0.1-0.1,0.2-0.1,0.4
							c-0.1,0.2-0.2,0.5-0.2,0.7c0,0.1-0.1,0.3-0.1,0.4c-0.1,0.2-0.1,0.5-0.2,0.8c0,0.1-0.1,0.3-0.1,0.4c-0.1,0.3-0.1,0.6-0.2,1
							c0,0.1,0,0.1,0,0.2c-0.1,0.4-0.1,0.8-0.2,1.2c0,0.1,0,0.2,0,0.3c0,0.3-0.1,0.6-0.1,0.9c0,0.2,0,0.3,0,0.5c0,0.3,0,0.6-0.1,0.8
							c0,0.2,0,0.3,0,0.5c0,0.3,0,0.6,0,0.9c0,0.1,0,0.3,0,0.4c0,0.5,0,0.9,0,1.4c0,0-0.1,0.7,0.9,0.8C2.6,57.9,20,59,20,59h0.3
							c0,0,0.1,0.9,1.6,1.7c0,0,0,0.1,0,0.1c0,0,0,0,0,0c0,0.1-0.1,0.3-0.1,0.4h0c-0.1,0.3-0.2,0.6-0.3,0.9h0c0,0.1-0.1,0.3-0.1,0.4
							h0c-0.1,0.3-0.1,0.6-0.2,0.9h0c0,0,0,0,0,0c0,0.1,0,0.1,0,0.2c0,0.1,0,0.2,0,0.2c0,0,0,0,0,0c0,0.3-0.1,0.6-0.1,0.9
							c0,0,0,0,0,0c0,0.1,0,0.3,0,0.4h0c0,0.3,0,0.6-0.1,0.9h0c0,0,0,0,0,0c0,0,0,0.1,0,0.1c0,0.1,0,0.2,0,0.3c0,0,0,0,0,0
							c0,0.2,0,0.4,0,0.6c0,0,0,0,0.1,0c0,0,0,0,0,0c0,0,0.1,0,0.2,0.1c0,0,0,0,0,0c0.5,0.2,1.7,0.5,3.2,0.5v0h0
							c0.8,0,1.4-0.1,2-0.2v0c0,0,0,0,0,0c0.1,0,0.1,0,0.2,0c0.1,0,0.2,0,0.3-0.1c0.1,0,0.1,0,0.1,0c0.1,0,0.2-0.1,0.3-0.1
							c0,0,0.1,0,0.1,0c0.1,0,0.1,0,0.2-0.1c0,0,0,0,0.1,0c0.1,0,0.1,0,0.2-0.1c0,0,0,0,0,0c0,0,0,0,0,0c0-0.2,0-0.4,0-0.6
							c0,0,0,0,0,0c0-0.1,0-0.2,0-0.3c0,0,0-0.1,0-0.1c0,0,0,0,0,0h0c0-0.3,0-0.6-0.1-1h0c0-0.1,0-0.3,0-0.4c0,0,0,0,0,0
							c0-0.3-0.1-0.6-0.1-0.9c0,0,0,0,0,0c0-0.1,0-0.1,0-0.2c0-0.1,0-0.1,0-0.2c0,0,0,0,0-0.1c0,0,0,0,0,0c-0.1-0.3-0.1-0.6-0.2-0.9
							h0c0-0.1-0.1-0.3-0.1-0.4c0-0.1,0-0.1,0-0.2c0.3,0,0.6,0,0.9,0.1c0,0.1,0,0.1,0,0.1s-0.2,1,0.9,1.3h0.4c1-0.3,0.9-1.3,0.9-1.3
							s0-0.1,0-0.1c0.3,0,0.5,0,0.8,0c0,0.1,0,0.1-0.1,0.2h0c0,0.1-0.1,0.3-0.1,0.4h0c-0.1,0.3-0.1,0.6-0.2,0.9h0c0,0,0,0,0,0
							c0,0.1,0,0.1,0,0.2c0,0.1,0,0.1,0,0.2c0,0,0,0,0,0c-0.1,0.3-0.1,0.6-0.1,0.9c0,0,0,0,0,0c0,0.1,0,0.3,0,0.4
							c0,0.3,0,0.6-0.1,0.9v0c0,0,0,0.1,0,0.1c0,0.1,0,0.2,0,0.3c0,0,0,0,0,0c0,0.2,0,0.4,0,0.6c0,0,0,0,0.1,0h0c0,0,0.1,0,0.2,0.1
							c0,0,0,0,0,0c0.5,0.2,1.7,0.5,3.2,0.5v0h0c0.8,0,1.4-0.1,2-0.2v0c0,0,0,0,0,0c0.1,0,0.1,0,0.1,0c0.1,0,0.2,0,0.3-0.1
							c0,0,0.1,0,0.1,0c0.1,0,0.2-0.1,0.3-0.1c0,0,0.1,0,0.1,0c0.1,0,0.1,0,0.2-0.1c0,0,0,0,0.1,0c0.1,0,0.1,0,0.2-0.1c0,0,0,0,0,0
							c0,0,0,0,0,0c0-0.2,0-0.4,0-0.6c0,0,0,0,0,0c0-0.1,0-0.2,0-0.3c0,0,0-0.1,0-0.1c0,0,0,0,0,0h0c0-0.3,0-0.6-0.1-1h0
							c0-0.1,0-0.3,0-0.4c0,0,0,0,0,0c0-0.3-0.1-0.6-0.1-0.9c0,0,0,0,0,0c0-0.1,0-0.1,0-0.2c0-0.1,0-0.1,0-0.2c0,0,0,0,0-0.1l0,0
							c-0.1-0.3-0.1-0.6-0.2-0.9h0c0-0.1-0.1-0.3-0.1-0.4c-0.1-0.3-0.2-0.6-0.3-0.9h0c0-0.1-0.1-0.3-0.1-0.4c0,0,0,0,0,0
							c0,0,0,0,0-0.1c1.6-0.8,1.7-1.7,1.7-1.7h0.3c0,0,17.4-1.1,18.4-1.2c1-0.1,0.9-0.8,0.9-0.8C57.5,56.5,57.5,56,57.5,55.6"/>
					</g>
				</g>
				<g class="st2">
					<g>
						<defs>
							<rect id="SVGID_27_" x="0.3" y="0.3" width="56.9" height="67.1"/>
						</defs>
						<clipPath id="SVGID_28_">
							<use xlink:href="#SVGID_27_"  style="overflow:visible;"/>
						</clipPath>
						<path class="st13" d="M57.2,55.3c0-0.1,0-0.3,0-0.4c0-0.3,0-0.6,0-0.9c0-0.2,0-0.3,0-0.5c0-0.3,0-0.6-0.1-0.8
							c0-0.2,0-0.3,0-0.5c0-0.3-0.1-0.6-0.1-0.9c0-0.1,0-0.2,0-0.3c-0.1-0.4-0.1-0.8-0.2-1.2c0-0.1,0-0.1,0-0.2
							c-0.1-0.3-0.1-0.6-0.2-1c0-0.1-0.1-0.3-0.1-0.4c-0.1-0.3-0.1-0.5-0.2-0.8c0-0.1-0.1-0.3-0.1-0.4c-0.1-0.2-0.1-0.5-0.2-0.7
							c0-0.1-0.1-0.2-0.1-0.4c-0.1-0.3-0.2-0.6-0.3-0.8c0-0.1,0-0.1-0.1-0.2c-0.1-0.3-0.3-0.7-0.4-1c0-0.1-0.1-0.1-0.1-0.2
							c-0.1-0.2-0.2-0.5-0.3-0.7c0-0.1-0.1-0.2-0.1-0.3c-0.1-0.2-0.2-0.4-0.3-0.6c-0.1-0.1-0.1-0.2-0.2-0.3
							c-0.1-0.2-0.2-0.4-0.4-0.6c0-0.1-0.1-0.2-0.1-0.2c-0.3-0.6-0.7-1.1-1-1.6c0-0.1-0.1-0.1-0.1-0.2c-0.1-0.2-0.3-0.4-0.4-0.6
							c0,0,0-0.1-0.1-0.1c0,0,0,0,0,0c-2-2.7-4.2-4.6-5.8-5.7c-2.1-1.5-3.5-3.2-4.5-5.1l0-2C40.8,24,40,21.9,39.6,20
							c-0.3-1.7-1-3-1.6-3.9l0,0c-0.5-0.7-1.1-1.3-1.5-1.6c-1.3-6.8-4.1-11.3-6-13.3c-0.4-0.4-0.9-0.8-1.6-0.9c-0.1,0-0.1,0-0.2,0
							c-0.1,0-0.1,0-0.2,0C28,0.4,27.4,0.8,27,1.2c-2,2-4.7,6.4-6,13.3c-0.4,0.3-0.9,0.8-1.5,1.6c0,0,0,0,0,0
							c-0.5,0.6-1,1.7-1.3,2.7l0,1.8c-0.1,0.4-0.2,0.8-0.3,1.2c-0.8,4.4-2.3,8-6.4,10.9c-1.6,1.1-3.8,3-5.8,5.7c0,0,0,0,0,0
							c0,0,0,0.1-0.1,0.1c-0.1,0.2-0.3,0.4-0.4,0.6c0,0.1-0.1,0.1-0.1,0.2c-0.4,0.5-0.7,1.1-1,1.6C4.1,40.9,4,41,4,41.1
							c-0.1,0.2-0.2,0.4-0.4,0.6c-0.1,0.1-0.1,0.2-0.2,0.3c-0.1,0.2-0.2,0.4-0.3,0.6c0,0.1-0.1,0.2-0.1,0.3
							c-0.1,0.2-0.2,0.5-0.3,0.7c0,0.1-0.1,0.1-0.1,0.2c-0.1,0.3-0.3,0.7-0.4,1c0,0.1,0,0.1-0.1,0.2c-0.1,0.3-0.2,0.6-0.3,0.8
							c0,0.1-0.1,0.2-0.1,0.3c-0.1,0.2-0.2,0.5-0.2,0.7c0,0.1-0.1,0.3-0.1,0.4c-0.1,0.2-0.1,0.5-0.2,0.8c0,0.1-0.1,0.3-0.1,0.4
							c-0.1,0.3-0.1,0.6-0.2,1c0,0.1,0,0.1,0,0.2c-0.1,0.4-0.1,0.8-0.2,1.2c0,0.1,0,0.2,0,0.3c0,0.3-0.1,0.6-0.1,0.9
							c0,0.2,0,0.3,0,0.5c0,0.3,0,0.6-0.1,0.8c0,0.2,0,0.3,0,0.5c0,0.3,0,0.6,0,0.9c0,0.1,0,0.3,0,0.4c0,0.5,0,0.9,0,1.4
							c0,0-0.1,0.7,0.9,0.8c1,0.1,18.4,1.2,18.4,1.2h0.3c0,0,0.1,0.9,1.6,1.7c0,0,0,0.1,0,0.1c0,0,0,0,0,0c0,0.1-0.1,0.3-0.1,0.4
							c-0.1,0.3-0.2,0.6-0.3,0.9h0c0,0.1-0.1,0.3-0.1,0.4c0,0,0,0,0,0c-0.1,0.3-0.1,0.6-0.2,0.9h0c0,0,0,0,0,0c0,0.1,0,0.1,0,0.2
							c0,0.1,0,0.2,0,0.2c0,0,0,0,0,0c-0.1,0.3-0.1,0.6-0.1,0.9c0,0,0,0,0,0c0,0.1,0,0.3,0,0.4h0c0,0.3,0,0.6-0.1,0.9c0,0,0,0,0,0
							c0,0,0,0.1,0,0.1c0,0.1,0,0.2,0,0.3c0,0,0,0,0,0c0,0.2,0,0.4,0,0.6c0,0,0,0,0.1,0c0,0,0,0,0,0c0,0,0.1,0,0.2,0.1c0,0,0,0,0,0
							v0c0.5,0.2,1.7,0.5,3.2,0.5v0c0,0,0,0,0,0c0.8,0,1.4-0.1,2-0.2v0c0,0,0,0,0,0c0.1,0,0.1,0,0.2,0c0.1,0,0.2,0,0.3-0.1
							c0.1,0,0.1,0,0.1,0c0.1,0,0.2-0.1,0.3-0.1c0,0,0.1,0,0.1,0c0.1,0,0.1,0,0.2-0.1c0,0,0,0,0.1,0c0.1,0,0.1,0,0.2-0.1
							c0,0,0,0,0,0c0,0,0,0,0,0c0-0.2,0-0.4,0-0.6c0,0,0,0,0,0c0-0.1,0-0.2,0-0.3c0,0,0-0.1,0-0.1v0h0c0-0.3,0-0.6-0.1-1
							c0,0,0,0,0,0c0-0.1,0-0.3,0-0.4c0,0,0,0,0,0c0-0.3-0.1-0.6-0.1-0.9c0,0,0,0,0,0c0-0.1,0-0.1,0-0.2c0-0.1,0-0.1,0-0.2
							c0,0,0,0,0-0.1h0c-0.1-0.3-0.1-0.6-0.2-0.9h0c0-0.1-0.1-0.3-0.1-0.4c0-0.1,0-0.1,0-0.2c0.3,0,0.6,0,0.9,0.1c0,0.1,0,0.1,0,0.1
							s-0.2,1,0.9,1.3h0.4c1-0.3,0.9-1.3,0.9-1.3s0-0.1,0-0.1c0.3,0,0.5,0,0.8,0c0,0.1,0,0.1-0.1,0.2h0c0,0.1-0.1,0.3-0.1,0.4
							c0,0,0,0,0,0c-0.1,0.3-0.1,0.6-0.2,0.9c0,0,0,0,0,0c0,0.1,0,0.1,0,0.2c0,0.1,0,0.1,0,0.2h0c-0.1,0.3-0.1,0.6-0.1,0.9
							c0,0,0,0,0,0c0,0.1,0,0.3,0,0.4c0,0.3,0,0.6-0.1,0.9h0v0c0,0,0,0.1,0,0.1c0,0.1,0,0.2,0,0.3c0,0,0,0,0,0c0,0.2,0,0.4,0,0.6
							c0,0,0,0,0.1,0c0,0,0,0,0,0c0,0,0.1,0,0.2,0.1c0,0,0,0,0,0c0.5,0.2,1.7,0.5,3.2,0.5v0c0,0,0,0,0,0c0.8,0,1.4-0.1,2-0.2v0
							c0,0,0,0,0,0c0.1,0,0.1,0,0.1,0c0.1,0,0.2,0,0.3-0.1c0,0,0.1,0,0.1,0c0.1,0,0.2-0.1,0.3-0.1c0,0,0.1,0,0.1,0
							c0.1,0,0.1,0,0.2-0.1c0,0,0,0,0.1,0c0.1,0,0.1,0,0.2-0.1c0,0,0,0,0,0c0,0,0,0,0,0c0-0.2,0-0.4,0-0.6c0,0,0,0,0,0
							c0-0.1,0-0.2,0-0.3c0,0,0-0.1,0-0.1c0,0,0,0,0,0h0c0-0.3,0-0.6-0.1-1c0,0,0,0,0,0c0-0.1,0-0.3,0-0.4c0,0,0,0,0,0
							c0-0.3-0.1-0.6-0.1-0.9c0,0,0,0,0,0c0-0.1,0-0.1,0-0.2c0-0.1,0-0.1,0-0.2c0,0,0,0,0-0.1h0c-0.1-0.3-0.1-0.6-0.2-0.9h0
							c0-0.1-0.1-0.3-0.1-0.4h0c-0.1-0.3-0.2-0.6-0.3-0.9h0c0-0.1-0.1-0.3-0.1-0.4c0,0,0,0,0,0c0,0,0,0,0-0.1
							c1.6-0.8,1.7-1.7,1.7-1.7h0.3c0,0,17.4-1.1,18.4-1.2c1-0.1,0.9-0.8,0.9-0.8C57.2,56.2,57.2,55.7,57.2,55.3"/>
					</g>
				</g>
				<g class="st2">
					<g>
						<defs>
							<rect id="SVGID_29_" x="0" y="0" width="56.9" height="67.1"/>
						</defs>
						<clipPath id="SVGID_30_">
							<use xlink:href="#SVGID_29_"  style="overflow:visible;"/>
						</clipPath>
						<path class="st14" d="M56.9,54.9c0-0.1,0-0.3,0-0.4c0-0.3,0-0.6,0-0.9c0-0.2,0-0.3,0-0.5c0-0.3,0-0.6-0.1-0.8
							c0-0.2,0-0.3,0-0.5c0-0.3-0.1-0.6-0.1-0.9c0-0.1,0-0.2,0-0.3c-0.1-0.4-0.1-0.8-0.2-1.2c0-0.1,0-0.1,0-0.2
							c-0.1-0.3-0.1-0.6-0.2-1c0-0.1-0.1-0.3-0.1-0.4c-0.1-0.3-0.1-0.5-0.2-0.8c0-0.1-0.1-0.3-0.1-0.4c-0.1-0.2-0.1-0.5-0.2-0.7
							c0-0.1-0.1-0.2-0.1-0.4c-0.1-0.3-0.2-0.6-0.3-0.8c0-0.1,0-0.1-0.1-0.2c-0.1-0.3-0.3-0.7-0.4-1c0-0.1-0.1-0.1-0.1-0.2
							c-0.1-0.2-0.2-0.5-0.3-0.7c0-0.1-0.1-0.2-0.1-0.3c-0.1-0.2-0.2-0.4-0.3-0.6c-0.1-0.1-0.1-0.2-0.2-0.3
							c-0.1-0.2-0.2-0.4-0.4-0.6c0-0.1-0.1-0.2-0.1-0.2c-0.3-0.6-0.7-1.1-1-1.6c0-0.1-0.1-0.1-0.1-0.2c-0.1-0.2-0.3-0.4-0.4-0.6
							c0,0,0-0.1-0.1-0.1c0,0,0,0,0,0c-2-2.7-4.2-4.6-5.8-5.7c-2.1-1.5-3.5-3.2-4.5-5.1l0-2c-0.8-1.6-1.6-3.7-1.9-5.6
							c-0.3-1.7-1-3-1.6-3.9c0,0,0,0,0,0c-0.5-0.7-1.1-1.3-1.5-1.6c-1.3-6.8-4.1-11.3-6-13.3c-0.4-0.4-0.9-0.8-1.6-0.9
							c-0.1,0-0.1,0-0.2,0c-0.1,0-0.1,0-0.2,0c-0.6,0.1-1.2,0.5-1.6,0.9c-2,2-4.7,6.4-6,13.3c-0.4,0.3-0.9,0.8-1.5,1.6c0,0,0,0,0,0
							c-0.5,0.6-1,1.7-1.3,2.7l0,1.8c-0.1,0.4-0.2,0.8-0.3,1.2c-0.8,4.4-2.3,8-6.4,10.9c-1.6,1.1-3.8,3-5.8,5.7c0,0,0,0,0,0
							c0,0,0,0.1-0.1,0.1c-0.1,0.2-0.3,0.4-0.4,0.6c0,0.1-0.1,0.1-0.1,0.2c-0.4,0.5-0.7,1.1-1,1.6c0,0.1-0.1,0.2-0.1,0.2
							c-0.1,0.2-0.2,0.4-0.4,0.6c-0.1,0.1-0.1,0.2-0.2,0.3c-0.1,0.2-0.2,0.4-0.3,0.6c0,0.1-0.1,0.2-0.1,0.3
							c-0.1,0.2-0.2,0.5-0.3,0.7c0,0.1-0.1,0.1-0.1,0.2c-0.1,0.3-0.3,0.7-0.4,1c0,0.1,0,0.1-0.1,0.2c-0.1,0.3-0.2,0.6-0.3,0.8
							c0,0.1-0.1,0.2-0.1,0.3c-0.1,0.2-0.2,0.5-0.2,0.7c0,0.1-0.1,0.3-0.1,0.4c-0.1,0.2-0.1,0.5-0.2,0.8c0,0.1-0.1,0.3-0.1,0.4
							c-0.1,0.3-0.1,0.6-0.2,1c0,0.1,0,0.1,0,0.2c-0.1,0.4-0.1,0.8-0.2,1.2c0,0.1,0,0.2,0,0.3c0,0.3-0.1,0.6-0.1,0.9
							c0,0.2,0,0.3,0,0.5c0,0.3,0,0.6-0.1,0.8c0,0.2,0,0.3,0,0.5c0,0.3,0,0.6,0,0.9c0,0.1,0,0.3,0,0.4c0,0.5,0,0.9,0,1.4
							c0,0-0.1,0.7,0.9,0.8c1,0.1,18.4,1.2,18.4,1.2h0.3c0,0,0.1,0.9,1.6,1.7c0,0,0,0.1,0,0.1c0,0,0,0,0,0c0,0.1-0.1,0.3-0.1,0.4h0
							c-0.1,0.3-0.2,0.6-0.3,0.9c0,0.1-0.1,0.3-0.1,0.4h0c-0.1,0.3-0.1,0.6-0.2,0.9h0c0,0,0,0,0,0c0,0.1,0,0.1,0,0.2
							c0,0.1,0,0.2,0,0.2c0,0,0,0,0,0c-0.1,0.3-0.1,0.6-0.1,0.9c0,0,0,0,0,0c0,0.1,0,0.3,0,0.4c0,0.3,0,0.6-0.1,0.9l0,0v0
							c0,0,0,0.1,0,0.1c0,0.1,0,0.2,0,0.3c0,0,0,0,0,0c0,0.2,0,0.4,0,0.6c0,0,0,0,0.1,0c0,0,0,0,0,0c0,0,0.1,0,0.2,0.1c0,0,0,0,0,0
							v0c0.5,0.2,1.7,0.5,3.2,0.5h0c0.8,0,1.4-0.1,2-0.2v0c0,0,0,0,0,0c0.1,0,0.1,0,0.2,0c0.1,0,0.2,0,0.3-0.1c0.1,0,0.1,0,0.1,0
							c0.1,0,0.2-0.1,0.3-0.1c0,0,0.1,0,0.1,0c0.1,0,0.1,0,0.2-0.1c0,0,0,0,0.1,0c0.1,0,0.1,0,0.2-0.1c0,0,0,0,0,0c0,0,0,0,0,0
							c0-0.2,0-0.4,0-0.6c0,0,0,0,0,0c0-0.1,0-0.2,0-0.3c0,0,0-0.1,0-0.1c0,0,0,0,0,0v0c0-0.3,0-0.6-0.1-1v0c0-0.1,0-0.3,0-0.4
							c0,0,0,0,0,0c0-0.3-0.1-0.6-0.1-0.9c0,0,0,0,0,0c0-0.1,0-0.1,0-0.2c0-0.1,0-0.1,0-0.2c0,0,0,0,0-0.1h0
							c-0.1-0.3-0.1-0.6-0.2-0.9c0,0,0,0,0,0c0-0.1-0.1-0.3-0.1-0.4c0-0.1,0-0.1,0-0.2c0.3,0,0.6,0,0.9,0.1c0,0.1,0,0.1,0,0.1
							s-0.2,1,0.9,1.3h0.4c1-0.3,0.9-1.3,0.9-1.3s0-0.1,0-0.1c0.3,0,0.5,0,0.8,0c0,0.1,0,0.1-0.1,0.2h0c0,0.1-0.1,0.3-0.1,0.4h0
							c-0.1,0.3-0.1,0.6-0.2,0.9h0c0,0,0,0,0,0c0,0.1,0,0.1,0,0.2c0,0.1,0,0.1,0,0.2c0,0,0,0,0,0c-0.1,0.3-0.1,0.6-0.1,0.9
							c0,0,0,0,0,0c0,0.1,0,0.3,0,0.4h0c0,0.3,0,0.6-0.1,0.9v0c0,0,0,0,0,0c0,0,0,0.1,0,0.1c0,0.1,0,0.2,0,0.3c0,0,0,0,0,0
							c0,0.2,0,0.4,0,0.6c0,0,0,0,0.1,0l0,0c0,0,0.1,0,0.2,0.1c0,0,0,0,0,0v0c0.5,0.2,1.7,0.5,3.2,0.5h0c0.8,0,1.4-0.1,2-0.2v0
							c0,0,0,0,0,0c0.1,0,0.1,0,0.1,0c0.1,0,0.2,0,0.3-0.1c0,0,0.1,0,0.1,0c0.1,0,0.2-0.1,0.3-0.1c0,0,0.1,0,0.1,0
							c0.1,0,0.1,0,0.2-0.1c0,0,0,0,0.1,0c0.1,0,0.1,0,0.2-0.1c0,0,0,0,0,0c0,0,0,0,0,0c0-0.2,0-0.4,0-0.6c0,0,0,0,0,0
							c0-0.1,0-0.2,0-0.3c0,0,0-0.1,0-0.1c0,0,0,0,0,0l0,0c0-0.3,0-0.6-0.1-1c0,0,0,0,0,0c0-0.1,0-0.3,0-0.4c0,0,0,0,0,0
							c0-0.3-0.1-0.6-0.1-0.9c0,0,0,0,0,0c0-0.1,0-0.1,0-0.2c0-0.1,0-0.1,0-0.2c0,0,0,0,0-0.1h0c-0.1-0.3-0.1-0.6-0.2-0.9
							c0,0,0,0,0,0c0-0.1-0.1-0.3-0.1-0.4c-0.1-0.3-0.2-0.6-0.3-0.9h0c0-0.1-0.1-0.3-0.1-0.4c0,0,0,0,0,0c0,0,0,0,0-0.1
							c1.6-0.8,1.7-1.7,1.7-1.7h0.3c0,0,17.4-1.1,18.4-1.2c1-0.1,0.9-0.8,0.9-0.8C56.9,55.8,56.9,55.4,56.9,54.9"/>
					</g>
				</g>
			</g>
		</g>
		<g class="st15">
			<g>
				<defs>
					<rect id="SVGID_31_" x="17.9" y="0" width="23.4" height="56.5"/>
				</defs>
				<clipPath id="SVGID_32_">
					<use xlink:href="#SVGID_31_"  style="overflow:visible;"/>
				</clipPath>
				<path class="st16" d="M39.4,56.5c0.5,0,1-0.1,1.6-0.1l0.3-31.1c-0.8-1.6-1.6-3.7-1.9-5.6c-0.3-1.7-1-3-1.6-3.9c0,0,0,0,0,0
					c-0.5-0.7-1.1-1.3-1.5-1.6c-1.3-6.8-4.1-11.3-6-13.3c-0.4-0.4-0.9-0.8-1.6-0.9c-0.1,0-0.1,0-0.2,0c-0.1,0-0.1,0-0.2,0
					c-0.6,0.1-1.2,0.5-1.6,0.9c-2,2-4.7,6.4-6,13.3c-0.4,0.3-0.9,0.8-1.5,1.6c0,0,0,0,0,0c-0.5,0.6-1,1.7-1.3,2.7l0.1,38H39.4z"/>
			</g>
		</g>
	</g>
	<g class="st0">
		<defs>
			<path id="SVGID_33_" d="M31.9,57.6c0,0-2.4,3.6-2.3,8.9c0,0,1.4,0.6,3.6,0.6c2.1,0,3.6-0.6,3.6-0.6c0.1-5.4-2.3-8.9-2.3-8.9H31.9
				z"/>
		</defs>
		<clipPath id="SVGID_34_">
			<use xlink:href="#SVGID_33_"  style="overflow:visible;"/>
		</clipPath>
		
			<linearGradient id="SVGID_35_" gradientUnits="userSpaceOnUse" x1="0" y1="70.7786" x2="1" y2="70.7786" gradientTransform="matrix(1.805 15.0576 15.0576 -1.805 -1033.4768 182.8867)">
			<stop  offset="0" style="stop-color:#E5E0DF"/>
			<stop  offset="0.4575" style="stop-color:#E5E0DF"/>
			<stop  offset="1" style="stop-color:#8CA99C"/>
		</linearGradient>
		<polygon class="st17" points="36.7,56.8 38,67 29.6,68 28.3,57.8 		"/>
	</g>
	<g class="st0">
		<defs>
			<path id="SVGID_36_" d="M31.9,57.6c0,0-0.6,0.9-1.2,2.5c1.1,0.2,2.8,0.3,5-0.1c-0.6-1.6-1.2-2.5-1.2-2.5H31.9z"/>
		</defs>
		<clipPath id="SVGID_37_">
			<use xlink:href="#SVGID_36_"  style="overflow:visible;"/>
		</clipPath>
		
			<linearGradient id="SVGID_38_" gradientUnits="userSpaceOnUse" x1="0" y1="70.7602" x2="1" y2="70.7602" gradientTransform="matrix(1.8049 15.0568 15.0568 -1.8049 -1032.7611 182.8011)">
			<stop  offset="0" style="stop-color:#E5E0DF"/>
			<stop  offset="0.4575" style="stop-color:#E5E0DF"/>
			<stop  offset="1" style="stop-color:#8CA99C"/>
		</linearGradient>
		<polygon class="st18" points="35.6,57 36,60.5 30.7,61.1 30.3,57.7 		"/>
	</g>
	<g class="st0">
		<defs>
			<rect id="SVGID_39_" y="0" width="60.5" height="70.8"/>
		</defs>
		<clipPath id="SVGID_40_">
			<use xlink:href="#SVGID_39_"  style="overflow:visible;"/>
		</clipPath>
		<path class="st19" d="M29.6,65.5c0,0.1,0,0.3,0,0.4c0.6,0.2,1.7,0.4,3.3,0.4c1.1,0,2.4-0.1,3.8-0.5c0-0.1,0-0.3,0-0.4
			C33,66.4,30.4,65.8,29.6,65.5"/>
		<path class="st19" d="M29.7,64.2c0,0.1,0,0.3,0,0.4c0.6,0.2,1.7,0.4,3.2,0.4c1.1,0,2.3-0.1,3.8-0.5c0-0.1,0-0.3,0-0.4
			C33.1,65,30.6,64.4,29.7,64.2"/>
		<path class="st19" d="M36.2,61.8c0-0.1-0.1-0.3-0.1-0.4c-2.7,0.6-4.7,0.3-5.9,0.1c0,0.1-0.1,0.3-0.1,0.4c0.6,0.1,1.6,0.3,2.8,0.3
			C33.8,62.2,34.9,62.1,36.2,61.8"/>
		<path class="st19" d="M29.9,62.8c0,0.1-0.1,0.3-0.1,0.4c0.6,0.2,1.7,0.4,3.1,0.4c1,0,2.2-0.1,3.6-0.4c0-0.1,0-0.3-0.1-0.4
			C33.2,63.5,30.9,63.1,29.9,62.8"/>
		<path class="st19" d="M35.8,60.5c0-0.1-0.1-0.3-0.1-0.4c-2.2,0.4-3.9,0.3-5,0.1c0,0.1-0.1,0.3-0.1,0.4c0.6,0.1,1.4,0.2,2.4,0.2
			C33.7,60.8,34.7,60.7,35.8,60.5"/>
		<g class="st20">
			<g>
				<defs>
					<rect id="SVGID_41_" x="29.6" y="57.6" width="7.2" height="9.5"/>
				</defs>
				<clipPath id="SVGID_42_">
					<use xlink:href="#SVGID_41_"  style="overflow:visible;"/>
				</clipPath>
				<path class="st21" d="M34.4,57.6h-2.6c0,0-2.4,3.6-2.3,8.9c0,0,0.1,0,0.3,0.1c-0.1-1.2,0.2-2.5,0.4-3.7c0.1-0.8,0.5-2.7,1.7-2.6
					c1.3,0.1,1,5.6,1.1,6.8h0c2.1,0,3.6-0.6,3.6-0.6C36.9,61.2,34.4,57.6,34.4,57.6"/>
			</g>
		</g>
		<g class="st20">
			<g>
				<defs>
					<rect id="SVGID_43_" x="33.1" y="57.6" width="3.6" height="9.3"/>
				</defs>
				<clipPath id="SVGID_44_">
					<use xlink:href="#SVGID_43_"  style="overflow:visible;"/>
				</clipPath>
				<path class="st22" d="M34.4,57.6h-1.3c1.4,2.9,1.9,6.2,2,9.3c1-0.2,1.6-0.4,1.6-0.4C36.9,61.2,34.4,57.6,34.4,57.6"/>
			</g>
		</g>
	</g>
	<g class="st0">
		<defs>
			<path id="SVGID_45_" d="M22.4,57.6c0,0-2.4,3.6-2.3,8.9c0,0,1.4,0.6,3.6,0.6c2.1,0,3.6-0.6,3.6-0.6c0.1-5.4-2.3-8.9-2.3-8.9H22.4
				z"/>
		</defs>
		<clipPath id="SVGID_46_">
			<use xlink:href="#SVGID_45_"  style="overflow:visible;"/>
		</clipPath>
		
			<linearGradient id="SVGID_47_" gradientUnits="userSpaceOnUse" x1="0" y1="70.7786" x2="1" y2="70.7786" gradientTransform="matrix(1.805 15.0577 15.0577 -1.805 -1042.9779 182.887)">
			<stop  offset="0" style="stop-color:#E5E0DF"/>
			<stop  offset="0.4575" style="stop-color:#E5E0DF"/>
			<stop  offset="1" style="stop-color:#8CA99C"/>
		</linearGradient>
		<polygon class="st23" points="27.3,56.8 28.5,67 20.1,68 18.8,57.8 		"/>
	</g>
	<g class="st0">
		<defs>
			<path id="SVGID_48_" d="M22.4,57.6c0,0-0.6,0.9-1.2,2.5c1.1,0.2,2.8,0.3,5-0.1c-0.6-1.6-1.2-2.5-1.2-2.5H22.4z"/>
		</defs>
		<clipPath id="SVGID_49_">
			<use xlink:href="#SVGID_48_"  style="overflow:visible;"/>
		</clipPath>
		
			<linearGradient id="SVGID_50_" gradientUnits="userSpaceOnUse" x1="0" y1="70.7601" x2="1" y2="70.7601" gradientTransform="matrix(1.8049 15.0572 15.0572 -1.8049 -1042.2825 182.8038)">
			<stop  offset="0" style="stop-color:#E5E0DF"/>
			<stop  offset="0.4575" style="stop-color:#E5E0DF"/>
			<stop  offset="1" style="stop-color:#8CA99C"/>
		</linearGradient>
		<polygon class="st24" points="26.1,57 26.5,60.5 21.2,61.1 20.8,57.7 		"/>
	</g>
	<g class="st0">
		<defs>
			<rect id="SVGID_51_" y="0" width="60.5" height="70.8"/>
		</defs>
		<clipPath id="SVGID_52_">
			<use xlink:href="#SVGID_51_"  style="overflow:visible;"/>
		</clipPath>
		<path class="st25" d="M20.1,65.5c0,0.1,0,0.3,0,0.4c0.6,0.2,1.7,0.4,3.3,0.4c1.1,0,2.4-0.1,3.8-0.5c0-0.1,0-0.3,0-0.4
			C23.5,66.4,20.9,65.8,20.1,65.5"/>
		<path class="st25" d="M20.2,64.2c0,0.1,0,0.3,0,0.4c0.6,0.2,1.7,0.4,3.2,0.4c1.1,0,2.3-0.1,3.8-0.5c0-0.1,0-0.3,0-0.4
			C23.6,65,21.1,64.4,20.2,64.2"/>
		<path class="st25" d="M26.7,61.8c0-0.1-0.1-0.3-0.1-0.4c-2.7,0.6-4.7,0.3-5.9,0.1c0,0.1-0.1,0.3-0.1,0.4c0.6,0.1,1.6,0.3,2.8,0.3
			C24.3,62.2,25.4,62.1,26.7,61.8"/>
		<path class="st25" d="M20.4,62.8c0,0.1-0.1,0.3-0.1,0.4c0.6,0.2,1.7,0.4,3.1,0.4c1,0,2.2-0.1,3.6-0.4c0-0.1,0-0.3-0.1-0.4
			C23.7,63.5,21.4,63.1,20.4,62.8"/>
		<path class="st25" d="M26.3,60.5c0-0.1-0.1-0.3-0.1-0.4c-2.2,0.4-3.9,0.3-5,0.1c0,0.1-0.1,0.3-0.1,0.4c0.6,0.1,1.4,0.2,2.4,0.2
			C24.2,60.8,25.2,60.7,26.3,60.5"/>
		<g class="st26">
			<g>
				<defs>
					<rect id="SVGID_53_" x="20.1" y="57.6" width="7.2" height="9.5"/>
				</defs>
				<clipPath id="SVGID_54_">
					<use xlink:href="#SVGID_53_"  style="overflow:visible;"/>
				</clipPath>
				<path class="st27" d="M24.9,57.6h-2.6c0,0-2.4,3.6-2.3,8.9c0,0,0.1,0,0.3,0.1c-0.1-1.2,0.2-2.5,0.4-3.7c0.1-0.8,0.5-2.7,1.7-2.6
					c1.3,0.1,1,5.6,1.1,6.8h0c2.1,0,3.6-0.6,3.6-0.6C27.4,61.2,24.9,57.6,24.9,57.6"/>
			</g>
		</g>
		<g class="st26">
			<g>
				<defs>
					<rect id="SVGID_55_" x="23.6" y="57.6" width="3.6" height="9.3"/>
				</defs>
				<clipPath id="SVGID_56_">
					<use xlink:href="#SVGID_55_"  style="overflow:visible;"/>
				</clipPath>
				<path class="st28" d="M24.9,57.6h-1.3c1.4,2.9,1.9,6.2,2,9.3c1-0.2,1.6-0.4,1.6-0.4C27.4,61.2,24.9,57.6,24.9,57.6"/>
			</g>
		</g>
	</g>
	<g class="st0">
		<defs>
			<path id="SVGID_57_" d="M17.6,21.4c-0.8,4.4-2.3,8-6.4,10.9C7.2,35.3-0.7,43,0,56.3c0,0-0.1,0.7,0.9,0.8s18.4,1.2,18.4,1.2h2.9
				l-0.9-42.9C21.3,15.5,18.4,17,17.6,21.4"/>
		</defs>
		<clipPath id="SVGID_58_">
			<use xlink:href="#SVGID_57_"  style="overflow:visible;"/>
		</clipPath>
		
			<linearGradient id="SVGID_59_" gradientUnits="userSpaceOnUse" x1="0" y1="70.7435" x2="1" y2="70.7435" gradientTransform="matrix(27.4905 40.6509 40.6509 -27.4905 -2882.1589 1956.3284)">
			<stop  offset="0" style="stop-color:#E5E0DF"/>
			<stop  offset="0.4575" style="stop-color:#E5E0DF"/>
			<stop  offset="1" style="stop-color:#454949"/>
		</linearGradient>
		<polygon class="st29" points="15,4.9 42.1,44.9 6.5,68.9 -20.5,28.9 		"/>
	</g>
	<g class="st0">
		<defs>
			<rect id="SVGID_60_" y="0" width="60.5" height="70.8"/>
		</defs>
		<clipPath id="SVGID_61_">
			<use xlink:href="#SVGID_60_"  style="overflow:visible;"/>
		</clipPath>
		<path class="st30" d="M21.5,21.8c0,0-2.4,1.3-3.1,4.9c-0.7,3.7-1.9,6.7-5.3,9.1c-3.3,2.4-9.8,8.8-9.2,19.8c0,0-0.1,0.6,0.7,0.7
			c0.8,0.1,15.2,1,15.2,1h2.4L21.5,21.8z"/>
		<g class="st31">
			<g>
				<defs>
					<rect id="SVGID_62_" y="15.5" width="22.2" height="42.9"/>
				</defs>
				<clipPath id="SVGID_63_">
					<use xlink:href="#SVGID_62_"  style="overflow:visible;"/>
				</clipPath>
				<g class="st32">
					<defs>
						<path id="SVGID_64_" d="M21.3,15.5c0,0-1.1,0.6-2.1,2C19,21.2,17.7,43,17.3,48.6c-0.4,6.2-4,6.4-8.3,6.6
							c-4.3,0.1-7.3-1.1-7.5-5c-0.2-3.9,3.8-12.1,3.8-12.1C2.3,42.2-0.4,48.2,0,56.3c0,0-0.1,0.7,0.9,0.8c1,0.1,18.4,1.2,18.4,1.2
							h2.9L21.3,15.5z"/>
					</defs>
					<clipPath id="SVGID_65_">
						<use xlink:href="#SVGID_64_"  style="overflow:visible;"/>
					</clipPath>
					
						<linearGradient id="SVGID_66_" gradientUnits="userSpaceOnUse" x1="0" y1="70.729" x2="1" y2="70.729" gradientTransform="matrix(23.6562 10.6584 10.6584 -23.6562 -745.819 1708.7891)">
						<stop  offset="0" style="stop-color:#E5E0DF"/>
						<stop  offset="0.4575" style="stop-color:#E5E0DF"/>
						<stop  offset="1" style="stop-color:#454949"/>
					</linearGradient>
					<polygon class="st33" points="3.4,7 38.2,22.7 18.4,66.8 -16.4,51.1 					"/>
				</g>
			</g>
		</g>
		<g class="st31">
			<g>
				<defs>
					<rect id="SVGID_67_" x="4" y="21.8" width="13.7" height="19.8"/>
				</defs>
				<clipPath id="SVGID_68_">
					<use xlink:href="#SVGID_67_"  style="overflow:visible;"/>
				</clipPath>
				<path class="st34" d="M17.7,21.8c0,0-0.8,5.8-4.2,9.1c-3.4,3.3-7.7,4.9-9.5,10.7c0,0,1.3-4.2,6-7.3
					C14.7,31.1,17.6,28.5,17.7,21.8"/>
			</g>
		</g>
	</g>
	<g class="st0">
		<defs>
			<path id="SVGID_69_" d="M34.7,58.3h2.9c0,0,17.4-1.1,18.4-1.2c1-0.1,0.9-0.8,0.9-0.8c0.7-13.4-7.1-21.1-11.2-24
				c-4-2.9-5.5-6.5-6.4-10.9c-0.8-4.4-3.7-6-3.7-6L34.7,58.3z"/>
		</defs>
		<clipPath id="SVGID_70_">
			<use xlink:href="#SVGID_69_"  style="overflow:visible;"/>
		</clipPath>
		
			<linearGradient id="SVGID_71_" gradientUnits="userSpaceOnUse" x1="0" y1="70.7435" x2="1" y2="70.7435" gradientTransform="matrix(-27.4905 40.6509 -40.6509 -27.4905 2939.0317 1956.3284)">
			<stop  offset="0" style="stop-color:#E5E0DF"/>
			<stop  offset="0.4575" style="stop-color:#E5E0DF"/>
			<stop  offset="1" style="stop-color:#454949"/>
		</linearGradient>
		<polygon class="st35" points="41.9,4.9 14.8,44.9 50.4,68.9 77.4,28.9 		"/>
	</g>
	<g class="st0">
		<defs>
			<rect id="SVGID_72_" y="0" width="60.5" height="70.8"/>
		</defs>
		<clipPath id="SVGID_73_">
			<use xlink:href="#SVGID_72_"  style="overflow:visible;"/>
		</clipPath>
		<path class="st36" d="M35.4,21.8c0,0,2.4,1.3,3.1,4.9c0.7,3.7,1.9,6.7,5.3,9.1c3.3,2.4,9.8,8.8,9.2,19.8c0,0,0.1,0.6-0.7,0.7
			c-0.8,0.1-15.2,1-15.2,1h-2.4L35.4,21.8z"/>
		<g class="st37">
			<g>
				<defs>
					<rect id="SVGID_74_" x="34.7" y="15.5" width="22.2" height="42.9"/>
				</defs>
				<clipPath id="SVGID_75_">
					<use xlink:href="#SVGID_74_"  style="overflow:visible;"/>
				</clipPath>
				<g class="st38">
					<defs>
						<path id="SVGID_76_" d="M35.6,15.5c0,0,1.1,0.6,2.1,2c0.2,3.7,1.5,25.5,1.9,31.1c0.4,6.2,4,6.4,8.3,6.6c4.3,0.1,7.3-1.1,7.5-5
							c0.2-3.9-3.8-12.1-3.8-12.1c3.1,4.1,5.8,10.1,5.4,18.2c0,0,0.1,0.7-0.9,0.8c-1,0.1-18.4,1.2-18.4,1.2h-2.9L35.6,15.5z"/>
					</defs>
					<clipPath id="SVGID_77_">
						<use xlink:href="#SVGID_76_"  style="overflow:visible;"/>
					</clipPath>
					
						<linearGradient id="SVGID_78_" gradientUnits="userSpaceOnUse" x1="0" y1="70.729" x2="1" y2="70.729" gradientTransform="matrix(-23.6562 10.6584 -10.6584 -23.6562 802.692 1708.7891)">
						<stop  offset="0" style="stop-color:#E5E0DF"/>
						<stop  offset="0.4575" style="stop-color:#E5E0DF"/>
						<stop  offset="1" style="stop-color:#454949"/>
					</linearGradient>
					<polygon class="st39" points="53.4,7 18.6,22.7 38.5,66.8 73.3,51.1 					"/>
				</g>
			</g>
		</g>
		<g class="st37">
			<g>
				<defs>
					<rect id="SVGID_79_" x="39.1" y="21.8" width="13.7" height="19.8"/>
				</defs>
				<clipPath id="SVGID_80_">
					<use xlink:href="#SVGID_79_"  style="overflow:visible;"/>
				</clipPath>
				<path class="st40" d="M39.1,21.8c0,0,0.8,5.8,4.2,9.1c3.4,3.3,7.7,4.9,9.5,10.7c0,0-1.3-4.2-6-7.3
					C42.2,31.1,39.3,28.5,39.1,21.8"/>
			</g>
		</g>
	</g>
	<g class="st0">
		<defs>
			<path id="SVGID_81_" d="M28.3,1.8c-0.6,0.1-1.2,0.5-1.6,0.9c-2.4,2.4-5.9,8.5-6.7,18c-0.8,9.7-0.4,37.7-0.4,37.7s0.2,1.6,3.7,2.4
				c1.3,0.3,2.9,0.5,5.2,0.6c2.3,0,3.9-0.3,5.2-0.6c3.5-0.9,3.7-2.4,3.7-2.4s0.4-28-0.4-37.7c-0.8-9.5-4.3-15.6-6.7-18
				c-0.4-0.4-0.9-0.8-1.6-0.9c-0.1,0-0.1,0-0.2,0C28.4,1.8,28.3,1.8,28.3,1.8"/>
		</defs>
		<clipPath id="SVGID_82_">
			<use xlink:href="#SVGID_81_"  style="overflow:visible;"/>
		</clipPath>
		
			<linearGradient id="SVGID_83_" gradientUnits="userSpaceOnUse" x1="0" y1="70.7518" x2="1" y2="70.7518" gradientTransform="matrix(22.7478 0 0 -22.7478 18.191 1640.9995)">
			<stop  offset="0" style="stop-color:#E5E0DF"/>
			<stop  offset="0.6933" style="stop-color:#E5E0DF"/>
			<stop  offset="1" style="stop-color:#B2B8B4"/>
		</linearGradient>
		<rect x="19.2" y="1.8" class="st41" width="18.4" height="59.6"/>
	</g>
	<g class="st0">
		<defs>
			<rect id="SVGID_84_" y="0" width="60.5" height="70.8"/>
		</defs>
		<clipPath id="SVGID_85_">
			<use xlink:href="#SVGID_84_"  style="overflow:visible;"/>
		</clipPath>
		<g class="st42">
			<g>
				<defs>
					<rect id="SVGID_86_" x="21.2" y="17.3" width="7.5" height="42.6"/>
				</defs>
				<clipPath id="SVGID_87_">
					<use xlink:href="#SVGID_86_"  style="overflow:visible;"/>
				</clipPath>
				<g class="st43">
					<defs>
						<path id="SVGID_88_" d="M26.4,17.4c0,0-4.7,1-5,5.6c-0.3,4.6,0,34,0,34s-0.2,1.9,1.6,2.5c1.8,0.6,6,1.1,5.8-2.7
							c-0.2-3.8,0-36.1,0-36.1S29.1,16.9,26.4,17.4"/>
					</defs>
					<clipPath id="SVGID_89_">
						<use xlink:href="#SVGID_88_"  style="overflow:visible;"/>
					</clipPath>
					
						<linearGradient id="SVGID_90_" gradientUnits="userSpaceOnUse" x1="0" y1="70.7385" x2="1" y2="70.7385" gradientTransform="matrix(20.8862 9.4103 9.4103 -20.8862 -648.2917 1512.7352)">
						<stop  offset="0" style="stop-color:#E5E0DF"/>
						<stop  offset="0.4575" style="stop-color:#E5E0DF"/>
						<stop  offset="1" style="stop-color:#454949"/>
					</linearGradient>
					<polygon class="st44" points="22.4,13.9 45.5,24.2 27.7,63.6 4.7,53.2 					"/>
				</g>
			</g>
		</g>
		<g class="st42">
			<g>
				<defs>
					<rect id="SVGID_91_" x="22.5" y="2.3" width="6.2" height="9.8"/>
				</defs>
				<clipPath id="SVGID_92_">
					<use xlink:href="#SVGID_91_"  style="overflow:visible;"/>
				</clipPath>
				<g class="st45">
					<defs>
						<path id="SVGID_93_" d="M28.1,2.3c0,0-1.2,0.4-2.8,3c-1.6,2.6-3.5,7.2-2.4,6.7c0,0,1.3-1.5,5.2-2c0,0,0.6-0.1,0.6-1
							C28.7,8,28.9,2,28.1,2.3"/>
					</defs>
					<clipPath id="SVGID_94_">
						<use xlink:href="#SVGID_93_"  style="overflow:visible;"/>
					</clipPath>
					
						<linearGradient id="SVGID_95_" gradientUnits="userSpaceOnUse" x1="0" y1="70.7279" x2="1" y2="70.7279" gradientTransform="matrix(4.833 2.1775 2.1775 -4.833 -129.3056 348.7874)">
						<stop  offset="0" style="stop-color:#E5E0DF"/>
						<stop  offset="0.4575" style="stop-color:#E5E0DF"/>
						<stop  offset="1" style="stop-color:#454949"/>
					</linearGradient>
					<polygon class="st46" points="23,-0.7 32.8,3.8 27.7,15.2 17.8,10.7 					"/>
				</g>
			</g>
		</g>
		<g class="st42">
			<g>
				<defs>
					<rect id="SVGID_96_" x="19.5" y="1.8" width="17.8" height="59.6"/>
				</defs>
				<clipPath id="SVGID_97_">
					<use xlink:href="#SVGID_96_"  style="overflow:visible;"/>
				</clipPath>
				<path class="st47" d="M36.9,20.7c-0.8-9.5-4.3-15.6-6.7-18c-0.4-0.4-0.9-0.8-1.6-0.9c-0.1,0-0.1,0-0.2,0c-0.1,0-0.1,0-0.2,0
					c0,0,0,0-0.1,0c0.4,0.1,1.9,0.7,3,3.7c1.3,3.5,1.4,4.9,1.4,4.9s0,1-0.8,0.8c-0.8-0.2-3.2-0.2-4.5-0.2l1.9,4.3
					c0,0,2.9,0.4,4.2,3.2c1.3,2.9,0.7,39.3,0.7,39.3s-0.1,2.1-2.8,2.5c-2.6,0.4-9.5,0.7-10.9-2.8c-0.6-1.4-0.8-3.2-0.9-4.8
					c0,3.4,0.1,5.6,0.1,5.6s0.2,1.6,3.7,2.4c1.3,0.3,2.9,0.5,5.2,0.6c2.3,0,3.9-0.3,5.2-0.6c3.5-0.9,3.7-2.4,3.7-2.4
					S37.7,30.3,36.9,20.7"/>
			</g>
		</g>
		<g class="st42">
			<g>
				<defs>
					<rect id="SVGID_98_" x="21.1" y="10.9" width="14.3" height="9.7"/>
				</defs>
				<clipPath id="SVGID_99_">
					<use xlink:href="#SVGID_98_"  style="overflow:visible;"/>
				</clipPath>
				<path class="st48" d="M34.6,14.5c-0.3-1.2-1.2-2-2.2-2.6c-0.6-0.3-1.3-0.6-1.9-0.7c-1.5-0.3-3.1-0.3-4.6,0.1
					c0,0-3.2,0.7-3.8,3.2c-0.6,2.5-1.1,6.3-0.7,6.2c0.3,0,0.2-1.8,0.9-2.6c1.1-1.2,2.3-2.3,4-2.6c1.7-0.3,3.7-0.3,5.3,0.3
					c1,0.4,1.9,1.1,2.6,1.9c0.1,0.1,0.2,0.3,0.4,0.4c0.7,0.8,0.6,2.6,0.9,2.6C35.6,20.7,35.2,17,34.6,14.5"/>
			</g>
		</g>
		<g class="st42">
			<g>
				<defs>
					<rect id="SVGID_100_" x="21.4" y="11" width="14" height="9.7"/>
				</defs>
				<clipPath id="SVGID_101_">
					<use xlink:href="#SVGID_100_"  style="overflow:visible;"/>
				</clipPath>
				<path class="st49" d="M34.6,14.5c-0.3-1.2-1.2-2-2.2-2.6c-0.6-0.3-1.3-0.6-1.9-0.7C30,11.1,29.6,11,29.2,11c0,0.3,0.6,3-1.1,3.3
					c-0.7,0.1-1.4,0.2-2,0.4c-2.5,0.9-4.7,3-4.6,5.8c0.2-0.5,0.2-1.8,0.8-2.5c1.1-1.2,2.3-2.3,4-2.6c1.7-0.3,3.7-0.3,5.3,0.3
					c1,0.4,1.9,1.1,2.6,1.9c0.1,0.1,0.2,0.3,0.4,0.4c0.7,0.8,0.6,2.6,0.9,2.6C35.6,20.7,35.2,17,34.6,14.5"/>
			</g>
		</g>
		<g class="st42">
			<g>
				<defs>
					<rect id="SVGID_102_" x="22" y="11.1" width="6" height="3.6"/>
				</defs>
				<clipPath id="SVGID_103_">
					<use xlink:href="#SVGID_102_"  style="overflow:visible;"/>
				</clipPath>
				<path class="st50" d="M23.7,12.7c0.5-0.5,1.2-0.8,1.9-1.1c0.8-0.3,1.7-0.4,2.5-0.5c-3,0-4.3,1-5.1,1.9c-0.5,0.5-0.8,1.2-0.9,1.7
					C22.4,14,23,13.3,23.7,12.7"/>
			</g>
		</g>
	</g>
	<g class="st0">
		<defs>
			<path id="SVGID_104_" d="M19.5,45.6c0,2.3,0,4.4,0,6.3c2.9,0.9,9.8,2.4,17.8-0.2c0-1.9,0-4,0-6.3C29.4,47.9,22.4,46.4,19.5,45.6"
				/>
		</defs>
		<clipPath id="SVGID_105_">
			<use xlink:href="#SVGID_104_"  style="overflow:visible;"/>
		</clipPath>
		
			<linearGradient id="SVGID_106_" gradientUnits="userSpaceOnUse" x1="0" y1="70.7272" x2="1" y2="70.7272" gradientTransform="matrix(23.0296 0 0 -23.0296 12.9595 1678.5984)">
			<stop  offset="0" style="stop-color:#E5E0DF"/>
			<stop  offset="0.4575" style="stop-color:#E5E0DF"/>
			<stop  offset="1" style="stop-color:#454949"/>
		</linearGradient>
		<rect x="19.5" y="45.4" class="st51" width="17.8" height="8.9"/>
	</g>
	<g class="st0">
		<defs>
			<rect id="SVGID_107_" y="0" width="60.5" height="70.8"/>
		</defs>
		<clipPath id="SVGID_108_">
			<use xlink:href="#SVGID_107_"  style="overflow:visible;"/>
		</clipPath>
		<path class="st52" d="M30.3,42.1c-0.2-1.3-1.7-1.2-1.7-1.2h-0.4c0,0-1.5-0.1-1.7,1.2c-0.2,1.3,0.9,19.4,0.9,19.4s-0.2,1,0.9,1.3
			h0.4c1-0.3,0.9-1.3,0.9-1.3S30.5,43.4,30.3,42.1"/>
		<path class="st53" d="M30.3,42.1c-0.2-1.3-1.7-1.2-1.7-1.2h-0.4c0,0-1.5-0.1-1.7,1.2c-0.2,1.3,0.9,19.4,0.9,19.4s-0.2,1,0.9,1.3
			h0.4c1-0.3,0.9-1.3,0.9-1.3S30.5,43.4,30.3,42.1"/>
		<path class="st52" d="M28.6,42.5c0-1-0.6-0.9-0.6-0.9l-0.1,0c0,0-0.5-0.1-0.6,0.9c0,1,0.5,19.4,0.5,19.4S29.2,60.8,28.6,42.5"/>
		<path class="st53" d="M36.7,28.5c0,0.3-0.2,0.6-0.6,0.6s-0.6-0.2-0.6-0.6v-0.4c0-0.3,0.2-0.6,0.6-0.6s0.6,0.2,0.6,0.6V28.5z"/>
		<path class="st53" d="M36.7,32.3c0,0.3-0.2,0.6-0.6,0.6s-0.6-0.2-0.6-0.6v-0.4c0-0.3,0.2-0.6,0.6-0.6s0.6,0.2,0.6,0.6V32.3z"/>
		<path class="st53" d="M36.7,36.1c0,0.3-0.2,0.6-0.6,0.6s-0.6-0.2-0.6-0.6v-0.4c0-0.3,0.2-0.6,0.6-0.6s0.6,0.2,0.6,0.6V36.1z"/>
		<path class="st53" d="M36.7,39.8c0,0.3-0.2,0.6-0.6,0.6s-0.6-0.2-0.6-0.6v-0.4c0-0.3,0.2-0.6,0.6-0.6s0.6,0.2,0.6,0.6V39.8z"/>
		<path class="st54" d="M21.2,28.5c0,0.3-0.2,0.6-0.6,0.6c-0.3,0-0.6-0.2-0.6-0.6v-0.4c0-0.3,0.2-0.6,0.6-0.6c0.3,0,0.6,0.2,0.6,0.6
			V28.5z"/>
		<path class="st54" d="M21.2,32.3c0,0.3-0.2,0.6-0.6,0.6c-0.3,0-0.6-0.2-0.6-0.6v-0.4c0-0.3,0.2-0.6,0.6-0.6c0.3,0,0.6,0.2,0.6,0.6
			V32.3z"/>
		<path class="st54" d="M21.2,36.1c0,0.3-0.2,0.6-0.6,0.6c-0.3,0-0.6-0.2-0.6-0.6v-0.4c0-0.3,0.2-0.6,0.6-0.6c0.3,0,0.6,0.2,0.6,0.6
			V36.1z"/>
		<path class="st54" d="M21.2,39.8c0,0.3-0.2,0.6-0.6,0.6c-0.3,0-0.6-0.2-0.6-0.6v-0.4c0-0.3,0.2-0.6,0.6-0.6c0.3,0,0.6,0.2,0.6,0.6
			V39.8z"/>
		<path class="st53" d="M5.4,55.8c0,0.2-0.1,0.3-0.3,0.3s-0.3-0.1-0.3-0.3c0-0.2,0.1-0.3,0.3-0.3S5.4,55.6,5.4,55.8"/>
		<path class="st53" d="M8.1,56c0,0.2-0.1,0.3-0.3,0.3c-0.2,0-0.3-0.1-0.3-0.3c0-0.2,0.1-0.3,0.3-0.3C8,55.8,8.1,55.9,8.1,56"/>
		<path class="st53" d="M10.8,56.2c0,0.2-0.1,0.3-0.3,0.3c-0.2,0-0.3-0.1-0.3-0.3c0-0.2,0.1-0.3,0.3-0.3
			C10.7,55.9,10.8,56,10.8,56.2"/>
		<path class="st53" d="M13.6,56.4c0,0.2-0.1,0.3-0.3,0.3c-0.2,0-0.3-0.1-0.3-0.3c0-0.2,0.1-0.3,0.3-0.3
			C13.5,56.1,13.6,56.2,13.6,56.4"/>
		<path class="st53" d="M16.3,56.4c0,0.2-0.1,0.3-0.3,0.3c-0.2,0-0.3-0.1-0.3-0.3s0.1-0.3,0.3-0.3C16.2,56.1,16.3,56.2,16.3,56.4"/>
		<path class="st53" d="M19.1,56.6c0,0.2-0.1,0.3-0.3,0.3c-0.2,0-0.3-0.1-0.3-0.3c0-0.2,0.1-0.3,0.3-0.3
			C19,56.4,19.1,56.5,19.1,56.6"/>
		<path class="st53" d="M51.8,55.8c0,0.2,0.1,0.3,0.3,0.3c0.2,0,0.3-0.1,0.3-0.3c0-0.2-0.1-0.3-0.3-0.3C52,55.5,51.8,55.6,51.8,55.8
			"/>
		<path class="st53" d="M49.1,56c0,0.2,0.1,0.3,0.3,0.3c0.2,0,0.3-0.1,0.3-0.3c0-0.2-0.1-0.3-0.3-0.3C49.2,55.8,49.1,55.9,49.1,56"
			/>
		<path class="st53" d="M46.4,56.2c0,0.2,0.1,0.3,0.3,0.3c0.2,0,0.3-0.1,0.3-0.3c0-0.2-0.1-0.3-0.3-0.3C46.5,55.9,46.4,56,46.4,56.2
			"/>
		<path class="st53" d="M43.6,56.4c0,0.2,0.1,0.3,0.3,0.3c0.2,0,0.3-0.1,0.3-0.3c0-0.2-0.1-0.3-0.3-0.3
			C43.7,56.1,43.6,56.2,43.6,56.4"/>
		<path class="st53" d="M40.9,56.4c0,0.2,0.1,0.3,0.3,0.3c0.2,0,0.3-0.1,0.3-0.3s-0.1-0.3-0.3-0.3C41,56.1,40.9,56.2,40.9,56.4"/>
		<path class="st53" d="M38.1,56.6c0,0.2,0.1,0.3,0.3,0.3c0.2,0,0.3-0.1,0.3-0.3c0-0.2-0.1-0.3-0.3-0.3
			C38.2,56.4,38.1,56.5,38.1,56.6"/>
	</g>
</g>
</svg>
