<?xml version="1.0" encoding="utf-8"?>
<!-- Generator: Adobe Illustrator 22.0.0, SVG Export Plug-In . SVG Version: 6.00 Build 0)  -->
<svg version="1.1" id="Capa_1" xmlns="http://www.w3.org/2000/svg" xmlns:xlink="http://www.w3.org/1999/xlink" x="0px" y="0px"
	 viewBox="0 0 27.6 78" style="enable-background:new 0 0 27.6 78;" xml:space="preserve">
<style type="text/css">
	.st0{clip-path:url(#SVGID_2_);}
	.st1{clip-path:url(#SVGID_4_);}
	.st2{clip-path:url(#SVGID_6_);fill:#FFFFFF;}
	.st3{clip-path:url(#SVGID_6_);fill:#F1F1F1;}
	.st4{clip-path:url(#SVGID_6_);fill:#E2E2E2;}
	.st5{clip-path:url(#SVGID_6_);fill:#D4D4D4;}
	.st6{clip-path:url(#SVGID_6_);fill:#C5C5C5;}
	.st7{clip-path:url(#SVGID_6_);fill:#B7B7B7;}
	.st8{clip-path:url(#SVGID_6_);fill:#A8A8A8;}
	.st9{clip-path:url(#SVGID_6_);fill:#9A9A9A;}
	.st10{clip-path:url(#SVGID_6_);fill:#8B8B8B;}
	.st11{clip-path:url(#SVGID_6_);fill:#7D7D7D;}
	.st12{clip-path:url(#SVGID_6_);fill:#6E6E6E;}
	.st13{clip-path:url(#SVGID_6_);fill:#606060;}
	.st14{clip-path:url(#SVGID_2_);fill:#E2E3E4;}
	.st15{clip-path:url(#SVGID_8_);fill:#AAACAE;}
	.st16{clip-path:url(#SVGID_8_);}
	.st17{clip-path:url(#SVGID_10_);fill:#AAACAE;}
	.st18{opacity:0.5;clip-path:url(#SVGID_8_);}
	.st19{clip-path:url(#SVGID_12_);fill:#AAACAE;}
	.st20{clip-path:url(#SVGID_8_);fill:#EFEFF0;}
	.st21{clip-path:url(#SVGID_8_);fill:#8F9193;}
	.st22{clip-path:url(#SVGID_14_);fill:#E2E3E4;}
	.st23{clip-path:url(#SVGID_16_);fill:url(#SVGID_17_);}
	.st24{clip-path:url(#SVGID_19_);fill:url(#SVGID_20_);}
	.st25{clip-path:url(#SVGID_22_);fill:#657483;}
	.st26{opacity:0.6;clip-path:url(#SVGID_22_);}
	.st27{clip-path:url(#SVGID_24_);fill:#B3B5B8;}
	.st28{clip-path:url(#SVGID_26_);fill:#B3B5B8;}
	.st29{clip-path:url(#SVGID_28_);fill:url(#SVGID_29_);}
	.st30{clip-path:url(#SVGID_31_);fill:url(#SVGID_32_);}
	.st31{clip-path:url(#SVGID_34_);fill:#657483;}
	.st32{opacity:0.6;clip-path:url(#SVGID_34_);}
	.st33{clip-path:url(#SVGID_36_);fill:#B3B5B8;}
	.st34{clip-path:url(#SVGID_38_);fill:#B3B5B8;}
	.st35{clip-path:url(#SVGID_34_);fill:#AAACAE;}
	.st36{clip-path:url(#SVGID_34_);fill:#777A7C;}
	.st37{clip-path:url(#SVGID_34_);}
	.st38{clip-path:url(#SVGID_40_);fill:#E2E3E4;}
	.st39{clip-path:url(#SVGID_42_);fill:#E2E3E4;}
	.st40{opacity:0.5;clip-path:url(#SVGID_34_);}
	.st41{clip-path:url(#SVGID_44_);fill:#EFEFF0;}
	.st42{clip-path:url(#SVGID_46_);fill:#303134;}
</style>
<g>
	<defs>
		<rect id="SVGID_1_" width="27.6" height="78"/>
	</defs>
	<clipPath id="SVGID_2_">
		<use xlink:href="#SVGID_1_"  style="overflow:visible;"/>
	</clipPath>
	<g class="st0">
		<defs>
			<rect id="SVGID_3_" y="0" width="27.6" height="78"/>
		</defs>
		<clipPath id="SVGID_4_">
			<use xlink:href="#SVGID_3_"  style="overflow:visible;"/>
		</clipPath>
		<g class="st1">
			<g>
				<defs>
					<rect id="SVGID_5_" y="0" width="27.6" height="78"/>
				</defs>
				<clipPath id="SVGID_6_">
					<use xlink:href="#SVGID_5_"  style="overflow:visible;"/>
				</clipPath>
				<path class="st2" d="M14.5,61.1h2.6C16.2,61.1,15.3,61.1,14.5,61.1 M26.3,68.3l-0.9-2.2l-0.7-1.9L24,62.4l-0.7-1.9
					c-0.1,0-0.1,0-0.2,0v-3.1v-0.8v-1.2v-0.8V31.3v-0.7v-8.2h0C22.7,17.6,17.1,5,16.6,4.2c-0.1-0.1-0.1-0.2-0.2-0.2c0,0,0,0-0.1-0.1
					c0,0-0.1-0.1-0.1-0.1c0,0,0,0-0.1,0c0,0-0.1-0.1-0.1-0.1c0,0,0,0,0,0c0,0-0.1,0-0.1,0c0,0,0,0,0,0c0,0,0,0,0,0
					c-0.1,0-0.3-0.1-0.3,0c-0.2,0-0.6,0-1,0.6C14.1,5,8.5,17.6,8,22.4h0v8.2v0.7v23.4v0.8v1.2v0.8v3.1c0,0-0.1,0-0.1,0l-0.7,1.9
					l-0.7,1.7l-0.7,1.9l-0.8,2.2l-0.7,1.8l-0.6,1.5c0,0,0,0,0.1,0c0,0,0,0,0,0c0,0,0.1,0,0.2,0.1c0,0,0,0,0.1,0
					c0.1,0,0.2,0.1,0.2,0.1c0,0,0.1,0,0.1,0c0.1,0,0.3,0.1,0.4,0.2c0,0,0,0,0,0c0,0,0,0,0,0c0.7,0.2,1.7,0.5,3.1,0.8c0,0,0,0,0,0h0
					c-0.1,0.3-0.1,0.6-0.2,0.9l0,0c0,0,0,0,0,0c0,0.1,0,0.1,0,0.2c0,0.1,0,0.2,0,0.2h0c-0.1,0.3-0.1,0.6-0.1,0.9c0,0,0,0,0,0
					c0,0.1,0,0.3,0,0.4h0c0,0.3,0,0.6-0.1,0.9c0,0,0,0,0,0c0,0,0,0.1,0,0.1c0,0.1,0,0.2,0,0.3c0,0,0,0,0,0c0,0.2,0,0.4,0,0.6
					c0,0,0,0,0.1,0c0,0,0,0,0,0c0,0,0.1,0,0.2,0.1c0,0,0,0,0,0v0c0.5,0.2,1.7,0.5,3.2,0.5c0,0,0,0,0,0c0.8,0,1.4-0.1,2-0.2v0
					c0,0,0,0,0,0c0.1,0,0.1,0,0.2,0c0.1,0,0.2,0,0.3-0.1c0.1,0,0.1,0,0.1,0c0.1,0,0.2-0.1,0.3-0.1c0,0,0.1,0,0.1,0
					c0.1,0,0.1,0,0.2-0.1c0,0,0,0,0.1,0c0.1,0,0.1,0,0.2-0.1c0,0,0,0,0,0c0,0,0,0,0,0c0-0.2,0-0.4,0-0.6c0,0,0,0,0,0
					c0-0.1,0-0.2,0-0.3c0,0,0-0.1,0-0.1c0,0,0,0,0,0l0,0c0-0.3,0-0.6-0.1-1h0c0-0.1,0-0.3,0-0.4c0,0,0,0,0,0c0-0.3-0.1-0.6-0.1-0.9
					h0c0-0.1,0-0.1,0-0.2c0-0.1,0-0.1,0-0.2c0,0,0,0,0-0.1h0c0-0.1,0-0.2-0.1-0.2c0.5,0,1,0,1.6,0c0.5,0,1.1,0,1.6,0
					c0,0.1,0,0.2-0.1,0.3l0,0l0,0c0,0.1,0,0.1,0,0.2c0,0.1,0,0.1,0,0.2h0c-0.1,0.3-0.1,0.6-0.1,0.9c0,0,0,0,0,0c0,0.1,0,0.3,0,0.4
					c0,0.3,0,0.6-0.1,0.9h0c0,0,0,0,0,0c0,0,0,0.1,0,0.1c0,0.1,0,0.2,0,0.3c0,0,0,0,0,0c0,0.2,0,0.4,0,0.6c0,0,0,0,0.1,0
					c0,0,0,0,0,0c0,0,0.1,0,0.2,0.1c0,0,0,0,0,0v0c0.5,0.2,1.7,0.5,3.2,0.5c0,0,0,0,0,0c0.8,0,1.4-0.1,2-0.2v0c0,0,0,0,0,0
					c0.1,0,0.1,0,0.1,0c0.1,0,0.2,0,0.3-0.1c0,0,0.1,0,0.1,0c0.1,0,0.2-0.1,0.3-0.1c0,0,0.1,0,0.1,0c0.1,0,0.1,0,0.2-0.1
					c0,0,0,0,0.1,0c0.1,0,0.1,0,0.2-0.1c0,0,0,0,0,0c0,0,0,0,0,0c0-0.2,0-0.4,0-0.6c0,0,0,0,0,0c0-0.1,0-0.2,0-0.3c0,0,0-0.1,0-0.1
					c0,0,0,0,0,0l0,0c0-0.3,0-0.6-0.1-1h0c0-0.1,0-0.3,0-0.4c0,0,0,0,0,0c0-0.3-0.1-0.6-0.1-0.9h0c0-0.1,0-0.1,0-0.2
					c0-0.1,0-0.1,0-0.2c0,0,0,0,0-0.1h0c-0.1-0.3-0.1-0.6-0.2-0.9c0,0,0,0,0.1,0c0.3-0.1,0.6-0.1,0.8-0.2c0.1,0,0.1,0,0.2,0
					c0.3-0.1,0.6-0.2,0.9-0.2c0,0,0.1,0,0.1,0c0.2-0.1,0.4-0.1,0.6-0.2c0.1,0,0.1,0,0.2-0.1c0.2-0.1,0.3-0.1,0.5-0.2c0,0,0,0,0.1,0
					c0.2-0.1,0.3-0.1,0.4-0.2c0,0,0,0,0.1,0c0.1,0,0.1-0.1,0.2-0.1c0,0,0,0,0,0c0,0,0.1,0,0.1,0l-0.5-1.3L26.3,68.3z"/>
				<path class="st3" d="M14.1,60.8h2.6C15.8,60.8,15,60.8,14.1,60.8 M26,68l-0.9-2.2l-0.7-1.9l-0.7-1.8L23,60.2c-0.1,0-0.1,0-0.2,0
					v-3.1v-0.8v-1.2v-0.8V31v-0.7v-8.2h0c-0.4-4.8-6.1-17.4-6.6-18.2c-0.1-0.1-0.1-0.2-0.2-0.2c0,0,0,0-0.1-0.1c0,0-0.1-0.1-0.1-0.1
					c0,0,0,0-0.1,0c0,0-0.1-0.1-0.1-0.1c0,0,0,0,0,0c0,0-0.1,0-0.1,0c0,0,0,0,0,0l0,0c-0.1,0-0.3-0.1-0.3,0c-0.2,0-0.6,0-1,0.6
					c-0.5,0.8-6.1,13.4-6.6,18.2h0v8.2V31v23.4v0.8v1.2v0.8v3.1c0,0-0.1,0-0.1,0L6.9,62l-0.7,1.7l-0.7,1.9l-0.8,2.2l-0.7,1.8
					l-0.6,1.5c0,0,0,0,0.1,0c0,0,0,0,0,0c0,0,0.1,0,0.2,0.1c0,0,0,0,0.1,0c0.1,0,0.2,0.1,0.2,0.1c0,0,0.1,0,0.1,0
					c0.1,0,0.3,0.1,0.4,0.2c0,0,0,0,0,0v0c0.7,0.2,1.7,0.5,3.1,0.8c0,0,0,0,0,0h0c-0.1,0.3-0.1,0.6-0.2,0.9c0,0,0,0,0,0
					c0,0.1,0,0.1,0,0.2c0,0.1,0,0.2,0,0.2c0,0,0,0,0,0c-0.1,0.3-0.1,0.6-0.1,0.9c0,0,0,0,0,0c0,0.1,0,0.3,0,0.4h0
					C7,75.4,7,75.7,7,76c0,0,0,0,0,0c0,0,0,0.1,0,0.1c0,0.1,0,0.2,0,0.3c0,0,0,0,0,0c0,0.2,0,0.4,0,0.6c0,0,0,0,0.1,0c0,0,0,0,0,0
					c0,0,0.1,0,0.2,0.1c0,0,0,0,0,0v0c0.5,0.2,1.7,0.5,3.2,0.5v0h0c0.8,0,1.4-0.1,2-0.2c0,0,0,0,0,0c0.1,0,0.1,0,0.2,0
					c0.1,0,0.2,0,0.3-0.1c0.1,0,0.1,0,0.1,0c0.1,0,0.2-0.1,0.3-0.1c0,0,0.1,0,0.1,0c0.1,0,0.1,0,0.2-0.1c0,0,0,0,0.1,0
					c0.1,0,0.1,0,0.2-0.1c0,0,0,0,0,0c0,0,0,0,0,0c0-0.2,0-0.4,0-0.6c0,0,0,0,0,0c0-0.1,0-0.2,0-0.3c0,0,0-0.1,0-0.1c0,0,0,0,0,0h0
					c0-0.3,0-0.6-0.1-1h0c0-0.1,0-0.3,0-0.4h0c0-0.3-0.1-0.6-0.1-0.9c0,0,0,0,0,0c0-0.1,0-0.1,0-0.2c0-0.1,0-0.1,0-0.2
					c0,0,0,0,0-0.1h0c0-0.1,0-0.2-0.1-0.2c0.5,0,1,0,1.6,0c0.5,0,1.1,0,1.6,0c0,0.1,0,0.2-0.1,0.3c0,0,0,0,0,0c0,0.1,0,0.1,0,0.2
					c0,0.1,0,0.1,0,0.2c0,0,0,0,0,0c-0.1,0.3-0.1,0.6-0.1,0.9c0,0,0,0,0,0c0,0.1,0,0.3,0,0.4h0c0,0.3,0,0.6-0.1,0.9c0,0,0,0,0,0
					c0,0,0,0.1,0,0.1c0,0.1,0,0.2,0,0.3c0,0,0,0,0,0c0,0.2,0,0.4,0,0.6c0,0,0,0,0.1,0c0,0,0,0,0,0c0,0,0.1,0,0.2,0.1c0,0,0,0,0,0v0
					c0.5,0.2,1.7,0.5,3.2,0.5v0h0c0.8,0,1.4-0.1,2-0.2c0,0,0,0,0,0c0.1,0,0.1,0,0.1,0c0.1,0,0.2,0,0.3-0.1c0,0,0.1,0,0.1,0
					c0.1,0,0.2-0.1,0.3-0.1c0,0,0.1,0,0.1,0c0.1,0,0.1,0,0.2-0.1c0,0,0,0,0.1,0c0.1,0,0.1,0,0.2-0.1c0,0,0,0,0,0c0,0,0,0,0,0
					c0-0.2,0-0.4,0-0.6c0,0,0,0,0,0c0-0.1,0-0.2,0-0.3c0,0,0-0.1,0-0.1c0,0,0,0,0,0h0c0-0.3,0-0.6-0.1-1h0c0-0.1,0-0.3,0-0.4h0
					c0-0.3-0.1-0.6-0.1-0.9c0,0,0,0,0,0c0-0.1,0-0.1,0-0.2c0-0.1,0-0.1,0-0.2c0,0,0,0,0-0.1h0c-0.1-0.3-0.1-0.6-0.2-0.9
					c0,0,0,0,0.1,0c0.3-0.1,0.6-0.1,0.8-0.2c0.1,0,0.1,0,0.2,0c0.3-0.1,0.6-0.2,0.9-0.2c0,0,0.1,0,0.1,0c0.2-0.1,0.4-0.1,0.6-0.2
					c0.1,0,0.1,0,0.2-0.1c0.2-0.1,0.3-0.1,0.5-0.2c0,0,0,0,0.1,0c0.2-0.1,0.3-0.1,0.4-0.2c0,0,0,0,0.1,0c0.1,0,0.1-0.1,0.2-0.1
					c0,0,0,0,0,0c0,0,0.1,0,0.1,0l-0.5-1.3L26,68z"/>
				<path class="st4" d="M13.8,60.5h2.6C15.5,60.5,14.6,60.5,13.8,60.5 M25.7,67.6l-0.9-2.2l-0.7-1.9l-0.7-1.8l-0.7-1.9
					c-0.1,0-0.1,0-0.2,0v-3.1V56v-1.2V54V30.7V30v-8.2h0C22,17,16.4,4.3,15.9,3.6c-0.1-0.1-0.1-0.2-0.2-0.2c0,0,0,0-0.1-0.1
					c0,0-0.1-0.1-0.1-0.1c0,0,0,0-0.1,0c0,0-0.1-0.1-0.1-0.1c0,0,0,0,0,0c0,0-0.1,0-0.1,0c0,0,0,0,0,0v0C15.1,3,15,3,14.9,3
					c-0.2,0-0.6,0-1,0.6C13.5,4.3,7.8,17,7.4,21.8h0V30v0.7V54v0.8V56v0.8v3.1c0,0-0.1,0-0.1,0l-0.7,1.9l-0.7,1.7l-0.7,1.9l-0.8,2.2
					l-0.7,1.8L3,70.8c0,0,0,0,0.1,0c0,0,0,0,0,0c0,0,0.1,0,0.2,0.1c0,0,0,0,0.1,0c0.1,0,0.2,0.1,0.2,0.1c0,0,0.1,0,0.1,0
					c0.1,0,0.3,0.1,0.4,0.2c0,0,0,0,0,0c0.7,0.2,1.7,0.5,3.1,0.8c0,0,0,0,0,0c0,0,0,0,0,0C7.1,72.4,7,72.7,7,73h0c0,0,0,0,0,0
					c0,0.1,0,0.1,0,0.2c0,0.1,0,0.2,0,0.2c0,0,0,0,0,0c-0.1,0.3-0.1,0.6-0.1,0.9c0,0,0,0,0,0c0,0.1,0,0.3,0,0.4c0,0,0,0,0,0
					c0,0.3,0,0.6-0.1,0.9h0c0,0,0,0,0,0c0,0,0,0.1,0,0.1c0,0.1,0,0.2,0,0.3c0,0,0,0,0,0c0,0.2,0,0.4,0,0.6c0,0,0,0,0.1,0
					c0,0,0,0,0,0c0,0,0.1,0,0.2,0.1c0,0,0,0,0,0c0.5,0.2,1.7,0.5,3.2,0.5c0,0,0,0,0,0c0.8,0,1.4-0.1,2-0.2c0,0,0,0,0,0c0,0,0,0,0,0
					c0.1,0,0.1,0,0.2,0c0.1,0,0.2,0,0.3-0.1c0.1,0,0.1,0,0.1,0c0.1,0,0.2-0.1,0.3-0.1c0,0,0.1,0,0.1,0c0.1,0,0.1,0,0.2-0.1
					c0,0,0,0,0.1,0c0.1,0,0.1,0,0.2-0.1c0,0,0,0,0,0c0,0,0,0,0,0c0-0.2,0-0.4,0-0.6c0,0,0,0,0,0c0-0.1,0-0.2,0-0.3c0,0,0-0.1,0-0.1
					c0,0,0,0,0,0h0c0-0.3,0-0.6-0.1-1l0,0c0-0.1,0-0.3,0-0.4c0,0,0,0,0,0c0-0.3-0.1-0.6-0.1-0.9h0c0-0.1,0-0.1,0-0.2
					c0-0.1,0-0.1,0-0.2c0,0,0,0,0-0.1c0,0,0,0,0,0c0-0.1,0-0.2-0.1-0.2c0.5,0,1,0,1.6,0c0.5,0,1.1,0,1.6,0c0,0.1,0,0.2-0.1,0.3l0,0
					c0,0,0,0,0,0c0,0.1,0,0.1,0,0.2c0,0.1,0,0.1,0,0.2c0,0,0,0,0,0c-0.1,0.3-0.1,0.6-0.1,0.9c0,0,0,0,0,0c0,0.1,0,0.3,0,0.4l0,0
					c0,0.3,0,0.6-0.1,0.9c0,0,0,0,0,0c0,0,0,0.1,0,0.1c0,0.1,0,0.2,0,0.3c0,0,0,0,0,0c0,0.2,0,0.4,0,0.6c0,0,0,0,0.1,0c0,0,0,0,0,0
					c0,0,0.1,0,0.2,0.1c0,0,0,0,0,0c0.5,0.2,1.7,0.5,3.2,0.5c0,0,0,0,0,0c0.8,0,1.4-0.1,2-0.2v0c0,0,0,0,0,0c0.1,0,0.1,0,0.1,0
					c0.1,0,0.2,0,0.3-0.1c0,0,0.1,0,0.1,0c0.1,0,0.2-0.1,0.3-0.1c0,0,0.1,0,0.1,0c0.1,0,0.1,0,0.2-0.1c0,0,0,0,0.1,0
					c0.1,0,0.1,0,0.2-0.1c0,0,0,0,0,0c0,0,0,0,0,0c0-0.2,0-0.4,0-0.6c0,0,0,0,0,0c0-0.1,0-0.2,0-0.3c0,0,0-0.1,0-0.1c0,0,0,0,0,0h0
					c0-0.3,0-0.6-0.1-1l0,0c0-0.1,0-0.3,0-0.4c0,0,0,0,0,0c0-0.3-0.1-0.6-0.1-0.9h0c0-0.1,0-0.1,0-0.2c0-0.1,0-0.1,0-0.2
					c0,0,0,0,0-0.1c0,0,0,0,0,0c-0.1-0.3-0.1-0.6-0.2-0.9c0,0,0,0,0.1,0c0.3-0.1,0.6-0.1,0.8-0.2c0.1,0,0.1,0,0.2,0
					c0.3-0.1,0.6-0.2,0.9-0.2c0,0,0.1,0,0.1,0c0.2-0.1,0.4-0.1,0.6-0.2c0.1,0,0.1,0,0.2-0.1c0.2-0.1,0.3-0.1,0.5-0.2c0,0,0,0,0.1,0
					c0.2-0.1,0.3-0.1,0.4-0.2c0,0,0,0,0.1,0c0.1,0,0.1-0.1,0.2-0.1c0,0,0,0,0,0c0,0,0.1,0,0.1,0l-0.5-1.3L25.7,67.6z"/>
				<path class="st5" d="M13.5,60.1h2.6C15.2,60.1,14.3,60.1,13.5,60.1 M25.4,67.3l-0.9-2.2l-0.7-1.9L23,61.5l-0.7-1.9
					c-0.1,0-0.1,0-0.2,0v-3.1v-0.8v-1.2v-0.8V30.3v-0.7v-8.2h0C21.7,16.6,16.1,4,15.6,3.3c-0.1-0.1-0.1-0.2-0.2-0.2c0,0,0,0-0.1-0.1
					c0,0-0.1-0.1-0.1-0.1c0,0,0,0-0.1,0c0,0-0.1-0.1-0.1-0.1c0,0,0,0,0,0c0,0-0.1,0-0.1,0c0,0,0,0,0,0c0,0,0,0,0,0
					c-0.1,0-0.3-0.1-0.3,0c-0.2,0-0.6,0-1,0.6C13.1,4,7.5,16.6,7.1,21.4h0v8.2v0.7v23.4v0.8v1.2v0.8v3.1c0,0-0.1,0-0.1,0l-0.7,1.9
					l-0.7,1.7L4.8,65L4,67.1l-0.7,1.8l-0.6,1.5c0,0,0,0,0.1,0c0,0,0,0,0,0c0,0,0.1,0,0.2,0.1c0,0,0,0,0.1,0c0.1,0,0.2,0.1,0.2,0.1
					c0,0,0.1,0,0.1,0c0.1,0,0.3,0.1,0.4,0.1c0,0,0,0,0,0c0,0,0,0,0,0c0.7,0.2,1.7,0.5,3.1,0.8c0,0,0,0,0,0c0,0,0,0,0,0
					c-0.1,0.3-0.1,0.6-0.2,0.9h0c0,0,0,0,0,0c0,0,0,0.1,0,0.2c0,0.1,0,0.2,0,0.2c0,0,0,0,0,0c-0.1,0.3-0.1,0.6-0.1,0.9c0,0,0,0,0,0
					c0,0.1,0,0.3,0,0.4c0,0.3,0,0.6-0.1,0.9h0v0c0,0,0,0.1,0,0.1c0,0.1,0,0.2,0,0.3c0,0,0,0,0,0c0,0.2,0,0.4,0,0.6c0,0,0,0,0.1,0
					c0,0,0,0,0,0c0,0,0.1,0,0.2,0.1c0,0,0,0,0,0v0C7.1,76.7,8.3,77,9.8,77v0h0c0.8,0,1.4-0.1,2-0.2c0,0,0,0,0,0c0.1,0,0.1,0,0.2,0
					c0.1,0,0.2,0,0.3-0.1c0.1,0,0.1,0,0.1,0c0.1,0,0.2-0.1,0.3-0.1c0,0,0.1,0,0.1,0c0.1,0,0.1,0,0.2-0.1c0,0,0,0,0.1,0
					c0.1,0,0.1,0,0.2-0.1c0,0,0,0,0,0c0,0,0,0,0,0c0-0.2,0-0.4,0-0.6c0,0,0,0,0,0c0-0.1,0-0.2,0-0.3c0,0,0-0.1,0-0.1c0,0,0,0,0,0h0
					c0-0.3,0-0.6-0.1-1h0c0-0.1,0-0.3,0-0.4c0,0,0,0,0,0c0-0.3-0.1-0.6-0.1-0.9c0,0,0,0,0,0c0-0.1,0-0.1,0-0.2c0-0.1,0-0.1,0-0.2
					c0,0,0,0,0-0.1h0c0-0.1,0-0.2-0.1-0.2c0.5,0,1,0,1.6,0c0.5,0,1.1,0,1.6,0c0,0.1,0,0.2-0.1,0.3h0c0,0,0,0,0,0c0,0.1,0,0.1,0,0.2
					c0,0.1,0,0.1,0,0.2h0C16,73.4,16,73.7,15.9,74c0,0,0,0,0,0c0,0.1,0,0.3,0,0.4h0c0,0.3,0,0.6-0.1,0.9h0c0,0,0,0,0,0
					c0,0,0,0.1,0,0.1c0,0.1,0,0.2,0,0.3c0,0,0,0,0,0c0,0.2,0,0.4,0,0.6c0,0,0,0,0.1,0c0,0,0,0,0,0c0,0,0.1,0,0.2,0.1c0,0,0,0,0,0v0
					c0.5,0.2,1.7,0.5,3.2,0.5v0h0c0.8,0,1.4-0.1,2-0.2c0,0,0,0,0,0c0.1,0,0.1,0,0.1,0c0.1,0,0.2,0,0.3-0.1c0,0,0.1,0,0.1,0
					c0.1,0,0.2-0.1,0.3-0.1c0,0,0.1,0,0.1,0c0.1,0,0.1,0,0.2-0.1c0,0,0,0,0.1,0c0.1,0,0.1,0,0.2-0.1c0,0,0,0,0,0c0,0,0,0,0,0
					c0-0.2,0-0.4,0-0.6c0,0,0,0,0,0c0-0.1,0-0.2,0-0.3c0,0,0-0.1,0-0.1c0,0,0,0,0,0h0c0-0.3,0-0.6-0.1-1h0c0-0.1,0-0.3,0-0.4
					c0,0,0,0,0,0c0-0.3-0.1-0.6-0.1-0.9c0,0,0,0,0,0c0-0.1,0-0.1,0-0.2s0-0.1,0-0.2c0,0,0,0,0-0.1h0c-0.1-0.3-0.1-0.6-0.2-0.9
					c0,0,0,0,0.1,0c0.3-0.1,0.6-0.1,0.8-0.2c0.1,0,0.1,0,0.2,0c0.3-0.1,0.6-0.2,0.9-0.2c0,0,0.1,0,0.1,0c0.2-0.1,0.4-0.1,0.6-0.2
					c0.1,0,0.1,0,0.2-0.1c0.2-0.1,0.3-0.1,0.5-0.2c0,0,0,0,0.1,0c0.2-0.1,0.3-0.1,0.4-0.2c0,0,0,0,0.1,0c0.1,0,0.1-0.1,0.2-0.1
					c0,0,0,0,0,0c0,0,0.1,0,0.1,0l-0.5-1.3L25.4,67.3z"/>
				<path class="st6" d="M13.2,59.8h2.6C14.8,59.8,14,59.8,13.2,59.8 M25,67l-0.9-2.2l-0.7-1.9l-0.7-1.8L22,59.2c-0.1,0-0.1,0-0.2,0
					v-3.1v-0.8v-1.2v-0.8V30v-0.7v-8.2h0c-0.4-4.8-6.1-17.4-6.6-18.2c-0.1-0.1-0.1-0.2-0.2-0.2c0,0,0,0-0.1-0.1c0,0-0.1-0.1-0.1-0.1
					c0,0,0,0-0.1,0c0,0-0.1-0.1-0.1-0.1c0,0,0,0,0,0c0,0-0.1,0-0.1,0c0,0,0,0,0,0c0,0,0,0,0,0c-0.1,0-0.3-0.1-0.3,0
					c-0.2,0-0.6,0-1,0.6c-0.5,0.8-6.1,13.4-6.6,18.2h0v8.2V30v23.4v0.8v1.2v0.8v3.1c0,0-0.1,0-0.1,0l-0.7,1.9l-0.7,1.7l-0.7,1.9
					l-0.8,2.2l-0.7,1.8l-0.6,1.5c0,0,0,0,0.1,0c0,0,0,0,0,0c0,0,0.1,0,0.2,0.1c0,0,0,0,0.1,0c0.1,0,0.2,0.1,0.2,0.1c0,0,0.1,0,0.1,0
					c0.1,0,0.3,0.1,0.4,0.2c0,0,0,0,0,0c0.7,0.2,1.7,0.5,3.1,0.8c0,0,0,0,0,0h0c-0.1,0.3-0.1,0.6-0.2,0.9c0,0,0,0,0,0
					c0,0.1,0,0.1,0,0.2c0,0.1,0,0.2,0,0.2c0,0,0,0,0,0c-0.1,0.3-0.1,0.6-0.1,0.9c0,0,0,0,0,0c0,0.1,0,0.3,0,0.4h0
					c0,0.3,0,0.6-0.1,0.9h0c0,0,0,0,0,0c0,0,0,0.1,0,0.1c0,0.1,0,0.2,0,0.3c0,0,0,0,0,0c0,0.2,0,0.4,0,0.6c0,0,0,0,0.1,0
					c0,0,0,0,0,0c0,0,0.1,0,0.2,0.1c0,0,0,0,0,0c0.5,0.2,1.7,0.5,3.2,0.5v0h0c0.8,0,1.4-0.1,2-0.2v0c0,0,0,0,0,0c0.1,0,0.1,0,0.2,0
					c0.1,0,0.2,0,0.3-0.1c0.1,0,0.1,0,0.1,0c0.1,0,0.2-0.1,0.3-0.1c0,0,0.1,0,0.1,0c0.1,0,0.1,0,0.2-0.1c0,0,0,0,0.1,0
					c0.1,0,0.1,0,0.2-0.1c0,0,0,0,0,0c0,0,0,0,0,0c0-0.2,0-0.4,0-0.6h0c0-0.1,0-0.2,0-0.3c0,0,0-0.1,0-0.1c0,0,0,0,0,0h0
					c0-0.3,0-0.6-0.1-1h0c0-0.1,0-0.3,0-0.4c0,0,0,0,0,0c0-0.3-0.1-0.6-0.1-0.9c0,0,0,0,0,0c0-0.1,0-0.1,0-0.2c0-0.1,0-0.1,0-0.2
					c0,0,0,0,0-0.1h0c0-0.1,0-0.2-0.1-0.2c0.5,0,1,0,1.6,0c0.5,0,1.1,0,1.6,0c0,0.1,0,0.2-0.1,0.3h0c0,0,0,0,0,0c0,0.1,0,0.1,0,0.2
					c0,0.1,0,0.1,0,0.2c0,0,0,0,0,0c-0.1,0.3-0.1,0.6-0.1,0.9c0,0,0,0,0,0c0,0.1,0,0.3,0,0.4h0c0,0.3,0,0.6-0.1,0.9h0v0
					c0,0,0,0.1,0,0.1c0,0.1,0,0.2,0,0.3c0,0,0,0,0,0c0,0.2,0,0.4,0,0.6c0,0,0,0,0.1,0c0,0,0,0,0,0c0,0,0.1,0,0.2,0.1c0,0,0,0,0,0
					c0.5,0.2,1.7,0.5,3.2,0.5v0h0c0.8,0,1.4-0.1,2-0.2v0c0,0,0,0,0,0c0.1,0,0.1,0,0.1,0c0.1,0,0.2,0,0.3-0.1c0,0,0.1,0,0.1,0
					c0.1,0,0.2-0.1,0.3-0.1c0,0,0.1,0,0.1,0c0.1,0,0.1,0,0.2-0.1c0,0,0,0,0.1,0c0.1,0,0.1,0,0.2-0.1c0,0,0,0,0,0c0,0,0,0,0,0
					c0-0.2,0-0.4,0-0.6c0,0,0,0,0,0c0-0.1,0-0.2,0-0.3c0,0,0-0.1,0-0.1c0,0,0,0,0,0h0c0-0.3,0-0.6-0.1-1h0c0-0.1,0-0.3,0-0.4
					c0,0,0,0,0,0c0-0.3-0.1-0.6-0.1-0.9c0,0,0,0,0,0c0-0.1,0-0.1,0-0.2c0-0.1,0-0.1,0-0.2l0-0.1h0c-0.1-0.3-0.1-0.6-0.2-0.9
					c0,0,0,0,0.1,0c0.3-0.1,0.6-0.1,0.8-0.2c0.1,0,0.1,0,0.2,0c0.3-0.1,0.6-0.2,0.9-0.2c0,0,0.1,0,0.1,0c0.2-0.1,0.4-0.1,0.6-0.2
					c0.1,0,0.1,0,0.2-0.1c0.2-0.1,0.3-0.1,0.5-0.2c0,0,0,0,0.1,0c0.2-0.1,0.3-0.1,0.4-0.2c0,0,0,0,0.1,0c0.1,0,0.1-0.1,0.2-0.1
					c0,0,0,0,0,0c0,0,0.1,0,0.1,0l-0.5-1.3L25,67z"/>
				<path class="st7" d="M12.8,59.5h2.6C14.5,59.5,13.7,59.5,12.8,59.5 M24.7,66.6l-0.9-2.2l-0.7-1.9l-0.7-1.8l-0.7-1.9
					c-0.1,0-0.1,0-0.2,0v-3.1V55v-1.2V53V29.7V29v-8.2h0C21,16,15.4,3.4,14.9,2.6c-0.1-0.1-0.1-0.2-0.2-0.2c0,0,0,0-0.1-0.1
					c0,0-0.1-0.1-0.1-0.1c0,0,0,0-0.1,0c0,0-0.1-0.1-0.1-0.1c0,0,0,0,0,0c0,0-0.1,0-0.1,0c0,0,0,0,0,0v0C14.1,2,14,2,13.9,2
					c-0.2,0-0.6,0-1,0.6C12.5,3.4,6.8,16,6.4,20.8h0V29v0.7V53v0.8V55v0.8v3.1c0,0-0.1,0-0.1,0l-0.7,1.9l-0.7,1.7l-0.7,1.9l-0.8,2.2
					l-0.7,1.8L2,69.8c0,0,0,0,0.1,0c0,0,0,0,0,0c0,0,0.1,0,0.2,0.1c0,0,0,0,0.1,0c0.1,0,0.2,0.1,0.2,0.1c0,0,0.1,0,0.1,0
					c0.1,0,0.3,0.1,0.4,0.1c0,0,0,0,0,0c0.7,0.2,1.7,0.5,3.1,0.8c0,0,0,0,0,0h0C6.1,71.4,6,71.7,6,72c0,0,0,0,0,0c0,0,0,0,0,0
					c0,0.1,0,0.1,0,0.2c0,0.1,0,0.2,0,0.2h0c-0.1,0.3-0.1,0.6-0.1,0.9c0,0,0,0,0,0c0,0.1,0,0.3,0,0.4h0c0,0.3,0,0.6-0.1,0.9h0
					c0,0,0,0,0,0c0,0,0,0.1,0,0.1c0,0.1,0,0.2,0,0.3c0,0,0,0,0,0c0,0.2,0,0.4,0,0.6c0,0,0,0,0.1,0c0,0,0,0,0,0c0,0,0.1,0,0.2,0.1
					c0,0,0,0,0,0v0c0.5,0.2,1.7,0.5,3.2,0.5v0h0c0.8,0,1.4-0.1,2-0.2c0,0,0,0,0,0c0.1,0,0.1,0,0.2,0c0.1,0,0.2,0,0.3-0.1
					c0.1,0,0.1,0,0.1,0c0.1,0,0.2-0.1,0.3-0.1c0,0,0.1,0,0.1,0c0.1,0,0.1,0,0.2-0.1c0,0,0,0,0.1,0c0.1,0,0.1,0,0.2-0.1c0,0,0,0,0,0
					c0,0,0,0,0,0c0-0.2,0-0.4,0-0.6c0,0,0,0,0,0c0-0.1,0-0.2,0-0.3c0,0,0-0.1,0-0.1c0,0,0,0,0,0c0,0,0,0,0,0c0-0.3,0-0.6-0.1-1l0,0
					c0-0.1,0-0.3,0-0.4c0,0,0,0,0,0c0-0.3-0.1-0.6-0.1-0.9h0c0-0.1,0-0.1,0-0.2c0-0.1,0-0.1,0-0.2c0,0,0,0,0-0.1h0
					c0-0.1,0-0.2-0.1-0.2c0.5,0,1,0,1.6,0c0.5,0,1.1,0,1.6,0c0,0.1,0,0.2-0.1,0.3c0,0,0,0,0,0c0,0.1,0,0.1,0,0.2c0,0.1,0,0.1,0,0.2
					h0c-0.1,0.3-0.1,0.6-0.1,0.9c0,0,0,0,0,0c0,0.1,0,0.3,0,0.4h0c0,0.3,0,0.6-0.1,0.9c0,0,0,0,0,0c0,0,0,0.1,0,0.1
					c0,0.1,0,0.2,0,0.3c0,0,0,0,0,0c0,0.2,0,0.4,0,0.6c0,0,0,0,0.1,0c0,0,0,0,0,0c0,0,0.1,0,0.2,0.1c0,0,0,0,0,0v0
					c0.5,0.2,1.7,0.5,3.2,0.5v0h0c0.8,0,1.4-0.1,2-0.2c0,0,0,0,0,0c0.1,0,0.1,0,0.1,0c0.1,0,0.2,0,0.3-0.1c0,0,0.1,0,0.1,0
					c0.1,0,0.2-0.1,0.3-0.1c0,0,0.1,0,0.1,0c0.1,0,0.1,0,0.2-0.1c0,0,0,0,0.1,0c0.1,0,0.1,0,0.2-0.1c0,0,0,0,0,0c0,0,0,0,0,0
					c0-0.2,0-0.4,0-0.6c0,0,0,0,0,0c0-0.1,0-0.2,0-0.3c0,0,0-0.1,0-0.1c0,0,0,0,0,0c0,0,0,0,0,0c0-0.3,0-0.6-0.1-1l0,0
					c0-0.1,0-0.3,0-0.4c0,0,0,0,0,0c0-0.3-0.1-0.6-0.1-0.9h0c0-0.1,0-0.1,0-0.2c0-0.1,0-0.1,0-0.2c0,0,0,0,0-0.1h0
					c-0.1-0.3-0.1-0.6-0.2-0.9c0,0,0,0,0.1,0c0.3-0.1,0.6-0.1,0.8-0.2c0.1,0,0.1,0,0.2,0c0.3-0.1,0.6-0.2,0.9-0.2c0,0,0.1,0,0.1,0
					c0.2-0.1,0.4-0.1,0.6-0.2c0.1,0,0.1,0,0.2-0.1c0.2-0.1,0.3-0.1,0.5-0.2c0,0,0,0,0.1,0c0.2-0.1,0.3-0.1,0.4-0.2c0,0,0,0,0.1,0
					c0.1,0,0.1-0.1,0.2-0.1c0,0,0,0,0,0c0,0,0.1,0,0.1,0l-0.5-1.3L24.7,66.6z"/>
				<path class="st8" d="M12.5,59.1h2.6C14.2,59.2,13.3,59.2,12.5,59.1 M24.4,66.3l-0.9-2.2l-0.7-1.9l-0.7-1.8l-0.7-1.9
					c-0.1,0-0.1,0-0.2,0v-3.1v-0.8v-1.2v-0.8V29.3v-0.7v-8.2h0C20.7,15.6,15.1,3,14.6,2.3c-0.1-0.1-0.1-0.2-0.2-0.2c0,0,0,0-0.1-0.1
					c0,0-0.1-0.1-0.1-0.1c0,0,0,0-0.1,0c0,0-0.1-0.1-0.1-0.1c0,0,0,0,0,0c0,0-0.1,0-0.1,0c0,0,0,0,0,0l0,0c-0.1,0-0.3-0.1-0.3,0
					c-0.2,0-0.6,0-1,0.6C12.1,3,6.5,15.6,6.1,20.5h0v8.2v0.7v23.4v0.8v1.2v0.8v3.1c0,0-0.1,0-0.1,0l-0.7,1.9l-0.7,1.7L3.8,64L3,66.1
					L2.2,68l-0.6,1.5c0,0,0,0,0.1,0c0,0,0,0,0,0c0,0,0.1,0,0.2,0.1c0,0,0,0,0.1,0c0.1,0,0.2,0.1,0.2,0.1c0,0,0.1,0,0.1,0
					c0.1,0,0.3,0.1,0.4,0.2c0,0,0,0,0,0v0c0.7,0.2,1.7,0.5,3.1,0.8c0,0,0,0,0,0h0c-0.1,0.3-0.1,0.6-0.2,0.9c0,0,0,0,0,0c0,0,0,0,0,0
					c0,0.1,0,0.1,0,0.2c0,0.1,0,0.2,0,0.2c0,0,0,0,0,0c-0.1,0.3-0.1,0.6-0.1,0.9c0,0,0,0,0,0c0,0.1,0,0.3,0,0.4h0
					c0,0.3,0,0.6-0.1,0.9c0,0,0,0,0,0c0,0,0,0.1,0,0.1c0,0.1,0,0.2,0,0.3c0,0,0,0,0,0c0,0.2,0,0.4,0,0.6c0,0,0,0,0.1,0c0,0,0,0,0,0
					c0,0,0.1,0,0.2,0.1c0,0,0,0,0,0v0C6.1,75.7,7.3,76,8.9,76v0h0c0.8,0,1.4-0.1,2-0.2c0,0,0,0,0,0c0.1,0,0.1,0,0.2,0
					c0.1,0,0.2,0,0.3-0.1c0.1,0,0.1,0,0.1,0c0.1,0,0.2-0.1,0.3-0.1c0,0,0.1,0,0.1,0c0.1,0,0.1,0,0.2-0.1c0,0,0,0,0.1,0
					c0.1,0,0.1,0,0.2-0.1c0,0,0,0,0,0c0,0,0,0,0,0c0-0.2,0-0.4,0-0.6c0,0,0,0,0,0c0-0.1,0-0.2,0-0.3c0,0,0-0.1,0-0.1c0,0,0,0,0,0
					l0,0c0-0.3,0-0.6-0.1-1h0c0-0.1,0-0.3,0-0.4c0,0,0,0,0,0c0-0.3-0.1-0.6-0.1-0.9c0,0,0,0,0,0c0-0.1,0-0.1,0-0.2
					c0-0.1,0-0.1,0-0.2c0,0,0,0,0-0.1h0c0-0.1,0-0.2-0.1-0.2c0.5,0,1,0,1.6,0c0.5,0,1.1,0,1.6,0c0,0.1,0,0.2-0.1,0.3l0,0
					c0,0,0,0,0,0c0,0.1,0,0.1,0,0.2c0,0.1,0,0.1,0,0.2c0,0,0,0,0,0C15,72.4,15,72.7,14.9,73c0,0,0,0,0,0c0,0.1,0,0.3,0,0.4
					c0,0.3,0,0.6-0.1,0.9h0c0,0,0,0,0,0c0,0,0,0.1,0,0.1c0,0.1,0,0.2,0,0.3c0,0,0,0,0,0c0,0.2,0,0.4,0,0.6c0,0,0,0,0.1,0
					c0,0,0,0,0,0c0,0,0.1,0,0.2,0.1c0,0,0,0,0,0v0c0.5,0.2,1.7,0.5,3.2,0.5v0h0c0.8,0,1.4-0.1,2-0.2c0,0,0,0,0,0c0.1,0,0.1,0,0.1,0
					c0.1,0,0.2,0,0.3-0.1c0,0,0.1,0,0.1,0c0.1,0,0.2-0.1,0.3-0.1c0,0,0.1,0,0.1,0c0.1,0,0.1,0,0.2-0.1c0,0,0,0,0.1,0
					c0.1,0,0.1,0,0.2-0.1c0,0,0,0,0,0c0,0,0,0,0,0c0-0.2,0-0.4,0-0.6c0,0,0,0,0,0c0-0.1,0-0.2,0-0.3c0,0,0-0.1,0-0.1c0,0,0,0,0,0
					l0,0c0-0.3,0-0.6-0.1-1h0c0-0.1,0-0.3,0-0.4c0,0,0,0,0,0c0-0.3-0.1-0.6-0.1-0.9c0,0,0,0,0,0c0-0.1,0-0.1,0-0.2
					c0-0.1,0-0.1,0-0.2c0,0,0,0,0-0.1h0c-0.1-0.3-0.1-0.6-0.2-0.9c0,0,0,0,0.1,0c0.3-0.1,0.6-0.1,0.8-0.2c0.1,0,0.1,0,0.2,0
					c0.3-0.1,0.6-0.2,0.9-0.2c0,0,0.1,0,0.1,0c0.2-0.1,0.4-0.1,0.6-0.2c0.1,0,0.1,0,0.2-0.1c0.2-0.1,0.3-0.1,0.5-0.2c0,0,0,0,0.1,0
					c0.2-0.1,0.3-0.1,0.4-0.2c0,0,0,0,0.1,0c0.1,0,0.1-0.1,0.2-0.1c0,0,0,0,0,0c0,0,0.1,0,0.1,0l-0.5-1.3L24.4,66.3z"/>
				<path class="st9" d="M12.2,58.8h2.6C13.9,58.8,13,58.8,12.2,58.8 M24,66l-0.9-2.2l-0.7-1.9l-0.7-1.8L21,58.2c-0.1,0-0.1,0-0.2,0
					v-3.1v-0.8v-1.2v-0.8V29v-0.7v-8.2h0c-0.4-4.8-6.1-17.4-6.6-18.2c-0.1-0.1-0.1-0.2-0.2-0.2c0,0,0,0-0.1-0.1c0,0-0.1-0.1-0.1-0.1
					c0,0,0,0-0.1,0c0,0-0.1-0.1-0.1-0.1c0,0,0,0,0,0c0,0-0.1,0-0.1,0c0,0,0,0,0,0c0,0,0,0,0,0c-0.1,0-0.3-0.1-0.3,0
					c-0.2,0-0.6,0-1,0.6c-0.5,0.8-6.1,13.4-6.6,18.2h0v8.2V29v23.4v0.8v1.2v0.8v3.1c0,0-0.1,0-0.1,0l-0.7,1.9l-0.7,1.7l-0.7,1.9
					l-0.8,2.2l-0.7,1.8l-0.6,1.5c0,0,0,0,0.1,0c0,0,0,0,0,0c0,0,0.1,0,0.2,0.1c0,0,0,0,0.1,0c0.1,0,0.2,0.1,0.2,0.1c0,0,0.1,0,0.1,0
					c0.1,0,0.3,0.1,0.4,0.2c0,0,0,0,0,0c0.7,0.2,1.7,0.5,3.1,0.8c0,0,0,0,0,0h0c-0.1,0.3-0.1,0.6-0.2,0.9h0c0,0,0,0,0,0
					c0,0.1,0,0.1,0,0.2c0,0.1,0,0.2,0,0.2c0,0,0,0,0,0c-0.1,0.3-0.1,0.6-0.1,0.9c0,0,0,0,0,0c0,0.1,0,0.3,0,0.4h0
					c0,0.3,0,0.6-0.1,0.9c0,0,0,0,0,0c0,0,0,0.1,0,0.1c0,0.1,0,0.2,0,0.3c0,0,0,0,0,0c0,0.2,0,0.4,0,0.6c0,0,0,0,0.1,0c0,0,0,0,0,0
					c0,0,0.1,0,0.2,0.1c0,0,0,0,0,0c0.5,0.2,1.7,0.5,3.2,0.5v0c0,0,0,0,0,0c0.8,0,1.4-0.1,2-0.2v0c0,0,0,0,0,0c0.1,0,0.1,0,0.2,0
					c0.1,0,0.2,0,0.3-0.1c0.1,0,0.1,0,0.1,0c0.1,0,0.2-0.1,0.3-0.1c0,0,0.1,0,0.1,0c0.1,0,0.1,0,0.2-0.1c0,0,0,0,0.1,0
					c0.1,0,0.1,0,0.2-0.1c0,0,0,0,0,0c0,0,0,0,0,0c0-0.2,0-0.4,0-0.6c0,0,0,0,0,0c0-0.1,0-0.2,0-0.3c0,0,0-0.1,0-0.1c0,0,0,0,0,0h0
					c0-0.3,0-0.6-0.1-1c0,0,0,0,0,0c0-0.1,0-0.3,0-0.4c0,0,0,0,0,0c0-0.3-0.1-0.6-0.1-0.9h0c0-0.1,0-0.1,0-0.2c0-0.1,0-0.1,0-0.2
					c0,0,0,0,0-0.1h0c0-0.1,0-0.2-0.1-0.2c0.5,0,1,0,1.6,0c0.5,0,1.1,0,1.6,0c0,0.1,0,0.2-0.1,0.3h0c0,0,0,0,0,0c0,0.1,0,0.1,0,0.2
					c0,0.1,0,0.1,0,0.2c0,0,0,0,0,0c-0.1,0.3-0.1,0.6-0.1,0.9c0,0,0,0,0,0c0,0.1,0,0.3,0,0.4h0c0,0.3,0,0.6-0.1,0.9c0,0,0,0,0,0
					c0,0,0,0.1,0,0.1c0,0.1,0,0.2,0,0.3c0,0,0,0,0,0c0,0.2,0,0.4,0,0.6c0,0,0,0,0.1,0c0,0,0,0,0,0c0,0,0.1,0,0.2,0.1c0,0,0,0,0,0
					c0.5,0.2,1.7,0.5,3.2,0.5v0c0,0,0,0,0,0c0.8,0,1.4-0.1,2-0.2v0c0,0,0,0,0,0c0.1,0,0.1,0,0.1,0c0.1,0,0.2,0,0.3-0.1
					c0,0,0.1,0,0.1,0c0.1,0,0.2-0.1,0.3-0.1c0,0,0.1,0,0.1,0c0.1,0,0.1,0,0.2-0.1c0,0,0,0,0.1,0c0.1,0,0.1,0,0.2-0.1c0,0,0,0,0,0
					c0,0,0,0,0,0c0-0.2,0-0.4,0-0.6c0,0,0,0,0,0c0-0.1,0-0.2,0-0.3c0,0,0-0.1,0-0.1c0,0,0,0,0,0h0c0-0.3,0-0.6-0.1-1h0
					c0-0.1,0-0.3,0-0.4c0,0,0,0,0,0c0-0.3-0.1-0.6-0.1-0.9h0c0-0.1,0-0.1,0-0.2c0-0.1,0-0.1,0-0.2c0,0,0,0,0-0.1h0
					c-0.1-0.3-0.1-0.6-0.2-0.9c0,0,0,0,0.1,0c0.3-0.1,0.6-0.1,0.8-0.2c0.1,0,0.1,0,0.2,0c0.3-0.1,0.6-0.2,0.9-0.2c0,0,0.1,0,0.1,0
					c0.2-0.1,0.4-0.1,0.6-0.2c0.1,0,0.1,0,0.2-0.1c0.2-0.1,0.3-0.1,0.5-0.2c0,0,0,0,0.1,0c0.2-0.1,0.3-0.1,0.4-0.2c0,0,0,0,0.1,0
					c0.1,0,0.1-0.1,0.2-0.1c0,0,0,0,0,0c0,0,0.1,0,0.1,0l-0.5-1.3L24,66z"/>
				<path class="st10" d="M11.8,58.5h2.6C13.5,58.5,12.7,58.5,11.8,58.5 M23.7,65.7l-0.9-2.2l-0.7-1.9l-0.7-1.8l-0.7-1.9
					c-0.1,0-0.1,0-0.2,0v-3.1v-0.8v-1.2v-0.8V28.7V28v-8.2h0C20.1,15,14.4,2.4,13.9,1.6c-0.1-0.1-0.1-0.2-0.2-0.2c0,0,0,0-0.1-0.1
					c0,0-0.1-0.1-0.1-0.1c0,0,0,0-0.1,0c0,0-0.1-0.1-0.1-0.1c0,0,0,0,0,0c0,0-0.1,0-0.1,0c0,0,0,0,0,0c0,0,0,0,0,0C13.1,1,13,1,13,1
					c-0.2,0-0.6,0-1,0.6C11.5,2.4,5.8,15,5.4,19.8h0V28v0.7v23.4v0.8v1.2v0.8v3.1c0,0-0.1,0-0.1,0l-0.7,1.9l-0.7,1.7l-0.7,1.9
					l-0.8,2.2l-0.7,1.8L1,68.8c0,0,0,0,0.1,0c0,0,0,0,0,0c0,0,0.1,0,0.2,0.1c0,0,0,0,0.1,0c0.1,0,0.2,0.1,0.2,0.1c0,0,0.1,0,0.1,0
					c0.1,0,0.3,0.1,0.4,0.2c0,0,0,0,0,0c0.7,0.2,1.7,0.5,3.1,0.8c0,0,0,0,0,0c0,0,0,0,0,0C5.1,70.4,5,70.7,5,71h0c0,0,0,0,0,0
					c0,0,0,0.1,0,0.2c0,0.1,0,0.2,0,0.2c0,0,0,0,0,0c-0.1,0.3-0.1,0.6-0.1,0.9c0,0,0,0,0,0c0,0.1,0,0.3,0,0.4h0c0,0.3,0,0.6-0.1,0.9
					h0c0,0,0,0,0,0c0,0,0,0.1,0,0.1c0,0.1,0,0.2,0,0.3c0,0,0,0,0,0c0,0.2,0,0.4,0,0.6c0,0,0,0,0.1,0c0,0,0,0,0,0c0,0,0.1,0,0.2,0.1
					c0,0,0,0,0,0v0c0.5,0.2,1.7,0.5,3.2,0.5c0,0,0,0,0,0c0.8,0,1.4-0.1,2-0.2c0,0,0,0,0,0c0.1,0,0.1,0,0.2,0c0.1,0,0.2,0,0.3-0.1
					c0.1,0,0.1,0,0.1,0c0.1,0,0.2-0.1,0.3-0.1c0,0,0.1,0,0.1,0c0.1,0,0.1,0,0.2-0.1c0,0,0,0,0.1,0c0.1,0,0.1,0,0.2-0.1c0,0,0,0,0,0
					c0,0,0,0,0,0c0-0.2,0-0.4,0-0.6c0,0,0,0,0,0c0-0.1,0-0.2,0-0.3c0,0,0-0.1,0-0.1c0,0,0,0,0,0h0c0-0.3,0-0.6-0.1-1h0
					c0-0.1,0-0.3,0-0.4c0,0,0,0,0,0c0-0.3-0.1-0.6-0.1-0.9c0,0,0,0,0,0c0-0.1,0-0.1,0-0.2c0-0.1,0-0.1,0-0.2c0,0,0,0,0-0.1l0,0
					c0-0.1,0-0.2-0.1-0.2c0.5,0,1,0,1.6,0c0.5,0,1.1,0,1.6,0c0,0.1,0,0.2-0.1,0.3h0c0,0,0,0,0,0c0,0.1,0,0.1,0,0.2
					c0,0.1,0,0.1,0,0.2c0,0,0,0,0,0c-0.1,0.3-0.1,0.6-0.1,0.9c0,0,0,0,0,0c0,0.1,0,0.3,0,0.4h0c0,0.3,0,0.6-0.1,0.9c0,0,0,0,0,0
					c0,0,0,0.1,0,0.1c0,0.1,0,0.2,0,0.3c0,0,0,0,0,0c0,0.2,0,0.4,0,0.6c0,0,0,0,0.1,0c0,0,0,0,0,0c0,0,0.1,0,0.2,0.1c0,0,0,0,0,0v0
					c0.5,0.2,1.7,0.5,3.2,0.5c0,0,0,0,0,0c0.8,0,1.4-0.1,2-0.2h0c0,0,0,0,0,0c0.1,0,0.1,0,0.1,0c0.1,0,0.2,0,0.3-0.1
					c0,0,0.1,0,0.1,0c0.1,0,0.2-0.1,0.3-0.1c0,0,0.1,0,0.1,0c0.1,0,0.1,0,0.2-0.1c0,0,0,0,0.1,0c0.1,0,0.1,0,0.2-0.1c0,0,0,0,0,0
					c0,0,0,0,0,0c0-0.2,0-0.4,0-0.6c0,0,0,0,0,0c0-0.1,0-0.2,0-0.3c0,0,0-0.1,0-0.1c0,0,0,0,0,0h0c0-0.3,0-0.6-0.1-1h0
					c0-0.1,0-0.3,0-0.4c0,0,0,0,0,0c0-0.3-0.1-0.6-0.1-0.9c0,0,0,0,0,0c0-0.1,0-0.1,0-0.2c0-0.1,0-0.1,0-0.2c0,0,0,0,0-0.1
					c0,0,0,0,0,0c-0.1-0.3-0.1-0.6-0.2-0.9c0,0,0,0,0.1,0c0.3-0.1,0.6-0.1,0.8-0.2c0.1,0,0.1,0,0.2,0c0.3-0.1,0.6-0.2,0.9-0.2
					c0,0,0.1,0,0.1,0c0.2-0.1,0.4-0.1,0.6-0.2c0.1,0,0.1,0,0.2-0.1c0.2-0.1,0.3-0.1,0.5-0.2c0,0,0,0,0.1,0c0.2-0.1,0.3-0.1,0.4-0.2
					c0,0,0,0,0.1,0c0.1,0,0.1-0.1,0.2-0.1c0,0,0,0,0,0c0,0,0.1,0,0.1,0l-0.5-1.3L23.7,65.7z"/>
				<path class="st11" d="M11.5,58.2h2.6C13.2,58.2,12.3,58.2,11.5,58.2 M23.4,65.3l-0.9-2.2l-0.7-1.9l-0.7-1.8l-0.7-1.9
					c-0.1,0-0.1,0-0.2,0v-3.1v-0.8v-1.2v-0.8V28.4v-0.7v-8.2h0c-0.4-4.8-6.1-17.4-6.6-18.2c-0.1-0.1-0.1-0.2-0.2-0.2
					c0,0,0,0-0.1-0.1c0,0-0.1-0.1-0.1-0.1c0,0,0,0-0.1,0c0,0-0.1-0.1-0.1-0.1c0,0,0,0,0,0c0,0-0.1,0-0.1,0c0,0,0,0,0,0c0,0,0,0,0,0
					c-0.1,0-0.3-0.1-0.3,0c-0.2,0-0.6,0-1,0.6c-0.5,0.8-6.1,13.4-6.6,18.2h0v8.2v0.7v23.4v0.8v1.2v0.8v3.1c0,0-0.1,0-0.1,0l-0.7,1.9
					l-0.7,1.7L2.8,63L2,65.1L1.3,67l-0.6,1.5c0,0,0,0,0.1,0c0,0,0,0,0,0c0,0,0.1,0,0.2,0.1c0,0,0,0,0.1,0c0.1,0,0.2,0.1,0.2,0.1
					c0,0,0.1,0,0.1,0c0.1,0,0.3,0.1,0.4,0.2c0,0,0,0,0,0c0.7,0.2,1.7,0.5,3.1,0.8c0,0,0,0,0,0h0c-0.1,0.3-0.1,0.6-0.2,0.9h0
					c0,0,0,0,0,0c0,0.1,0,0.1,0,0.2c0,0.1,0,0.2,0,0.2c0,0,0,0,0,0c-0.1,0.3-0.1,0.6-0.1,0.9c0,0,0,0,0,0c0,0.1,0,0.3,0,0.4h0
					c0,0.3,0,0.6-0.1,0.9c0,0,0,0,0,0c0,0,0,0.1,0,0.1c0,0.1,0,0.2,0,0.3c0,0,0,0,0,0c0,0.2,0,0.4,0,0.6c0,0,0,0,0.1,0c0,0,0,0,0,0
					c0,0,0.1,0,0.2,0.1c0,0,0,0,0,0C5.2,74.7,6.3,75,7.9,75v0h0c0.8,0,1.4-0.1,2-0.2v0c0,0,0,0,0,0c0.1,0,0.1,0,0.2,0
					c0.1,0,0.2,0,0.3-0.1c0.1,0,0.1,0,0.1,0c0.1,0,0.2-0.1,0.3-0.1c0,0,0.1,0,0.1,0c0.1,0,0.1,0,0.2-0.1c0,0,0,0,0.1,0
					c0.1,0,0.1,0,0.2-0.1c0,0,0,0,0,0c0,0,0,0,0,0c0-0.2,0-0.4,0-0.6c0,0,0,0,0,0c0-0.1,0-0.2,0-0.3c0,0,0-0.1,0-0.1c0,0,0,0,0,0h0
					c0-0.3,0-0.6-0.1-1h0c0-0.1,0-0.3,0-0.4c0,0,0,0,0,0c0-0.3-0.1-0.6-0.1-0.9c0,0,0,0,0,0c0-0.1,0-0.1,0-0.2c0-0.1,0-0.1,0-0.2
					c0,0,0,0,0-0.1c0,0,0,0,0,0c0-0.1,0-0.2-0.1-0.2c0.5,0,1,0,1.6,0c0.5,0,1.1,0,1.6,0c0,0.1,0,0.2-0.1,0.3h0c0,0,0,0,0,0
					c0,0.1,0,0.1,0,0.2c0,0.1,0,0.1,0,0.2c0,0,0,0,0,0C14,71.4,14,71.7,14,72.1c0,0,0,0,0,0c0,0.1,0,0.3,0,0.4c0,0.3,0,0.6-0.1,0.9
					h0c0,0,0,0,0,0c0,0,0,0.1,0,0.1c0,0.1,0,0.2,0,0.3c0,0,0,0,0,0c0,0.2,0,0.4,0,0.6c0,0,0,0,0.1,0c0,0,0,0,0,0c0,0,0.1,0,0.2,0.1
					c0,0,0,0,0,0c0.5,0.2,1.7,0.5,3.2,0.5v0h0c0.8,0,1.4-0.1,2-0.2v0c0,0,0,0,0,0c0.1,0,0.1,0,0.1,0c0.1,0,0.2,0,0.3-0.1
					c0,0,0.1,0,0.1,0c0.1,0,0.2-0.1,0.3-0.1c0,0,0.1,0,0.1,0c0.1,0,0.1,0,0.2-0.1c0,0,0,0,0.1,0c0.1,0,0.1,0,0.2-0.1c0,0,0,0,0,0
					c0,0,0,0,0,0c0-0.2,0-0.4,0-0.6c0,0,0,0,0,0c0-0.1,0-0.2,0-0.3c0,0,0-0.1,0-0.1c0,0,0,0,0,0h0c0-0.3,0-0.6-0.1-1h0
					c0-0.1,0-0.3,0-0.4c0,0,0,0,0,0c0-0.3-0.1-0.6-0.1-0.9c0,0,0,0,0,0c0-0.1,0-0.1,0-0.2c0-0.1,0-0.1,0-0.2c0,0,0,0,0-0.1l0,0
					c-0.1-0.3-0.1-0.6-0.2-0.9c0,0,0,0,0.1,0c0.3-0.1,0.6-0.1,0.8-0.2c0.1,0,0.1,0,0.2,0c0.3-0.1,0.6-0.2,0.9-0.2c0,0,0.1,0,0.1,0
					c0.2-0.1,0.4-0.1,0.6-0.2c0.1,0,0.1,0,0.2-0.1c0.2-0.1,0.3-0.1,0.5-0.2c0,0,0,0,0.1,0c0.2-0.1,0.3-0.1,0.4-0.2c0,0,0,0,0.1,0
					c0.1,0,0.1-0.1,0.2-0.1c0,0,0,0,0,0c0,0,0.1,0,0.1,0l-0.5-1.3L23.4,65.3z"/>
				<path class="st12" d="M11.2,57.8h2.6C12.9,57.9,12,57.9,11.2,57.8 M23.1,65l-0.9-2.2L21.5,61l-0.7-1.8L20,57.3
					c-0.1,0-0.1,0-0.2,0v-3.1v-0.8v-1.2v-0.8V28v-0.7v-8.2h0C19.4,14.3,13.8,1.7,13.3,1c-0.1-0.1-0.1-0.2-0.2-0.2c0,0,0,0-0.1-0.1
					c0,0-0.1-0.1-0.1-0.1c0,0,0,0-0.1,0c0,0-0.1-0.1-0.1-0.1c0,0,0,0,0,0c0,0-0.1,0-0.1,0c0,0,0,0,0,0l0,0c-0.1,0-0.3-0.1-0.3,0
					c-0.2,0-0.6,0-1,0.6c-0.5,0.8-6.1,13.4-6.6,18.2h0v8.2V28v23.4v0.8v1.2v0.8v3.1c0,0-0.1,0-0.1,0l-0.7,1.9l-0.7,1.7l-0.7,1.9
					l-0.8,2.2l-0.7,1.8l-0.6,1.5c0,0,0,0,0.1,0c0,0,0,0,0,0c0,0,0.1,0,0.2,0.1c0,0,0,0,0.1,0c0.1,0,0.2,0.1,0.2,0.1c0,0,0.1,0,0.1,0
					c0.1,0,0.3,0.1,0.4,0.2c0,0,0,0,0,0c0.7,0.2,1.7,0.5,3.1,0.8c0,0,0,0,0,0c0,0,0,0,0,0c-0.1,0.3-0.1,0.6-0.2,0.9h0c0,0,0,0,0,0
					c0,0.1,0,0.1,0,0.2c0,0.1,0,0.2,0,0.2c0,0,0,0,0,0c-0.1,0.3-0.1,0.6-0.1,0.9c0,0,0,0,0,0c0,0.1,0,0.3,0,0.4h0
					c0,0.3,0,0.6-0.1,0.9h0c0,0,0,0,0,0c0,0,0,0.1,0,0.1c0,0.1,0,0.2,0,0.3c0,0,0,0,0,0c0,0.2,0,0.4,0,0.6c0,0,0,0,0.1,0
					c0,0,0,0,0,0c0,0,0.1,0,0.2,0.1c0,0,0,0,0,0v0c0.5,0.2,1.7,0.5,3.2,0.5v0c0,0,0,0,0,0c0.8,0,1.4-0.1,2-0.2v0c0,0,0,0,0,0
					c0.1,0,0.1,0,0.2,0c0.1,0,0.2,0,0.3-0.1c0.1,0,0.1,0,0.1,0c0.1,0,0.2-0.1,0.3-0.1c0,0,0.1,0,0.1,0c0.1,0,0.1,0,0.2-0.1
					c0,0,0,0,0.1,0c0.1,0,0.1,0,0.2-0.1c0,0,0,0,0,0c0,0,0,0,0,0c0-0.2,0-0.4,0-0.6c0,0,0,0,0,0c0-0.1,0-0.2,0-0.3c0,0,0-0.1,0-0.1
					c0,0,0,0,0,0h0c0-0.3,0-0.6-0.1-1h0c0-0.1,0-0.3,0-0.4c0,0,0,0,0,0c0-0.3-0.1-0.6-0.1-0.9c0,0,0,0,0,0c0-0.1,0-0.1,0-0.2
					c0-0.1,0-0.1,0-0.2c0,0,0,0,0-0.1h0c0-0.1,0-0.2-0.1-0.2c0.5,0,1,0,1.6,0c0.5,0,1.1,0,1.6,0c0,0.1,0,0.2-0.1,0.3h0c0,0,0,0,0,0
					c0,0.1,0,0.1,0,0.2c0,0.1,0,0.1,0,0.2c0,0,0,0,0,0c-0.1,0.3-0.1,0.6-0.1,0.9c0,0,0,0,0,0c0,0.1,0,0.3,0,0.4h0
					c0,0.3,0,0.6-0.1,0.9c0,0,0,0,0,0c0,0,0,0.1,0,0.1c0,0.1,0,0.2,0,0.3c0,0,0,0,0,0c0,0.2,0,0.4,0,0.6c0,0,0,0,0.1,0c0,0,0,0,0,0
					c0,0,0.1,0,0.2,0.1c0,0,0,0,0,0c0.5,0.2,1.7,0.5,3.2,0.5v0c0,0,0,0,0,0c0.8,0,1.4-0.1,2-0.2v0c0,0,0,0,0,0c0.1,0,0.1,0,0.1,0
					c0.1,0,0.2,0,0.3-0.1c0,0,0.1,0,0.1,0c0.1,0,0.2-0.1,0.3-0.1c0,0,0.1,0,0.1,0c0.1,0,0.1,0,0.2-0.1c0,0,0,0,0.1,0
					c0.1,0,0.1,0,0.2-0.1c0,0,0,0,0,0c0,0,0,0,0,0c0-0.2,0-0.4,0-0.6c0,0,0,0,0,0c0-0.1,0-0.2,0-0.3c0,0,0-0.1,0-0.1c0,0,0,0,0,0h0
					c0-0.3,0-0.6-0.1-1c0,0,0,0,0,0c0-0.1,0-0.3,0-0.4c0,0,0,0,0,0c0-0.3-0.1-0.6-0.1-0.9c0,0,0,0,0,0c0-0.1,0-0.1,0-0.2
					c0-0.1,0-0.1,0-0.2c0,0,0,0,0-0.1h0c-0.1-0.3-0.1-0.6-0.2-0.9c0,0,0,0,0.1,0c0.3-0.1,0.6-0.1,0.8-0.2c0.1,0,0.1,0,0.2,0
					c0.3-0.1,0.6-0.2,0.9-0.2c0,0,0.1,0,0.1,0c0.2-0.1,0.4-0.1,0.6-0.2c0.1,0,0.1,0,0.2-0.1c0.2-0.1,0.3-0.1,0.5-0.2c0,0,0,0,0.1,0
					c0.2-0.1,0.3-0.1,0.4-0.2c0,0,0,0,0.1,0c0.1,0,0.1-0.1,0.2-0.1c0,0,0,0,0,0c0,0,0.1,0,0.1,0l-0.5-1.3L23.1,65z"/>
				<path class="st13" d="M10.9,57.5h2.6C12.6,57.5,11.7,57.5,10.9,57.5 M22.7,64.7l-0.9-2.2l-0.7-1.9l-0.7-1.8l-0.7-1.9
					c-0.1,0-0.1,0-0.2,0v-3.1v-0.8v-1.2v-0.8V27.7V27v-8.2h0C19.1,14,13.4,1.4,13,0.6c-0.1-0.1-0.1-0.2-0.2-0.2c0,0,0,0-0.1-0.1
					c0,0-0.1-0.1-0.1-0.1c0,0,0,0-0.1,0c0,0-0.1-0.1-0.1-0.1c0,0,0,0,0,0c0,0-0.1,0-0.1,0c0,0,0,0,0,0c0,0,0,0,0,0C12.2,0,12,0,12,0
					c-0.2,0-0.6,0-1,0.6C10.5,1.4,4.9,14,4.4,18.8h0V27v0.7v23.4v0.8v1.2v0.8v3.1c0,0-0.1,0-0.1,0l-0.7,1.9l-0.7,1.7l-0.7,1.9
					l-0.8,2.2l-0.7,1.8L0,67.9c0,0,0,0,0.1,0c0,0,0,0,0,0c0,0,0.1,0,0.2,0.1c0,0,0,0,0.1,0c0.1,0,0.2,0.1,0.2,0.1c0,0,0.1,0,0.1,0
					c0.1,0,0.3,0.1,0.4,0.1c0,0,0,0,0,0c0.7,0.2,1.7,0.5,3.1,0.8c0,0,0,0,0,0h0C4.1,69.4,4.1,69.7,4,70h0c0,0,0,0,0,0
					c0,0,0,0.1,0,0.2c0,0.1,0,0.2,0,0.2c0,0,0,0,0,0c-0.1,0.3-0.1,0.6-0.1,0.9c0,0,0,0,0,0c0,0.1,0,0.3,0,0.4c0,0.3,0,0.6-0.1,0.9
					l0,0c0,0,0,0,0,0c0,0,0,0.1,0,0.1c0,0.1,0,0.2,0,0.3c0,0,0,0,0,0c0,0.2,0,0.4,0,0.6c0,0,0,0,0.1,0c0,0,0,0,0,0
					c0,0,0.1,0,0.2,0.1c0,0,0,0,0,0v0c0.5,0.2,1.7,0.5,3.2,0.5h0c0.8,0,1.4-0.1,2-0.2v0c0,0,0,0,0,0c0.1,0,0.1,0,0.2,0
					c0.1,0,0.2,0,0.3-0.1c0.1,0,0.1,0,0.1,0c0.1,0,0.2-0.1,0.3-0.1c0,0,0.1,0,0.1,0c0.1,0,0.1,0,0.2-0.1c0,0,0,0,0.1,0
					c0.1,0,0.1,0,0.2-0.1c0,0,0,0,0,0c0,0,0,0,0,0c0-0.2,0-0.4,0-0.6c0,0,0,0,0,0c0-0.1,0-0.2,0-0.3c0,0,0-0.1,0-0.1c0,0,0,0,0,0
					l0,0c0-0.3,0-0.6-0.1-1c0,0,0,0,0,0c0-0.1,0-0.3,0-0.4c0,0,0,0,0,0c0-0.3-0.1-0.6-0.1-0.9c0,0,0,0,0,0c0-0.1,0-0.1,0-0.2
					c0-0.1,0-0.1,0-0.2c0,0,0,0,0-0.1h0c0-0.1,0-0.2-0.1-0.2c0.5,0,1,0,1.6,0c0.5,0,1.1,0,1.6,0c0,0.1,0,0.2-0.1,0.3c0,0,0,0,0,0
					c0,0.1,0,0.1,0,0.2c0,0.1,0,0.1,0,0.2c0,0,0,0,0,0c-0.1,0.3-0.1,0.6-0.1,0.9c0,0,0,0,0,0c0,0.1,0,0.3,0,0.4h0
					c0,0.3,0,0.6-0.1,0.9c0,0,0,0,0,0c0,0,0,0,0,0c0,0,0,0.1,0,0.1c0,0.1,0,0.2,0,0.3c0,0,0,0,0,0c0,0.2,0,0.4,0,0.6c0,0,0,0,0.1,0
					c0,0,0,0,0,0c0,0,0.1,0,0.2,0.1c0,0,0,0,0,0v0c0.5,0.2,1.7,0.5,3.2,0.5h0c0.8,0,1.4-0.1,2-0.2v0c0,0,0,0,0,0c0.1,0,0.1,0,0.1,0
					c0.1,0,0.2,0,0.3-0.1c0,0,0.1,0,0.1,0c0.1,0,0.2-0.1,0.3-0.1c0,0,0.1,0,0.1,0c0.1,0,0.1,0,0.2-0.1c0,0,0,0,0.1,0
					c0.1,0,0.1,0,0.2-0.1c0,0,0,0,0,0c0,0,0,0,0,0c0-0.2,0-0.4,0-0.6c0,0,0,0,0,0c0-0.1,0-0.2,0-0.3c0,0,0-0.1,0-0.1c0,0,0,0,0,0
					c0,0,0,0,0,0c0-0.3,0-0.6-0.1-1l0,0c0-0.1,0-0.3,0-0.4c0,0,0,0,0,0c0-0.3-0.1-0.6-0.1-0.9c0,0,0,0,0,0c0-0.1,0-0.1,0-0.2
					c0-0.1,0-0.1,0-0.2c0,0,0,0,0-0.1h0c-0.1-0.3-0.1-0.6-0.2-0.9c0,0,0,0,0.1,0c0.3-0.1,0.6-0.1,0.8-0.2c0.1,0,0.1,0,0.2,0
					c0.3-0.1,0.6-0.2,0.9-0.2c0,0,0.1,0,0.1,0c0.2-0.1,0.4-0.1,0.6-0.2c0.1,0,0.1,0,0.2-0.1c0.2-0.1,0.3-0.1,0.5-0.2c0,0,0,0,0.1,0
					c0.2-0.1,0.3-0.1,0.4-0.2c0,0,0,0,0.1,0c0.1,0,0.1-0.1,0.2-0.1c0,0,0,0,0,0c0,0,0.1,0,0.1,0l-0.5-1.3L22.7,64.7z"/>
			</g>
		</g>
	</g>
	<rect x="4.4" y="18.8" class="st14" width="15.1" height="38.7"/>
	<g class="st0">
		<defs>
			<rect id="SVGID_7_" y="0" width="27.6" height="78"/>
		</defs>
		<clipPath id="SVGID_8_">
			<use xlink:href="#SVGID_7_"  style="overflow:visible;"/>
		</clipPath>
		<path class="st15" d="M13,0.6C12.6,0,12.1,0,12,0c-0.2,0-0.6,0-1,0.6C10.5,1.4,4.8,14.2,4.4,19h7.1h1h7.1
			C19.2,14.2,13.4,1.4,13,0.6"/>
		<g class="st16">
			<g>
				<defs>
					<rect id="SVGID_9_" x="12.3" y="0" width="7.2" height="18.9"/>
				</defs>
				<clipPath id="SVGID_10_">
					<use xlink:href="#SVGID_9_"  style="overflow:visible;"/>
				</clipPath>
				<path class="st17" d="M16.6,19h3C19.2,14.2,13.4,1.4,13,0.6c-0.2-0.4-0.5-0.5-0.7-0.6C12.7,1,15.8,15.6,16.6,19"/>
			</g>
		</g>
		<g class="st18">
			<g>
				<defs>
					<rect id="SVGID_11_" x="5.5" y="1" width="6" height="17.4"/>
				</defs>
				<clipPath id="SVGID_12_">
					<use xlink:href="#SVGID_11_"  style="overflow:visible;"/>
				</clipPath>
				<path class="st19" d="M10,11.3c0.2-1.9,0.5-3.8,0.8-5.7c0.2-1,0.3-2.1,0.4-3.1c0.1-0.4,0.2-0.9,0.2-1.3c0-0.1,0-0.1,0-0.1
					S7,11.3,5.5,17.2c0,0-0.5,1.3,0.8,1.2h2.7C9.4,16.1,9.7,13.7,10,11.3"/>
			</g>
		</g>
		<path class="st20" d="M13.1,19.5H6.5c0,0-1.1-0.1-1,1.3v34c0,0-0.1,1.2,1.2,1.6l5.6,0.2c0,0,1.6,0,1.6-1.5V20.5
			C13.9,20.5,13.9,19.5,13.1,19.5"/>
		<rect x="4.4" y="27" class="st21" width="15.1" height="0.7"/>
		<rect x="4.4" y="51.1" class="st21" width="15.1" height="0.8"/>
		<rect x="4.4" y="53.1" class="st21" width="15.1" height="0.8"/>
		<g class="st16">
			<g>
				<defs>
					<rect id="SVGID_13_" x="16.3" y="18.8" width="3.2" height="38.7"/>
				</defs>
				<clipPath id="SVGID_14_">
					<use xlink:href="#SVGID_13_"  style="overflow:visible;"/>
				</clipPath>
				<rect x="16.3" y="18.8" class="st22" width="3.2" height="38.7"/>
			</g>
		</g>
		<rect x="17.8" y="55.9" class="st21" width="0.8" height="0.8"/>
		<rect x="16.8" y="55.9" class="st21" width="0.8" height="0.8"/>
		<rect x="15.8" y="55.9" class="st21" width="0.8" height="0.8"/>
		<rect x="14.9" y="55.9" class="st21" width="0.8" height="0.8"/>
	</g>
	<g class="st0">
		<defs>
			<path id="SVGID_15_" d="M15.5,64.9c0,0-2.4,3.6-2.3,8.9c0,0,1.4,0.6,3.6,0.6c2.1,0,3.6-0.6,3.6-0.6c0.1-5.4-2.3-8.9-2.3-8.9H15.5
				z"/>
		</defs>
		<clipPath id="SVGID_16_">
			<use xlink:href="#SVGID_15_"  style="overflow:visible;"/>
		</clipPath>
		
			<radialGradient id="SVGID_17_" cx="0" cy="77.9891" r="1" gradientTransform="matrix(15.1823 0 0 -15.1823 9.599 1254.2035)" gradientUnits="userSpaceOnUse">
			<stop  offset="0" style="stop-color:#21687E"/>
			<stop  offset="0.1486" style="stop-color:#21687E"/>
			<stop  offset="0.491" style="stop-color:#023F5F"/>
			<stop  offset="0.4927" style="stop-color:#023F5F"/>
			<stop  offset="0.9801" style="stop-color:#000000"/>
			<stop  offset="1" style="stop-color:#000000"/>
		</radialGradient>
		<rect x="13" y="64.9" class="st23" width="7.4" height="9.5"/>
	</g>
	<g class="st0">
		<defs>
			<path id="SVGID_18_" d="M15.5,64.9c0,0-0.6,0.9-1.2,2.5c1.1,0.2,2.8,0.3,5-0.1c-0.6-1.6-1.2-2.5-1.2-2.5H15.5z"/>
		</defs>
		<clipPath id="SVGID_19_">
			<use xlink:href="#SVGID_18_"  style="overflow:visible;"/>
		</clipPath>
		
			<linearGradient id="SVGID_20_" gradientUnits="userSpaceOnUse" x1="0" y1="77.9975" x2="1" y2="77.9975" gradientTransform="matrix(1.8049 15.0569 15.0569 -1.8049 -1158.1361 203.1013)">
			<stop  offset="0" style="stop-color:#E5E0DF"/>
			<stop  offset="0.4575" style="stop-color:#E5E0DF"/>
			<stop  offset="1" style="stop-color:#8CA99C"/>
		</linearGradient>
		<polygon class="st24" points="19.2,64.3 19.6,67.7 14.3,68.3 13.9,64.9 		"/>
	</g>
	<g class="st0">
		<defs>
			<rect id="SVGID_21_" y="0" width="27.6" height="78"/>
		</defs>
		<clipPath id="SVGID_22_">
			<use xlink:href="#SVGID_21_"  style="overflow:visible;"/>
		</clipPath>
		<path class="st25" d="M13.2,72.8c0,0.1,0,0.3,0,0.4c0.6,0.2,1.7,0.4,3.3,0.4c1.1,0,2.4-0.1,3.8-0.5c0-0.1,0-0.3,0-0.4
			C16.6,73.7,14,73,13.2,72.8"/>
		<path class="st25" d="M13.3,71.4c0,0.1,0,0.3,0,0.4c0.6,0.2,1.7,0.4,3.2,0.4c1.1,0,2.3-0.1,3.8-0.5c0-0.1,0-0.3,0-0.4
			C16.7,72.2,14.2,71.7,13.3,71.4"/>
		<path class="st25" d="M19.8,69.1c0-0.1-0.1-0.3-0.1-0.4c-2.7,0.6-4.7,0.3-5.9,0.1c0,0.1-0.1,0.3-0.1,0.4c0.6,0.2,1.6,0.3,2.8,0.3
			C17.4,69.4,18.5,69.3,19.8,69.1"/>
		<path class="st25" d="M13.5,70c0,0.1-0.1,0.3-0.1,0.4c0.6,0.2,1.7,0.4,3.1,0.4c1,0,2.2-0.1,3.6-0.4c0-0.1-0.1-0.3-0.1-0.4
			C16.8,70.7,14.5,70.3,13.5,70"/>
		<path class="st25" d="M19.4,67.8c0-0.1-0.1-0.3-0.1-0.4c-2.2,0.4-3.9,0.3-5,0.1c0,0.1-0.1,0.3-0.1,0.4c0.6,0.1,1.4,0.2,2.4,0.2
			C17.3,68,18.3,68,19.4,67.8"/>
		<g class="st26">
			<g>
				<defs>
					<rect id="SVGID_23_" x="13.2" y="64.9" width="7.2" height="9.5"/>
				</defs>
				<clipPath id="SVGID_24_">
					<use xlink:href="#SVGID_23_"  style="overflow:visible;"/>
				</clipPath>
				<path class="st27" d="M18,64.9h-2.6c0,0-2.4,3.6-2.3,8.9c0,0,0.1,0,0.3,0.1c-0.1-1.2,0.2-2.5,0.4-3.7c0.1-0.8,0.5-2.7,1.7-2.6
					c1.3,0.1,1,5.6,1.1,6.8h0c2.1,0,3.6-0.6,3.6-0.6C20.5,68.4,18,64.9,18,64.9"/>
			</g>
		</g>
		<g class="st26">
			<g>
				<defs>
					<rect id="SVGID_25_" x="16.7" y="64.9" width="3.6" height="9.3"/>
				</defs>
				<clipPath id="SVGID_26_">
					<use xlink:href="#SVGID_25_"  style="overflow:visible;"/>
				</clipPath>
				<path class="st28" d="M18,64.9h-1.3c1.4,2.9,1.9,6.2,2,9.3c1-0.2,1.6-0.4,1.6-0.4C20.5,68.4,18,64.9,18,64.9"/>
			</g>
		</g>
	</g>
	<g class="st0">
		<defs>
			<path id="SVGID_27_" d="M6,64.9c0,0-2.4,3.6-2.3,8.9c0,0,1.4,0.6,3.6,0.6c2.1,0,3.6-0.6,3.6-0.6c0.1-5.4-2.3-8.9-2.3-8.9H6z"/>
		</defs>
		<clipPath id="SVGID_28_">
			<use xlink:href="#SVGID_27_"  style="overflow:visible;"/>
		</clipPath>
		
			<radialGradient id="SVGID_29_" cx="0" cy="77.9891" r="1" gradientTransform="matrix(15.1873 0 0 -15.1873 9.5955 1254.5873)" gradientUnits="userSpaceOnUse">
			<stop  offset="0" style="stop-color:#21687E"/>
			<stop  offset="0.1486" style="stop-color:#21687E"/>
			<stop  offset="0.491" style="stop-color:#023F5F"/>
			<stop  offset="0.4927" style="stop-color:#023F5F"/>
			<stop  offset="0.9801" style="stop-color:#000000"/>
			<stop  offset="1" style="stop-color:#000000"/>
		</radialGradient>
		<rect x="3.6" y="64.9" class="st29" width="7.4" height="9.5"/>
	</g>
	<g class="st0">
		<defs>
			<path id="SVGID_30_" d="M6,64.9c0,0-0.6,0.9-1.2,2.5c1.1,0.2,2.8,0.3,5-0.1c-0.6-1.6-1.2-2.5-1.2-2.5H6z"/>
		</defs>
		<clipPath id="SVGID_31_">
			<use xlink:href="#SVGID_30_"  style="overflow:visible;"/>
		</clipPath>
		
			<linearGradient id="SVGID_32_" gradientUnits="userSpaceOnUse" x1="0" y1="77.9975" x2="1" y2="77.9975" gradientTransform="matrix(1.8049 15.057 15.057 -1.8049 -1167.641 203.1021)">
			<stop  offset="0" style="stop-color:#E5E0DF"/>
			<stop  offset="0.4575" style="stop-color:#E5E0DF"/>
			<stop  offset="1" style="stop-color:#8CA99C"/>
		</linearGradient>
		<polygon class="st30" points="9.7,64.3 10.1,67.7 4.8,68.3 4.4,64.9 		"/>
	</g>
	<g class="st0">
		<defs>
			<rect id="SVGID_33_" y="0" width="27.6" height="78"/>
		</defs>
		<clipPath id="SVGID_34_">
			<use xlink:href="#SVGID_33_"  style="overflow:visible;"/>
		</clipPath>
		<path class="st31" d="M3.7,72.8c0,0.1,0,0.3,0,0.4c0.6,0.2,1.7,0.4,3.3,0.4c1.1,0,2.4-0.1,3.8-0.5c0-0.1,0-0.3,0-0.4
			C7.1,73.7,4.5,73,3.7,72.8"/>
		<path class="st31" d="M3.8,71.4c0,0.1,0,0.3,0,0.4C4.4,72,5.5,72.2,7,72.2c1.1,0,2.3-0.1,3.8-0.5c0-0.1,0-0.3,0-0.4
			C7.2,72.2,4.7,71.7,3.8,71.4"/>
		<path class="st31" d="M10.3,69.1c0-0.1-0.1-0.3-0.1-0.4c-2.7,0.6-4.7,0.3-5.9,0.1c0,0.1-0.1,0.3-0.1,0.4c0.6,0.2,1.6,0.3,2.8,0.3
			C7.9,69.4,9,69.3,10.3,69.1"/>
		<path class="st31" d="M4,70c0,0.1-0.1,0.3-0.1,0.4c0.6,0.2,1.7,0.4,3.1,0.4c1,0,2.2-0.1,3.6-0.4c0-0.1,0-0.3-0.1-0.4
			C7.3,70.7,5,70.3,4,70"/>
		<path class="st31" d="M9.9,67.8c0-0.1-0.1-0.3-0.1-0.4c-2.2,0.4-3.9,0.3-5,0.1c0,0.1-0.1,0.3-0.1,0.4C5.2,67.9,6,68,7,68
			C7.8,68,8.8,68,9.9,67.8"/>
		<g class="st32">
			<g>
				<defs>
					<rect id="SVGID_35_" x="3.7" y="64.9" width="7.2" height="9.5"/>
				</defs>
				<clipPath id="SVGID_36_">
					<use xlink:href="#SVGID_35_"  style="overflow:visible;"/>
				</clipPath>
				<path class="st33" d="M8.5,64.9H6c0,0-2.4,3.6-2.3,8.9c0,0,0.1,0,0.3,0.1c-0.1-1.2,0.2-2.5,0.4-3.7c0.1-0.8,0.5-2.7,1.7-2.6
					c1.3,0.1,1,5.6,1.1,6.8h0c2.1,0,3.6-0.6,3.6-0.6C11,68.4,8.5,64.9,8.5,64.9"/>
			</g>
		</g>
		<g class="st32">
			<g>
				<defs>
					<rect id="SVGID_37_" x="7.2" y="64.9" width="3.6" height="9.3"/>
				</defs>
				<clipPath id="SVGID_38_">
					<use xlink:href="#SVGID_37_"  style="overflow:visible;"/>
				</clipPath>
				<path class="st34" d="M8.5,64.9H7.2c1.4,2.9,1.9,6.2,2,9.3c1-0.2,1.6-0.4,1.6-0.4C11,68.4,8.5,64.9,8.5,64.9"/>
			</g>
		</g>
		<path class="st35" d="M20.4,58.8l-0.7-1.9c-6.2,1-11.7,0.6-15.4-0.1l-0.7,1.9C7.4,59.5,13.5,60.1,20.4,58.8"/>
		<path class="st36" d="M21.1,60.6l-0.7-1.8c-6.9,1.2-13,0.6-16.8-0.1l-0.7,1.7C6.8,61.3,13.5,62.1,21.1,60.6"/>
		<path class="st36" d="M0.6,66.3L0,67.9c0,0,3.9,2,12,1.9c8,0.1,12-1.9,12-1.9l-0.5-1.3C12.9,69.1,3.8,67.2,0.6,66.3"/>
		<path class="st35" d="M2.9,60.5l-0.7,1.9c3.8,0.9,11.2,1.9,19.7,0.2l-0.7-1.9C13.5,62.1,6.8,61.3,2.9,60.5"/>
		<path class="st35" d="M1.3,64.5l-0.7,1.8c3.2,0.9,12.3,2.8,22.8,0.2l-0.7-1.8C13.2,66.8,5,65.4,1.3,64.5"/>
		<path class="st36" d="M2.2,62.3l-0.8,2.2c3.6,0.9,11.9,2.4,21.4,0.2l-0.9-2.2C13.4,64.3,6,63.2,2.2,62.3"/>
		<g class="st37">
			<g>
				<defs>
					<rect id="SVGID_39_" y="56.9" width="5.2" height="11.4"/>
				</defs>
				<clipPath id="SVGID_40_">
					<use xlink:href="#SVGID_39_"  style="overflow:visible;"/>
				</clipPath>
				<path class="st38" d="M2.8,63.9c0.8-2.3,1.6-4.6,2.5-6.9c-0.3,0-0.6-0.1-0.9-0.1l-0.7,1.9l-0.7,1.7l-0.7,1.9l-0.8,2.2l-0.7,1.8
					L0,67.9c0,0,0.4,0.2,1.1,0.5C1.7,66.8,2.2,65.4,2.8,63.9"/>
			</g>
		</g>
		<g class="st37">
			<g>
				<defs>
					<rect id="SVGID_41_" x="14.8" y="56.9" width="9.2" height="12.4"/>
				</defs>
				<clipPath id="SVGID_42_">
					<use xlink:href="#SVGID_41_"  style="overflow:visible;"/>
				</clipPath>
				<path class="st39" d="M17.1,64.9c0.4,1.5,0.9,3,1.3,4.5c3.8-0.6,5.6-1.5,5.6-1.5l-0.5-1.3l-0.7-1.8l-0.9-2.2l-0.7-1.9l-0.7-1.8
					l-0.7-1.9c-1.7,0.3-3.3,0.4-4.9,0.5C15.6,59.9,16.4,62.4,17.1,64.9"/>
			</g>
		</g>
		<g class="st40">
			<g>
				<defs>
					<rect id="SVGID_43_" x="5.5" y="19.5" width="3.6" height="37"/>
				</defs>
				<clipPath id="SVGID_44_">
					<use xlink:href="#SVGID_43_"  style="overflow:visible;"/>
				</clipPath>
				<path class="st41" d="M9,19.5H6.5c0,0-1.1-0.1-1,1.3v34c0,0-0.1,1.2,1.2,1.6L9,56.5V19.5z"/>
			</g>
		</g>
		<g class="st37">
			<g>
				<defs>
					<rect id="SVGID_45_" x="14.4" y="45.8" width="3.8" height="4.4"/>
				</defs>
				<clipPath id="SVGID_46_">
					<use xlink:href="#SVGID_45_"  style="overflow:visible;"/>
				</clipPath>
				<path class="st42" d="M18.3,48.5c0,1-0.8,1.8-1.8,1.8h-0.3c-1,0-1.8-0.8-1.8-1.8v-0.9c0-1,0.8-1.8,1.8-1.8h0.3
					c1,0,1.8,0.8,1.8,1.8V48.5z"/>
			</g>
		</g>
		<path class="st35" d="M17.9,48.5c0,0.8-0.6,1.4-1.4,1.4h-0.2c-0.8,0-1.4-0.6-1.4-1.4v-0.7c0-0.8,0.6-1.4,1.4-1.4h0.2
			c0.8,0,1.4,0.6,1.4,1.4V48.5z"/>
	</g>
</g>
</svg>
