<?xml version="1.0" encoding="utf-8"?>
<!-- Generator: Adobe Illustrator 22.0.0, SVG Export Plug-In . SVG Version: 6.00 Build 0)  -->
<svg version="1.1" id="Capa_1" xmlns="http://www.w3.org/2000/svg" xmlns:xlink="http://www.w3.org/1999/xlink" x="0px" y="0px"
	 viewBox="0 0 34.2 73.5" style="enable-background:new 0 0 34.2 73.5;" xml:space="preserve">
<style type="text/css">
	.st0{clip-path:url(#SVGID_2_);}
	.st1{clip-path:url(#SVGID_4_);}
	.st2{clip-path:url(#SVGID_6_);}
	.st3{clip-path:url(#SVGID_8_);fill:#FFFFFF;}
	.st4{clip-path:url(#SVGID_10_);fill:#F1F1F1;}
	.st5{clip-path:url(#SVGID_12_);fill:#E2E2E2;}
	.st6{clip-path:url(#SVGID_14_);fill:#D4D4D4;}
	.st7{clip-path:url(#SVGID_16_);fill:#C5C5C5;}
	.st8{clip-path:url(#SVGID_18_);fill:#B7B7B7;}
	.st9{clip-path:url(#SVGID_20_);fill:#A8A8A8;}
	.st10{clip-path:url(#SVGID_22_);fill:#9A9A9A;}
	.st11{clip-path:url(#SVGID_24_);fill:#8B8B8B;}
	.st12{clip-path:url(#SVGID_26_);fill:#7D7D7D;}
	.st13{clip-path:url(#SVGID_28_);fill:#6E6E6E;}
	.st14{clip-path:url(#SVGID_30_);fill:#606060;}
	.st15{clip-path:url(#SVGID_4_);fill:#E0E1E2;}
	.st16{clip-path:url(#SVGID_4_);fill:#3A3C3F;}
	.st17{clip-path:url(#SVGID_32_);fill:#E0E1E2;}
	.st18{clip-path:url(#SVGID_34_);fill:#E0E1E2;}
	.st19{clip-path:url(#SVGID_36_);fill:#FFFFFF;}
	.st20{clip-path:url(#SVGID_4_);fill:#5C5D61;}
	.st21{clip-path:url(#SVGID_38_);fill:#E0E1E2;}
	.st22{clip-path:url(#SVGID_40_);fill:#E0E1E2;}
	.st23{clip-path:url(#SVGID_42_);fill:#FFFFFF;}
	.st24{clip-path:url(#SVGID_4_);fill:#008ED0;}
	.st25{clip-path:url(#SVGID_44_);fill:#96B8C7;}
	.st26{clip-path:url(#SVGID_46_);fill:url(#SVGID_47_);}
	.st27{clip-path:url(#SVGID_49_);fill:#3A3C3F;}
	.st28{clip-path:url(#SVGID_49_);fill:#FFFFFF;}
	.st29{opacity:0.7;clip-path:url(#SVGID_49_);}
	.st30{clip-path:url(#SVGID_51_);fill:#C9E9EB;}
	.st31{clip-path:url(#SVGID_53_);fill:#C9E9EB;}
	.st32{clip-path:url(#SVGID_55_);fill:url(#SVGID_56_);}
	.st33{clip-path:url(#SVGID_58_);}
	.st34{clip-path:url(#SVGID_60_);}
	.st35{clip-path:url(#SVGID_62_);fill:url(#SVGID_63_);}
	.st36{clip-path:url(#SVGID_65_);fill:url(#SVGID_66_);}
	.st37{opacity:0.7;clip-path:url(#SVGID_58_);}
	.st38{clip-path:url(#SVGID_68_);fill:#C9E9EB;}
	.st39{clip-path:url(#SVGID_70_);fill:#C9E9EB;}
	.st40{clip-path:url(#SVGID_72_);fill:url(#SVGID_73_);}
	.st41{clip-path:url(#SVGID_75_);}
	.st42{clip-path:url(#SVGID_77_);}
	.st43{clip-path:url(#SVGID_79_);fill:url(#SVGID_80_);}
	.st44{clip-path:url(#SVGID_82_);fill:url(#SVGID_83_);}
	.st45{opacity:0.5;clip-path:url(#SVGID_75_);}
	.st46{clip-path:url(#SVGID_85_);fill:#68B6E5;}
	.st47{clip-path:url(#SVGID_87_);fill:#96B8C7;}
	.st48{clip-path:url(#SVGID_89_);fill:#3A3C3F;}
	.st49{clip-path:url(#SVGID_75_);fill:#E0E1E2;}
	.st50{opacity:0.4;clip-path:url(#SVGID_75_);}
	.st51{clip-path:url(#SVGID_91_);fill:#5C5D61;}
	.st52{clip-path:url(#SVGID_75_);fill:#3A3C3F;}
	.st53{clip-path:url(#SVGID_93_);fill:#E0E1E2;}
	.st54{clip-path:url(#SVGID_95_);fill:#E0E1E2;}
	.st55{clip-path:url(#SVGID_97_);fill:#FFFFFF;}
	.st56{clip-path:url(#SVGID_75_);fill:#5C5D61;}
</style>
<g>
	<defs>
		<rect id="SVGID_1_" width="34.2" height="73.5"/>
	</defs>
	<clipPath id="SVGID_2_">
		<use xlink:href="#SVGID_1_"  style="overflow:visible;"/>
	</clipPath>
	<g class="st0">
		<defs>
			<rect id="SVGID_3_" y="0" width="34.2" height="73.5"/>
		</defs>
		<clipPath id="SVGID_4_">
			<use xlink:href="#SVGID_3_"  style="overflow:visible;"/>
		</clipPath>
		<g class="st1">
			<g>
				<defs>
					<rect id="SVGID_5_" x="0" width="34.2" height="73.5"/>
				</defs>
				<clipPath id="SVGID_6_">
					<use xlink:href="#SVGID_5_"  style="overflow:visible;"/>
				</clipPath>
				<g class="st2">
					<g>
						<defs>
							<rect id="SVGID_7_" x="3.6" y="3.6" width="30.6" height="69.9"/>
						</defs>
						<clipPath id="SVGID_8_">
							<use xlink:href="#SVGID_7_"  style="overflow:visible;"/>
						</clipPath>
						<path class="st3" d="M34.2,68c0,0,0-0.1,0-0.1h0c-0.1-6.2-0.8-11.2-1.5-14.6c-0.2-1.1-0.5-2.1-1-2.9c-0.4-0.7-1.1-1.2-1.8-1.1
							c1.1-6.5,1.6-13.7,1.4-17.5c-0.2-5.7-0.7-8-0.8-8.5c0-0.1,0-0.3-0.1-0.4h0c0,0,0,0,0,0c0-0.1-0.1-0.2-0.1-0.3
							c0-0.1,0-0.1,0-0.2c0-0.1-0.1-0.2-0.1-0.4c0-0.1,0-0.1-0.1-0.2c0-0.1-0.1-0.3-0.1-0.4c0-0.1,0-0.1-0.1-0.2
							c0-0.1-0.1-0.3-0.1-0.4c0-0.1-0.1-0.2-0.1-0.2c-0.1-0.1-0.1-0.3-0.2-0.4c0-0.1-0.1-0.2-0.1-0.2c-0.1-0.1-0.1-0.3-0.2-0.4
							c0-0.1-0.1-0.2-0.1-0.3c-0.1-0.1-0.1-0.3-0.2-0.4c0-0.1-0.1-0.2-0.1-0.3c-0.1-0.1-0.1-0.3-0.2-0.4c0-0.1-0.1-0.2-0.1-0.3
							c-0.1-0.1-0.1-0.3-0.2-0.5c0-0.1-0.1-0.2-0.1-0.3c-0.1-0.2-0.2-0.3-0.2-0.5c-0.1-0.1-0.1-0.2-0.2-0.3
							c-0.1-0.1-0.2-0.3-0.2-0.4c-0.1-0.1-0.1-0.2-0.2-0.3c-0.1-0.1-0.2-0.3-0.2-0.4c-0.1-0.1-0.1-0.2-0.2-0.3
							c-0.1-0.2-0.2-0.3-0.2-0.5c-0.1-0.1-0.1-0.2-0.2-0.3c-0.1-0.2-0.2-0.3-0.3-0.5c-0.1-0.1-0.1-0.2-0.2-0.3
							c-0.1-0.1-0.2-0.3-0.3-0.4c-0.1-0.1-0.1-0.2-0.2-0.3c-0.1-0.1-0.2-0.3-0.3-0.4c-0.1-0.1-0.1-0.2-0.2-0.3
							c-0.1-0.1-0.2-0.3-0.2-0.4c-0.1-0.1-0.1-0.2-0.2-0.3c-0.1-0.1-0.2-0.3-0.2-0.4c-0.1-0.1-0.1-0.2-0.2-0.3
							c-0.1-0.1-0.2-0.3-0.2-0.4c-0.1-0.1-0.1-0.2-0.2-0.3c-0.1-0.1-0.2-0.3-0.2-0.4c-0.1-0.1-0.1-0.2-0.2-0.3
							c-0.1-0.1-0.2-0.2-0.2-0.4c-0.1-0.1-0.1-0.2-0.2-0.3C23.1,8.1,23.1,8,23,7.9c-0.1-0.1-0.1-0.2-0.2-0.3
							c-0.1-0.1-0.1-0.2-0.2-0.3c-0.1-0.1-0.1-0.2-0.2-0.2c-0.1-0.1-0.1-0.2-0.2-0.3c-0.1-0.1-0.1-0.2-0.2-0.3
							C22.1,6.5,22,6.4,22,6.3c-0.1-0.1-0.1-0.2-0.2-0.2c0-0.1-0.1-0.1-0.1-0.2c0-0.1-0.1-0.1-0.1-0.2c0-0.1-0.1-0.1-0.1-0.2
							c0-0.1-0.1-0.1-0.1-0.2c0-0.1-0.1-0.1-0.1-0.2C21.1,5,21.1,5,21,4.9c0,0-0.1-0.1-0.1-0.1c0-0.1-0.1-0.1-0.1-0.1
							c0,0,0-0.1-0.1-0.1c0-0.1-0.1-0.1-0.1-0.1c0,0,0,0,0,0c0,0-0.1-0.1-0.1-0.1C20,3.6,19.3,3.6,19,3.6c0,0,0,0-0.1,0
							c-0.3,0-0.9,0.1-1.4,0.7c0,0-0.1,0.1-0.1,0.1c0,0,0,0,0,0.1c0,0-0.1,0.1-0.1,0.1c0,0,0,0.1-0.1,0.1c0,0-0.1,0.1-0.1,0.1
							c0,0-0.1,0.1-0.1,0.1C17,5,17,5,16.9,5.1c0,0-0.1,0.1-0.1,0.2c0,0.1-0.1,0.1-0.1,0.2c0,0.1-0.1,0.1-0.1,0.2
							c0,0.1-0.1,0.1-0.1,0.2c0,0.1-0.1,0.2-0.2,0.2c0,0.1-0.1,0.2-0.2,0.2C16.1,6.4,16,6.5,16,6.5c-0.1,0.1-0.1,0.2-0.2,0.2
							c-0.1,0.1-0.1,0.2-0.2,0.3c0,0.1-0.1,0.2-0.1,0.2c-0.1,0.1-0.1,0.2-0.2,0.3c0,0.1-0.1,0.2-0.1,0.2C15,8,15,8.1,14.9,8.3
							c-0.1,0.1-0.1,0.2-0.2,0.3c-0.1,0.1-0.2,0.2-0.2,0.4c-0.1,0.1-0.1,0.2-0.2,0.3c-0.1,0.1-0.2,0.3-0.2,0.4
							C14,9.6,14,9.7,13.9,9.8c-0.1,0.1-0.2,0.3-0.3,0.4c-0.1,0.1-0.1,0.2-0.2,0.3c-0.1,0.1-0.2,0.3-0.3,0.5
							c-0.1,0.1-0.1,0.2-0.2,0.3c-0.1,0.1-0.2,0.3-0.3,0.5c-0.1,0.1-0.1,0.2-0.2,0.3c-0.1,0.2-0.2,0.3-0.3,0.5
							c-0.1,0.1-0.1,0.2-0.2,0.3C12.1,12.8,12,13,12,13.1l-0.2,0.3c-0.1,0.2-0.2,0.3-0.3,0.5c-0.1,0.1-0.1,0.2-0.2,0.3
							c-0.1,0.2-0.2,0.3-0.3,0.5c-0.1,0.1-0.1,0.2-0.2,0.3c-0.1,0.2-0.2,0.3-0.3,0.5c0,0.1-0.1,0.2-0.1,0.3
							c-0.1,0.2-0.2,0.3-0.3,0.5c0,0.1-0.1,0.2-0.1,0.3c-0.1,0.2-0.2,0.3-0.2,0.5c0,0.1-0.1,0.2-0.1,0.3c-0.1,0.2-0.2,0.3-0.2,0.5
							c0,0.1-0.1,0.2-0.1,0.3c-0.1,0.2-0.1,0.3-0.2,0.5c0,0.1-0.1,0.2-0.1,0.3c-0.1,0.2-0.1,0.3-0.2,0.5c0,0.1-0.1,0.2-0.1,0.2
							c-0.1,0.1-0.1,0.3-0.2,0.4c0,0.1-0.1,0.2-0.1,0.2c-0.1,0.1-0.1,0.3-0.2,0.4c0,0.1-0.1,0.1-0.1,0.2c-0.1,0.1-0.1,0.3-0.1,0.4
							c0,0.1,0,0.1-0.1,0.2c0,0.1-0.1,0.3-0.1,0.4c0,0.1,0,0.1-0.1,0.2c0,0.1-0.1,0.3-0.1,0.4c0,0.1,0,0.1,0,0.2
							c0,0.1-0.1,0.2-0.1,0.3l0,0h0c0,0.1-0.1,0.3-0.1,0.4C7.4,23.7,7,26,6.8,31.7C6.6,35.3,7.1,42,8,48.2c0,0,0,0,0,0
							c0,0,0,0.1,0,0.1c0,0.2,0.1,0.4,0.1,0.6c0,0.1,0,0.3,0.1,0.4c-0.8-0.3-1.6,0.2-2.1,1.1c-0.5,0.8-0.8,1.8-1,2.9
							c-0.6,3.4-1.3,8.5-1.5,14.6c0,0,0,0,0,0c0,0,0,0.1,0,0.1c0,0.4,0,0.8,0,1.1c0,0.1,0,0.3,0,0.4c0,0.5,0,1,0,1.6
							c0,0,1.6,1,3.9,1c0,0,0,0,0,0c0.1,0,0.2,0,0.3,0c2.5,0.1,4.2-1,4.2-1c0-1,0-1.9,0-2.8v0c0-1.9-0.1-3.8-0.3-5.5c0,0,0,0,0,0
							c0-0.1,0-0.2,0-0.2c0-0.3,0-0.6-0.1-0.9c0-0.1,0-0.3,0-0.4c0-0.3-0.1-0.6-0.1-0.9c0,0,0,0,0,0c0,0,1.1,0.3,3,0.5
							c-0.3,2.4-0.6,5.1-0.6,8.1l0,0c0,0,0,0,0,0c0,1,0,2,0,3c0,0,2.2,1.5,5.3,1.5c1,0,1.8-0.1,2.5-0.3v0c0,0,0,0,0,0
							c0.2,0,0.4-0.1,0.6-0.2c0,0,0,0,0.1,0c0.2-0.1,0.3-0.1,0.4-0.2c0,0,0.1,0,0.1,0c0.3-0.1,0.6-0.2,0.8-0.4c0,0,0,0,0.1,0
							c0.1,0,0.2-0.1,0.3-0.1c0,0,0,0,0,0c0.1,0,0.2-0.1,0.2-0.1c0,0,0,0,0,0c0,0,0.1-0.1,0.1-0.1c0,0,0,0,0,0c0,0,0,0,0,0
							c0-1,0-2,0-3c0,0,0,0,0-0.1c0,0,0,0,0,0c0-0.7,0-1.3-0.1-1.9h0c0,0,0-0.1,0-0.1c0-0.7-0.1-1.3-0.1-2c0-0.1,0-0.2,0-0.3
							c-0.1-0.6-0.1-1.3-0.2-1.9c0-0.1,0-0.2,0-0.3c-0.1-0.6-0.1-1.1-0.2-1.6c0,0,0.1,0,0.1,0c0,0,0,0,0.1,0c0.2,0,0.3,0,0.5-0.1
							c0,0,0,0,0.1,0c0.4-0.1,0.7-0.1,1-0.2c0,0,0,0,0.1,0c0.1,0,0.2,0,0.3-0.1c0,0,0,0,0.1,0c0.1,0,0.2,0,0.2,0c0,0,0,0,0.1,0
							c0,0,0.1,0,0.1,0c0,0.2,0,0.5-0.1,0.8c0,0.1,0,0.3,0,0.4c0,0.3,0,0.6-0.1,0.9c0,0.1,0,0.2,0,0.2c0,0,0,0,0,0
							c-0.1,1.7-0.2,3.5-0.3,5.5h0v0c0,0.9,0,1.9,0,2.8c0,0,1.7,1.1,4.2,1c0.1,0,0.2,0,0.3,0c0,0,0,0,0,0c2.3,0,3.9-1,3.9-1
							c0-0.5,0-1,0-1.6c0-0.1,0-0.3,0-0.4C34.2,68.7,34.2,68.4,34.2,68"/>
					</g>
				</g>
				<g class="st2">
					<g>
						<defs>
							<rect id="SVGID_9_" x="3.3" y="3.3" width="30.6" height="69.9"/>
						</defs>
						<clipPath id="SVGID_10_">
							<use xlink:href="#SVGID_9_"  style="overflow:visible;"/>
						</clipPath>
						<path class="st4" d="M33.8,67.7c0,0,0-0.1,0-0.1h0c-0.1-6.2-0.8-11.2-1.5-14.6c-0.2-1.1-0.5-2.1-1-2.9
							c-0.4-0.7-1.1-1.2-1.8-1.1c1.1-6.5,1.6-13.7,1.4-17.5c-0.2-5.7-0.7-8-0.8-8.5c0-0.1,0-0.3-0.1-0.4h0c0,0,0,0,0,0
							c0-0.1-0.1-0.2-0.1-0.3c0-0.1,0-0.1,0-0.2c0-0.1-0.1-0.2-0.1-0.4c0-0.1,0-0.1-0.1-0.2c0-0.1-0.1-0.3-0.1-0.4
							c0-0.1,0-0.1-0.1-0.2c0-0.1-0.1-0.3-0.1-0.4c0-0.1-0.1-0.2-0.1-0.2c-0.1-0.1-0.1-0.3-0.2-0.4c0-0.1-0.1-0.2-0.1-0.2
							c-0.1-0.1-0.1-0.3-0.2-0.4c0-0.1-0.1-0.2-0.1-0.3c-0.1-0.1-0.1-0.3-0.2-0.4c0-0.1-0.1-0.2-0.1-0.3c-0.1-0.1-0.1-0.3-0.2-0.4
							c0-0.1-0.1-0.2-0.1-0.3c-0.1-0.1-0.1-0.3-0.2-0.5c0-0.1-0.1-0.2-0.1-0.3c-0.1-0.2-0.2-0.3-0.2-0.5c-0.1-0.1-0.1-0.2-0.2-0.3
							c-0.1-0.1-0.2-0.3-0.2-0.4c-0.1-0.1-0.1-0.2-0.2-0.3c-0.1-0.1-0.2-0.3-0.2-0.4c-0.1-0.1-0.1-0.2-0.2-0.3
							c-0.1-0.2-0.2-0.3-0.2-0.5c-0.1-0.1-0.1-0.2-0.2-0.3c-0.1-0.2-0.2-0.3-0.3-0.5c-0.1-0.1-0.1-0.2-0.2-0.3
							c-0.1-0.1-0.2-0.3-0.3-0.4c-0.1-0.1-0.1-0.2-0.2-0.3c-0.1-0.1-0.2-0.3-0.3-0.4c-0.1-0.1-0.1-0.2-0.2-0.3
							c-0.1-0.1-0.2-0.3-0.3-0.4c-0.1-0.1-0.1-0.2-0.2-0.3c-0.1-0.1-0.2-0.3-0.2-0.4c-0.1-0.1-0.1-0.2-0.2-0.3
							c-0.1-0.1-0.2-0.3-0.2-0.4c-0.1-0.1-0.1-0.2-0.2-0.3c-0.1-0.1-0.2-0.3-0.2-0.4c-0.1-0.1-0.1-0.2-0.2-0.3
							c-0.1-0.1-0.2-0.2-0.2-0.4C23,8.1,22.9,8,22.9,7.9c-0.1-0.1-0.1-0.2-0.2-0.3c-0.1-0.1-0.1-0.2-0.2-0.3
							c-0.1-0.1-0.1-0.2-0.2-0.3c-0.1-0.1-0.1-0.2-0.2-0.2c-0.1-0.1-0.1-0.2-0.2-0.3c-0.1-0.1-0.1-0.2-0.2-0.3
							C21.7,6.1,21.7,6,21.6,6c-0.1-0.1-0.1-0.2-0.2-0.2c0-0.1-0.1-0.1-0.1-0.2c0-0.1-0.1-0.1-0.1-0.2c0-0.1-0.1-0.1-0.1-0.2
							C21,5,21,5,20.9,4.9c0-0.1-0.1-0.1-0.1-0.2c0-0.1-0.1-0.1-0.1-0.2c0,0-0.1-0.1-0.1-0.1c0-0.1-0.1-0.1-0.1-0.1
							c0,0,0-0.1-0.1-0.1c0,0-0.1-0.1-0.1-0.1c0,0,0,0,0,0c0,0-0.1-0.1-0.1-0.1c-0.6-0.6-1.2-0.7-1.5-0.7c0,0,0,0-0.1,0v0
							c-0.3,0-0.9,0.1-1.4,0.7c0,0-0.1,0.1-0.1,0.1c0,0,0,0,0,0.1c0,0-0.1,0.1-0.1,0.1c0,0,0,0.1-0.1,0.1c0,0-0.1,0.1-0.1,0.1
							c0,0-0.1,0.1-0.1,0.1c0,0.1-0.1,0.1-0.1,0.2c0,0-0.1,0.1-0.1,0.2c0,0.1-0.1,0.1-0.1,0.2c0,0.1-0.1,0.1-0.1,0.2
							c0,0.1-0.1,0.1-0.1,0.2c0,0.1-0.1,0.1-0.2,0.2c0,0.1-0.1,0.2-0.2,0.2s-0.1,0.2-0.2,0.3c-0.1,0.1-0.1,0.2-0.2,0.2
							c-0.1,0.1-0.1,0.2-0.2,0.3c0,0.1-0.1,0.2-0.1,0.2c-0.1,0.1-0.1,0.2-0.2,0.3c0,0.1-0.1,0.2-0.1,0.2c-0.1,0.1-0.1,0.2-0.2,0.4
							c-0.1,0.1-0.1,0.2-0.2,0.3c-0.1,0.1-0.2,0.2-0.2,0.4C14.1,8.6,14,8.7,14,8.8c-0.1,0.1-0.2,0.3-0.2,0.4
							c-0.1,0.1-0.1,0.2-0.2,0.3c-0.1,0.1-0.2,0.3-0.3,0.4c-0.1,0.1-0.1,0.2-0.2,0.3c-0.1,0.1-0.2,0.3-0.3,0.5
							c-0.1,0.1-0.1,0.2-0.2,0.3c-0.1,0.2-0.2,0.3-0.3,0.5c-0.1,0.1-0.1,0.2-0.2,0.3c-0.1,0.2-0.2,0.3-0.3,0.5
							c-0.1,0.1-0.1,0.2-0.2,0.3c-0.1,0.2-0.2,0.3-0.3,0.5c-0.1,0.1-0.1,0.2-0.2,0.3c-0.1,0.2-0.2,0.3-0.3,0.5
							c0,0.1-0.1,0.2-0.2,0.3c-0.1,0.2-0.2,0.3-0.3,0.5c-0.1,0.1-0.1,0.2-0.2,0.3c-0.1,0.2-0.2,0.3-0.3,0.5c0,0.1-0.1,0.2-0.1,0.3
							c-0.1,0.2-0.2,0.3-0.3,0.5c0,0.1-0.1,0.2-0.1,0.3c-0.1,0.2-0.2,0.3-0.2,0.5c0,0.1-0.1,0.2-0.1,0.3c-0.1,0.2-0.2,0.3-0.2,0.5
							c0,0.1-0.1,0.2-0.1,0.3C9.1,17.7,9,17.9,8.9,18c0,0.1-0.1,0.2-0.1,0.3c-0.1,0.2-0.1,0.3-0.2,0.5c0,0.1-0.1,0.2-0.1,0.2
							c-0.1,0.1-0.1,0.3-0.2,0.4c0,0.1-0.1,0.2-0.1,0.2C8.1,19.8,8.1,20,8,20.1C8,20.2,8,20.2,8,20.3c-0.1,0.1-0.1,0.3-0.1,0.4
							c0,0.1,0,0.1-0.1,0.2c0,0.1-0.1,0.3-0.1,0.4c0,0.1,0,0.1-0.1,0.2c0,0.1-0.1,0.3-0.1,0.4c0,0.1,0,0.1,0,0.2
							c0,0.1-0.1,0.2-0.1,0.3c0,0,0,0,0,0h0c0,0.1-0.1,0.3-0.1,0.4c-0.1,0.5-0.6,2.8-0.8,8.5C6.3,35,6.7,41.7,7.7,47.9c0,0,0,0,0,0
							c0,0,0,0.1,0,0.1c0,0.2,0.1,0.4,0.1,0.6c0,0.1,0,0.3,0.1,0.4c-0.8-0.3-1.6,0.2-2.1,1.1c-0.5,0.8-0.8,1.8-1,2.9
							c-0.6,3.4-1.3,8.5-1.5,14.6h0c0,0,0,0.1,0,0.1c0,0.4,0,0.8,0,1.1c0,0.1,0,0.3,0,0.4c0,0.5,0,1,0,1.6c0,0,1.6,1,3.9,1
							c0,0,0,0,0,0c0.1,0,0.2,0,0.3,0c2.5,0.1,4.2-1,4.2-1c0-1,0-1.9,0-2.8v0c0-1.9-0.1-3.8-0.3-5.5c0,0,0,0,0,0c0-0.1,0-0.2,0-0.2
							c0-0.3,0-0.6-0.1-0.9c0-0.1,0-0.3,0-0.4c0-0.3-0.1-0.6-0.1-0.9c0,0,0,0,0,0c0,0,1.1,0.3,3,0.5c-0.3,2.4-0.6,5.1-0.6,8.1h0
							c0,0,0,0,0,0c0,1,0,2,0,3c0,0,2.2,1.5,5.3,1.5c1,0,1.8-0.1,2.5-0.3c0,0,0,0,0,0c0.2-0.1,0.4-0.1,0.6-0.2c0,0,0,0,0.1,0
							c0.2-0.1,0.3-0.1,0.4-0.2c0,0,0.1,0,0.1,0c0.3-0.1,0.6-0.2,0.8-0.4c0,0,0,0,0.1,0c0.1,0,0.2-0.1,0.3-0.1c0,0,0,0,0,0
							c0.1,0,0.2-0.1,0.2-0.1c0,0,0,0,0,0c0,0,0.1-0.1,0.1-0.1c0,0,0,0,0,0c0,0,0,0,0,0c0-1,0-2,0-3c0,0,0,0,0-0.1h0
							c0-0.7,0-1.3-0.1-1.9h0c0,0,0-0.1,0-0.1c0-0.7-0.1-1.3-0.1-2l0-0.3c-0.1-0.6-0.1-1.3-0.2-1.9c0-0.1,0-0.2,0-0.3
							c-0.1-0.6-0.1-1.1-0.2-1.6c0,0,0.1,0,0.1,0v0c0,0,0,0,0.1,0c0.2,0,0.3,0,0.5-0.1c0,0,0,0,0.1,0c0.4-0.1,0.7-0.1,1-0.2
							c0,0,0,0,0.1,0c0.1,0,0.2,0,0.3-0.1c0,0,0,0,0.1,0c0.1,0,0.2,0,0.2,0c0,0,0,0,0.1,0c0,0,0.1,0,0.1,0c0,0.2,0,0.5-0.1,0.8
							c0,0.1,0,0.3,0,0.4c0,0.3,0,0.6-0.1,0.9c0,0.1,0,0.2,0,0.2c0,0,0,0,0,0c-0.1,1.7-0.2,3.5-0.3,5.5v0c0,0.9,0,1.9,0,2.8
							c0,0,1.7,1.1,4.2,1c0.1,0,0.2,0,0.3,0c0,0,0,0,0,0c2.3,0,3.9-1,3.9-1c0-0.5,0-1,0-1.6c0-0.1,0-0.3,0-0.4
							C33.8,68.4,33.8,68,33.8,67.7"/>
					</g>
				</g>
				<g class="st2">
					<g>
						<defs>
							<rect id="SVGID_11_" x="3" y="3" width="30.6" height="69.9"/>
						</defs>
						<clipPath id="SVGID_12_">
							<use xlink:href="#SVGID_11_"  style="overflow:visible;"/>
						</clipPath>
						<path class="st5" d="M33.5,67.3c0,0,0-0.1,0-0.1c0,0,0,0,0,0C33.4,61,32.7,56,32,52.6c-0.2-1.1-0.5-2.1-1-2.9
							c-0.4-0.7-1.1-1.2-1.8-1.1c1.1-6.5,1.6-13.7,1.4-17.5c-0.2-5.7-0.7-8-0.8-8.5c0-0.1,0-0.3-0.1-0.4h0c0,0,0,0,0,0
							c0-0.1-0.1-0.2-0.1-0.3c0-0.1,0-0.1,0-0.2c0-0.1-0.1-0.2-0.1-0.4c0-0.1,0-0.1-0.1-0.2c0-0.1-0.1-0.3-0.1-0.4
							c0-0.1,0-0.1-0.1-0.2c0-0.1-0.1-0.3-0.1-0.4c0-0.1-0.1-0.2-0.1-0.2c-0.1-0.1-0.1-0.3-0.2-0.4c0-0.1-0.1-0.2-0.1-0.2
							c-0.1-0.1-0.1-0.3-0.2-0.4c0-0.1-0.1-0.2-0.1-0.3c-0.1-0.1-0.1-0.3-0.2-0.4c0-0.1-0.1-0.2-0.1-0.3c-0.1-0.1-0.1-0.3-0.2-0.4
							c0-0.1-0.1-0.2-0.1-0.3c-0.1-0.1-0.1-0.3-0.2-0.4c0-0.1-0.1-0.2-0.1-0.3c-0.1-0.1-0.2-0.3-0.2-0.5c-0.1-0.1-0.1-0.2-0.2-0.3
							c-0.1-0.1-0.2-0.3-0.2-0.4c-0.1-0.1-0.1-0.2-0.2-0.3c-0.1-0.1-0.2-0.3-0.2-0.4c-0.1-0.1-0.1-0.2-0.2-0.3
							c-0.1-0.2-0.2-0.3-0.2-0.5c-0.1-0.1-0.1-0.2-0.2-0.3c-0.1-0.2-0.2-0.3-0.3-0.5c-0.1-0.1-0.1-0.2-0.2-0.3
							c-0.1-0.1-0.2-0.3-0.3-0.4c-0.1-0.1-0.1-0.2-0.2-0.3c-0.1-0.1-0.2-0.3-0.3-0.4c-0.1-0.1-0.1-0.2-0.2-0.3
							c-0.1-0.1-0.2-0.3-0.3-0.4c-0.1-0.1-0.1-0.2-0.2-0.3c-0.1-0.1-0.2-0.3-0.3-0.4c-0.1-0.1-0.1-0.2-0.2-0.3
							c-0.1-0.1-0.2-0.3-0.2-0.4c-0.1-0.1-0.1-0.2-0.2-0.3c-0.1-0.1-0.2-0.3-0.2-0.4C23,8.4,23,8.3,22.9,8.2
							c-0.1-0.1-0.2-0.2-0.2-0.4c-0.1-0.1-0.1-0.2-0.2-0.3c-0.1-0.1-0.1-0.2-0.2-0.3c-0.1-0.1-0.1-0.2-0.2-0.3
							C22.1,6.9,22,6.8,22,6.7c-0.1-0.1-0.1-0.2-0.2-0.2c-0.1-0.1-0.1-0.2-0.2-0.3C21.6,6,21.5,6,21.5,5.9c-0.1-0.1-0.1-0.2-0.2-0.2
							c-0.1-0.1-0.1-0.2-0.2-0.2c0-0.1-0.1-0.1-0.1-0.2c0-0.1-0.1-0.1-0.1-0.2c0-0.1-0.1-0.1-0.1-0.2c0-0.1-0.1-0.1-0.1-0.2
							c0-0.1-0.1-0.1-0.1-0.2c0-0.1-0.1-0.1-0.1-0.2c0,0-0.1-0.1-0.1-0.1c0-0.1-0.1-0.1-0.1-0.1c0,0,0-0.1-0.1-0.1
							c0-0.1-0.1-0.1-0.1-0.1c0,0,0,0,0,0c0,0-0.1-0.1-0.1-0.1C19.3,3,18.6,2.9,18.4,3c0,0,0,0-0.1,0c0,0,0,0,0,0
							C18,3,17.4,3,16.9,3.6c0,0-0.1,0.1-0.1,0.1c0,0,0,0,0,0.1c0,0-0.1,0.1-0.1,0.1c0,0,0,0.1-0.1,0.1c0,0-0.1,0.1-0.1,0.1
							c0,0-0.1,0.1-0.1,0.1c0,0.1-0.1,0.1-0.1,0.2c0,0-0.1,0.1-0.1,0.2c0,0.1-0.1,0.1-0.1,0.2c0,0.1-0.1,0.1-0.1,0.2
							c0,0.1-0.1,0.1-0.1,0.2c0,0.1-0.1,0.2-0.2,0.2c0,0.1-0.1,0.2-0.2,0.2s-0.1,0.2-0.2,0.3C15.3,6,15.2,6,15.2,6.1
							C15.1,6.2,15,6.3,15,6.4c0,0.1-0.1,0.2-0.1,0.2c-0.1,0.1-0.1,0.2-0.2,0.3c0,0.1-0.1,0.2-0.1,0.2c-0.1,0.1-0.1,0.2-0.2,0.4
							c-0.1,0.1-0.1,0.2-0.2,0.3C14,8,13.9,8.1,13.8,8.2c-0.1,0.1-0.1,0.2-0.2,0.3c-0.1,0.1-0.2,0.3-0.2,0.4
							c-0.1,0.1-0.1,0.2-0.2,0.3c-0.1,0.1-0.2,0.3-0.3,0.4c-0.1,0.1-0.1,0.2-0.2,0.3c-0.1,0.1-0.2,0.3-0.3,0.5
							c0,0.1-0.1,0.2-0.2,0.3c-0.1,0.2-0.2,0.3-0.3,0.5c-0.1,0.1-0.1,0.2-0.2,0.3c-0.1,0.2-0.2,0.3-0.3,0.5L11.6,12
							c-0.1,0.2-0.2,0.3-0.3,0.5c-0.1,0.1-0.1,0.2-0.2,0.3c-0.1,0.2-0.2,0.3-0.3,0.5c0,0.1-0.1,0.2-0.2,0.3
							c-0.1,0.2-0.2,0.3-0.3,0.5l-0.2,0.3c-0.1,0.2-0.2,0.3-0.3,0.5c0,0.1-0.1,0.2-0.1,0.3c-0.1,0.2-0.2,0.3-0.3,0.5
							c0,0.1-0.1,0.2-0.1,0.3c-0.1,0.2-0.2,0.3-0.2,0.5c0,0.1-0.1,0.2-0.1,0.3C9.1,16.7,9,16.8,8.9,17c0,0.1-0.1,0.2-0.1,0.3
							c-0.1,0.2-0.1,0.3-0.2,0.5c0,0.1-0.1,0.2-0.1,0.3c-0.1,0.2-0.1,0.3-0.2,0.5c0,0.1-0.1,0.2-0.1,0.2C8.1,18.8,8,19,8,19.1
							c0,0.1-0.1,0.2-0.1,0.2c-0.1,0.1-0.1,0.3-0.2,0.4c0,0.1-0.1,0.1-0.1,0.2c-0.1,0.1-0.1,0.3-0.1,0.4c0,0.1,0,0.1-0.1,0.2
							c0,0.1-0.1,0.3-0.1,0.4c0,0.1,0,0.1-0.1,0.2c0,0.1-0.1,0.3-0.1,0.4c0,0.1,0,0.1,0,0.2C7,21.9,7,22,7,22.1c0,0,0,0,0,0h0
							c0,0.1-0.1,0.3-0.1,0.4C6.8,23,6.3,25.3,6.1,31C6,34.6,6.4,41.3,7.4,47.6c0,0,0,0,0,0c0,0,0,0.1,0,0.1c0,0.2,0.1,0.4,0.1,0.6
							c0,0.1,0,0.3,0.1,0.4c-0.8-0.3-1.6,0.2-2.1,1.1c-0.5,0.8-0.8,1.8-1,2.9C3.8,56,3.1,61,3,67.2c0,0,0,0,0,0c0,0,0,0.1,0,0.1
							c0,0.4,0,0.8,0,1.1c0,0.1,0,0.3,0,0.4c0,0.5,0,1,0,1.6c0,0,1.6,1,3.9,1v0c0.1,0,0.2,0,0.3,0c2.5,0.1,4.2-1,4.2-1
							c0-1,0-1.9,0-2.8c0,0,0,0,0,0c0-1.9-0.1-3.8-0.3-5.5c0,0,0,0,0,0c0-0.1,0-0.2,0-0.2c0-0.3,0-0.6-0.1-0.9c0-0.1,0-0.3,0-0.4
							c0-0.3-0.1-0.6-0.1-0.9c0,0,0,0,0,0c0,0,1.1,0.3,3,0.5c-0.3,2.4-0.6,5.1-0.6,8.1h0v0c0,1,0,2,0,3c0,0,2.2,1.5,5.3,1.5
							c1,0,1.8-0.1,2.6-0.3v0c0,0,0,0,0,0c0.2-0.1,0.4-0.1,0.6-0.2c0,0,0,0,0.1,0c0.2-0.1,0.3-0.1,0.4-0.2c0,0,0.1,0,0.1,0
							c0.3-0.1,0.6-0.2,0.8-0.4c0,0,0,0,0.1,0c0.1,0,0.2-0.1,0.3-0.1c0,0,0,0,0,0c0.1,0,0.2-0.1,0.2-0.1c0,0,0,0,0,0
							c0,0,0.1-0.1,0.1-0.1c0,0,0,0,0,0c0,0,0,0,0,0c0-1,0-2,0-3c0,0,0,0,0-0.1c0,0,0,0,0,0c0-0.7,0-1.3-0.1-1.9h0c0,0,0-0.1,0-0.1
							c0-0.7-0.1-1.3-0.1-2c0-0.1,0-0.2,0-0.3c-0.1-0.6-0.1-1.3-0.2-1.9c0-0.1,0-0.2,0-0.3c-0.1-0.6-0.1-1.1-0.2-1.6
							c0,0,0.1,0,0.1,0v0c0,0,0,0,0.1,0c0.2,0,0.3,0,0.5-0.1c0,0,0,0,0.1,0c0.4-0.1,0.7-0.1,1-0.2c0,0,0,0,0.1,0
							c0.1,0,0.2,0,0.3-0.1c0,0,0,0,0.1,0c0.1,0,0.2,0,0.2,0c0,0,0,0,0.1,0c0,0,0.1,0,0.1,0c0,0.2,0,0.5-0.1,0.8c0,0.1,0,0.3,0,0.4
							c0,0.3,0,0.6-0.1,0.9c0,0.1,0,0.2,0,0.2c0,0,0,0,0,0c-0.1,1.7-0.2,3.5-0.3,5.5v0c0,0.9,0,1.9,0,2.8c0,0,1.7,1.1,4.2,1
							c0.1,0,0.2,0,0.3,0c0,0,0,0,0,0c2.3,0,3.9-1,3.9-1c0-0.5,0-1,0-1.6c0-0.1,0-0.3,0-0.4C33.5,68.1,33.5,67.7,33.5,67.3"/>
					</g>
				</g>
				<g class="st2">
					<g>
						<defs>
							<rect id="SVGID_13_" x="2.6" y="2.6" width="30.6" height="69.9"/>
						</defs>
						<clipPath id="SVGID_14_">
							<use xlink:href="#SVGID_13_"  style="overflow:visible;"/>
						</clipPath>
						<path class="st6" d="M33.2,67c0,0,0-0.1,0-0.1h0c-0.1-6.2-0.8-11.2-1.5-14.6c-0.2-1.1-0.5-2.1-1-2.9c-0.4-0.7-1.1-1.2-1.8-1.1
							c1.1-6.5,1.6-13.7,1.4-17.5c-0.2-5.7-0.7-8-0.8-8.5c0-0.1,0-0.3-0.1-0.4h0c0,0,0,0,0,0c0-0.1-0.1-0.2-0.1-0.3
							c0-0.1,0-0.1,0-0.2c0-0.1-0.1-0.2-0.1-0.4c0-0.1,0-0.1-0.1-0.2c0-0.1-0.1-0.3-0.1-0.4c0-0.1,0-0.1-0.1-0.2
							c0-0.1-0.1-0.3-0.1-0.4c0-0.1-0.1-0.2-0.1-0.2c-0.1-0.1-0.1-0.3-0.2-0.4c0-0.1-0.1-0.2-0.1-0.2c-0.1-0.1-0.1-0.3-0.2-0.4
							c0-0.1-0.1-0.2-0.1-0.3c-0.1-0.1-0.1-0.3-0.2-0.4c0-0.1-0.1-0.2-0.1-0.3c-0.1-0.1-0.1-0.3-0.2-0.4c0-0.1-0.1-0.2-0.1-0.3
							c-0.1-0.1-0.1-0.3-0.2-0.5c0-0.1-0.1-0.2-0.1-0.3c-0.1-0.2-0.2-0.3-0.2-0.5c-0.1-0.1-0.1-0.2-0.2-0.3
							c-0.1-0.1-0.2-0.3-0.2-0.4c-0.1-0.1-0.1-0.2-0.2-0.3c-0.1-0.1-0.2-0.3-0.2-0.4c-0.1-0.1-0.1-0.2-0.2-0.3
							c-0.1-0.2-0.2-0.3-0.2-0.5c-0.1-0.1-0.1-0.2-0.2-0.3c-0.1-0.2-0.2-0.3-0.3-0.5c-0.1-0.1-0.1-0.2-0.2-0.3
							C25,12,25,11.9,24.9,11.7c-0.1-0.1-0.1-0.2-0.2-0.3c-0.1-0.1-0.2-0.3-0.2-0.4c-0.1-0.1-0.1-0.2-0.2-0.3
							c-0.1-0.1-0.2-0.3-0.2-0.4c-0.1-0.1-0.1-0.2-0.2-0.3c-0.1-0.1-0.2-0.3-0.2-0.4c-0.1-0.1-0.1-0.2-0.2-0.3
							c-0.1-0.1-0.2-0.3-0.2-0.4c-0.1-0.1-0.1-0.2-0.2-0.3c-0.1-0.1-0.2-0.3-0.2-0.4c-0.1-0.1-0.1-0.2-0.2-0.3
							c-0.1-0.1-0.2-0.2-0.2-0.4c-0.1-0.1-0.1-0.2-0.2-0.3C22.1,7.1,22.1,7,22,6.9c-0.1-0.1-0.1-0.2-0.2-0.3
							c-0.1-0.1-0.1-0.2-0.2-0.3c-0.1-0.1-0.1-0.2-0.2-0.2c-0.1-0.1-0.1-0.2-0.2-0.3c-0.1-0.1-0.1-0.2-0.2-0.3
							C21.1,5.5,21,5.4,21,5.3c-0.1-0.1-0.1-0.2-0.2-0.2c0-0.1-0.1-0.1-0.1-0.2c0-0.1-0.1-0.1-0.1-0.2c0-0.1-0.1-0.1-0.1-0.2
							c0-0.1-0.1-0.1-0.1-0.2c0-0.1-0.1-0.1-0.1-0.2C20.1,4,20.1,4,20,3.9c0,0-0.1-0.1-0.1-0.1c0-0.1-0.1-0.1-0.1-0.1
							c0,0,0-0.1-0.1-0.1c0,0-0.1-0.1-0.1-0.1c0,0,0,0,0,0c0,0-0.1-0.1-0.1-0.1c-0.6-0.6-1.2-0.7-1.5-0.7c0,0,0,0-0.1,0c0,0,0,0,0,0
							c-0.3,0-0.9,0.1-1.4,0.7c0,0-0.1,0.1-0.1,0.1c0,0,0,0,0,0.1c0,0-0.1,0.1-0.1,0.1c0,0,0,0.1-0.1,0.1c0,0-0.1,0.1-0.1,0.1
							c0,0-0.1,0.1-0.1,0.1C16,4,16,4,16,4.1c0,0-0.1,0.1-0.1,0.2c0,0.1-0.1,0.1-0.1,0.2c0,0.1-0.1,0.1-0.1,0.2
							c0,0.1-0.1,0.1-0.1,0.2c0,0.1-0.1,0.2-0.2,0.2c0,0.1-0.1,0.2-0.2,0.2C15.1,5.4,15,5.5,15,5.6c-0.1,0.1-0.1,0.2-0.2,0.2
							c-0.1,0.1-0.1,0.2-0.2,0.3c0,0.1-0.1,0.2-0.1,0.2c-0.1,0.1-0.1,0.2-0.2,0.3c0,0.1-0.1,0.2-0.1,0.2C14,7,14,7.1,13.9,7.3
							c-0.1,0.1-0.1,0.2-0.2,0.3c-0.1,0.1-0.2,0.2-0.2,0.4c-0.1,0.1-0.1,0.2-0.2,0.3c-0.1,0.1-0.2,0.3-0.2,0.4
							C13,8.7,13,8.7,12.9,8.8c-0.1,0.1-0.2,0.3-0.3,0.4c-0.1,0.1-0.1,0.2-0.2,0.3c-0.1,0.1-0.2,0.3-0.3,0.5
							c-0.1,0.1-0.1,0.2-0.2,0.3c-0.1,0.2-0.2,0.3-0.3,0.5c-0.1,0.1-0.1,0.2-0.2,0.3c-0.1,0.2-0.2,0.3-0.3,0.5l-0.2,0.3
							c-0.1,0.2-0.2,0.3-0.3,0.5c-0.1,0.1-0.1,0.2-0.2,0.3c-0.1,0.2-0.2,0.3-0.3,0.5c-0.1,0.1-0.1,0.2-0.2,0.3
							c-0.1,0.2-0.2,0.3-0.3,0.5C10.1,13.8,10,13.9,10,14c-0.1,0.2-0.2,0.3-0.3,0.5c0,0.1-0.1,0.2-0.1,0.3c-0.1,0.2-0.2,0.3-0.3,0.5
							c0,0.1-0.1,0.2-0.1,0.3C9.1,15.6,9,15.8,9,15.9c0,0.1-0.1,0.2-0.1,0.3c-0.1,0.2-0.2,0.3-0.2,0.5c0,0.1-0.1,0.2-0.1,0.3
							c-0.1,0.2-0.1,0.3-0.2,0.5c0,0.1-0.1,0.2-0.1,0.3C8.1,17.8,8,18,7.9,18.1c0,0.1-0.1,0.2-0.1,0.2c-0.1,0.1-0.1,0.3-0.2,0.4
							c0,0.1-0.1,0.2-0.1,0.2c-0.1,0.1-0.1,0.3-0.2,0.4c0,0.1-0.1,0.1-0.1,0.2c-0.1,0.1-0.1,0.3-0.1,0.4c0,0.1,0,0.1-0.1,0.2
							c0,0.1-0.1,0.3-0.1,0.4c0,0.1,0,0.1-0.1,0.2c0,0.1-0.1,0.3-0.1,0.4c0,0.1,0,0.1,0,0.2c0,0.1-0.1,0.2-0.1,0.3c0,0,0,0,0,0h0
							c0,0.1-0.1,0.3-0.1,0.4C6.5,22.7,6,25,5.8,30.7C5.6,34.3,6.1,41,7,47.2l0,0c0,0,0,0.1,0,0.1c0,0.2,0.1,0.4,0.1,0.6
							c0,0.1,0,0.3,0.1,0.4c-0.8-0.3-1.6,0.2-2.1,1.1c-0.5,0.8-0.8,1.8-1,2.9c-0.6,3.4-1.3,8.5-1.5,14.6h0c0,0,0,0.1,0,0.1
							c0,0.4,0,0.8,0,1.1c0,0.1,0,0.3,0,0.4c0,0.5,0,1,0,1.6c0,0,1.6,1,3.9,1v0c0.1,0,0.2,0,0.3,0c2.5,0.1,4.2-1,4.2-1
							c0-1,0-1.9,0-2.8v0v0c0-1.9-0.1-3.8-0.3-5.5c0,0,0,0,0,0c0-0.1,0-0.2,0-0.2c0-0.3,0-0.6-0.1-0.9c0-0.1,0-0.3,0-0.4
							c0-0.3-0.1-0.6-0.1-0.9c0,0,0,0,0,0c0,0,1.1,0.3,3,0.5c-0.3,2.4-0.6,5.1-0.6,8.1c0,0,0,0,0,0c0,1,0,2,0,3c0,0,2.2,1.5,5.3,1.5
							c1,0,1.8-0.1,2.5-0.3v0c0,0,0,0,0,0c0.2-0.1,0.4-0.1,0.6-0.2c0,0,0,0,0.1,0c0.2-0.1,0.3-0.1,0.4-0.2c0,0,0.1,0,0.1,0
							c0.3-0.1,0.6-0.2,0.8-0.4c0,0,0,0,0.1,0c0.1,0,0.2-0.1,0.3-0.1c0,0,0,0,0,0c0.1,0,0.2-0.1,0.2-0.1c0,0,0,0,0,0
							c0,0,0.1-0.1,0.1-0.1c0,0,0,0,0,0c0,0,0,0,0,0c0-1,0-2,0-3c0,0,0,0,0-0.1c0,0,0,0,0,0c0-0.7,0-1.3-0.1-1.9l0,0
							c0,0,0-0.1,0-0.1c0-0.7-0.1-1.3-0.1-2c0-0.1,0-0.2,0-0.3c-0.1-0.6-0.1-1.3-0.2-1.9c0-0.1,0-0.2,0-0.3
							c-0.1-0.6-0.1-1.1-0.2-1.6c0,0,0.1,0,0.1,0v0c0,0,0,0,0.1,0c0.2,0,0.3,0,0.5-0.1c0,0,0,0,0.1,0c0.4-0.1,0.7-0.1,1-0.2
							c0,0,0,0,0.1,0c0.1,0,0.2,0,0.3-0.1c0,0,0,0,0.1,0c0.1,0,0.2,0,0.2,0c0,0,0,0,0.1,0c0,0,0.1,0,0.1,0c0,0.2,0,0.5-0.1,0.8
							c0,0.1,0,0.3,0,0.4c0,0.3,0,0.6-0.1,0.9c0,0.1,0,0.2,0,0.2c0,0,0,0,0,0c-0.1,1.7-0.2,3.5-0.3,5.5h0v0c0,0.9,0,1.9,0,2.8
							c0,0,1.7,1.1,4.2,1c0.1,0,0.2,0,0.3,0c0,0,0,0,0,0c2.3,0,3.9-1,3.9-1c0-0.5,0-1,0-1.6c0-0.1,0-0.3,0-0.4
							C33.2,67.8,33.2,67.4,33.2,67"/>
					</g>
				</g>
				<g class="st2">
					<g>
						<defs>
							<rect id="SVGID_15_" x="2.3" y="2.3" width="30.6" height="69.9"/>
						</defs>
						<clipPath id="SVGID_16_">
							<use xlink:href="#SVGID_15_"  style="overflow:visible;"/>
						</clipPath>
						<path class="st7" d="M32.8,66.7c0,0,0-0.1,0-0.1l0,0c-0.1-6.2-0.8-11.2-1.5-14.6c-0.2-1.1-0.5-2.1-1-2.9
							c-0.4-0.7-1.1-1.2-1.8-1.1c1.1-6.5,1.6-13.7,1.4-17.5c-0.2-5.7-0.7-8-0.8-8.5c0-0.1,0-0.3-0.1-0.4c0,0,0,0,0,0c0,0,0,0,0,0
							c0-0.1-0.1-0.2-0.1-0.3c0-0.1,0-0.1,0-0.2c0-0.1-0.1-0.2-0.1-0.4c0-0.1,0-0.1-0.1-0.2c0-0.1-0.1-0.3-0.1-0.4
							c0-0.1,0-0.1-0.1-0.2c0-0.1-0.1-0.3-0.1-0.4c0-0.1-0.1-0.2-0.1-0.2c-0.1-0.1-0.1-0.3-0.2-0.4c0-0.1-0.1-0.2-0.1-0.3
							C28.1,18.3,28,18.2,28,18c0-0.1-0.1-0.2-0.1-0.3c-0.1-0.1-0.1-0.3-0.2-0.4c0-0.1-0.1-0.2-0.1-0.3c-0.1-0.1-0.1-0.3-0.2-0.4
							c0-0.1-0.1-0.2-0.1-0.3C27.1,16.2,27,16,27,15.9c0-0.1-0.1-0.2-0.1-0.3c-0.1-0.2-0.2-0.3-0.2-0.5c-0.1-0.1-0.1-0.2-0.2-0.3
							c-0.1-0.1-0.2-0.3-0.2-0.4c-0.1-0.1-0.1-0.2-0.2-0.3c-0.1-0.1-0.2-0.3-0.2-0.4c-0.1-0.1-0.1-0.2-0.2-0.3
							c-0.1-0.2-0.2-0.3-0.2-0.5c-0.1-0.1-0.1-0.2-0.2-0.3c-0.1-0.2-0.2-0.3-0.3-0.5c-0.1-0.1-0.1-0.2-0.2-0.3
							c-0.1-0.1-0.2-0.3-0.3-0.4c-0.1-0.1-0.1-0.2-0.2-0.3c-0.1-0.1-0.2-0.3-0.3-0.4c-0.1-0.1-0.1-0.2-0.2-0.3
							c-0.1-0.1-0.2-0.3-0.3-0.4c-0.1-0.1-0.1-0.2-0.2-0.3c-0.1-0.1-0.2-0.3-0.2-0.4c-0.1-0.1-0.1-0.2-0.2-0.3
							c-0.1-0.1-0.2-0.3-0.2-0.4c-0.1-0.1-0.1-0.2-0.2-0.3c-0.1-0.1-0.2-0.3-0.2-0.4c-0.1-0.1-0.1-0.2-0.2-0.3
							c-0.1-0.1-0.2-0.2-0.2-0.4C22,7.1,21.9,7,21.9,6.9c-0.1-0.1-0.1-0.2-0.2-0.3c-0.1-0.1-0.1-0.2-0.2-0.3
							c-0.1-0.1-0.1-0.2-0.2-0.3c-0.1-0.1-0.1-0.2-0.2-0.2C21.1,5.7,21,5.6,21,5.5c-0.1-0.1-0.1-0.2-0.2-0.3
							c-0.1-0.1-0.1-0.2-0.2-0.2c-0.1-0.1-0.1-0.2-0.2-0.2c0-0.1-0.1-0.1-0.1-0.2c0-0.1-0.1-0.1-0.1-0.2c0-0.1-0.1-0.1-0.1-0.2
							C20,4.1,20,4,19.9,3.9c0-0.1-0.1-0.1-0.1-0.2c0-0.1-0.1-0.1-0.1-0.2c0,0-0.1-0.1-0.1-0.1c0-0.1-0.1-0.1-0.1-0.1
							c0,0,0-0.1-0.1-0.1c0-0.1-0.1-0.1-0.1-0.1c0,0,0,0,0,0c0,0-0.1-0.1-0.1-0.1c-0.6-0.6-1.2-0.7-1.5-0.7c0,0,0,0-0.1,0v0
							c-0.3,0-0.9,0.1-1.4,0.7c0,0-0.1,0.1-0.1,0.1c0,0,0,0,0,0.1c0,0-0.1,0.1-0.1,0.1c0,0,0,0.1-0.1,0.1c0,0-0.1,0.1-0.1,0.1
							c0,0-0.1,0.1-0.1,0.1c0,0.1-0.1,0.1-0.1,0.2c0,0-0.1,0.1-0.1,0.2c0,0.1-0.1,0.1-0.1,0.2c0,0.1-0.1,0.1-0.1,0.2
							c0,0.1-0.1,0.1-0.1,0.2c0,0.1-0.1,0.2-0.2,0.2c0,0.1-0.1,0.2-0.2,0.2c-0.1,0.1-0.1,0.2-0.2,0.3c-0.1,0.1-0.1,0.2-0.2,0.2
							c-0.1,0.1-0.1,0.2-0.2,0.3c0,0.1-0.1,0.2-0.1,0.2c-0.1,0.1-0.1,0.2-0.2,0.3c0,0.1-0.1,0.2-0.1,0.2c-0.1,0.1-0.1,0.2-0.2,0.4
							c-0.1,0.1-0.1,0.2-0.2,0.3c-0.1,0.1-0.2,0.2-0.2,0.4c-0.1,0.1-0.1,0.2-0.2,0.3c-0.1,0.1-0.2,0.3-0.2,0.4
							c-0.1,0.1-0.1,0.2-0.2,0.3c-0.1,0.1-0.2,0.3-0.3,0.4c-0.1,0.1-0.1,0.2-0.2,0.3c-0.1,0.1-0.2,0.3-0.3,0.5
							c-0.1,0.1-0.1,0.2-0.2,0.3c-0.1,0.2-0.2,0.3-0.3,0.5c-0.1,0.1-0.1,0.2-0.2,0.3c-0.1,0.2-0.2,0.3-0.3,0.5
							c-0.1,0.1-0.1,0.2-0.2,0.3c-0.1,0.2-0.2,0.3-0.3,0.5c-0.1,0.1-0.1,0.2-0.2,0.3c-0.1,0.2-0.2,0.3-0.3,0.5
							c0,0.1-0.1,0.2-0.2,0.3C10,13,9.9,13.2,9.8,13.3c-0.1,0.1-0.1,0.2-0.2,0.3c-0.1,0.2-0.2,0.3-0.3,0.5c0,0.1-0.1,0.2-0.1,0.3
							c-0.1,0.2-0.2,0.3-0.3,0.5c0,0.1-0.1,0.2-0.1,0.3c-0.1,0.2-0.2,0.3-0.2,0.5c0,0.1-0.1,0.2-0.1,0.3c-0.1,0.2-0.2,0.3-0.2,0.5
							c0,0.1-0.1,0.2-0.1,0.3c-0.1,0.2-0.1,0.3-0.2,0.5c0,0.1-0.1,0.2-0.1,0.3c-0.1,0.2-0.1,0.3-0.2,0.5c0,0.1-0.1,0.2-0.1,0.2
							c-0.1,0.1-0.1,0.3-0.2,0.4c0,0.1-0.1,0.2-0.1,0.2C7.2,18.8,7.1,19,7,19.1C7,19.2,7,19.3,7,19.3c-0.1,0.1-0.1,0.3-0.1,0.4
							c0,0.1,0,0.1-0.1,0.2c0,0.1-0.1,0.3-0.1,0.4c0,0.1,0,0.1-0.1,0.2c0,0.1-0.1,0.3-0.1,0.4c0,0.1,0,0.1,0,0.2
							c0,0.1-0.1,0.2-0.1,0.3c0,0,0,0,0,0c0,0,0,0,0,0c0,0.1-0.1,0.3-0.1,0.4c-0.1,0.5-0.6,2.8-0.8,8.5C5.3,34,5.7,40.7,6.7,46.9
							c0,0,0,0,0,0c0,0,0,0.1,0,0.1c0,0.2,0.1,0.4,0.1,0.6c0,0.1,0,0.3,0.1,0.4c-0.8-0.3-1.6,0.2-2.1,1.1c-0.5,0.8-0.8,1.8-1,2.9
							c-0.6,3.4-1.3,8.5-1.5,14.6l0,0c0,0,0,0.1,0,0.1c0,0.4,0,0.8,0,1.1c0,0.1,0,0.3,0,0.4c0,0.5,0,1,0,1.6c0,0,1.6,1,3.9,1
							c0,0,0,0,0,0c0.1,0,0.2,0,0.3,0c2.5,0.1,4.2-1,4.2-1c0-1,0-1.9,0-2.8c0,0,0,0,0,0c0-1.9-0.1-3.8-0.3-5.5c0,0,0,0,0,0
							c0-0.1,0-0.2,0-0.2c0-0.3,0-0.6-0.1-0.9c0-0.1,0-0.3,0-0.4c0-0.3-0.1-0.6-0.1-0.9c0,0,0,0,0,0c0,0,1.1,0.3,3,0.5
							c-0.3,2.4-0.6,5.1-0.6,8.1l0,0c0,0,0,0,0,0c0,1,0,2,0,3c0,0,2.2,1.5,5.3,1.5c1,0,1.8-0.1,2.5-0.3v0c0,0,0,0,0,0
							c0.2,0,0.4-0.1,0.6-0.2c0,0,0,0,0.1,0c0.2-0.1,0.3-0.1,0.4-0.2c0,0,0.1,0,0.1,0c0.3-0.1,0.6-0.2,0.8-0.4c0,0,0,0,0.1,0
							c0.1,0,0.2-0.1,0.3-0.1c0,0,0,0,0,0c0.1,0,0.2-0.1,0.2-0.1c0,0,0,0,0,0c0,0,0.1-0.1,0.1-0.1c0,0,0,0,0,0c0,0,0,0,0,0
							c0-1,0-2,0-3c0,0,0,0,0-0.1h0c0-0.7,0-1.3-0.1-1.9h0c0,0,0-0.1,0-0.1c0-0.7-0.1-1.3-0.1-2c0-0.1,0-0.2,0-0.3
							c-0.1-0.6-0.1-1.3-0.2-1.9c0-0.1,0-0.2,0-0.3c-0.1-0.6-0.1-1.1-0.2-1.6c0,0,0.1,0,0.1,0v0c0,0,0,0,0.1,0c0.2,0,0.3,0,0.5-0.1
							c0,0,0,0,0.1,0c0.4-0.1,0.7-0.1,1-0.2c0,0,0,0,0.1,0c0.1,0,0.2,0,0.3-0.1c0,0,0,0,0.1,0c0.1,0,0.2,0,0.2,0c0,0,0,0,0.1,0
							c0,0,0.1,0,0.1,0c0,0.2,0,0.5-0.1,0.8c0,0.1,0,0.3,0,0.4c0,0.3,0,0.6-0.1,0.9c0,0.1,0,0.2,0,0.2c0,0,0,0,0,0
							c-0.1,1.7-0.2,3.5-0.3,5.5h0v0c0,0.9,0,1.9,0,2.8c0,0,1.7,1.1,4.2,1c0.1,0,0.2,0,0.3,0v0c2.3,0,3.9-1,3.9-1c0-0.5,0-1,0-1.6
							c0-0.1,0-0.3,0-0.4C32.9,67.4,32.8,67.1,32.8,66.7"/>
					</g>
				</g>
				<g class="st2">
					<g>
						<defs>
							<rect id="SVGID_17_" x="2" y="2" width="30.6" height="69.9"/>
						</defs>
						<clipPath id="SVGID_18_">
							<use xlink:href="#SVGID_17_"  style="overflow:visible;"/>
						</clipPath>
						<path class="st8" d="M32.5,66.3c0,0,0-0.1,0-0.1c0,0,0,0,0,0C32.4,60,31.7,55,31,51.6c-0.2-1.1-0.5-2.1-1-2.9
							c-0.4-0.7-1.1-1.2-1.8-1.1c1.1-6.5,1.6-13.7,1.4-17.5c-0.2-5.7-0.7-8-0.8-8.5c0-0.1,0-0.3-0.1-0.4c0,0,0,0,0,0c0,0,0,0,0,0
							c0-0.1-0.1-0.2-0.1-0.3c0-0.1,0-0.1,0-0.2c0-0.1-0.1-0.2-0.1-0.4c0-0.1,0-0.1-0.1-0.2c0-0.1-0.1-0.3-0.1-0.4
							c0-0.1,0-0.1-0.1-0.2c0-0.1-0.1-0.3-0.1-0.4c0-0.1-0.1-0.2-0.1-0.2c-0.1-0.1-0.1-0.3-0.2-0.4c0-0.1-0.1-0.2-0.1-0.2
							c-0.1-0.1-0.1-0.3-0.2-0.4c0-0.1-0.1-0.2-0.1-0.3c-0.1-0.1-0.1-0.3-0.2-0.4c0-0.1-0.1-0.2-0.1-0.3c-0.1-0.1-0.1-0.3-0.2-0.4
							c0-0.1-0.1-0.2-0.1-0.3c-0.1-0.1-0.1-0.3-0.2-0.5c0-0.1-0.1-0.2-0.1-0.3c-0.1-0.2-0.2-0.3-0.2-0.5c-0.1-0.1-0.1-0.2-0.2-0.3
							c-0.1-0.1-0.2-0.3-0.2-0.4c-0.1-0.1-0.1-0.2-0.2-0.3c-0.1-0.1-0.2-0.3-0.2-0.4c-0.1-0.1-0.1-0.2-0.2-0.3
							c-0.1-0.2-0.2-0.3-0.2-0.5c-0.1-0.1-0.1-0.2-0.2-0.3c-0.1-0.2-0.2-0.3-0.3-0.5c-0.1-0.1-0.1-0.2-0.2-0.3
							c-0.1-0.1-0.2-0.3-0.3-0.4c-0.1-0.1-0.1-0.2-0.2-0.3c-0.1-0.1-0.2-0.3-0.3-0.4c-0.1-0.1-0.1-0.2-0.2-0.3
							c-0.1-0.1-0.2-0.3-0.3-0.4c-0.1-0.1-0.1-0.2-0.2-0.3C23.1,9.1,23,9,22.9,8.9c-0.1-0.1-0.1-0.2-0.2-0.3
							c-0.1-0.1-0.2-0.3-0.2-0.4c-0.1-0.1-0.1-0.2-0.2-0.3c-0.1-0.1-0.2-0.3-0.2-0.4c-0.1-0.1-0.1-0.2-0.2-0.3
							c-0.1-0.1-0.2-0.2-0.2-0.4c-0.1-0.1-0.1-0.2-0.2-0.3c-0.1-0.1-0.1-0.2-0.2-0.3c-0.1-0.1-0.1-0.2-0.2-0.3
							C21.1,5.9,21,5.8,21,5.7c-0.1-0.1-0.1-0.2-0.2-0.2c-0.1-0.1-0.1-0.2-0.2-0.3c-0.1-0.1-0.1-0.2-0.2-0.3
							c-0.1-0.1-0.1-0.2-0.2-0.2c-0.1-0.1-0.1-0.2-0.2-0.2c0-0.1-0.1-0.1-0.1-0.2c0-0.1-0.1-0.1-0.1-0.2c0-0.1-0.1-0.1-0.1-0.2
							c0-0.1-0.1-0.1-0.1-0.2c0-0.1-0.1-0.1-0.1-0.2c0-0.1-0.1-0.1-0.1-0.2c0,0-0.1-0.1-0.1-0.1c0-0.1-0.1-0.1-0.1-0.2
							c0,0,0-0.1-0.1-0.1c0-0.1-0.1-0.1-0.1-0.1c0,0,0,0,0,0c0,0-0.1-0.1-0.1-0.1C18.3,2,17.7,2,17.4,2c0,0,0,0-0.1,0h0
							C17,2,16.4,2,15.9,2.6c0,0-0.1,0.1-0.1,0.1c0,0,0,0,0,0.1c0,0-0.1,0.1-0.1,0.1c0,0,0,0.1-0.1,0.1c0,0-0.1,0.1-0.1,0.2
							c0,0-0.1,0.1-0.1,0.1c0,0.1-0.1,0.1-0.1,0.2c0,0-0.1,0.1-0.1,0.2c0,0.1-0.1,0.1-0.1,0.2C15,3.9,15,3.9,14.9,4
							c0,0.1-0.1,0.1-0.1,0.2c0,0.1-0.1,0.2-0.2,0.2c0,0.1-0.1,0.2-0.2,0.2c-0.1,0.1-0.1,0.2-0.2,0.3c-0.1,0.1-0.1,0.2-0.2,0.2
							C14.1,5.2,14,5.3,14,5.4c0,0.1-0.1,0.2-0.1,0.2c-0.1,0.1-0.1,0.2-0.2,0.3c0,0.1-0.1,0.2-0.1,0.2c-0.1,0.1-0.1,0.2-0.2,0.4
							c-0.1,0.1-0.1,0.2-0.2,0.3C13,7,12.9,7.1,12.8,7.2c-0.1,0.1-0.1,0.2-0.2,0.3c-0.1,0.1-0.2,0.3-0.2,0.4
							c-0.1,0.1-0.1,0.2-0.2,0.3c-0.1,0.1-0.2,0.3-0.3,0.4l-0.2,0.3c-0.1,0.1-0.2,0.3-0.3,0.5c0,0.1-0.1,0.2-0.2,0.3
							c-0.1,0.1-0.2,0.3-0.3,0.5c-0.1,0.1-0.1,0.2-0.2,0.3c-0.1,0.2-0.2,0.3-0.3,0.5c-0.1,0.1-0.1,0.2-0.2,0.3
							c-0.1,0.2-0.2,0.3-0.3,0.5c-0.1,0.1-0.1,0.2-0.2,0.3c-0.1,0.2-0.2,0.3-0.3,0.5c0,0.1-0.1,0.2-0.2,0.3
							c-0.1,0.2-0.2,0.3-0.3,0.5c-0.1,0.1-0.1,0.2-0.2,0.3c-0.1,0.2-0.2,0.3-0.3,0.5C9,13.9,9,14,8.9,14c-0.1,0.2-0.2,0.3-0.3,0.5
							c0,0.1-0.1,0.2-0.1,0.3c-0.1,0.2-0.2,0.3-0.2,0.5c0,0.1-0.1,0.2-0.1,0.3C8.1,15.7,8,15.9,7.9,16c0,0.1-0.1,0.2-0.1,0.3
							c-0.1,0.2-0.1,0.3-0.2,0.5c0,0.1-0.1,0.2-0.1,0.3c-0.1,0.2-0.1,0.3-0.2,0.5c0,0.1-0.1,0.2-0.1,0.2C7.1,17.8,7,18,7,18.1
							c0,0.1-0.1,0.2-0.1,0.2c-0.1,0.1-0.1,0.3-0.2,0.4c0,0.1-0.1,0.1-0.1,0.2c-0.1,0.1-0.1,0.3-0.1,0.4c0,0.1,0,0.1-0.1,0.2
							c0,0.1-0.1,0.3-0.1,0.4c0,0.1,0,0.1-0.1,0.2c0,0.1-0.1,0.3-0.1,0.4c0,0.1,0,0.1,0,0.2C6.1,20.9,6,21,6,21.1c0,0,0,0,0,0
							c0,0,0,0,0,0c0,0.1-0.1,0.3-0.1,0.4C5.8,22,5.3,24.3,5.1,30C5,33.7,5.4,40.4,6.4,46.6c0,0,0,0,0,0c0,0,0,0.1,0,0.1
							c0,0.2,0.1,0.4,0.1,0.6c0,0.1,0,0.3,0.1,0.4c-0.8-0.3-1.6,0.2-2.1,1.1c-0.5,0.8-0.8,1.8-1,2.9C2.8,55,2.1,60,2,66.2
							c0,0,0,0,0,0c0,0,0,0.1,0,0.1c0,0.4,0,0.8,0,1.1c0,0.1,0,0.3,0,0.4c0,0.5,0,1,0,1.6c0,0,1.6,1,3.9,1c0,0,0,0,0,0
							c0.1,0,0.2,0,0.3,0c2.5,0.1,4.2-1,4.2-1c0-1,0-1.9,0-2.8c0,0,0,0,0,0c0-1.9-0.1-3.8-0.3-5.5c0,0,0,0,0,0c0-0.1,0-0.2,0-0.2
							c0-0.3,0-0.6-0.1-0.9c0-0.1,0-0.3,0-0.4c0-0.3-0.1-0.6-0.1-0.9c0,0,0,0,0,0c0,0,1.1,0.3,3,0.5c-0.3,2.4-0.6,5.1-0.6,8.1
							c0,0,0,0,0,0v0c0,1,0,2,0,3c0,0,2.2,1.5,5.3,1.5c1,0,1.8-0.1,2.6-0.3v0c0,0,0,0,0,0c0.2-0.1,0.4-0.1,0.6-0.2c0,0,0,0,0.1,0
							c0.2-0.1,0.3-0.1,0.4-0.2c0,0,0.1,0,0.1,0c0.3-0.1,0.6-0.2,0.8-0.4c0,0,0,0,0.1,0c0.1,0,0.2-0.1,0.3-0.1c0,0,0,0,0,0
							c0.1,0,0.2-0.1,0.2-0.1c0,0,0,0,0,0c0,0,0.1-0.1,0.1-0.1c0,0,0,0,0,0c0,0,0,0,0,0c0-1,0-2,0-3c0,0,0,0,0-0.1l0,0
							c0-0.7,0-1.3-0.1-1.9h0c0,0,0-0.1,0-0.1c0-0.7-0.1-1.3-0.1-2c0-0.1,0-0.2,0-0.3c-0.1-0.6-0.1-1.3-0.2-1.9c0-0.1,0-0.2,0-0.3
							c-0.1-0.6-0.1-1.1-0.2-1.6c0,0,0.1,0,0.1,0v0c0,0,0,0,0.1,0c0.2,0,0.3,0,0.5-0.1c0,0,0,0,0.1,0c0.4-0.1,0.7-0.1,1-0.2
							c0,0,0,0,0.1,0c0.1,0,0.2,0,0.3-0.1c0,0,0,0,0.1,0c0.1,0,0.2,0,0.2,0c0,0,0,0,0.1,0c0,0,0.1,0,0.1,0c0,0.2,0,0.5-0.1,0.8
							c0,0.1,0,0.3,0,0.4c0,0.3,0,0.6-0.1,0.9c0,0.1,0,0.2,0,0.2l0,0c-0.1,1.7-0.2,3.5-0.3,5.5c0,0,0,0,0,0c0,0.9,0,1.9,0,2.8
							c0,0,1.7,1.1,4.2,1c0.1,0,0.2,0,0.3,0c0,0,0,0,0,0c2.3,0,3.9-1,3.9-1c0-0.5,0-1,0-1.6c0-0.1,0-0.3,0-0.4
							C32.5,67.1,32.5,66.7,32.5,66.3"/>
					</g>
				</g>
				<g class="st2">
					<g>
						<defs>
							<rect id="SVGID_19_" x="1.6" y="1.6" width="30.6" height="69.9"/>
						</defs>
						<clipPath id="SVGID_20_">
							<use xlink:href="#SVGID_19_"  style="overflow:visible;"/>
						</clipPath>
						<path class="st9" d="M32.2,66c0,0,0-0.1,0-0.1c0,0,0,0,0,0c-0.1-6.2-0.8-11.2-1.5-14.6c-0.2-1.1-0.5-2.1-1-2.9
							c-0.4-0.7-1.1-1.2-1.8-1.1c1.1-6.5,1.6-13.7,1.4-17.5c-0.2-5.7-0.7-8-0.8-8.5c0-0.1,0-0.3-0.1-0.4h0c0,0,0,0,0,0
							c0-0.1-0.1-0.2-0.1-0.3c0-0.1,0-0.1,0-0.2c0-0.1-0.1-0.2-0.1-0.4c0-0.1,0-0.1-0.1-0.2c0-0.1-0.1-0.3-0.1-0.4
							c0-0.1,0-0.1-0.1-0.2c0-0.1-0.1-0.3-0.1-0.4c0-0.1-0.1-0.2-0.1-0.2c-0.1-0.1-0.1-0.3-0.2-0.4c0-0.1-0.1-0.2-0.1-0.2
							c-0.1-0.1-0.1-0.3-0.2-0.4c0-0.1-0.1-0.2-0.1-0.3c-0.1-0.1-0.1-0.3-0.2-0.4c0-0.1-0.1-0.2-0.1-0.3c-0.1-0.1-0.1-0.3-0.2-0.4
							c0-0.1-0.1-0.2-0.1-0.3c-0.1-0.1-0.1-0.3-0.2-0.5c0-0.1-0.1-0.2-0.1-0.3c-0.1-0.2-0.2-0.3-0.2-0.5c-0.1-0.1-0.1-0.2-0.2-0.3
							c-0.1-0.1-0.2-0.3-0.2-0.4c-0.1-0.1-0.1-0.2-0.2-0.3c-0.1-0.1-0.2-0.3-0.2-0.4c-0.1-0.1-0.1-0.2-0.2-0.3
							c-0.1-0.2-0.2-0.3-0.2-0.5c-0.1-0.1-0.1-0.2-0.2-0.3c-0.1-0.2-0.2-0.3-0.3-0.5c-0.1-0.1-0.1-0.2-0.2-0.3
							c-0.1-0.1-0.2-0.3-0.3-0.4c-0.1-0.1-0.1-0.2-0.2-0.3c-0.1-0.1-0.2-0.3-0.3-0.4c-0.1-0.1-0.1-0.2-0.2-0.3
							c-0.1-0.1-0.2-0.3-0.3-0.4C23,9.1,22.9,9.1,22.9,9c-0.1-0.1-0.2-0.3-0.2-0.4c-0.1-0.1-0.1-0.2-0.2-0.3
							c-0.1-0.1-0.2-0.3-0.2-0.4c-0.1-0.1-0.1-0.2-0.2-0.3c-0.1-0.1-0.2-0.3-0.2-0.4c-0.1-0.1-0.1-0.2-0.2-0.3
							c-0.1-0.1-0.2-0.2-0.2-0.4c-0.1-0.1-0.1-0.2-0.2-0.3C21.2,6.2,21.1,6,21,5.9c-0.1-0.1-0.1-0.2-0.2-0.3
							c-0.1-0.1-0.1-0.2-0.2-0.3c-0.1-0.1-0.1-0.2-0.2-0.2c-0.1-0.1-0.1-0.2-0.2-0.3c-0.1-0.1-0.1-0.2-0.2-0.3
							C20.1,4.5,20,4.4,20,4.3c-0.1-0.1-0.1-0.2-0.2-0.2c0-0.1-0.1-0.1-0.1-0.2c0-0.1-0.1-0.1-0.1-0.2c0-0.1-0.1-0.1-0.1-0.2
							c0-0.1-0.1-0.1-0.1-0.2c0-0.1-0.1-0.1-0.1-0.2c0-0.1-0.1-0.1-0.1-0.2c0,0-0.1-0.1-0.1-0.1c0-0.1-0.1-0.1-0.1-0.1
							c0,0,0-0.1-0.1-0.1c0-0.1-0.1-0.1-0.1-0.1c0,0,0,0,0,0c0,0-0.1-0.1-0.1-0.1c-0.6-0.6-1.2-0.7-1.5-0.7c0,0,0,0-0.1,0v0
							c-0.3,0-0.9,0.1-1.4,0.7c0,0-0.1,0.1-0.1,0.1c0,0,0,0,0,0.1c0,0-0.1,0.1-0.1,0.1c0,0,0,0.1-0.1,0.1c0,0-0.1,0.1-0.1,0.1
							c0,0-0.1,0.1-0.1,0.1C15.1,3,15,3.1,15,3.1c0,0-0.1,0.1-0.1,0.2c0,0.1-0.1,0.1-0.1,0.2c0,0.1-0.1,0.1-0.1,0.2
							c0,0.1-0.1,0.1-0.1,0.2c0,0.1-0.1,0.2-0.2,0.2c0,0.1-0.1,0.2-0.2,0.2C14.1,4.4,14,4.5,14,4.6c-0.1,0.1-0.1,0.2-0.2,0.2
							c-0.1,0.1-0.1,0.2-0.2,0.3c0,0.1-0.1,0.2-0.1,0.2c-0.1,0.1-0.1,0.2-0.2,0.3c0,0.1-0.1,0.2-0.1,0.2C13.1,6,13,6.2,12.9,6.3
							c-0.1,0.1-0.1,0.2-0.2,0.3c-0.1,0.1-0.2,0.2-0.2,0.4c-0.1,0.1-0.1,0.2-0.2,0.3c-0.1,0.1-0.2,0.3-0.2,0.4
							c-0.1,0.1-0.1,0.2-0.2,0.3c-0.1,0.1-0.2,0.3-0.3,0.4c-0.1,0.1-0.1,0.2-0.2,0.3c-0.1,0.1-0.2,0.3-0.3,0.5
							c-0.1,0.1-0.1,0.2-0.2,0.3c-0.1,0.2-0.2,0.3-0.3,0.5c-0.1,0.1-0.1,0.2-0.2,0.3c-0.1,0.2-0.2,0.3-0.3,0.5
							c-0.1,0.1-0.1,0.2-0.2,0.3c-0.1,0.2-0.2,0.3-0.3,0.5l-0.2,0.3c-0.1,0.2-0.2,0.3-0.3,0.5l-0.2,0.3c-0.1,0.2-0.2,0.3-0.3,0.5
							C9.1,12.8,9.1,12.9,9,13c-0.1,0.2-0.2,0.3-0.3,0.5c0,0.1-0.1,0.2-0.1,0.3c-0.1,0.2-0.2,0.3-0.3,0.5c0,0.1-0.1,0.2-0.1,0.3
							c-0.1,0.2-0.2,0.3-0.2,0.5c0,0.1-0.1,0.2-0.1,0.3c-0.1,0.2-0.2,0.3-0.2,0.5c0,0.1-0.1,0.2-0.1,0.3c-0.1,0.2-0.1,0.3-0.2,0.5
							c0,0.1-0.1,0.2-0.1,0.3C7.1,16.8,7,17,7,17.1c0,0.1-0.1,0.2-0.1,0.2c-0.1,0.1-0.1,0.3-0.2,0.4c0,0.1-0.1,0.2-0.1,0.2
							c-0.1,0.1-0.1,0.3-0.2,0.4c0,0.1-0.1,0.1-0.1,0.2c-0.1,0.1-0.1,0.3-0.1,0.4c0,0.1,0,0.1-0.1,0.2C6,19.4,6,19.6,6,19.7
							c0,0.1,0,0.1-0.1,0.2c0,0.1-0.1,0.3-0.1,0.4c0,0.1,0,0.1,0,0.2c0,0.1-0.1,0.2-0.1,0.3c0,0,0,0,0,0h0c0,0.1-0.1,0.3-0.1,0.4
							C5.5,21.7,5,24,4.8,29.7C4.7,33.3,5.1,40,6.1,46.2l0,0c0,0,0,0.1,0,0.1c0,0.2,0.1,0.4,0.1,0.6c0,0.1,0,0.3,0.1,0.4
							c-0.8-0.3-1.6,0.2-2.1,1.1c-0.5,0.8-0.8,1.8-1,2.9c-0.6,3.4-1.3,8.5-1.5,14.6c0,0,0,0,0,0c0,0,0,0.1,0,0.1c0,0.4,0,0.8,0,1.1
							c0,0.1,0,0.3,0,0.4c0,0.5,0,1,0,1.6c0,0,1.6,1,3.9,1c0,0,0,0,0,0c0.1,0,0.2,0,0.3,0c2.5,0.1,4.2-1,4.2-1c0-1,0-1.9,0-2.8v0
							c0-1.9-0.1-3.8-0.3-5.5l0,0c0-0.1,0-0.2,0-0.2c0-0.3,0-0.6-0.1-0.9c0-0.1,0-0.3,0-0.4c0-0.3-0.1-0.6-0.1-0.9c0,0,0,0,0,0
							c0,0,1.1,0.3,3,0.5C12.2,61.3,12,64,11.9,67h0c0,0,0,0,0,0c0,1,0,2,0,3c0,0,2.2,1.5,5.3,1.5c1,0,1.8-0.1,2.5-0.3v0
							c0,0,0,0,0,0c0.2-0.1,0.4-0.1,0.6-0.2c0,0,0,0,0.1,0c0.2-0.1,0.3-0.1,0.4-0.2c0,0,0.1,0,0.1,0c0.3-0.1,0.6-0.2,0.8-0.4
							c0,0,0,0,0.1,0c0.1,0,0.2-0.1,0.3-0.1c0,0,0,0,0,0c0.1,0,0.2-0.1,0.2-0.1c0,0,0,0,0,0c0,0,0.1-0.1,0.1-0.1c0,0,0,0,0,0l0,0
							c0-1,0-2,0-3c0,0,0,0,0-0.1h0c0-0.7,0-1.3-0.1-1.9c0,0,0,0,0,0c0,0,0-0.1,0-0.1c0-0.7-0.1-1.3-0.1-2c0-0.1,0-0.2,0-0.3
							c-0.1-0.6-0.1-1.3-0.2-1.9c0-0.1,0-0.2,0-0.3c-0.1-0.6-0.1-1.1-0.2-1.6c0,0,0.1,0,0.1,0c0,0,0,0,0.1,0c0.2,0,0.3,0,0.5-0.1
							c0,0,0,0,0.1,0c0.4-0.1,0.7-0.1,1-0.2c0,0,0,0,0.1,0c0.1,0,0.2,0,0.3-0.1c0,0,0,0,0.1,0c0.1,0,0.2,0,0.2,0c0,0,0,0,0.1,0
							c0,0,0.1,0,0.1,0c0,0.2,0,0.5-0.1,0.8c0,0.1,0,0.3,0,0.4c0,0.3,0,0.6-0.1,0.9c0,0.1,0,0.2,0,0.2c0,0,0,0,0,0
							c-0.1,1.7-0.2,3.5-0.3,5.5h0v0c0,0.9,0,1.9,0,2.8c0,0,1.7,1.1,4.2,1c0.1,0,0.2,0,0.3,0c0,0,0,0,0,0c2.3,0,3.9-1,3.9-1
							c0-0.5,0-1,0-1.6c0-0.1,0-0.3,0-0.4C32.2,66.8,32.2,66.4,32.2,66"/>
					</g>
				</g>
				<g class="st2">
					<g>
						<defs>
							<rect id="SVGID_21_" x="1.3" y="1.3" width="30.6" height="69.9"/>
						</defs>
						<clipPath id="SVGID_22_">
							<use xlink:href="#SVGID_21_"  style="overflow:visible;"/>
						</clipPath>
						<path class="st10" d="M31.9,65.7c0,0,0-0.1,0-0.1l0,0c-0.1-6.2-0.8-11.2-1.5-14.6c-0.2-1.1-0.5-2.1-1-2.9
							c-0.4-0.7-1.1-1.2-1.8-1.1c1.1-6.5,1.6-13.7,1.4-17.5c-0.2-5.7-0.7-8-0.8-8.5c0-0.1,0-0.3-0.1-0.4h0c0,0,0,0,0,0
							c0-0.1-0.1-0.2-0.1-0.3c0-0.1,0-0.1,0-0.2c0-0.1-0.1-0.2-0.1-0.4c0-0.1,0-0.1-0.1-0.2c0-0.1-0.1-0.3-0.1-0.4
							c0-0.1,0-0.1-0.1-0.2c0-0.1-0.1-0.3-0.1-0.4c0-0.1-0.1-0.2-0.1-0.2c-0.1-0.1-0.1-0.3-0.2-0.4c0-0.1-0.1-0.2-0.1-0.2
							C27.1,17.3,27,17.2,27,17c0-0.1-0.1-0.2-0.1-0.3c-0.1-0.1-0.1-0.3-0.2-0.4c0-0.1-0.1-0.2-0.1-0.3c-0.1-0.1-0.1-0.3-0.2-0.4
							c0-0.1-0.1-0.2-0.1-0.3c-0.1-0.1-0.1-0.3-0.2-0.4c0-0.1-0.1-0.2-0.1-0.3c-0.1-0.2-0.2-0.3-0.2-0.5c-0.1-0.1-0.1-0.2-0.2-0.3
							c-0.1-0.1-0.2-0.3-0.2-0.4c-0.1-0.1-0.1-0.2-0.2-0.3c-0.1-0.1-0.2-0.3-0.2-0.4c-0.1-0.1-0.1-0.2-0.2-0.3
							c-0.1-0.2-0.2-0.3-0.2-0.5c-0.1-0.1-0.1-0.2-0.2-0.3c-0.1-0.2-0.2-0.3-0.3-0.5c-0.1-0.1-0.1-0.2-0.2-0.3
							c-0.1-0.1-0.2-0.3-0.3-0.4c-0.1-0.1-0.1-0.2-0.2-0.3c-0.1-0.1-0.2-0.3-0.3-0.4C23.1,9.5,23,9.4,23,9.3
							c-0.1-0.1-0.2-0.3-0.3-0.4c-0.1-0.1-0.1-0.2-0.2-0.3c-0.1-0.1-0.2-0.3-0.2-0.4c-0.1-0.1-0.1-0.2-0.2-0.3
							C22,7.8,22,7.7,21.9,7.5c-0.1-0.1-0.1-0.2-0.2-0.3c-0.1-0.1-0.2-0.3-0.2-0.4c-0.1-0.1-0.1-0.2-0.2-0.3
							c-0.1-0.1-0.2-0.2-0.2-0.4C21,6.1,20.9,6,20.9,5.9c-0.1-0.1-0.1-0.2-0.2-0.3c-0.1-0.1-0.1-0.2-0.2-0.3
							c-0.1-0.1-0.1-0.2-0.2-0.3c-0.1-0.1-0.1-0.2-0.2-0.2C20.1,4.7,20,4.6,20,4.5c-0.1-0.1-0.1-0.2-0.2-0.3
							c-0.1-0.1-0.1-0.2-0.2-0.2c-0.1-0.1-0.1-0.2-0.2-0.2c0-0.1-0.1-0.1-0.1-0.2c0-0.1-0.1-0.1-0.1-0.2c0-0.1-0.1-0.1-0.1-0.2
							C19,3.1,19,3,19,2.9c0-0.1-0.1-0.1-0.1-0.2c0-0.1-0.1-0.1-0.1-0.2c0,0-0.1-0.1-0.1-0.1c0-0.1-0.1-0.1-0.1-0.1
							c0,0,0-0.1-0.1-0.1c0-0.1-0.1-0.1-0.1-0.1c0,0,0,0,0,0c0,0-0.1-0.1-0.1-0.1c-0.6-0.6-1.2-0.7-1.5-0.7c0,0,0,0-0.1,0v0
							c-0.3,0-0.9,0.1-1.4,0.7c0,0-0.1,0.1-0.1,0.1c0,0,0,0,0,0.1c0,0-0.1,0.1-0.1,0.1c0,0,0,0.1-0.1,0.1c0,0-0.1,0.1-0.1,0.1
							c0,0-0.1,0.1-0.1,0.1c0,0.1-0.1,0.1-0.1,0.2c0,0-0.1,0.1-0.1,0.2c0,0.1-0.1,0.1-0.1,0.2c0,0.1-0.1,0.1-0.1,0.2
							c0,0.1-0.1,0.1-0.1,0.2c0,0.1-0.1,0.2-0.2,0.2c0,0.1-0.1,0.2-0.2,0.2c-0.1,0.1-0.1,0.2-0.2,0.3c-0.1,0.1-0.1,0.2-0.2,0.2
							c-0.1,0.1-0.1,0.2-0.2,0.3c0,0.1-0.1,0.2-0.1,0.2c-0.1,0.1-0.1,0.2-0.2,0.3c0,0.1-0.1,0.2-0.1,0.2c-0.1,0.1-0.1,0.2-0.2,0.4
							c-0.1,0.1-0.1,0.2-0.2,0.3c-0.1,0.1-0.2,0.2-0.2,0.4c-0.1,0.1-0.1,0.2-0.2,0.3c-0.1,0.1-0.2,0.3-0.2,0.4
							c-0.1,0.1-0.1,0.2-0.2,0.3c-0.1,0.1-0.2,0.3-0.3,0.4c-0.1,0.1-0.1,0.2-0.2,0.3c-0.1,0.1-0.2,0.3-0.3,0.5
							c0,0.1-0.1,0.2-0.1,0.3c-0.1,0.2-0.2,0.3-0.3,0.5c-0.1,0.1-0.1,0.2-0.2,0.3c-0.1,0.2-0.2,0.3-0.3,0.5
							c-0.1,0.1-0.1,0.2-0.2,0.3c-0.1,0.2-0.2,0.3-0.3,0.5c-0.1,0.1-0.1,0.2-0.2,0.3c-0.1,0.2-0.2,0.3-0.3,0.5
							c-0.1,0.1-0.1,0.2-0.2,0.3C9,12,8.9,12.2,8.8,12.4c-0.1,0.1-0.1,0.2-0.2,0.3c-0.1,0.2-0.2,0.3-0.3,0.5c0,0.1-0.1,0.2-0.1,0.3
							c-0.1,0.2-0.2,0.3-0.3,0.5c0,0.1-0.1,0.2-0.1,0.3c-0.1,0.2-0.2,0.3-0.2,0.5c0,0.1-0.1,0.2-0.1,0.3c-0.1,0.2-0.2,0.3-0.2,0.5
							c0,0.1-0.1,0.2-0.1,0.3c-0.1,0.2-0.1,0.3-0.2,0.5c0,0.1-0.1,0.2-0.1,0.3c-0.1,0.2-0.1,0.3-0.2,0.5c0,0.1-0.1,0.2-0.1,0.2
							c-0.1,0.1-0.1,0.3-0.2,0.4c0,0.1-0.1,0.2-0.1,0.2c-0.1,0.1-0.1,0.3-0.2,0.4C6,18.2,6,18.3,6,18.4c-0.1,0.1-0.1,0.3-0.1,0.4
							c0,0.1,0,0.1-0.1,0.2c0,0.1-0.1,0.3-0.1,0.4c0,0.1,0,0.1-0.1,0.2c0,0.1-0.1,0.3-0.1,0.4c0,0.1,0,0.1,0,0.2
							c0,0.1-0.1,0.2-0.1,0.3c0,0,0,0,0,0h0c0,0.1-0.1,0.3-0.1,0.4c-0.1,0.5-0.6,2.8-0.8,8.5C4.3,33,4.8,39.7,5.7,45.9c0,0,0,0,0,0
							c0,0,0,0.1,0,0.1c0,0.2,0.1,0.4,0.1,0.6c0,0.1,0,0.3,0.1,0.4c-0.8-0.3-1.6,0.2-2.1,1.1c-0.5,0.8-0.8,1.8-1,2.9
							c-0.6,3.4-1.3,8.5-1.5,14.6c0,0,0,0,0,0c0,0,0,0.1,0,0.1c0,0.4,0,0.8,0,1.1c0,0.1,0,0.3,0,0.4c0,0.5,0,1,0,1.6
							c0,0,1.6,1,3.9,1c0,0,0,0,0,0c0.1,0,0.2,0,0.3,0c2.5,0.1,4.2-1,4.2-1c0-1,0-1.9,0-2.8v0c0-1.9-0.1-3.8-0.3-5.5c0,0,0,0,0,0
							c0-0.1,0-0.2,0-0.2c0-0.3,0-0.6-0.1-0.9c0-0.1,0-0.3,0-0.4c0-0.3-0.1-0.6-0.1-0.9c0,0,0,0,0,0c0,0,1.1,0.3,3,0.5
							c-0.3,2.4-0.6,5.1-0.6,8.1h0c0,0,0,0,0,0c0,1,0,2,0,3c0,0,2.2,1.5,5.3,1.5c1,0,1.8-0.1,2.5-0.3v0c0,0,0,0,0,0
							c0.2-0.1,0.4-0.1,0.6-0.2c0,0,0,0,0.1,0c0.2-0.1,0.3-0.1,0.4-0.2c0,0,0.1,0,0.1,0c0.3-0.1,0.6-0.2,0.8-0.4c0,0,0,0,0.1,0
							c0.1,0,0.2-0.1,0.3-0.1c0,0,0,0,0,0c0.1,0,0.2-0.1,0.2-0.1c0,0,0,0,0,0c0,0,0.1-0.1,0.1-0.1c0,0,0,0,0,0c0,0,0,0,0,0
							c0-1,0-2,0-3c0,0,0,0,0-0.1c0,0,0,0,0,0c0-0.7,0-1.3-0.1-1.9h0c0,0,0-0.1,0-0.1c0-0.7-0.1-1.3-0.1-2c0-0.1,0-0.2,0-0.3
							c-0.1-0.6-0.1-1.3-0.2-1.9c0-0.1,0-0.2,0-0.3c-0.1-0.6-0.1-1.1-0.2-1.6c0,0,0.1,0,0.1,0v0c0,0,0,0,0.1,0c0.2,0,0.3,0,0.5-0.1
							c0,0,0,0,0.1,0c0.4-0.1,0.7-0.1,1-0.2c0,0,0,0,0.1,0c0.1,0,0.2,0,0.3-0.1c0,0,0,0,0.1,0c0.1,0,0.2,0,0.2,0c0,0,0,0,0.1,0
							c0,0,0.1,0,0.1,0c0,0.2,0,0.5-0.1,0.8c0,0.1,0,0.3,0,0.4c0,0.3,0,0.6-0.1,0.9c0,0.1,0,0.2,0,0.2c0,0,0,0,0,0
							c-0.1,1.7-0.2,3.5-0.3,5.5v0c0,0.9,0,1.9,0,2.8c0,0,1.7,1.1,4.2,1c0.1,0,0.2,0,0.3,0c0,0,0,0,0,0c2.3,0,3.9-1,3.9-1
							c0-0.5,0-1,0-1.6c0-0.1,0-0.3,0-0.4C31.9,66.4,31.9,66.1,31.9,65.7"/>
					</g>
				</g>
				<g class="st2">
					<g>
						<defs>
							<rect id="SVGID_23_" x="1" y="1" width="30.6" height="69.9"/>
						</defs>
						<clipPath id="SVGID_24_">
							<use xlink:href="#SVGID_23_"  style="overflow:visible;"/>
						</clipPath>
						<path class="st11" d="M31.5,65.4c0,0,0-0.1,0-0.1h0C31.4,59.1,30.7,54,30,50.6c-0.2-1.1-0.5-2.1-1-2.9
							c-0.4-0.7-1.1-1.2-1.8-1.1c1.1-6.5,1.6-13.7,1.4-17.5c-0.2-5.7-0.7-8-0.8-8.5c0-0.1,0-0.3-0.1-0.4h0c0,0,0,0,0,0
							c0-0.1-0.1-0.2-0.1-0.3c0-0.1,0-0.1,0-0.2c0-0.1-0.1-0.2-0.1-0.4c0-0.1,0-0.1-0.1-0.2c0-0.1-0.1-0.3-0.1-0.4
							c0-0.1,0-0.1-0.1-0.2c0-0.1-0.1-0.3-0.1-0.4c0-0.1-0.1-0.2-0.1-0.2c-0.1-0.1-0.1-0.3-0.2-0.4c0-0.1-0.1-0.2-0.1-0.2
							c-0.1-0.1-0.1-0.3-0.2-0.4c0-0.1-0.1-0.2-0.1-0.3c-0.1-0.1-0.1-0.3-0.2-0.4c0-0.1-0.1-0.2-0.1-0.3c-0.1-0.1-0.1-0.3-0.2-0.4
							c0-0.1-0.1-0.2-0.1-0.3c-0.1-0.1-0.1-0.3-0.2-0.5c0-0.1-0.1-0.2-0.1-0.3c-0.1-0.1-0.2-0.3-0.2-0.5c-0.1-0.1-0.1-0.2-0.2-0.3
							c-0.1-0.1-0.2-0.3-0.2-0.4c-0.1-0.1-0.1-0.2-0.2-0.3c-0.1-0.1-0.2-0.3-0.2-0.4c-0.1-0.1-0.1-0.2-0.2-0.3
							c-0.1-0.2-0.2-0.3-0.2-0.5c-0.1-0.1-0.1-0.2-0.2-0.3c-0.1-0.2-0.2-0.3-0.3-0.5c-0.1-0.1-0.1-0.2-0.2-0.3
							c-0.1-0.1-0.2-0.3-0.3-0.4c-0.1-0.1-0.1-0.2-0.2-0.3c-0.1-0.1-0.2-0.3-0.3-0.4c-0.1-0.1-0.1-0.2-0.2-0.3
							c-0.1-0.1-0.2-0.3-0.3-0.4c-0.1-0.1-0.1-0.2-0.2-0.3C22.1,8.2,22,8,22,7.9c-0.1-0.1-0.1-0.2-0.2-0.3c-0.1-0.1-0.2-0.3-0.2-0.4
							c-0.1-0.1-0.1-0.2-0.2-0.3c-0.1-0.1-0.2-0.3-0.2-0.4C21.1,6.4,21,6.3,21,6.2c-0.1-0.1-0.2-0.2-0.2-0.4
							c-0.1-0.1-0.1-0.2-0.2-0.3c-0.1-0.1-0.1-0.2-0.2-0.3c-0.1-0.1-0.1-0.2-0.2-0.3c-0.1-0.1-0.1-0.2-0.2-0.3
							c-0.1-0.1-0.1-0.2-0.2-0.2c-0.1-0.1-0.1-0.2-0.2-0.3c-0.1-0.1-0.1-0.2-0.2-0.3c-0.1-0.1-0.1-0.2-0.2-0.2
							c-0.1-0.1-0.1-0.2-0.2-0.2c0-0.1-0.1-0.1-0.1-0.2c0-0.1-0.1-0.1-0.1-0.2c0-0.1-0.1-0.1-0.1-0.2c0-0.1-0.1-0.1-0.1-0.2
							c0-0.1-0.1-0.1-0.1-0.2c0-0.1-0.1-0.1-0.1-0.2c0,0-0.1-0.1-0.1-0.1c0-0.1-0.1-0.1-0.1-0.1c0,0,0-0.1-0.1-0.1
							c0-0.1-0.1-0.1-0.1-0.1c0,0,0,0,0,0c0,0-0.1-0.1-0.1-0.1C17.3,1,16.7,1,16.4,1c0,0,0,0-0.1,0c0,0,0,0,0,0
							c-0.3,0-0.9,0.1-1.4,0.7c0,0-0.1,0.1-0.1,0.1c0,0,0,0,0,0.1c0,0-0.1,0.1-0.1,0.1c0,0,0,0.1-0.1,0.1c0,0-0.1,0.1-0.1,0.1
							c0,0-0.1,0.1-0.1,0.1c0,0.1-0.1,0.1-0.1,0.2c0,0-0.1,0.1-0.1,0.2c0,0.1-0.1,0.1-0.1,0.2C14,2.9,14,3,13.9,3
							c0,0.1-0.1,0.1-0.1,0.2c0,0.1-0.1,0.1-0.2,0.2c0,0.1-0.1,0.2-0.2,0.2s-0.1,0.2-0.2,0.3c-0.1,0.1-0.1,0.2-0.2,0.2
							c-0.1,0.1-0.1,0.2-0.2,0.3c0,0.1-0.1,0.2-0.1,0.2c-0.1,0.1-0.1,0.2-0.2,0.3c0,0.1-0.1,0.2-0.1,0.2c-0.1,0.1-0.1,0.2-0.2,0.4
							c-0.1,0.1-0.1,0.2-0.2,0.3C12,6,11.9,6.1,11.9,6.3c-0.1,0.1-0.1,0.2-0.2,0.3c-0.1,0.1-0.2,0.3-0.2,0.4
							c-0.1,0.1-0.1,0.2-0.2,0.3c-0.1,0.1-0.2,0.3-0.3,0.4c-0.1,0.1-0.1,0.2-0.2,0.3c-0.1,0.2-0.2,0.3-0.3,0.5
							c0,0.1-0.1,0.2-0.2,0.3c-0.1,0.2-0.2,0.3-0.3,0.5c-0.1,0.1-0.1,0.2-0.2,0.3C9.9,9.5,9.8,9.6,9.8,9.8C9.7,9.9,9.7,10,9.6,10
							c-0.1,0.2-0.2,0.3-0.3,0.5c-0.1,0.1-0.1,0.2-0.2,0.3C9.1,11,9,11.1,8.9,11.3c0,0.1-0.1,0.2-0.2,0.3c-0.1,0.2-0.2,0.3-0.3,0.5
							c-0.1,0.1-0.1,0.2-0.2,0.3c-0.1,0.2-0.2,0.3-0.3,0.5C8,12.9,8,13,7.9,13.1c-0.1,0.2-0.2,0.3-0.3,0.5c0,0.1-0.1,0.2-0.1,0.3
							c-0.1,0.2-0.2,0.3-0.2,0.5c0,0.1-0.1,0.2-0.1,0.3C7.1,14.7,7,14.9,7,15c0,0.1-0.1,0.2-0.1,0.3c-0.1,0.2-0.1,0.3-0.2,0.5
							c0,0.1-0.1,0.2-0.1,0.3c-0.1,0.2-0.1,0.3-0.2,0.5c0,0.1-0.1,0.2-0.1,0.2C6.1,16.8,6.1,17,6,17.1c0,0.1-0.1,0.2-0.1,0.2
							c-0.1,0.1-0.1,0.3-0.2,0.4c0,0.1-0.1,0.1-0.1,0.2c-0.1,0.1-0.1,0.3-0.1,0.4c0,0.1,0,0.1-0.1,0.2c0,0.1-0.1,0.3-0.1,0.4
							c0,0.1,0,0.1-0.1,0.2c0,0.1-0.1,0.3-0.1,0.4c0,0.1,0,0.1,0,0.2C5.1,19.9,5,20,5,20.1c0,0,0,0,0,0h0c0,0.1-0.1,0.3-0.1,0.4
							c-0.1,0.5-0.6,2.8-0.8,8.5C4,32.7,4.4,39.4,5.4,45.6c0,0,0,0,0,0c0,0,0,0.1,0,0.1c0,0.2,0.1,0.4,0.1,0.6c0,0.1,0,0.3,0.1,0.4
							c-0.8-0.3-1.6,0.2-2.1,1.1c-0.5,0.8-0.8,1.8-1,2.9C1.8,54,1.1,59.1,1,65.2h0c0,0,0,0.1,0,0.1c0,0.4,0,0.8,0,1.1
							c0,0.1,0,0.3,0,0.4c0,0.5,0,1,0,1.6c0,0,1.6,1,3.9,1c0,0,0,0,0,0c0.1,0,0.2,0,0.3,0c2.5,0.1,4.2-1,4.2-1c0-1,0-1.9,0-2.8
							c0,0,0,0,0,0c0-1.9-0.1-3.8-0.3-5.5c0,0,0,0,0,0c0-0.1,0-0.2,0-0.2C9,59.6,9,59.3,9,59c0-0.1,0-0.3,0-0.4
							c0-0.3-0.1-0.6-0.1-0.9c0,0,0,0,0,0c0,0,1.1,0.3,3,0.5c-0.3,2.4-0.6,5.1-0.6,8.1h0c0,0,0,0,0,0c0,1,0,2,0,3
							c0,0,2.2,1.5,5.3,1.5c1,0,1.8-0.1,2.5-0.3v0c0,0,0,0,0,0c0.2,0,0.4-0.1,0.6-0.2c0,0,0,0,0.1,0c0.2-0.1,0.3-0.1,0.4-0.2
							c0,0,0.1,0,0.1,0c0.3-0.1,0.6-0.2,0.8-0.4c0,0,0,0,0.1,0c0.1,0,0.2-0.1,0.3-0.1c0,0,0,0,0,0c0.1,0,0.2-0.1,0.2-0.1
							c0,0,0,0,0,0c0,0,0.1-0.1,0.1-0.1c0,0,0,0,0,0c0,0,0,0,0,0c0-1,0-2,0-3c0,0,0,0,0-0.1l0,0c0-0.7,0-1.3-0.1-1.9c0,0,0,0,0,0
							c0,0,0-0.1,0-0.1c0-0.7-0.1-1.3-0.1-2c0-0.1,0-0.2,0-0.3c-0.1-0.6-0.1-1.3-0.2-1.9c0-0.1,0-0.2,0-0.3
							c-0.1-0.6-0.1-1.1-0.2-1.6c0,0,0.1,0,0.1,0v0c0,0,0,0,0.1,0c0.2,0,0.3,0,0.5-0.1c0,0,0,0,0.1,0c0.4-0.1,0.7-0.1,1-0.2
							c0,0,0,0,0.1,0c0.1,0,0.2,0,0.3-0.1c0,0,0,0,0.1,0c0.1,0,0.2,0,0.2,0c0,0,0,0,0.1,0c0,0,0.1,0,0.1,0c0,0.2,0,0.5-0.1,0.8
							c0,0.1,0,0.3,0,0.4c0,0.3,0,0.6-0.1,0.9c0,0.1,0,0.2,0,0.2c0,0,0,0,0,0c-0.1,1.7-0.2,3.5-0.3,5.5v0c0,0.9,0,1.9,0,2.8
							c0,0,1.7,1.1,4.2,1c0.1,0,0.2,0,0.3,0c0,0,0,0,0,0c2.3,0,3.9-1,3.9-1c0-0.5,0-1,0-1.6c0-0.1,0-0.3,0-0.4
							C31.5,66.1,31.5,65.7,31.5,65.4"/>
					</g>
				</g>
				<g class="st2">
					<g>
						<defs>
							<rect id="SVGID_25_" x="0.7" y="0.7" width="30.6" height="69.9"/>
						</defs>
						<clipPath id="SVGID_26_">
							<use xlink:href="#SVGID_25_"  style="overflow:visible;"/>
						</clipPath>
						<path class="st12" d="M31.2,65c0,0,0-0.1,0-0.1c0,0,0,0,0,0c-0.1-6.2-0.8-11.2-1.5-14.6c-0.2-1.1-0.5-2.1-1-2.9
							c-0.4-0.7-1.1-1.2-1.8-1.1c1.1-6.5,1.6-13.7,1.4-17.5c-0.2-5.7-0.7-8-0.8-8.5c0-0.1,0-0.3-0.1-0.4h0c0,0,0,0,0,0
							c0-0.1-0.1-0.2-0.1-0.3c0-0.1,0-0.1,0-0.2c0-0.1-0.1-0.2-0.1-0.4c0-0.1,0-0.1-0.1-0.2c0-0.1-0.1-0.3-0.1-0.4
							c0-0.1,0-0.1-0.1-0.2c0-0.1-0.1-0.3-0.1-0.4c0-0.1-0.1-0.2-0.1-0.2c-0.1-0.1-0.1-0.3-0.2-0.4c0-0.1-0.1-0.2-0.1-0.3
							c-0.1-0.1-0.1-0.3-0.2-0.4c0-0.1-0.1-0.2-0.1-0.3c-0.1-0.1-0.1-0.3-0.2-0.4c0-0.1-0.1-0.2-0.1-0.3c-0.1-0.1-0.1-0.3-0.2-0.4
							c0-0.1-0.1-0.2-0.1-0.3c-0.1-0.1-0.1-0.3-0.2-0.5c0-0.1-0.1-0.2-0.1-0.3c-0.1-0.2-0.2-0.3-0.2-0.5c-0.1-0.1-0.1-0.2-0.2-0.3
							c-0.1-0.1-0.2-0.3-0.2-0.4c-0.1-0.1-0.1-0.2-0.2-0.3c-0.1-0.1-0.2-0.3-0.2-0.4c-0.1-0.1-0.1-0.2-0.2-0.3
							c-0.1-0.2-0.2-0.3-0.2-0.5c-0.1-0.1-0.1-0.2-0.2-0.3c-0.1-0.2-0.2-0.3-0.3-0.5c-0.1-0.1-0.1-0.2-0.2-0.3
							C23.1,10,23,9.9,22.9,9.7c-0.1-0.1-0.1-0.2-0.2-0.3c-0.1-0.1-0.2-0.3-0.3-0.4c-0.1-0.1-0.1-0.2-0.2-0.3
							c-0.1-0.1-0.2-0.3-0.3-0.4C22,8.2,21.9,8.1,21.9,8c-0.1-0.1-0.2-0.3-0.2-0.4c-0.1-0.1-0.1-0.2-0.2-0.3
							c-0.1-0.1-0.2-0.3-0.2-0.4c-0.1-0.1-0.1-0.2-0.2-0.3c-0.1-0.1-0.2-0.3-0.2-0.4c-0.1-0.1-0.1-0.2-0.2-0.3
							c-0.1-0.1-0.2-0.2-0.2-0.4c-0.1-0.1-0.1-0.2-0.2-0.3C20.2,5.2,20.1,5.1,20,5c-0.1-0.1-0.1-0.2-0.2-0.3
							c-0.1-0.1-0.1-0.2-0.2-0.3c-0.1-0.1-0.1-0.2-0.2-0.2c-0.1-0.1-0.1-0.2-0.2-0.3c-0.1-0.1-0.1-0.2-0.2-0.3
							C19.1,3.5,19,3.4,19,3.3c-0.1-0.1-0.1-0.2-0.2-0.2c0-0.1-0.1-0.1-0.1-0.2c0-0.1-0.1-0.1-0.1-0.2c0-0.1-0.1-0.1-0.1-0.2
							c0-0.1-0.1-0.1-0.1-0.2c0-0.1-0.1-0.1-0.1-0.2c0-0.1-0.1-0.1-0.1-0.2c0,0-0.1-0.1-0.1-0.1c0-0.1-0.1-0.1-0.1-0.1
							c0,0,0-0.1-0.1-0.1c0-0.1-0.1-0.1-0.1-0.1c0,0,0,0,0,0c0,0-0.1-0.1-0.1-0.1c-0.6-0.6-1.2-0.7-1.5-0.7c0,0,0,0-0.1,0
							c0,0,0,0,0,0c-0.3,0-0.9,0.1-1.4,0.7c0,0-0.1,0.1-0.1,0.1c0,0,0,0,0,0.1c0,0-0.1,0.1-0.1,0.1c0,0,0,0.1-0.1,0.1
							c0,0-0.1,0.1-0.1,0.1c0,0-0.1,0.1-0.1,0.1C14.1,2,14,2.1,14,2.1c0,0-0.1,0.1-0.1,0.2c0,0.1-0.1,0.1-0.1,0.2
							c0,0.1-0.1,0.1-0.1,0.2c0,0.1-0.1,0.1-0.1,0.2c0,0.1-0.1,0.2-0.2,0.2c0,0.1-0.1,0.2-0.2,0.2c-0.1,0.1-0.1,0.2-0.2,0.3
							c-0.1,0.1-0.1,0.2-0.2,0.2c-0.1,0.1-0.1,0.2-0.2,0.3c0,0.1-0.1,0.2-0.1,0.2c-0.1,0.1-0.1,0.2-0.2,0.3c0,0.1-0.1,0.2-0.1,0.2
							c-0.1,0.1-0.1,0.2-0.2,0.4c-0.1,0.1-0.1,0.2-0.2,0.3c-0.1,0.1-0.2,0.2-0.2,0.4c-0.1,0.1-0.1,0.2-0.2,0.3
							c-0.1,0.1-0.2,0.3-0.2,0.4C11.1,6.7,11,6.8,11,6.9c-0.1,0.1-0.2,0.3-0.3,0.4c-0.1,0.1-0.1,0.2-0.2,0.3
							c-0.1,0.1-0.2,0.3-0.3,0.5c-0.1,0.1-0.1,0.2-0.2,0.3C10,8.4,9.9,8.6,9.9,8.7C9.8,8.8,9.7,8.9,9.7,9C9.6,9.1,9.5,9.3,9.4,9.4
							C9.4,9.5,9.3,9.6,9.3,9.7C9.2,9.9,9.1,10,9,10.2l-0.2,0.3c-0.1,0.2-0.2,0.3-0.3,0.5c-0.1,0.1-0.1,0.2-0.2,0.3
							c-0.1,0.2-0.2,0.3-0.3,0.5C8.1,11.8,8.1,11.9,8,12c-0.1,0.2-0.2,0.3-0.3,0.5c0,0.1-0.1,0.2-0.1,0.3c-0.1,0.2-0.2,0.3-0.3,0.5
							c0,0.1-0.1,0.2-0.1,0.3C7.1,13.6,7.1,13.8,7,14c0,0.1-0.1,0.2-0.1,0.3c-0.1,0.2-0.2,0.3-0.2,0.5c0,0.1-0.1,0.2-0.1,0.3
							c-0.1,0.2-0.1,0.3-0.2,0.5c0,0.1-0.1,0.2-0.1,0.3C6.1,15.8,6,16,6,16.1c0,0.1-0.1,0.2-0.1,0.2c-0.1,0.1-0.1,0.3-0.2,0.4
							c0,0.1-0.1,0.2-0.1,0.2c-0.1,0.1-0.1,0.3-0.2,0.4c0,0.1-0.1,0.1-0.1,0.2c-0.1,0.1-0.1,0.3-0.1,0.4c0,0.1,0,0.1-0.1,0.2
							c0,0.1-0.1,0.3-0.1,0.4c0,0.1,0,0.1-0.1,0.2c0,0.1-0.1,0.3-0.1,0.4c0,0.1,0,0.1,0,0.2c0,0.1-0.1,0.2-0.1,0.3c0,0,0,0,0,0h0
							c0,0.1-0.1,0.3-0.1,0.4C4.5,20.7,4,23,3.8,28.7c-0.1,3.6,0.3,10.3,1.3,16.5l0,0c0,0,0,0.1,0,0.1c0,0.2,0.1,0.4,0.1,0.6
							c0,0.1,0,0.3,0.1,0.4c-0.8-0.3-1.6,0.2-2.1,1.1c-0.5,0.8-0.8,1.8-1,2.9c-0.6,3.4-1.3,8.5-1.5,14.6h0c0,0,0,0.1,0,0.1
							c0,0.4,0,0.8,0,1.1c0,0.1,0,0.3,0,0.4c0,0.5,0,1,0,1.6c0,0,1.6,1,3.9,1v0c0.1,0,0.2,0,0.3,0c2.5,0.1,4.2-1,4.2-1
							c0-1,0-1.9,0-2.8v0c0-1.9-0.1-3.8-0.3-5.5c0,0,0,0,0,0c0-0.1,0-0.2,0-0.2c0-0.3,0-0.6-0.1-0.9c0-0.1,0-0.3,0-0.4
							c0-0.3-0.1-0.6-0.1-0.9c0,0,0,0,0,0c0,0,1.1,0.3,3,0.5C11.2,60.3,11,63,10.9,66c0,0,0,0,0,0c0,0,0,0,0,0c0,1,0,2,0,3
							c0,0,2.2,1.5,5.3,1.5c1,0,1.8-0.1,2.5-0.3l0,0c0,0,0,0,0,0c0.2-0.1,0.4-0.1,0.6-0.2c0,0,0,0,0.1,0c0.2-0.1,0.3-0.1,0.4-0.2
							c0,0,0.1,0,0.1,0c0.3-0.1,0.6-0.2,0.8-0.4c0,0,0,0,0.1,0c0.1,0,0.2-0.1,0.3-0.1c0,0,0,0,0,0c0.1,0,0.2-0.1,0.2-0.1
							c0,0,0,0,0,0c0,0,0.1-0.1,0.1-0.1c0,0,0,0,0,0c0,0,0,0,0,0c0-1,0-2,0-3c0,0,0,0,0-0.1c0,0,0,0,0,0c0-0.7,0-1.3-0.1-1.9
							c0,0,0,0,0,0c0,0,0-0.1,0-0.1c0-0.7-0.1-1.3-0.1-2c0-0.1,0-0.2,0-0.3c-0.1-0.6-0.1-1.3-0.2-1.9c0-0.1,0-0.2,0-0.3
							c-0.1-0.6-0.1-1.1-0.2-1.6c0,0,0.1,0,0.1,0v0c0,0,0,0,0.1,0c0.2,0,0.3,0,0.5-0.1c0,0,0,0,0.1,0c0.4-0.1,0.7-0.1,1-0.2
							c0,0,0,0,0.1,0c0.1,0,0.2,0,0.3-0.1c0,0,0,0,0.1,0c0.1,0,0.2,0,0.2,0c0,0,0,0,0.1,0c0,0,0.1,0,0.1,0c0,0.2,0,0.5-0.1,0.8
							c0,0.1,0,0.3,0,0.4c0,0.3,0,0.6-0.1,0.9c0,0.1,0,0.2,0,0.2c0,0,0,0,0,0c-0.1,1.7-0.2,3.5-0.3,5.5h0v0c0,0.9,0,1.9,0,2.8
							c0,0,1.7,1.1,4.2,1c0.1,0,0.2,0,0.3,0c0,0,0,0,0,0c2.3,0,3.9-1,3.9-1c0-0.5,0-1,0-1.6c0-0.1,0-0.3,0-0.4
							C31.2,65.8,31.2,65.4,31.2,65"/>
					</g>
				</g>
				<g class="st2">
					<g>
						<defs>
							<rect id="SVGID_27_" x="0.3" y="0.3" width="30.6" height="69.9"/>
						</defs>
						<clipPath id="SVGID_28_">
							<use xlink:href="#SVGID_27_"  style="overflow:visible;"/>
						</clipPath>
						<path class="st13" d="M30.9,64.7c0,0,0-0.1,0-0.1l0,0c-0.1-6.2-0.8-11.2-1.5-14.6c-0.2-1.1-0.5-2.1-1-2.9
							c-0.4-0.7-1.1-1.2-1.8-1.1c1.1-6.5,1.6-13.7,1.4-17.5c-0.2-5.7-0.7-8-0.8-8.5c0-0.1,0-0.3-0.1-0.4l0,0c0,0,0,0,0,0
							c0-0.1-0.1-0.2-0.1-0.3c0-0.1,0-0.1,0-0.2c0-0.1-0.1-0.2-0.1-0.4c0-0.1,0-0.1-0.1-0.2c0-0.1-0.1-0.3-0.1-0.4
							c0-0.1,0-0.1-0.1-0.2c0-0.1-0.1-0.3-0.1-0.4c0-0.1-0.1-0.2-0.1-0.2c-0.1-0.1-0.1-0.3-0.2-0.4c0-0.1-0.1-0.2-0.1-0.2
							c-0.1-0.1-0.1-0.3-0.2-0.4c0-0.1-0.1-0.2-0.1-0.3c-0.1-0.1-0.1-0.3-0.2-0.4c0-0.1-0.1-0.2-0.1-0.3c-0.1-0.1-0.1-0.3-0.2-0.4
							c0-0.1-0.1-0.2-0.1-0.3c-0.1-0.1-0.1-0.3-0.2-0.5c0-0.1-0.1-0.2-0.1-0.3c-0.1-0.2-0.2-0.3-0.2-0.5c-0.1-0.1-0.1-0.2-0.2-0.3
							c-0.1-0.1-0.2-0.3-0.2-0.4c-0.1-0.1-0.1-0.2-0.2-0.3c-0.1-0.1-0.2-0.3-0.2-0.4c-0.1-0.1-0.1-0.2-0.2-0.3
							c-0.1-0.2-0.2-0.3-0.2-0.5c-0.1-0.1-0.1-0.2-0.2-0.3c-0.1-0.2-0.2-0.3-0.3-0.5c-0.1-0.1-0.1-0.2-0.2-0.3
							c-0.1-0.1-0.2-0.3-0.3-0.4c-0.1-0.1-0.1-0.2-0.2-0.3c-0.1-0.1-0.2-0.3-0.3-0.4C22.1,8.6,22,8.5,22,8.4
							c-0.1-0.1-0.2-0.3-0.3-0.4c-0.1-0.1-0.1-0.2-0.2-0.3c-0.1-0.1-0.2-0.3-0.3-0.4c-0.1-0.1-0.1-0.2-0.2-0.3
							C21,6.8,21,6.7,20.9,6.5c-0.1-0.1-0.1-0.2-0.2-0.3c-0.1-0.1-0.2-0.3-0.2-0.4c-0.1-0.1-0.1-0.2-0.2-0.3
							c-0.1-0.1-0.2-0.2-0.2-0.4C20,5.1,20,5,19.9,4.9c-0.1-0.1-0.1-0.2-0.2-0.3c-0.1-0.1-0.1-0.2-0.2-0.3c-0.1-0.1-0.1-0.2-0.2-0.3
							c-0.1-0.1-0.1-0.2-0.2-0.2c-0.1-0.1-0.1-0.2-0.2-0.3c-0.1-0.1-0.1-0.2-0.2-0.3c-0.1-0.1-0.1-0.2-0.2-0.2
							c-0.1-0.1-0.1-0.2-0.2-0.2c0-0.1-0.1-0.1-0.1-0.2c0-0.1-0.1-0.1-0.1-0.2c0-0.1-0.1-0.1-0.1-0.2C18.1,2.1,18,2,18,2
							c0-0.1-0.1-0.1-0.1-0.2c0-0.1-0.1-0.1-0.1-0.2c0,0-0.1-0.1-0.1-0.1c0-0.1-0.1-0.1-0.1-0.1c0,0,0-0.1-0.1-0.1
							c0-0.1-0.1-0.1-0.1-0.1c0,0,0,0,0,0c0,0-0.1-0.1-0.1-0.1c-0.6-0.6-1.2-0.7-1.5-0.7c0,0,0,0-0.1,0v0c-0.3,0-0.9,0.1-1.4,0.7
							c0,0-0.1,0.1-0.1,0.1c0,0,0,0,0,0.1c0,0-0.1,0.1-0.1,0.1c0,0,0,0.1-0.1,0.1c0,0-0.1,0.1-0.1,0.1c0,0-0.1,0.1-0.1,0.1
							c0,0.1-0.1,0.1-0.1,0.2c0,0-0.1,0.1-0.1,0.2c0,0.1-0.1,0.1-0.1,0.2c0,0.1-0.1,0.1-0.1,0.2c0,0.1-0.1,0.1-0.1,0.2
							c0,0.1-0.1,0.2-0.2,0.2c0,0.1-0.1,0.2-0.2,0.2c-0.1,0.1-0.1,0.2-0.2,0.3c-0.1,0.1-0.1,0.2-0.2,0.2c-0.1,0.1-0.1,0.2-0.2,0.3
							c0,0.1-0.1,0.2-0.1,0.2C12.1,4.1,12,4.3,12,4.4c0,0.1-0.1,0.2-0.1,0.2c-0.1,0.1-0.1,0.2-0.2,0.4c-0.1,0.1-0.1,0.2-0.2,0.3
							c-0.1,0.1-0.2,0.2-0.2,0.4c-0.1,0.1-0.1,0.2-0.2,0.3C11,6,10.9,6.1,10.8,6.3c-0.1,0.1-0.1,0.2-0.2,0.3
							c-0.1,0.1-0.2,0.3-0.3,0.4c-0.1,0.1-0.1,0.2-0.2,0.3C10.1,7.4,10,7.5,9.9,7.7C9.9,7.8,9.8,7.8,9.8,7.9
							C9.7,8.1,9.6,8.2,9.5,8.4C9.5,8.5,9.4,8.6,9.4,8.7C9.3,8.8,9.2,9,9.1,9.1C9,9.2,9,9.3,8.9,9.4C8.9,9.5,8.8,9.7,8.7,9.9
							C8.6,10,8.6,10,8.5,10.1c-0.1,0.2-0.2,0.3-0.3,0.5c0,0.1-0.1,0.2-0.2,0.3c-0.1,0.2-0.2,0.3-0.3,0.5c-0.1,0.1-0.1,0.2-0.2,0.3
							c-0.1,0.2-0.2,0.3-0.3,0.5c0,0.1-0.1,0.2-0.1,0.3c-0.1,0.2-0.2,0.3-0.3,0.5c0,0.1-0.1,0.2-0.1,0.3c-0.1,0.2-0.2,0.3-0.2,0.5
							c0,0.1-0.1,0.2-0.1,0.3c-0.1,0.2-0.2,0.3-0.2,0.5c0,0.1-0.1,0.2-0.1,0.3C6.1,14.8,6,14.9,6,15.1c0,0.1-0.1,0.2-0.1,0.3
							c-0.1,0.2-0.1,0.3-0.2,0.5c0,0.1-0.1,0.2-0.1,0.2c-0.1,0.1-0.1,0.3-0.2,0.4c0,0.1-0.1,0.2-0.1,0.2c-0.1,0.1-0.1,0.3-0.2,0.4
							c0,0.1-0.1,0.1-0.1,0.2c-0.1,0.1-0.1,0.3-0.1,0.4c0,0.1,0,0.1-0.1,0.2c0,0.1-0.1,0.3-0.1,0.4c0,0.1,0,0.1-0.1,0.2
							c0,0.1-0.1,0.3-0.1,0.4c0,0.1,0,0.1,0,0.2c0,0.1-0.1,0.2-0.1,0.3c0,0,0,0,0,0l0,0c0,0.1-0.1,0.3-0.1,0.4
							c-0.1,0.5-0.6,2.8-0.8,8.5C3.4,32,3.8,38.7,4.7,44.9c0,0,0,0,0,0c0,0,0,0.1,0,0.1c0,0.2,0.1,0.4,0.1,0.6c0,0.1,0,0.3,0.1,0.4
							c-0.8-0.3-1.6,0.2-2.1,1.1c-0.5,0.8-0.8,1.8-1,2.9c-0.6,3.4-1.3,8.5-1.5,14.6l0,0c0,0,0,0.1,0,0.1c0,0.4,0,0.8,0,1.1
							c0,0.1,0,0.3,0,0.4c0,0.5,0,1,0,1.6c0,0,1.6,1,3.9,1c0,0,0,0,0,0c0.1,0,0.2,0,0.3,0c2.5,0.1,4.2-1,4.2-1c0-1,0-1.9,0-2.8v0
							c0-1.9-0.1-3.8-0.3-5.5c0,0,0,0,0,0c0-0.1,0-0.2,0-0.2c0-0.3,0-0.6-0.1-0.9c0-0.1,0-0.3,0-0.4c0-0.3-0.1-0.6-0.1-0.9
							c0,0,0,0,0,0c0,0,1.1,0.3,3,0.5c-0.3,2.4-0.6,5.1-0.6,8.1h0c0,0,0,0,0,0c0,1,0,2,0,3c0,0,2.2,1.5,5.3,1.5c1,0,1.8-0.1,2.5-0.3
							v0c0,0,0,0,0,0c0.2-0.1,0.4-0.1,0.6-0.2c0,0,0,0,0.1,0c0.2-0.1,0.3-0.1,0.4-0.2c0,0,0.1,0,0.1,0c0.3-0.1,0.6-0.2,0.8-0.4
							c0,0,0,0,0.1,0c0.1,0,0.2-0.1,0.3-0.1c0,0,0,0,0,0c0.1,0,0.2-0.1,0.2-0.1c0,0,0,0,0,0c0,0,0.1-0.1,0.1-0.1c0,0,0,0,0,0
							c0,0,0,0,0,0c0-1,0-2,0-3c0,0,0,0,0-0.1c0,0,0,0,0,0c0-0.7,0-1.3-0.1-1.9h0c0,0,0-0.1,0-0.1c0-0.7-0.1-1.3-0.1-2
							c0-0.1,0-0.2,0-0.3c-0.1-0.6-0.1-1.3-0.2-1.9c0-0.1,0-0.2,0-0.3c-0.1-0.6-0.1-1.1-0.2-1.6c0,0,0.1,0,0.1,0c0,0,0,0,0.1,0
							c0.2,0,0.3,0,0.5-0.1c0,0,0,0,0.1,0c0.4-0.1,0.7-0.1,1-0.2c0,0,0,0,0.1,0c0.1,0,0.2,0,0.3-0.1c0,0,0,0,0.1,0
							c0.1,0,0.2,0,0.2,0c0,0,0,0,0.1,0c0,0,0.1,0,0.1,0c0,0.2,0,0.5-0.1,0.8c0,0.1,0,0.3,0,0.4c0,0.3,0,0.6-0.1,0.9
							c0,0.1,0,0.2,0,0.2c0,0,0,0,0,0c-0.1,1.7-0.2,3.5-0.3,5.5v0c0,0.9,0,1.9,0,2.8c0,0,1.7,1.1,4.2,1c0.1,0,0.2,0,0.3,0
							c0,0,0,0,0,0c2.3,0,3.9-1,3.9-1c0-0.5,0-1,0-1.6c0-0.1,0-0.3,0-0.4C30.9,65.5,30.9,65.1,30.9,64.7"/>
					</g>
				</g>
				<g class="st2">
					<g>
						<defs>
							<rect id="SVGID_29_" x="0" width="30.6" height="69.9"/>
						</defs>
						<clipPath id="SVGID_30_">
							<use xlink:href="#SVGID_29_"  style="overflow:visible;"/>
						</clipPath>
						<path class="st14" d="M30.5,64.4c0,0,0-0.1,0-0.1c0,0,0,0,0,0c-0.1-6.2-0.8-11.2-1.5-14.6c-0.2-1.1-0.5-2.1-1-2.9
							c-0.4-0.7-1.1-1.2-1.8-1.1c1.1-6.5,1.6-13.7,1.4-17.5c-0.2-5.7-0.7-8-0.8-8.5c0-0.1,0-0.3-0.1-0.4c0,0,0,0,0,0c0,0,0,0,0,0
							c0-0.1-0.1-0.2-0.1-0.3c0-0.1,0-0.1,0-0.2c0-0.1-0.1-0.2-0.1-0.4c0-0.1,0-0.1-0.1-0.2c0-0.1-0.1-0.3-0.1-0.4
							c0-0.1,0-0.1-0.1-0.2c0-0.1-0.1-0.3-0.1-0.4c0-0.1-0.1-0.2-0.1-0.2c-0.1-0.1-0.1-0.3-0.2-0.4c0-0.1-0.1-0.2-0.1-0.2
							c-0.1-0.1-0.1-0.3-0.2-0.4c0-0.1-0.1-0.2-0.1-0.3c-0.1-0.1-0.1-0.3-0.2-0.4c0-0.1-0.1-0.2-0.1-0.3c-0.1-0.1-0.1-0.3-0.2-0.4
							c0-0.1-0.1-0.2-0.1-0.3c-0.1-0.1-0.1-0.3-0.2-0.5c0-0.1-0.1-0.2-0.1-0.3c-0.1-0.2-0.2-0.3-0.2-0.5c-0.1-0.1-0.1-0.2-0.2-0.3
							c-0.1-0.1-0.2-0.3-0.2-0.4c-0.1-0.1-0.1-0.2-0.2-0.3c-0.1-0.1-0.2-0.3-0.2-0.4c-0.1-0.1-0.1-0.2-0.2-0.3
							c-0.1-0.2-0.2-0.3-0.2-0.5c-0.1-0.1-0.1-0.2-0.2-0.3c-0.1-0.2-0.2-0.3-0.3-0.5c-0.1-0.1-0.1-0.2-0.2-0.3
							c-0.1-0.1-0.2-0.3-0.3-0.4c-0.1-0.1-0.1-0.2-0.2-0.3c-0.1-0.1-0.2-0.3-0.3-0.4c-0.1-0.1-0.1-0.2-0.2-0.3
							c-0.1-0.1-0.2-0.3-0.2-0.4c-0.1-0.1-0.1-0.2-0.2-0.3C21.1,7.2,21.1,7,21,6.9c-0.1-0.1-0.1-0.2-0.2-0.3
							c-0.1-0.1-0.2-0.3-0.2-0.4c-0.1-0.1-0.1-0.2-0.2-0.3c-0.1-0.1-0.2-0.3-0.2-0.4C20.1,5.4,20,5.4,20,5.3
							c-0.1-0.1-0.2-0.2-0.2-0.4c-0.1-0.1-0.1-0.2-0.2-0.3c-0.1-0.1-0.1-0.2-0.2-0.3c-0.1-0.1-0.1-0.2-0.2-0.3
							c-0.1-0.1-0.1-0.2-0.2-0.3c-0.1-0.1-0.1-0.2-0.2-0.2c-0.1-0.1-0.1-0.2-0.2-0.3c-0.1-0.1-0.1-0.2-0.2-0.3
							c-0.1-0.1-0.1-0.2-0.2-0.2c-0.1-0.1-0.1-0.2-0.2-0.2c0-0.1-0.1-0.1-0.1-0.2c0-0.1-0.1-0.1-0.1-0.2c0-0.1-0.1-0.1-0.1-0.2
							c0-0.1-0.1-0.1-0.1-0.2c0-0.1-0.1-0.1-0.1-0.2c0-0.1-0.1-0.1-0.1-0.2c0,0-0.1-0.1-0.1-0.1c0-0.1-0.1-0.1-0.1-0.1
							c0,0,0-0.1-0.1-0.1c0-0.1-0.1-0.1-0.1-0.1c0,0,0,0,0,0c0,0-0.1-0.1-0.1-0.1C16.3,0,15.7,0,15.4,0c0,0,0,0-0.1,0c0,0,0,0,0,0
							c-0.3,0-0.9,0.1-1.4,0.7c0,0-0.1,0.1-0.1,0.1c0,0,0,0,0,0.1c0,0-0.1,0.1-0.1,0.1c0,0,0,0.1-0.1,0.1c0,0-0.1,0.1-0.1,0.1
							c0,0-0.1,0.1-0.1,0.1c0,0.1-0.1,0.1-0.1,0.2c0,0-0.1,0.1-0.1,0.2c0,0.1-0.1,0.1-0.1,0.2C13,1.9,13,2,12.9,2
							c0,0.1-0.1,0.1-0.1,0.2c0,0.1-0.1,0.2-0.2,0.2c0,0.1-0.1,0.2-0.2,0.2c-0.1,0.1-0.1,0.2-0.2,0.3c-0.1,0.1-0.1,0.2-0.2,0.2
							c-0.1,0.1-0.1,0.2-0.2,0.3c0,0.1-0.1,0.2-0.1,0.2c-0.1,0.1-0.1,0.2-0.2,0.3c0,0.1-0.1,0.2-0.1,0.2c-0.1,0.1-0.1,0.2-0.2,0.4
							c-0.1,0.1-0.1,0.2-0.2,0.3C11,5,10.9,5.1,10.9,5.3c-0.1,0.1-0.1,0.2-0.2,0.3c-0.1,0.1-0.2,0.3-0.3,0.4
							c-0.1,0.1-0.1,0.2-0.2,0.3c-0.1,0.1-0.2,0.3-0.3,0.4C10,6.7,9.9,6.8,9.9,6.9C9.8,7,9.7,7.2,9.6,7.3c0,0.1-0.1,0.2-0.2,0.3
							C9.4,7.7,9.3,7.9,9.2,8C9.1,8.1,9.1,8.2,9,8.3C9,8.5,8.9,8.6,8.8,8.8C8.7,8.9,8.7,9,8.6,9.1C8.5,9.2,8.4,9.4,8.3,9.5L8.2,9.8
							C8.1,10,8,10.1,7.9,10.3c0,0.1-0.1,0.2-0.2,0.3c-0.1,0.2-0.2,0.3-0.3,0.5c-0.1,0.1-0.1,0.2-0.2,0.3c-0.1,0.2-0.2,0.3-0.3,0.5
							C7.1,11.9,7,12,7,12.1c-0.1,0.2-0.2,0.3-0.3,0.5c0,0.1-0.1,0.2-0.1,0.3c-0.1,0.2-0.2,0.3-0.2,0.5c0,0.1-0.1,0.2-0.1,0.3
							C6.1,13.7,6,13.9,6,14c0,0.1-0.1,0.2-0.1,0.3c-0.1,0.2-0.1,0.3-0.2,0.5c0,0.1-0.1,0.2-0.1,0.3c-0.1,0.2-0.1,0.3-0.2,0.5
							c0,0.1-0.1,0.2-0.1,0.2C5.1,15.9,5.1,16,5,16.2c0,0.1-0.1,0.2-0.1,0.2c-0.1,0.1-0.1,0.3-0.2,0.4c0,0.1-0.1,0.1-0.1,0.2
							c-0.1,0.1-0.1,0.3-0.1,0.4c0,0.1,0,0.1-0.1,0.2c0,0.1-0.1,0.3-0.1,0.4c0,0.1,0,0.1-0.1,0.2c0,0.1-0.1,0.3-0.1,0.4
							c0,0.1,0,0.1,0,0.2c0,0.1-0.1,0.2-0.1,0.3c0,0,0,0,0,0c0,0,0,0,0,0C4,19.3,4,19.4,4,19.6c-0.1,0.5-0.6,2.8-0.8,8.5
							C3,31.7,3.4,38.4,4.4,44.6c0,0,0,0,0,0c0,0,0,0.1,0,0.1c0,0.2,0.1,0.4,0.1,0.6c0,0.1,0,0.3,0.1,0.4c-0.8-0.3-1.6,0.2-2.1,1.1
							c-0.5,0.8-0.8,1.8-1,2.9C0.9,53,0.2,58.1,0,64.2c0,0,0,0,0,0c0,0,0,0.1,0,0.1c0,0.4,0,0.8,0,1.1c0,0.1,0,0.3,0,0.4
							c0,0.5,0,1,0,1.6c0,0,1.6,1,3.9,1c0,0,0,0,0,0c0.1,0,0.2,0,0.3,0c2.5,0.1,4.2-1,4.2-1c0-1,0-1.9,0-2.8v0
							c0-1.9-0.1-3.8-0.3-5.5c0,0,0,0,0,0c0-0.1,0-0.2,0-0.2C8,58.6,8,58.3,8,58c0-0.1,0-0.3,0-0.4c0-0.3-0.1-0.6-0.1-0.9
							c0,0,0,0,0,0c0,0,1.1,0.3,3,0.5c-0.3,2.4-0.6,5.1-0.6,8.1l0,0c0,0,0,0,0,0c0,1,0,2,0,3c0,0,2.2,1.5,5.3,1.5
							c1,0,1.8-0.1,2.6-0.3v0c0,0,0,0,0,0c0.2-0.1,0.4-0.1,0.6-0.2c0,0,0,0,0.1,0c0.2-0.1,0.3-0.1,0.4-0.2c0,0,0.1,0,0.1,0
							c0.3-0.1,0.6-0.2,0.8-0.4c0,0,0,0,0.1,0c0.1,0,0.2-0.1,0.3-0.1c0,0,0,0,0,0c0.1,0,0.2-0.1,0.2-0.1c0,0,0,0,0,0
							c0,0,0.1-0.1,0.1-0.1c0,0,0,0,0,0c0,0,0,0,0,0c0-1,0-2,0-3c0,0,0,0,0-0.1h0c0-0.7,0-1.3-0.1-1.9c0,0,0,0,0,0c0,0,0-0.1,0-0.1
							c0-0.7-0.1-1.3-0.1-2c0-0.1,0-0.2,0-0.3c-0.1-0.6-0.1-1.3-0.2-1.9c0-0.1,0-0.2,0-0.3c-0.1-0.6-0.1-1.1-0.2-1.6
							c0,0,0.1,0,0.1,0v0c0,0,0,0,0.1,0c0.2,0,0.3,0,0.5-0.1c0,0,0,0,0.1,0c0.4-0.1,0.7-0.1,1-0.2c0,0,0,0,0.1,0
							c0.1,0,0.2,0,0.3-0.1c0,0,0,0,0.1,0c0.1,0,0.2,0,0.2,0c0,0,0,0,0.1,0c0,0,0.1,0,0.1,0c0,0.2,0,0.5-0.1,0.8c0,0.1,0,0.3,0,0.4
							c0,0.3,0,0.6-0.1,0.9c0,0.1,0,0.2,0,0.2c0,0,0,0,0,0c-0.1,1.7-0.2,3.5-0.3,5.5v0c0,0.9,0,1.9,0,2.8c0,0,1.7,1.1,4.2,1
							c0.1,0,0.2,0,0.3,0c0,0,0,0,0,0c2.3,0,3.9-1,3.9-1c0-0.5,0-1,0-1.6c0-0.1,0-0.3,0-0.4C30.6,65.1,30.5,64.8,30.5,64.4"/>
					</g>
				</g>
			</g>
		</g>
		<path class="st15" d="M2.5,46.7c-0.5,0.8-0.8,1.8-1,2.9c-0.8,4-1.6,10.2-1.5,17.8c0,0,1.7,1.1,4.2,1c2.5,0.1,4.2-1,4.2-1
			C8.4,60,7.6,53.9,6.9,49.9C5.6,44.5,3.5,45,2.5,46.7"/>
		<path class="st16" d="M4.9,65.2c-1.7,0.1-3.4-0.1-4.9-0.9c0,1,0,2.1,0,3.2c0,0,1.7,1.1,4.2,1c2.5,0.1,4.2-1,4.2-1c0-1,0-1.9,0-2.8
			C7.2,65,6,65.1,4.9,65.2"/>
		<g class="st1">
			<g>
				<defs>
					<rect id="SVGID_31_" x="3.8" y="45.7" width="4.5" height="22.8"/>
				</defs>
				<clipPath id="SVGID_32_">
					<use xlink:href="#SVGID_31_"  style="overflow:visible;"/>
				</clipPath>
				<path class="st17" d="M6.9,49.9c-0.6-2.6-1.4-3.8-2.2-4.2c-0.4,1.7-0.5,3.5-0.6,5.3c-0.1,2.3-0.2,4.5-0.3,6.8c0,2.2,0,4.5,0,6.7
					c0,1.3,0,2.6,0.1,3.9c0.1,0,0.2,0,0.3,0c2.5,0.1,4.2-1,4.2-1C8.4,60,7.6,53.9,6.9,49.9"/>
			</g>
		</g>
		<g class="st1">
			<g>
				<defs>
					<rect id="SVGID_33_" x="4.3" y="45.8" width="3.7" height="13.4"/>
				</defs>
				<clipPath id="SVGID_34_">
					<use xlink:href="#SVGID_33_"  style="overflow:visible;"/>
				</clipPath>
				<path class="st18" d="M5.5,53.8c0.7,1.8,1.6,3.6,2.6,5.3c-0.3-3.7-0.7-6.9-1.2-9.3c-0.6-2.5-1.4-3.7-2.1-4.1
					C3.9,48.4,4.5,51.3,5.5,53.8"/>
			</g>
		</g>
		<g class="st1">
			<g>
				<defs>
					<rect id="SVGID_35_" x="0.5" y="47.7" width="2.7" height="16"/>
				</defs>
				<clipPath id="SVGID_36_">
					<use xlink:href="#SVGID_35_"  style="overflow:visible;"/>
				</clipPath>
				<path class="st19" d="M2.4,63.7c-0.1-5.4-0.1-10.7,0.8-16c-1.2,3.4-1.8,6.9-2.2,10.5c-0.2,1.7-0.4,3.3-0.5,5
					C1.1,63.5,1.7,63.6,2.4,63.7"/>
			</g>
		</g>
		<path class="st20" d="M0.4,65.4c0,0.1,0,0.3,0,0.4c0,0.2,0,0.4,0,0.6c0.6,0.4,1.3,0.6,2.1,0.7l0-1.3C1.7,65.8,1.1,65.6,0.4,65.4"
			/>
		<path class="st15" d="M28,46.7c0.5,0.8,0.8,1.8,1,2.9c0.8,4,1.6,10.2,1.5,17.8c0,0-1.7,1.1-4.2,1c-2.5,0.1-4.2-1-4.2-1
			c-0.1-7.5,0.7-13.6,1.4-17.6C25,44.5,27,45,28,46.7"/>
		<path class="st16" d="M25.6,65.2c1.7,0.1,3.4-0.1,4.9-0.9c0,1,0,2.1,0,3.2c0,0-1.7,1.1-4.2,1c-2.5,0.1-4.2-1-4.2-1
			c0-1,0-1.9,0-2.8C23.3,65,24.6,65.1,25.6,65.2"/>
		<g class="st1">
			<g>
				<defs>
					<rect id="SVGID_37_" x="22.2" y="45.7" width="4.5" height="22.8"/>
				</defs>
				<clipPath id="SVGID_38_">
					<use xlink:href="#SVGID_37_"  style="overflow:visible;"/>
				</clipPath>
				<path class="st21" d="M23.7,49.9c0.6-2.6,1.4-3.8,2.2-4.2c0.4,1.7,0.5,3.5,0.6,5.3c0.1,2.3,0.2,4.5,0.3,6.8c0,2.2,0,4.5,0,6.7
					c0,1.3,0,2.6-0.1,3.9c-0.1,0-0.2,0-0.3,0c-2.5,0.1-4.2-1-4.2-1C22.2,60,22.9,53.9,23.7,49.9"/>
			</g>
		</g>
		<g class="st1">
			<g>
				<defs>
					<rect id="SVGID_39_" x="22.5" y="45.8" width="3.7" height="13.4"/>
				</defs>
				<clipPath id="SVGID_40_">
					<use xlink:href="#SVGID_39_"  style="overflow:visible;"/>
				</clipPath>
				<path class="st22" d="M25.1,53.8c-0.7,1.8-1.6,3.6-2.6,5.3c0.3-3.7,0.7-6.9,1.2-9.3c0.6-2.5,1.4-3.7,2.1-4.1
					C26.7,48.4,26.1,51.3,25.1,53.8"/>
			</g>
		</g>
		<g class="st1">
			<g>
				<defs>
					<rect id="SVGID_41_" x="27.4" y="47.7" width="2.7" height="16"/>
				</defs>
				<clipPath id="SVGID_42_">
					<use xlink:href="#SVGID_41_"  style="overflow:visible;"/>
				</clipPath>
				<path class="st23" d="M28.2,63.7c0.1-5.4,0.1-10.7-0.8-16c1.3,3.4,1.8,6.9,2.2,10.5c0.2,1.7,0.4,3.3,0.5,5
					C29.5,63.5,28.9,63.6,28.2,63.7"/>
			</g>
		</g>
		<path class="st20" d="M30.1,65.4c0,0.1,0,0.3,0,0.4c0,0.2,0,0.4,0,0.6c-0.6,0.4-1.3,0.6-2.1,0.7c0-0.4,0-0.9,0-1.3
			C28.8,65.8,29.5,65.6,30.1,65.4"/>
		<path class="st15" d="M27.7,28.1c-0.2-5.7-0.7-8-0.8-8.5c-0.7-5-9.2-18.1-10-18.9C16.3,0,15.7,0,15.4,0c-0.3,0-0.9,0-1.5,0.7
			C13.2,1.5,4.6,14.5,4,19.6c-0.1,0.5-0.6,2.8-0.8,8.5c-0.2,6.5,1.3,23.2,4.7,28.7c0,0,2.9,0.8,7.6,0.7c4.7,0.1,7.6-0.7,7.6-0.7
			C26.4,51.2,27.9,34.6,27.7,28.1"/>
		<path class="st24" d="M27.7,28.1c-0.2-5.7-0.7-8-0.8-8.5c-0.7-5-9.2-18.1-10-18.9C16.3,0,15.7,0,15.4,0c-0.3,0-0.9,0-1.5,0.7
			C13.2,1.5,4.6,14.5,4,19.6c-0.1,0.5-0.6,2.8-0.8,8.5c-0.2,6.5,1.3,23.2,4.7,28.7c0,0,2.9,0.8,7.6,0.7c4.7,0.1,7.6-0.7,7.6-0.7
			C26.4,51.2,27.9,34.6,27.7,28.1"/>
		<g class="st1">
			<g>
				<defs>
					<rect id="SVGID_43_" x="4.4" y="44.6" width="21.7" height="12.8"/>
				</defs>
				<clipPath id="SVGID_44_">
					<use xlink:href="#SVGID_43_"  style="overflow:visible;"/>
				</clipPath>
				<path class="st25" d="M24.6,48.3c-2.3,2.4-5.8,4.1-9.2,4c-3.1-0.1-6.1-1.2-8.2-3.5c-1.1-1.3-2.1-2.7-2.9-4.2
					c0.8,5,1.9,9.7,3.5,12.2c0,0,2.9,0.8,7.6,0.7c4.7,0.1,7.6-0.7,7.6-0.7c1.4-2.2,2.4-6.1,3.2-10.5C25.7,47,25.2,47.7,24.6,48.3"/>
			</g>
		</g>
	</g>
	<g class="st0">
		<defs>
			<path id="SVGID_45_" d="M15.4,0c-0.3,0-0.9,0-1.5,0.7C13.2,1.4,5.1,13.9,4,19.2c3.4,1,7.3,1.6,11.4,1.6c4.1,0,8-0.6,11.4-1.6
				c-1.1-5.3-9.2-17.7-9.9-18.5C16.4,0.1,15.8,0,15.4,0C15.5,0,15.4,0,15.4,0"/>
		</defs>
		<clipPath id="SVGID_46_">
			<use xlink:href="#SVGID_45_"  style="overflow:visible;"/>
		</clipPath>
		
			<linearGradient id="SVGID_47_" gradientUnits="userSpaceOnUse" x1="0" y1="73.4868" x2="1" y2="73.4868" gradientTransform="matrix(38.0979 0 0 -38.0979 -3.708 2810.0457)">
			<stop  offset="0" style="stop-color:#E5E0DF"/>
			<stop  offset="0.4575" style="stop-color:#E5E0DF"/>
			<stop  offset="1" style="stop-color:#8CA99C"/>
		</linearGradient>
		<rect x="4" y="0" class="st26" width="22.8" height="20.7"/>
	</g>
	<g class="st0">
		<defs>
			<rect id="SVGID_48_" y="0" width="34.2" height="73.5"/>
		</defs>
		<clipPath id="SVGID_49_">
			<use xlink:href="#SVGID_48_"  style="overflow:visible;"/>
		</clipPath>
		<path class="st27" d="M15.4,0c-0.3,0-0.9,0-1.5,0.7C13.2,1.4,5.1,13.9,4,19.2c3.4,1,7.3,1.6,11.4,1.6s8-0.6,11.4-1.6
			c-1.1-5.3-9.2-17.7-9.9-18.5C16.3,0,15.7,0,15.4,0"/>
		<path class="st28" d="M5.5,20.4c0,0.3-0.2,0.5-0.5,0.5c-0.3,0-0.5-0.2-0.5-0.5c0-0.3,0.2-0.5,0.5-0.5C5.3,19.9,5.5,20.1,5.5,20.4"
			/>
		<path class="st28" d="M15.9,21.9c0,0.3-0.2,0.5-0.5,0.5s-0.5-0.2-0.5-0.5c0-0.3,0.2-0.5,0.5-0.5S15.9,21.6,15.9,21.9"/>
		<path class="st28" d="M26.4,20.2c0,0.3-0.2,0.5-0.5,0.5s-0.5-0.2-0.5-0.5c0-0.3,0.2-0.5,0.5-0.5S26.4,20,26.4,20.2"/>
		<path class="st28" d="M21.2,21.6c0,0.3-0.2,0.5-0.5,0.5s-0.5-0.2-0.5-0.5c0-0.3,0.2-0.5,0.5-0.5S21.2,21.3,21.2,21.6"/>
		<path class="st28" d="M10.7,21.6c0,0.3-0.2,0.5-0.5,0.5s-0.5-0.2-0.5-0.5c0-0.3,0.2-0.5,0.5-0.5S10.7,21.3,10.7,21.6"/>
		<g class="st29">
			<g>
				<defs>
					<rect id="SVGID_50_" x="11.3" y="23.6" width="9.1" height="9.1"/>
				</defs>
				<clipPath id="SVGID_51_">
					<use xlink:href="#SVGID_50_"  style="overflow:visible;"/>
				</clipPath>
				<path class="st30" d="M20.4,28.1c0,2.5-2,4.6-4.6,4.6s-4.6-2-4.6-4.6c0-2.5,2-4.6,4.6-4.6S20.4,25.6,20.4,28.1"/>
			</g>
		</g>
		<g class="st29">
			<g>
				<defs>
					<rect id="SVGID_52_" x="12" y="24.4" width="7.7" height="7.7"/>
				</defs>
				<clipPath id="SVGID_53_">
					<use xlink:href="#SVGID_52_"  style="overflow:visible;"/>
				</clipPath>
				<path class="st31" d="M19.7,28.3c0,2.1-1.7,3.9-3.9,3.9c-2.1,0-3.9-1.7-3.9-3.9c0-2.1,1.7-3.9,3.9-3.9
					C18,24.4,19.7,26.1,19.7,28.3"/>
			</g>
		</g>
	</g>
	<g class="st0">
		<defs>
			<path id="SVGID_54_" d="M12.4,28.1c0,1.9,1.6,3.5,3.5,3.5c1.9,0,3.5-1.6,3.5-3.5c0-1.9-1.6-3.5-3.5-3.5
				C14,24.7,12.4,26.2,12.4,28.1"/>
		</defs>
		<clipPath id="SVGID_55_">
			<use xlink:href="#SVGID_54_"  style="overflow:visible;"/>
		</clipPath>
		
			<radialGradient id="SVGID_56_" cx="0" cy="73.4866" r="1" gradientTransform="matrix(5.813 0 0 -5.813 13.7465 453.5286)" gradientUnits="userSpaceOnUse">
			<stop  offset="0" style="stop-color:#21687E"/>
			<stop  offset="0.1486" style="stop-color:#21687E"/>
			<stop  offset="0.491" style="stop-color:#023F5F"/>
			<stop  offset="0.4927" style="stop-color:#023F5F"/>
			<stop  offset="0.9801" style="stop-color:#000000"/>
			<stop  offset="1" style="stop-color:#000000"/>
		</radialGradient>
		<rect x="12.4" y="24.7" class="st32" width="6.9" height="6.9"/>
	</g>
	<g class="st0">
		<defs>
			<rect id="SVGID_57_" y="0" width="34.2" height="73.5"/>
		</defs>
		<clipPath id="SVGID_58_">
			<use xlink:href="#SVGID_57_"  style="overflow:visible;"/>
		</clipPath>
		<g class="st33">
			<g>
				<defs>
					<rect id="SVGID_59_" x="12.9" y="25" width="5.4" height="5.7"/>
				</defs>
				<clipPath id="SVGID_60_">
					<use xlink:href="#SVGID_59_"  style="overflow:visible;"/>
				</clipPath>
				<g class="st34">
					<defs>
						<path id="SVGID_61_" d="M13.5,28.7c-0.2,0-0.4-0.1-0.6-0.1c0.1,0.9,0.6,1.7,1.3,2.2C13.7,30.2,13.5,29.4,13.5,28.7
							C13.5,28.7,13.5,28.7,13.5,28.7"/>
					</defs>
					<clipPath id="SVGID_62_">
						<use xlink:href="#SVGID_61_"  style="overflow:visible;"/>
					</clipPath>
					
						<radialGradient id="SVGID_63_" cx="0" cy="73.4866" r="1" gradientTransform="matrix(5.5129 0 0 -5.5129 12.0684 431.4808)" gradientUnits="userSpaceOnUse">
						<stop  offset="0" style="stop-color:#FFFFFF"/>
						<stop  offset="0.2851" style="stop-color:#FFFFFF"/>
						<stop  offset="0.6576" style="stop-color:#787878"/>
						<stop  offset="1" style="stop-color:#000000"/>
					</radialGradient>
					<rect x="12.9" y="28.5" class="st35" width="1.3" height="2.2"/>
				</g>
				<g class="st34">
					<defs>
						<path id="SVGID_64_" d="M16,25c-1.6,0-3,1.3-3.1,2.9c0.2,0,0.4,0.1,0.7,0.1c0.3-1.4,1.5-2.4,3-2.4c0.6,0,1.3,0.2,1.7,0.5
							C17.7,25.4,16.9,25,16,25"/>
					</defs>
					<clipPath id="SVGID_65_">
						<use xlink:href="#SVGID_64_"  style="overflow:visible;"/>
					</clipPath>
					
						<radialGradient id="SVGID_66_" cx="0" cy="73.4866" r="1" gradientTransform="matrix(5.5128 0 0 -5.5128 12.0688 431.4685)" gradientUnits="userSpaceOnUse">
						<stop  offset="0" style="stop-color:#FFFFFF"/>
						<stop  offset="0.2851" style="stop-color:#FFFFFF"/>
						<stop  offset="0.6576" style="stop-color:#787878"/>
						<stop  offset="1" style="stop-color:#000000"/>
					</radialGradient>
					<rect x="12.9" y="25" class="st36" width="5.4" height="3"/>
				</g>
			</g>
		</g>
		<g class="st37">
			<g>
				<defs>
					<rect id="SVGID_67_" x="11.3" y="35.7" width="9.1" height="9.1"/>
				</defs>
				<clipPath id="SVGID_68_">
					<use xlink:href="#SVGID_67_"  style="overflow:visible;"/>
				</clipPath>
				<path class="st38" d="M20.4,40.3c0,2.5-2,4.6-4.6,4.6s-4.6-2-4.6-4.6c0-2.5,2-4.6,4.6-4.6S20.4,37.8,20.4,40.3"/>
			</g>
		</g>
		<g class="st37">
			<g>
				<defs>
					<rect id="SVGID_69_" x="12" y="36.6" width="7.7" height="7.7"/>
				</defs>
				<clipPath id="SVGID_70_">
					<use xlink:href="#SVGID_69_"  style="overflow:visible;"/>
				</clipPath>
				<path class="st39" d="M19.7,40.4c0,2.1-1.7,3.9-3.9,3.9c-2.1,0-3.9-1.7-3.9-3.9c0-2.1,1.7-3.9,3.9-3.9
					C18,36.6,19.7,38.3,19.7,40.4"/>
			</g>
		</g>
	</g>
	<g class="st0">
		<defs>
			<path id="SVGID_71_" d="M12.4,40.3c0,1.9,1.6,3.5,3.5,3.5c1.9,0,3.5-1.5,3.5-3.5c0-1.9-1.6-3.5-3.5-3.5
				C14,36.8,12.4,38.4,12.4,40.3"/>
		</defs>
		<clipPath id="SVGID_72_">
			<use xlink:href="#SVGID_71_"  style="overflow:visible;"/>
		</clipPath>
		
			<radialGradient id="SVGID_73_" cx="0" cy="73.4866" r="1" gradientTransform="matrix(5.8128 0 0 -5.8128 13.7465 465.6666)" gradientUnits="userSpaceOnUse">
			<stop  offset="0" style="stop-color:#21687E"/>
			<stop  offset="0.1486" style="stop-color:#21687E"/>
			<stop  offset="0.491" style="stop-color:#023F5F"/>
			<stop  offset="0.4927" style="stop-color:#023F5F"/>
			<stop  offset="0.9801" style="stop-color:#000000"/>
			<stop  offset="1" style="stop-color:#000000"/>
		</radialGradient>
		<rect x="12.4" y="36.8" class="st40" width="6.9" height="6.9"/>
	</g>
	<g class="st0">
		<defs>
			<rect id="SVGID_74_" y="0" width="34.2" height="73.5"/>
		</defs>
		<clipPath id="SVGID_75_">
			<use xlink:href="#SVGID_74_"  style="overflow:visible;"/>
		</clipPath>
		<g class="st41">
			<g>
				<defs>
					<rect id="SVGID_76_" x="12.9" y="37.2" width="5.4" height="5.7"/>
				</defs>
				<clipPath id="SVGID_77_">
					<use xlink:href="#SVGID_76_"  style="overflow:visible;"/>
				</clipPath>
				<g class="st42">
					<defs>
						<path id="SVGID_78_" d="M13.5,40.8c-0.2,0-0.4-0.1-0.6-0.1c0.1,0.9,0.6,1.7,1.3,2.2C13.7,42.3,13.5,41.6,13.5,40.8
							C13.5,40.8,13.5,40.8,13.5,40.8"/>
					</defs>
					<clipPath id="SVGID_79_">
						<use xlink:href="#SVGID_78_"  style="overflow:visible;"/>
					</clipPath>
					
						<radialGradient id="SVGID_80_" cx="0" cy="73.4866" r="1" gradientTransform="matrix(5.5141 0 0 -5.5141 12.0684 443.7174)" gradientUnits="userSpaceOnUse">
						<stop  offset="0" style="stop-color:#FFFFFF"/>
						<stop  offset="0.2851" style="stop-color:#FFFFFF"/>
						<stop  offset="0.6576" style="stop-color:#787878"/>
						<stop  offset="1" style="stop-color:#000000"/>
					</radialGradient>
					<rect x="12.9" y="40.7" class="st43" width="1.3" height="2.2"/>
				</g>
				<g class="st42">
					<defs>
						<path id="SVGID_81_" d="M16,37.2c-1.6,0-3,1.3-3.1,2.9c0.2,0,0.4,0.1,0.7,0.1c0.3-1.4,1.5-2.4,3-2.4c0.6,0,1.3,0.2,1.7,0.5
							C17.7,37.6,16.9,37.2,16,37.2"/>
					</defs>
					<clipPath id="SVGID_82_">
						<use xlink:href="#SVGID_81_"  style="overflow:visible;"/>
					</clipPath>
					
						<radialGradient id="SVGID_83_" cx="0" cy="73.4866" r="1" gradientTransform="matrix(5.5128 0 0 -5.5128 12.0688 443.6208)" gradientUnits="userSpaceOnUse">
						<stop  offset="0" style="stop-color:#FFFFFF"/>
						<stop  offset="0.2851" style="stop-color:#FFFFFF"/>
						<stop  offset="0.6576" style="stop-color:#787878"/>
						<stop  offset="1" style="stop-color:#000000"/>
					</radialGradient>
					<rect x="12.9" y="37.2" class="st44" width="5.4" height="3"/>
				</g>
			</g>
		</g>
		<g class="st45">
			<g>
				<defs>
					<rect id="SVGID_84_" x="5" y="20.5" width="5.6" height="35.3"/>
				</defs>
				<clipPath id="SVGID_85_">
					<use xlink:href="#SVGID_84_"  style="overflow:visible;"/>
				</clipPath>
				<path class="st46" d="M8.6,21c-0.2,0-0.5-0.1-0.7-0.1c-0.7-0.1-1.5-0.3-2.2-0.5C5.2,23.2,5,25.9,5,28.7c0.1,9.1,2,17.9,3.5,26.8
					c0.6,0.1,1.2,0.2,2,0.2c-0.8-8.3-2-16.5-2.3-24.8C8.2,27.7,8.2,24.3,8.6,21"/>
			</g>
		</g>
		<g class="st41">
			<g>
				<defs>
					<rect id="SVGID_86_" x="15.4" width="12.4" height="57.2"/>
				</defs>
				<clipPath id="SVGID_87_">
					<use xlink:href="#SVGID_86_"  style="overflow:visible;"/>
				</clipPath>
				<path class="st47" d="M27.7,28.1c-0.2-5.7-0.7-8-0.8-8.5c-0.7-5-9.2-18.1-10-18.9C16.3,0,15.7,0,15.4,0c0,0,0,0-0.1,0
					c0.9,2.3,1.7,4.6,2.4,6.9c4.8,16.3,4.5,33.6,2.5,50.4C22,57,23,56.8,23,56.8C26.4,51.2,27.9,34.6,27.7,28.1"/>
			</g>
		</g>
		<g class="st41">
			<g>
				<defs>
					<rect id="SVGID_88_" x="5.9" y="4.8" width="5.8" height="15"/>
				</defs>
				<clipPath id="SVGID_89_">
					<use xlink:href="#SVGID_88_"  style="overflow:visible;"/>
				</clipPath>
				<path class="st48" d="M7.7,19.6c0.3,0.1,0.6,0.1,1,0.1c0.1-1.2,0.3-2.3,0.5-3.5c0.7-3.9,1.6-7.7,2.5-11.5
					C9.9,8.2,8.2,11.6,7,15.2c-0.4,1.3-0.8,2.6-1.1,4C6.5,19.4,7.1,19.5,7.7,19.6"/>
			</g>
		</g>
		<path class="st49" d="M13.4,47.7c-0.6,0.8-1,1.8-1.3,2.9c-1,4-2,10.2-1.9,17.8c0,0,2.2,1.5,5.3,1.5c3.2,0.1,5.3-1.5,5.3-1.5
			C21,60.9,20,54.8,19,50.8C17.3,45.4,14.7,46,13.4,47.7"/>
		<g class="st50">
			<g>
				<defs>
					<rect id="SVGID_90_" x="15.6" y="55.2" width="5.2" height="9"/>
				</defs>
				<clipPath id="SVGID_91_">
					<use xlink:href="#SVGID_90_"  style="overflow:visible;"/>
				</clipPath>
				<path class="st51" d="M17.1,55.7c-0.5,0.1-1,0.1-1.6,0.1v8.4c1.9-0.2,3.6-0.4,5.2-0.8c-0.2-3.1-0.5-5.8-0.9-8.2
					C19,55.5,18.1,55.6,17.1,55.7"/>
			</g>
		</g>
		<path class="st52" d="M14.6,66.5c-1.4,0-3.1-0.3-4.3-1.1c0,1,0,2,0,3.1c0,0,2.2,1.5,5.3,1.5c3.2,0.1,5.3-1.5,5.3-1.5
			c0-1.1,0-2.1,0-3.1C19,66.3,16.6,66.5,14.6,66.5"/>
		<g class="st41">
			<g>
				<defs>
					<rect id="SVGID_92_" x="15.7" y="46.5" width="5.2" height="23.1"/>
				</defs>
				<clipPath id="SVGID_93_">
					<use xlink:href="#SVGID_92_"  style="overflow:visible;"/>
				</clipPath>
				<path class="st53" d="M19,50.8c-0.9-3-2.2-4.2-3.3-4.3c0.2,0.8,0.4,1.6,0.5,2.4c0.2,1.1,0.4,2.2,0.6,3.3
					c0.3,2.4,1,12.1,1.1,14.6c0,0.9,0.1,1.8,0.2,2.7c1.7-0.4,2.8-1.2,2.8-1.2C21,60.9,20,54.8,19,50.8"/>
			</g>
		</g>
		<g class="st41">
			<g>
				<defs>
					<rect id="SVGID_94_" x="16.2" y="46.7" width="4.6" height="22.5"/>
				</defs>
				<clipPath id="SVGID_95_">
					<use xlink:href="#SVGID_94_"  style="overflow:visible;"/>
				</clipPath>
				<path class="st54" d="M19,50.8c-0.8-2.6-1.8-3.8-2.8-4.2c0.6,0.7,0.9,1.8,1.2,2.6c0.7,2.2,1,4.6,1.2,6.9
					c0.3,2.6,0.5,5.2,0.6,7.8c0,1.7,0,3.5,0.1,5.2c1-0.4,1.5-0.8,1.5-0.8C21,60.9,20,54.8,19,50.8"/>
			</g>
		</g>
		<g class="st41">
			<g>
				<defs>
					<rect id="SVGID_96_" x="11.1" y="49.2" width="2.7" height="16"/>
				</defs>
				<clipPath id="SVGID_97_">
					<use xlink:href="#SVGID_96_"  style="overflow:visible;"/>
				</clipPath>
				<path class="st55" d="M13,65.3c-0.1-5.4-0.1-10.7,0.8-16c-1.2,3.4-1.8,6.9-2.2,10.5c-0.2,1.7-0.4,3.3-0.5,5
					C11.7,65,12.3,65.1,13,65.3"/>
			</g>
		</g>
		<path class="st56" d="M11,67c0,0.1,0,0.3,0,0.4c0,0.2,0,0.4,0,0.6c0.6,0.4,1.3,0.6,2.1,0.7c0-0.4,0-0.9,0-1.3
			C12.4,67.3,11.7,67.2,11,67"/>
	</g>
</g>
</svg>
