<?xml version="1.0" encoding="utf-8"?>
<!-- Generator: Adobe Illustrator 22.0.0, SVG Export Plug-In . SVG Version: 6.00 Build 0)  -->
<svg version="1.1" id="Capa_1" xmlns="http://www.w3.org/2000/svg" xmlns:xlink="http://www.w3.org/1999/xlink" x="0px" y="0px"
	 viewBox="0 0 28.7 79.3" style="enable-background:new 0 0 28.7 79.3;" xml:space="preserve">
<style type="text/css">
	.st0{clip-path:url(#SVGID_2_);}
	.st1{clip-path:url(#SVGID_4_);}
	.st2{clip-path:url(#SVGID_6_);}
	.st3{clip-path:url(#SVGID_8_);fill:#FFFFFF;}
	.st4{clip-path:url(#SVGID_10_);fill:#F1F1F1;}
	.st5{clip-path:url(#SVGID_12_);fill:#E2E2E2;}
	.st6{clip-path:url(#SVGID_14_);fill:#D4D4D4;}
	.st7{clip-path:url(#SVGID_16_);fill:#C5C5C5;}
	.st8{clip-path:url(#SVGID_18_);fill:#B7B7B7;}
	.st9{clip-path:url(#SVGID_20_);fill:#A8A8A8;}
	.st10{clip-path:url(#SVGID_22_);fill:#9A9A9A;}
	.st11{clip-path:url(#SVGID_24_);fill:#8B8B8B;}
	.st12{clip-path:url(#SVGID_26_);fill:#7D7D7D;}
	.st13{clip-path:url(#SVGID_28_);fill:#6E6E6E;}
	.st14{clip-path:url(#SVGID_30_);fill:#606060;}
	.st15{clip-path:url(#SVGID_4_);fill:#9696A3;}
	.st16{opacity:0.9;clip-path:url(#SVGID_4_);}
	.st17{clip-path:url(#SVGID_32_);fill:#FFFFFF;}
	.st18{opacity:0.6;clip-path:url(#SVGID_4_);}
	.st19{clip-path:url(#SVGID_34_);fill:#525557;}
	.st20{clip-path:url(#SVGID_36_);fill:#FFFFFF;}
	.st21{clip-path:url(#SVGID_38_);fill:#525557;}
	.st22{clip-path:url(#SVGID_4_);fill:#3A3C3F;}
	.st23{clip-path:url(#SVGID_4_);fill:#575A5B;}
	.st24{clip-path:url(#SVGID_4_);fill:#626467;}
	.st25{clip-path:url(#SVGID_40_);fill:url(#SVGID_41_);}
	.st26{clip-path:url(#SVGID_43_);fill:#3A3C3F;}
	.st27{opacity:0.6;clip-path:url(#SVGID_43_);}
	.st28{clip-path:url(#SVGID_45_);fill:#B3B5B8;}
	.st29{clip-path:url(#SVGID_47_);fill:#B3B5B8;}
	.st30{clip-path:url(#SVGID_43_);fill:#626467;}
	.st31{clip-path:url(#SVGID_49_);fill:url(#SVGID_50_);}
	.st32{clip-path:url(#SVGID_52_);fill:#3A3C3F;}
	.st33{opacity:0.6;clip-path:url(#SVGID_52_);}
	.st34{clip-path:url(#SVGID_54_);fill:#B3B5B8;}
	.st35{clip-path:url(#SVGID_56_);fill:#B3B5B8;}
	.st36{clip-path:url(#SVGID_52_);fill:#9D9FA1;}
	.st37{opacity:0.5;clip-path:url(#SVGID_52_);}
	.st38{clip-path:url(#SVGID_58_);fill:#9D9FA1;}
	.st39{clip-path:url(#SVGID_60_);fill:#9D9FA1;}
	.st40{clip-path:url(#SVGID_52_);fill:#C2C4C6;}
	.st41{clip-path:url(#SVGID_52_);fill:#3E4042;}
	.st42{clip-path:url(#SVGID_52_);fill:#9696A3;}
	.st43{opacity:0.4;clip-path:url(#SVGID_52_);}
	.st44{clip-path:url(#SVGID_62_);fill:#9696A3;}
	.st45{opacity:0.9;clip-path:url(#SVGID_52_);}
	.st46{clip-path:url(#SVGID_64_);fill:#9696A3;}
	.st47{clip-path:url(#SVGID_66_);fill:#FFFFFF;}
	.st48{clip-path:url(#SVGID_52_);fill:#61626B;}
</style>
<g>
	<defs>
		<rect id="SVGID_1_" width="28.7" height="79.3"/>
	</defs>
	<clipPath id="SVGID_2_">
		<use xlink:href="#SVGID_1_"  style="overflow:visible;"/>
	</clipPath>
	<g class="st0">
		<defs>
			<rect id="SVGID_3_" y="0" width="28.7" height="79.3"/>
		</defs>
		<clipPath id="SVGID_4_">
			<use xlink:href="#SVGID_3_"  style="overflow:visible;"/>
		</clipPath>
		<g class="st1">
			<g>
				<defs>
					<rect id="SVGID_5_" x="0" y="0" width="28.7" height="79.3"/>
				</defs>
				<clipPath id="SVGID_6_">
					<use xlink:href="#SVGID_5_"  style="overflow:visible;"/>
				</clipPath>
				<g class="st2">
					<g>
						<defs>
							<rect id="SVGID_7_" x="3.6" y="3.6" width="25.1" height="75.7"/>
						</defs>
						<clipPath id="SVGID_8_">
							<use xlink:href="#SVGID_7_"  style="overflow:visible;"/>
						</clipPath>
						<path class="st3" d="M28.5,66.7c0.2-6.4-3.5-16.8-6.5-24.2v0c0,0,0,0,0-0.1c-0.2-0.5-0.4-1-0.6-1.5c0,0,0-0.1-0.1-0.1
							c0-0.1-0.1-0.2-0.1-0.3V30.3v-0.9v-1v-0.9V16.3h0C20.8,13.1,17,4.6,16.6,4c-0.3-0.4-0.5-0.4-0.7-0.4c-0.1,0-0.4,0-0.7,0.4
							c-0.3,0.5-4.1,9.1-4.4,12.3h0v11.2v0.9v1v0.9v11.1c-0.2,0.4-0.3,0.7-0.5,1.1c0,0,0,0,0,0.1v0c-3,7.4-6.7,17.8-6.5,24.2
							c0,0-0.5,11.8,0,12.4c0,0,0,0,0,0c0,0,0,0,0,0c0.3,0,3.6-7.2,6.4-13.5l0.6,0.4v3v2.1l1.4,5.6h0.4c0,0,0,0.1,0,0.1h0
							c0,0.1,0,0.1,0,0.2h0c0,0.1-0.1,0.3-0.1,0.4h0c0,0,0,0,0,0c0,0,0,0,0,0c0,0,0,0.1,0,0.1c0,0,0,0,0,0c0,0.1,0,0.3-0.1,0.4
							c0,0,0,0,0,0c0,0.1,0,0.1,0,0.2c0,0.1,0,0.3,0,0.4c0,0,0,0,0,0c0,0.1,0,0.1,0,0.2c0,0,0,0,0,0c0,0.1,0,0.2,0,0.3c0,0,0,0,0,0
							c0,0,0,0,0,0c0,0,0,0,0.1,0c0,0,0,0,0,0v0c0.2,0.1,0.7,0.2,1.4,0.2v0h0c0.3,0,0.6,0,0.9-0.1c0,0,0,0,0,0c0.1,0,0.2,0,0.3-0.1
							c0,0,0,0,0,0c0.1,0,0.1,0,0.2,0c0,0,0,0,0,0c0,0,0.1,0,0.1,0c0,0,0,0,0,0c0,0,0,0,0,0c0-0.1,0-0.2,0-0.3c0,0,0,0,0,0
							c0-0.1,0-0.1,0-0.2c0,0,0,0,0,0c0-0.1,0-0.3,0-0.4h0c0-0.1,0-0.1,0-0.2c0,0,0,0,0,0c0-0.1,0-0.3-0.1-0.4c0,0,0,0,0,0
							c0,0,0-0.1,0-0.1c0,0,0,0,0,0c0,0,0,0,0,0c0,0,0,0,0,0c0-0.1-0.1-0.3-0.1-0.4c0,0,0,0,0,0c0-0.1,0-0.1,0-0.2h0
							c0,0,0-0.1,0-0.1h0.5h0.6h0c0,0,0,0.1,0,0.1h0c0,0.1,0,0.1,0,0.2h0c0,0.1-0.1,0.3-0.1,0.4h0c0,0,0,0,0,0c0,0,0,0,0,0
							c0,0,0,0.1,0,0.1c0,0,0,0,0,0c0,0.1,0,0.3-0.1,0.4c0,0,0,0,0,0c0,0.1,0,0.1,0,0.2h0c0,0.1,0,0.3,0,0.4c0,0,0,0,0,0
							c0,0.1,0,0.1,0,0.2c0,0,0,0,0,0c0,0.1,0,0.2,0,0.3c0,0,0,0,0,0c0,0,0,0,0,0c0,0,0,0,0.1,0c0,0,0,0,0,0v0
							c0.2,0.1,0.7,0.2,1.4,0.2v0h0c0.3,0,0.6,0,0.9-0.1c0,0,0,0,0,0c0.1,0,0.2,0,0.3-0.1c0,0,0,0,0,0c0.1,0,0.1,0,0.2,0
							c0,0,0,0,0,0c0,0,0.1,0,0.1,0c0,0,0,0,0,0c0,0,0,0,0,0c0-0.1,0-0.2,0-0.3c0,0,0,0,0,0c0-0.1,0-0.1,0-0.2c0,0,0,0,0,0
							c0-0.1,0-0.3,0-0.4h0c0-0.1,0-0.1,0-0.2c0,0,0,0,0,0c0-0.1,0-0.3-0.1-0.4c0,0,0,0,0,0c0,0,0-0.1,0-0.1c0,0,0,0,0,0
							c0,0,0,0,0,0l0,0c0-0.1-0.1-0.3-0.1-0.4c0,0,0,0,0,0c0-0.1,0-0.1,0-0.2c0,0,0-0.1,0-0.1h0.9l1.4-5.6v-2.1v-2.6l0.8-0.4v-0.8
							c2.9,6.4,6.3,14,6.6,13.9c0,0,0,0,0,0c0,0,0,0,0,0C29,78.5,28.5,66.7,28.5,66.7"/>
					</g>
				</g>
				<g class="st2">
					<g>
						<defs>
							<rect id="SVGID_9_" x="3.3" y="3.3" width="25.1" height="75.7"/>
						</defs>
						<clipPath id="SVGID_10_">
							<use xlink:href="#SVGID_9_"  style="overflow:visible;"/>
						</clipPath>
						<path class="st4" d="M28.1,66.4c0.2-6.4-3.5-16.8-6.5-24.2c0,0,0,0,0-0.1c-0.2-0.5-0.4-1-0.6-1.5c0,0,0-0.1-0.1-0.1
							c0-0.1-0.1-0.2-0.1-0.3V29.9v-0.9v-1v-0.9V16h0c-0.3-3.3-4.1-11.8-4.4-12.3c-0.3-0.4-0.6-0.4-0.7-0.4c-0.1,0-0.4,0-0.7,0.4
							c-0.3,0.5-4.1,9.1-4.4,12.3h0v11.2v0.9v1v0.9v11.1c-0.2,0.4-0.3,0.7-0.5,1.1c0,0,0,0,0,0.1v0C7,49.6,3.3,60,3.5,66.4
							c0,0-0.5,11.8,0,12.4c0,0,0,0,0,0c0,0,0,0,0,0c0.3,0,3.6-7.2,6.4-13.5l0.6,0.4v3v2.1l1.4,5.6h0.4c0,0,0,0.1,0,0.1c0,0,0,0,0,0
							c0,0.1,0,0.1,0,0.2c0,0,0,0,0,0c0,0.1-0.1,0.3-0.1,0.4c0,0,0,0,0,0c0,0,0,0,0,0c0,0,0,0.1,0,0.1c0,0,0,0,0,0
							c0,0.1,0,0.3-0.1,0.4c0,0,0,0,0,0c0,0.1,0,0.1,0,0.2h0c0,0.1,0,0.3,0,0.4c0,0,0,0,0,0c0,0.1,0,0.1,0,0.2c0,0,0,0,0,0
							c0,0.1,0,0.2,0,0.3c0,0,0,0,0,0c0,0,0,0,0,0c0,0,0,0,0.1,0c0,0,0,0,0,0c0.2,0.1,0.7,0.2,1.4,0.2h0c0.3,0,0.6,0,0.9-0.1v0
							c0,0,0,0,0,0c0.1,0,0.2,0,0.3-0.1c0,0,0,0,0,0c0.1,0,0.1,0,0.2,0c0,0,0,0,0,0c0,0,0.1,0,0.1,0c0,0,0,0,0,0c0,0,0,0,0,0
							c0-0.1,0-0.2,0-0.3c0,0,0,0,0,0c0-0.1,0-0.1,0-0.2c0,0,0,0,0,0c0-0.1,0-0.3,0-0.4h0c0-0.1,0-0.1,0-0.2c0,0,0,0,0,0
							c0-0.1,0-0.3-0.1-0.4h0c0,0,0-0.1,0-0.1c0,0,0,0,0,0c0,0,0,0,0,0h0c0-0.1-0.1-0.3-0.1-0.4h0c0-0.1,0-0.1,0-0.2c0,0,0,0,0,0
							c0,0,0-0.1,0-0.1h0.5H16h0c0,0,0,0.1,0,0.1l0,0c0,0.1,0,0.1,0,0.2c0,0,0,0,0,0c0,0.1-0.1,0.3-0.1,0.4h0c0,0,0,0,0,0
							c0,0,0,0,0,0c0,0,0,0.1,0,0.1c0,0,0,0,0,0c0,0.1,0,0.3-0.1,0.4c0,0,0,0,0,0c0,0.1,0,0.1,0,0.2h0c0,0.1,0,0.3,0,0.4
							c0,0,0,0,0,0c0,0.1,0,0.1,0,0.2c0,0,0,0,0,0c0,0.1,0,0.2,0,0.3c0,0,0,0,0,0c0,0,0,0,0,0c0,0,0,0,0.1,0c0,0,0,0,0,0
							c0.2,0.1,0.7,0.2,1.4,0.2h0c0.3,0,0.6,0,0.9-0.1v0c0,0,0,0,0,0c0.1,0,0.2,0,0.3-0.1c0,0,0,0,0,0c0.1,0,0.1,0,0.2,0
							c0,0,0,0,0,0c0,0,0.1,0,0.1,0c0,0,0,0,0,0c0,0,0,0,0,0c0-0.1,0-0.2,0-0.3c0,0,0,0,0,0c0-0.1,0-0.1,0-0.2c0,0,0,0,0,0
							c0-0.1,0-0.3,0-0.4h0c0-0.1,0-0.1,0-0.2c0,0,0,0,0,0c0-0.1,0-0.3-0.1-0.4h0c0,0,0-0.1,0-0.1c0,0,0,0,0,0c0,0,0,0,0,0h0
							c0-0.1-0.1-0.3-0.1-0.4h0c0-0.1,0-0.1,0-0.2l0,0c0,0,0-0.1,0-0.1h0.9l1.4-5.6v-2.1v-2.6l0.8-0.4v-0.8
							c2.9,6.4,6.3,13.9,6.6,13.9c0,0,0,0,0,0c0,0,0,0,0,0C28.6,78.2,28.1,66.4,28.1,66.4"/>
					</g>
				</g>
				<g class="st2">
					<g>
						<defs>
							<rect id="SVGID_11_" x="3" y="3" width="25.1" height="75.7"/>
						</defs>
						<clipPath id="SVGID_12_">
							<use xlink:href="#SVGID_11_"  style="overflow:visible;"/>
						</clipPath>
						<path class="st5" d="M27.8,66.1c0.2-6.4-3.5-16.8-6.5-24.2v0c0,0,0,0,0-0.1c-0.2-0.5-0.4-1-0.6-1.5c0,0,0-0.1-0.1-0.1
							c0-0.1-0.1-0.2-0.1-0.3V29.6v-0.9v-1v-0.9V15.7h0C20.1,12.4,16.3,3.9,16,3.4C15.7,3,15.4,2.9,15.3,3c-0.1,0-0.4,0-0.7,0.4
							c-0.3,0.5-4.1,9.1-4.4,12.3h0v11.3v0.9v1v0.9v11.1c-0.2,0.4-0.3,0.7-0.5,1.1c0,0,0,0,0,0.1v0c-3,7.4-6.7,17.8-6.5,24.2
							c0,0-0.5,11.8,0,12.4c0,0,0,0,0,0c0,0,0,0,0,0c0.3,0,3.6-7.2,6.4-13.5l0.6,0.4v3v2.1l1.4,5.6H12c0,0,0,0.1,0,0.1h0
							c0,0.1,0,0.1,0,0.2c0,0,0,0,0,0c0,0.1-0.1,0.3-0.1,0.4h0c0,0,0,0,0,0c0,0,0,0,0,0c0,0,0,0.1,0,0.1c0,0,0,0,0,0
							c0,0.1,0,0.3-0.1,0.4c0,0,0,0,0,0c0,0.1,0,0.1,0,0.2h0c0,0.1,0,0.3,0,0.4c0,0,0,0,0,0c0,0.1,0,0.1,0,0.2c0,0,0,0,0,0
							c0,0.1,0,0.2,0,0.3c0,0,0,0,0,0c0,0,0,0,0,0c0,0,0,0,0.1,0c0,0,0,0,0,0c0.2,0.1,0.7,0.2,1.4,0.2h0c0.3,0,0.6,0,0.9-0.1
							c0,0,0,0,0,0c0.1,0,0.2,0,0.3-0.1c0,0,0,0,0,0c0.1,0,0.1,0,0.2,0c0,0,0,0,0,0c0,0,0.1,0,0.1,0c0,0,0,0,0,0c0,0,0,0,0,0
							c0-0.1,0-0.2,0-0.3c0,0,0,0,0,0c0-0.1,0-0.1,0-0.2c0,0,0,0,0,0c0-0.1,0-0.3,0-0.4h0c0-0.1,0-0.1,0-0.2c0,0,0,0,0,0
							c0-0.1,0-0.3-0.1-0.4c0,0,0,0,0,0c0,0,0-0.1,0-0.1c0,0,0,0,0,0c0,0,0,0,0,0h0c0-0.1-0.1-0.3-0.1-0.4c0,0,0,0,0,0
							c0-0.1,0-0.1,0-0.2h0c0,0,0-0.1,0-0.1H15h0.6h0c0,0,0,0.1,0,0.1h0c0,0.1,0,0.1,0,0.2c0,0,0,0,0,0c0,0.1-0.1,0.3-0.1,0.4h0
							c0,0,0,0,0,0c0,0,0,0,0,0c0,0,0,0.1,0,0.1c0,0,0,0,0,0c0,0.1,0,0.3-0.1,0.4c0,0,0,0,0,0c0,0.1,0,0.1,0,0.2c0,0.1,0,0.3,0,0.4
							c0,0,0,0,0,0c0,0.1,0,0.1,0,0.2c0,0,0,0,0,0c0,0.1,0,0.2,0,0.3c0,0,0,0,0,0c0,0,0,0,0,0c0,0,0,0,0.1,0c0,0,0,0,0,0
							c0.2,0.1,0.7,0.2,1.4,0.2h0c0.3,0,0.6,0,0.9-0.1c0,0,0,0,0,0c0.1,0,0.2,0,0.3-0.1c0,0,0,0,0,0c0.1,0,0.1,0,0.2,0c0,0,0,0,0,0
							c0,0,0.1,0,0.1,0c0,0,0,0,0,0c0,0,0,0,0,0c0-0.1,0-0.2,0-0.3c0,0,0,0,0,0c0-0.1,0-0.1,0-0.2c0,0,0,0,0,0c0-0.1,0-0.3,0-0.4h0
							c0-0.1,0-0.1,0-0.2c0,0,0,0,0,0c0-0.1,0-0.3-0.1-0.4c0,0,0,0,0,0c0,0,0-0.1,0-0.1c0,0,0,0,0,0c0,0,0,0,0,0h0
							c0-0.1-0.1-0.3-0.1-0.4c0,0,0,0,0,0c0-0.1,0-0.1,0-0.2h0c0,0,0-0.1,0-0.1H19l1.4-5.6v-2.1v-2.6l0.8-0.4v-0.8
							c2.9,6.4,6.3,14,6.6,13.9c0,0,0,0,0,0c0,0,0,0,0,0C28.3,77.9,27.8,66.1,27.8,66.1"/>
					</g>
				</g>
				<g class="st2">
					<g>
						<defs>
							<rect id="SVGID_13_" x="2.6" y="2.6" width="25.1" height="75.7"/>
						</defs>
						<clipPath id="SVGID_14_">
							<use xlink:href="#SVGID_13_"  style="overflow:visible;"/>
						</clipPath>
						<path class="st6" d="M27.5,65.8c0.2-6.4-3.5-16.8-6.5-24.2v0c0,0,0,0,0-0.1c-0.2-0.5-0.4-1-0.6-1.5c0,0,0-0.1-0.1-0.1
							c0-0.1-0.1-0.2-0.1-0.3V29.3v-0.9v-1v-0.9V15.4h0C19.8,12.1,16,3.6,15.7,3.1c-0.3-0.4-0.6-0.4-0.7-0.4c-0.1,0-0.4,0-0.7,0.4
							c-0.3,0.5-4.1,9.1-4.4,12.3h0v11.3v0.9v1v0.9v11.1c-0.2,0.4-0.3,0.7-0.5,1.1c0,0,0,0,0,0.1v0c-3,7.4-6.7,17.8-6.5,24.2
							c0,0-0.5,11.8,0,12.4c0,0,0,0,0,0c0,0,0,0,0,0c0.3,0,3.6-7.2,6.4-13.5l0.6,0.4v3v2.1l1.4,5.6h0.4c0,0,0,0.1,0,0.1h0
							c0,0.1,0,0.1,0,0.2c0,0,0,0,0,0c0,0.1-0.1,0.3-0.1,0.4h0c0,0,0,0,0,0c0,0,0,0,0,0c0,0,0,0.1,0,0.1c0,0,0,0,0,0
							c0,0.1,0,0.3-0.1,0.4c0,0,0,0,0,0c0,0.1,0,0.1,0,0.2c0,0.1,0,0.3,0,0.4c0,0,0,0,0,0c0,0.1,0,0.1,0,0.2c0,0,0,0,0,0
							c0,0.1,0,0.2,0,0.3c0,0,0,0,0,0c0,0,0,0,0,0c0,0,0,0,0.1,0c0,0,0,0,0,0c0.2,0.1,0.7,0.2,1.4,0.2v0h0c0.3,0,0.6,0,0.9-0.1v0
							c0,0,0,0,0,0c0.1,0,0.2,0,0.3-0.1c0,0,0,0,0,0c0.1,0,0.1,0,0.2,0c0,0,0,0,0,0c0,0,0.1,0,0.1,0c0,0,0,0,0,0c0,0,0,0,0,0
							c0-0.1,0-0.2,0-0.3c0,0,0,0,0,0c0-0.1,0-0.1,0-0.2c0,0,0,0,0,0c0-0.1,0-0.3,0-0.4h0c0-0.1,0-0.1,0-0.2c0,0,0,0,0,0
							c0-0.1,0-0.3-0.1-0.4c0,0,0,0,0,0c0,0,0-0.1,0-0.1c0,0,0,0,0,0c0,0,0,0,0,0h0c0-0.1-0.1-0.3-0.1-0.4c0,0,0,0,0,0
							c0-0.1,0-0.1,0-0.2h0c0,0,0-0.1,0-0.1h0.5h0.6h0c0,0,0,0.1,0,0.1h0c0,0.1,0,0.1,0,0.2c0,0,0,0,0,0c0,0.1-0.1,0.3-0.1,0.4h0
							c0,0,0,0,0,0c0,0,0,0,0,0c0,0,0,0.1,0,0.1c0,0,0,0,0,0c0,0.1,0,0.3-0.1,0.4c0,0,0,0,0,0c0,0.1,0,0.1,0,0.2c0,0.1,0,0.3,0,0.4
							c0,0,0,0,0,0c0,0.1,0,0.1,0,0.2c0,0,0,0,0,0c0,0.1,0,0.2,0,0.3c0,0,0,0,0,0c0,0,0,0,0,0c0,0,0,0,0.1,0c0,0,0,0,0,0
							c0.2,0.1,0.7,0.2,1.4,0.2v0h0c0.3,0,0.6,0,0.9-0.1v0c0,0,0,0,0,0c0.1,0,0.2,0,0.3-0.1c0,0,0,0,0,0c0.1,0,0.1,0,0.2,0
							c0,0,0,0,0,0c0,0,0.1,0,0.1,0c0,0,0,0,0,0c0,0,0,0,0,0c0-0.1,0-0.2,0-0.3c0,0,0,0,0,0c0-0.1,0-0.1,0-0.2l0,0
							c0-0.1,0-0.3,0-0.4h0c0-0.1,0-0.1,0-0.2c0,0,0,0,0,0c0-0.1,0-0.3-0.1-0.4c0,0,0,0,0,0c0,0,0-0.1,0-0.1c0,0,0,0,0,0
							c0,0,0,0,0,0h0c0-0.1-0.1-0.3-0.1-0.4c0,0,0,0,0,0c0-0.1,0-0.1,0-0.2c0,0,0-0.1,0-0.1h0.9l1.4-5.6v-2.1v-2.6l0.8-0.4v-0.8
							c2.9,6.4,6.3,13.9,6.6,13.9c0,0,0,0,0,0c0,0,0,0,0,0C28,77.5,27.5,65.8,27.5,65.8"/>
					</g>
				</g>
				<g class="st2">
					<g>
						<defs>
							<rect id="SVGID_15_" x="2.3" y="2.3" width="25.1" height="75.7"/>
						</defs>
						<clipPath id="SVGID_16_">
							<use xlink:href="#SVGID_15_"  style="overflow:visible;"/>
						</clipPath>
						<path class="st7" d="M27.2,65.4c0.2-6.4-3.5-16.8-6.5-24.2v0c0,0,0,0,0-0.1c-0.2-0.5-0.4-1-0.6-1.5c0,0,0-0.1,0-0.1
							c0-0.1-0.1-0.2-0.1-0.3V29v-0.9v-1v-0.9V15h0c-0.3-3.3-4.1-11.8-4.4-12.3c-0.3-0.4-0.6-0.4-0.7-0.4c-0.1,0-0.4,0-0.7,0.4
							C13.7,3.2,9.9,11.8,9.6,15h0v11.2v0.9v1V29v11.1c-0.1,0.4-0.3,0.7-0.5,1.1c0,0,0,0,0,0.1v0C6,48.7,2.3,59,2.5,65.4
							c0,0-0.5,11.8,0,12.4c0,0,0,0,0,0c0,0,0,0,0,0c0.3,0,3.6-7.2,6.4-13.5l0.6,0.4v3v2.1l1.4,5.6h0.4c0,0,0,0.1,0,0.1h0
							c0,0.1,0,0.1,0,0.2c0,0,0,0,0,0c0,0.1-0.1,0.3-0.1,0.4h0c0,0,0,0,0,0c0,0,0,0,0,0c0,0,0,0.1,0,0.1c0,0,0,0,0,0
							c0,0.1,0,0.3-0.1,0.4c0,0,0,0,0,0c0,0.1,0,0.1,0,0.2c0,0,0,0,0,0c0,0.1,0,0.3,0,0.4c0,0,0,0,0,0c0,0.1,0,0.1,0,0.2
							c0,0,0,0,0,0c0,0.1,0,0.2,0,0.3c0,0,0,0,0,0c0,0,0,0,0,0c0,0,0,0,0.1,0c0,0,0,0,0,0c0.2,0.1,0.7,0.2,1.4,0.2v0h0
							c0.3,0,0.6,0,0.9-0.1c0,0,0,0,0,0c0.1,0,0.2,0,0.3-0.1c0,0,0,0,0,0c0.1,0,0.1,0,0.2,0c0,0,0,0,0,0c0,0,0.1,0,0.1,0
							c0,0,0,0,0,0c0,0,0,0,0,0c0-0.1,0-0.2,0-0.3c0,0,0,0,0,0c0-0.1,0-0.1,0-0.2c0,0,0,0,0,0c0-0.1,0-0.3,0-0.4l0,0
							c0-0.1,0-0.1,0-0.2c0,0,0,0,0,0c0-0.1,0-0.3-0.1-0.4h0c0,0,0-0.1,0-0.1c0,0,0,0,0,0c0,0,0,0,0,0h0c0-0.1-0.1-0.3-0.1-0.4h0
							c0-0.1,0-0.1,0-0.2c0,0,0-0.1,0-0.1h0.5H15h0c0,0,0,0.1,0,0.1h0c0,0.1,0,0.1,0,0.2c0,0,0,0,0,0c0,0.1-0.1,0.3-0.1,0.4h0
							c0,0,0,0,0,0c0,0,0,0,0,0c0,0,0,0.1,0,0.1c0,0,0,0,0,0c0,0.1,0,0.3-0.1,0.4c0,0,0,0,0,0c0,0.1,0,0.1,0,0.2c0,0,0,0,0,0
							c0,0.1,0,0.3,0,0.4c0,0,0,0,0,0c0,0.1,0,0.1,0,0.2c0,0,0,0,0,0c0,0.1,0,0.2,0,0.3c0,0,0,0,0,0c0,0,0,0,0,0c0,0,0,0,0.1,0
							c0,0,0,0,0,0c0.2,0.1,0.7,0.2,1.4,0.2v0h0c0.3,0,0.6,0,0.9-0.1c0,0,0,0,0,0c0.1,0,0.2,0,0.3-0.1c0,0,0,0,0,0
							c0.1,0,0.1,0,0.2,0c0,0,0,0,0,0c0,0,0.1,0,0.1,0c0,0,0,0,0,0c0,0,0,0,0,0c0-0.1,0-0.2,0-0.3c0,0,0,0,0,0c0-0.1,0-0.1,0-0.2
							c0,0,0,0,0,0c0-0.1,0-0.3,0-0.4c0,0,0,0,0,0c0-0.1,0-0.1,0-0.2c0,0,0,0,0,0c0-0.1,0-0.3-0.1-0.4h0c0,0,0-0.1,0-0.1
							c0,0,0,0,0,0c0,0,0,0,0,0h0c0-0.1-0.1-0.3-0.1-0.4c0,0,0,0,0,0c0-0.1,0-0.1,0-0.2c0,0,0-0.1,0-0.1h0.9l1.4-5.6v-2.1v-2.6
							l0.8-0.4v-0.8c2.9,6.4,6.3,13.9,6.6,13.9c0,0,0,0,0,0c0,0,0,0,0,0C27.6,77.2,27.2,65.4,27.2,65.4"/>
					</g>
				</g>
				<g class="st2">
					<g>
						<defs>
							<rect id="SVGID_17_" x="2" y="2" width="25.1" height="75.7"/>
						</defs>
						<clipPath id="SVGID_18_">
							<use xlink:href="#SVGID_17_"  style="overflow:visible;"/>
						</clipPath>
						<path class="st8" d="M26.8,65.1c0.2-6.4-3.5-16.8-6.5-24.2v0c0,0,0,0,0-0.1c-0.2-0.5-0.4-1-0.6-1.5c0,0,0-0.1-0.1-0.1
							c0-0.1-0.1-0.2-0.1-0.3V28.6v-0.9v-1V26V14.7h0C19.2,11.5,15.3,2.9,15,2.4C14.8,2,14.5,2,14.3,2c-0.1,0-0.4,0-0.7,0.4
							c-0.3,0.5-4.1,9.1-4.4,12.3h0V26v0.9v1v0.9v11.1c-0.2,0.4-0.3,0.7-0.5,1.1c0,0,0,0,0,0.1v0c-3,7.4-6.7,17.8-6.5,24.2
							c0,0-0.5,11.8,0,12.4c0,0,0,0,0,0c0,0,0,0,0,0c0.3,0,3.6-7.2,6.4-13.5l0.6,0.4v3v2.1l1.4,5.6h0.4c0,0,0,0.1,0,0.1h0
							c0,0.1,0,0.1,0,0.2c0,0,0,0,0,0c0,0.1-0.1,0.3-0.1,0.4h0c0,0,0,0,0,0c0,0,0,0,0,0c0,0,0,0.1,0,0.1c0,0,0,0,0,0
							c0,0.1,0,0.3-0.1,0.4c0,0,0,0,0,0c0,0.1,0,0.1,0,0.2h0c0,0.1,0,0.3,0,0.4c0,0,0,0,0,0c0,0.1,0,0.1,0,0.2c0,0,0,0,0,0
							c0,0.1,0,0.2,0,0.3c0,0,0,0,0,0c0,0,0,0,0,0c0,0,0,0,0.1,0c0,0,0,0,0,0c0.2,0.1,0.7,0.2,1.4,0.2h0c0.3,0,0.6,0,0.9-0.1
							c0,0,0,0,0,0c0.1,0,0.2,0,0.3-0.1c0,0,0,0,0,0c0.1,0,0.1,0,0.2,0c0,0,0,0,0,0c0,0,0.1,0,0.1,0c0,0,0,0,0,0c0,0,0,0,0,0
							c0-0.1,0-0.2,0-0.3c0,0,0,0,0,0c0-0.1,0-0.1,0-0.2c0,0,0,0,0,0c0-0.1,0-0.3,0-0.4h0c0-0.1,0-0.1,0-0.2c0,0,0,0,0,0
							c0-0.1,0-0.3-0.1-0.4c0,0,0,0,0,0c0,0,0-0.1,0-0.1c0,0,0,0,0,0c0,0,0,0,0,0l0,0c0-0.1-0.1-0.3-0.1-0.4c0,0,0,0,0,0
							c0-0.1,0-0.1,0-0.2h0c0,0,0-0.1,0-0.1H14h0.6h0c0,0,0,0.1,0,0.1h0c0,0.1,0,0.1,0,0.2c0,0,0,0,0,0c0,0.1-0.1,0.3-0.1,0.4h0
							c0,0,0,0,0,0c0,0,0,0,0,0c0,0,0,0.1,0,0.1c0,0,0,0,0,0c0,0.1,0,0.3-0.1,0.4c0,0,0,0,0,0c0,0.1,0,0.1,0,0.2h0
							c0,0.1,0,0.3,0,0.4c0,0,0,0,0,0c0,0.1,0,0.1,0,0.2c0,0,0,0,0,0c0,0.1,0,0.2,0,0.3c0,0,0,0,0,0c0,0,0,0,0,0c0,0,0,0,0.1,0
							c0,0,0,0,0,0c0.2,0.1,0.7,0.2,1.4,0.2h0c0.3,0,0.6,0,0.9-0.1c0,0,0,0,0,0c0.1,0,0.2,0,0.3-0.1c0,0,0,0,0,0c0.1,0,0.1,0,0.2,0
							c0,0,0,0,0,0c0,0,0.1,0,0.1,0c0,0,0,0,0,0c0,0,0,0,0,0c0-0.1,0-0.2,0-0.3c0,0,0,0,0,0c0-0.1,0-0.1,0-0.2c0,0,0,0,0,0
							c0-0.1,0-0.3,0-0.4h0c0-0.1,0-0.1,0-0.2c0,0,0,0,0,0c0-0.1,0-0.3-0.1-0.4c0,0,0,0,0,0c0,0,0-0.1,0-0.1c0,0,0,0,0,0
							c0,0,0,0,0,0c0,0,0,0,0,0c0-0.1-0.1-0.3-0.1-0.4c0,0,0,0,0,0c0-0.1,0-0.1,0-0.2c0,0,0-0.1,0-0.1H18l1.4-5.6v-2.1v-2.6l0.8-0.4
							v-0.8c2.9,6.4,6.3,13.9,6.6,13.9c0,0,0,0,0,0c0,0,0,0,0,0C27.3,76.9,26.8,65.1,26.8,65.1"/>
					</g>
				</g>
				<g class="st2">
					<g>
						<defs>
							<rect id="SVGID_19_" x="1.6" y="1.6" width="25.1" height="75.7"/>
						</defs>
						<clipPath id="SVGID_20_">
							<use xlink:href="#SVGID_19_"  style="overflow:visible;"/>
						</clipPath>
						<path class="st9" d="M26.5,64.8C26.7,58.4,23,48,20,40.6v0c0,0,0,0,0-0.1c-0.2-0.5-0.4-1-0.6-1.5c0,0,0-0.1,0-0.1
							c0-0.1-0.1-0.2-0.1-0.3V28.3v-0.9v-1v-0.9V14.4h0C18.8,11.1,15,2.6,14.7,2.1c-0.3-0.4-0.6-0.4-0.7-0.4c-0.1,0-0.4,0-0.7,0.4
							C13,2.6,9.2,11.1,8.9,14.4h0v11.2v0.9v1v0.9v11.1c-0.2,0.4-0.3,0.7-0.5,1.1c0,0,0,0,0,0.1v0c-3,7.4-6.7,17.8-6.5,24.2
							c0,0-0.5,11.8,0,12.4c0,0,0,0,0,0c0,0,0,0,0,0c0.3,0,3.6-7.2,6.4-13.5l0.6,0.4v3v2.1l1.4,5.6h0.4c0,0,0,0.1,0,0.1c0,0,0,0,0,0
							c0,0.1,0,0.1,0,0.2c0,0,0,0,0,0c0,0.1-0.1,0.3-0.1,0.4c0,0,0,0,0,0c0,0,0,0,0,0c0,0,0,0,0,0c0,0,0,0.1,0,0.1c0,0,0,0,0,0
							c0,0.1,0,0.3-0.1,0.4c0,0,0,0,0,0c0,0.1,0,0.1,0,0.2c0,0.1,0,0.3,0,0.4c0,0,0,0,0,0c0,0.1,0,0.1,0,0.2c0,0,0,0,0,0
							c0,0.1,0,0.2,0,0.3c0,0,0,0,0,0c0,0,0,0,0,0c0,0,0,0,0.1,0c0,0,0,0,0,0c0.2,0.1,0.7,0.2,1.4,0.2c0,0,0,0,0,0
							c0.3,0,0.6,0,0.9-0.1c0,0,0,0,0,0c0.1,0,0.2,0,0.3-0.1c0,0,0,0,0,0c0.1,0,0.1,0,0.2,0c0,0,0,0,0,0c0,0,0.1,0,0.1,0
							c0,0,0,0,0,0c0,0,0,0,0,0c0-0.1,0-0.2,0-0.3c0,0,0,0,0,0c0-0.1,0-0.1,0-0.2c0,0,0,0,0,0c0-0.1,0-0.3,0-0.4h0
							c0-0.1,0-0.1,0-0.2c0,0,0,0,0,0c0-0.1,0-0.3-0.1-0.4h0c0,0,0-0.1,0-0.1c0,0,0,0,0,0c0,0,0,0,0,0h0c0-0.1-0.1-0.3-0.1-0.4h0
							c0-0.1,0-0.1,0-0.2h0c0,0,0-0.1,0-0.1h0.5h0.6h0c0,0,0,0.1,0,0.1c0,0,0,0,0,0c0,0.1,0,0.1,0,0.2c0,0,0,0,0,0
							c0,0.1-0.1,0.3-0.1,0.4l0,0c0,0,0,0,0,0c0,0,0,0,0,0c0,0,0,0.1,0,0.1c0,0,0,0,0,0c0,0.1,0,0.3-0.1,0.4c0,0,0,0,0,0
							c0,0.1,0,0.1,0,0.2h0c0,0.1,0,0.3,0,0.4c0,0,0,0,0,0c0,0.1,0,0.1,0,0.2c0,0,0,0,0,0c0,0.1,0,0.2,0,0.3c0,0,0,0,0,0
							c0,0,0,0,0,0c0,0,0,0,0.1,0c0,0,0,0,0,0c0.2,0.1,0.7,0.2,1.4,0.2c0,0,0,0,0,0c0.3,0,0.6,0,0.9-0.1c0,0,0,0,0,0
							c0.1,0,0.2,0,0.3-0.1l0,0c0.1,0,0.1,0,0.2,0c0,0,0,0,0,0c0,0,0.1,0,0.1,0c0,0,0,0,0,0c0,0,0,0,0,0c0-0.1,0-0.2,0-0.3
							c0,0,0,0,0,0c0-0.1,0-0.1,0-0.2c0,0,0,0,0,0c0-0.1,0-0.3,0-0.4h0c0-0.1,0-0.1,0-0.2c0,0,0,0,0,0c0-0.1,0-0.3-0.1-0.4h0
							c0,0,0-0.1,0-0.1c0,0,0,0,0,0c0,0,0,0,0,0h0c0-0.1-0.1-0.3-0.1-0.4h0c0-0.1,0-0.1,0-0.2h0c0,0,0-0.1,0-0.1h0.9l1.4-5.6v-2.1
							v-2.6l0.8-0.4v-0.8c2.9,6.4,6.3,13.9,6.6,13.9c0,0,0,0,0,0c0,0,0,0,0,0C27,76.6,26.5,64.8,26.5,64.8"/>
					</g>
				</g>
				<g class="st2">
					<g>
						<defs>
							<rect id="SVGID_21_" x="1.3" y="1.3" width="25.1" height="75.7"/>
						</defs>
						<clipPath id="SVGID_22_">
							<use xlink:href="#SVGID_21_"  style="overflow:visible;"/>
						</clipPath>
						<path class="st10" d="M26.2,64.4c0.2-6.4-3.5-16.8-6.5-24.2v0c0,0,0,0,0-0.1c-0.2-0.5-0.4-1-0.6-1.5c0,0,0-0.1-0.1-0.1
							c0-0.1-0.1-0.2-0.1-0.3V28v-0.9v-1v-0.9V14.1h0c-0.3-3.3-4.1-11.8-4.4-12.3c-0.3-0.4-0.6-0.4-0.7-0.4c-0.1,0-0.4,0-0.7,0.4
							c-0.3,0.5-4.1,9.1-4.4,12.3h0v11.2v0.9v1V28v11.1c-0.2,0.4-0.3,0.7-0.5,1.1c0,0,0,0,0,0.1v0c-3,7.4-6.7,17.8-6.5,24.2
							c0,0-0.5,11.8,0,12.4c0,0,0,0,0,0c0,0,0,0,0,0c0.3,0,3.6-7.2,6.4-13.5l0.6,0.4v3v2.1l1.4,5.6h0.4c0,0,0,0.1,0,0.1h0
							c0,0.1,0,0.1,0,0.2c0,0,0,0,0,0c0,0.1-0.1,0.3-0.1,0.4h0c0,0,0,0,0,0c0,0,0,0,0,0c0,0,0,0.1,0,0.1c0,0,0,0,0,0
							c0,0.1,0,0.3-0.1,0.4c0,0,0,0,0,0c0,0.1,0,0.1,0,0.2c0,0,0,0,0,0c0,0.1,0,0.3,0,0.4c0,0,0,0,0,0c0,0.1,0,0.1,0,0.2
							c0,0,0,0,0,0c0,0.1,0,0.2,0,0.3c0,0,0,0,0,0c0,0,0,0,0,0c0,0,0,0,0.1,0c0,0,0,0,0,0v0c0.2,0.1,0.7,0.2,1.4,0.2h0
							c0.3,0,0.6,0,0.9-0.1c0,0,0,0,0,0c0.1,0,0.2,0,0.3-0.1c0,0,0,0,0,0c0.1,0,0.1,0,0.2,0c0,0,0,0,0,0c0,0,0.1,0,0.1,0
							c0,0,0,0,0,0c0,0,0,0,0,0c0-0.1,0-0.2,0-0.3c0,0,0,0,0,0c0-0.1,0-0.1,0-0.2c0,0,0,0,0,0c0-0.1,0-0.3,0-0.4h0
							c0-0.1,0-0.1,0-0.2c0,0,0,0,0,0c0-0.1,0-0.3-0.1-0.4c0,0,0,0,0,0c0,0,0-0.1,0-0.1c0,0,0,0,0,0c0,0,0,0,0,0h0
							c0-0.1-0.1-0.3-0.1-0.4c0,0,0,0,0,0c0-0.1,0-0.1,0-0.2c0,0,0-0.1,0-0.1h0.5H14h0c0,0,0,0.1,0,0.1h0c0,0.1,0,0.1,0,0.2
							c0,0,0,0,0,0c0,0.1-0.1,0.3-0.1,0.4c0,0,0,0,0,0c0,0,0,0,0,0c0,0,0,0.1,0,0.1c0,0,0,0,0,0c0,0.1,0,0.3-0.1,0.4c0,0,0,0,0,0
							c0,0.1,0,0.1,0,0.2l0,0c0,0.1,0,0.3,0,0.4c0,0,0,0,0,0c0,0.1,0,0.1,0,0.2c0,0,0,0,0,0c0,0.1,0,0.2,0,0.3c0,0,0,0,0,0
							c0,0,0,0,0,0c0,0,0,0,0.1,0c0,0,0,0,0,0v0c0.2,0.1,0.7,0.2,1.4,0.2h0c0.3,0,0.6,0,0.9-0.1c0,0,0,0,0,0c0.1,0,0.2,0,0.3-0.1
							c0,0,0,0,0,0c0.1,0,0.1,0,0.2,0c0,0,0,0,0,0c0,0,0.1,0,0.1,0c0,0,0,0,0,0c0,0,0,0,0,0c0-0.1,0-0.2,0-0.3c0,0,0,0,0,0
							c0-0.1,0-0.1,0-0.2c0,0,0,0,0,0c0-0.1,0-0.3,0-0.4h0c0-0.1,0-0.1,0-0.2c0,0,0,0,0,0c0-0.1,0-0.3-0.1-0.4c0,0,0,0,0,0
							c0,0,0-0.1,0-0.1c0,0,0,0,0,0c0,0,0,0,0,0c0,0,0,0,0,0c0-0.1-0.1-0.3-0.1-0.4c0,0,0,0,0,0c0-0.1,0-0.1,0-0.2h0
							c0,0,0-0.1,0-0.1h0.9l1.4-5.6v-2.1v-2.6l0.8-0.4v-0.8c2.9,6.4,6.3,14,6.6,13.9c0,0,0,0,0,0c0,0,0,0,0,0
							C26.7,76.2,26.2,64.4,26.2,64.4"/>
					</g>
				</g>
				<g class="st2">
					<g>
						<defs>
							<rect id="SVGID_23_" x="1" y="1" width="25.1" height="75.7"/>
						</defs>
						<clipPath id="SVGID_24_">
							<use xlink:href="#SVGID_23_"  style="overflow:visible;"/>
						</clipPath>
						<path class="st11" d="M25.8,64.1c0.2-6.4-3.5-16.8-6.5-24.2v0c0,0,0,0,0-0.1c-0.2-0.5-0.4-1-0.6-1.5c0,0,0-0.1-0.1-0.1
							c0-0.1-0.1-0.2-0.1-0.3V27.6v-0.9v-1V25V13.7h0C18.2,10.5,14.4,1.9,14,1.4C13.8,1,13.5,1,13.4,1c-0.1,0-0.4,0-0.7,0.4
							c-0.3,0.5-4.1,9.1-4.4,12.3h0V25v0.9v1v0.9v11.1c-0.2,0.4-0.3,0.7-0.5,1.1c0,0,0,0,0,0.1v0c-3,7.4-6.7,17.8-6.5,24.2
							c0,0-0.5,11.8,0,12.4c0,0,0,0,0,0c0,0,0,0,0,0c0.3,0,3.6-7.2,6.4-13.5l0.6,0.4v3v2.1l1.4,5.6h0.4c0,0,0,0.1,0,0.1h0
							c0,0.1,0,0.1,0,0.2c0,0,0,0,0,0c0,0.1-0.1,0.3-0.1,0.4h0c0,0,0,0,0,0l0,0c0,0,0,0.1,0,0.1c0,0,0,0,0,0c0,0.1,0,0.3-0.1,0.4
							c0,0,0,0,0,0c0,0.1,0,0.1,0,0.2h0c0,0.1,0,0.3,0,0.4c0,0,0,0,0,0c0,0.1,0,0.1,0,0.2c0,0,0,0,0,0c0,0.1,0,0.2,0,0.3
							c0,0,0,0,0,0c0,0,0,0,0,0c0,0,0,0,0.1,0c0,0,0,0,0,0c0.2,0.1,0.7,0.2,1.4,0.2h0c0.3,0,0.6,0,0.9-0.1v0c0,0,0,0,0,0
							c0.1,0,0.2,0,0.3-0.1c0,0,0,0,0,0c0.1,0,0.1,0,0.2,0c0,0,0,0,0,0c0,0,0.1,0,0.1,0c0,0,0,0,0,0c0,0,0,0,0,0c0-0.1,0-0.2,0-0.3
							c0,0,0,0,0,0c0-0.1,0-0.1,0-0.2c0,0,0,0,0,0c0-0.1,0-0.3,0-0.4h0c0-0.1,0-0.1,0-0.2c0,0,0,0,0,0c0-0.1,0-0.3-0.1-0.4
							c0,0,0,0,0,0c0,0,0-0.1,0-0.1c0,0,0,0,0,0c0,0,0,0,0,0h0c0-0.1-0.1-0.3-0.1-0.4c0,0,0,0,0,0c0-0.1,0-0.1,0-0.2h0
							c0,0,0-0.1,0-0.1H13h0.6h0c0,0,0,0.1,0,0.1h0c0,0.1,0,0.1,0,0.2c0,0,0,0,0,0c0,0.1-0.1,0.3-0.1,0.4h0c0,0,0,0,0,0c0,0,0,0,0,0
							c0,0,0,0.1,0,0.1c0,0,0,0,0,0c0,0.1,0,0.3-0.1,0.4c0,0,0,0,0,0c0,0.1,0,0.1,0,0.2c0,0.1,0,0.3,0,0.4c0,0,0,0,0,0
							c0,0.1,0,0.1,0,0.2c0,0,0,0,0,0c0,0.1,0,0.2,0,0.3c0,0,0,0,0,0c0,0,0,0,0,0c0,0,0,0,0.1,0c0,0,0,0,0,0
							c0.2,0.1,0.7,0.2,1.4,0.2h0c0.3,0,0.6,0,0.9-0.1v0c0,0,0,0,0,0c0.1,0,0.2,0,0.3-0.1c0,0,0,0,0,0c0.1,0,0.1,0,0.2,0
							c0,0,0,0,0,0c0,0,0.1,0,0.1,0c0,0,0,0,0,0c0,0,0,0,0,0c0-0.1,0-0.2,0-0.3c0,0,0,0,0,0c0-0.1,0-0.1,0-0.2c0,0,0,0,0,0
							c0-0.1,0-0.3,0-0.4h0c0-0.1,0-0.1,0-0.2c0,0,0,0,0,0c0-0.1,0-0.3-0.1-0.4c0,0,0,0,0,0c0,0,0-0.1,0-0.1c0,0,0,0,0,0
							c0,0,0,0,0,0h0c0-0.1-0.1-0.3-0.1-0.4c0,0,0,0,0,0c0-0.1,0-0.1,0-0.2c0,0,0-0.1,0-0.1H17l1.4-5.6v-2.1v-2.6l0.8-0.4v-0.8
							c2.9,6.4,6.3,13.9,6.6,13.9c0,0,0,0,0,0c0,0,0,0,0,0C26.3,75.9,25.8,64.1,25.8,64.1"/>
					</g>
				</g>
				<g class="st2">
					<g>
						<defs>
							<rect id="SVGID_25_" x="0.7" y="0.7" width="25.1" height="75.7"/>
						</defs>
						<clipPath id="SVGID_26_">
							<use xlink:href="#SVGID_25_"  style="overflow:visible;"/>
						</clipPath>
						<path class="st12" d="M25.5,63.8C25.7,57.4,22,47,19,39.6v0c0,0,0,0,0-0.1c-0.2-0.5-0.4-1-0.6-1.5c0,0,0-0.1,0-0.1
							c0-0.1-0.1-0.2-0.1-0.3V27.3v-0.9v-1v-0.9V13.4h0C17.8,10.1,14,1.6,13.7,1.1c-0.3-0.4-0.6-0.4-0.7-0.4c-0.1,0-0.4,0-0.7,0.4
							C12,1.6,8.2,10.1,7.9,13.4h0v11.3v0.9v1v0.9v11.1c-0.2,0.4-0.3,0.7-0.5,1.1c0,0,0,0,0,0.1v0c-3,7.4-6.7,17.8-6.5,24.2
							c0,0-0.5,11.8,0,12.4c0,0,0,0,0,0c0,0,0,0,0,0c0.3,0,3.6-7.2,6.4-13.5l0.6,0.4v3v2.1l1.4,5.6h0.4c0,0,0,0.1,0,0.1h0
							c0,0.1,0,0.1,0,0.2c0,0,0,0,0,0c0,0.1-0.1,0.3-0.1,0.4h0c0,0,0,0,0,0c0,0,0,0,0,0c0,0,0,0.1,0,0.1c0,0,0,0,0,0
							c0,0.1,0,0.3-0.1,0.4c0,0,0,0,0,0c0,0.1,0,0.1,0,0.2h0c0,0.1,0,0.3,0,0.4c0,0,0,0,0,0c0,0.1,0,0.1,0,0.2c0,0,0,0,0,0
							c0,0.1,0,0.2,0,0.3c0,0,0,0,0,0c0,0,0,0,0,0c0,0,0,0,0.1,0c0,0,0,0,0,0c0.2,0.1,0.7,0.2,1.4,0.2v0c0,0,0,0,0,0
							c0.3,0,0.6,0,0.9-0.1c0,0,0,0,0,0c0.1,0,0.2,0,0.3-0.1c0,0,0,0,0,0c0.1,0,0.1,0,0.2,0c0,0,0,0,0,0c0,0,0.1,0,0.1,0
							c0,0,0,0,0,0c0,0,0,0,0,0c0-0.1,0-0.2,0-0.3c0,0,0,0,0,0c0-0.1,0-0.1,0-0.2c0,0,0,0,0,0c0-0.1,0-0.3,0-0.4c0,0,0,0,0,0
							c0-0.1,0-0.1,0-0.2c0,0,0,0,0,0c0-0.1,0-0.3-0.1-0.4h0c0,0,0-0.1,0-0.1c0,0,0,0,0,0c0,0,0,0,0,0h0c0-0.1-0.1-0.3-0.1-0.4
							c0,0,0,0,0,0c0-0.1,0-0.1,0-0.2c0,0,0-0.1,0-0.1h0.5h0.6h0c0,0,0,0.1,0,0.1c0,0.1,0,0.1,0,0.2c0,0,0,0,0,0
							c0,0.1-0.1,0.3-0.1,0.4h0c0,0,0,0,0,0c0,0,0,0,0,0c0,0,0,0.1,0,0.1c0,0,0,0,0,0c0,0.1,0,0.3-0.1,0.4c0,0,0,0,0,0
							c0,0.1,0,0.1,0,0.2h0c0,0.1,0,0.3,0,0.4c0,0,0,0,0,0c0,0.1,0,0.1,0,0.2c0,0,0,0,0,0c0,0.1,0,0.2,0,0.3c0,0,0,0,0,0
							c0,0,0,0,0,0c0,0,0,0,0.1,0c0,0,0,0,0,0c0.2,0.1,0.7,0.2,1.4,0.2v0c0,0,0,0,0,0c0.3,0,0.6,0,0.9-0.1c0,0,0,0,0,0
							c0.1,0,0.2,0,0.3-0.1c0,0,0,0,0,0c0.1,0,0.1,0,0.2,0c0,0,0,0,0,0c0,0,0.1,0,0.1,0c0,0,0,0,0,0c0,0,0,0,0,0c0-0.1,0-0.2,0-0.3
							c0,0,0,0,0,0c0-0.1,0-0.1,0-0.2c0,0,0,0,0,0c0-0.1,0-0.3,0-0.4c0,0,0,0,0,0c0-0.1,0-0.1,0-0.2c0,0,0,0,0,0
							c0-0.1,0-0.3-0.1-0.4c0,0,0,0,0,0c0,0,0-0.1,0-0.1c0,0,0,0,0,0c0,0,0,0,0,0h0c0-0.1-0.1-0.3-0.1-0.4c0,0,0,0,0,0
							c0-0.1,0-0.1,0-0.2h0c0,0,0-0.1,0-0.1h0.9l1.4-5.6v-2.1v-2.6l0.8-0.4v-0.8c2.9,6.4,6.3,13.9,6.6,13.9c0,0,0,0,0,0c0,0,0,0,0,0
							C26,75.6,25.5,63.8,25.5,63.8"/>
					</g>
				</g>
				<g class="st2">
					<g>
						<defs>
							<rect id="SVGID_27_" x="0.3" y="0.3" width="25.1" height="75.7"/>
						</defs>
						<clipPath id="SVGID_28_">
							<use xlink:href="#SVGID_27_"  style="overflow:visible;"/>
						</clipPath>
						<path class="st13" d="M25.2,63.5c0.2-6.4-3.5-16.8-6.5-24.2v0c0,0,0,0,0-0.1c-0.2-0.5-0.4-1-0.6-1.5c0,0,0-0.1-0.1-0.1
							c0-0.1-0.1-0.2-0.1-0.3V27v-0.9v-1v-0.9V13.1h0c-0.3-3.3-4.1-11.8-4.4-12.3c-0.3-0.4-0.5-0.4-0.7-0.4c-0.1,0-0.4,0-0.7,0.4
							c-0.3,0.5-4.1,9.1-4.4,12.3h0v11.3v0.9v1V27v11.1c-0.2,0.4-0.3,0.7-0.5,1.1c0,0,0,0,0,0.1v0c-3,7.4-6.7,17.8-6.5,24.2
							c0,0-0.5,11.8,0,12.4c0,0,0,0,0,0c0,0,0,0,0,0c0.3,0,3.6-7.2,6.4-13.5l0.6,0.4v3v2.1L9,73.5h0.4c0,0,0,0.1,0,0.1h0
							c0,0.1,0,0.1,0,0.2c0,0,0,0,0,0c0,0.1-0.1,0.3-0.1,0.4h0c0,0,0,0,0,0c0,0,0,0,0,0c0,0,0,0.1,0,0.1c0,0,0,0,0,0
							c0,0.1,0,0.3-0.1,0.4c0,0,0,0,0,0c0,0.1,0,0.1,0,0.2l0,0c0,0.1,0,0.3,0,0.4c0,0,0,0,0,0c0,0.1,0,0.1,0,0.2c0,0,0,0,0,0
							c0,0.1,0,0.2,0,0.3c0,0,0,0,0,0c0,0,0,0,0,0c0,0,0,0,0.1,0c0,0,0,0,0,0C9.5,75.9,10,76,10.6,76h0c0.3,0,0.6,0,0.9-0.1
							c0,0,0,0,0,0c0.1,0,0.2,0,0.3-0.1c0,0,0,0,0,0c0.1,0,0.1,0,0.2,0c0,0,0,0,0,0c0,0,0.1,0,0.1,0c0,0,0,0,0,0c0,0,0,0,0,0
							c0-0.1,0-0.2,0-0.3c0,0,0,0,0,0c0-0.1,0-0.1,0-0.2c0,0,0,0,0,0c0-0.1,0-0.3,0-0.4h0c0-0.1,0-0.1,0-0.2c0,0,0,0,0,0
							c0-0.1,0-0.3-0.1-0.4c0,0,0,0,0,0c0,0,0-0.1,0-0.1c0,0,0,0,0,0c0,0,0,0,0,0h0c0-0.1-0.1-0.3-0.1-0.4c0,0,0,0,0,0
							c0-0.1,0-0.1,0-0.2h0c0,0,0-0.1,0-0.1h0.5H13h0c0,0,0,0.1,0,0.1h0c0,0.1,0,0.1,0,0.2c0,0,0,0,0,0c0,0.1-0.1,0.3-0.1,0.4h0
							c0,0,0,0,0,0c0,0,0,0,0,0c0,0,0,0.1,0,0.1c0,0,0,0,0,0c0,0.1,0,0.3-0.1,0.4c0,0,0,0,0,0c0,0.1,0,0.1,0,0.2l0,0
							c0,0.1,0,0.3,0,0.4c0,0,0,0,0,0c0,0.1,0,0.1,0,0.2c0,0,0,0,0,0c0,0.1,0,0.2,0,0.3c0,0,0,0,0,0c0,0,0,0,0,0c0,0,0,0,0.1,0
							c0,0,0,0,0,0c0.2,0.1,0.7,0.2,1.4,0.2h0c0.3,0,0.6,0,0.9-0.1c0,0,0,0,0,0c0.1,0,0.2,0,0.3-0.1c0,0,0,0,0,0c0.1,0,0.1,0,0.2,0
							c0,0,0,0,0,0c0,0,0.1,0,0.1,0c0,0,0,0,0,0c0,0,0,0,0,0c0-0.1,0-0.2,0-0.3c0,0,0,0,0,0c0-0.1,0-0.1,0-0.2c0,0,0,0,0,0
							c0-0.1,0-0.3,0-0.4h0c0-0.1,0-0.1,0-0.2c0,0,0,0,0,0c0-0.1,0-0.3-0.1-0.4c0,0,0,0,0,0c0,0,0-0.1,0-0.1c0,0,0,0,0,0
							c0,0,0,0,0,0c0,0,0,0,0,0c0-0.1-0.1-0.3-0.1-0.4c0,0,0,0,0,0c0-0.1,0-0.1,0-0.2h0c0,0,0-0.1,0-0.1h0.9l1.4-5.6v-2.1v-2.6
							l0.8-0.4V62c2.9,6.4,6.3,14,6.6,13.9c0,0,0,0,0,0c0,0,0,0,0,0C25.7,75.2,25.2,63.5,25.2,63.5"/>
					</g>
				</g>
				<g class="st2">
					<g>
						<defs>
							<rect id="SVGID_29_" x="0" y="0" width="25.1" height="75.7"/>
						</defs>
						<clipPath id="SVGID_30_">
							<use xlink:href="#SVGID_29_"  style="overflow:visible;"/>
						</clipPath>
						<path class="st14" d="M24.9,63.1c0.2-6.4-3.5-16.8-6.5-24.2v0c0,0,0,0,0-0.1c-0.2-0.5-0.4-1-0.6-1.5c0,0,0-0.1,0-0.1
							c0-0.1-0.1-0.2-0.1-0.3V26.7v-0.9v-1V24V12.7h0C17.2,9.5,13.4,0.9,13,0.4C12.8,0,12.5,0,12.4,0c-0.1,0-0.4,0-0.7,0.4
							c-0.3,0.5-4.1,9.1-4.4,12.3h0V24v0.9v1v0.9v11.1c-0.2,0.4-0.3,0.7-0.5,1.1c0,0,0,0,0,0.1v0c-3,7.4-6.7,17.8-6.5,24.2
							c0,0-0.5,11.8,0,12.4c0,0,0,0,0,0c0,0,0,0,0,0c0.3,0,3.6-7.2,6.4-13.5l0.6,0.4v3v2.1l1.4,5.6h0.4c0,0,0,0.1,0,0.1h0
							c0,0.1,0,0.1,0,0.2c0,0,0,0,0,0c0,0.1-0.1,0.3-0.1,0.4c0,0,0,0,0,0c0,0,0,0,0,0c0,0,0,0,0,0c0,0,0,0.1,0,0.1c0,0,0,0,0,0
							c0,0.1,0,0.3-0.1,0.4c0,0,0,0,0,0c0,0.1,0,0.1,0,0.2h0c0,0.1,0,0.3,0,0.4c0,0,0,0,0,0c0,0.1,0,0.1,0,0.2c0,0,0,0,0,0
							c0,0.1,0,0.2,0,0.3c0,0,0,0,0,0c0,0,0,0,0,0c0,0,0,0,0.1,0c0,0,0,0,0,0c0.2,0.1,0.7,0.2,1.4,0.2c0,0,0,0,0,0
							c0.3,0,0.6,0,0.9-0.1v0c0,0,0,0,0,0c0.1,0,0.2,0,0.3-0.1c0,0,0,0,0,0c0.1,0,0.1,0,0.2,0c0,0,0,0,0,0c0,0,0.1,0,0.1,0
							c0,0,0,0,0,0c0,0,0,0,0,0c0-0.1,0-0.2,0-0.3c0,0,0,0,0,0c0-0.1,0-0.1,0-0.2c0,0,0,0,0,0c0-0.1,0-0.3,0-0.4h0
							c0-0.1,0-0.1,0-0.2c0,0,0,0,0,0c0-0.1,0-0.3-0.1-0.4h0c0,0,0-0.1,0-0.1c0,0,0,0,0,0c0,0,0,0,0,0h0c0-0.1-0.1-0.3-0.1-0.4h0
							c0-0.1,0-0.1,0-0.2h0c0,0,0-0.1,0-0.1h0.5h0.6h0c0,0,0,0.1,0,0.1h0c0,0.1,0,0.1,0,0.2c0,0,0,0,0,0c0,0.1-0.1,0.3-0.1,0.4
							c0,0,0,0,0,0c0,0,0,0,0,0c0,0,0,0,0,0c0,0,0,0.1,0,0.1c0,0,0,0,0,0c0,0.1,0,0.3-0.1,0.4c0,0,0,0,0,0c0,0.1,0,0.1,0,0.2h0
							c0,0.1,0,0.3,0,0.4c0,0,0,0,0,0c0,0.1,0,0.1,0,0.2c0,0,0,0,0,0c0,0.1,0,0.2,0,0.3c0,0,0,0,0,0c0,0,0,0,0,0c0,0,0,0,0.1,0
							c0,0,0,0,0,0c0.2,0.1,0.7,0.2,1.4,0.2c0,0,0,0,0,0c0.3,0,0.6,0,0.9-0.1v0c0,0,0,0,0,0c0.1,0,0.2,0,0.3-0.1l0,0
							c0.1,0,0.1,0,0.2,0c0,0,0,0,0,0c0,0,0.1,0,0.1,0c0,0,0,0,0,0c0,0,0,0,0,0c0-0.1,0-0.2,0-0.3c0,0,0,0,0,0c0-0.1,0-0.1,0-0.2
							c0,0,0,0,0,0c0-0.1,0-0.3,0-0.4h0c0-0.1,0-0.1,0-0.2c0,0,0,0,0,0c0-0.1,0-0.3-0.1-0.4h0c0,0,0-0.1,0-0.1c0,0,0,0,0,0
							c0,0,0,0,0,0h0c0-0.1-0.1-0.3-0.1-0.4h0c0-0.1,0-0.1,0-0.2h0c0,0,0-0.1,0-0.1h0.9l1.4-5.6v-2.1v-2.6l0.8-0.4v-0.8
							c2.9,6.4,6.3,13.9,6.6,13.9c0,0,0,0,0,0c0,0,0,0,0,0C25.3,74.9,24.9,63.1,24.9,63.1"/>
					</g>
				</g>
			</g>
		</g>
		<path class="st15" d="M24.9,63.1c0.3-8.3-6.1-23.4-9-29.9v22.9c2.8,6.3,8.6,19.4,9,19.3C25.4,75.5,24.9,63.1,24.9,63.1"/>
		<g class="st16">
			<g>
				<defs>
					<rect id="SVGID_31_" x="19.4" y="42.9" width="5.3" height="26.8"/>
				</defs>
				<clipPath id="SVGID_32_">
					<use xlink:href="#SVGID_31_"  style="overflow:visible;"/>
				</clipPath>
				<path class="st17" d="M20.1,46c0.4,1.3,1.2,3.2,1.6,4.5c1,3.4,1.7,6.2,2.2,9.7c0.3,1.9,0.4,5.1,0.7,9.5c0-1.9,0-3.4,0-3.4
					c0.3-9-2.6-16-5.3-23.5l0,0.1C19.5,44,19.8,45,20.1,46"/>
			</g>
		</g>
		<g class="st18">
			<g>
				<defs>
					<rect id="SVGID_33_" x="15.9" y="33.3" width="9" height="42.3"/>
				</defs>
				<clipPath id="SVGID_34_">
					<use xlink:href="#SVGID_33_"  style="overflow:visible;"/>
				</clipPath>
				<path class="st19" d="M19.1,59.8c-0.4-1.6-0.9-8.9-0.8-10.8c0-3,0.1-6,0.1-8.9c0-0.4-0.1-0.7-0.1-1.1c-0.9-2.2-1.8-4.2-2.5-5.7
					v22.9c2.8,6.3,8.6,19.4,9,19.3c0,0,0,0,0,0c-0.7-1.9-1.5-3.8-2.2-5.7C21.5,66.5,20,63.2,19.1,59.8"/>
			</g>
		</g>
		<path class="st15" d="M0.2,63.1c-0.3-8.3,6.1-23.4,9-29.9v22.9c-2.8,6.3-8.6,19.4-9,19.3C-0.3,75.5,0.2,63.1,0.2,63.1"/>
		<g class="st16">
			<g>
				<defs>
					<rect id="SVGID_35_" x="0.4" y="42.9" width="5.3" height="26.8"/>
				</defs>
				<clipPath id="SVGID_36_">
					<use xlink:href="#SVGID_35_"  style="overflow:visible;"/>
				</clipPath>
				<path class="st20" d="M5,46c-0.4,1.3-1.2,3.2-1.6,4.5c-1,3.4-1.7,6.2-2.2,9.7c-0.3,1.9-0.4,5.1-0.7,9.5c0-1.9,0-3.4,0-3.4
					c-0.3-9,2.6-16,5.3-23.5c0,0,0,0,0,0.1C5.6,44,5.3,45,5,46"/>
			</g>
		</g>
		<g class="st18">
			<g>
				<defs>
					<rect id="SVGID_37_" x="0.2" y="33.3" width="9" height="42.3"/>
				</defs>
				<clipPath id="SVGID_38_">
					<use xlink:href="#SVGID_37_"  style="overflow:visible;"/>
				</clipPath>
				<path class="st21" d="M6,59.8c0.4-1.6,0.9-8.9,0.8-10.8c0-3-0.1-6-0.1-8.9c0-0.4,0.1-0.7,0.1-1.1c0.9-2.2,1.8-4.2,2.5-5.7v22.9
					c-2.8,6.3-8.6,19.4-9,19.3c0,0,0,0,0,0c0.7-1.9,1.5-3.8,2.2-5.7C3.6,66.5,5.1,63.2,6,59.8"/>
			</g>
		</g>
		<polygon class="st22" points="8.4,63.2 6.1,61.7 6.1,42.2 8.4,41.2 		"/>
		<polygon class="st23" points="6.9,41.9 6.9,62.1 8.4,63.2 8.4,41.2 		"/>
		<polygon class="st22" points="16.7,63.2 18.3,62.4 18.3,52.4 16.7,51.9 		"/>
		<polygon class="st23" points="17.8,52.2 17.8,62.6 16.7,63.2 16.7,51.9 		"/>
		<polygon class="st22" points="17.1,50 18.3,49.6 18.3,45.1 17.1,44.9 		"/>
		<polygon class="st23" points="17.9,45 17.9,49.7 17.1,50 17.1,44.9 		"/>
		<path class="st24" d="M10.9,71.6H9.8c0,0-1,1.5-1,3.8c0,0,0.6,0.3,1.5,0.2c0.9,0,1.5-0.2,1.5-0.2C11.9,73.1,10.9,71.6,10.9,71.6"
			/>
	</g>
	<g class="st0">
		<defs>
			<path id="SVGID_39_" d="M9.8,71.6c0,0-0.3,0.4-0.5,1.1c0.5,0.1,1.2,0.1,2.1,0c-0.3-0.7-0.5-1.1-0.5-1.1H9.8z"/>
		</defs>
		<clipPath id="SVGID_40_">
			<use xlink:href="#SVGID_39_"  style="overflow:visible;"/>
		</clipPath>
		
			<linearGradient id="SVGID_41_" gradientUnits="userSpaceOnUse" x1="0" y1="79.2987" x2="1" y2="79.2987" gradientTransform="matrix(0.7735 6.4524 6.4524 -0.7735 -501.5645 131.8473)">
			<stop  offset="0" style="stop-color:#E5E0DF"/>
			<stop  offset="0.4575" style="stop-color:#E5E0DF"/>
			<stop  offset="1" style="stop-color:#8CA99C"/>
		</linearGradient>
		<polygon class="st25" points="11.3,71.4 11.5,72.8 9.3,73.1 9.1,71.6 		"/>
	</g>
	<g class="st0">
		<defs>
			<rect id="SVGID_42_" y="0" width="28.7" height="79.3"/>
		</defs>
		<clipPath id="SVGID_43_">
			<use xlink:href="#SVGID_42_"  style="overflow:visible;"/>
		</clipPath>
		<path class="st26" d="M8.8,75c0,0.1,0,0.1,0,0.2c0.3,0.1,0.7,0.2,1.4,0.2c0.5,0,1-0.1,1.7-0.2c0-0.1,0-0.1,0-0.2
			C10.3,75.4,9.1,75.1,8.8,75"/>
		<path class="st26" d="M8.8,74.4c0,0.1,0,0.1,0,0.2c0.3,0.1,0.7,0.2,1.4,0.2c0.5,0,1-0.1,1.6-0.2c0-0.1,0-0.1,0-0.2
			C10.3,74.7,9.2,74.5,8.8,74.4"/>
		<path class="st26" d="M11.6,73.4c0-0.1,0-0.1,0-0.2c-1.2,0.2-2,0.1-2.5,0c0,0.1,0,0.1,0,0.2c0.3,0.1,0.7,0.1,1.2,0.1
			C10.6,73.6,11.1,73.5,11.6,73.4"/>
		<path class="st26" d="M8.9,73.8c0,0.1,0,0.1,0,0.2c0.3,0.1,0.7,0.2,1.3,0.2c0.4,0,1,0,1.5-0.2c0-0.1,0-0.1,0-0.2
			C10.3,74.1,9.4,73.9,8.9,73.8"/>
		<path class="st26" d="M11.4,72.8c0-0.1,0-0.1-0.1-0.2c-0.9,0.2-1.7,0.1-2.1,0c0,0.1,0,0.1-0.1,0.2c0.3,0.1,0.6,0.1,1,0.1
			C10.6,73,11,72.9,11.4,72.8"/>
		<g class="st27">
			<g>
				<defs>
					<rect id="SVGID_44_" x="8.8" y="71.6" width="3.1" height="4.1"/>
				</defs>
				<clipPath id="SVGID_45_">
					<use xlink:href="#SVGID_44_"  style="overflow:visible;"/>
				</clipPath>
				<path class="st28" d="M10.9,71.6H9.8c0,0-1,1.5-1,3.8c0,0,0,0,0.1,0c0-0.5,0.1-1.1,0.2-1.6c0.1-0.3,0.2-1.2,0.7-1.1
					c0.6,0,0.4,2.4,0.5,2.9h0c0.9,0,1.5-0.2,1.5-0.2C11.9,73.1,10.9,71.6,10.9,71.6"/>
			</g>
		</g>
		<g class="st27">
			<g>
				<defs>
					<rect id="SVGID_46_" x="10.3" y="71.6" width="1.5" height="4"/>
				</defs>
				<clipPath id="SVGID_47_">
					<use xlink:href="#SVGID_46_"  style="overflow:visible;"/>
				</clipPath>
				<path class="st29" d="M10.9,71.6h-0.6c0.6,1.2,0.8,2.6,0.9,4c0.4-0.1,0.7-0.2,0.7-0.2C11.9,73.1,10.9,71.6,10.9,71.6"/>
			</g>
		</g>
		<path class="st30" d="M14.5,71.6h-1.1c0,0-1,1.5-1,3.8c0,0,0.6,0.3,1.5,0.2c0.9,0,1.5-0.2,1.5-0.2C15.5,73.1,14.5,71.6,14.5,71.6"
			/>
	</g>
	<g class="st0">
		<defs>
			<path id="SVGID_48_" d="M13.4,71.6c0,0-0.3,0.4-0.5,1.1c0.5,0.1,1.2,0.1,2.1,0c-0.3-0.7-0.5-1.1-0.5-1.1H13.4z"/>
		</defs>
		<clipPath id="SVGID_49_">
			<use xlink:href="#SVGID_48_"  style="overflow:visible;"/>
		</clipPath>
		
			<linearGradient id="SVGID_50_" gradientUnits="userSpaceOnUse" x1="0" y1="79.2989" x2="1" y2="79.2989" gradientTransform="matrix(0.7734 6.4522 6.4522 -0.7734 -497.9581 131.8459)">
			<stop  offset="0" style="stop-color:#E5E0DF"/>
			<stop  offset="0.4575" style="stop-color:#E5E0DF"/>
			<stop  offset="1" style="stop-color:#8CA99C"/>
		</linearGradient>
		<polygon class="st31" points="14.9,71.4 15.1,72.8 12.9,73.1 12.7,71.6 		"/>
	</g>
	<g class="st0">
		<defs>
			<rect id="SVGID_51_" y="0" width="28.7" height="79.3"/>
		</defs>
		<clipPath id="SVGID_52_">
			<use xlink:href="#SVGID_51_"  style="overflow:visible;"/>
		</clipPath>
		<path class="st32" d="M12.4,75c0,0.1,0,0.1,0,0.2c0.3,0.1,0.7,0.2,1.4,0.2c0.5,0,1-0.1,1.7-0.2c0-0.1,0-0.1,0-0.2
			C13.9,75.4,12.7,75.1,12.4,75"/>
		<path class="st32" d="M12.4,74.4c0,0.1,0,0.1,0,0.2c0.3,0.1,0.7,0.2,1.4,0.2c0.5,0,1-0.1,1.6-0.2c0-0.1,0-0.1,0-0.2
			C13.9,74.7,12.8,74.5,12.4,74.4"/>
		<path class="st32" d="M15.2,73.4c0-0.1,0-0.1,0-0.2c-1.2,0.2-2,0.1-2.5,0c0,0.1,0,0.1,0,0.2c0.3,0.1,0.7,0.1,1.2,0.1
			C14.2,73.6,14.7,73.5,15.2,73.4"/>
		<path class="st32" d="M12.5,73.8c0,0.1,0,0.1,0,0.2c0.3,0.1,0.7,0.2,1.3,0.2c0.4,0,1,0,1.5-0.2c0-0.1,0-0.1,0-0.2
			C13.9,74.1,13,73.9,12.5,73.8"/>
		<path class="st32" d="M15,72.8c0-0.1,0-0.1-0.1-0.2c-0.9,0.2-1.7,0.1-2.1,0c0,0.1,0,0.1-0.1,0.2c0.3,0.1,0.6,0.1,1,0.1
			C14.1,73,14.6,72.9,15,72.8"/>
		<g class="st33">
			<g>
				<defs>
					<rect id="SVGID_53_" x="12.4" y="71.6" width="3.1" height="4.1"/>
				</defs>
				<clipPath id="SVGID_54_">
					<use xlink:href="#SVGID_53_"  style="overflow:visible;"/>
				</clipPath>
				<path class="st34" d="M14.5,71.6h-1.1c0,0-1,1.5-1,3.8c0,0,0,0,0.1,0c0-0.5,0.1-1.1,0.2-1.6c0.1-0.3,0.2-1.2,0.7-1.1
					c0.6,0,0.4,2.4,0.5,2.9h0c0.9,0,1.5-0.2,1.5-0.2C15.5,73.1,14.5,71.6,14.5,71.6"/>
			</g>
		</g>
		<g class="st33">
			<g>
				<defs>
					<rect id="SVGID_55_" x="13.9" y="71.6" width="1.5" height="4"/>
				</defs>
				<clipPath id="SVGID_56_">
					<use xlink:href="#SVGID_55_"  style="overflow:visible;"/>
				</clipPath>
				<path class="st35" d="M14.5,71.6h-0.6c0.6,1.2,0.8,2.6,0.9,4c0.4-0.1,0.7-0.2,0.7-0.2C15.5,73.1,14.5,71.6,14.5,71.6"/>
			</g>
		</g>
		<polygon class="st36" points="12.7,67 12.7,66.9 12.4,66.9 12.1,66.9 12.1,67 7.3,67.6 8.7,73.1 12.1,73.1 12.7,73.1 16.1,73.1 
			17.5,67.6 		"/>
		<g class="st37">
			<g>
				<defs>
					<rect id="SVGID_57_" x="13.3" y="67.2" width="4.2" height="6"/>
				</defs>
				<clipPath id="SVGID_58_">
					<use xlink:href="#SVGID_57_"  style="overflow:visible;"/>
				</clipPath>
				<path class="st38" d="M14.3,67.2c-0.3,1.6-0.6,3.2-0.9,4.9c-0.1,0.4-0.1,0.7-0.1,1.1h2.8l1.4-5.6L14.3,67.2z"/>
			</g>
		</g>
		<g class="st37">
			<g>
				<defs>
					<rect id="SVGID_59_" x="7.3" y="67.5" width="2" height="5.6"/>
				</defs>
				<clipPath id="SVGID_60_">
					<use xlink:href="#SVGID_59_"  style="overflow:visible;"/>
				</clipPath>
				<path class="st39" d="M7.7,67.5l-0.5,0.1l1.4,5.6h0.5C8.7,71.3,8.2,69.4,7.7,67.5"/>
			</g>
		</g>
		<rect x="7.3" y="12.7" class="st40" width="10.2" height="54.8"/>
		<rect x="7.3" y="65.5" class="st41" width="10.2" height="2.1"/>
		<rect x="7.3" y="24" class="st41" width="10.2" height="0.9"/>
		<rect x="7.3" y="25.8" class="st41" width="10.2" height="0.9"/>
		<path class="st42" d="M13,0.4C12.8,0,12.5,0,12.4,0c-0.1,0-0.4,0-0.7,0.4c-0.3,0.5-4.2,9.2-4.4,12.4H12h0.7h4.8
			C17.3,9.6,13.4,0.9,13,0.4"/>
		<g class="st43">
			<g>
				<defs>
					<rect id="SVGID_61_" x="8" y="0.7" width="5.7" height="11.8"/>
				</defs>
				<clipPath id="SVGID_62_">
					<use xlink:href="#SVGID_61_"  style="overflow:visible;"/>
				</clipPath>
				<path class="st44" d="M12,0.7c0,0-3,7-4,11c0,0-0.3,0.9,0.5,0.8h3.8c0,0,1.3,0.2,1.2-1C13.5,10.3,12,0.7,12,0.7"/>
			</g>
		</g>
		<g class="st45">
			<g>
				<defs>
					<rect id="SVGID_63_" x="8" y="1.7" width="3.6" height="10.8"/>
				</defs>
				<clipPath id="SVGID_64_">
					<use xlink:href="#SVGID_63_"  style="overflow:visible;"/>
				</clipPath>
				<path class="st46" d="M8.8,12.5c0-0.2,0.1-0.3,0.1-0.5c0.2-1.1,0.5-2.1,0.7-3.2c0.6-2.4,1.3-4.7,2-7C10.7,3.8,8.8,8.6,8,11.6
					c0,0-0.3,0.9,0.5,0.8H8.8z"/>
			</g>
		</g>
		<g class="st43">
			<g>
				<defs>
					<rect id="SVGID_65_" x="8" y="13.2" width="5.7" height="52.1"/>
				</defs>
				<clipPath id="SVGID_66_">
					<use xlink:href="#SVGID_65_"  style="overflow:visible;"/>
				</clipPath>
				<path class="st47" d="M13.1,13.2H8.7c0,0-0.7-0.2-0.7,1.9v47.7c0,0,0,1.7,0.8,2.3l3.8,0.3c0,0,1.1,0,1.1-2.1V14.7
					C13.7,14.7,13.7,13.2,13.1,13.2"/>
			</g>
		</g>
		<path class="st40" d="M9.3,72.7c0,0.1-0.1,0.2-0.2,0.2c-0.1,0-0.2-0.1-0.2-0.2c0-0.1,0.1-0.2,0.2-0.2C9.2,72.5,9.3,72.6,9.3,72.7"
			/>
		<path class="st40" d="M10.6,72.7c0,0.1-0.1,0.2-0.2,0.2c-0.1,0-0.2-0.1-0.2-0.2c0-0.1,0.1-0.2,0.2-0.2
			C10.5,72.5,10.6,72.6,10.6,72.7"/>
		<path class="st40" d="M11.9,72.7c0,0.1-0.1,0.2-0.2,0.2s-0.2-0.1-0.2-0.2c0-0.1,0.1-0.2,0.2-0.2S11.9,72.6,11.9,72.7"/>
		<path class="st40" d="M13.2,72.7c0,0.1-0.1,0.2-0.2,0.2c-0.1,0-0.2-0.1-0.2-0.2c0-0.1,0.1-0.2,0.2-0.2
			C13.1,72.5,13.2,72.6,13.2,72.7"/>
		<path class="st40" d="M14.6,72.7c0,0.1-0.1,0.2-0.2,0.2c-0.1,0-0.2-0.1-0.2-0.2c0-0.1,0.1-0.2,0.2-0.2
			C14.5,72.5,14.6,72.6,14.6,72.7"/>
		<path class="st40" d="M15.9,72.7c0,0.1-0.1,0.2-0.2,0.2c-0.1,0-0.2-0.1-0.2-0.2c0-0.1,0.1-0.2,0.2-0.2
			C15.8,72.5,15.9,72.6,15.9,72.7"/>
		<rect x="14.4" y="44.2" class="st32" width="2.3" height="1.4"/>
		<rect x="14.4" y="45.9" class="st32" width="2.3" height="0.7"/>
		<rect x="14.4" y="53.3" class="st32" width="2.3" height="0.8"/>
		<rect x="14.4" y="54.4" class="st32" width="2.3" height="3.5"/>
		<rect x="14.4" y="58.2" class="st32" width="2.3" height="2.2"/>
		<rect x="14.4" y="63.6" class="st32" width="2.3" height="0.9"/>
		<path class="st48" d="M7.8,13c0,0.1-0.1,0.1-0.1,0.1c-0.1,0-0.1-0.1-0.1-0.1c0-0.1,0.1-0.1,0.1-0.1C7.8,12.9,7.8,12.9,7.8,13"/>
		<path class="st48" d="M9.4,13c0,0.1-0.1,0.1-0.1,0.1c-0.1,0-0.1-0.1-0.1-0.1c0-0.1,0.1-0.1,0.1-0.1C9.3,12.9,9.4,12.9,9.4,13"/>
		<path class="st48" d="M11,13c0,0.1-0.1,0.1-0.1,0.1c-0.1,0-0.1-0.1-0.1-0.1c0-0.1,0.1-0.1,0.1-0.1C10.9,12.9,11,12.9,11,13"/>
		<path class="st48" d="M12.5,13c0,0.1-0.1,0.1-0.1,0.1c-0.1,0-0.1-0.1-0.1-0.1c0-0.1,0.1-0.1,0.1-0.1C12.5,12.9,12.5,12.9,12.5,13"
			/>
		<path class="st48" d="M14.1,13c0,0.1-0.1,0.1-0.1,0.1c-0.1,0-0.1-0.1-0.1-0.1c0-0.1,0.1-0.1,0.1-0.1C14,12.9,14.1,12.9,14.1,13"/>
		<path class="st48" d="M15.7,13c0,0.1-0.1,0.1-0.1,0.1c-0.1,0-0.1-0.1-0.1-0.1c0-0.1,0.1-0.1,0.1-0.1C15.6,12.9,15.7,12.9,15.7,13"
			/>
		<path class="st48" d="M17.2,13c0,0.1-0.1,0.1-0.1,0.1C17,13.1,17,13.1,17,13c0-0.1,0.1-0.1,0.1-0.1C17.2,12.9,17.2,12.9,17.2,13"
			/>
		<path class="st48" d="M7.8,40.1c0,0.1-0.1,0.1-0.1,0.1c-0.1,0-0.1-0.1-0.1-0.1c0-0.1,0.1-0.1,0.1-0.1C7.8,40,7.8,40.1,7.8,40.1"/>
		<path class="st48" d="M9.4,40.1c0,0.1-0.1,0.1-0.1,0.1c-0.1,0-0.1-0.1-0.1-0.1c0-0.1,0.1-0.1,0.1-0.1C9.3,40,9.4,40.1,9.4,40.1"/>
		<path class="st48" d="M11,40.1c0,0.1-0.1,0.1-0.1,0.1c-0.1,0-0.1-0.1-0.1-0.1c0-0.1,0.1-0.1,0.1-0.1C10.9,40,11,40.1,11,40.1"/>
		<path class="st48" d="M12.5,40.1c0,0.1-0.1,0.1-0.1,0.1c-0.1,0-0.1-0.1-0.1-0.1c0-0.1,0.1-0.1,0.1-0.1
			C12.5,40,12.5,40.1,12.5,40.1"/>
		<path class="st48" d="M14.1,40.1c0,0.1-0.1,0.1-0.1,0.1c-0.1,0-0.1-0.1-0.1-0.1c0-0.1,0.1-0.1,0.1-0.1C14,40,14.1,40.1,14.1,40.1"
			/>
		<path class="st48" d="M15.7,40.1c0,0.1-0.1,0.1-0.1,0.1c-0.1,0-0.1-0.1-0.1-0.1c0-0.1,0.1-0.1,0.1-0.1
			C15.6,40,15.7,40.1,15.7,40.1"/>
		<path class="st48" d="M17.2,40.1c0,0.1-0.1,0.1-0.1,0.1c-0.1,0-0.1-0.1-0.1-0.1c0-0.1,0.1-0.1,0.1-0.1
			C17.2,40,17.2,40.1,17.2,40.1"/>
	</g>
</g>
</svg>
