<?xml version="1.0" encoding="utf-8"?>
<!-- Generator: Adobe Illustrator 22.0.0, SVG Export Plug-In . SVG Version: 6.00 Build 0)  -->
<svg version="1.1" id="Capa_1" xmlns="http://www.w3.org/2000/svg" xmlns:xlink="http://www.w3.org/1999/xlink" x="0px" y="0px"
	 viewBox="0 0 34.7 68.3" style="enable-background:new 0 0 34.7 68.3;" xml:space="preserve">
<style type="text/css">
	.st0{clip-path:url(#SVGID_2_);}
	.st1{clip-path:url(#SVGID_4_);}
	.st2{clip-path:url(#SVGID_6_);}
	.st3{clip-path:url(#SVGID_8_);fill:#FFFFFF;}
	.st4{clip-path:url(#SVGID_10_);fill:#F1F1F1;}
	.st5{clip-path:url(#SVGID_12_);fill:#E2E2E2;}
	.st6{clip-path:url(#SVGID_14_);fill:#D4D4D4;}
	.st7{clip-path:url(#SVGID_16_);fill:#C5C5C5;}
	.st8{clip-path:url(#SVGID_18_);fill:#B7B7B7;}
	.st9{clip-path:url(#SVGID_20_);fill:#A8A8A8;}
	.st10{clip-path:url(#SVGID_22_);fill:#9A9A9A;}
	.st11{clip-path:url(#SVGID_24_);fill:#8B8B8B;}
	.st12{clip-path:url(#SVGID_26_);fill:#7D7D7D;}
	.st13{clip-path:url(#SVGID_28_);fill:#6E6E6E;}
	.st14{clip-path:url(#SVGID_30_);fill:#606060;}
	.st15{clip-path:url(#SVGID_4_);fill:#626467;}
	.st16{clip-path:url(#SVGID_32_);fill:url(#SVGID_33_);}
	.st17{clip-path:url(#SVGID_35_);fill:#3A3C3F;}
	.st18{opacity:0.9;clip-path:url(#SVGID_35_);}
	.st19{clip-path:url(#SVGID_37_);fill:#B3B5B8;}
	.st20{clip-path:url(#SVGID_39_);fill:#B3B5B8;}
	.st21{clip-path:url(#SVGID_35_);fill:#626467;}
	.st22{clip-path:url(#SVGID_41_);fill:url(#SVGID_42_);}
	.st23{clip-path:url(#SVGID_44_);fill:#3A3C3F;}
	.st24{opacity:0.9;clip-path:url(#SVGID_44_);}
	.st25{clip-path:url(#SVGID_46_);fill:#B3B5B8;}
	.st26{clip-path:url(#SVGID_48_);fill:#B3B5B8;}
	.st27{clip-path:url(#SVGID_44_);fill:#008ED0;}
	.st28{clip-path:url(#SVGID_44_);}
	.st29{clip-path:url(#SVGID_50_);fill:#008ED0;}
	.st30{clip-path:url(#SVGID_52_);fill:#FFFFFF;}
	.st31{clip-path:url(#SVGID_44_);fill:#083879;}
	.st32{clip-path:url(#SVGID_54_);fill:#008ED0;}
	.st33{clip-path:url(#SVGID_44_);fill:#C2C4C6;}
	.st34{clip-path:url(#SVGID_44_);fill:#FFFFFF;}
	.st35{clip-path:url(#SVGID_56_);fill:url(#SVGID_57_);}
	.st36{clip-path:url(#SVGID_59_);fill:#FF0026;}
	.st37{clip-path:url(#SVGID_59_);fill:#FFFFFF;}
	.st38{clip-path:url(#SVGID_59_);fill:#696B6D;}
	.st39{opacity:0.7;clip-path:url(#SVGID_59_);}
	.st40{clip-path:url(#SVGID_61_);fill:#C9E9EB;}
	.st41{clip-path:url(#SVGID_63_);fill:url(#SVGID_64_);}
	.st42{clip-path:url(#SVGID_66_);}
	.st43{clip-path:url(#SVGID_68_);}
	.st44{clip-path:url(#SVGID_70_);fill:url(#SVGID_71_);}
	.st45{clip-path:url(#SVGID_73_);fill:url(#SVGID_74_);}
	.st46{clip-path:url(#SVGID_76_);fill:#FFFFFF;}
	.st47{opacity:0.7;clip-path:url(#SVGID_66_);}
	.st48{clip-path:url(#SVGID_78_);fill:#C9E9EB;}
	.st49{clip-path:url(#SVGID_80_);fill:#DEDFE0;}
	.st50{opacity:0.5;clip-path:url(#SVGID_66_);}
	.st51{clip-path:url(#SVGID_82_);fill:#FFF2BB;}
</style>
<g>
	<defs>
		<rect id="SVGID_1_" width="34.7" height="68.3"/>
	</defs>
	<clipPath id="SVGID_2_">
		<use xlink:href="#SVGID_1_"  style="overflow:visible;"/>
	</clipPath>
	<g class="st0">
		<defs>
			<rect id="SVGID_3_" width="34.7" height="68.3"/>
		</defs>
		<clipPath id="SVGID_4_">
			<use xlink:href="#SVGID_3_"  style="overflow:visible;"/>
		</clipPath>
		<g class="st1">
			<g>
				<defs>
					<rect id="SVGID_5_" x="0" width="34.7" height="68.3"/>
				</defs>
				<clipPath id="SVGID_6_">
					<use xlink:href="#SVGID_5_"  style="overflow:visible;"/>
				</clipPath>
				<g class="st2">
					<g>
						<defs>
							<rect id="SVGID_7_" x="3.6" y="3.6" width="31.1" height="64.7"/>
						</defs>
						<clipPath id="SVGID_8_">
							<use xlink:href="#SVGID_7_"  style="overflow:visible;"/>
						</clipPath>
						<path class="st3" d="M23.6,68.3C23.6,68.3,23.6,68.3,23.6,68.3c0.8,0,1.5-0.1,2-0.2c0,0,0,0,0,0c0.1,0,0.1,0,0.2,0
							c0.1,0,0.2,0,0.3-0.1c0,0,0.1,0,0.1,0c0.1,0,0.2-0.1,0.3-0.1c0,0,0.1,0,0.1,0c0.1,0,0.1,0,0.2-0.1c0,0,0,0,0.1,0
							c0.1,0,0.1,0,0.2-0.1c0,0,0,0,0,0c0,0,0,0,0,0c0-0.2,0-0.4,0-0.6c0,0,0,0,0,0c0-0.1,0-0.2,0-0.3c0,0,0-0.1,0-0.1c0,0,0,0,0,0
							h0c0-0.3,0-0.6-0.1-1h0c0-0.1,0-0.3,0-0.4c0,0,0,0,0,0c0-0.3-0.1-0.6-0.1-0.9c0,0,0,0,0,0c0-0.1,0-0.1,0-0.2
							c0-0.1,0-0.1,0-0.2c0,0,0,0,0-0.1h0c-0.1-0.3-0.1-0.6-0.2-0.9c0,0,0,0,0,0c0-0.1-0.1-0.3-0.1-0.4h0c-0.1-0.3-0.2-0.6-0.3-0.9
							c0,0,0,0,0,0c0-0.1-0.1-0.3-0.1-0.4c0,0,0,0,0,0C26.1,61.1,26,61,26,60.9c0-0.1,0-0.1-0.1-0.2c0,0,0-0.1-0.1-0.1
							c0,0,0,0,0.1,0c0,0,0,0,0.1,0c0.1,0,0.2,0,0.2,0c0,0,0,0,0.1,0c0.1,0,0.1,0,0.2,0c0,0,0,0,0,0c0,0,0.1,0,0.1,0c0,0,0,0,0,0
							c0,0,0,0,0,0c0.3-0.5,0.6-1.1,0.9-1.8c0.2,2.9,0.5,7.3,0.8,8.5c0,0.1,0,0.1,0.1,0.1c0,0,0,0,0,0c0,0,0.1,0,0.1,0c0,0,0,0,0,0
							c0,0,0,0,0,0c1.1-0.3,5.9-10.5,6.3-15.1c0,0,0,0,0,0c0,0,0,0,0,0c0-0.3,0-0.5,0-0.8c-0.3-4.1-3.9-5.5-4.3-5.6
							c0.7-5.5,1-10.9,0.9-14.1c-0.2-5.7-0.7-8-0.8-8.5c0-0.1,0-0.3-0.1-0.4h0c0,0,0,0,0,0c0-0.1,0-0.2-0.1-0.3c0-0.1,0-0.1,0-0.2
							c0-0.1-0.1-0.2-0.1-0.3c0-0.1,0-0.1-0.1-0.2c0-0.1-0.1-0.2-0.1-0.4c0-0.1-0.1-0.2-0.1-0.2c0-0.1-0.1-0.3-0.1-0.4
							c0-0.1-0.1-0.2-0.1-0.2c-0.1-0.1-0.1-0.3-0.2-0.4c0-0.1-0.1-0.2-0.1-0.3c-0.1-0.1-0.1-0.3-0.2-0.4c0-0.1-0.1-0.2-0.1-0.3
							c-0.1-0.1-0.1-0.3-0.2-0.4c0-0.1-0.1-0.2-0.1-0.3c-0.1-0.1-0.1-0.3-0.2-0.4c0-0.1-0.1-0.2-0.1-0.3c-0.1-0.1-0.1-0.3-0.2-0.4
							c0-0.1-0.1-0.2-0.1-0.3c-0.1-0.2-0.2-0.3-0.2-0.5c0-0.1-0.1-0.2-0.1-0.3c-0.1-0.2-0.2-0.3-0.2-0.5c-0.1-0.1-0.1-0.2-0.2-0.3
							c-0.1-0.2-0.2-0.3-0.2-0.5c-0.1-0.1-0.1-0.2-0.2-0.3c-0.1-0.2-0.2-0.3-0.3-0.5c-0.1-0.1-0.1-0.2-0.2-0.3
							c-0.1-0.2-0.2-0.3-0.3-0.5c-0.1-0.1-0.1-0.2-0.2-0.3C26,13,26,12.8,25.9,12.7c-0.1-0.1-0.1-0.2-0.2-0.3
							c-0.1-0.1-0.2-0.3-0.3-0.4c-0.1-0.1-0.1-0.2-0.2-0.3c-0.1-0.1-0.2-0.3-0.2-0.4c-0.1-0.1-0.1-0.2-0.2-0.3
							c-0.1-0.1-0.2-0.3-0.2-0.4c-0.1-0.1-0.1-0.2-0.2-0.3c-0.1-0.1-0.2-0.3-0.2-0.4c-0.1-0.1-0.1-0.2-0.2-0.3
							c-0.1-0.1-0.2-0.3-0.2-0.4c-0.1-0.1-0.1-0.2-0.2-0.3c-0.1-0.1-0.1-0.2-0.2-0.3c-0.1-0.1-0.1-0.2-0.2-0.3
							C23.1,8.1,23.1,8,23,7.9c-0.1-0.1-0.1-0.2-0.2-0.3c-0.1-0.1-0.1-0.2-0.2-0.3c-0.1-0.1-0.1-0.2-0.2-0.2
							c-0.1-0.1-0.1-0.2-0.2-0.3c-0.1-0.1-0.1-0.2-0.2-0.3C22.1,6.5,22,6.4,22,6.3c-0.1-0.1-0.1-0.2-0.2-0.2c0-0.1-0.1-0.1-0.1-0.2
							c0-0.1-0.1-0.1-0.1-0.2c0-0.1-0.1-0.1-0.1-0.2c0-0.1-0.1-0.1-0.1-0.2c0-0.1-0.1-0.1-0.1-0.2c0-0.1-0.1-0.1-0.1-0.2
							c0,0-0.1-0.1-0.1-0.1c0-0.1-0.1-0.1-0.1-0.1c0,0,0-0.1-0.1-0.1c0-0.1-0.1-0.1-0.1-0.1c0,0,0,0,0,0c0,0-0.1-0.1-0.1-0.1
							c-0.6-0.6-1.2-0.7-1.5-0.7c0,0,0,0-0.1,0v0c-0.3,0-0.9,0.1-1.4,0.7c0,0-0.1,0.1-0.1,0.1c0,0,0,0,0,0.1c0,0-0.1,0.1-0.1,0.1
							c0,0,0,0.1-0.1,0.1c0,0-0.1,0.1-0.1,0.2c0,0-0.1,0.1-0.1,0.1C17,5,17,5,17,5.1c0,0.1-0.1,0.1-0.1,0.2c0,0.1-0.1,0.1-0.1,0.2
							c0,0.1-0.1,0.1-0.1,0.2c0,0.1-0.1,0.1-0.1,0.2c0,0.1-0.1,0.2-0.2,0.2c0,0.1-0.1,0.1-0.1,0.2C16.1,6.4,16,6.5,16,6.6
							c0,0.1-0.1,0.1-0.1,0.2c-0.1,0.1-0.1,0.2-0.2,0.3c-0.1,0.1-0.1,0.2-0.2,0.2c-0.1,0.1-0.1,0.2-0.2,0.3
							c-0.1,0.1-0.1,0.2-0.2,0.2C15,8,15,8.1,14.9,8.3c-0.1,0.1-0.1,0.2-0.2,0.3c-0.1,0.1-0.2,0.2-0.2,0.4c-0.1,0.1-0.1,0.2-0.2,0.3
							c-0.1,0.1-0.2,0.3-0.2,0.4C14,9.6,14,9.7,13.9,9.8c-0.1,0.1-0.2,0.3-0.3,0.4c-0.1,0.1-0.1,0.2-0.2,0.3
							c-0.1,0.1-0.2,0.3-0.3,0.5c0,0.1-0.1,0.2-0.1,0.2c-0.1,0.2-0.2,0.3-0.3,0.5c-0.1,0.1-0.1,0.2-0.1,0.3
							c-0.1,0.2-0.2,0.3-0.3,0.5c0,0.1-0.1,0.2-0.1,0.3c-0.1,0.2-0.2,0.3-0.3,0.5c0,0.1-0.1,0.2-0.1,0.2c-0.1,0.2-0.2,0.3-0.3,0.5
							c0,0.1-0.1,0.2-0.1,0.2c-0.1,0.2-0.2,0.3-0.3,0.5c0,0.1-0.1,0.2-0.1,0.3c-0.1,0.2-0.2,0.3-0.3,0.5c0,0.1-0.1,0.2-0.1,0.2
							c-0.1,0.2-0.2,0.3-0.3,0.5c0,0.1-0.1,0.2-0.1,0.2c-0.1,0.2-0.2,0.3-0.3,0.5c0,0.1-0.1,0.2-0.1,0.2c-0.1,0.2-0.2,0.3-0.2,0.5
							c0,0.1-0.1,0.2-0.1,0.2c-0.1,0.2-0.2,0.3-0.2,0.5c0,0.1-0.1,0.2-0.1,0.2c-0.1,0.2-0.1,0.3-0.2,0.5c0,0.1-0.1,0.1-0.1,0.2
							c-0.1,0.2-0.1,0.3-0.2,0.5c0,0.1-0.1,0.1-0.1,0.2c-0.1,0.2-0.1,0.3-0.2,0.4c0,0.1,0,0.1-0.1,0.2c-0.1,0.1-0.1,0.3-0.2,0.4
							c0,0.1,0,0.1-0.1,0.2c0,0.1-0.1,0.3-0.1,0.4c0,0.1,0,0.1,0,0.2c0,0.1-0.1,0.3-0.1,0.4c0,0.1,0,0.1,0,0.2
							c0,0.1-0.1,0.3-0.1,0.4c0,0,0,0,0,0h0c0,0.1-0.1,0.3-0.1,0.4C7.5,23.7,7,26,6.8,31.7C6.7,34.8,7,40.4,7.7,45.8
							c-0.9,0.4-3.8,1.8-4.1,5.5c0,0.2,0,0.5,0,0.7c0,0,0,0,0,0.1c0,0,0,0,0,0C4,56.8,9.2,67.8,10,67.2c0,0,0,0,0,0c0,0,0,0,0,0
							c0,0,0.1-0.1,0.1-0.1c0.3-1.1,0.6-5.1,0.7-8c0.2,0.5,0.4,0.9,0.7,1.3c0,0,0.4,0.1,1,0.2c0,0,0,0.1-0.1,0.1c0,0,0,0.1-0.1,0.1
							c-0.1,0.1-0.1,0.3-0.2,0.4c0,0,0,0,0,0c0,0.1-0.1,0.3-0.1,0.4h0c-0.1,0.3-0.2,0.6-0.3,0.9h0c0,0.1-0.1,0.3-0.1,0.4
							c0,0,0,0,0,0c-0.1,0.3-0.1,0.6-0.2,0.9c0,0,0,0,0,0c0,0.1,0,0.1,0,0.2c0,0.1,0,0.1,0,0.2c0,0,0,0,0,0
							c-0.1,0.3-0.1,0.6-0.1,0.9l0,0c0,0.1,0,0.3,0,0.4c0,0.3,0,0.6-0.1,0.9h0v0c0,0,0,0.1,0,0.1c0,0.1,0,0.2,0,0.3c0,0,0,0,0,0
							c0,0.2,0,0.4,0,0.6c0,0,0,0,0.1,0c0,0,0,0,0,0c0,0,0.1,0,0.2,0.1c0,0,0,0,0,0c0.5,0.2,1.7,0.5,3.2,0.5v0c0,0,0,0,0,0
							c0.8,0,1.4-0.1,2-0.2c0,0,0,0,0,0c0.1,0,0.1,0,0.2,0c0.1,0,0.2,0,0.3-0.1c0,0,0.1,0,0.1,0c0.1,0,0.2-0.1,0.3-0.1
							c0,0,0.1,0,0.1,0c0.1,0,0.1,0,0.2-0.1c0,0,0,0,0.1,0c0.1,0,0.1,0,0.2-0.1c0,0,0,0,0,0c0,0,0,0,0,0c0-0.2,0-0.4,0-0.6
							c0,0,0,0,0,0c0-0.1,0-0.2,0-0.3c0,0,0-0.1,0-0.1c0,0,0,0,0,0h0c0-0.3,0-0.6-0.1-1h0c0-0.1,0-0.3,0-0.4c0,0,0,0,0,0
							c0-0.3-0.1-0.6-0.1-0.9c0,0,0,0,0,0c0-0.1,0-0.1,0-0.2c0-0.1,0-0.1,0-0.2c0,0,0,0,0-0.1c0,0,0,0,0,0c-0.1-0.3-0.1-0.6-0.2-0.9
							c0,0,0,0,0,0c0-0.1-0.1-0.3-0.1-0.4h0c-0.1-0.3-0.2-0.6-0.3-0.9c0,0,0,0,0,0c0-0.1-0.1-0.3-0.1-0.4c0,0,0,0,0,0
							c0-0.1-0.1-0.1-0.1-0.2c0.2,0,0.3,0,0.5,0c0.6,3.5,1.2,6.4,1.4,6.2c0.2,0.3,0.9-2.6,1.5-6.2c0.2,0,0.4,0,0.7,0
							c0,0.1-0.1,0.2-0.1,0.2c0,0,0,0,0,0c0,0.1-0.1,0.3-0.1,0.4h0c-0.1,0.3-0.2,0.6-0.3,0.9h0c0,0.1-0.1,0.3-0.1,0.4h0
							c-0.1,0.3-0.1,0.6-0.2,0.9h0c0,0,0,0,0,0c0,0.1,0,0.1,0,0.2c0,0.1,0,0.1,0,0.2c0,0,0,0,0,0c-0.1,0.3-0.1,0.6-0.1,0.9
							c0,0,0,0,0,0c0,0.1,0,0.3,0,0.4h0c0,0.3,0,0.6-0.1,0.9h0c0,0,0,0,0,0c0,0,0,0.1,0,0.1c0,0.1,0,0.2,0,0.3c0,0,0,0,0,0
							c0,0.2,0,0.4,0,0.6c0,0,0,0,0.1,0c0,0,0,0,0,0c0,0,0.1,0,0.2,0.1c0,0,0,0,0,0C20.9,68,22,68.3,23.6,68.3L23.6,68.3z"/>
					</g>
				</g>
				<g class="st2">
					<g>
						<defs>
							<rect id="SVGID_9_" x="3.3" y="3.3" width="31.1" height="64.7"/>
						</defs>
						<clipPath id="SVGID_10_">
							<use xlink:href="#SVGID_9_"  style="overflow:visible;"/>
						</clipPath>
						<path class="st4" d="M23.3,68C23.3,68,23.3,68,23.3,68c0.8,0,1.5-0.1,2-0.2v0c0,0,0,0,0,0c0.1,0,0.1,0,0.2,0
							c0.1,0,0.2,0,0.3-0.1c0,0,0.1,0,0.1,0c0.1,0,0.2-0.1,0.3-0.1c0,0,0.1,0,0.1,0c0.1,0,0.1,0,0.2-0.1c0,0,0,0,0.1,0
							c0.1,0,0.1,0,0.2-0.1c0,0,0,0,0,0c0,0,0,0,0,0c0-0.2,0-0.4,0-0.6c0,0,0,0,0,0c0-0.1,0-0.2,0-0.3c0,0,0-0.1,0-0.1c0,0,0,0,0,0
							h0c0-0.3,0-0.6-0.1-1c0,0,0,0,0,0c0-0.1,0-0.3,0-0.4c0,0,0,0,0,0c0-0.3-0.1-0.6-0.1-0.9c0,0,0,0,0,0c0-0.1,0-0.1,0-0.2
							c0-0.1,0-0.1,0-0.2c0,0,0,0,0-0.1c0,0,0,0,0,0c-0.1-0.3-0.1-0.6-0.2-0.9c0,0,0,0,0,0c0-0.1-0.1-0.3-0.1-0.4
							c-0.1-0.3-0.2-0.6-0.3-0.9c0,0,0,0,0,0c0-0.1-0.1-0.3-0.1-0.4c0,0,0,0,0,0c-0.1-0.1-0.1-0.3-0.2-0.4c0-0.1,0-0.1-0.1-0.2
							c0,0,0-0.1-0.1-0.1c0,0,0,0,0.1,0c0,0,0,0,0.1,0c0.1,0,0.2,0,0.2,0c0,0,0,0,0.1,0c0.1,0,0.1,0,0.2,0c0,0,0,0,0,0
							c0,0,0.1,0,0.1,0c0,0,0,0,0,0c0,0,0,0,0,0c0.3-0.5,0.6-1.1,0.9-1.8c0.2,2.9,0.5,7.3,0.8,8.4c0,0.1,0,0.1,0.1,0.1c0,0,0,0,0,0
							c0,0,0.1,0,0.1,0c0,0,0,0,0,0c0,0,0,0,0,0c1.1-0.3,5.9-10.5,6.3-15.1l0,0c0,0,0,0,0,0c0-0.3,0-0.5,0-0.8
							c-0.3-4.1-3.9-5.5-4.3-5.6c0.7-5.5,1-10.9,0.9-14.1c-0.2-5.7-0.7-8-0.8-8.5c0-0.1,0-0.3-0.1-0.4l0,0c0,0,0,0,0,0
							c0-0.1,0-0.2-0.1-0.3c0-0.1,0-0.1,0-0.2c0-0.1-0.1-0.2-0.1-0.3c0-0.1,0-0.1-0.1-0.2c0-0.1-0.1-0.2-0.1-0.4
							c0-0.1-0.1-0.2-0.1-0.2c0-0.1-0.1-0.3-0.1-0.4c0-0.1-0.1-0.2-0.1-0.2c-0.1-0.1-0.1-0.3-0.2-0.4c0-0.1-0.1-0.2-0.1-0.3
							C29.1,19.3,29,19.2,29,19c0-0.1-0.1-0.2-0.1-0.3c-0.1-0.1-0.1-0.3-0.2-0.4c0-0.1-0.1-0.2-0.1-0.3c-0.1-0.1-0.1-0.3-0.2-0.4
							c0-0.1-0.1-0.2-0.1-0.3C28.1,17.2,28,17,28,16.9c0-0.1-0.1-0.2-0.1-0.3c-0.1-0.2-0.2-0.3-0.2-0.5c0-0.1-0.1-0.2-0.1-0.3
							c-0.1-0.2-0.2-0.3-0.2-0.5c-0.1-0.1-0.1-0.2-0.2-0.3c-0.1-0.2-0.2-0.3-0.2-0.5c-0.1-0.1-0.1-0.2-0.2-0.3
							c-0.1-0.2-0.2-0.3-0.3-0.5c-0.1-0.1-0.1-0.2-0.2-0.3c-0.1-0.2-0.2-0.3-0.3-0.5c-0.1-0.1-0.1-0.2-0.2-0.3
							c-0.1-0.1-0.2-0.3-0.3-0.4c-0.1-0.1-0.1-0.2-0.2-0.3c-0.1-0.1-0.2-0.3-0.3-0.4c-0.1-0.1-0.1-0.2-0.2-0.3
							c-0.1-0.1-0.2-0.3-0.2-0.4c-0.1-0.1-0.1-0.2-0.2-0.3c-0.1-0.1-0.2-0.3-0.2-0.4c-0.1-0.1-0.1-0.2-0.2-0.3
							c-0.1-0.1-0.2-0.3-0.2-0.4c-0.1-0.1-0.1-0.2-0.2-0.3c-0.1-0.1-0.2-0.3-0.2-0.4c-0.1-0.1-0.1-0.2-0.2-0.3
							c-0.1-0.1-0.1-0.2-0.2-0.3C23,8.1,22.9,8,22.9,7.9c-0.1-0.1-0.1-0.2-0.2-0.3c-0.1-0.1-0.1-0.2-0.2-0.3
							c-0.1-0.1-0.1-0.2-0.2-0.3c-0.1-0.1-0.1-0.2-0.2-0.2C22.1,6.7,22,6.6,22,6.5c-0.1-0.1-0.1-0.2-0.2-0.3C21.7,6.1,21.7,6,21.6,6
							c-0.1-0.1-0.1-0.2-0.2-0.2c0-0.1-0.1-0.1-0.1-0.2c0-0.1-0.1-0.1-0.1-0.2c0-0.1-0.1-0.1-0.1-0.2C21,5,21,5,20.9,4.9
							c0-0.1-0.1-0.1-0.1-0.2c0-0.1-0.1-0.1-0.1-0.1c0,0-0.1-0.1-0.1-0.1c0-0.1-0.1-0.1-0.1-0.1c0,0-0.1-0.1-0.1-0.1
							c0-0.1-0.1-0.1-0.1-0.1c0,0,0,0,0,0c0,0-0.1-0.1-0.1-0.1c-0.6-0.6-1.2-0.7-1.5-0.7c0,0,0,0-0.1,0v0c-0.3,0-0.9,0.1-1.4,0.7
							c0,0-0.1,0.1-0.1,0.1c0,0,0,0,0,0.1c0,0-0.1,0.1-0.1,0.1c0,0,0,0.1-0.1,0.1c0,0-0.1,0.1-0.1,0.2c0,0-0.1,0.1-0.1,0.1
							c0,0.1-0.1,0.1-0.1,0.2c0,0.1-0.1,0.1-0.1,0.2c0,0.1-0.1,0.1-0.1,0.2c0,0.1-0.1,0.1-0.1,0.2c0,0.1-0.1,0.1-0.1,0.2
							c0,0.1-0.1,0.2-0.2,0.2c0,0.1-0.1,0.1-0.1,0.2c-0.1,0.1-0.1,0.2-0.2,0.3c0,0.1-0.1,0.1-0.1,0.2c-0.1,0.1-0.1,0.2-0.2,0.3
							c-0.1,0.1-0.1,0.2-0.2,0.2c-0.1,0.1-0.1,0.2-0.2,0.3c-0.1,0.1-0.1,0.2-0.2,0.2c-0.1,0.1-0.1,0.2-0.2,0.4
							c-0.1,0.1-0.1,0.2-0.2,0.3c-0.1,0.1-0.2,0.2-0.2,0.4c-0.1,0.1-0.1,0.2-0.2,0.3c-0.1,0.1-0.2,0.3-0.2,0.4
							c-0.1,0.1-0.1,0.2-0.2,0.3c-0.1,0.1-0.2,0.3-0.3,0.4c-0.1,0.1-0.1,0.2-0.2,0.3c-0.1,0.1-0.2,0.3-0.3,0.5
							c0,0.1-0.1,0.2-0.1,0.2c-0.1,0.2-0.2,0.3-0.3,0.5c-0.1,0.1-0.1,0.2-0.1,0.3c-0.1,0.2-0.2,0.3-0.3,0.5c0,0.1-0.1,0.2-0.1,0.3
							c-0.1,0.2-0.2,0.3-0.3,0.5c0,0.1-0.1,0.2-0.1,0.2c-0.1,0.2-0.2,0.3-0.3,0.5c0,0.1-0.1,0.2-0.1,0.2c-0.1,0.2-0.2,0.3-0.3,0.5
							c0,0.1-0.1,0.2-0.1,0.3c-0.1,0.2-0.2,0.3-0.3,0.5c0,0.1-0.1,0.2-0.1,0.2c-0.1,0.2-0.2,0.3-0.3,0.5c0,0.1-0.1,0.2-0.1,0.2
							c-0.1,0.2-0.2,0.3-0.3,0.5c0,0.1-0.1,0.2-0.1,0.2c-0.1,0.2-0.2,0.3-0.2,0.5c0,0.1-0.1,0.2-0.1,0.2c-0.1,0.2-0.2,0.3-0.2,0.5
							c0,0.1-0.1,0.1-0.1,0.2c-0.1,0.2-0.1,0.3-0.2,0.5c0,0.1-0.1,0.1-0.1,0.2c-0.1,0.2-0.1,0.3-0.2,0.5c0,0.1-0.1,0.1-0.1,0.2
							c-0.1,0.2-0.1,0.3-0.2,0.4c0,0.1,0,0.1-0.1,0.2c-0.1,0.1-0.1,0.3-0.2,0.4c0,0.1,0,0.1-0.1,0.2c0,0.1-0.1,0.3-0.1,0.4
							c0,0.1,0,0.1,0,0.2c0,0.1-0.1,0.3-0.1,0.4c0,0.1,0,0.1,0,0.2c0,0.1-0.1,0.3-0.1,0.4c0,0,0,0,0,0c0,0,0,0,0,0
							c0,0.1-0.1,0.3-0.1,0.4c-0.1,0.5-0.6,2.8-0.8,8.5C6.3,34.5,6.6,40,7.4,45.5c-0.9,0.4-3.8,1.8-4.1,5.5c0,0.2,0,0.5,0,0.7
							c0,0,0,0,0,0.1c0,0,0,0,0,0c0.3,4.7,5.6,15.7,6.4,15.1c0,0,0,0,0,0c0,0,0,0,0,0c0,0,0.1-0.1,0.1-0.1c0.3-1.1,0.6-5.1,0.7-8
							c0.2,0.5,0.4,0.9,0.7,1.3c0,0,0.4,0.1,1,0.2c0,0,0,0.1-0.1,0.1c0,0,0,0.1-0.1,0.1C12,60.7,12,60.8,11.9,61c0,0,0,0,0,0
							c0,0.1-0.1,0.3-0.1,0.4h0c-0.1,0.3-0.2,0.6-0.3,0.9c0,0,0,0,0,0c0,0.1-0.1,0.3-0.1,0.4h0c-0.1,0.3-0.1,0.6-0.2,0.9h0
							c0,0,0,0,0,0c0,0.1,0,0.1,0,0.2c0,0.1,0,0.1,0,0.2c0,0,0,0,0,0C11,64.4,11,64.7,11,65c0,0,0,0,0,0c0,0.1,0,0.3,0,0.4h0
							c0,0.3,0,0.6-0.1,0.9c0,0,0,0,0,0c0,0,0,0,0,0c0,0,0,0.1,0,0.1c0,0.1,0,0.2,0,0.3c0,0,0,0,0,0c0,0.2,0,0.4,0,0.6
							c0,0,0,0,0.1,0c0,0,0,0,0,0c0,0,0.1,0,0.2,0.1c0,0,0,0,0,0c0.5,0.2,1.7,0.5,3.2,0.5c0,0,0,0,0,0c0.8,0,1.4-0.1,2-0.2v0
							c0,0,0,0,0,0c0.1,0,0.1,0,0.2,0c0.1,0,0.2,0,0.3-0.1c0,0,0.1,0,0.1,0c0.1,0,0.2-0.1,0.3-0.1c0,0,0.1,0,0.1,0
							c0.1,0,0.1,0,0.2-0.1c0,0,0,0,0.1,0c0.1,0,0.1,0,0.2-0.1c0,0,0,0,0,0c0,0,0,0,0,0c0-0.2,0-0.4,0-0.6c0,0,0,0,0,0
							c0-0.1,0-0.2,0-0.3c0,0,0-0.1,0-0.1c0,0,0,0,0,0h0c0-0.3,0-0.6-0.1-1c0,0,0,0,0,0c0-0.1,0-0.3,0-0.4c0,0,0,0,0,0
							c0-0.3-0.1-0.6-0.1-0.9c0,0,0,0,0,0c0-0.1,0-0.1,0-0.2c0-0.1,0-0.1,0-0.2c0,0,0,0,0-0.1c0,0,0,0,0,0c-0.1-0.3-0.1-0.6-0.2-0.9
							c0,0,0,0,0,0c0-0.1-0.1-0.3-0.1-0.4h0c-0.1-0.3-0.2-0.6-0.3-0.9c0,0,0,0,0,0c0-0.1-0.1-0.3-0.1-0.4c0,0,0,0,0,0
							c0-0.1-0.1-0.1-0.1-0.2c0.2,0,0.3,0,0.5,0c0.6,3.5,1.2,6.4,1.4,6.2c0.2,0.3,0.9-2.6,1.5-6.2c0.2,0,0.4,0,0.7,0
							c0,0.1-0.1,0.2-0.1,0.2c0,0,0,0,0,0c0,0.1-0.1,0.3-0.1,0.4h0c-0.1,0.3-0.2,0.6-0.3,0.9l0,0c0,0.1-0.1,0.3-0.1,0.4h0
							c-0.1,0.3-0.1,0.6-0.2,0.9h0c0,0,0,0,0,0c0,0.1,0,0.1,0,0.2c0,0.1,0,0.1,0,0.2c0,0,0,0,0,0c0,0.3-0.1,0.6-0.1,0.9c0,0,0,0,0,0
							c0,0.1,0,0.3,0,0.4c0,0.3,0,0.6-0.1,0.9l0,0c0,0,0,0,0,0c0,0,0,0.1,0,0.1c0,0.1,0,0.2,0,0.3c0,0,0,0,0,0c0,0.2,0,0.4,0,0.6
							c0,0,0,0,0.1,0c0,0,0,0,0,0c0,0,0.1,0,0.2,0.1c0,0,0,0,0,0C20.5,67.7,21.7,68,23.3,68z"/>
					</g>
				</g>
				<g class="st2">
					<g>
						<defs>
							<rect id="SVGID_11_" x="3" y="3" width="31.1" height="64.7"/>
						</defs>
						<clipPath id="SVGID_12_">
							<use xlink:href="#SVGID_11_"  style="overflow:visible;"/>
						</clipPath>
						<path class="st5" d="M22.9,67.6C22.9,67.6,23,67.6,22.9,67.6c0.8,0,1.5-0.1,2-0.2c0,0,0,0,0,0c0.1,0,0.1,0,0.2,0
							c0.1,0,0.2,0,0.3-0.1c0,0,0.1,0,0.1,0c0.1,0,0.2-0.1,0.3-0.1c0,0,0.1,0,0.1,0c0.1,0,0.1,0,0.2-0.1c0,0,0,0,0.1,0
							c0.1,0,0.1,0,0.2-0.1c0,0,0,0,0,0c0,0,0,0,0,0c0-0.2,0-0.4,0-0.6c0,0,0,0,0,0c0-0.1,0-0.2,0-0.3c0,0,0-0.1,0-0.1c0,0,0,0,0,0
							c0,0,0,0,0,0c0-0.3,0-0.6-0.1-1h0c0-0.1,0-0.3,0-0.4c0,0,0,0,0,0c0-0.3-0.1-0.6-0.1-0.9c0,0,0,0,0,0c0-0.1,0-0.1,0-0.2
							c0-0.1,0-0.1,0-0.2c0,0,0,0,0-0.1c0,0,0,0,0,0c-0.1-0.3-0.1-0.6-0.2-0.9c0,0,0,0,0,0c0-0.1-0.1-0.3-0.1-0.4h0
							c-0.1-0.3-0.2-0.6-0.3-0.9h0c0-0.1-0.1-0.3-0.1-0.4c0,0,0,0,0,0c-0.1-0.1-0.1-0.3-0.2-0.4c0-0.1,0-0.1-0.1-0.2
							c0,0,0-0.1-0.1-0.1c0,0,0,0,0.1,0c0,0,0,0,0.1,0c0.1,0,0.2,0,0.2,0c0,0,0,0,0.1,0c0.1,0,0.1,0,0.2,0c0,0,0,0,0,0
							c0,0,0.1,0,0.1,0c0,0,0,0,0,0c0,0,0,0,0,0c0.3-0.5,0.6-1.1,0.9-1.8c0.2,2.9,0.5,7.3,0.8,8.5c0,0.1,0,0.1,0.1,0.1c0,0,0,0,0,0
							c0,0,0.1,0,0.1,0c0,0,0,0,0,0c0,0,0,0,0,0c1.1-0.3,5.9-10.5,6.3-15.1c0,0,0,0,0,0c0,0,0,0,0,0c0-0.3,0-0.5,0-0.8
							c-0.3-4.1-3.9-5.5-4.3-5.6c0.7-5.5,1-10.9,0.9-14.1c-0.2-5.7-0.7-8-0.8-8.5c0-0.1,0-0.3-0.1-0.4c0,0,0,0,0,0c0,0,0,0,0,0
							c0-0.1,0-0.2-0.1-0.3c0-0.1,0-0.1,0-0.2c0-0.1-0.1-0.2-0.1-0.3c0-0.1,0-0.1-0.1-0.2c0-0.1-0.1-0.2-0.1-0.4
							c0-0.1-0.1-0.2-0.1-0.2c0-0.1-0.1-0.3-0.1-0.4c0-0.1-0.1-0.2-0.1-0.2c-0.1-0.1-0.1-0.3-0.2-0.4c0-0.1-0.1-0.2-0.1-0.3
							c-0.1-0.1-0.1-0.3-0.2-0.4c0-0.1-0.1-0.2-0.1-0.3c-0.1-0.1-0.1-0.3-0.2-0.4c0-0.1-0.1-0.2-0.1-0.3c-0.1-0.1-0.1-0.3-0.2-0.4
							c0-0.1-0.1-0.2-0.1-0.3c-0.1-0.1-0.1-0.3-0.2-0.4c0-0.1-0.1-0.2-0.1-0.3c-0.1-0.2-0.2-0.3-0.2-0.5c0-0.1-0.1-0.2-0.1-0.3
							C27,15.4,27,15.2,26.9,15c-0.1-0.1-0.1-0.2-0.2-0.3c-0.1-0.2-0.2-0.3-0.2-0.5c-0.1-0.1-0.1-0.2-0.2-0.3
							c-0.1-0.2-0.2-0.3-0.3-0.5c-0.1-0.1-0.1-0.2-0.2-0.3c-0.1-0.2-0.2-0.3-0.3-0.5c-0.1-0.1-0.1-0.2-0.2-0.3
							c-0.1-0.1-0.2-0.3-0.3-0.4c-0.1-0.1-0.1-0.2-0.2-0.3c-0.1-0.1-0.2-0.3-0.3-0.4c-0.1-0.1-0.1-0.2-0.2-0.3
							c-0.1-0.1-0.2-0.3-0.2-0.4c-0.1-0.1-0.1-0.2-0.2-0.3c-0.1-0.1-0.2-0.3-0.2-0.4c-0.1-0.1-0.1-0.2-0.2-0.3
							c-0.1-0.1-0.2-0.3-0.2-0.4c-0.1-0.1-0.1-0.2-0.2-0.3c-0.1-0.1-0.2-0.3-0.2-0.4c-0.1-0.1-0.1-0.2-0.2-0.3
							c-0.1-0.1-0.1-0.2-0.2-0.3c-0.1-0.1-0.1-0.2-0.2-0.3c-0.1-0.1-0.1-0.2-0.2-0.3c-0.1-0.1-0.1-0.2-0.2-0.3
							C22.1,6.9,22,6.8,22,6.7c-0.1-0.1-0.1-0.2-0.2-0.2c-0.1-0.1-0.1-0.2-0.2-0.3C21.6,6,21.5,6,21.5,5.9c-0.1-0.1-0.1-0.2-0.2-0.2
							c-0.1-0.1-0.1-0.2-0.2-0.2c0-0.1-0.1-0.1-0.1-0.2C21,5.1,20.9,5,20.9,5c0-0.1-0.1-0.1-0.1-0.2c0-0.1-0.1-0.1-0.1-0.2
							c0-0.1-0.1-0.1-0.1-0.2c0-0.1-0.1-0.1-0.1-0.1c0,0-0.1-0.1-0.1-0.1c0-0.1-0.1-0.1-0.1-0.1c0,0-0.1-0.1-0.1-0.1
							c0-0.1-0.1-0.1-0.1-0.1c0,0,0,0,0,0c0,0-0.1-0.1-0.1-0.1C19.3,3,18.7,2.9,18.4,3c0,0,0,0-0.1,0v0C18,3,17.4,3,16.9,3.6
							c0,0-0.1,0.1-0.1,0.1c0,0,0,0,0,0.1c0,0-0.1,0.1-0.1,0.1c0,0,0,0.1-0.1,0.1c0,0-0.1,0.1-0.1,0.2c0,0-0.1,0.1-0.1,0.1
							c0,0.1-0.1,0.1-0.1,0.2c0,0.1-0.1,0.1-0.1,0.2c0,0.1-0.1,0.1-0.1,0.2C16,4.8,16,4.9,15.9,5c0,0.1-0.1,0.1-0.1,0.2
							c-0.1,0.1-0.1,0.2-0.2,0.2c0,0.1-0.1,0.1-0.1,0.2c-0.1,0.1-0.1,0.2-0.2,0.3c0,0.1-0.1,0.1-0.1,0.2C15.1,6.2,15,6.3,15,6.4
							c-0.1,0.1-0.1,0.2-0.2,0.2c-0.1,0.1-0.1,0.2-0.2,0.3c-0.1,0.1-0.1,0.2-0.2,0.2c-0.1,0.1-0.1,0.2-0.2,0.4
							c-0.1,0.1-0.1,0.2-0.2,0.3C14,8,13.9,8.1,13.8,8.2c-0.1,0.1-0.1,0.2-0.2,0.3c-0.1,0.1-0.2,0.3-0.2,0.4
							c-0.1,0.1-0.1,0.2-0.2,0.3c-0.1,0.1-0.2,0.3-0.3,0.4c-0.1,0.1-0.1,0.2-0.2,0.3c-0.1,0.1-0.2,0.3-0.3,0.5
							c0,0.1-0.1,0.2-0.1,0.2c-0.1,0.2-0.2,0.3-0.3,0.5c-0.1,0.1-0.1,0.2-0.1,0.3c-0.1,0.2-0.2,0.3-0.3,0.5c0,0.1-0.1,0.2-0.1,0.3
							c-0.1,0.2-0.2,0.3-0.3,0.5c0,0.1-0.1,0.2-0.1,0.2c-0.1,0.2-0.2,0.3-0.3,0.5c0,0.1-0.1,0.2-0.1,0.2c-0.1,0.2-0.2,0.3-0.3,0.5
							c0,0.1-0.1,0.2-0.1,0.3c-0.1,0.2-0.2,0.3-0.3,0.5c0,0.1-0.1,0.2-0.1,0.2c-0.1,0.2-0.2,0.3-0.3,0.5c0,0.1-0.1,0.2-0.1,0.2
							c-0.1,0.2-0.2,0.3-0.3,0.5c0,0.1-0.1,0.2-0.1,0.2C9.1,16.7,9,16.8,8.9,17c0,0.1-0.1,0.2-0.1,0.2c-0.1,0.2-0.2,0.3-0.2,0.5
							c0,0.1-0.1,0.1-0.1,0.2c-0.1,0.2-0.1,0.3-0.2,0.5c0,0.1-0.1,0.1-0.1,0.2C8.1,18.8,8.1,19,8,19.1c0,0.1-0.1,0.1-0.1,0.2
							c-0.1,0.2-0.1,0.3-0.2,0.4c0,0.1,0,0.1-0.1,0.2c-0.1,0.1-0.1,0.3-0.2,0.4c0,0.1,0,0.1-0.1,0.2c0,0.1-0.1,0.3-0.1,0.4
							c0,0.1,0,0.1,0,0.2c0,0.1-0.1,0.3-0.1,0.4c0,0.1,0,0.1,0,0.2C7.1,21.8,7,22,7,22.1c0,0,0,0,0,0c0,0,0,0,0,0
							c0,0.1-0.1,0.3-0.1,0.4C6.8,23,6.3,25.3,6.1,31C6,34.2,6.3,39.7,7,45.2C6.1,45.5,3.2,47,3,50.7c0,0.2,0,0.5,0,0.7
							c0,0,0,0,0,0.1c0,0,0,0,0,0c0.3,4.7,5.6,15.7,6.4,15.1c0,0,0,0,0,0c0,0,0,0,0,0c0,0,0.1-0.1,0.1-0.1c0.3-1.1,0.6-5.1,0.7-8
							c0.2,0.5,0.4,0.9,0.7,1.3c0,0,0.4,0.1,1,0.2c0,0,0,0.1-0.1,0.1c0,0,0,0.1-0.1,0.1c-0.1,0.1-0.1,0.3-0.2,0.4c0,0,0,0,0,0
							c0,0.1-0.1,0.3-0.1,0.4c0,0,0,0,0,0c-0.1,0.3-0.2,0.6-0.3,0.9h0c0,0.1-0.1,0.3-0.1,0.4c0,0,0,0,0,0c-0.1,0.3-0.1,0.6-0.2,0.9
							c0,0,0,0,0,0c0,0,0,0,0,0c0,0.1,0,0.1,0,0.2c0,0.1,0,0.1,0,0.2c0,0,0,0,0,0c-0.1,0.3-0.1,0.6-0.1,0.9c0,0,0,0,0,0
							c0,0.1,0,0.3,0,0.4c0,0.3,0,0.6-0.1,0.9v0c0,0,0,0,0,0c0,0,0,0.1,0,0.1c0,0.1,0,0.2,0,0.3l0,0c0,0.2,0,0.4,0,0.6
							c0,0,0,0,0.1,0c0,0,0,0,0,0c0,0,0.1,0,0.2,0.1l0,0c0.5,0.2,1.7,0.5,3.2,0.5v0c0,0,0,0,0,0c0.8,0,1.4-0.1,2-0.2c0,0,0,0,0,0
							c0.1,0,0.1,0,0.2,0c0.1,0,0.2,0,0.3-0.1c0,0,0.1,0,0.1,0c0.1,0,0.2-0.1,0.3-0.1c0,0,0.1,0,0.1,0c0.1,0,0.1,0,0.2-0.1
							c0,0,0,0,0.1,0c0.1,0,0.1,0,0.2-0.1c0,0,0,0,0,0c0,0,0,0,0,0c0-0.2,0-0.4,0-0.6c0,0,0,0,0,0c0-0.1,0-0.2,0-0.3
							c0,0,0-0.1,0-0.1c0,0,0,0,0,0h0c0-0.3,0-0.6-0.1-1c0,0,0,0,0,0c0-0.1,0-0.3,0-0.4c0,0,0,0,0,0c0-0.3-0.1-0.6-0.1-0.9
							c0,0,0,0,0,0c0-0.1,0-0.1,0-0.2c0-0.1,0-0.1,0-0.2c0,0,0,0,0-0.1c0,0,0,0,0,0c-0.1-0.3-0.1-0.6-0.2-0.9c0,0,0,0,0,0
							c0-0.1-0.1-0.3-0.1-0.4h0c-0.1-0.3-0.2-0.6-0.3-0.9h0c0-0.1-0.1-0.3-0.1-0.4c0,0,0,0,0,0c0-0.1-0.1-0.1-0.1-0.2
							c0.2,0,0.3,0,0.5,0c0.6,3.5,1.2,6.4,1.4,6.2c0.2,0.3,0.9-2.6,1.5-6.2c0.2,0,0.4,0,0.7,0c0,0.1-0.1,0.2-0.1,0.2c0,0,0,0,0,0
							c0,0.1-0.1,0.3-0.1,0.4c0,0,0,0,0,0c-0.1,0.3-0.2,0.6-0.3,0.9h0c0,0.1-0.1,0.3-0.1,0.4c0,0,0,0,0,0c-0.1,0.3-0.1,0.6-0.2,0.9
							c0,0,0,0,0,0c0,0,0,0,0,0c0,0.1,0,0.1,0,0.2c0,0.1,0,0.1,0,0.2c0,0,0,0,0,0c-0.1,0.3-0.1,0.6-0.1,0.9c0,0,0,0,0,0
							c0,0.1,0,0.3,0,0.4c0,0,0,0,0,0c0,0.3,0,0.6-0.1,0.9l0,0c0,0,0,0,0,0c0,0,0,0.1,0,0.1c0,0.1,0,0.2,0,0.3l0,0
							c0,0.2,0,0.4,0,0.6c0,0,0,0,0.1,0c0,0,0,0,0,0c0,0,0.1,0,0.2,0.1c0,0,0,0,0,0C20.2,67.3,21.4,67.6,22.9,67.6L22.9,67.6z"/>
					</g>
				</g>
				<g class="st2">
					<g>
						<defs>
							<rect id="SVGID_13_" x="2.6" y="2.6" width="31.1" height="64.7"/>
						</defs>
						<clipPath id="SVGID_14_">
							<use xlink:href="#SVGID_13_"  style="overflow:visible;"/>
						</clipPath>
						<path class="st6" d="M22.6,67.3C22.6,67.3,22.6,67.3,22.6,67.3c0.8,0,1.5-0.1,2-0.2c0,0,0,0,0,0c0.1,0,0.1,0,0.2,0
							c0.1,0,0.2,0,0.3-0.1c0,0,0.1,0,0.1,0c0.1,0,0.2-0.1,0.3-0.1c0,0,0.1,0,0.1,0c0.1,0,0.1,0,0.2-0.1c0,0,0,0,0.1,0
							c0.1,0,0.1,0,0.2-0.1c0,0,0,0,0,0c0,0,0,0,0,0c0-0.2,0-0.4,0-0.6c0,0,0,0,0,0c0-0.1,0-0.2,0-0.3c0,0,0-0.1,0-0.1c0,0,0,0,0,0
							h0c0-0.3,0-0.6-0.1-1h0c0-0.1,0-0.3,0-0.4c0,0,0,0,0,0c0-0.3-0.1-0.6-0.1-0.9c0,0,0,0,0,0c0-0.1,0-0.1,0-0.2
							c0-0.1,0-0.1,0-0.2c0,0,0,0,0-0.1h0c-0.1-0.3-0.1-0.6-0.2-0.9c0,0,0,0,0,0c0-0.1-0.1-0.3-0.1-0.4h0c-0.1-0.3-0.2-0.6-0.3-0.9
							c0,0,0,0,0,0c0-0.1-0.1-0.3-0.1-0.4c0,0,0,0,0,0C25.1,60.1,25,60,25,59.9c0-0.1,0-0.1-0.1-0.2c0,0,0-0.1-0.1-0.1
							c0,0,0,0,0.1,0c0,0,0,0,0.1,0c0.1,0,0.2,0,0.2,0c0,0,0,0,0.1,0c0.1,0,0.1,0,0.2,0c0,0,0,0,0,0c0,0,0.1,0,0.1,0c0,0,0,0,0,0
							c0,0,0,0,0,0c0.3-0.5,0.6-1.1,0.9-1.8c0.2,2.9,0.5,7.3,0.8,8.4c0,0.1,0,0.1,0.1,0.1c0,0,0,0,0,0c0,0,0.1,0,0.1,0c0,0,0,0,0,0
							c0,0,0,0,0,0c1.1-0.3,5.9-10.5,6.3-15.1c0,0,0,0,0,0c0,0,0,0,0,0c0-0.3,0-0.5,0-0.8c-0.3-4.1-3.9-5.5-4.3-5.6
							c0.7-5.5,1-10.9,0.9-14.1c-0.2-5.7-0.7-8-0.8-8.5c0-0.1,0-0.3-0.1-0.4c0,0,0,0,0,0c0,0,0,0,0,0c0-0.1,0-0.2-0.1-0.3
							c0-0.1,0-0.1,0-0.2c0-0.1-0.1-0.2-0.1-0.3c0-0.1,0-0.1-0.1-0.2c0-0.1-0.1-0.2-0.1-0.4c0-0.1-0.1-0.2-0.1-0.2
							c0-0.1-0.1-0.3-0.1-0.4c0-0.1-0.1-0.2-0.1-0.2c-0.1-0.1-0.1-0.3-0.2-0.4c0-0.1-0.1-0.2-0.1-0.3c-0.1-0.1-0.1-0.3-0.2-0.4
							c0-0.1-0.1-0.2-0.1-0.3c-0.1-0.1-0.1-0.3-0.2-0.4c0-0.1-0.1-0.2-0.1-0.3c-0.1-0.1-0.1-0.3-0.2-0.4c0-0.1-0.1-0.2-0.1-0.3
							c-0.1-0.1-0.1-0.3-0.2-0.4c0-0.1-0.1-0.2-0.1-0.3c-0.1-0.2-0.2-0.3-0.2-0.5c0-0.1-0.1-0.2-0.1-0.3c-0.1-0.2-0.2-0.3-0.2-0.5
							c-0.1-0.1-0.1-0.2-0.2-0.3c-0.1-0.2-0.2-0.3-0.2-0.5c-0.1-0.1-0.1-0.2-0.2-0.3c-0.1-0.2-0.2-0.3-0.3-0.5
							c-0.1-0.1-0.1-0.2-0.2-0.3c-0.1-0.2-0.2-0.3-0.3-0.5c-0.1-0.1-0.1-0.2-0.2-0.3c-0.1-0.1-0.2-0.3-0.3-0.4
							c-0.1-0.1-0.1-0.2-0.2-0.3c-0.1-0.1-0.2-0.3-0.3-0.4c-0.1-0.1-0.1-0.2-0.2-0.3c-0.1-0.1-0.2-0.3-0.2-0.4
							c-0.1-0.1-0.1-0.2-0.2-0.3c-0.1-0.1-0.2-0.3-0.2-0.4c-0.1-0.1-0.1-0.2-0.2-0.3c-0.1-0.1-0.2-0.3-0.2-0.4
							c-0.1-0.1-0.1-0.2-0.2-0.3c-0.1-0.1-0.2-0.3-0.2-0.4c-0.1-0.1-0.1-0.2-0.2-0.3c-0.1-0.1-0.1-0.2-0.2-0.3
							c-0.1-0.1-0.1-0.2-0.2-0.3C22.2,7.1,22.1,7,22,6.9c-0.1-0.1-0.1-0.2-0.2-0.3c-0.1-0.1-0.1-0.2-0.2-0.3
							c-0.1-0.1-0.1-0.2-0.2-0.2c-0.1-0.1-0.1-0.2-0.2-0.3c-0.1-0.1-0.1-0.2-0.2-0.3C21.1,5.5,21,5.4,21,5.3
							c-0.1-0.1-0.1-0.2-0.2-0.2c0-0.1-0.1-0.1-0.1-0.2c0-0.1-0.1-0.1-0.1-0.2c0-0.1-0.1-0.1-0.1-0.2c0-0.1-0.1-0.1-0.1-0.2
							c0-0.1-0.1-0.1-0.1-0.2c0-0.1-0.1-0.1-0.1-0.2c0,0-0.1-0.1-0.1-0.1c0-0.1-0.1-0.1-0.1-0.1c0,0,0-0.1-0.1-0.1
							c0-0.1-0.1-0.1-0.1-0.1c0,0,0,0,0,0c0,0-0.1-0.1-0.1-0.1c-0.6-0.6-1.2-0.7-1.5-0.7c0,0,0,0-0.1,0v0c-0.3,0-0.9,0.1-1.4,0.7
							c0,0-0.1,0.1-0.1,0.1c0,0,0,0,0,0.1c0,0-0.1,0.1-0.1,0.1c0,0,0,0.1-0.1,0.1c0,0-0.1,0.1-0.1,0.2c0,0-0.1,0.1-0.1,0.1
							C16.1,4,16,4,16,4.1c0,0.1-0.1,0.1-0.1,0.2c0,0.1-0.1,0.1-0.1,0.2c0,0.1-0.1,0.1-0.1,0.2c0,0.1-0.1,0.1-0.1,0.2
							c-0.1,0.1-0.1,0.2-0.2,0.2c0,0.1-0.1,0.1-0.1,0.2C15.1,5.4,15,5.5,15,5.6c0,0.1-0.1,0.1-0.1,0.2c-0.1,0.1-0.1,0.2-0.2,0.3
							c-0.1,0.1-0.1,0.2-0.2,0.2c-0.1,0.1-0.1,0.2-0.2,0.3c-0.1,0.1-0.1,0.2-0.2,0.2C14.1,7,14,7.1,13.9,7.3
							c-0.1,0.1-0.1,0.2-0.2,0.3c-0.1,0.1-0.2,0.2-0.2,0.4c-0.1,0.1-0.1,0.2-0.2,0.3c-0.1,0.1-0.2,0.3-0.2,0.4
							c-0.1,0.1-0.1,0.2-0.2,0.3c-0.1,0.1-0.2,0.3-0.3,0.4c-0.1,0.1-0.1,0.2-0.2,0.3c-0.1,0.1-0.2,0.3-0.3,0.5
							c0,0.1-0.1,0.2-0.1,0.2c-0.1,0.2-0.2,0.3-0.3,0.5c-0.1,0.1-0.1,0.2-0.1,0.3c-0.1,0.2-0.2,0.3-0.3,0.5c0,0.1-0.1,0.2-0.1,0.3
							c-0.1,0.2-0.2,0.3-0.3,0.5c0,0.1-0.1,0.2-0.1,0.2c-0.1,0.2-0.2,0.3-0.3,0.5c0,0.1-0.1,0.2-0.1,0.2c-0.1,0.2-0.2,0.3-0.3,0.5
							c0,0.1-0.1,0.2-0.1,0.3c-0.1,0.2-0.2,0.3-0.3,0.5c0,0.1-0.1,0.2-0.1,0.2c-0.1,0.2-0.2,0.3-0.3,0.5c0,0.1-0.1,0.2-0.1,0.2
							c-0.1,0.2-0.2,0.3-0.3,0.5c0,0.1-0.1,0.2-0.1,0.2c-0.1,0.2-0.2,0.3-0.2,0.5c0,0.1-0.1,0.2-0.1,0.2c-0.1,0.2-0.2,0.3-0.2,0.5
							c0,0.1-0.1,0.2-0.1,0.2C8.1,17.8,8,17.9,8,18.1c0,0.1-0.1,0.1-0.1,0.2c-0.1,0.2-0.1,0.3-0.2,0.5c0,0.1-0.1,0.1-0.1,0.2
							c-0.1,0.2-0.1,0.3-0.2,0.4c0,0.1,0,0.1-0.1,0.2c-0.1,0.1-0.1,0.3-0.2,0.4c0,0.1,0,0.1-0.1,0.2c0,0.1-0.1,0.3-0.1,0.4
							c0,0.1,0,0.1,0,0.2c0,0.1-0.1,0.3-0.1,0.4c0,0.1,0,0.1,0,0.2c0,0.1-0.1,0.3-0.1,0.4c0,0,0,0,0,0c0,0,0,0,0,0
							c0,0.1-0.1,0.3-0.1,0.4C6.5,22.7,6,25,5.8,30.7C5.7,33.9,6,39.4,6.7,44.9c-0.9,0.4-3.8,1.8-4.1,5.5c0,0.2,0,0.5,0,0.7
							c0,0,0,0,0,0.1c0,0,0,0,0,0C3,55.8,8.2,66.8,9,66.2c0,0,0,0,0,0c0,0,0,0,0,0c0,0,0.1-0.1,0.1-0.1c0.3-1.1,0.6-5.1,0.7-8
							c0.2,0.5,0.4,0.9,0.7,1.3c0,0,0.4,0.1,1,0.2c0,0,0,0.1-0.1,0.1c0,0,0,0.1-0.1,0.1c-0.1,0.1-0.1,0.3-0.2,0.4c0,0,0,0,0,0
							c0,0.1-0.1,0.3-0.1,0.4h0c-0.1,0.3-0.2,0.6-0.3,0.9h0c0,0.1-0.1,0.3-0.1,0.4c0,0,0,0,0,0c-0.1,0.3-0.1,0.6-0.2,0.9h0
							c0,0,0,0,0,0c0,0.1,0,0.1,0,0.2c0,0.1,0,0.1,0,0.2c0,0,0,0,0,0c-0.1,0.3-0.1,0.6-0.1,0.9c0,0,0,0,0,0c0,0.1,0,0.3,0,0.4
							c0,0.3,0,0.6-0.1,0.9c0,0,0,0,0,0c0,0,0,0.1,0,0.1c0,0.1,0,0.2,0,0.3c0,0,0,0,0,0c0,0.2,0,0.4,0,0.6c0,0,0,0,0.1,0
							c0,0,0,0,0,0c0,0,0.1,0,0.2,0.1c0,0,0,0,0,0c0.5,0.2,1.7,0.5,3.2,0.5v0c0,0,0,0,0,0c0.8,0,1.4-0.1,2-0.2c0,0,0,0,0,0
							c0.1,0,0.1,0,0.2,0c0.1,0,0.2,0,0.3-0.1c0,0,0.1,0,0.1,0c0.1,0,0.2-0.1,0.3-0.1c0,0,0.1,0,0.1,0c0.1,0,0.1,0,0.2-0.1
							c0,0,0,0,0.1,0c0.1,0,0.1,0,0.2-0.1c0,0,0,0,0,0c0,0,0,0,0,0c0-0.2,0-0.4,0-0.6c0,0,0,0,0,0c0-0.1,0-0.2,0-0.3
							c0,0,0-0.1,0-0.1c0,0,0,0,0,0h0c0-0.3,0-0.6-0.1-1h0c0-0.1,0-0.3,0-0.4c0,0,0,0,0,0c0-0.3-0.1-0.6-0.1-0.9c0,0,0,0,0,0
							c0-0.1,0-0.1,0-0.2c0-0.1,0-0.1,0-0.2c0,0,0,0,0-0.1h0c-0.1-0.3-0.1-0.6-0.2-0.9c0,0,0,0,0,0c0-0.1-0.1-0.3-0.1-0.4h0
							c-0.1-0.3-0.2-0.6-0.3-0.9c0,0,0,0,0,0c0-0.1-0.1-0.3-0.1-0.4c0,0,0,0,0,0c0-0.1-0.1-0.1-0.1-0.2c0.2,0,0.3,0,0.5,0
							c0.6,3.5,1.2,6.4,1.4,6.2c0.2,0.3,0.9-2.6,1.5-6.2c0.2,0,0.4,0,0.7,0c0,0.1-0.1,0.2-0.1,0.2c0,0,0,0,0,0
							c0,0.1-0.1,0.3-0.1,0.4h0c-0.1,0.3-0.2,0.6-0.3,0.9h0c0,0.1-0.1,0.3-0.1,0.4c0,0,0,0,0,0c-0.1,0.3-0.1,0.6-0.2,0.9h0
							c0,0,0,0,0,0c0,0.1,0,0.1,0,0.2c0,0.1,0,0.1,0,0.2c0,0,0,0,0,0c-0.1,0.3-0.1,0.6-0.1,0.9c0,0,0,0,0,0c0,0.1,0,0.3,0,0.4h0
							c0,0.3,0,0.6-0.1,0.9h0c0,0,0,0,0,0c0,0,0,0.1,0,0.1c0,0.1,0,0.2,0,0.3c0,0,0,0,0,0c0,0.2,0,0.4,0,0.6c0,0,0,0,0.1,0
							c0,0,0,0,0,0c0,0,0.1,0,0.2,0.1c0,0,0,0,0,0C19.9,67,21.1,67.3,22.6,67.3L22.6,67.3z"/>
					</g>
				</g>
				<g class="st2">
					<g>
						<defs>
							<rect id="SVGID_15_" x="2.3" y="2.3" width="31.1" height="64.7"/>
						</defs>
						<clipPath id="SVGID_16_">
							<use xlink:href="#SVGID_15_"  style="overflow:visible;"/>
						</clipPath>
						<path class="st7" d="M22.3,67C22.3,67,22.3,67,22.3,67c0.8,0,1.5-0.1,2-0.2h0c0,0,0,0,0,0c0.1,0,0.1,0,0.2,0
							c0.1,0,0.2,0,0.3-0.1c0,0,0.1,0,0.1,0c0.1,0,0.2-0.1,0.3-0.1c0,0,0.1,0,0.1,0c0.1,0,0.1,0,0.2-0.1c0,0,0,0,0.1,0
							c0.1,0,0.1,0,0.2-0.1c0,0,0,0,0,0c0,0,0,0,0,0c0-0.2,0-0.4,0-0.6c0,0,0,0,0,0c0-0.1,0-0.2,0-0.3c0,0,0-0.1,0-0.1c0,0,0,0,0,0
							h0c0-0.3,0-0.6-0.1-1c0,0,0,0,0,0c0-0.1,0-0.3,0-0.4c0,0,0,0,0,0c0-0.3-0.1-0.6-0.1-0.9c0,0,0,0,0,0c0-0.1,0-0.1,0-0.2
							c0-0.1,0-0.1,0-0.2c0,0,0,0,0-0.1l0,0c-0.1-0.3-0.1-0.6-0.2-0.9c0,0,0,0,0,0c0-0.1-0.1-0.3-0.1-0.4h0
							c-0.1-0.3-0.2-0.6-0.3-0.9h0c0-0.1-0.1-0.3-0.1-0.4c0,0,0,0,0,0c-0.1-0.1-0.1-0.3-0.2-0.4c0-0.1,0-0.1-0.1-0.2
							c0,0,0-0.1-0.1-0.1c0,0,0,0,0.1,0c0,0,0,0,0.1,0c0.1,0,0.2,0,0.2,0c0,0,0,0,0.1,0c0.1,0,0.1,0,0.2,0c0,0,0,0,0,0
							c0,0,0.1,0,0.1,0c0,0,0,0,0,0c0,0,0,0,0,0c0.3-0.5,0.6-1.1,0.9-1.8c0.2,2.9,0.5,7.3,0.8,8.4c0,0.1,0,0.1,0.1,0.1c0,0,0,0,0,0
							c0,0,0.1,0,0.1,0c0,0,0,0,0,0c0,0,0,0,0,0c1.1-0.3,5.9-10.5,6.3-15.1c0,0,0,0,0,0c0,0,0,0,0,0c0-0.3,0-0.5,0-0.8
							c-0.3-4.1-3.9-5.5-4.3-5.6c0.7-5.5,1-10.9,0.9-14.1c-0.2-5.7-0.7-8-0.8-8.5c0-0.1,0-0.3-0.1-0.4l0,0c0,0,0,0,0,0
							c0-0.1,0-0.2-0.1-0.3c0-0.1,0-0.1,0-0.2c0-0.1-0.1-0.2-0.1-0.3c0-0.1,0-0.1-0.1-0.2c0-0.1-0.1-0.2-0.1-0.4
							c0-0.1-0.1-0.2-0.1-0.2c0-0.1-0.1-0.3-0.1-0.4c0-0.1-0.1-0.2-0.1-0.2c-0.1-0.1-0.1-0.3-0.2-0.4c0-0.1-0.1-0.2-0.1-0.3
							C28.1,18.3,28,18.2,28,18c0-0.1-0.1-0.2-0.1-0.3c-0.1-0.1-0.1-0.3-0.2-0.4c0-0.1-0.1-0.2-0.1-0.3c-0.1-0.1-0.1-0.3-0.2-0.4
							c0-0.1-0.1-0.2-0.1-0.3c-0.1-0.1-0.1-0.3-0.2-0.4c0-0.1-0.1-0.2-0.1-0.3c-0.1-0.2-0.2-0.3-0.2-0.5c0-0.1-0.1-0.2-0.1-0.3
							c-0.1-0.2-0.2-0.3-0.2-0.5c-0.1-0.1-0.1-0.2-0.2-0.3c-0.1-0.2-0.2-0.3-0.2-0.5c-0.1-0.1-0.1-0.2-0.2-0.3
							c-0.1-0.2-0.2-0.3-0.3-0.5c-0.1-0.1-0.1-0.2-0.2-0.3c-0.1-0.2-0.2-0.3-0.3-0.5c-0.1-0.1-0.1-0.2-0.2-0.3
							c-0.1-0.1-0.2-0.3-0.3-0.4c-0.1-0.1-0.1-0.2-0.2-0.3c-0.1-0.1-0.2-0.3-0.3-0.4c-0.1-0.1-0.1-0.2-0.2-0.3
							c-0.1-0.1-0.2-0.3-0.2-0.4c-0.1-0.1-0.1-0.2-0.2-0.3c-0.1-0.1-0.2-0.3-0.2-0.4c-0.1-0.1-0.1-0.2-0.2-0.3
							C23,8.8,23,8.6,22.9,8.5c-0.1-0.1-0.1-0.2-0.2-0.3c-0.1-0.1-0.2-0.3-0.2-0.4c-0.1-0.1-0.1-0.2-0.2-0.3
							c-0.1-0.1-0.1-0.2-0.2-0.3C22,7.1,22,7,21.9,6.9c-0.1-0.1-0.1-0.2-0.2-0.3c-0.1-0.1-0.1-0.2-0.2-0.3c-0.1-0.1-0.1-0.2-0.2-0.3
							c-0.1-0.1-0.1-0.2-0.2-0.2C21.1,5.7,21,5.6,21,5.5c-0.1-0.1-0.1-0.2-0.2-0.3c-0.1-0.1-0.1-0.2-0.2-0.2
							c-0.1-0.1-0.1-0.2-0.2-0.2c0-0.1-0.1-0.1-0.1-0.2c0-0.1-0.1-0.1-0.1-0.2c0-0.1-0.1-0.1-0.1-0.2C20,4.1,20,4,20,3.9
							c0-0.1-0.1-0.1-0.1-0.2c0-0.1-0.1-0.1-0.1-0.2c0,0-0.1-0.1-0.1-0.1c0-0.1-0.1-0.1-0.1-0.1c0,0,0-0.1-0.1-0.1
							c0-0.1-0.1-0.1-0.1-0.1c0,0,0,0,0,0c0,0-0.1-0.1-0.1-0.1c-0.6-0.6-1.2-0.7-1.5-0.7c0,0,0,0-0.1,0l0,0c-0.3,0-0.9,0.1-1.4,0.7
							c0,0-0.1,0.1-0.1,0.1c0,0,0,0,0,0.1c0,0-0.1,0.1-0.1,0.1c0,0,0,0.1-0.1,0.1c0,0-0.1,0.1-0.1,0.2c0,0-0.1,0.1-0.1,0.1
							c0,0.1-0.1,0.1-0.1,0.2c0,0.1-0.1,0.1-0.1,0.2c0,0.1-0.1,0.1-0.1,0.2c0,0.1-0.1,0.1-0.1,0.2c0,0.1-0.1,0.1-0.1,0.2
							c0,0.1-0.1,0.2-0.2,0.2c0,0.1-0.1,0.1-0.1,0.2c-0.1,0.1-0.1,0.2-0.2,0.3c0,0.1-0.1,0.1-0.1,0.2c-0.1,0.1-0.1,0.2-0.2,0.3
							c-0.1,0.1-0.1,0.2-0.2,0.2C14.1,6.1,14,6.2,14,6.3c-0.1,0.1-0.1,0.2-0.2,0.2c-0.1,0.1-0.2,0.2-0.2,0.4
							c-0.1,0.1-0.1,0.2-0.2,0.3c-0.1,0.1-0.2,0.2-0.2,0.4c-0.1,0.1-0.1,0.2-0.2,0.3c-0.1,0.1-0.2,0.3-0.2,0.4
							c-0.1,0.1-0.1,0.2-0.2,0.3c-0.1,0.1-0.2,0.3-0.3,0.4c-0.1,0.1-0.1,0.2-0.2,0.3c-0.1,0.1-0.2,0.3-0.3,0.5
							c0,0.1-0.1,0.2-0.1,0.2c-0.1,0.2-0.2,0.3-0.3,0.5c0,0.1-0.1,0.2-0.1,0.3c-0.1,0.2-0.2,0.3-0.3,0.5c0,0.1-0.1,0.2-0.1,0.3
							c-0.1,0.2-0.2,0.3-0.3,0.5c0,0.1-0.1,0.2-0.1,0.2c-0.1,0.2-0.2,0.3-0.3,0.5c0,0.1-0.1,0.2-0.1,0.2C10,13,9.9,13.2,9.8,13.4
							c0,0.1-0.1,0.2-0.1,0.3c-0.1,0.2-0.2,0.3-0.3,0.5c0,0.1-0.1,0.2-0.1,0.2c-0.1,0.2-0.2,0.3-0.3,0.5C9,15,8.9,15,8.9,15.1
							c-0.1,0.2-0.2,0.3-0.3,0.5c0,0.1-0.1,0.2-0.1,0.2c-0.1,0.2-0.2,0.3-0.2,0.5c0,0.1-0.1,0.2-0.1,0.2c-0.1,0.2-0.2,0.3-0.2,0.5
							c0,0.1-0.1,0.1-0.1,0.2c-0.1,0.2-0.1,0.3-0.2,0.5c0,0.1-0.1,0.1-0.1,0.2c-0.1,0.2-0.1,0.3-0.2,0.5c0,0.1-0.1,0.1-0.1,0.2
							c-0.1,0.2-0.1,0.3-0.2,0.4c0,0.1,0,0.1-0.1,0.2c-0.1,0.1-0.1,0.3-0.2,0.4c0,0.1,0,0.1-0.1,0.2c0,0.1-0.1,0.3-0.1,0.4
							c0,0.1,0,0.1,0,0.2c0,0.1-0.1,0.3-0.1,0.4c0,0.1,0,0.1,0,0.2c0,0.1-0.1,0.3-0.1,0.4c0,0,0,0,0,0h0c0,0.1-0.1,0.3-0.1,0.4
							c-0.1,0.5-0.6,2.8-0.8,8.5C5.4,33.5,5.7,39,6.4,44.5c-0.9,0.4-3.8,1.8-4.1,5.5c0,0.2,0,0.5,0,0.7c0,0,0,0,0,0.1c0,0,0,0,0,0
							c0.3,4.7,5.6,15.7,6.4,15.1c0,0,0,0,0,0c0,0,0,0,0,0c0,0,0.1-0.1,0.1-0.1c0.3-1.1,0.6-5.1,0.7-8c0.2,0.5,0.4,0.9,0.7,1.3
							c0,0,0.4,0.1,1,0.2c0,0,0,0.1-0.1,0.1c0,0,0,0.1-0.1,0.1C11,59.7,11,59.8,10.9,60c0,0,0,0,0,0c0,0.1-0.1,0.3-0.1,0.4h0
							c-0.1,0.3-0.2,0.6-0.3,0.9h0c0,0.1-0.1,0.3-0.1,0.4c0,0,0,0,0,0c-0.1,0.3-0.1,0.6-0.2,0.9h0c0,0,0,0,0,0c0,0.1,0,0.1,0,0.2
							c0,0.1,0,0.1,0,0.2c0,0,0,0,0,0C10,63.4,10,63.7,10,64c0,0,0,0,0,0c0,0.1,0,0.3,0,0.4v0c0,0.3,0,0.6-0.1,0.9c0,0,0,0,0,0
							c0,0,0,0,0,0c0,0,0,0.1,0,0.1c0,0.1,0,0.2,0,0.3c0,0,0,0,0,0c0,0.2,0,0.4,0,0.6c0,0,0,0,0.1,0c0,0,0,0,0,0c0,0,0.1,0,0.2,0.1
							c0,0,0,0,0,0c0.5,0.2,1.7,0.5,3.2,0.5c0,0,0,0,0,0c0.8,0,1.4-0.1,2-0.2c0,0,0,0,0,0c0.1,0,0.1,0,0.2,0c0.1,0,0.2,0,0.3-0.1
							c0,0,0.1,0,0.1,0c0.1,0,0.2-0.1,0.3-0.1c0,0,0.1,0,0.1,0c0.1,0,0.1,0,0.2-0.1c0,0,0,0,0.1,0c0.1,0,0.1,0,0.2-0.1c0,0,0,0,0,0
							c0,0,0,0,0,0c0-0.2,0-0.4,0-0.6c0,0,0,0,0,0c0-0.1,0-0.2,0-0.3c0,0,0-0.1,0-0.1c0,0,0,0,0,0h0c0-0.3,0-0.6-0.1-1h0
							c0-0.1,0-0.3,0-0.4c0,0,0,0,0,0c0-0.3-0.1-0.6-0.1-0.9c0,0,0,0,0,0c0-0.1,0-0.1,0-0.2c0-0.1,0-0.1,0-0.2c0,0,0,0,0-0.1
							c0,0,0,0,0,0c-0.1-0.3-0.1-0.6-0.2-0.9c0,0,0,0,0,0c0-0.1-0.1-0.3-0.1-0.4h0c-0.1-0.3-0.2-0.6-0.3-0.9h0
							c0-0.1-0.1-0.3-0.1-0.4c0,0,0,0,0,0c0-0.1-0.1-0.1-0.1-0.2c0.2,0,0.3,0,0.5,0c0.6,3.5,1.2,6.4,1.4,6.2
							c0.2,0.3,0.9-2.6,1.5-6.2c0.2,0,0.4,0,0.7,0c0,0.1-0.1,0.2-0.1,0.2c0,0,0,0,0,0c0,0.1-0.1,0.3-0.1,0.4h0
							c-0.1,0.3-0.2,0.6-0.3,0.9h0c0,0.1-0.1,0.3-0.1,0.4h0c-0.1,0.3-0.1,0.6-0.2,0.9h0c0,0,0,0,0,0c0,0.1,0,0.1,0,0.2
							c0,0.1,0,0.1,0,0.2c0,0,0,0,0,0c-0.1,0.3-0.1,0.6-0.1,0.9c0,0,0,0,0,0c0,0.1,0,0.3,0,0.4l0,0c0,0.3,0,0.6-0.1,0.9l0,0
							c0,0,0,0,0,0c0,0,0,0.1,0,0.1c0,0.1,0,0.2,0,0.3c0,0,0,0,0,0c0,0.2,0,0.4,0,0.6c0,0,0,0,0.1,0c0,0,0,0,0,0c0,0,0.1,0,0.2,0.1
							c0,0,0,0,0,0C19.6,66.7,20.7,67,22.3,67z"/>
					</g>
				</g>
				<g class="st2">
					<g>
						<defs>
							<rect id="SVGID_17_" x="2" y="2" width="31.1" height="64.7"/>
						</defs>
						<clipPath id="SVGID_18_">
							<use xlink:href="#SVGID_17_"  style="overflow:visible;"/>
						</clipPath>
						<path class="st8" d="M21.9,66.6L21.9,66.6c0.8,0,1.5-0.1,2-0.2c0,0,0,0,0,0c0.1,0,0.1,0,0.2,0c0.1,0,0.2,0,0.3-0.1
							c0,0,0.1,0,0.1,0c0.1,0,0.2-0.1,0.3-0.1c0,0,0.1,0,0.1,0c0.1,0,0.1,0,0.2-0.1c0,0,0,0,0.1,0c0.1,0,0.1,0,0.2-0.1c0,0,0,0,0,0
							c0,0,0,0,0,0c0-0.2,0-0.4,0-0.6c0,0,0,0,0,0c0-0.1,0-0.2,0-0.3c0,0,0-0.1,0-0.1c0,0,0,0,0,0c0,0,0,0,0,0c0-0.3,0-0.6-0.1-1h0
							c0-0.1,0-0.3,0-0.4c0,0,0,0,0,0c0-0.3-0.1-0.6-0.1-0.9c0,0,0,0,0,0c0-0.1,0-0.1,0-0.2c0-0.1,0-0.1,0-0.2c0,0,0,0,0-0.1
							c0,0,0,0,0,0c-0.1-0.3-0.1-0.6-0.2-0.9c0,0,0,0,0,0c0-0.1-0.1-0.3-0.1-0.4h0c-0.1-0.3-0.2-0.6-0.3-0.9c0,0,0,0,0,0
							c0-0.1-0.1-0.3-0.1-0.4c0,0,0,0,0,0c-0.1-0.1-0.1-0.3-0.2-0.4c0-0.1,0-0.1-0.1-0.2c0,0,0-0.1-0.1-0.1c0,0,0,0,0.1,0
							c0,0,0,0,0.1,0c0.1,0,0.2,0,0.2,0c0,0,0,0,0.1,0c0.1,0,0.1,0,0.2,0c0,0,0,0,0,0c0,0,0.1,0,0.1,0c0,0,0,0,0,0c0,0,0,0,0,0
							c0.3-0.5,0.6-1.1,0.9-1.8c0.2,2.9,0.5,7.3,0.8,8.5c0,0.1,0,0.1,0.1,0.1c0,0,0,0,0,0c0,0,0.1,0,0.1,0c0,0,0,0,0,0c0,0,0,0,0,0
							c1.1-0.3,5.9-10.5,6.3-15.1c0,0,0,0,0,0c0,0,0,0,0,0c0-0.3,0-0.5,0-0.8c-0.3-4.1-3.9-5.5-4.3-5.6c0.7-5.5,1-10.9,0.9-14.1
							c-0.2-5.7-0.7-8-0.8-8.5c0-0.1,0-0.3-0.1-0.4c0,0,0,0,0,0c0,0,0,0,0,0c0-0.1,0-0.2-0.1-0.3c0-0.1,0-0.1,0-0.2
							c0-0.1-0.1-0.2-0.1-0.3c0-0.1,0-0.1-0.1-0.2c0-0.1-0.1-0.2-0.1-0.4c0-0.1-0.1-0.2-0.1-0.2c0-0.1-0.1-0.3-0.1-0.4
							c0-0.1-0.1-0.2-0.1-0.2c-0.1-0.1-0.1-0.3-0.2-0.4c0-0.1-0.1-0.2-0.1-0.3c-0.1-0.1-0.1-0.3-0.2-0.4c0-0.1-0.1-0.2-0.1-0.3
							c-0.1-0.1-0.1-0.3-0.2-0.4c0-0.1-0.1-0.2-0.1-0.3c-0.1-0.1-0.1-0.3-0.2-0.4c0-0.1-0.1-0.2-0.1-0.3c-0.1-0.1-0.1-0.3-0.2-0.4
							c0-0.1-0.1-0.2-0.1-0.3c-0.1-0.2-0.2-0.3-0.2-0.5c0-0.1-0.1-0.2-0.1-0.3c-0.1-0.2-0.2-0.3-0.2-0.5c-0.1-0.1-0.1-0.2-0.2-0.3
							c-0.1-0.2-0.2-0.3-0.2-0.5c-0.1-0.1-0.1-0.2-0.2-0.3c-0.1-0.2-0.2-0.3-0.3-0.5c-0.1-0.1-0.1-0.2-0.2-0.3
							c-0.1-0.2-0.2-0.3-0.3-0.5c-0.1-0.1-0.1-0.2-0.2-0.3c-0.1-0.1-0.2-0.3-0.3-0.4c-0.1-0.1-0.1-0.2-0.2-0.3
							c-0.1-0.1-0.2-0.3-0.3-0.4c-0.1-0.1-0.1-0.2-0.2-0.3c-0.1-0.1-0.2-0.3-0.2-0.4c-0.1-0.1-0.1-0.2-0.2-0.3C23.1,9.1,23,9,23,8.9
							c-0.1-0.1-0.1-0.2-0.2-0.3c-0.1-0.1-0.2-0.3-0.2-0.4c-0.1-0.1-0.1-0.2-0.2-0.3c-0.1-0.1-0.2-0.3-0.2-0.4
							C22.1,7.4,22,7.3,22,7.2c-0.1-0.1-0.1-0.2-0.2-0.3c-0.1-0.1-0.1-0.2-0.2-0.3c-0.1-0.1-0.1-0.2-0.2-0.3
							c-0.1-0.1-0.1-0.2-0.2-0.3c-0.1-0.1-0.1-0.2-0.2-0.3c-0.1-0.1-0.1-0.2-0.2-0.2c-0.1-0.1-0.1-0.2-0.2-0.3
							c-0.1-0.1-0.1-0.2-0.2-0.3c-0.1-0.1-0.1-0.2-0.2-0.2c-0.1-0.1-0.1-0.2-0.2-0.2c0-0.1-0.1-0.1-0.1-0.2c0-0.1-0.1-0.1-0.1-0.2
							c0-0.1-0.1-0.1-0.1-0.2c0-0.1-0.1-0.1-0.1-0.2c0-0.1-0.1-0.1-0.1-0.2c0-0.1-0.1-0.1-0.1-0.2c0,0-0.1-0.1-0.1-0.1
							c0-0.1-0.1-0.1-0.1-0.1c0,0,0-0.1-0.1-0.1c0-0.1-0.1-0.1-0.1-0.1c0,0,0,0,0,0c0,0-0.1-0.1-0.1-0.1C18.3,2,17.7,2,17.4,2
							c0,0,0,0-0.1,0v0c-0.3,0-0.9,0.1-1.4,0.7c0,0-0.1,0.1-0.1,0.1c0,0,0,0,0,0.1c0,0-0.1,0.1-0.1,0.1c0,0,0,0.1-0.1,0.1
							c0,0-0.1,0.1-0.1,0.2c0,0-0.1,0.1-0.1,0.1c0,0.1-0.1,0.1-0.1,0.2c0,0.1-0.1,0.1-0.1,0.2c0,0.1-0.1,0.1-0.1,0.2
							C15,3.9,15,3.9,14.9,4c0,0.1-0.1,0.1-0.1,0.2c-0.1,0.1-0.1,0.2-0.2,0.2c0,0.1-0.1,0.1-0.1,0.2c-0.1,0.1-0.1,0.2-0.2,0.3
							c0,0.1-0.1,0.1-0.1,0.2c-0.1,0.1-0.1,0.2-0.2,0.3c-0.1,0.1-0.1,0.2-0.2,0.2c-0.1,0.1-0.1,0.2-0.2,0.3
							c-0.1,0.1-0.1,0.2-0.2,0.2c-0.1,0.1-0.2,0.2-0.2,0.4c-0.1,0.1-0.1,0.2-0.2,0.3C13,7,12.9,7.1,12.9,7.2
							c-0.1,0.1-0.1,0.2-0.2,0.3c-0.1,0.1-0.2,0.3-0.2,0.4c-0.1,0.1-0.1,0.2-0.2,0.3c-0.1,0.1-0.2,0.3-0.3,0.4
							c-0.1,0.1-0.1,0.2-0.2,0.3c-0.1,0.1-0.2,0.3-0.3,0.5c0,0.1-0.1,0.2-0.1,0.2c-0.1,0.2-0.2,0.3-0.3,0.5
							c-0.1,0.1-0.1,0.2-0.1,0.3c-0.1,0.2-0.2,0.3-0.3,0.5c0,0.1-0.1,0.2-0.1,0.3c-0.1,0.2-0.2,0.3-0.3,0.5c0,0.1-0.1,0.2-0.1,0.2
							c-0.1,0.2-0.2,0.3-0.3,0.5c0,0.1-0.1,0.2-0.1,0.2c-0.1,0.2-0.2,0.3-0.3,0.5c0,0.1-0.1,0.2-0.1,0.3c-0.1,0.2-0.2,0.3-0.3,0.5
							C9,13.9,9,13.9,9,14c-0.1,0.2-0.2,0.3-0.3,0.5c0,0.1-0.1,0.2-0.1,0.2c-0.1,0.2-0.2,0.3-0.3,0.5c0,0.1-0.1,0.2-0.1,0.2
							C8.1,15.7,8,15.9,8,16c0,0.1-0.1,0.2-0.1,0.2c-0.1,0.2-0.2,0.3-0.2,0.5c0,0.1-0.1,0.2-0.1,0.2c-0.1,0.2-0.1,0.3-0.2,0.5
							c0,0.1-0.1,0.1-0.1,0.2C7.1,17.8,7.1,18,7,18.1c0,0.1-0.1,0.1-0.1,0.2c-0.1,0.2-0.1,0.3-0.2,0.4c0,0.1,0,0.1-0.1,0.2
							c-0.1,0.1-0.1,0.3-0.2,0.4c0,0.1,0,0.1-0.1,0.2c0,0.1-0.1,0.3-0.1,0.4c0,0.1,0,0.1,0,0.2c0,0.1-0.1,0.3-0.1,0.4
							c0,0.1,0,0.1,0,0.2C6.1,20.9,6,21,6,21.1c0,0,0,0,0,0c0,0,0,0,0,0c0,0.1-0.1,0.3-0.1,0.4C5.8,22,5.3,24.3,5.1,30
							C5,33.2,5.3,38.7,6.1,44.2C5.2,44.6,2.2,46,2,49.7c0,0.2,0,0.5,0,0.7c0,0,0,0,0,0.1c0,0,0,0,0,0c0.3,4.7,5.6,15.7,6.4,15.1
							c0,0,0,0,0,0c0,0,0,0,0,0c0,0,0.1-0.1,0.1-0.1c0.3-1.1,0.6-5.1,0.7-8c0.2,0.5,0.4,0.9,0.7,1.3c0,0,0.4,0.1,1,0.2
							c0,0,0,0.1-0.1,0.1c0,0,0,0.1-0.1,0.1c-0.1,0.1-0.1,0.3-0.2,0.4c0,0,0,0,0,0c0,0.1-0.1,0.3-0.1,0.4c0,0,0,0,0,0
							c-0.1,0.3-0.2,0.6-0.3,0.9h0c0,0.1-0.1,0.3-0.1,0.4c0,0,0,0,0,0C10,61.7,9.9,62,9.8,62.3l0,0c0,0,0,0,0,0c0,0.1,0,0.1,0,0.2
							c0,0.1,0,0.1,0,0.2c0,0,0,0,0,0c-0.1,0.3-0.1,0.6-0.1,0.9c0,0,0,0,0,0c0,0.1,0,0.3,0,0.4c0,0.3,0,0.6-0.1,0.9c0,0,0,0,0,0
							c0,0,0,0.1,0,0.1c0,0.1,0,0.2,0,0.3c0,0,0,0,0,0c0,0.2,0,0.4,0,0.6c0,0,0,0,0.1,0c0,0,0,0,0,0c0,0,0.1,0,0.2,0.1l0,0
							c0.5,0.2,1.7,0.5,3.2,0.5v0h0c0.8,0,1.4-0.1,2-0.2c0,0,0,0,0,0c0.1,0,0.1,0,0.2,0c0.1,0,0.2,0,0.3-0.1c0,0,0.1,0,0.1,0
							c0.1,0,0.2-0.1,0.3-0.1c0,0,0.1,0,0.1,0c0.1,0,0.1,0,0.2-0.1c0,0,0,0,0.1,0c0.1,0,0.1,0,0.2-0.1c0,0,0,0,0,0c0,0,0,0,0,0
							c0-0.2,0-0.4,0-0.6c0,0,0,0,0,0c0-0.1,0-0.2,0-0.3c0,0,0-0.1,0-0.1c0,0,0,0,0,0h0c0-0.3,0-0.6-0.1-1c0,0,0,0,0,0
							c0-0.1,0-0.3,0-0.4c0,0,0,0,0,0c0-0.3-0.1-0.6-0.1-0.9c0,0,0,0,0,0c0-0.1,0-0.1,0-0.2c0-0.1,0-0.1,0-0.2c0,0,0,0,0-0.1
							c0,0,0,0,0,0c-0.1-0.3-0.1-0.6-0.2-0.9c0,0,0,0,0,0c0-0.1-0.1-0.3-0.1-0.4h0c-0.1-0.3-0.2-0.6-0.3-0.9c0,0,0,0,0,0
							c0-0.1-0.1-0.3-0.1-0.4c0,0,0,0,0,0c0-0.1-0.1-0.1-0.1-0.2c0.2,0,0.3,0,0.5,0c0.6,3.5,1.2,6.4,1.4,6.2
							c0.2,0.3,0.9-2.6,1.5-6.2c0.2,0,0.4,0,0.7,0c0,0.1-0.1,0.2-0.1,0.2c0,0,0,0,0,0c0,0.1-0.1,0.3-0.1,0.4c0,0,0,0,0,0
							c-0.1,0.3-0.2,0.6-0.3,0.9h0c0,0.1-0.1,0.3-0.1,0.4c0,0,0,0,0,0c-0.1,0.3-0.1,0.6-0.2,0.9c0,0,0,0,0,0c0,0,0,0,0,0
							c0,0.1,0,0.1,0,0.2c0,0.1,0,0.1,0,0.2c0,0,0,0,0,0c0,0.3-0.1,0.6-0.1,0.9c0,0,0,0,0,0c0,0.1,0,0.3,0,0.4h0
							c0,0.3,0,0.6-0.1,0.9h0c0,0,0,0,0,0c0,0,0,0.1,0,0.1c0,0.1,0,0.2,0,0.3l0,0c0,0.2,0,0.4,0,0.6c0,0,0,0,0.1,0c0,0,0,0,0,0
							c0,0,0.1,0,0.2,0.1c0,0,0,0,0,0C19.2,66.3,20.4,66.7,21.9,66.6L21.9,66.6z"/>
					</g>
				</g>
				<g class="st2">
					<g>
						<defs>
							<rect id="SVGID_19_" x="1.6" y="1.6" width="31.1" height="64.7"/>
						</defs>
						<clipPath id="SVGID_20_">
							<use xlink:href="#SVGID_19_"  style="overflow:visible;"/>
						</clipPath>
						<path class="st9" d="M21.6,66.3C21.6,66.3,21.6,66.3,21.6,66.3c0.8,0,1.5-0.1,2-0.2c0,0,0,0,0,0c0.1,0,0.1,0,0.2,0
							c0.1,0,0.2,0,0.3-0.1c0,0,0.1,0,0.1,0c0.1,0,0.2-0.1,0.3-0.1c0,0,0.1,0,0.1,0c0.1,0,0.1,0,0.2-0.1c0,0,0,0,0.1,0
							c0.1,0,0.1,0,0.2-0.1c0,0,0,0,0,0c0,0,0,0,0,0c0-0.2,0-0.4,0-0.6c0,0,0,0,0,0c0-0.1,0-0.2,0-0.3c0,0,0-0.1,0-0.1c0,0,0,0,0,0
							c0,0,0,0,0,0c0-0.3,0-0.6-0.1-1h0c0-0.1,0-0.3,0-0.4c0,0,0,0,0,0c0-0.3-0.1-0.6-0.1-0.9c0,0,0,0,0,0c0-0.1,0-0.1,0-0.2
							c0-0.1,0-0.1,0-0.2c0,0,0,0,0-0.1h0c-0.1-0.3-0.1-0.6-0.2-0.9c0,0,0,0,0,0c0-0.1-0.1-0.3-0.1-0.4h0c-0.1-0.3-0.2-0.6-0.3-0.9
							c0,0,0,0,0,0c0-0.1-0.1-0.3-0.1-0.4c0,0,0,0,0,0C24.1,59.1,24,59,24,58.9c0-0.1,0-0.1-0.1-0.2c0,0,0-0.1-0.1-0.1
							c0,0,0,0,0.1,0c0,0,0,0,0.1,0c0.1,0,0.2,0,0.2,0c0,0,0,0,0.1,0c0.1,0,0.1,0,0.2,0c0,0,0,0,0,0c0,0,0.1,0,0.1,0c0,0,0,0,0,0
							c0,0,0,0,0,0c0.3-0.5,0.6-1.1,0.9-1.8c0.2,2.9,0.5,7.3,0.8,8.4c0,0.1,0,0.1,0.1,0.1c0,0,0,0,0,0c0,0,0.1,0,0.1,0c0,0,0,0,0,0
							c0,0,0,0,0,0c1.1-0.3,5.9-10.5,6.3-15.1c0,0,0,0,0,0c0,0,0,0,0,0c0-0.3,0-0.5,0-0.8c-0.3-4.1-3.9-5.5-4.3-5.6
							c0.7-5.5,1-10.9,0.9-14.1c-0.2-5.7-0.7-8-0.8-8.5c0-0.1,0-0.3-0.1-0.4h0c0,0,0,0,0,0c0-0.1,0-0.2-0.1-0.3c0-0.1,0-0.1,0-0.2
							c0-0.1-0.1-0.2-0.1-0.3c0-0.1,0-0.1-0.1-0.2c0-0.1-0.1-0.2-0.1-0.4c0-0.1-0.1-0.2-0.1-0.2c0-0.1-0.1-0.3-0.1-0.4
							c0-0.1-0.1-0.2-0.1-0.2c-0.1-0.1-0.1-0.3-0.2-0.4c0-0.1-0.1-0.2-0.1-0.3c-0.1-0.1-0.1-0.3-0.2-0.4c0-0.1-0.1-0.2-0.1-0.3
							c-0.1-0.1-0.1-0.3-0.2-0.4c0-0.1-0.1-0.2-0.1-0.3c-0.1-0.1-0.1-0.3-0.2-0.4c0-0.1-0.1-0.2-0.1-0.3c-0.1-0.1-0.1-0.3-0.2-0.4
							c0-0.1-0.1-0.2-0.1-0.3c-0.1-0.2-0.2-0.3-0.2-0.5c0-0.1-0.1-0.2-0.1-0.3c-0.1-0.2-0.2-0.3-0.2-0.5c-0.1-0.1-0.1-0.2-0.2-0.3
							c-0.1-0.2-0.2-0.3-0.2-0.5c-0.1-0.1-0.1-0.2-0.2-0.3c-0.1-0.2-0.2-0.3-0.3-0.5c-0.1-0.1-0.1-0.2-0.2-0.3
							c-0.1-0.2-0.2-0.3-0.3-0.5c-0.1-0.1-0.1-0.2-0.2-0.3c-0.1-0.1-0.2-0.3-0.3-0.4c-0.1-0.1-0.1-0.2-0.2-0.3
							c-0.1-0.1-0.2-0.3-0.3-0.4c-0.1-0.1-0.1-0.2-0.2-0.3c-0.1-0.1-0.2-0.3-0.2-0.4C23,9.2,22.9,9,22.9,8.9
							c-0.1-0.1-0.2-0.3-0.2-0.4c-0.1-0.1-0.1-0.2-0.2-0.3c-0.1-0.1-0.2-0.3-0.2-0.4c-0.1-0.1-0.1-0.2-0.2-0.3
							c-0.1-0.1-0.2-0.3-0.2-0.4c-0.1-0.1-0.1-0.2-0.2-0.3c-0.1-0.1-0.1-0.2-0.2-0.3c-0.1-0.1-0.1-0.2-0.2-0.3
							C21.2,6.2,21.1,6,21,5.9c-0.1-0.1-0.1-0.2-0.2-0.3c-0.1-0.1-0.1-0.2-0.2-0.3c-0.1-0.1-0.1-0.2-0.2-0.2
							c-0.1-0.1-0.1-0.2-0.2-0.3c-0.1-0.1-0.1-0.2-0.2-0.3c-0.1-0.1-0.1-0.2-0.2-0.2c-0.1-0.1-0.1-0.2-0.2-0.2
							c0-0.1-0.1-0.1-0.1-0.2c0-0.1-0.1-0.1-0.1-0.2c0-0.1-0.1-0.1-0.1-0.2c0-0.1-0.1-0.1-0.1-0.2c0-0.1-0.1-0.1-0.1-0.2
							c0-0.1-0.1-0.1-0.1-0.2c0,0-0.1-0.1-0.1-0.1c0-0.1-0.1-0.1-0.1-0.1c0,0,0-0.1-0.1-0.1c0-0.1-0.1-0.1-0.1-0.1c0,0,0,0,0,0
							c0,0-0.1-0.1-0.1-0.1c-0.6-0.6-1.2-0.7-1.5-0.7c0,0,0,0-0.1,0v0c-0.3,0-0.9,0.1-1.4,0.7c0,0-0.1,0.1-0.1,0.1c0,0,0,0,0,0.1
							c0,0-0.1,0.1-0.1,0.1c0,0,0,0.1-0.1,0.1c0,0-0.1,0.1-0.1,0.2c0,0-0.1,0.1-0.1,0.1C15.1,3,15,3.1,15,3.1c0,0.1-0.1,0.1-0.1,0.2
							c0,0.1-0.1,0.1-0.1,0.2c0,0.1-0.1,0.1-0.1,0.2c0,0.1-0.1,0.1-0.1,0.2c-0.1,0.1-0.1,0.2-0.2,0.2c0,0.1-0.1,0.1-0.1,0.2
							c-0.1,0.1-0.1,0.2-0.2,0.3c0,0.1-0.1,0.1-0.1,0.2c-0.1,0.1-0.1,0.2-0.2,0.3c-0.1,0.1-0.1,0.2-0.2,0.2
							c-0.1,0.1-0.1,0.2-0.2,0.3c-0.1,0.1-0.1,0.2-0.2,0.2C13.1,6,13,6.2,12.9,6.3c-0.1,0.1-0.1,0.2-0.2,0.3
							c-0.1,0.1-0.2,0.2-0.2,0.4c-0.1,0.1-0.1,0.2-0.2,0.3c-0.1,0.1-0.2,0.3-0.2,0.4C12.1,7.7,12,7.7,12,7.8
							c-0.1,0.1-0.2,0.3-0.3,0.4c-0.1,0.1-0.1,0.2-0.2,0.3c-0.1,0.1-0.2,0.3-0.3,0.5c0,0.1-0.1,0.2-0.1,0.2
							c-0.1,0.2-0.2,0.3-0.3,0.5c-0.1,0.1-0.1,0.2-0.1,0.3c-0.1,0.2-0.2,0.3-0.3,0.5c0,0.1-0.1,0.2-0.1,0.3
							c-0.1,0.2-0.2,0.3-0.3,0.5c0,0.1-0.1,0.2-0.1,0.2c-0.1,0.2-0.2,0.3-0.3,0.5c0,0.1-0.1,0.2-0.1,0.2c-0.1,0.2-0.2,0.3-0.3,0.5
							c0,0.1-0.1,0.2-0.1,0.3c-0.1,0.2-0.2,0.3-0.3,0.5c0,0.1-0.1,0.2-0.1,0.2c-0.1,0.2-0.2,0.3-0.3,0.5c0,0.1-0.1,0.2-0.1,0.2
							C8.2,14.6,8.1,14.8,8,15c0,0.1-0.1,0.2-0.1,0.2c-0.1,0.2-0.2,0.3-0.2,0.5c0,0.1-0.1,0.2-0.1,0.2c-0.1,0.2-0.2,0.3-0.2,0.5
							c0,0.1-0.1,0.2-0.1,0.2C7.1,16.8,7,17,7,17.1c0,0.1-0.1,0.1-0.1,0.2c-0.1,0.2-0.1,0.3-0.2,0.5c0,0.1-0.1,0.1-0.1,0.2
							c-0.1,0.2-0.1,0.3-0.2,0.4c0,0.1,0,0.1-0.1,0.2c-0.1,0.1-0.1,0.3-0.2,0.4c0,0.1,0,0.1-0.1,0.2c0,0.1-0.1,0.3-0.1,0.4
							c0,0.1,0,0.1,0,0.2c0,0.1-0.1,0.3-0.1,0.4c0,0.1,0,0.1,0,0.2c0,0.1-0.1,0.3-0.1,0.4c0,0,0,0,0,0c0,0,0,0,0,0
							c0,0.1-0.1,0.3-0.1,0.4C5.5,21.7,5,24,4.8,29.7C4.7,32.9,5,38.4,5.7,43.9c-0.9,0.4-3.8,1.8-4.1,5.5c0,0.2,0,0.5,0,0.7
							c0,0,0,0,0,0c0,0,0,0,0,0C2,54.8,7.2,65.9,8,65.2c0,0,0,0,0,0c0,0,0,0,0,0c0,0,0.1-0.1,0.1-0.1c0.3-1.1,0.6-5.1,0.7-8
							c0.2,0.5,0.4,0.9,0.7,1.3c0,0,0.4,0.1,1,0.2c0,0,0,0.1-0.1,0.1c0,0,0,0.1-0.1,0.1c-0.1,0.1-0.1,0.3-0.2,0.4c0,0,0,0,0,0
							c0,0.1-0.1,0.3-0.1,0.4h0C10,60,9.9,60.3,9.8,60.7h0c0,0.1-0.1,0.3-0.1,0.4h0c-0.1,0.3-0.1,0.6-0.2,0.9h0c0,0,0,0,0,0
							c0,0.1,0,0.1,0,0.2c0,0.1,0,0.1,0,0.2c0,0,0,0,0,0c-0.1,0.3-0.1,0.6-0.1,0.9c0,0,0,0,0,0c0,0.1,0,0.3,0,0.4
							c0,0.3,0,0.6-0.1,0.9h0v0c0,0,0,0.1,0,0.1c0,0.1,0,0.2,0,0.3c0,0,0,0,0,0c0,0.2,0,0.4,0,0.6c0,0,0,0,0.1,0c0,0,0,0,0,0
							c0,0,0.1,0,0.2,0.1c0,0,0,0,0,0c0.5,0.2,1.7,0.5,3.2,0.5v0c0,0,0,0,0,0c0.8,0,1.4-0.1,2-0.2c0,0,0,0,0,0c0.1,0,0.1,0,0.2,0
							c0.1,0,0.2,0,0.3-0.1c0,0,0.1,0,0.1,0c0.1,0,0.2-0.1,0.3-0.1c0,0,0.1,0,0.1,0c0.1,0,0.1,0,0.2-0.1c0,0,0,0,0.1,0
							c0.1,0,0.1,0,0.2-0.1c0,0,0,0,0,0c0,0,0,0,0,0c0-0.2,0-0.4,0-0.6c0,0,0,0,0,0c0-0.1,0-0.2,0-0.3c0,0,0-0.1,0-0.1c0,0,0,0,0,0
							h0c0-0.3,0-0.6-0.1-1h0c0-0.1,0-0.3,0-0.4c0,0,0,0,0,0c0-0.3-0.1-0.6-0.1-0.9c0,0,0,0,0,0c0-0.1,0-0.1,0-0.2
							c0-0.1,0-0.1,0-0.2c0,0,0,0,0-0.1h0c-0.1-0.3-0.1-0.6-0.2-0.9c0,0,0,0,0,0c0-0.1-0.1-0.3-0.1-0.4h0c-0.1-0.3-0.2-0.6-0.3-0.9
							c0,0,0,0,0,0c0-0.1-0.1-0.3-0.1-0.4c0,0,0,0,0,0c0-0.1-0.1-0.1-0.1-0.2c0.2,0,0.3,0,0.5,0c0.6,3.5,1.2,6.4,1.4,6.2
							c0.2,0.3,0.9-2.6,1.5-6.2c0.2,0,0.4,0,0.7,0c0,0.1-0.1,0.2-0.1,0.2c0,0,0,0,0,0c0,0.1-0.1,0.3-0.1,0.4h0
							c-0.1,0.3-0.2,0.6-0.3,0.9h0c0,0.1-0.1,0.3-0.1,0.4c0,0,0,0,0,0c-0.1,0.3-0.1,0.6-0.2,0.9h0c0,0,0,0,0,0c0,0.1,0,0.1,0,0.2
							c0,0.1,0,0.1,0,0.2c0,0,0,0,0,0c-0.1,0.3-0.1,0.6-0.1,0.9c0,0,0,0,0,0c0,0.1,0,0.3,0,0.4h0c0,0.3,0,0.6-0.1,0.9h0v0
							c0,0,0,0.1,0,0.1c0,0.1,0,0.2,0,0.3c0,0,0,0,0,0c0,0.2,0,0.4,0,0.6c0,0,0,0,0.1,0c0,0,0,0,0,0c0,0,0.1,0,0.2,0.1c0,0,0,0,0,0
							C18.9,66,20.1,66.3,21.6,66.3L21.6,66.3z"/>
					</g>
				</g>
				<g class="st2">
					<g>
						<defs>
							<rect id="SVGID_21_" x="1.3" y="1.3" width="31.1" height="64.7"/>
						</defs>
						<clipPath id="SVGID_22_">
							<use xlink:href="#SVGID_21_"  style="overflow:visible;"/>
						</clipPath>
						<path class="st10" d="M21.3,66C21.3,66,21.3,66,21.3,66c0.8,0,1.5-0.1,2-0.2c0,0,0,0,0,0c0.1,0,0.1,0,0.2,0
							c0.1,0,0.2,0,0.3-0.1c0,0,0.1,0,0.1,0c0.1,0,0.2-0.1,0.3-0.1c0,0,0.1,0,0.1,0c0.1,0,0.1,0,0.2-0.1c0,0,0,0,0.1,0
							c0.1,0,0.1,0,0.2-0.1c0,0,0,0,0,0c0,0,0,0,0,0c0-0.2,0-0.4,0-0.6c0,0,0,0,0,0c0-0.1,0-0.2,0-0.3c0,0,0-0.1,0-0.1c0,0,0,0,0,0
							h0c0-0.3,0-0.6-0.1-1h0c0-0.1,0-0.3,0-0.4c0,0,0,0,0,0c0-0.3-0.1-0.6-0.1-0.9c0,0,0,0,0,0c0-0.1,0-0.1,0-0.2
							c0-0.1,0-0.1,0-0.2c0,0,0,0,0-0.1l0,0c-0.1-0.3-0.1-0.6-0.2-0.9c0,0,0,0,0,0c0-0.1-0.1-0.3-0.1-0.4c-0.1-0.3-0.2-0.6-0.3-0.9
							l0,0c0-0.1-0.1-0.3-0.1-0.4c0,0,0,0,0,0c-0.1-0.1-0.1-0.3-0.2-0.4c0-0.1,0-0.1-0.1-0.2c0,0,0-0.1-0.1-0.1c0,0,0,0,0.1,0
							c0,0,0,0,0.1,0c0.1,0,0.2,0,0.2,0c0,0,0,0,0.1,0c0.1,0,0.1,0,0.2,0c0,0,0,0,0,0c0,0,0.1,0,0.1,0c0,0,0,0,0,0c0,0,0,0,0,0
							c0.3-0.5,0.6-1.1,0.9-1.8c0.2,2.9,0.5,7.3,0.8,8.4c0,0.1,0,0.1,0.1,0.1c0,0,0,0,0,0c0,0,0.1,0,0.1,0c0,0,0,0,0,0c0,0,0,0,0,0
							c1.1-0.3,5.9-10.5,6.3-15.1c0,0,0,0,0,0c0,0,0,0,0,0c0-0.3,0-0.5,0-0.8c-0.3-4.1-3.9-5.5-4.3-5.6c0.7-5.5,1-10.9,0.9-14.1
							c-0.2-5.7-0.7-8-0.8-8.5c0-0.1,0-0.3-0.1-0.4c0,0,0,0,0,0c0,0,0,0,0,0c0-0.1,0-0.2-0.1-0.3c0-0.1,0-0.1,0-0.2
							c0-0.1-0.1-0.2-0.1-0.3c0-0.1,0-0.1-0.1-0.2c0-0.1-0.1-0.2-0.1-0.4c0-0.1-0.1-0.2-0.1-0.2c0-0.1-0.1-0.3-0.1-0.4
							c0-0.1-0.1-0.2-0.1-0.2c-0.1-0.1-0.1-0.3-0.2-0.4c0-0.1-0.1-0.2-0.1-0.3c-0.1-0.1-0.1-0.3-0.2-0.4c0-0.1-0.1-0.2-0.1-0.3
							c-0.1-0.1-0.1-0.3-0.2-0.4c0-0.1-0.1-0.2-0.1-0.3c-0.1-0.1-0.1-0.3-0.2-0.4c0-0.1-0.1-0.2-0.1-0.3c-0.1-0.1-0.1-0.3-0.2-0.4
							c0-0.1-0.1-0.2-0.1-0.3c-0.1-0.2-0.2-0.3-0.2-0.5c0-0.1-0.1-0.2-0.1-0.3c-0.1-0.2-0.2-0.3-0.2-0.5c-0.1-0.1-0.1-0.2-0.2-0.3
							c-0.1-0.2-0.2-0.3-0.2-0.5c-0.1-0.1-0.1-0.2-0.2-0.3c-0.1-0.2-0.2-0.3-0.3-0.5c-0.1-0.1-0.1-0.2-0.2-0.3
							c-0.1-0.2-0.2-0.3-0.3-0.5c-0.1-0.1-0.1-0.2-0.2-0.3c-0.1-0.1-0.2-0.3-0.3-0.4c-0.1-0.1-0.1-0.2-0.2-0.3
							c-0.1-0.1-0.2-0.3-0.3-0.4C23.1,9.5,23,9.4,23,9.3c-0.1-0.1-0.2-0.3-0.2-0.4c-0.1-0.1-0.1-0.2-0.2-0.3
							c-0.1-0.1-0.2-0.3-0.2-0.4c-0.1-0.1-0.1-0.2-0.2-0.3c-0.1-0.1-0.2-0.3-0.2-0.4c-0.1-0.1-0.1-0.2-0.2-0.3
							c-0.1-0.1-0.2-0.3-0.2-0.4c-0.1-0.1-0.1-0.2-0.2-0.3c-0.1-0.1-0.1-0.2-0.2-0.3C21,6.1,21,6,20.9,5.9c-0.1-0.1-0.1-0.2-0.2-0.3
							c-0.1-0.1-0.1-0.2-0.2-0.3c-0.1-0.1-0.1-0.2-0.2-0.3c-0.1-0.1-0.1-0.2-0.2-0.2c-0.1-0.1-0.1-0.2-0.2-0.3
							c-0.1-0.1-0.1-0.2-0.2-0.3c-0.1-0.1-0.1-0.2-0.2-0.2c-0.1-0.1-0.1-0.2-0.2-0.2c0-0.1-0.1-0.1-0.1-0.2c0-0.1-0.1-0.1-0.1-0.2
							c0-0.1-0.1-0.1-0.1-0.2C19.1,3.1,19,3,19,3c0-0.1-0.1-0.1-0.1-0.2c0-0.1-0.1-0.1-0.1-0.2c0,0-0.1-0.1-0.1-0.1
							c0-0.1-0.1-0.1-0.1-0.1c0,0-0.1-0.1-0.1-0.1c0-0.1-0.1-0.1-0.1-0.1c0,0,0,0,0,0c0,0-0.1-0.1-0.1-0.1c-0.6-0.6-1.2-0.7-1.5-0.7
							c0,0,0,0-0.1,0c0,0,0,0,0,0c-0.3,0-0.9,0.1-1.4,0.7c0,0-0.1,0.1-0.1,0.1c0,0,0,0,0,0.1c0,0-0.1,0.1-0.1,0.1c0,0,0,0.1-0.1,0.1
							c0,0-0.1,0.1-0.1,0.2c0,0-0.1,0.1-0.1,0.1c0,0.1-0.1,0.1-0.1,0.2c0,0.1-0.1,0.1-0.1,0.2c0,0.1-0.1,0.1-0.1,0.2
							c0,0.1-0.1,0.1-0.1,0.2c0,0.1-0.1,0.1-0.1,0.2C14.1,3.6,14,3.7,14,3.8c0,0.1-0.1,0.1-0.1,0.2c-0.1,0.1-0.1,0.2-0.2,0.3
							c0,0.1-0.1,0.1-0.1,0.2c-0.1,0.1-0.1,0.2-0.2,0.3c-0.1,0.1-0.1,0.2-0.2,0.2C13.1,5.1,13,5.2,13,5.4c-0.1,0.1-0.1,0.2-0.2,0.2
							c-0.1,0.1-0.1,0.2-0.2,0.4c-0.1,0.1-0.1,0.2-0.2,0.3c-0.1,0.1-0.2,0.2-0.2,0.4c-0.1,0.1-0.1,0.2-0.2,0.3
							C12,7,11.9,7.1,11.8,7.2c-0.1,0.1-0.1,0.2-0.2,0.3c-0.1,0.1-0.2,0.3-0.3,0.4c-0.1,0.1-0.1,0.2-0.2,0.3C11.1,8.3,11,8.5,11,8.7
							c0,0.1-0.1,0.2-0.1,0.2c-0.1,0.2-0.2,0.3-0.3,0.5c-0.1,0.1-0.1,0.2-0.1,0.3c-0.1,0.2-0.2,0.3-0.3,0.5c0,0.1-0.1,0.2-0.1,0.3
							c-0.1,0.2-0.2,0.3-0.3,0.5c0,0.1-0.1,0.2-0.1,0.2c-0.1,0.2-0.2,0.3-0.3,0.5c0,0.1-0.1,0.2-0.1,0.2C9,12,8.9,12.2,8.8,12.4
							c0,0.1-0.1,0.2-0.1,0.3c-0.1,0.2-0.2,0.3-0.3,0.5c0,0.1-0.1,0.2-0.1,0.2c-0.1,0.2-0.2,0.3-0.3,0.5C8,14,8,14,7.9,14.1
							c-0.1,0.2-0.2,0.3-0.3,0.5c0,0.1-0.1,0.2-0.1,0.2c-0.1,0.2-0.2,0.3-0.2,0.5c0,0.1-0.1,0.2-0.1,0.2C7.1,15.8,7,15.9,7,16.1
							c0,0.1-0.1,0.1-0.1,0.2c-0.1,0.2-0.1,0.3-0.2,0.5c0,0.1-0.1,0.1-0.1,0.2c-0.1,0.2-0.1,0.3-0.2,0.5c0,0.1-0.1,0.1-0.1,0.2
							c-0.1,0.2-0.1,0.3-0.2,0.4c0,0.1,0,0.1-0.1,0.2c-0.1,0.1-0.1,0.3-0.2,0.4c0,0.1,0,0.1-0.1,0.2c0,0.1-0.1,0.3-0.1,0.4
							c0,0.1,0,0.1,0,0.2c0,0.1-0.1,0.3-0.1,0.4c0,0.1,0,0.1,0,0.2c0,0.1-0.1,0.3-0.1,0.4c0,0,0,0,0,0c0,0.1-0.1,0.3-0.1,0.4
							c-0.1,0.5-0.6,2.8-0.8,8.5c-0.1,3.2,0.2,8.7,0.9,14.2c-0.9,0.4-3.8,1.8-4.1,5.5c0,0.2,0,0.5,0,0.7c0,0,0,0,0,0.1c0,0,0,0,0,0
							c0.3,4.7,5.6,15.7,6.4,15.1c0,0,0,0,0,0c0,0,0,0,0,0c0,0,0.1-0.1,0.1-0.1c0.3-1.1,0.6-5.1,0.7-8c0.2,0.5,0.4,0.9,0.7,1.3
							c0,0,0.4,0.1,1,0.2c0,0,0,0.1-0.1,0.1c0,0,0,0.1-0.1,0.1c-0.1,0.1-0.1,0.3-0.2,0.4c0,0,0,0,0,0c0,0.1-0.1,0.3-0.1,0.4
							c0,0,0,0,0,0c-0.1,0.3-0.2,0.6-0.3,0.9c0,0,0,0,0,0c0,0.1-0.1,0.3-0.1,0.4h0c-0.1,0.3-0.1,0.6-0.2,0.9h0c0,0,0,0,0,0
							c0,0.1,0,0.1,0,0.2c0,0.1,0,0.1,0,0.2c0,0,0,0,0,0C9.1,62.4,9,62.7,9,63c0,0,0,0,0,0c0,0.1,0,0.3,0,0.4l0,0
							c0,0.3,0,0.6-0.1,0.9h0c0,0,0,0,0,0c0,0,0,0.1,0,0.1c0,0.1,0,0.2,0,0.3l0,0c0,0.2,0,0.4,0,0.6c0,0,0,0,0.1,0c0,0,0,0,0,0
							c0,0,0.1,0,0.2,0.1c0,0,0,0,0,0c0.5,0.2,1.7,0.5,3.2,0.5c0,0,0,0,0,0c0.8,0,1.4-0.1,2-0.2c0,0,0,0,0,0c0.1,0,0.1,0,0.2,0
							c0.1,0,0.2,0,0.3-0.1c0,0,0.1,0,0.1,0c0.1,0,0.2-0.1,0.3-0.1c0,0,0.1,0,0.1,0c0.1,0,0.1,0,0.2-0.1c0,0,0,0,0.1,0
							c0.1,0,0.1,0,0.2-0.1c0,0,0,0,0,0c0,0,0,0,0,0c0-0.2,0-0.4,0-0.6c0,0,0,0,0,0c0-0.1,0-0.2,0-0.3c0,0,0-0.1,0-0.1c0,0,0,0,0,0
							h0c0-0.3,0-0.6-0.1-1c0,0,0,0,0,0c0-0.1,0-0.3,0-0.4c0,0,0,0,0,0c0-0.3-0.1-0.6-0.1-0.9c0,0,0,0,0,0c0-0.1,0-0.1,0-0.2
							c0-0.1,0-0.1,0-0.2c0,0,0,0,0-0.1l0,0c-0.1-0.3-0.1-0.6-0.2-0.9c0,0,0,0,0,0c0-0.1-0.1-0.3-0.1-0.4c-0.1-0.3-0.2-0.6-0.3-0.9
							l0,0c0-0.1-0.1-0.3-0.1-0.4c0,0,0,0,0,0c0-0.1-0.1-0.1-0.1-0.2c0.2,0,0.3,0,0.5,0c0.6,3.5,1.2,6.4,1.4,6.2
							c0.2,0.3,0.9-2.6,1.5-6.2c0.2,0,0.4,0,0.7,0c0,0.1-0.1,0.2-0.1,0.2c0,0,0,0,0,0c0,0.1-0.1,0.3-0.1,0.4c0,0,0,0,0,0
							c-0.1,0.3-0.2,0.6-0.3,0.9c0,0,0,0,0,0c0,0.1-0.1,0.3-0.1,0.4c0,0,0,0,0,0c-0.1,0.3-0.1,0.6-0.2,0.9h0c0,0,0,0,0,0
							c0,0.1,0,0.1,0,0.2c0,0.1,0,0.1,0,0.2c0,0,0,0,0,0c0,0.3-0.1,0.6-0.1,0.9c0,0,0,0,0,0c0,0.1,0,0.3,0,0.4v0
							c0,0.3,0,0.6-0.1,0.9c0,0,0,0,0,0c0,0,0,0.1,0,0.1c0,0.1,0,0.2,0,0.3c0,0,0,0,0,0c0,0.2,0,0.4,0,0.6c0,0,0,0,0.1,0
							c0,0,0,0,0,0c0,0,0.1,0,0.2,0.1c0,0,0,0,0,0C18.6,65.7,19.7,66,21.3,66z"/>
					</g>
				</g>
				<g class="st2">
					<g>
						<defs>
							<rect id="SVGID_23_" x="1" y="1" width="31.1" height="64.7"/>
						</defs>
						<clipPath id="SVGID_24_">
							<use xlink:href="#SVGID_23_"  style="overflow:visible;"/>
						</clipPath>
						<path class="st11" d="M21,65.7L21,65.7c0.8,0,1.5-0.1,2-0.2c0,0,0,0,0,0c0.1,0,0.1,0,0.2,0c0.1,0,0.2,0,0.3-0.1
							c0,0,0.1,0,0.1,0c0.1,0,0.2-0.1,0.3-0.1c0,0,0.1,0,0.1,0c0.1,0,0.1,0,0.2-0.1c0,0,0,0,0.1,0c0.1,0,0.1,0,0.2-0.1c0,0,0,0,0,0
							c0,0,0,0,0,0c0-0.2,0-0.4,0-0.6c0,0,0,0,0,0c0-0.1,0-0.2,0-0.3c0,0,0-0.1,0-0.1c0,0,0,0,0,0c0,0,0,0,0,0c0-0.3,0-0.6-0.1-1h0
							c0-0.1,0-0.3,0-0.4c0,0,0,0,0,0c0-0.3-0.1-0.6-0.1-0.9c0,0,0,0,0,0c0-0.1,0-0.1,0-0.2c0-0.1,0-0.1,0-0.2c0,0,0,0,0-0.1
							c0,0,0,0,0,0c-0.1-0.3-0.1-0.6-0.2-0.9c0,0,0,0,0,0c0-0.1-0.1-0.3-0.1-0.4h0c-0.1-0.3-0.2-0.6-0.3-0.9c0,0,0,0,0,0
							c0-0.1-0.1-0.3-0.1-0.4c0,0,0,0,0,0c-0.1-0.1-0.1-0.3-0.2-0.4c0-0.1,0-0.1-0.1-0.2c0,0,0-0.1-0.1-0.1c0,0,0,0,0.1,0
							c0,0,0,0,0.1,0c0.1,0,0.2,0,0.2,0c0,0,0,0,0.1,0c0.1,0,0.1,0,0.2,0c0,0,0,0,0,0c0,0,0.1,0,0.1,0c0,0,0,0,0,0c0,0,0,0,0,0
							c0.3-0.5,0.6-1.1,0.9-1.8c0.2,2.9,0.5,7.3,0.8,8.4c0,0.1,0,0.1,0.1,0.1c0,0,0,0,0,0c0,0,0.1,0,0.1,0c0,0,0,0,0,0c0,0,0,0,0,0
							c1.1-0.3,5.9-10.5,6.3-15.1c0,0,0,0,0,0c0,0,0,0,0,0c0-0.3,0-0.5,0-0.8c-0.3-4.1-3.9-5.5-4.3-5.6c0.7-5.5,1-10.9,0.9-14.1
							c-0.2-5.7-0.7-8-0.8-8.5c0-0.1,0-0.3-0.1-0.4c0,0,0,0,0,0c0,0,0,0,0,0c0-0.1,0-0.2-0.1-0.3c0-0.1,0-0.1,0-0.2
							c0-0.1-0.1-0.2-0.1-0.3c0-0.1,0-0.1-0.1-0.2c0-0.1-0.1-0.2-0.1-0.4c0-0.1-0.1-0.2-0.1-0.2c0-0.1-0.1-0.3-0.1-0.4
							c0-0.1-0.1-0.2-0.1-0.2c-0.1-0.1-0.1-0.3-0.2-0.4c0-0.1-0.1-0.2-0.1-0.3c-0.1-0.1-0.1-0.3-0.2-0.4c0-0.1-0.1-0.2-0.1-0.3
							c-0.1-0.1-0.1-0.3-0.2-0.4c0-0.1-0.1-0.2-0.1-0.3c-0.1-0.1-0.1-0.3-0.2-0.4c0-0.1-0.1-0.2-0.1-0.3c-0.1-0.1-0.1-0.3-0.2-0.4
							c0-0.1-0.1-0.2-0.1-0.3c-0.1-0.2-0.2-0.3-0.2-0.5c-0.1-0.1-0.1-0.2-0.1-0.3c-0.1-0.2-0.2-0.3-0.2-0.5
							c-0.1-0.1-0.1-0.2-0.2-0.3c-0.1-0.2-0.2-0.3-0.2-0.5c-0.1-0.1-0.1-0.2-0.2-0.3c-0.1-0.2-0.2-0.3-0.3-0.5
							c-0.1-0.1-0.1-0.2-0.2-0.3c-0.1-0.2-0.2-0.3-0.3-0.5c-0.1-0.1-0.1-0.2-0.2-0.3c-0.1-0.1-0.2-0.3-0.3-0.4
							c-0.1-0.1-0.1-0.2-0.2-0.3c-0.1-0.1-0.2-0.3-0.3-0.4c-0.1-0.1-0.1-0.2-0.2-0.3c-0.1-0.1-0.2-0.3-0.2-0.4
							c-0.1-0.1-0.1-0.2-0.2-0.3C22.1,8.2,22.1,8,22,7.9c-0.1-0.1-0.1-0.2-0.2-0.3c-0.1-0.1-0.2-0.3-0.2-0.4
							c-0.1-0.1-0.1-0.2-0.2-0.3c-0.1-0.1-0.2-0.3-0.2-0.4C21.1,6.4,21,6.3,21,6.2c-0.1-0.1-0.1-0.2-0.2-0.3
							c-0.1-0.1-0.1-0.2-0.2-0.3c-0.1-0.1-0.1-0.2-0.2-0.3c-0.1-0.1-0.1-0.2-0.2-0.3c-0.1-0.1-0.1-0.2-0.2-0.3
							c-0.1-0.1-0.1-0.2-0.2-0.2c-0.1-0.1-0.1-0.2-0.2-0.3c-0.1-0.1-0.1-0.2-0.2-0.3c-0.1-0.1-0.1-0.2-0.2-0.2
							c-0.1-0.1-0.1-0.2-0.2-0.2c0-0.1-0.1-0.1-0.1-0.2c0-0.1-0.1-0.1-0.1-0.2c0-0.1-0.1-0.1-0.1-0.2c0-0.1-0.1-0.1-0.1-0.2
							c0-0.1-0.1-0.1-0.1-0.2c0-0.1-0.1-0.1-0.1-0.1c0,0-0.1-0.1-0.1-0.1c0-0.1-0.1-0.1-0.1-0.1c0,0-0.1-0.1-0.1-0.1
							c0-0.1-0.1-0.1-0.1-0.1c0,0,0,0,0,0c0,0-0.1-0.1-0.1-0.1C17.4,1,16.7,1,16.4,1c0,0,0,0-0.1,0v0c-0.3,0-0.9,0.1-1.4,0.7
							c0,0-0.1,0.1-0.1,0.1c0,0,0,0,0,0.1c0,0-0.1,0.1-0.1,0.1c0,0,0,0.1-0.1,0.1c0,0-0.1,0.1-0.1,0.2c0,0-0.1,0.1-0.1,0.1
							c0,0.1-0.1,0.1-0.1,0.2c0,0.1-0.1,0.1-0.1,0.2c0,0.1-0.1,0.1-0.1,0.2C14,2.9,14,2.9,14,3c0,0.1-0.1,0.1-0.1,0.2
							c-0.1,0.1-0.1,0.2-0.2,0.2c0,0.1-0.1,0.1-0.1,0.2c-0.1,0.1-0.1,0.2-0.2,0.3c0,0.1-0.1,0.1-0.1,0.2c-0.1,0.1-0.1,0.2-0.2,0.3
							c-0.1,0.1-0.1,0.2-0.2,0.2c-0.1,0.1-0.1,0.2-0.2,0.3c-0.1,0.1-0.1,0.2-0.2,0.2c-0.1,0.1-0.1,0.2-0.2,0.4
							c-0.1,0.1-0.1,0.2-0.2,0.3C12,6,12,6.1,11.9,6.3c-0.1,0.1-0.1,0.2-0.2,0.3c-0.1,0.1-0.2,0.3-0.2,0.4c-0.1,0.1-0.1,0.2-0.2,0.3
							c-0.1,0.1-0.2,0.3-0.3,0.4c-0.1,0.1-0.1,0.2-0.2,0.3c-0.1,0.1-0.2,0.3-0.3,0.5c0,0.1-0.1,0.2-0.1,0.2
							c-0.1,0.2-0.2,0.3-0.3,0.5c-0.1,0.1-0.1,0.2-0.1,0.3C10,9.5,9.9,9.6,9.8,9.8c0,0.1-0.1,0.2-0.1,0.3c-0.1,0.2-0.2,0.3-0.3,0.5
							c0,0.1-0.1,0.2-0.1,0.2C9.1,11,9,11.1,8.9,11.3c0,0.1-0.1,0.2-0.1,0.2c-0.1,0.2-0.2,0.3-0.3,0.5c0,0.1-0.1,0.2-0.1,0.3
							c-0.1,0.2-0.2,0.3-0.3,0.5C8.1,12.9,8,13,8,13c-0.1,0.2-0.2,0.3-0.3,0.5c0,0.1-0.1,0.2-0.1,0.2c-0.1,0.2-0.2,0.3-0.3,0.5
							c0,0.1-0.1,0.2-0.1,0.2C7.1,14.7,7,14.9,7,15c0,0.1-0.1,0.2-0.1,0.2c-0.1,0.2-0.2,0.3-0.2,0.5c0,0.1-0.1,0.1-0.1,0.2
							c-0.1,0.2-0.1,0.3-0.2,0.5c0,0.1-0.1,0.1-0.1,0.2C6.1,16.8,6.1,17,6,17.1c0,0.1-0.1,0.1-0.1,0.2c-0.1,0.2-0.1,0.3-0.2,0.4
							c0,0.1-0.1,0.1-0.1,0.2c-0.1,0.1-0.1,0.3-0.2,0.4c0,0.1,0,0.1-0.1,0.2c0,0.1-0.1,0.3-0.1,0.4c0,0.1,0,0.1,0,0.2
							c0,0.1-0.1,0.3-0.1,0.4c0,0.1,0,0.1,0,0.2c0,0.1-0.1,0.3-0.1,0.4c0,0,0,0,0,0c0,0,0,0,0,0C5,20.3,5,20.4,5,20.6
							c-0.1,0.5-0.6,2.8-0.8,8.5C4,32.2,4.3,37.7,5.1,43.2C4.2,43.6,1.2,45,1,48.7c0,0.2,0,0.5,0,0.7c0,0,0,0,0,0c0,0,0,0,0,0
							c0.3,4.7,5.6,15.7,6.4,15.1c0,0,0,0,0,0c0,0,0,0,0,0c0,0,0.1-0.1,0.1-0.1c0.3-1.1,0.6-5.1,0.7-8c0.2,0.5,0.4,0.9,0.7,1.3
							c0,0,0.4,0.1,1,0.2c0,0,0,0.1-0.1,0.1c0,0,0,0.1-0.1,0.1c-0.1,0.1-0.1,0.3-0.2,0.4c0,0,0,0,0,0c0,0.1-0.1,0.3-0.1,0.4l0,0
							c-0.1,0.3-0.2,0.6-0.3,0.9h0c0,0.1-0.1,0.3-0.1,0.4c0,0,0,0,0,0C9,60.7,8.9,61,8.9,61.3l0,0c0,0,0,0,0,0c0,0.1,0,0.1,0,0.2
							c0,0.1,0,0.1,0,0.2c0,0,0,0,0,0c-0.1,0.3-0.1,0.6-0.1,0.9c0,0,0,0,0,0c0,0.1,0,0.3,0,0.4c0,0.3,0,0.6-0.1,0.9v0c0,0,0,0,0,0
							c0,0,0,0.1,0,0.1c0,0.1,0,0.2,0,0.3l0,0c0,0.2,0,0.4,0,0.6c0,0,0,0,0.1,0c0,0,0,0,0,0c0,0,0.1,0,0.2,0.1l0,0
							c0.5,0.2,1.7,0.5,3.2,0.5v0h0c0.8,0,1.4-0.1,2-0.2c0,0,0,0,0,0c0.1,0,0.1,0,0.2,0c0.1,0,0.2,0,0.3-0.1c0,0,0.1,0,0.1,0
							c0.1,0,0.2-0.1,0.3-0.1c0,0,0.1,0,0.1,0c0.1,0,0.1,0,0.2-0.1c0,0,0,0,0.1,0c0.1,0,0.1,0,0.2-0.1c0,0,0,0,0,0c0,0,0,0,0,0
							c0-0.2,0-0.4,0-0.6c0,0,0,0,0,0c0-0.1,0-0.2,0-0.3c0,0,0-0.1,0-0.1c0,0,0,0,0,0h0c0-0.3,0-0.6-0.1-1h0c0-0.1,0-0.3,0-0.4
							c0,0,0,0,0,0c0-0.3-0.1-0.6-0.1-0.9c0,0,0,0,0,0c0-0.1,0-0.1,0-0.2c0-0.1,0-0.1,0-0.2c0,0,0,0,0-0.1c0,0,0,0,0,0
							c-0.1-0.3-0.1-0.6-0.2-0.9c0,0,0,0,0,0c0-0.1-0.1-0.3-0.1-0.4h0c-0.1-0.3-0.2-0.6-0.3-0.9c0,0,0,0,0,0c0-0.1-0.1-0.3-0.1-0.4
							c0,0,0,0,0,0c0-0.1-0.1-0.1-0.1-0.2c0.2,0,0.3,0,0.5,0c0.6,3.5,1.2,6.4,1.4,6.2c0.2,0.3,0.9-2.6,1.5-6.2c0.2,0,0.4,0,0.7,0
							c0,0.1-0.1,0.2-0.1,0.2c0,0,0,0,0,0c0,0.1-0.1,0.3-0.1,0.4l0,0c-0.1,0.3-0.2,0.6-0.3,0.9h0c0,0.1-0.1,0.3-0.1,0.4c0,0,0,0,0,0
							c-0.1,0.3-0.1,0.6-0.2,0.9c0,0,0,0,0,0c0,0,0,0,0,0c0,0.1,0,0.1,0,0.2c0,0.1,0,0.1,0,0.2c0,0,0,0,0,0c0,0.3-0.1,0.6-0.1,0.9
							c0,0,0,0,0,0c0,0.1,0,0.3,0,0.4h0c0,0.3,0,0.6-0.1,0.9l0,0c0,0,0,0,0,0c0,0,0,0.1,0,0.1c0,0.1,0,0.2,0,0.3c0,0,0,0,0,0
							c0,0.2,0,0.4,0,0.6c0,0,0,0,0.1,0c0,0,0,0,0,0c0,0,0.1,0,0.2,0.1c0,0,0,0,0,0C18.2,65.4,19.4,65.7,21,65.7L21,65.7z"/>
					</g>
				</g>
				<g class="st2">
					<g>
						<defs>
							<rect id="SVGID_25_" x="0.7" y="0.7" width="31.1" height="64.7"/>
						</defs>
						<clipPath id="SVGID_26_">
							<use xlink:href="#SVGID_25_"  style="overflow:visible;"/>
						</clipPath>
						<path class="st12" d="M20.6,65.3C20.6,65.3,20.7,65.3,20.6,65.3c0.8,0,1.5-0.1,2-0.2c0,0,0,0,0,0c0.1,0,0.1,0,0.2,0
							c0.1,0,0.2,0,0.3-0.1c0,0,0.1,0,0.1,0c0.1,0,0.2-0.1,0.3-0.1c0,0,0.1,0,0.1,0c0.1,0,0.1,0,0.2-0.1c0,0,0,0,0.1,0
							c0.1,0,0.1,0,0.2-0.1c0,0,0,0,0,0c0,0,0,0,0,0c0-0.2,0-0.4,0-0.6c0,0,0,0,0,0c0-0.1,0-0.2,0-0.3c0,0,0-0.1,0-0.1c0,0,0,0,0,0
							h0c0-0.3,0-0.6-0.1-1l0,0c0-0.1,0-0.3,0-0.4c0,0,0,0,0,0c0-0.3-0.1-0.6-0.1-0.9c0,0,0,0,0,0c0-0.1,0-0.1,0-0.2
							c0-0.1,0-0.1,0-0.2c0,0,0,0,0-0.1h0c-0.1-0.3-0.1-0.6-0.2-0.9c0,0,0,0,0,0c0-0.1-0.1-0.3-0.1-0.4h0c-0.1-0.3-0.2-0.6-0.3-0.9
							c0,0,0,0,0,0c0-0.1-0.1-0.3-0.1-0.4c0,0,0,0,0,0c-0.1-0.1-0.1-0.3-0.2-0.4c0-0.1,0-0.1-0.1-0.2c0,0,0-0.1-0.1-0.1
							c0,0,0,0,0.1,0c0,0,0,0,0.1,0c0.1,0,0.2,0,0.2,0c0,0,0,0,0.1,0c0.1,0,0.1,0,0.2,0c0,0,0,0,0,0c0,0,0.1,0,0.1,0c0,0,0,0,0,0
							c0,0,0,0,0,0c0.3-0.5,0.6-1.1,0.9-1.8c0.2,2.9,0.5,7.3,0.8,8.5c0,0.1,0,0.1,0.1,0.1c0,0,0,0,0,0c0,0,0.1,0,0.1,0c0,0,0,0,0,0
							c0,0,0,0,0,0c1.1-0.3,5.9-10.5,6.3-15.1c0,0,0,0,0,0c0,0,0,0,0,0c0-0.3,0-0.5,0-0.8c-0.3-4.1-3.9-5.5-4.3-5.6
							c0.7-5.5,1-10.9,0.9-14.1c-0.2-5.7-0.7-8-0.8-8.5c0-0.1,0-0.3-0.1-0.4c0,0,0,0,0,0c0,0,0,0,0,0c0-0.1,0-0.2-0.1-0.3
							c0-0.1,0-0.1,0-0.2c0-0.1-0.1-0.2-0.1-0.3c0-0.1,0-0.1-0.1-0.2c0-0.1-0.1-0.2-0.1-0.4c0-0.1-0.1-0.2-0.1-0.2
							c0-0.1-0.1-0.3-0.1-0.4c0-0.1-0.1-0.2-0.1-0.2c-0.1-0.1-0.1-0.3-0.2-0.4c0-0.1-0.1-0.2-0.1-0.3c-0.1-0.1-0.1-0.3-0.2-0.4
							c0-0.1-0.1-0.2-0.1-0.3c-0.1-0.1-0.1-0.3-0.2-0.4c0-0.1-0.1-0.2-0.1-0.3c-0.1-0.1-0.1-0.3-0.2-0.4c0-0.1-0.1-0.2-0.1-0.3
							c-0.1-0.1-0.1-0.3-0.2-0.4c0-0.1-0.1-0.2-0.1-0.3c-0.1-0.2-0.2-0.3-0.2-0.5c0-0.1-0.1-0.2-0.1-0.3c-0.1-0.2-0.2-0.3-0.2-0.5
							c-0.1-0.1-0.1-0.2-0.2-0.3c-0.1-0.2-0.2-0.3-0.2-0.5c-0.1-0.1-0.1-0.2-0.2-0.3c-0.1-0.2-0.2-0.3-0.3-0.5
							c-0.1-0.1-0.1-0.2-0.2-0.3c-0.1-0.2-0.2-0.3-0.3-0.5c-0.1-0.1-0.1-0.2-0.2-0.3C23.1,10,23,9.9,22.9,9.7
							c-0.1-0.1-0.1-0.2-0.2-0.3c-0.1-0.1-0.2-0.3-0.3-0.4c-0.1-0.1-0.1-0.2-0.2-0.3c-0.1-0.1-0.2-0.3-0.2-0.4C22,8.2,22,8.1,21.9,8
							c-0.1-0.1-0.2-0.3-0.2-0.4c-0.1-0.1-0.1-0.2-0.2-0.3c-0.1-0.1-0.2-0.3-0.2-0.4c-0.1-0.1-0.1-0.2-0.2-0.3
							c-0.1-0.1-0.2-0.3-0.2-0.4c-0.1-0.1-0.1-0.2-0.2-0.3c-0.1-0.1-0.1-0.2-0.2-0.3c-0.1-0.1-0.1-0.2-0.2-0.3
							c-0.1-0.1-0.1-0.2-0.2-0.3c-0.1-0.1-0.1-0.2-0.2-0.3c-0.1-0.1-0.1-0.2-0.2-0.3c-0.1-0.1-0.1-0.2-0.2-0.2
							c-0.1-0.1-0.1-0.2-0.2-0.3c-0.1-0.1-0.1-0.2-0.2-0.3c-0.1-0.1-0.1-0.2-0.2-0.2c-0.1-0.1-0.1-0.2-0.2-0.2
							c0-0.1-0.1-0.1-0.1-0.2c0-0.1-0.1-0.1-0.1-0.2c0-0.1-0.1-0.1-0.1-0.2c0-0.1-0.1-0.1-0.1-0.2c0-0.1-0.1-0.1-0.1-0.2
							c0-0.1-0.1-0.1-0.1-0.2c0,0-0.1-0.1-0.1-0.1c0-0.1-0.1-0.1-0.1-0.1c0,0,0-0.1-0.1-0.1c0-0.1-0.1-0.1-0.1-0.1c0,0,0,0,0,0
							c0,0-0.1-0.1-0.1-0.1c-0.6-0.6-1.2-0.7-1.5-0.7c0,0,0,0-0.1,0v0c-0.3,0-0.9,0.1-1.4,0.7c0,0-0.1,0.1-0.1,0.1c0,0,0,0,0,0.1
							c0,0-0.1,0.1-0.1,0.1c0,0,0,0.1-0.1,0.1c0,0-0.1,0.1-0.1,0.2c0,0-0.1,0.1-0.1,0.1C14.1,2,14,2.1,14,2.1c0,0.1-0.1,0.1-0.1,0.2
							c0,0.1-0.1,0.1-0.1,0.2c0,0.1-0.1,0.1-0.1,0.2c0,0.1-0.1,0.1-0.1,0.2C13.4,3,13.4,3,13.3,3.1c0,0.1-0.1,0.1-0.1,0.2
							c-0.1,0.1-0.1,0.2-0.2,0.3c0,0.1-0.1,0.1-0.1,0.2c-0.1,0.1-0.1,0.2-0.2,0.3c-0.1,0.1-0.1,0.2-0.2,0.2
							c-0.1,0.1-0.1,0.2-0.2,0.3c-0.1,0.1-0.1,0.2-0.2,0.2c-0.1,0.1-0.2,0.2-0.2,0.4c-0.1,0.1-0.1,0.2-0.2,0.3
							c-0.1,0.1-0.2,0.2-0.2,0.4c-0.1,0.1-0.1,0.2-0.2,0.3c-0.1,0.1-0.2,0.3-0.2,0.4C11.1,6.7,11,6.8,11,6.9
							c-0.1,0.1-0.2,0.3-0.3,0.4c-0.1,0.1-0.1,0.2-0.2,0.3c-0.1,0.1-0.2,0.3-0.3,0.5c0,0.1-0.1,0.2-0.1,0.2C10.1,8.4,10,8.6,9.9,8.7
							C9.8,8.8,9.8,8.9,9.7,9C9.6,9.1,9.5,9.3,9.4,9.5c0,0.1-0.1,0.2-0.1,0.3C9.2,9.9,9.1,10,9,10.2c0,0.1-0.1,0.2-0.1,0.2
							c-0.1,0.2-0.2,0.3-0.3,0.5c0,0.1-0.1,0.2-0.1,0.2c-0.1,0.2-0.2,0.3-0.3,0.5c0,0.1-0.1,0.2-0.1,0.3c-0.1,0.2-0.2,0.3-0.3,0.5
							c0,0.1-0.1,0.2-0.1,0.2c-0.1,0.2-0.2,0.3-0.3,0.5c0,0.1-0.1,0.2-0.1,0.2C7.2,13.6,7.1,13.8,7,14c0,0.1-0.1,0.2-0.1,0.2
							c-0.1,0.2-0.2,0.3-0.2,0.5c0,0.1-0.1,0.2-0.1,0.2c-0.1,0.2-0.2,0.3-0.2,0.5c0,0.1-0.1,0.2-0.1,0.2C6.1,15.8,6.1,16,6,16.1
							c0,0.1-0.1,0.1-0.1,0.2c-0.1,0.2-0.1,0.3-0.2,0.5c0,0.1-0.1,0.1-0.1,0.2c-0.1,0.2-0.1,0.3-0.2,0.4c0,0.1,0,0.1-0.1,0.2
							c-0.1,0.1-0.1,0.3-0.2,0.4c0,0.1,0,0.1-0.1,0.2c0,0.1-0.1,0.3-0.1,0.4c0,0.1,0,0.1,0,0.2c0,0.1-0.1,0.3-0.1,0.4
							c0,0.1,0,0.1,0,0.2c0,0.1-0.1,0.3-0.1,0.4c0,0,0,0,0,0c0,0,0,0,0,0c0,0.1-0.1,0.3-0.1,0.4C4.5,20.7,4,23,3.8,28.7
							C3.7,31.9,4,37.4,4.7,42.9c-0.9,0.4-3.8,1.8-4.1,5.5c0,0.2,0,0.5,0,0.7c0,0,0,0,0,0c0,0,0,0,0,0C1,53.9,6.2,64.9,7.1,64.3
							c0,0,0,0,0,0c0,0,0,0,0,0c0,0,0.1-0.1,0.1-0.1c0.3-1.1,0.6-5.1,0.7-8c0.2,0.5,0.4,0.9,0.7,1.3c0,0,0.4,0.1,1,0.2
							c0,0,0,0.1-0.1,0.1c0,0,0,0.1-0.1,0.1c-0.1,0.1-0.1,0.3-0.2,0.4c0,0,0,0,0,0c0,0.1-0.1,0.3-0.1,0.4h0
							c-0.1,0.3-0.2,0.6-0.3,0.9h0c0,0.1-0.1,0.3-0.1,0.4h0c-0.1,0.3-0.1,0.6-0.2,0.9c0,0,0,0,0,0c0,0.1,0,0.1,0,0.2
							c0,0.1,0,0.1,0,0.2c0,0,0,0,0,0c-0.1,0.3-0.1,0.6-0.1,0.9c0,0,0,0,0,0c0,0.1,0,0.3,0,0.4c0,0.3,0,0.6-0.1,0.9c0,0,0,0,0,0
							c0,0,0,0.1,0,0.1c0,0.1,0,0.2,0,0.3c0,0,0,0,0,0c0,0.2,0,0.4,0,0.6c0,0,0,0,0.1,0c0,0,0,0,0,0c0,0,0.1,0,0.2,0.1c0,0,0,0,0,0
							c0.5,0.2,1.7,0.5,3.2,0.5v0c0,0,0,0,0,0c0.8,0,1.4-0.1,2-0.2c0,0,0,0,0,0c0.1,0,0.1,0,0.2,0c0.1,0,0.2,0,0.3-0.1
							c0,0,0.1,0,0.1,0c0.1,0,0.2-0.1,0.3-0.1c0,0,0.1,0,0.1,0c0.1,0,0.1,0,0.2-0.1c0,0,0,0,0.1,0c0.1,0,0.1,0,0.2-0.1c0,0,0,0,0,0
							c0,0,0,0,0,0c0-0.2,0-0.4,0-0.6c0,0,0,0,0,0c0-0.1,0-0.2,0-0.3c0,0,0-0.1,0-0.1c0,0,0,0,0,0h0c0-0.3,0-0.6-0.1-1l0,0
							c0-0.1,0-0.3,0-0.4c0,0,0,0,0,0c0-0.3-0.1-0.6-0.1-0.9c0,0,0,0,0,0c0-0.1,0-0.1,0-0.2c0-0.1,0-0.1,0-0.2c0,0,0,0,0-0.1h0
							c-0.1-0.3-0.1-0.6-0.2-0.9c0,0,0,0,0,0c0-0.1-0.1-0.3-0.1-0.4h0c-0.1-0.3-0.2-0.6-0.3-0.9c0,0,0,0,0,0c0-0.1-0.1-0.3-0.1-0.4
							c0,0,0,0,0,0c0-0.1-0.1-0.1-0.1-0.2c0.2,0,0.3,0,0.5,0c0.6,3.5,1.2,6.4,1.4,6.2c0.2,0.3,0.9-2.6,1.5-6.2c0.2,0,0.4,0,0.7,0
							c0,0.1-0.1,0.2-0.1,0.2c0,0,0,0,0,0c0,0.1-0.1,0.3-0.1,0.4h0c-0.1,0.3-0.2,0.6-0.3,0.9h0c0,0.1-0.1,0.3-0.1,0.4c0,0,0,0,0,0
							c-0.1,0.3-0.1,0.6-0.2,0.9h0c0,0,0,0,0,0c0,0.1,0,0.1,0,0.2c0,0.1,0,0.1,0,0.2c0,0,0,0,0,0c-0.1,0.3-0.1,0.6-0.1,0.9
							c0,0,0,0,0,0c0,0.1,0,0.3,0,0.4h0c0,0.3,0,0.6-0.1,0.9h0v0c0,0,0,0.1,0,0.1c0,0.1,0,0.2,0,0.3c0,0,0,0,0,0c0,0.2,0,0.4,0,0.6
							c0,0,0,0,0.1,0c0,0,0,0,0,0c0,0,0.1,0,0.2,0.1c0,0,0,0,0,0C17.9,65,19.1,65.3,20.6,65.3L20.6,65.3z"/>
					</g>
				</g>
				<g class="st2">
					<g>
						<defs>
							<rect id="SVGID_27_" x="0.3" y="0.3" width="31.1" height="64.7"/>
						</defs>
						<clipPath id="SVGID_28_">
							<use xlink:href="#SVGID_27_"  style="overflow:visible;"/>
						</clipPath>
						<path class="st13" d="M20.3,65C20.3,65,20.3,65,20.3,65c0.8,0,1.5-0.1,2-0.2v0c0,0,0,0,0,0c0.1,0,0.1,0,0.2,0
							c0.1,0,0.2,0,0.3-0.1c0,0,0.1,0,0.1,0c0.1,0,0.2-0.1,0.3-0.1c0,0,0.1,0,0.1,0c0.1,0,0.1,0,0.2-0.1c0,0,0,0,0.1,0
							c0.1,0,0.1,0,0.2-0.1c0,0,0,0,0,0c0,0,0,0,0,0c0-0.2,0-0.4,0-0.6c0,0,0,0,0,0c0-0.1,0-0.2,0-0.3c0,0,0-0.1,0-0.1c0,0,0,0,0,0
							h0c0-0.3,0-0.6-0.1-1c0,0,0,0,0,0c0-0.1,0-0.3,0-0.4c0,0,0,0,0,0c0-0.3-0.1-0.6-0.1-0.9c0,0,0,0,0,0c0-0.1,0-0.1,0-0.2
							c0-0.1,0-0.1,0-0.2c0,0,0,0,0-0.1l0,0c-0.1-0.3-0.1-0.6-0.2-0.9c0,0,0,0,0,0c0-0.1-0.1-0.3-0.1-0.4h0
							c-0.1-0.3-0.2-0.6-0.3-0.9c0,0,0,0,0,0c0-0.1-0.1-0.3-0.1-0.4c0,0,0,0,0,0c-0.1-0.1-0.1-0.3-0.2-0.4c0-0.1,0-0.1-0.1-0.2
							c0,0,0-0.1-0.1-0.1c0,0,0,0,0.1,0c0,0,0,0,0.1,0c0.1,0,0.2,0,0.2,0c0,0,0,0,0.1,0c0.1,0,0.1,0,0.2,0c0,0,0,0,0,0
							c0,0,0.1,0,0.1,0c0,0,0,0,0,0c0,0,0,0,0,0c0.3-0.5,0.6-1.1,0.9-1.8c0.2,2.9,0.5,7.3,0.8,8.4c0,0.1,0,0.1,0.1,0.1c0,0,0,0,0,0
							c0,0,0.1,0,0.1,0c0,0,0,0,0,0c0,0,0,0,0,0c1.1-0.3,5.9-10.5,6.3-15.1c0,0,0,0,0,0c0,0,0,0,0,0c0-0.3,0-0.5,0-0.8
							c-0.3-4.1-3.9-5.5-4.3-5.6c0.7-5.5,1-10.9,0.9-14.1c-0.2-5.7-0.7-8-0.8-8.5c0-0.1,0-0.3-0.1-0.4c0,0,0,0,0,0c0,0,0,0,0,0
							c0-0.1,0-0.2-0.1-0.3c0-0.1,0-0.1,0-0.2c0-0.1-0.1-0.2-0.1-0.3c0-0.1,0-0.1-0.1-0.2c0-0.1-0.1-0.2-0.1-0.4
							c0-0.1-0.1-0.2-0.1-0.2c0-0.1-0.1-0.3-0.1-0.4c0-0.1-0.1-0.2-0.1-0.2c-0.1-0.1-0.1-0.3-0.2-0.4c0-0.1-0.1-0.2-0.1-0.3
							c-0.1-0.1-0.1-0.3-0.2-0.4c0-0.1-0.1-0.2-0.1-0.3c-0.1-0.1-0.1-0.3-0.2-0.4c0-0.1-0.1-0.2-0.1-0.3c-0.1-0.1-0.1-0.3-0.2-0.4
							c0-0.1-0.1-0.2-0.1-0.3c-0.1-0.1-0.1-0.3-0.2-0.4c0-0.1-0.1-0.2-0.1-0.3c-0.1-0.2-0.2-0.3-0.2-0.5c0-0.1-0.1-0.2-0.1-0.3
							c-0.1-0.2-0.2-0.3-0.2-0.5c-0.1-0.1-0.1-0.2-0.2-0.3c-0.1-0.2-0.2-0.3-0.2-0.5c-0.1-0.1-0.1-0.2-0.2-0.3
							c-0.1-0.2-0.2-0.3-0.3-0.5c-0.1-0.1-0.1-0.2-0.2-0.3c-0.1-0.2-0.2-0.3-0.3-0.5c-0.1-0.1-0.1-0.2-0.2-0.3
							c-0.1-0.1-0.2-0.3-0.3-0.4c-0.1-0.1-0.1-0.2-0.2-0.3c-0.1-0.1-0.2-0.3-0.3-0.4c-0.1-0.1-0.1-0.2-0.2-0.3
							c-0.1-0.1-0.2-0.3-0.2-0.4c-0.1-0.1-0.1-0.2-0.2-0.3c-0.1-0.1-0.2-0.3-0.2-0.4c-0.1-0.1-0.1-0.2-0.2-0.3
							c-0.1-0.1-0.2-0.3-0.2-0.4c-0.1-0.1-0.1-0.2-0.2-0.3c-0.1-0.1-0.2-0.3-0.2-0.4c-0.1-0.1-0.1-0.2-0.2-0.3
							c-0.1-0.1-0.1-0.2-0.2-0.3C20,5.1,20,5,19.9,5c-0.1-0.1-0.1-0.2-0.2-0.3c-0.1-0.1-0.1-0.2-0.2-0.3c-0.1-0.1-0.1-0.2-0.2-0.3
							c-0.1-0.1-0.1-0.2-0.2-0.2c-0.1-0.1-0.1-0.2-0.2-0.3c-0.1-0.1-0.1-0.2-0.2-0.3c-0.1-0.1-0.1-0.2-0.2-0.2
							c-0.1-0.1-0.1-0.2-0.2-0.2c0-0.1-0.1-0.1-0.1-0.2c0-0.1-0.1-0.1-0.1-0.2c0-0.1-0.1-0.1-0.1-0.2C18.1,2.1,18,2,18,2
							c0-0.1-0.1-0.1-0.1-0.2c0-0.1-0.1-0.1-0.1-0.1c0,0-0.1-0.1-0.1-0.1c0-0.1-0.1-0.1-0.1-0.1c0,0,0-0.1-0.1-0.1
							c0-0.1-0.1-0.1-0.1-0.1c0,0,0,0,0,0c0,0-0.1-0.1-0.1-0.1c-0.6-0.6-1.2-0.7-1.5-0.7c0,0,0,0-0.1,0l0,0c-0.3,0-0.9,0.1-1.4,0.7
							c0,0-0.1,0.1-0.1,0.1c0,0,0,0,0,0.1c0,0-0.1,0.1-0.1,0.1c0,0,0,0.1-0.1,0.1c0,0-0.1,0.1-0.1,0.2c0,0-0.1,0.1-0.1,0.1
							c0,0.1-0.1,0.1-0.1,0.2c0,0.1-0.1,0.1-0.1,0.2c0,0.1-0.1,0.1-0.1,0.2c0,0.1-0.1,0.1-0.1,0.2c0,0.1-0.1,0.1-0.1,0.2
							c0,0.1-0.1,0.2-0.2,0.2c0,0.1-0.1,0.1-0.1,0.2c-0.1,0.1-0.1,0.2-0.2,0.3c0,0.1-0.1,0.1-0.1,0.2c-0.1,0.1-0.1,0.2-0.2,0.3
							C12.3,3.9,12.3,4,12.2,4c-0.1,0.1-0.1,0.2-0.2,0.3c-0.1,0.1-0.1,0.2-0.2,0.2c-0.1,0.1-0.2,0.2-0.2,0.4
							c-0.1,0.1-0.1,0.2-0.2,0.3c-0.1,0.1-0.2,0.2-0.2,0.4c-0.1,0.1-0.1,0.2-0.2,0.3C11,6,10.9,6.1,10.8,6.3
							c-0.1,0.1-0.1,0.2-0.2,0.3c-0.1,0.1-0.2,0.3-0.3,0.4c-0.1,0.1-0.1,0.2-0.2,0.3c-0.1,0.1-0.2,0.3-0.3,0.5
							c0,0.1-0.1,0.2-0.1,0.2C9.7,8.1,9.6,8.2,9.5,8.4c0,0.1-0.1,0.2-0.1,0.3C9.3,8.8,9.2,9,9.1,9.1C9.1,9.2,9,9.3,9,9.4
							C8.9,9.5,8.8,9.7,8.7,9.9c0,0.1-0.1,0.2-0.1,0.2c-0.1,0.2-0.2,0.3-0.3,0.5c0,0.1-0.1,0.2-0.1,0.2C8,11,7.9,11.2,7.9,11.4
							c0,0.1-0.1,0.2-0.1,0.3c-0.1,0.2-0.2,0.3-0.3,0.5c0,0.1-0.1,0.2-0.1,0.2c-0.1,0.2-0.2,0.3-0.3,0.5C7,13,7,13.1,6.9,13.1
							c-0.1,0.2-0.2,0.3-0.3,0.5c0,0.1-0.1,0.2-0.1,0.2c-0.1,0.2-0.2,0.3-0.2,0.5c0,0.1-0.1,0.2-0.1,0.2C6.1,14.8,6,14.9,6,15.1
							c0,0.1-0.1,0.1-0.1,0.2c-0.1,0.2-0.1,0.3-0.2,0.5c0,0.1-0.1,0.1-0.1,0.2c-0.1,0.2-0.1,0.3-0.2,0.5c0,0.1-0.1,0.1-0.1,0.2
							c-0.1,0.2-0.1,0.3-0.2,0.4c0,0.1,0,0.1-0.1,0.2c-0.1,0.1-0.1,0.3-0.2,0.4c0,0.1,0,0.1-0.1,0.2c0,0.1-0.1,0.3-0.1,0.4
							c0,0.1,0,0.1,0,0.2c0,0.1-0.1,0.3-0.1,0.4c0,0.1,0,0.1,0,0.2c0,0.1-0.1,0.3-0.1,0.4c0,0,0,0,0,0h0c0,0.1-0.1,0.3-0.1,0.4
							c-0.1,0.5-0.6,2.8-0.8,8.5c-0.1,3.2,0.2,8.7,0.9,14.2c-0.9,0.4-3.8,1.8-4.1,5.5c0,0.2,0,0.5,0,0.7c0,0,0,0,0,0.1c0,0,0,0,0,0
							c0.3,4.7,5.6,15.7,6.4,15.1c0,0,0,0,0,0c0,0,0,0,0,0c0,0,0.1-0.1,0.1-0.1c0.3-1.1,0.6-5.1,0.7-8c0.2,0.5,0.4,0.9,0.7,1.3
							c0,0,0.4,0.1,1,0.2c0,0,0,0.1-0.1,0.1c0,0,0,0.1-0.1,0.1C9.1,57.7,9,57.9,9,58c0,0,0,0,0,0c0,0.1-0.1,0.3-0.1,0.4c0,0,0,0,0,0
							c-0.1,0.3-0.2,0.6-0.3,0.9c0,0,0,0,0,0c0,0.1-0.1,0.3-0.1,0.4c0,0,0,0,0,0c-0.1,0.3-0.1,0.6-0.2,0.9h0c0,0,0,0,0,0
							c0,0.1,0,0.1,0,0.2c0,0.1,0,0.1,0,0.2c0,0,0,0,0,0C8.1,61.4,8,61.7,8,62c0,0,0,0,0,0c0,0.1,0,0.3,0,0.4v0c0,0.3,0,0.6-0.1,0.9
							l0,0c0,0,0,0,0,0c0,0,0,0.1,0,0.1c0,0.1,0,0.2,0,0.3c0,0,0,0,0,0c0,0.2,0,0.4,0,0.6c0,0,0,0,0.1,0c0,0,0,0,0,0
							c0,0,0.1,0,0.2,0.1c0,0,0,0,0,0c0.5,0.2,1.7,0.5,3.2,0.5c0,0,0,0,0,0c0.8,0,1.4-0.1,2-0.2v0c0,0,0,0,0,0c0.1,0,0.1,0,0.2,0
							c0.1,0,0.2,0,0.3-0.1c0,0,0.1,0,0.1,0c0.1,0,0.2-0.1,0.3-0.1c0,0,0.1,0,0.1,0c0.1,0,0.1,0,0.2-0.1c0,0,0,0,0.1,0
							c0.1,0,0.1,0,0.2-0.1c0,0,0,0,0,0c0,0,0,0,0,0c0-0.2,0-0.4,0-0.6c0,0,0,0,0,0c0-0.1,0-0.2,0-0.3c0,0,0-0.1,0-0.1c0,0,0,0,0,0
							h0c0-0.3,0-0.6-0.1-1h0c0-0.1,0-0.3,0-0.4c0,0,0,0,0,0c0-0.3-0.1-0.6-0.1-0.9c0,0,0,0,0,0c0-0.1,0-0.1,0-0.2
							c0-0.1,0-0.1,0-0.2c0,0,0,0,0-0.1l0,0c-0.1-0.3-0.1-0.6-0.2-0.9c0,0,0,0,0,0c0-0.1-0.1-0.3-0.1-0.4h0
							c-0.1-0.3-0.2-0.6-0.3-0.9c0,0,0,0,0,0c0-0.1-0.1-0.3-0.1-0.4c0,0,0,0,0,0c0-0.1-0.1-0.1-0.1-0.2c0.2,0,0.3,0,0.5,0
							c0.6,3.5,1.2,6.4,1.4,6.2c0.2,0.3,0.9-2.6,1.5-6.2c0.2,0,0.4,0,0.7,0c0,0.1-0.1,0.2-0.1,0.2c0,0,0,0,0,0
							c0,0.1-0.1,0.3-0.1,0.4c0,0,0,0,0,0c-0.1,0.3-0.2,0.6-0.3,0.9h0c0,0.1-0.1,0.3-0.1,0.4c0,0,0,0,0,0c-0.1,0.3-0.1,0.6-0.2,0.9
							h0c0,0,0,0,0,0c0,0.1,0,0.1,0,0.2c0,0.1,0,0.1,0,0.2c0,0,0,0,0,0c-0.1,0.3-0.1,0.6-0.1,0.9c0,0,0,0,0,0c0,0.1,0,0.3,0,0.4l0,0
							c0,0.3,0,0.6-0.1,0.9c0,0,0,0,0,0c0,0,0,0,0,0c0,0,0,0.1,0,0.1c0,0.1,0,0.2,0,0.3l0,0c0,0.2,0,0.4,0,0.6c0,0,0,0,0.1,0
							c0,0,0,0,0,0c0,0,0.1,0,0.2,0.1l0,0C17.6,64.7,18.8,65,20.3,65z"/>
					</g>
				</g>
				<g class="st2">
					<g>
						<defs>
							<rect id="SVGID_29_" x="0" width="31.1" height="64.7"/>
						</defs>
						<clipPath id="SVGID_30_">
							<use xlink:href="#SVGID_29_"  style="overflow:visible;"/>
						</clipPath>
						<path class="st14" d="M20,64.7C20,64.7,20,64.7,20,64.7c0.8,0,1.5-0.1,2-0.2c0,0,0,0,0,0c0.1,0,0.1,0,0.2,0
							c0.1,0,0.2,0,0.3-0.1c0,0,0.1,0,0.1,0c0.1,0,0.2-0.1,0.3-0.1c0,0,0.1,0,0.1,0c0.1,0,0.1,0,0.2-0.1c0,0,0,0,0.1,0
							c0.1,0,0.1,0,0.2-0.1c0,0,0,0,0,0c0,0,0,0,0,0c0-0.2,0-0.4,0-0.6c0,0,0,0,0,0c0-0.1,0-0.2,0-0.3c0,0,0-0.1,0-0.1c0,0,0,0,0,0
							h0c0-0.3,0-0.6-0.1-1h0c0-0.1,0-0.3,0-0.4c0,0,0,0,0,0c0-0.3-0.1-0.6-0.1-0.9c0,0,0,0,0,0c0-0.1,0-0.1,0-0.2
							c0-0.1,0-0.1,0-0.2c0,0,0,0,0-0.1c0,0,0,0,0,0c-0.1-0.3-0.1-0.6-0.2-0.9c0,0,0,0,0,0c0-0.1-0.1-0.3-0.1-0.4h0
							c-0.1-0.3-0.2-0.6-0.3-0.9h0c0-0.1-0.1-0.3-0.1-0.4c0,0,0,0,0,0c-0.1-0.1-0.1-0.3-0.2-0.4c0-0.1,0-0.1-0.1-0.2
							c0,0,0-0.1-0.1-0.1c0,0,0,0,0.1,0c0,0,0,0,0.1,0c0.1,0,0.2,0,0.2,0c0,0,0,0,0.1,0c0.1,0,0.1,0,0.2,0c0,0,0,0,0,0
							c0,0,0.1,0,0.1,0c0,0,0,0,0,0c0,0,0,0,0,0c0.3-0.5,0.6-1.1,0.9-1.8c0.2,2.9,0.5,7.3,0.8,8.5c0,0.1,0,0.1,0.1,0.1c0,0,0,0,0,0
							c0,0,0.1,0,0.1,0c0,0,0,0,0,0c0,0,0,0,0,0c1.1-0.3,5.9-10.5,6.3-15.1c0,0,0,0,0,0c0,0,0,0,0,0c0-0.3,0-0.5,0-0.8
							c-0.3-4.1-3.9-5.5-4.3-5.6c0.7-5.5,1-10.9,0.9-14.1c-0.2-5.7-0.7-8-0.8-8.5c0-0.1,0-0.3-0.1-0.4h0c0,0,0,0,0,0
							c0-0.1,0-0.2-0.1-0.3c0-0.1,0-0.1,0-0.2c0-0.1-0.1-0.2-0.1-0.3c0-0.1,0-0.1-0.1-0.2c0-0.1-0.1-0.2-0.1-0.4
							c0-0.1-0.1-0.2-0.1-0.2c0-0.1-0.1-0.3-0.1-0.4c0-0.1-0.1-0.2-0.1-0.2c-0.1-0.1-0.1-0.3-0.2-0.4c0-0.1-0.1-0.2-0.1-0.3
							c-0.1-0.1-0.1-0.3-0.2-0.4c0-0.1-0.1-0.2-0.1-0.3c-0.1-0.1-0.1-0.3-0.2-0.4c0-0.1-0.1-0.2-0.1-0.3c-0.1-0.1-0.1-0.3-0.2-0.4
							c0-0.1-0.1-0.2-0.1-0.3c-0.1-0.1-0.1-0.3-0.2-0.4c0-0.1-0.1-0.2-0.1-0.3c-0.1-0.2-0.2-0.3-0.2-0.5c0-0.1-0.1-0.2-0.1-0.3
							c-0.1-0.2-0.2-0.3-0.2-0.5c-0.1-0.1-0.1-0.2-0.2-0.3c-0.1-0.2-0.2-0.3-0.2-0.5c-0.1-0.1-0.1-0.2-0.2-0.3
							c-0.1-0.2-0.2-0.3-0.3-0.5c-0.1-0.1-0.1-0.2-0.2-0.3c-0.1-0.2-0.2-0.3-0.3-0.5c-0.1-0.1-0.1-0.2-0.2-0.3
							c-0.1-0.1-0.2-0.3-0.3-0.4c-0.1-0.1-0.1-0.2-0.2-0.3c-0.1-0.1-0.2-0.3-0.3-0.4c-0.1-0.1-0.1-0.2-0.2-0.3
							c-0.1-0.1-0.2-0.3-0.2-0.4c-0.1-0.1-0.1-0.2-0.2-0.3C21.2,7.2,21.1,7,21,6.9c-0.1-0.1-0.1-0.2-0.2-0.3
							c-0.1-0.1-0.2-0.3-0.2-0.4c-0.1-0.1-0.1-0.2-0.2-0.3c-0.1-0.1-0.2-0.3-0.2-0.4c-0.1-0.1-0.1-0.2-0.2-0.3
							c-0.1-0.1-0.1-0.2-0.2-0.3c-0.1-0.1-0.1-0.2-0.2-0.3c-0.1-0.1-0.1-0.2-0.2-0.3c-0.1-0.1-0.1-0.2-0.2-0.3
							c-0.1-0.1-0.1-0.2-0.2-0.3c-0.1-0.1-0.1-0.2-0.2-0.2c-0.1-0.1-0.1-0.2-0.2-0.3c-0.1-0.1-0.1-0.2-0.2-0.3
							c-0.1-0.1-0.1-0.2-0.2-0.2c-0.1-0.1-0.1-0.2-0.2-0.2c0-0.1-0.1-0.1-0.1-0.2C18,2.2,18,2.1,17.9,2c0-0.1-0.1-0.1-0.1-0.2
							c0-0.1-0.1-0.1-0.1-0.2c0-0.1-0.1-0.1-0.1-0.2c0-0.1-0.1-0.1-0.1-0.2c0,0-0.1-0.1-0.1-0.1c0-0.1-0.1-0.1-0.1-0.1
							c0,0,0-0.1-0.1-0.1c0-0.1-0.1-0.1-0.1-0.1c0,0,0,0,0,0c0,0-0.1-0.1-0.1-0.1C16.4,0,15.7,0,15.4,0c0,0,0,0-0.1,0v0
							c-0.3,0-0.9,0.1-1.4,0.7c0,0-0.1,0.1-0.1,0.1c0,0,0,0,0,0.1c0,0-0.1,0.1-0.1,0.1c0,0,0,0.1-0.1,0.1c0,0-0.1,0.1-0.1,0.2
							c0,0-0.1,0.1-0.1,0.1c0,0.1-0.1,0.1-0.1,0.2c0,0.1-0.1,0.1-0.1,0.2c0,0.1-0.1,0.1-0.1,0.2C13.1,1.9,13,2,13,2
							c0,0.1-0.1,0.1-0.1,0.2c-0.1,0.1-0.1,0.2-0.2,0.2c0,0.1-0.1,0.1-0.1,0.2c-0.1,0.1-0.1,0.2-0.2,0.3c0,0.1-0.1,0.1-0.1,0.2
							c-0.1,0.1-0.1,0.2-0.2,0.3c-0.1,0.1-0.1,0.2-0.2,0.2c-0.1,0.1-0.1,0.2-0.2,0.3c-0.1,0.1-0.1,0.2-0.2,0.2
							c-0.1,0.1-0.1,0.2-0.2,0.4c-0.1,0.1-0.1,0.2-0.2,0.3C11,5,11,5.1,10.9,5.3c-0.1,0.1-0.1,0.2-0.2,0.3c-0.1,0.1-0.2,0.3-0.2,0.4
							c-0.1,0.1-0.1,0.2-0.2,0.3c-0.1,0.1-0.2,0.3-0.3,0.4C10,6.7,10,6.8,9.9,6.9C9.8,7,9.7,7.2,9.6,7.3c0,0.1-0.1,0.2-0.1,0.2
							C9.4,7.7,9.3,7.9,9.2,8.1C9.2,8.1,9.1,8.2,9.1,8.3C9,8.5,8.9,8.6,8.8,8.8c0,0.1-0.1,0.2-0.1,0.3C8.5,9.2,8.5,9.4,8.4,9.5
							c0,0.1-0.1,0.2-0.1,0.2C8.1,10,8,10.1,7.9,10.3c0,0.1-0.1,0.2-0.1,0.2c-0.1,0.2-0.2,0.3-0.3,0.5c0,0.1-0.1,0.2-0.1,0.3
							c-0.1,0.2-0.2,0.3-0.3,0.5C7.1,11.9,7,12,7,12.1c-0.1,0.2-0.2,0.3-0.3,0.5c0,0.1-0.1,0.2-0.1,0.2c-0.1,0.2-0.2,0.3-0.3,0.5
							c0,0.1-0.1,0.2-0.1,0.2c-0.1,0.2-0.2,0.3-0.2,0.5c0,0.1-0.1,0.2-0.1,0.2c-0.1,0.2-0.2,0.3-0.2,0.5c0,0.1-0.1,0.1-0.1,0.2
							c-0.1,0.2-0.1,0.3-0.2,0.5c0,0.1-0.1,0.1-0.1,0.2C5.2,15.9,5.1,16,5,16.2c0,0.1-0.1,0.1-0.1,0.2c-0.1,0.2-0.1,0.3-0.2,0.4
							c0,0.1,0,0.1-0.1,0.2c-0.1,0.1-0.1,0.3-0.2,0.4c0,0.1,0,0.1-0.1,0.2c0,0.1-0.1,0.3-0.1,0.4c0,0.1,0,0.1,0,0.2
							c0,0.1-0.1,0.3-0.1,0.4c0,0.1,0,0.1,0,0.2c0,0.1-0.1,0.3-0.1,0.4c0,0,0,0,0,0h0C4,19.3,4,19.4,4,19.6
							c-0.1,0.5-0.6,2.8-0.8,8.5c-0.1,3.2,0.2,8.7,0.9,14.2c-0.9,0.4-3.8,1.8-4.1,5.5c0,0.2,0,0.5,0,0.7c0,0,0,0,0,0c0,0,0,0,0,0
							c0.3,4.7,5.6,15.7,6.4,15.1c0,0,0,0,0,0c0,0,0,0,0,0c0,0,0.1-0.1,0.1-0.1c0.3-1.1,0.6-5.1,0.7-8c0.2,0.5,0.4,0.9,0.7,1.3
							c0,0,0.4,0.1,1,0.2c0,0,0,0.1-0.1,0.1c0,0,0,0.1-0.1,0.1c-0.1,0.1-0.1,0.3-0.2,0.4c0,0,0,0,0,0c0,0.1-0.1,0.3-0.1,0.4
							c0,0,0,0,0,0c-0.1,0.3-0.2,0.6-0.3,0.9h0c0,0.1-0.1,0.3-0.1,0.4c0,0,0,0,0,0C8,59.7,7.9,60,7.9,60.3l0,0c0,0,0,0,0,0
							c0,0.1,0,0.1,0,0.2c0,0.1,0,0.1,0,0.2c0,0,0,0,0,0c-0.1,0.3-0.1,0.6-0.1,0.9c0,0,0,0,0,0c0,0.1,0,0.3,0,0.4
							c0,0.3,0,0.6-0.1,0.9v0c0,0,0,0,0,0c0,0,0,0.1,0,0.1c0,0.1,0,0.2,0,0.3c0,0,0,0,0,0c0,0.2,0,0.4,0,0.6c0,0,0,0,0.1,0
							c0,0,0,0,0,0c0,0,0.1,0,0.2,0.1l0,0c0.5,0.2,1.7,0.5,3.2,0.5v0c0,0,0,0,0,0c0.8,0,1.4-0.1,2-0.2c0,0,0,0,0,0
							c0.1,0,0.1,0,0.2,0c0.1,0,0.2,0,0.3-0.1c0,0,0.1,0,0.1,0c0.1,0,0.2-0.1,0.3-0.1c0,0,0.1,0,0.1,0c0.1,0,0.1,0,0.2-0.1
							c0,0,0,0,0.1,0c0.1,0,0.1,0,0.2-0.1c0,0,0,0,0,0c0,0,0,0,0,0c0-0.2,0-0.4,0-0.6c0,0,0,0,0,0c0-0.1,0-0.2,0-0.3
							c0,0,0-0.1,0-0.1c0,0,0,0,0,0h0c0-0.3,0-0.6-0.1-1c0,0,0,0,0,0c0-0.1,0-0.3,0-0.4c0,0,0,0,0,0c0-0.3-0.1-0.6-0.1-0.9
							c0,0,0,0,0,0c0-0.1,0-0.1,0-0.2c0-0.1,0-0.1,0-0.2c0,0,0,0,0-0.1c0,0,0,0,0,0c-0.1-0.3-0.1-0.6-0.2-0.9c0,0,0,0,0,0
							c0-0.1-0.1-0.3-0.1-0.4h0c-0.1-0.3-0.2-0.6-0.3-0.9h0c0-0.1-0.1-0.3-0.1-0.4c0,0,0,0,0,0c0-0.1-0.1-0.1-0.1-0.2
							c0.2,0,0.3,0,0.5,0c0.6,3.5,1.2,6.4,1.4,6.2c0.2,0.3,0.9-2.6,1.5-6.2c0.2,0,0.4,0,0.7,0c0,0.1-0.1,0.2-0.1,0.2c0,0,0,0,0,0
							c0,0.1-0.1,0.3-0.1,0.4c0,0,0,0,0,0c-0.1,0.3-0.2,0.6-0.3,0.9h0c0,0.1-0.1,0.3-0.1,0.4c0,0,0,0,0,0c-0.1,0.3-0.1,0.6-0.2,0.9
							l0,0c0,0,0,0,0,0c0,0.1,0,0.1,0,0.2c0,0.1,0,0.1,0,0.2c0,0,0,0,0,0c0,0.3-0.1,0.6-0.1,0.9c0,0,0,0,0,0c0,0.1,0,0.3,0,0.4h0
							c0,0.3,0,0.6-0.1,0.9l0,0c0,0,0,0,0,0c0,0,0,0.1,0,0.1c0,0.1,0,0.2,0,0.3l0,0c0,0.2,0,0.4,0,0.6c0,0,0,0,0.1,0c0,0,0,0,0,0
							c0,0,0.1,0,0.2,0.1c0,0,0,0,0,0C17.3,64.4,18.4,64.7,20,64.7L20,64.7z"/>
					</g>
				</g>
			</g>
		</g>
		<path class="st15" d="M21.3,55.2h-2.6c0,0-2.4,3.6-2.3,8.9c0,0,1.4,0.6,3.6,0.6c2.1,0,3.6-0.6,3.6-0.6
			C23.7,58.7,21.3,55.2,21.3,55.2"/>
	</g>
	<g class="st0">
		<defs>
			<path id="SVGID_31_" d="M18.7,55.2c0,0-0.6,0.9-1.2,2.5c1.1,0.2,2.8,0.3,5-0.1c-0.6-1.6-1.2-2.5-1.2-2.5H18.7z"/>
		</defs>
		<clipPath id="SVGID_32_">
			<use xlink:href="#SVGID_31_"  style="overflow:visible;"/>
		</clipPath>
		
			<linearGradient id="SVGID_33_" gradientUnits="userSpaceOnUse" x1="0" y1="68.2993" x2="1" y2="68.2993" gradientTransform="matrix(1.8049 15.0566 15.0566 -1.8049 -1008.8361 175.8972)">
			<stop  offset="0" style="stop-color:#E5E0DF"/>
			<stop  offset="0.4575" style="stop-color:#E5E0DF"/>
			<stop  offset="1" style="stop-color:#8CA99C"/>
		</linearGradient>
		<polygon class="st16" points="22.4,54.6 22.8,58 17.6,58.6 17.2,55.2 		"/>
	</g>
	<g class="st0">
		<defs>
			<rect id="SVGID_34_" width="34.7" height="68.3"/>
		</defs>
		<clipPath id="SVGID_35_">
			<use xlink:href="#SVGID_34_"  style="overflow:visible;"/>
		</clipPath>
		<path class="st17" d="M16.4,63.1c0,0.1,0,0.3,0,0.4c0.6,0.2,1.7,0.4,3.3,0.4c1.1,0,2.4-0.1,3.8-0.5c0-0.1,0-0.3,0-0.4
			C19.9,64,17.3,63.3,16.4,63.1"/>
		<path class="st17" d="M16.6,61.7c0,0.1,0,0.3,0,0.4c0.6,0.2,1.7,0.4,3.2,0.4c1.1,0,2.3-0.1,3.8-0.5c0-0.1,0-0.3,0-0.4
			C20,62.5,17.5,62,16.6,61.7"/>
		<path class="st17" d="M23,59.4c0-0.1-0.1-0.3-0.1-0.4c-2.7,0.6-4.7,0.3-5.9,0.1c0,0.1-0.1,0.3-0.1,0.4c0.6,0.2,1.6,0.3,2.8,0.3
			C20.7,59.7,21.8,59.6,23,59.4"/>
		<path class="st17" d="M16.8,60.3c0,0.1-0.1,0.3-0.1,0.4c0.6,0.2,1.7,0.4,3.1,0.4c1,0,2.2-0.1,3.6-0.4c0-0.1,0-0.3-0.1-0.4
			C20.1,61,17.8,60.6,16.8,60.3"/>
		<path class="st17" d="M22.6,58.1c0-0.1-0.1-0.3-0.1-0.4c-2.2,0.4-3.9,0.3-5,0.1c0,0.1-0.1,0.3-0.1,0.4c0.6,0.1,1.4,0.2,2.4,0.2
			C20.6,58.3,21.6,58.3,22.6,58.1"/>
		<g class="st18">
			<g>
				<defs>
					<rect id="SVGID_36_" x="16.4" y="55.2" width="7.2" height="9.5"/>
				</defs>
				<clipPath id="SVGID_37_">
					<use xlink:href="#SVGID_36_"  style="overflow:visible;"/>
				</clipPath>
				<path class="st19" d="M21.3,55.2h-2.6c0,0-2.4,3.6-2.3,8.9c0,0,0.1,0,0.3,0.1c-0.1-1.2,0.2-2.5,0.4-3.7c0.1-0.8,0.5-2.7,1.7-2.6
					c1.3,0.1,1,5.6,1.1,6.8c0,0,0,0,0,0c2.1,0,3.6-0.6,3.6-0.6C23.7,58.7,21.3,55.2,21.3,55.2"/>
			</g>
		</g>
		<g class="st18">
			<g>
				<defs>
					<rect id="SVGID_38_" x="20" y="55.2" width="3.6" height="9.3"/>
				</defs>
				<clipPath id="SVGID_39_">
					<use xlink:href="#SVGID_38_"  style="overflow:visible;"/>
				</clipPath>
				<path class="st20" d="M21.3,55.2H20c1.4,2.9,1.9,6.2,2,9.3c1-0.2,1.6-0.4,1.6-0.4C23.7,58.7,21.3,55.2,21.3,55.2"/>
			</g>
		</g>
		<path class="st21" d="M12.4,55.2H9.8c0,0-2.4,3.6-2.3,8.9c0,0,1.4,0.6,3.6,0.6c2.1,0,3.6-0.6,3.6-0.6
			C14.8,58.7,12.4,55.2,12.4,55.2"/>
	</g>
	<g class="st0">
		<defs>
			<path id="SVGID_40_" d="M9.8,55.2c0,0-0.6,0.9-1.2,2.5c1.1,0.2,2.8,0.3,5-0.1c-0.6-1.6-1.2-2.5-1.2-2.5H9.8z"/>
		</defs>
		<clipPath id="SVGID_41_">
			<use xlink:href="#SVGID_40_"  style="overflow:visible;"/>
		</clipPath>
		
			<linearGradient id="SVGID_42_" gradientUnits="userSpaceOnUse" x1="0" y1="68.2994" x2="1" y2="68.2994" gradientTransform="matrix(1.8049 15.0565 15.0565 -1.8049 -1017.7119 175.8958)">
			<stop  offset="0" style="stop-color:#E5E0DF"/>
			<stop  offset="0.4575" style="stop-color:#E5E0DF"/>
			<stop  offset="1" style="stop-color:#8CA99C"/>
		</linearGradient>
		<polygon class="st22" points="13.5,54.6 13.9,58 8.7,58.6 8.3,55.2 		"/>
	</g>
	<g class="st0">
		<defs>
			<rect id="SVGID_43_" width="34.7" height="68.3"/>
		</defs>
		<clipPath id="SVGID_44_">
			<use xlink:href="#SVGID_43_"  style="overflow:visible;"/>
		</clipPath>
		<path class="st23" d="M7.6,63.1c0,0.1,0,0.3,0,0.4c0.6,0.2,1.7,0.4,3.3,0.4c1.1,0,2.4-0.1,3.8-0.5c0-0.1,0-0.3,0-0.4
			C11,64,8.4,63.3,7.6,63.1"/>
		<path class="st23" d="M7.7,61.7c0,0.1,0,0.3,0,0.4c0.6,0.2,1.7,0.4,3.2,0.4c1.1,0,2.3-0.1,3.8-0.5c0-0.1,0-0.3,0-0.4
			C11.1,62.5,8.6,62,7.7,61.7"/>
		<path class="st23" d="M14.2,59.4c0-0.1-0.1-0.3-0.1-0.4c-2.7,0.6-4.7,0.3-5.9,0.1c0,0.1-0.1,0.3-0.1,0.4c0.6,0.2,1.6,0.3,2.8,0.3
			C11.8,59.7,12.9,59.6,14.2,59.4"/>
		<path class="st23" d="M7.9,60.3c0,0.1-0.1,0.3-0.1,0.4c0.6,0.2,1.7,0.4,3.1,0.4c1,0,2.2-0.1,3.6-0.4c0-0.1,0-0.3-0.1-0.4
			C11.2,61,8.9,60.6,7.9,60.3"/>
		<path class="st23" d="M13.8,58.1c0-0.1-0.1-0.3-0.1-0.4c-2.2,0.4-3.9,0.3-5,0.1c0,0.1-0.1,0.3-0.1,0.4c0.6,0.1,1.4,0.2,2.4,0.2
			C11.7,58.3,12.7,58.3,13.8,58.1"/>
		<g class="st24">
			<g>
				<defs>
					<rect id="SVGID_45_" x="7.5" y="55.2" width="7.2" height="9.5"/>
				</defs>
				<clipPath id="SVGID_46_">
					<use xlink:href="#SVGID_45_"  style="overflow:visible;"/>
				</clipPath>
				<path class="st25" d="M12.4,55.2H9.8c0,0-2.4,3.6-2.3,8.9c0,0,0.1,0,0.3,0.1c-0.1-1.2,0.2-2.5,0.4-3.7c0.1-0.8,0.5-2.7,1.7-2.6
					c1.3,0.1,1,5.6,1.1,6.8c0,0,0,0,0,0c2.1,0,3.6-0.6,3.6-0.6C14.8,58.7,12.4,55.2,12.4,55.2"/>
			</g>
		</g>
		<g class="st24">
			<g>
				<defs>
					<rect id="SVGID_47_" x="11.1" y="55.2" width="3.6" height="9.3"/>
				</defs>
				<clipPath id="SVGID_48_">
					<use xlink:href="#SVGID_47_"  style="overflow:visible;"/>
				</clipPath>
				<path class="st26" d="M12.4,55.2h-1.3c1.4,2.9,1.9,6.2,2,9.3c1-0.2,1.6-0.4,1.6-0.4C14.8,58.7,12.4,55.2,12.4,55.2"/>
			</g>
		</g>
		<path class="st27" d="M4.4,42.1c0,0-4.1,1.3-4.3,5.6c-0.3,4.3,6,17.5,6.5,15.7C7,61.7,7.4,52.4,7.4,52.4L4.4,42.1z"/>
		<g class="st28">
			<g>
				<defs>
					<rect id="SVGID_49_" x="0" y="42.1" width="7.4" height="21.5"/>
				</defs>
				<clipPath id="SVGID_50_">
					<use xlink:href="#SVGID_49_"  style="overflow:visible;"/>
				</clipPath>
				<path class="st29" d="M3.3,43.6c0.1-0.1,0.3,0,0.2,0.2c-1.2,3.5-0.6,7.5,0,11c0.5,3,1.5,6,2.8,8.7c0,0,0.1-0.1,0.1-0.1
					C7,61.7,7.4,52.4,7.4,52.4l-3-10.3c0,0-4.1,1.3-4.3,5.6c0,0.2,0,0.5,0,0.8C0.4,46.5,1.5,44.7,3.3,43.6"/>
			</g>
		</g>
		<g class="st28">
			<g>
				<defs>
					<rect id="SVGID_51_" x="0.3" y="49.3" width="4.6" height="11.8"/>
				</defs>
				<clipPath id="SVGID_52_">
					<use xlink:href="#SVGID_51_"  style="overflow:visible;"/>
				</clipPath>
				<path class="st30" d="M3.3,56.2c-0.4-1.3-0.9-2.7-1.4-4c-0.4-1-1.1-2-1.6-2.9v0c0.7,3.5,3,8.9,4.6,11.8
					C4.3,59.5,3.8,57.9,3.3,56.2"/>
			</g>
		</g>
		<path class="st31" d="M26.8,42.1c0,0,4.1,1.3,4.3,5.6c0.3,4.3-6,17.5-6.5,15.7c-0.5-1.8-0.9-11.1-0.9-11.1L26.8,42.1z"/>
		<g class="st28">
			<g>
				<defs>
					<rect id="SVGID_53_" x="23.7" y="42.1" width="7.4" height="21.5"/>
				</defs>
				<clipPath id="SVGID_54_">
					<use xlink:href="#SVGID_53_"  style="overflow:visible;"/>
				</clipPath>
				<path class="st32" d="M24.9,63.6c0-0.1,0-0.2,0.1-0.3c0.1-1,0.2-2,0.3-2.9c0.2-1.7,0.4-3.5,0.7-5.2c0.6-3.4,1.1-7,2.5-10.2
					c0-0.1,0.1-0.1,0.2-0.1c1.4,0.9,2.1,2.2,2.5,3.7c0-0.3,0-0.6,0-0.8c-0.3-4.3-4.3-5.6-4.3-5.6l-3,10.3c0,0,0.4,9.3,0.9,11.1
					C24.7,63.6,24.8,63.6,24.9,63.6"/>
			</g>
		</g>
		<path class="st33" d="M27.7,28.1c-0.2-5.7-0.7-8-0.8-8.5c-0.7-5-9.2-18.1-10-18.9C16.4,0,15.7,0,15.4,0c-0.3,0-0.9,0-1.5,0.7
			C13.2,1.5,4.7,14.5,4,19.6c-0.1,0.5-0.6,2.8-0.8,8.5c-0.2,6.5,1.3,23.2,4.7,28.7c0,0,2.9,0.8,7.6,0.7c4.7,0.1,7.6-0.7,7.6-0.7
			C26.4,51.2,28,34.6,27.7,28.1"/>
		<path class="st31" d="M16.9,41.8c-0.2-0.1-0.5-0.3-0.8-0.3h-1.3c-0.2,0-0.5,0.1-0.7,0.2c-0.6,0.4-1.6,1.7-1.5,5.6
			c0.2,4.3,2.4,17,2.7,16.4c0.4,0.6,2.7-12.1,2.7-16.4C18.2,43.7,17.5,42.3,16.9,41.8"/>
		<path class="st27" d="M15.4,42.6c-0.1-0.1-0.2-0.2-0.4-0.2h-0.7c-0.1,0-0.2,0.1-0.3,0.1c-0.3,0.3-0.8,1.2-0.7,4
			c0.1,3.1,1.2,12.2,1.4,11.8c0.2,0.4,1.4-8.7,1.4-11.8C16,43.9,15.7,43,15.4,42.6"/>
		<path class="st34" d="M14.1,49.9c-0.1-2.3-0.4-4.6-0.2-6.9c-0.2,0.6-0.4,1.6-0.3,3.2c0,1.5,0.3,4.4,0.6,7
			C14.2,52.1,14.1,51,14.1,49.9"/>
	</g>
	<g class="st0">
		<defs>
			<path id="SVGID_55_" d="M15.4,0c-0.3,0-0.9,0-1.5,0.7C13.2,1.4,5.1,13.9,4,19.2c3.4,1,7.3,1.6,11.4,1.6s8-0.6,11.4-1.6
				c-1.1-5.3-9.2-17.7-9.9-18.5C16.4,0.1,15.8,0,15.4,0C15.5,0,15.5,0,15.4,0"/>
		</defs>
		<clipPath id="SVGID_56_">
			<use xlink:href="#SVGID_55_"  style="overflow:visible;"/>
		</clipPath>
		
			<linearGradient id="SVGID_57_" gradientUnits="userSpaceOnUse" x1="0" y1="68.2911" x2="1" y2="68.2911" gradientTransform="matrix(38.0987 0 0 -38.0987 -3.6892 2612.1614)">
			<stop  offset="0" style="stop-color:#E5E0DF"/>
			<stop  offset="0.4575" style="stop-color:#E5E0DF"/>
			<stop  offset="1" style="stop-color:#8CA99C"/>
		</linearGradient>
		<rect x="4" y="0" class="st35" width="22.8" height="20.7"/>
	</g>
	<g class="st0">
		<defs>
			<rect id="SVGID_58_" width="34.7" height="68.3"/>
		</defs>
		<clipPath id="SVGID_59_">
			<use xlink:href="#SVGID_58_"  style="overflow:visible;"/>
		</clipPath>
		<path class="st36" d="M15.4,0c-0.3,0-0.9,0-1.5,0.7C13.2,1.4,5.1,13.9,4,19.2c3.4,1,7.3,1.6,11.4,1.6s8-0.6,11.4-1.6
			c-1.1-5.3-9.2-17.7-9.9-18.5C16.4,0,15.7,0,15.4,0"/>
		<path class="st37" d="M5.5,20.4c0,0.3-0.2,0.5-0.5,0.5s-0.5-0.2-0.5-0.5c0-0.3,0.2-0.5,0.5-0.5S5.5,20.1,5.5,20.4"/>
		<path class="st37" d="M16,21.9c0,0.3-0.2,0.5-0.5,0.5S15,22.2,15,21.9c0-0.3,0.2-0.5,0.5-0.5S16,21.6,16,21.9"/>
		<path class="st37" d="M26.4,20.2c0,0.3-0.2,0.5-0.5,0.5s-0.5-0.2-0.5-0.5c0-0.3,0.2-0.5,0.5-0.5S26.4,20,26.4,20.2"/>
		<path class="st37" d="M21.2,21.6c0,0.3-0.2,0.5-0.5,0.5c-0.3,0-0.5-0.2-0.5-0.5c0-0.3,0.2-0.5,0.5-0.5
			C21,21.1,21.2,21.3,21.2,21.6"/>
		<path class="st37" d="M10.7,21.6c0,0.3-0.2,0.5-0.5,0.5s-0.5-0.2-0.5-0.5c0-0.3,0.2-0.5,0.5-0.5S10.7,21.3,10.7,21.6"/>
		<path class="st38" d="M21.1,31.2c0,2.8-2.3,5.2-5.2,5.2c-2.8,0-5.2-2.3-5.2-5.2c0-2.8,2.3-5.2,5.2-5.2
			C18.8,26,21.1,28.3,21.1,31.2"/>
		<g class="st39">
			<g>
				<defs>
					<rect id="SVGID_60_" x="11.5" y="27" width="8.7" height="8.7"/>
				</defs>
				<clipPath id="SVGID_61_">
					<use xlink:href="#SVGID_60_"  style="overflow:visible;"/>
				</clipPath>
				<path class="st40" d="M20.3,31.3c0,2.4-2,4.4-4.4,4.4c-2.4,0-4.4-2-4.4-4.4c0-2.4,2-4.4,4.4-4.4C18.3,27,20.3,28.9,20.3,31.3"/>
			</g>
		</g>
	</g>
	<g class="st0">
		<defs>
			<path id="SVGID_62_" d="M12,31.2c0,2.2,1.8,3.9,3.9,3.9s3.9-1.8,3.9-3.9s-1.8-3.9-3.9-3.9S12,29,12,31.2"/>
		</defs>
		<clipPath id="SVGID_63_">
			<use xlink:href="#SVGID_62_"  style="overflow:visible;"/>
		</clipPath>
		
			<radialGradient id="SVGID_64_" cx="0" cy="68.291" r="1" gradientTransform="matrix(6.5857 0 0 -6.5857 13.482 478.9391)" gradientUnits="userSpaceOnUse">
			<stop  offset="0" style="stop-color:#21687E"/>
			<stop  offset="0.1486" style="stop-color:#21687E"/>
			<stop  offset="0.491" style="stop-color:#023F5F"/>
			<stop  offset="0.4927" style="stop-color:#023F5F"/>
			<stop  offset="0.9801" style="stop-color:#000000"/>
			<stop  offset="1" style="stop-color:#000000"/>
		</radialGradient>
		<rect x="12" y="27.3" class="st41" width="7.8" height="7.8"/>
	</g>
	<g class="st0">
		<defs>
			<rect id="SVGID_65_" width="34.7" height="68.3"/>
		</defs>
		<clipPath id="SVGID_66_">
			<use xlink:href="#SVGID_65_"  style="overflow:visible;"/>
		</clipPath>
		<g class="st42">
			<g>
				<defs>
					<rect id="SVGID_67_" x="12.5" y="27.7" width="6.2" height="6.4"/>
				</defs>
				<clipPath id="SVGID_68_">
					<use xlink:href="#SVGID_67_"  style="overflow:visible;"/>
				</clipPath>
				<g class="st43">
					<defs>
						<path id="SVGID_69_" d="M13.2,31.8c-0.2,0-0.4-0.1-0.6-0.1c0.1,1,0.7,1.9,1.5,2.4C13.5,33.5,13.2,32.7,13.2,31.8
							C13.2,31.8,13.2,31.8,13.2,31.8"/>
					</defs>
					<clipPath id="SVGID_70_">
						<use xlink:href="#SVGID_69_"  style="overflow:visible;"/>
					</clipPath>
					
						<radialGradient id="SVGID_71_" cx="0" cy="68.291" r="1" gradientTransform="matrix(6.2455 0 0 -6.2455 11.5811 455.7024)" gradientUnits="userSpaceOnUse">
						<stop  offset="0" style="stop-color:#FFFFFF"/>
						<stop  offset="0.2851" style="stop-color:#FFFFFF"/>
						<stop  offset="0.6576" style="stop-color:#787878"/>
						<stop  offset="1" style="stop-color:#000000"/>
					</radialGradient>
					<rect x="12.5" y="31.7" class="st44" width="1.5" height="2.4"/>
				</g>
				<g class="st43">
					<defs>
						<path id="SVGID_72_" d="M16,27.7c-1.9,0-3.4,1.4-3.5,3.3c0.3,0,0.5,0.1,0.8,0.1c0.3-1.6,1.7-2.8,3.4-2.8c0.7,0,1.4,0.2,2,0.6
							C18,28.2,17.1,27.7,16,27.7"/>
					</defs>
					<clipPath id="SVGID_73_">
						<use xlink:href="#SVGID_72_"  style="overflow:visible;"/>
					</clipPath>
					
						<radialGradient id="SVGID_74_" cx="0" cy="68.291" r="1" gradientTransform="matrix(6.2458 0 0 -6.2458 11.581 455.7285)" gradientUnits="userSpaceOnUse">
						<stop  offset="0" style="stop-color:#FFFFFF"/>
						<stop  offset="0.2851" style="stop-color:#FFFFFF"/>
						<stop  offset="0.6576" style="stop-color:#787878"/>
						<stop  offset="1" style="stop-color:#000000"/>
					</radialGradient>
					<rect x="12.5" y="27.7" class="st45" width="6.2" height="3.4"/>
				</g>
			</g>
		</g>
		<g class="st42">
			<g>
				<defs>
					<rect id="SVGID_75_" x="25.6" y="48.5" width="5" height="13.6"/>
				</defs>
				<clipPath id="SVGID_76_">
					<use xlink:href="#SVGID_75_"  style="overflow:visible;"/>
				</clipPath>
				<path class="st46" d="M30.6,48.5c0,0-1.1,7.7-5,13.6C25.6,62.2,28.9,55.1,30.6,48.5"/>
			</g>
		</g>
		<g class="st47">
			<g>
				<defs>
					<rect id="SVGID_77_" x="6" y="20.5" width="5.6" height="35.3"/>
				</defs>
				<clipPath id="SVGID_78_">
					<use xlink:href="#SVGID_77_"  style="overflow:visible;"/>
				</clipPath>
				<path class="st48" d="M9.6,21c-0.2,0-0.5-0.1-0.7-0.1c-0.7-0.1-1.5-0.3-2.2-0.5c-0.5,2.7-0.7,5.5-0.7,8.3
					c0.1,9.1,2,17.9,3.5,26.8c0.6,0.1,1.2,0.2,2,0.2c-0.8-8.3-2-16.5-2.3-24.8C9.3,27.7,9.3,24.3,9.6,21"/>
			</g>
		</g>
		<g class="st42">
			<g>
				<defs>
					<rect id="SVGID_79_" x="15.4" width="12.4" height="57.2"/>
				</defs>
				<clipPath id="SVGID_80_">
					<use xlink:href="#SVGID_79_"  style="overflow:visible;"/>
				</clipPath>
				<path class="st49" d="M27.7,28.1c-0.2-5.7-0.7-8-0.8-8.5c-0.7-5-9.2-18.1-10-18.9C16.4,0,15.7,0,15.4,0c0,0,0,0-0.1,0
					c0.9,2.3,1.7,4.6,2.4,6.9c4.8,16.3,4.5,33.6,2.5,50.4C22,57,23,56.8,23,56.8C26.4,51.2,28,34.6,27.7,28.1"/>
			</g>
		</g>
		<g class="st50">
			<g>
				<defs>
					<rect id="SVGID_81_" x="7" y="4.8" width="5.8" height="15"/>
				</defs>
				<clipPath id="SVGID_82_">
					<use xlink:href="#SVGID_81_"  style="overflow:visible;"/>
				</clipPath>
				<path class="st51" d="M8.8,19.6c0.3,0.1,0.6,0.1,1,0.1c0.1-1.2,0.3-2.3,0.5-3.5c0.7-3.9,1.6-7.7,2.5-11.5
					C11,8.2,9.3,11.6,8.1,15.2c-0.4,1.3-0.8,2.6-1.1,4C7.6,19.4,8.2,19.5,8.8,19.6"/>
			</g>
		</g>
	</g>
</g>
</svg>
