<?xml version="1.0" encoding="utf-8"?>
<!-- Generator: Adobe Illustrator 22.0.0, SVG Export Plug-In . SVG Version: 6.00 Build 0)  -->
<svg version="1.1" id="Capa_1" xmlns="http://www.w3.org/2000/svg" xmlns:xlink="http://www.w3.org/1999/xlink" x="0px" y="0px"
	 viewBox="0 0 48.2 78" style="enable-background:new 0 0 48.2 78;" xml:space="preserve">
<style type="text/css">
	.st0{clip-path:url(#SVGID_2_);}
	.st1{clip-path:url(#SVGID_4_);}
	.st2{clip-path:url(#SVGID_6_);fill:#FFFFFF;}
	.st3{clip-path:url(#SVGID_6_);fill:#F1F1F1;}
	.st4{clip-path:url(#SVGID_6_);fill:#E2E2E2;}
	.st5{clip-path:url(#SVGID_6_);fill:#D4D4D4;}
	.st6{clip-path:url(#SVGID_6_);fill:#C5C5C5;}
	.st7{clip-path:url(#SVGID_6_);fill:#B7B7B7;}
	.st8{clip-path:url(#SVGID_6_);fill:#A8A8A8;}
	.st9{clip-path:url(#SVGID_6_);fill:#9A9A9A;}
	.st10{clip-path:url(#SVGID_6_);fill:#8B8B8B;}
	.st11{clip-path:url(#SVGID_6_);fill:#7D7D7D;}
	.st12{clip-path:url(#SVGID_6_);fill:#6E6E6E;}
	.st13{clip-path:url(#SVGID_6_);fill:#606060;}
	.st14{clip-path:url(#SVGID_4_);fill:#AAACAE;}
	.st15{clip-path:url(#SVGID_8_);fill:#97999C;}
	.st16{clip-path:url(#SVGID_4_);fill:#E2E3E4;}
	.st17{clip-path:url(#SVGID_10_);fill:#FFFFFF;}
	.st18{clip-path:url(#SVGID_12_);fill:#C6C8C9;}
	.st19{clip-path:url(#SVGID_4_);fill:#7A7D7F;}
	.st20{clip-path:url(#SVGID_14_);fill:#97999C;}
	.st21{clip-path:url(#SVGID_16_);fill:#FFFFFF;}
	.st22{clip-path:url(#SVGID_18_);fill:#C6C8C9;}
	.st23{clip-path:url(#SVGID_20_);fill:#AAACAE;}
	.st24{opacity:0.5;clip-path:url(#SVGID_4_);}
	.st25{clip-path:url(#SVGID_22_);fill:#AAACAE;}
	.st26{clip-path:url(#SVGID_4_);fill:#EFEFF0;}
	.st27{clip-path:url(#SVGID_4_);fill:#8F9193;}
	.st28{clip-path:url(#SVGID_24_);fill:#E2E3E4;}
	.st29{clip-path:url(#SVGID_26_);fill:url(#SVGID_27_);}
	.st30{clip-path:url(#SVGID_29_);fill:url(#SVGID_30_);}
	.st31{clip-path:url(#SVGID_32_);fill:#657483;}
	.st32{opacity:0.6;clip-path:url(#SVGID_32_);}
	.st33{clip-path:url(#SVGID_34_);fill:#B3B5B8;}
	.st34{clip-path:url(#SVGID_36_);fill:#B3B5B8;}
	.st35{clip-path:url(#SVGID_38_);fill:url(#SVGID_39_);}
	.st36{clip-path:url(#SVGID_41_);fill:url(#SVGID_42_);}
	.st37{clip-path:url(#SVGID_44_);fill:#657483;}
	.st38{opacity:0.6;clip-path:url(#SVGID_44_);}
	.st39{clip-path:url(#SVGID_46_);fill:#B3B5B8;}
	.st40{clip-path:url(#SVGID_48_);fill:#B3B5B8;}
	.st41{clip-path:url(#SVGID_44_);fill:#FFFFFF;}
	.st42{clip-path:url(#SVGID_44_);fill:#E6E7E8;}
	.st43{clip-path:url(#SVGID_44_);}
	.st44{clip-path:url(#SVGID_50_);fill:#E2E3E4;}
	.st45{clip-path:url(#SVGID_52_);fill:#E2E3E4;}
	.st46{clip-path:url(#SVGID_54_);fill:#E2E3E4;}
	.st47{opacity:0.5;clip-path:url(#SVGID_44_);}
	.st48{clip-path:url(#SVGID_56_);fill:#EFEFF0;}
	.st49{clip-path:url(#SVGID_58_);fill:#303134;}
	.st50{clip-path:url(#SVGID_60_);fill:#303134;}
</style>
<g>
	<defs>
		<rect id="SVGID_1_" width="48.2" height="78"/>
	</defs>
	<clipPath id="SVGID_2_">
		<use xlink:href="#SVGID_1_"  style="overflow:visible;"/>
	</clipPath>
	<g class="st0">
		<defs>
			<rect id="SVGID_3_" y="0" width="48.2" height="78"/>
		</defs>
		<clipPath id="SVGID_4_">
			<use xlink:href="#SVGID_3_"  style="overflow:visible;"/>
		</clipPath>
		<g class="st1">
			<g>
				<defs>
					<rect id="SVGID_5_" x="0" width="48.2" height="78"/>
				</defs>
				<clipPath id="SVGID_6_">
					<use xlink:href="#SVGID_5_"  style="overflow:visible;"/>
				</clipPath>
				<path class="st2" d="M24.1,61.1h2.6C25.8,61.1,24.9,61.1,24.1,61.1 M36,68.3l-0.9-2.2l-0.7-1.9l-0.7-1.8L33,60.7h0.3
					c0,0,0,0,0.1,0c0.5,0,2.3-0.1,4.6-0.2c2.6-0.1,5.6-0.3,7.6-0.4c1,0,1.7-0.1,1.9-0.1c0.1,0,0.2,0,0.3,0c0.5-0.1,0.4-0.4,0.4-0.4
					c0.1-1.1,0-2.1-0.2-3.1c0-0.2-0.1-0.4-0.1-0.5c0-0.2-0.1-0.4-0.2-0.6c-0.1-0.2-0.1-0.5-0.2-0.7c0-0.1-0.1-0.2-0.1-0.3
					c-0.1-0.3-0.3-0.7-0.4-1c0,0,0-0.1,0-0.1c-0.7-1.6-1.8-3-2.9-4.1c0,0,0.1,0.1,0.1,0.1c-1.6-1.7-3.4-2.8-4.7-3.5
					c-3.1-1.7-4.3-3.8-4.9-6.3c-0.1-0.3-0.2-0.6-0.3-0.9v0c0,0,0,0,0,0c-0.1-0.2-0.2-0.4-0.3-0.6c0,0,0,0,0,0
					c-0.1-0.2-0.2-0.3-0.4-0.5c0,0,0,0-0.1-0.1c-0.1-0.1-0.3-0.3-0.4-0.4c0,0,0,0,0,0c-0.1-0.1-0.2-0.2-0.3-0.3v-5.2v-0.7v-8.2h0
					C32.3,17.6,26.7,5,26.2,4.2C26.1,4.2,26.1,4.1,26,4C26,4,26,4,26,4c0,0-0.1-0.1-0.1-0.1c0,0,0,0-0.1,0c0,0-0.1-0.1-0.1-0.1
					c0,0,0,0,0,0c0,0-0.1,0-0.1,0c0,0,0,0,0,0l0,0c-0.1,0-0.3-0.1-0.3,0c-0.2,0-0.6,0-1,0.6c-0.5,0.8-6.1,13.4-6.6,18.2h0v8.2v0.7
					v6.8c0,0.1-0.1,0.2-0.1,0.3c0,0,0,0,0,0c0,0,0,0,0,0c-0.1,0.3-0.2,0.6-0.3,0.9c-0.6,2.6-1.8,4.7-4.9,6.3
					c-1.3,0.7-3.1,1.9-4.7,3.5c0,0,0.1-0.1,0.1-0.1c-1.1,1.1-2.1,2.5-2.9,4.1c0,0,0,0.1,0,0.1c-0.1,0.3-0.3,0.6-0.4,1
					c0,0.1-0.1,0.2-0.1,0.3c-0.1,0.2-0.2,0.5-0.2,0.7c-0.1,0.2-0.1,0.4-0.2,0.6c0,0.2-0.1,0.4-0.1,0.5c-0.2,1-0.2,2-0.2,3.1
					c0,0-0.1,0.3,0.4,0.4c0.1,0,0.2,0,0.3,0c0.2,0,0.9,0,1.9,0.1c1.9,0.1,5,0.2,7.6,0.4c1.5,0.1,2.8,0.1,3.7,0.2l-0.7,1.7l-0.7,1.7
					l-0.7,1.9l-0.8,2.2l-0.7,1.8l-0.6,1.5c0,0,0,0,0.1,0c0,0,0,0,0,0c0,0,0.1,0,0.1,0.1c0,0,0,0,0.1,0c0.1,0,0.2,0.1,0.2,0.1
					c0,0,0.1,0,0.1,0c0.1,0,0.3,0.1,0.4,0.2c0,0,0,0,0.1,0h0c0.7,0.2,1.7,0.5,3.1,0.8c0,0,0,0,0,0c0,0,0,0,0,0
					c-0.1,0.3-0.1,0.6-0.2,0.9c0,0,0,0,0,0c0,0,0,0,0,0c0,0.1,0,0.1,0,0.2c0,0.1,0,0.2,0,0.2c0,0,0,0,0,0c-0.1,0.3-0.1,0.6-0.1,0.9
					c0,0,0,0,0,0c0,0.1,0,0.3,0,0.4h0c0,0.3,0,0.6-0.1,0.9h0c0,0,0,0,0,0c0,0,0,0.1,0,0.1c0,0.1,0,0.2,0,0.3l0,0c0,0.2,0,0.4,0,0.6
					c0,0,0,0,0.1,0c0,0,0,0,0,0c0,0,0.1,0,0.2,0.1c0,0,0,0,0,0v0c0.5,0.2,1.7,0.5,3.2,0.5v0c0,0,0,0,0,0c0.8,0,1.4-0.1,2-0.2
					c0,0,0,0,0,0c0.1,0,0.1,0,0.2,0c0.1,0,0.2,0,0.3-0.1c0.1,0,0.1,0,0.1,0c0.1,0,0.2-0.1,0.3-0.1c0,0,0.1,0,0.1,0
					c0.1,0,0.1,0,0.2-0.1c0,0,0,0,0.1,0c0.1,0,0.1,0,0.2-0.1c0,0,0,0,0,0c0,0,0,0,0,0c0-0.2,0-0.4,0-0.6c0,0,0,0,0,0
					c0-0.1,0-0.2,0-0.3c0,0,0-0.1,0-0.1c0,0,0,0,0,0h0c0-0.3,0-0.6-0.1-1h0c0-0.1,0-0.3,0-0.4c0,0,0,0,0,0c0-0.3-0.1-0.6-0.1-0.9
					c0,0,0,0,0,0c0-0.1,0-0.1,0-0.2c0-0.1,0-0.1,0-0.2c0,0,0,0,0-0.1h0c0-0.1,0-0.2-0.1-0.2c0.5,0,1,0,1.6,0c0.5,0,1.1,0,1.6,0
					c0,0.1,0,0.2-0.1,0.3c0,0,0,0,0,0c0,0,0,0,0,0c0,0.1,0,0.1,0,0.2c0,0.1,0,0.1,0,0.2c0,0,0,0,0,0c-0.1,0.3-0.1,0.6-0.1,0.9
					c0,0,0,0,0,0c0,0.1,0,0.3,0,0.4h0c0,0.3,0,0.6-0.1,0.9c0,0,0,0,0,0c0,0,0,0.1,0,0.1c0,0.1,0,0.2,0,0.3c0,0,0,0,0,0
					c0,0.2,0,0.4,0,0.6c0,0,0,0,0.1,0c0,0,0,0,0,0c0,0,0.1,0,0.2,0.1c0,0,0,0,0,0v0c0.5,0.2,1.7,0.5,3.2,0.5v0c0,0,0,0,0,0
					c0.8,0,1.4-0.1,2-0.2c0,0,0,0,0,0c0.1,0,0.1,0,0.2,0c0.1,0,0.2,0,0.3-0.1c0,0,0.1,0,0.1,0c0.1,0,0.2-0.1,0.3-0.1
					c0,0,0.1,0,0.1,0c0.1,0,0.1,0,0.2-0.1c0,0,0,0,0.1,0c0.1,0,0.1,0,0.2-0.1c0,0,0,0,0,0c0,0,0,0,0,0c0-0.2,0-0.4,0-0.6
					c0,0,0,0,0,0c0-0.1,0-0.2,0-0.3c0,0,0-0.1,0-0.1c0,0,0,0,0,0h0c0-0.3,0-0.6-0.1-1h0c0-0.1,0-0.3,0-0.4c0,0,0,0,0,0
					c0-0.3-0.1-0.6-0.1-0.9c0,0,0,0,0,0c0-0.1,0-0.1,0-0.2c0-0.1,0-0.1,0-0.2c0,0,0,0,0-0.1h0c-0.1-0.3-0.1-0.6-0.2-0.9
					c0,0,0,0,0.1,0c0.3-0.1,0.6-0.1,0.8-0.2c0.1,0,0.1,0,0.2,0c0.3-0.1,0.6-0.2,0.9-0.2c0,0,0.1,0,0.1,0c0.2-0.1,0.4-0.1,0.6-0.2
					c0.1,0,0.1,0,0.2-0.1c0.2-0.1,0.3-0.1,0.4-0.2v0c0,0,0,0,0,0c0,0,0,0,0.1,0c0.1,0,0.1-0.1,0.2-0.1c0,0,0.1,0,0.1,0
					c0,0,0.1,0,0.1,0c0,0,0,0,0.1,0c0,0,0,0,0,0c0,0,0,0,0.1,0c0,0,0.1,0,0.1,0c0,0,0,0,0,0c0,0,0,0,0,0c0,0,0.1,0,0.1,0l-0.5-1.3
					L36,68.3z"/>
				<path class="st3" d="M23.8,60.8h2.6C25.5,60.8,24.6,60.8,23.8,60.8 M35.6,68l-0.9-2.2L34,63.9l-0.7-1.8l-0.7-1.7h0.3
					c0,0,0,0,0.1,0c0.5,0,2.3-0.1,4.6-0.2c2.6-0.1,5.6-0.3,7.6-0.4c1,0,1.7-0.1,1.9-0.1c0.1,0,0.2,0,0.3,0c0.5-0.1,0.4-0.4,0.4-0.4
					c0.1-1.1,0-2.1-0.2-3.1c0-0.2-0.1-0.4-0.1-0.5c0-0.2-0.1-0.4-0.2-0.6c-0.1-0.2-0.1-0.5-0.2-0.7c0-0.1-0.1-0.2-0.1-0.3
					c-0.1-0.3-0.3-0.7-0.4-1c0,0,0-0.1,0-0.1c-0.7-1.6-1.8-3-2.9-4.1c0,0,0.1,0.1,0.1,0.1c-1.6-1.7-3.4-2.8-4.7-3.5
					c-3.1-1.7-4.3-3.8-4.9-6.3c-0.1-0.3-0.2-0.6-0.3-0.9c0,0,0,0,0,0c0,0,0,0,0,0c-0.1-0.2-0.2-0.4-0.3-0.6c0,0,0,0,0,0
					c-0.1-0.2-0.2-0.3-0.4-0.5c0,0,0,0-0.1-0.1c-0.1-0.1-0.3-0.3-0.4-0.4c0,0,0,0,0,0c-0.1-0.1-0.2-0.2-0.3-0.3V31v-0.7v-8.2h0
					C32,17.3,26.4,4.7,25.9,3.9c-0.1-0.1-0.1-0.2-0.2-0.2c0,0,0,0-0.1-0.1c0,0-0.1-0.1-0.1-0.1c0,0,0,0-0.1,0c0,0-0.1-0.1-0.1-0.1
					c0,0,0,0-0.1,0c0,0-0.1,0-0.1,0c0,0,0,0,0,0l0,0c-0.1,0-0.3-0.1-0.3,0c-0.2,0-0.6,0-1,0.6c-0.5,0.8-6.1,13.4-6.6,18.2h0v8.2V31
					v6.8c0,0.1-0.1,0.2-0.1,0.3c0,0,0,0,0,0v0c-0.1,0.3-0.2,0.6-0.3,0.9c-0.6,2.6-1.8,4.7-4.9,6.3c-1.3,0.7-3.1,1.9-4.7,3.5
					c0,0,0.1-0.1,0.1-0.1c-1.1,1.1-2.1,2.5-2.9,4.1c0,0,0,0.1,0,0.1c-0.1,0.3-0.3,0.6-0.4,1C4,54,4,54.1,3.9,54.2
					c-0.1,0.2-0.2,0.5-0.2,0.7c-0.1,0.2-0.1,0.4-0.2,0.6c0,0.2-0.1,0.4-0.1,0.5c-0.2,1-0.2,2-0.2,3.1c0,0-0.1,0.3,0.4,0.4
					c0.1,0,0.2,0,0.3,0c0.2,0,0.9,0,1.9,0.1c1.9,0.1,5,0.2,7.6,0.4c1.5,0.1,2.8,0.1,3.7,0.2L16.5,62l-0.7,1.7l-0.7,1.9l-0.8,2.2
					l-0.7,1.8l-0.6,1.5c0,0,0,0,0.1,0c0,0,0,0,0,0c0,0,0.1,0,0.2,0.1c0,0,0,0,0.1,0c0.1,0,0.2,0.1,0.2,0.1c0,0,0.1,0,0.1,0
					c0.1,0,0.3,0.1,0.4,0.2c0,0,0,0,0.1,0c0.7,0.2,1.7,0.5,3.1,0.8c0,0,0,0,0,0c0,0,0,0,0,0C17,72.7,17,73,16.9,73.3h0c0,0,0,0,0,0
					c0,0.1,0,0.1,0,0.2c0,0.1,0,0.2,0,0.2c0,0,0,0,0,0c-0.1,0.3-0.1,0.6-0.1,0.9c0,0,0,0,0,0c0,0.1,0,0.3,0,0.4h0
					c0,0.3,0,0.6-0.1,0.9h0v0c0,0,0,0.1,0,0.1c0,0.1,0,0.2,0,0.3c0,0,0,0,0,0c0,0.2,0,0.4,0,0.6c0,0,0,0,0.1,0c0,0,0,0,0,0
					c0,0,0.1,0,0.2,0.1c0,0,0,0,0,0v0c0.5,0.2,1.7,0.5,3.2,0.5v0h0c0.8,0,1.4-0.1,2-0.2c0,0,0,0,0,0c0.1,0,0.1,0,0.2,0
					c0.1,0,0.2,0,0.3-0.1c0.1,0,0.1,0,0.1,0c0.1,0,0.2-0.1,0.3-0.1c0,0,0.1,0,0.1,0c0.1,0,0.1,0,0.2-0.1c0,0,0,0,0.1,0
					c0.1,0,0.1,0,0.2-0.1c0,0,0,0,0,0c0,0,0,0,0,0c0-0.2,0-0.4,0-0.6c0,0,0,0,0,0c0-0.1,0-0.2,0-0.3c0,0,0-0.1,0-0.1c0,0,0,0,0,0
					c0,0,0,0,0,0c0-0.3,0-0.6-0.1-1h0c0-0.1,0-0.3,0-0.4c0,0,0,0,0,0c0-0.3-0.1-0.6-0.1-0.9c0,0,0,0,0,0c0-0.1,0-0.1,0-0.2
					c0-0.1,0-0.1,0-0.2c0,0,0,0,0-0.1h0c0-0.1,0-0.2-0.1-0.2c0.5,0,1,0,1.6,0c0.5,0,1.1,0,1.6,0c0,0.1,0,0.2-0.1,0.3h0c0,0,0,0,0,0
					c0,0.1,0,0.1,0,0.2c0,0.1,0,0.1,0,0.2c0,0,0,0,0,0c-0.1,0.3-0.1,0.6-0.1,0.9c0,0,0,0,0,0c0,0.1,0,0.3,0,0.4h0
					c0,0.3,0,0.6-0.1,0.9c0,0,0,0,0,0c0,0,0,0.1,0,0.1c0,0.1,0,0.2,0,0.3c0,0,0,0,0,0c0,0.2,0,0.4,0,0.6c0,0,0,0,0.1,0c0,0,0,0,0,0
					c0,0,0.1,0,0.2,0.1c0,0,0,0,0,0v0c0.5,0.2,1.7,0.5,3.2,0.5v0h0c0.8,0,1.4-0.1,2-0.2c0,0,0,0,0,0c0.1,0,0.1,0,0.2,0
					c0.1,0,0.2,0,0.3-0.1c0,0,0.1,0,0.1,0c0.1,0,0.2-0.1,0.3-0.1c0,0,0.1,0,0.1,0c0.1,0,0.1,0,0.2-0.1c0,0,0,0,0.1,0
					c0.1,0,0.1,0,0.2-0.1c0,0,0,0,0,0c0,0,0,0,0,0c0-0.2,0-0.4,0-0.6c0,0,0,0,0,0c0-0.1,0-0.2,0-0.3c0,0,0-0.1,0-0.1c0,0,0,0,0,0h0
					c0-0.3,0-0.6-0.1-1h0c0-0.1,0-0.3,0-0.4l0,0c0-0.3-0.1-0.6-0.1-0.9c0,0,0,0,0,0c0-0.1,0-0.1,0-0.2c0-0.1,0-0.1,0-0.2
					c0,0,0,0,0-0.1h0c-0.1-0.3-0.1-0.6-0.2-0.9c0,0,0,0,0.1,0c0.3-0.1,0.6-0.1,0.8-0.2c0.1,0,0.1,0,0.2,0c0.3-0.1,0.6-0.2,0.9-0.2
					c0,0,0.1,0,0.1,0c0.2-0.1,0.4-0.1,0.6-0.2c0.1,0,0.1,0,0.2-0.1c0.2-0.1,0.3-0.1,0.4-0.2l0,0c0,0,0,0,0,0c0,0,0,0,0.1,0
					c0.1,0,0.1-0.1,0.2-0.1c0,0,0.1,0,0.1,0c0,0,0.1,0,0.1,0c0,0,0.1,0,0.1,0c0,0,0,0,0,0c0,0,0,0,0.1,0c0,0,0.1,0,0.1,0
					c0,0,0,0,0,0c0,0,0,0,0,0c0,0,0.1,0,0.1,0l-0.5-1.3L35.6,68z"/>
				<path class="st4" d="M23.4,60.5H26C25.1,60.5,24.3,60.5,23.4,60.5 M35.3,67.6l-0.9-2.2l-0.7-1.9L33,61.8L32.3,60h0.3
					c0,0,0,0,0.1,0c0.5,0,2.3-0.1,4.6-0.2l0,0c2.6-0.1,5.6-0.3,7.6-0.4c1,0,1.7-0.1,1.9-0.1c0.1,0,0.2,0,0.3,0
					c0.5-0.1,0.4-0.4,0.4-0.4c0.1-1.1,0-2.1-0.2-3.1c0-0.2-0.1-0.4-0.1-0.5c0-0.2-0.1-0.4-0.2-0.6c-0.1-0.2-0.1-0.5-0.2-0.7
					c0-0.1-0.1-0.2-0.1-0.3c-0.1-0.3-0.3-0.7-0.4-1c0,0,0-0.1,0-0.1c-0.7-1.6-1.8-3-2.9-4.1c0,0,0.1,0.1,0.1,0.1
					c-1.6-1.7-3.4-2.8-4.7-3.5c-3.1-1.7-4.3-3.8-4.9-6.3c-0.1-0.3-0.2-0.6-0.3-0.9v0c0,0,0,0,0,0c-0.1-0.2-0.2-0.4-0.3-0.6
					c0,0,0,0,0,0c-0.1-0.2-0.2-0.3-0.4-0.5c0,0,0,0-0.1-0.1c-0.1-0.1-0.3-0.3-0.4-0.4c0,0,0,0,0,0c-0.1-0.1-0.2-0.2-0.3-0.3v-5.2V30
					v-8.2h0C31.7,17,26,4.4,25.5,3.6c-0.1-0.1-0.1-0.2-0.2-0.2c0,0,0,0-0.1-0.1c0,0-0.1-0.1-0.1-0.1c0,0,0,0-0.1,0
					c0,0-0.1-0.1-0.1-0.1c0,0,0,0,0,0c0,0-0.1,0-0.1,0c0,0,0,0,0,0c0,0,0,0,0,0c-0.1,0-0.3-0.1-0.3,0c-0.2,0-0.6,0-1,0.6
					C23.1,4.4,17.4,17,17,21.8h0V30v0.7v6.8c0,0.1-0.1,0.2-0.1,0.3c0,0,0,0,0,0v0c-0.1,0.3-0.2,0.6-0.3,0.9
					c-0.6,2.6-1.8,4.7-4.9,6.3c-1.3,0.7-3.1,1.9-4.7,3.5c0,0,0.1-0.1,0.1-0.1c-1.1,1.1-2.1,2.5-2.9,4.1c0,0,0,0.1,0,0.1
					c-0.1,0.3-0.3,0.6-0.4,1c0,0.1-0.1,0.2-0.1,0.3c-0.1,0.2-0.2,0.5-0.2,0.7c-0.1,0.2-0.1,0.4-0.2,0.6c0,0.2-0.1,0.4-0.1,0.5
					c-0.2,1-0.2,2-0.2,3.1c0,0-0.1,0.3,0.4,0.4c0.1,0,0.2,0,0.3,0c0.2,0,0.9,0,1.9,0.1c1.9,0.1,5,0.2,7.6,0.4c0,0,0,0,0,0
					c1.5,0.1,2.8,0.1,3.7,0.2l-0.7,1.7l-0.7,1.7l-0.7,1.9l-0.8,2.2l-0.7,1.8l-0.6,1.5c0,0,0,0,0.1,0c0,0,0,0,0,0c0,0,0.1,0,0.2,0.1
					c0,0,0,0,0.1,0c0.1,0,0.2,0.1,0.2,0.1c0,0,0.1,0,0.1,0c0.1,0,0.3,0.1,0.4,0.2c0,0,0,0,0.1,0c0.7,0.2,1.7,0.5,3.1,0.8
					c0,0,0,0,0,0c0,0,0,0,0,0c-0.1,0.3-0.1,0.6-0.2,0.9h0c0,0,0,0,0,0c0,0.1,0,0.1,0,0.2c0,0.1,0,0.2,0,0.2c0,0,0,0,0,0
					c-0.1,0.3-0.1,0.6-0.1,0.9c0,0,0,0,0,0c0,0.1,0,0.3,0,0.4h0c0,0.3,0,0.6-0.1,0.9h0v0c0,0,0,0.1,0,0.1c0,0.1,0,0.2,0,0.3
					c0,0,0,0,0,0c0,0.2,0,0.4,0,0.6c0,0,0,0,0.1,0c0,0,0,0,0,0c0,0,0.1,0,0.2,0.1c0,0,0,0,0,0v0c0.5,0.2,1.7,0.5,3.2,0.5v0
					c0,0,0,0,0,0c0.8,0,1.4-0.1,2-0.2v0c0,0,0,0,0,0c0.1,0,0.1,0,0.2,0c0.1,0,0.2,0,0.3-0.1c0.1,0,0.1,0,0.1,0
					c0.1,0,0.2-0.1,0.3-0.1c0,0,0.1,0,0.1,0c0.1,0,0.1,0,0.2-0.1c0,0,0,0,0.1,0c0.1,0,0.1,0,0.2-0.1c0,0,0,0,0,0c0,0,0,0,0,0
					c0-0.2,0-0.4,0-0.6c0,0,0,0,0,0c0-0.1,0-0.2,0-0.3c0,0,0-0.1,0-0.1c0,0,0,0,0,0h0c0-0.3,0-0.6-0.1-1h0c0-0.1,0-0.3,0-0.4
					c0,0,0,0,0,0c0-0.3-0.1-0.6-0.1-0.9c0,0,0,0,0,0c0-0.1,0-0.1,0-0.2c0-0.1,0-0.1,0-0.2c0,0,0,0,0-0.1h0c0-0.1,0-0.2-0.1-0.2
					c0.5,0,1,0,1.6,0c0.5,0,1.1,0,1.6,0c0,0.1,0,0.2-0.1,0.3h0c0,0,0,0,0,0c0,0.1,0,0.1,0,0.2c0,0.1,0,0.1,0,0.2c0,0,0,0,0,0
					c-0.1,0.3-0.1,0.6-0.1,0.9c0,0,0,0,0,0c0,0.1,0,0.3,0,0.4h0c0,0.3,0,0.6-0.1,0.9c0,0,0,0,0,0c0,0,0,0.1,0,0.1c0,0.1,0,0.2,0,0.3
					c0,0,0,0,0,0c0,0.2,0,0.4,0,0.6c0,0,0,0,0.1,0c0,0,0,0,0,0c0,0,0.1,0,0.2,0.1c0,0,0,0,0,0c0.5,0.2,1.7,0.5,3.2,0.5v0
					c0,0,0,0,0,0c0.8,0,1.4-0.1,2-0.2v0c0,0,0,0,0,0c0.1,0,0.1,0,0.2,0c0.1,0,0.2,0,0.3-0.1c0,0,0.1,0,0.1,0c0.1,0,0.2-0.1,0.3-0.1
					c0,0,0.1,0,0.1,0c0.1,0,0.1,0,0.2-0.1c0,0,0,0,0.1,0c0.1,0,0.1,0,0.2-0.1c0,0,0,0,0,0c0,0,0,0,0,0c0-0.2,0-0.4,0-0.6
					c0,0,0,0,0,0c0-0.1,0-0.2,0-0.3c0,0,0-0.1,0-0.1c0,0,0,0,0,0h0c0-0.3,0-0.6-0.1-1c0,0,0,0,0,0c0-0.1,0-0.3,0-0.4c0,0,0,0,0,0
					c0-0.3-0.1-0.6-0.1-0.9c0,0,0,0,0,0c0-0.1,0-0.1,0-0.2c0-0.1,0-0.1,0-0.2c0,0,0,0,0-0.1h0c-0.1-0.3-0.1-0.6-0.2-0.9
					c0,0,0,0,0.1,0c0.3-0.1,0.6-0.1,0.8-0.2c0.1,0,0.1,0,0.2,0c0.3-0.1,0.6-0.2,0.9-0.2c0,0,0.1,0,0.1,0c0.2-0.1,0.4-0.1,0.6-0.2
					c0.1,0,0.1,0,0.2-0.1c0.2-0.1,0.3-0.1,0.4-0.2c0,0,0,0,0,0c0,0,0,0,0,0c0,0,0,0,0.1,0c0.1,0,0.1-0.1,0.2-0.1c0,0,0.1,0,0.1,0
					c0,0,0.1,0,0.1,0c0,0,0,0,0.1,0c0,0,0,0,0,0c0,0,0,0,0.1,0c0,0,0.1,0,0.1,0c0,0,0,0,0,0c0,0,0,0,0,0c0,0,0.1,0,0.1,0L36,69.5
					L35.3,67.6z"/>
				<path class="st5" d="M23.1,60.1h2.6C24.8,60.1,23.9,60.1,23.1,60.1 M35,67.3l-0.9-2.2l-0.7-1.9l-0.7-1.8L32,59.7h0.3
					c0,0,0,0,0.1,0c0.5,0,2.3-0.1,4.6-0.2h0c2.6-0.1,5.6-0.3,7.6-0.4c1,0,1.7-0.1,1.9-0.1c0.1,0,0.2,0,0.3,0
					c0.5-0.1,0.4-0.4,0.4-0.4c0.1-1.1,0-2.1-0.2-3.1c0-0.2-0.1-0.4-0.1-0.5c0-0.2-0.1-0.4-0.2-0.6c-0.1-0.2-0.1-0.5-0.2-0.7
					c0-0.1-0.1-0.2-0.1-0.3c-0.1-0.3-0.3-0.7-0.4-1c0,0,0-0.1,0-0.1c-0.7-1.6-1.8-3-2.9-4.1c0,0,0.1,0.1,0.1,0.1
					c-1.6-1.7-3.4-2.8-4.7-3.5c-3.1-1.7-4.3-3.8-4.9-6.3c-0.1-0.3-0.2-0.6-0.3-0.9v0c0,0,0,0,0,0c-0.1-0.2-0.2-0.4-0.3-0.6
					c0,0,0,0,0,0c-0.1-0.2-0.2-0.3-0.4-0.5c0,0,0,0-0.1-0.1c-0.1-0.1-0.3-0.3-0.4-0.4c0,0,0,0,0,0c-0.1-0.1-0.2-0.2-0.3-0.3v-5.1
					v-0.7v-8.2h0C31.3,16.6,25.7,4,25.2,3.3C25.2,3.2,25.1,3.1,25,3C25,3,25,3,25,3c0,0-0.1-0.1-0.1-0.1c0,0,0,0-0.1,0
					c0,0-0.1-0.1-0.1-0.1c0,0,0,0,0,0c0,0-0.1,0-0.1,0c0,0,0,0,0,0c0,0,0,0,0,0c-0.1,0-0.3-0.1-0.3,0c-0.2,0-0.6,0-1,0.6
					c-0.5,0.8-6.1,13.4-6.6,18.2h0v8.2v0.7v6.8c0,0.1-0.1,0.2-0.1,0.3c0,0,0,0,0,0c0,0,0,0,0,0c-0.1,0.3-0.2,0.6-0.3,0.9
					c-0.6,2.6-1.8,4.7-4.9,6.3c-1.3,0.7-3.1,1.9-4.7,3.5c0,0,0.1-0.1,0.1-0.1c-1.1,1.1-2.1,2.5-2.9,4.1c0,0,0,0.1,0,0.1
					c-0.1,0.3-0.3,0.6-0.4,1c0,0.1-0.1,0.2-0.1,0.3c-0.1,0.2-0.2,0.5-0.2,0.7C3,54.5,3,54.7,2.9,54.9c0,0.2-0.1,0.4-0.1,0.5
					c-0.2,1-0.2,2-0.2,3.1c0,0-0.1,0.3,0.4,0.4c0.1,0,0.2,0,0.3,0c0.2,0,0.9,0,1.9,0.1c1.9,0.1,5,0.2,7.6,0.4
					c1.5,0.1,2.8,0.1,3.7,0.2l-0.7,1.7l-0.7,1.7L14.4,65l-0.8,2.2l-0.7,1.8l-0.6,1.5c0,0,0,0,0.1,0c0,0,0,0,0,0c0,0,0.1,0,0.1,0.1
					c0,0,0,0,0.1,0c0.1,0,0.2,0.1,0.2,0.1c0,0,0.1,0,0.1,0c0.1,0,0.3,0.1,0.4,0.2c0,0,0,0,0.1,0c0.7,0.2,1.7,0.5,3.1,0.8
					c0,0,0,0,0,0c0,0,0,0,0,0c-0.1,0.3-0.1,0.6-0.2,0.9c0,0,0,0,0,0c0,0,0,0,0,0c0,0.1,0,0.1,0,0.2c0,0.1,0,0.2,0,0.2c0,0,0,0,0,0
					c-0.1,0.3-0.1,0.6-0.1,0.9c0,0,0,0,0,0c0,0.1,0,0.3,0,0.4c0,0,0,0,0,0c0,0.3,0,0.6-0.1,0.9h0c0,0,0,0,0,0c0,0,0,0.1,0,0.1
					c0,0.1,0,0.2,0,0.3l0,0c0,0.2,0,0.4,0,0.6c0,0,0,0,0.1,0c0,0,0,0,0,0c0,0,0.1,0,0.2,0.1c0,0,0,0,0,0v0c0.5,0.2,1.7,0.5,3.2,0.5
					v0h0c0.8,0,1.4-0.1,2-0.2v0c0,0,0,0,0,0c0.1,0,0.1,0,0.2,0c0.1,0,0.2,0,0.3-0.1c0.1,0,0.1,0,0.1,0c0.1,0,0.2-0.1,0.3-0.1
					c0,0,0.1,0,0.1,0c0.1,0,0.1,0,0.2-0.1c0,0,0,0,0.1,0c0.1,0,0.1,0,0.2-0.1c0,0,0,0,0,0c0,0,0,0,0,0c0-0.2,0-0.4,0-0.6
					c0,0,0,0,0,0c0-0.1,0-0.2,0-0.3c0,0,0-0.1,0-0.1c0,0,0,0,0,0c0,0,0,0,0,0c0-0.3,0-0.6-0.1-1h0c0-0.1,0-0.3,0-0.4c0,0,0,0,0,0
					c0-0.3-0.1-0.6-0.1-0.9c0,0,0,0,0,0c0-0.1,0-0.1,0-0.2c0-0.1,0-0.1,0-0.2c0,0,0,0,0-0.1h0c0-0.1,0-0.2-0.1-0.2c0.5,0,1,0,1.6,0
					c0.5,0,1.1,0,1.6,0c0,0.1,0,0.2-0.1,0.3c0,0,0,0,0,0c0,0,0,0,0,0c0,0.1,0,0.1,0,0.2c0,0.1,0,0.1,0,0.2c0,0,0,0,0,0
					c-0.1,0.3-0.1,0.6-0.1,0.9c0,0,0,0,0,0c0,0.1,0,0.3,0,0.4h0c0,0.3,0,0.6-0.1,0.9c0,0,0,0,0,0c0,0,0,0,0,0c0,0,0,0.1,0,0.1
					c0,0.1,0,0.2,0,0.3c0,0,0,0,0,0c0,0.2,0,0.4,0,0.6c0,0,0,0,0.1,0c0,0,0,0,0,0c0,0,0.1,0,0.2,0.1c0,0,0,0,0,0v0
					c0.5,0.2,1.7,0.5,3.2,0.5v0h0c0.8,0,1.4-0.1,2-0.2v0c0,0,0,0,0,0c0.1,0,0.1,0,0.2,0c0.1,0,0.2,0,0.3-0.1c0,0,0.1,0,0.1,0
					c0.1,0,0.2-0.1,0.3-0.1c0,0,0.1,0,0.1,0c0.1,0,0.1,0,0.2-0.1c0,0,0,0,0.1,0c0.1,0,0.1,0,0.2-0.1c0,0,0,0,0,0c0,0,0,0,0,0
					c0-0.2,0-0.4,0-0.6c0,0,0,0,0,0c0-0.1,0-0.2,0-0.3c0,0,0-0.1,0-0.1c0,0,0,0,0,0c0,0,0,0,0,0c0-0.3,0-0.6-0.1-1c0,0,0,0,0,0
					c0-0.1,0-0.3,0-0.4c0,0,0,0,0,0c0-0.3-0.1-0.6-0.1-0.9c0,0,0,0,0,0c0-0.1,0-0.1,0-0.2c0-0.1,0-0.1,0-0.2c0,0,0,0,0-0.1h0
					c-0.1-0.3-0.1-0.6-0.2-0.9c0,0,0,0,0.1,0c0.3-0.1,0.6-0.1,0.8-0.2c0.1,0,0.1,0,0.2,0c0.3-0.1,0.6-0.2,0.9-0.2c0,0,0.1,0,0.1,0
					c0.2-0.1,0.4-0.1,0.6-0.2c0.1,0,0.1,0,0.2-0.1c0.2-0.1,0.3-0.1,0.4-0.2v0c0,0,0,0,0,0c0,0,0,0,0.1,0c0.1,0,0.1-0.1,0.2-0.1
					c0,0,0.1,0,0.1,0c0,0,0.1,0,0.1,0c0,0,0,0,0.1,0c0,0,0,0,0,0c0,0,0,0,0.1,0c0,0,0.1,0,0.1,0c0,0,0,0,0,0c0,0,0,0,0,0
					c0,0,0.1,0,0.1,0l-0.5-1.3L35,67.3z"/>
				<path class="st6" d="M22.8,59.8h2.6C24.5,59.8,23.6,59.8,22.8,59.8 M34.7,67l-0.9-2.2l-0.7-1.9l-0.7-1.8l-0.7-1.7h0.3
					c0,0,0,0,0.1,0c0.5,0,2.3-0.1,4.6-0.2c2.6-0.1,5.6-0.3,7.6-0.4c1,0,1.7-0.1,1.9-0.1c0.1,0,0.2,0,0.3,0c0.5-0.1,0.4-0.4,0.4-0.4
					c0.1-1.1,0-2.1-0.2-3.1c0-0.2-0.1-0.4-0.1-0.5c0-0.2-0.1-0.4-0.2-0.6c-0.1-0.2-0.1-0.5-0.2-0.7c0-0.1-0.1-0.2-0.1-0.3
					c-0.1-0.3-0.3-0.7-0.4-1c0,0,0-0.1,0-0.1c-0.7-1.6-1.8-3-2.9-4.1c0,0,0.1,0.1,0.1,0.1c-1.6-1.7-3.4-2.8-4.7-3.5
					c-3.1-1.7-4.3-3.8-4.9-6.3c-0.1-0.3-0.2-0.6-0.3-0.9c0,0,0,0,0,0c0,0,0,0,0,0c-0.1-0.2-0.2-0.4-0.3-0.6c0,0,0,0,0,0
					c-0.1-0.2-0.2-0.3-0.4-0.5c0,0,0,0-0.1-0.1c-0.1-0.1-0.3-0.3-0.4-0.4c0,0,0,0,0,0c-0.1-0.1-0.2-0.2-0.3-0.3V30v-0.7v-8.2h0
					C31,16.3,25.4,3.7,24.9,2.9c-0.1-0.1-0.1-0.2-0.2-0.2c0,0,0,0-0.1-0.1c0,0-0.1-0.1-0.1-0.1c0,0,0,0-0.1,0c0,0-0.1-0.1-0.1-0.1
					c0,0,0,0-0.1,0c0,0-0.1,0-0.1,0c0,0,0,0,0,0l0,0c-0.1,0-0.3-0.1-0.3,0c-0.2,0-0.6,0-1,0.6c-0.5,0.8-6.1,13.4-6.6,18.2h0v8.2V30
					v6.8c0,0.1-0.1,0.2-0.1,0.3c0,0,0,0,0,0v0c-0.1,0.3-0.2,0.6-0.3,0.9c-0.6,2.6-1.8,4.7-4.9,6.3c-1.3,0.7-3.1,1.9-4.7,3.5
					c0,0,0.1-0.1,0.1-0.1c-1.1,1.1-2.1,2.5-2.9,4.1c0,0,0,0.1,0,0.1c-0.1,0.3-0.3,0.6-0.4,1C3,53,3,53.1,3,53.2
					c-0.1,0.2-0.2,0.5-0.2,0.7c-0.1,0.2-0.1,0.4-0.2,0.6c0,0.2-0.1,0.4-0.1,0.5c-0.2,1-0.2,2-0.2,3.1c0,0-0.1,0.3,0.4,0.4
					c0.1,0,0.2,0,0.3,0c0.2,0,0.9,0,1.9,0.1c1.9,0.1,5,0.2,7.6,0.4h0c1.5,0.1,2.8,0.1,3.7,0.2l-0.7,1.7l-0.7,1.7l-0.7,1.9l-0.8,2.2
					l-0.7,1.8l-0.6,1.5c0,0,0,0,0.1,0c0,0,0,0,0,0c0,0,0.1,0,0.2,0.1c0,0,0,0,0.1,0c0.1,0,0.2,0.1,0.2,0.1c0,0,0.1,0,0.1,0
					c0.1,0,0.3,0.1,0.4,0.2c0,0,0,0,0.1,0v0c0.7,0.2,1.7,0.5,3.1,0.8c0,0,0,0,0,0c0,0,0,0,0,0c-0.1,0.3-0.1,0.6-0.2,0.9c0,0,0,0,0,0
					c0,0,0,0,0,0c0,0.1,0,0.1,0,0.2c0,0.1,0,0.2,0,0.2c0,0,0,0,0,0c-0.1,0.3-0.1,0.6-0.1,0.9c0,0,0,0,0,0c0,0.1,0,0.3,0,0.4h0
					c0,0.3,0,0.6-0.1,0.9v0c0,0,0,0,0,0c0,0,0,0.1,0,0.1c0,0.1,0,0.2,0,0.3c0,0,0,0,0,0c0,0.2,0,0.4,0,0.6c0,0,0,0,0.1,0
					c0,0,0,0,0,0c0,0,0.1,0,0.2,0.1c0,0,0,0,0,0c0.5,0.2,1.7,0.5,3.2,0.5v0c0,0,0,0,0,0c0.8,0,1.4-0.1,2-0.2v0c0,0,0,0,0,0
					c0.1,0,0.1,0,0.2,0c0.1,0,0.2,0,0.3-0.1c0.1,0,0.1,0,0.1,0c0.1,0,0.2-0.1,0.3-0.1c0,0,0.1,0,0.1,0c0.1,0,0.1,0,0.2-0.1
					c0,0,0,0,0.1,0c0.1,0,0.1,0,0.2-0.1c0,0,0,0,0,0c0,0,0,0,0,0c0-0.2,0-0.4,0-0.6c0,0,0,0,0,0c0-0.1,0-0.2,0-0.3c0,0,0-0.1,0-0.1
					c0,0,0,0,0,0l0,0c0-0.3,0-0.6-0.1-1h0c0-0.1,0-0.3,0-0.4c0,0,0,0,0,0c0-0.3-0.1-0.6-0.1-0.9c0,0,0,0,0,0c0-0.1,0-0.1,0-0.2
					c0-0.1,0-0.1,0-0.2c0,0,0,0,0-0.1l0,0c0-0.1,0-0.2-0.1-0.2c0.5,0,1,0,1.6,0c0.5,0,1.1,0,1.6,0c0,0.1,0,0.2-0.1,0.3c0,0,0,0,0,0
					c0,0,0,0,0,0c0,0.1,0,0.1,0,0.2c0,0.1,0,0.1,0,0.2c0,0,0,0,0,0c-0.1,0.3-0.1,0.6-0.1,0.9c0,0,0,0,0,0c0,0.1,0,0.3,0,0.4
					c0,0.3,0,0.6-0.1,0.9c0,0,0,0,0,0c0,0,0,0,0,0c0,0,0,0.1,0,0.1c0,0.1,0,0.2,0,0.3c0,0,0,0,0,0c0,0.2,0,0.4,0,0.6c0,0,0,0,0.1,0
					c0,0,0,0,0,0c0,0,0.1,0,0.2,0.1c0,0,0,0,0,0c0.5,0.2,1.7,0.5,3.2,0.5v0c0,0,0,0,0,0c0.8,0,1.4-0.1,2-0.2v0c0,0,0,0,0,0
					c0.1,0,0.1,0,0.2,0c0.1,0,0.2,0,0.3-0.1c0,0,0.1,0,0.1,0c0.1,0,0.2-0.1,0.3-0.1c0,0,0.1,0,0.1,0c0.1,0,0.1,0,0.2-0.1
					c0,0,0,0,0.1,0c0.1,0,0.1,0,0.2-0.1c0,0,0,0,0,0c0,0,0,0,0,0c0-0.2,0-0.4,0-0.6c0,0,0,0,0,0c0-0.1,0-0.2,0-0.3c0,0,0-0.1,0-0.1
					c0,0,0,0,0,0l0,0c0-0.3,0-0.6-0.1-1h0c0-0.1,0-0.3,0-0.4c0,0,0,0,0,0c0-0.3-0.1-0.6-0.1-0.9c0,0,0,0,0,0c0-0.1,0-0.1,0-0.2
					c0-0.1,0-0.1,0-0.2c0,0,0,0,0-0.1c0,0,0,0,0,0c-0.1-0.3-0.1-0.6-0.2-0.9c0,0,0,0,0.1,0c0.3-0.1,0.6-0.1,0.8-0.2
					c0.1,0,0.1,0,0.2,0c0.3-0.1,0.6-0.2,0.9-0.2c0,0,0.1,0,0.1,0c0.2-0.1,0.4-0.1,0.6-0.2c0.1,0,0.1,0,0.2-0.1
					c0.2-0.1,0.3-0.1,0.4-0.2c0,0,0,0,0,0c0,0,0,0,0,0c0,0,0,0,0.1,0c0.1,0,0.1-0.1,0.2-0.1c0,0,0.1,0,0.1,0c0,0,0.1,0,0.1,0
					c0,0,0.1,0,0.1,0c0,0,0,0,0,0c0,0,0,0,0.1,0c0,0,0.1,0,0.1,0c0,0,0,0,0,0c0,0,0,0,0,0c0,0,0.1,0,0.1,0l-0.5-1.3L34.7,67z"/>
				<path class="st7" d="M22.5,59.5H25C24.1,59.5,23.3,59.5,22.5,59.5 M34.3,66.6l-0.9-2.2l-0.7-1.9L32,60.8l-0.7-1.7h0.3
					c0,0,0,0,0.1,0c0.5,0,2.3-0.1,4.6-0.2h0c2.6-0.1,5.6-0.3,7.6-0.4c1,0,1.7-0.1,1.9-0.1c0.1,0,0.2,0,0.3,0
					c0.5-0.1,0.4-0.4,0.4-0.4c0.1-1.1,0-2.1-0.2-3.1c0-0.2-0.1-0.4-0.1-0.5c0-0.2-0.1-0.4-0.2-0.6c-0.1-0.2-0.1-0.5-0.2-0.7
					c0-0.1-0.1-0.2-0.1-0.3c-0.1-0.3-0.3-0.7-0.4-1c0,0,0-0.1,0-0.1c-0.7-1.6-1.8-3-2.9-4.1c0,0,0.1,0.1,0.1,0.1
					c-1.6-1.7-3.4-2.8-4.7-3.5c-3.1-1.7-4.3-3.8-4.9-6.3c-0.1-0.3-0.2-0.6-0.3-0.9v0c0,0,0,0,0,0c-0.1-0.2-0.2-0.4-0.3-0.6
					c0,0,0,0,0,0c-0.1-0.2-0.2-0.3-0.4-0.5c0,0,0,0-0.1-0.1c-0.1-0.1-0.3-0.3-0.4-0.4c0,0,0,0,0,0c-0.1-0.1-0.2-0.2-0.3-0.3v-5.1V29
					v-8.2h0C30.7,16,25,3.4,24.6,2.6c-0.1-0.1-0.1-0.2-0.2-0.2c0,0,0,0-0.1-0.1c0,0-0.1-0.1-0.1-0.1c0,0,0,0-0.1,0
					c0,0-0.1-0.1-0.1-0.1c0,0,0,0,0,0c0,0-0.1,0-0.1,0c0,0,0,0,0,0c0,0,0,0,0,0c-0.1,0-0.3-0.1-0.3,0c-0.2,0-0.6,0-1,0.6
					C22.1,3.4,16.5,16,16,20.8h0V29v0.7v6.8c0,0.1-0.1,0.2-0.1,0.3c0,0,0,0,0,0v0c-0.1,0.3-0.2,0.6-0.3,0.9
					c-0.6,2.6-1.8,4.7-4.9,6.3c-1.3,0.7-3.1,1.9-4.7,3.5c0,0,0.1-0.1,0.1-0.1c-1.1,1.1-2.1,2.5-2.9,4.1c0,0,0,0.1,0,0.1
					c-0.1,0.3-0.3,0.6-0.4,1c0,0.1-0.1,0.2-0.1,0.3c-0.1,0.2-0.2,0.5-0.2,0.7c-0.1,0.2-0.1,0.4-0.2,0.6c0,0.2-0.1,0.4-0.1,0.5
					c-0.2,1-0.2,2-0.2,3.1c0,0-0.1,0.3,0.4,0.4c0.1,0,0.2,0,0.3,0c0.2,0,0.9,0,1.9,0.1c1.9,0.1,5,0.2,7.6,0.4h0
					c1.5,0.1,2.8,0.1,3.7,0.2l-0.7,1.7l-0.7,1.7l-0.7,1.9l-0.8,2.2l-0.7,1.8l-0.6,1.5c0,0,0,0,0.1,0c0,0,0,0,0,0c0,0,0.1,0,0.2,0.1
					c0,0,0,0,0.1,0c0.1,0,0.2,0.1,0.2,0.1c0,0,0.1,0,0.1,0c0.1,0,0.3,0.1,0.4,0.2c0,0,0,0,0.1,0c0.7,0.2,1.7,0.5,3.1,0.8
					c0,0,0,0,0,0c0,0,0,0,0,0c-0.1,0.3-0.1,0.6-0.2,0.9h0c0,0,0,0,0,0c0,0.1,0,0.1,0,0.2c0,0.1,0,0.2,0,0.2c0,0,0,0,0,0
					c-0.1,0.3-0.1,0.6-0.1,0.9c0,0,0,0,0,0c0,0.1,0,0.3,0,0.4h0c0,0.3,0,0.6-0.1,0.9h0c0,0,0,0,0,0c0,0,0,0.1,0,0.1
					c0,0.1,0,0.2,0,0.3c0,0,0,0,0,0c0,0.2,0,0.4,0,0.6c0,0,0,0,0.1,0c0,0,0,0,0,0c0,0,0.1,0,0.2,0.1c0,0,0,0,0,0v0
					c0.5,0.2,1.7,0.5,3.2,0.5v0c0,0,0,0,0,0c0.8,0,1.4-0.1,2-0.2v0c0,0,0,0,0,0c0.1,0,0.1,0,0.2,0c0.1,0,0.2,0,0.3-0.1
					c0.1,0,0.1,0,0.1,0c0.1,0,0.2-0.1,0.3-0.1c0,0,0.1,0,0.1,0c0.1,0,0.1,0,0.2-0.1c0,0,0,0,0.1,0c0.1,0,0.1,0,0.2-0.1c0,0,0,0,0,0
					c0,0,0,0,0,0c0-0.2,0-0.4,0-0.6c0,0,0,0,0,0c0-0.1,0-0.2,0-0.3c0,0,0-0.1,0-0.1c0,0,0,0,0,0h0c0-0.3,0-0.6-0.1-1h0
					c0-0.1,0-0.3,0-0.4c0,0,0,0,0,0c0-0.3-0.1-0.6-0.1-0.9c0,0,0,0,0,0c0-0.1,0-0.1,0-0.2c0-0.1,0-0.1,0-0.2c0,0,0,0,0-0.1h0
					c0-0.1,0-0.2-0.1-0.2c0.5,0,1,0,1.6,0c0.5,0,1.1,0,1.6,0c0,0.1,0,0.2-0.1,0.3h0c0,0,0,0,0,0c0,0.1,0,0.1,0,0.2
					c0,0.1,0,0.1,0,0.2c0,0,0,0,0,0c-0.1,0.3-0.1,0.6-0.1,0.9c0,0,0,0,0,0c0,0.1,0,0.3,0,0.4h0c0,0.3,0,0.6-0.1,0.9c0,0,0,0,0,0
					c0,0,0,0.1,0,0.1c0,0.1,0,0.2,0,0.3c0,0,0,0,0,0c0,0.2,0,0.4,0,0.6c0,0,0,0,0.1,0c0,0,0,0,0,0c0,0,0.1,0,0.2,0.1c0,0,0,0,0,0
					c0.5,0.2,1.7,0.5,3.2,0.5v0c0,0,0,0,0,0c0.8,0,1.4-0.1,2-0.2v0c0,0,0,0,0,0c0.1,0,0.1,0,0.2,0c0.1,0,0.2,0,0.3-0.1
					c0,0,0.1,0,0.1,0c0.1,0,0.2-0.1,0.3-0.1c0,0,0.1,0,0.1,0c0.1,0,0.1,0,0.2-0.1c0,0,0,0,0.1,0c0.1,0,0.1,0,0.2-0.1c0,0,0,0,0,0
					c0,0,0,0,0,0c0-0.2,0-0.4,0-0.6c0,0,0,0,0,0c0-0.1,0-0.2,0-0.3c0,0,0-0.1,0-0.1c0,0,0,0,0,0h0c0-0.3,0-0.6-0.1-1c0,0,0,0,0,0
					c0-0.1,0-0.3,0-0.4c0,0,0,0,0,0c0-0.3-0.1-0.6-0.1-0.9c0,0,0,0,0,0c0-0.1,0-0.1,0-0.2c0-0.1,0-0.1,0-0.2c0,0,0,0,0-0.1h0
					c-0.1-0.3-0.1-0.6-0.2-0.9c0,0,0,0,0.1,0c0.3-0.1,0.6-0.1,0.8-0.2c0.1,0,0.1,0,0.2,0c0.3-0.1,0.6-0.2,0.9-0.2c0,0,0.1,0,0.1,0
					c0.2-0.1,0.4-0.1,0.6-0.2c0.1,0,0.1,0,0.2-0.1c0.2-0.1,0.3-0.1,0.4-0.2c0,0,0,0,0,0c0,0,0,0,0,0c0,0,0,0,0.1,0
					c0.1,0,0.1-0.1,0.2-0.1c0,0,0.1,0,0.1,0c0,0,0.1,0,0.1,0c0,0,0,0,0.1,0c0,0,0,0,0,0c0,0,0,0,0.1,0c0,0,0.1,0,0.1,0c0,0,0,0,0,0
					c0,0,0,0,0,0c0,0,0.1,0,0.1,0l-0.5-1.3L34.3,66.6z"/>
				<path class="st8" d="M22.1,59.1h2.6C23.8,59.2,23,59.2,22.1,59.1 M34,66.3l-0.9-2.2l-0.7-1.9l-0.7-1.8L31,58.7h0.3
					c0,0,0,0,0.1,0c0.5,0,2.3-0.1,4.6-0.2c2.6-0.1,5.6-0.3,7.6-0.4c1,0,1.7-0.1,1.9-0.1c0.1,0,0.2,0,0.3,0c0.5-0.1,0.4-0.4,0.4-0.4
					c0.1-1.1,0-2.1-0.2-3.1c0-0.2-0.1-0.4-0.1-0.5c0-0.2-0.1-0.4-0.2-0.6c-0.1-0.2-0.1-0.5-0.2-0.7c0-0.1-0.1-0.2-0.1-0.3
					c-0.1-0.3-0.3-0.7-0.4-1c0,0,0-0.1,0-0.1c-0.7-1.6-1.8-3-2.9-4.1c0,0,0.1,0.1,0.1,0.1c-1.6-1.7-3.4-2.8-4.7-3.5
					c-3.1-1.7-4.3-3.8-4.9-6.3c-0.1-0.3-0.2-0.6-0.3-0.9v0c0,0,0,0,0,0c-0.1-0.2-0.2-0.4-0.3-0.6c0,0,0,0,0,0
					c-0.1-0.2-0.2-0.3-0.4-0.5c0,0,0,0-0.1-0.1c-0.1-0.1-0.3-0.3-0.4-0.4c0,0,0,0,0,0c-0.1-0.1-0.2-0.2-0.3-0.3v-5.2v-0.7v-8.2h0
					C30.3,15.6,24.7,3,24.2,2.3c-0.1-0.1-0.1-0.2-0.2-0.2C24,2,24,2,24,2c0,0-0.1-0.1-0.1-0.1c0,0,0,0-0.1,0c0,0-0.1-0.1-0.1-0.1
					c0,0,0,0,0,0c0,0-0.1,0-0.1,0c0,0,0,0,0,0c0,0,0,0,0,0c-0.1,0-0.3-0.1-0.3,0c-0.2,0-0.6,0-1,0.6c-0.5,0.8-6.1,13.4-6.6,18.2h0
					v8.2v0.7v6.8c0,0.1-0.1,0.2-0.1,0.3c0,0,0,0,0,0c0,0,0,0,0,0c-0.1,0.3-0.2,0.6-0.3,0.9c-0.6,2.6-1.8,4.7-4.9,6.3
					c-1.3,0.7-3.1,1.9-4.7,3.5c0,0,0.1-0.1,0.1-0.1c-1.1,1.1-2.1,2.5-2.9,4.1c0,0,0,0.1,0,0.1c-0.1,0.3-0.3,0.6-0.4,1
					c0,0.1-0.1,0.2-0.1,0.3c-0.1,0.2-0.2,0.5-0.2,0.7C2,53.5,2,53.7,1.9,53.9c0,0.2-0.1,0.4-0.1,0.5c-0.2,1-0.2,2-0.2,3.1
					c0,0-0.1,0.3,0.4,0.4c0.1,0,0.2,0,0.3,0c0.2,0,0.9,0,1.9,0.1c1.9,0.1,5,0.2,7.6,0.4c1.5,0.1,2.8,0.1,3.7,0.2l-0.7,1.7l-0.7,1.7
					L13.4,64l-0.8,2.2L11.9,68l-0.6,1.5c0,0,0,0,0.1,0c0,0,0,0,0,0c0,0,0.1,0,0.1,0.1c0,0,0,0,0.1,0c0.1,0,0.2,0.1,0.2,0.1
					c0,0,0.1,0,0.1,0c0.1,0,0.3,0.1,0.4,0.2c0,0,0,0,0.1,0c0,0,0,0,0,0c0.7,0.2,1.7,0.5,3.1,0.8c0,0,0,0,0,0c0,0,0,0,0,0
					c-0.1,0.3-0.1,0.6-0.2,0.9l0,0c0,0,0,0,0,0c0,0.1,0,0.1,0,0.2c0,0.1,0,0.2,0,0.2c0,0,0,0,0,0c-0.1,0.3-0.1,0.6-0.1,0.9
					c0,0,0,0,0,0c0,0.1,0,0.3,0,0.4c0,0,0,0,0,0c0,0.3,0,0.6-0.1,0.9h0c0,0,0,0,0,0c0,0,0,0.1,0,0.1c0,0.1,0,0.2,0,0.3l0,0
					c0,0.2,0,0.4,0,0.6c0,0,0,0,0.1,0c0,0,0,0,0,0c0,0,0.1,0,0.2,0.1c0,0,0,0,0,0v0c0.5,0.2,1.7,0.5,3.2,0.5v0c0,0,0,0,0,0
					c0.8,0,1.4-0.1,2-0.2v0c0,0,0,0,0,0c0.1,0,0.1,0,0.2,0c0.1,0,0.2,0,0.3-0.1c0.1,0,0.1,0,0.1,0c0.1,0,0.2-0.1,0.3-0.1
					c0,0,0.1,0,0.1,0c0.1,0,0.1,0,0.2-0.1c0,0,0,0,0.1,0c0.1,0,0.1,0,0.2-0.1c0,0,0,0,0,0c0,0,0,0,0,0c0-0.2,0-0.4,0-0.6
					c0,0,0,0,0,0c0-0.1,0-0.2,0-0.3c0,0,0-0.1,0-0.1c0,0,0,0,0,0c0,0,0,0,0,0c0-0.3,0-0.6-0.1-1h0c0-0.1,0-0.3,0-0.4c0,0,0,0,0,0
					c0-0.3-0.1-0.6-0.1-0.9c0,0,0,0,0,0c0-0.1,0-0.1,0-0.2c0-0.1,0-0.1,0-0.2c0,0,0,0,0-0.1h0c0-0.1,0-0.2-0.1-0.2c0.5,0,1,0,1.6,0
					c0.5,0,1.1,0,1.6,0c0,0.1,0,0.2-0.1,0.3c0,0,0,0,0,0c0,0,0,0,0,0c0,0.1,0,0.1,0,0.2c0,0.1,0,0.1,0,0.2c0,0,0,0,0,0
					c-0.1,0.3-0.1,0.6-0.1,0.9c0,0,0,0,0,0c0,0.1,0,0.3,0,0.4h0c0,0.3,0,0.6-0.1,0.9c0,0,0,0,0,0c0,0,0,0,0,0c0,0,0,0.1,0,0.1
					c0,0.1,0,0.2,0,0.3c0,0,0,0,0,0c0,0.2,0,0.4,0,0.6c0,0,0,0,0.1,0c0,0,0,0,0,0c0,0,0.1,0,0.2,0.1c0,0,0,0,0,0v0
					c0.5,0.2,1.7,0.5,3.2,0.5v0c0,0,0,0,0,0c0.8,0,1.4-0.1,2-0.2c0,0,0,0,0,0c0,0,0,0,0,0c0.1,0,0.1,0,0.2,0c0.1,0,0.2,0,0.3-0.1
					c0,0,0.1,0,0.1,0c0.1,0,0.2-0.1,0.3-0.1c0,0,0.1,0,0.1,0c0.1,0,0.1,0,0.2-0.1c0,0,0,0,0.1,0c0.1,0,0.1,0,0.2-0.1c0,0,0,0,0,0
					c0,0,0,0,0,0c0-0.2,0-0.4,0-0.6c0,0,0,0,0,0c0-0.1,0-0.2,0-0.3c0,0,0-0.1,0-0.1c0,0,0,0,0,0c0,0,0,0,0,0c0-0.3,0-0.6-0.1-1h0
					c0-0.1,0-0.3,0-0.4c0,0,0,0,0,0c0-0.3-0.1-0.6-0.1-0.9c0,0,0,0,0,0c0-0.1,0-0.1,0-0.2c0-0.1,0-0.1,0-0.2c0,0,0,0,0-0.1h0
					c-0.1-0.3-0.1-0.6-0.2-0.9c0,0,0,0,0.1,0c0.3-0.1,0.6-0.1,0.8-0.2c0.1,0,0.1,0,0.2,0c0.3-0.1,0.6-0.2,0.9-0.2c0,0,0.1,0,0.1,0
					c0.2-0.1,0.4-0.1,0.6-0.2c0.1,0,0.1,0,0.2-0.1c0.2-0.1,0.3-0.1,0.4-0.2v0c0,0,0,0,0,0c0,0,0,0,0.1,0c0.1,0,0.1-0.1,0.2-0.1
					c0,0,0.1,0,0.1,0c0,0,0.1,0,0.1,0c0,0,0,0,0.1,0c0,0,0,0,0,0c0,0,0,0,0.1,0c0,0,0.1,0,0.1,0c0,0,0,0,0,0c0,0,0,0,0,0
					c0,0,0.1,0,0.1,0l-0.5-1.3L34,66.3z"/>
				<path class="st9" d="M21.8,58.8h2.6C23.5,58.8,22.6,58.8,21.8,58.8 M33.7,66l-0.9-2.2l-0.7-1.9l-0.7-1.8l-0.7-1.7H31
					c0,0,0,0,0.1,0c0.5,0,2.3-0.1,4.6-0.2c2.6-0.1,5.6-0.3,7.6-0.4c1,0,1.7-0.1,1.9-0.1c0.1,0,0.2,0,0.3,0c0.5-0.1,0.4-0.4,0.4-0.4
					c0.1-1.1,0-2.1-0.2-3.1c0-0.2-0.1-0.4-0.1-0.5c0-0.2-0.1-0.4-0.2-0.6c-0.1-0.2-0.1-0.5-0.2-0.7c0-0.1-0.1-0.2-0.1-0.3
					c-0.1-0.3-0.3-0.7-0.4-1c0,0,0-0.1,0-0.1c-0.7-1.6-1.8-3-2.9-4.1c0,0,0.1,0.1,0.1,0.1c-1.6-1.7-3.4-2.8-4.7-3.5
					c-3.1-1.7-4.3-3.8-4.9-6.3c-0.1-0.3-0.2-0.6-0.3-0.9c0,0,0,0,0,0c0,0,0,0,0,0c-0.1-0.2-0.2-0.4-0.3-0.6c0,0,0,0,0,0
					c-0.1-0.2-0.2-0.3-0.4-0.5c0,0,0,0-0.1-0.1c-0.1-0.1-0.3-0.3-0.4-0.4c0,0,0,0,0,0c-0.1-0.1-0.2-0.2-0.3-0.3V29v-0.7v-8.2h0
					C30,15.3,24.4,2.7,23.9,1.9c-0.1-0.1-0.1-0.2-0.2-0.2c0,0,0,0-0.1-0.1c0,0-0.1-0.1-0.1-0.1c0,0,0,0-0.1,0c0,0-0.1-0.1-0.1-0.1
					c0,0,0,0-0.1,0c0,0-0.1,0-0.1,0c0,0,0,0,0,0l0,0c-0.1,0-0.3-0.1-0.3,0c-0.2,0-0.6,0-1,0.6c-0.5,0.8-6.1,13.4-6.6,18.2h0v8.2V29
					v6.8c0,0.1-0.1,0.2-0.1,0.3c0,0,0,0,0,0v0c-0.1,0.3-0.2,0.6-0.3,0.9c-0.6,2.6-1.8,4.7-4.9,6.3c-1.3,0.7-3.1,1.9-4.7,3.5
					c0,0,0.1-0.1,0.1-0.1c-1.1,1.1-2.1,2.5-2.9,4.1c0,0,0,0.1,0,0.1c-0.1,0.3-0.3,0.6-0.4,1C2,52,2,52.1,2,52.2
					c-0.1,0.2-0.2,0.5-0.2,0.7c-0.1,0.2-0.1,0.4-0.2,0.6c0,0.2-0.1,0.4-0.1,0.5c-0.2,1-0.2,2-0.2,3.1c0,0-0.1,0.3,0.4,0.4
					c0.1,0,0.2,0,0.3,0c0.2,0,0.9,0,1.9,0.1c1.9,0.1,5,0.2,7.6,0.4h0c1.5,0.1,2.8,0.1,3.7,0.2l-0.7,1.7l-0.7,1.7l-0.7,1.9l-0.8,2.2
					l-0.7,1.8l-0.6,1.5c0,0,0,0,0.1,0c0,0,0,0,0,0c0,0,0.1,0,0.2,0.1c0,0,0,0,0.1,0c0.1,0,0.2,0.1,0.2,0.1c0,0,0.1,0,0.1,0
					c0.1,0,0.3,0.1,0.4,0.2c0,0,0,0,0.1,0v0c0.7,0.2,1.7,0.5,3.1,0.8c0,0,0,0,0,0c0,0,0,0,0,0c-0.1,0.3-0.1,0.6-0.2,0.9l0,0
					c0,0,0,0,0,0c0,0.1,0,0.1,0,0.2c0,0.1,0,0.2,0,0.2c0,0,0,0,0,0c-0.1,0.3-0.1,0.6-0.1,0.9c0,0,0,0,0,0c0,0.1,0,0.3,0,0.4h0
					c0,0.3,0,0.6-0.1,0.9h0v0c0,0,0,0.1,0,0.1c0,0.1,0,0.2,0,0.3c0,0,0,0,0,0c0,0.2,0,0.4,0,0.6c0,0,0,0,0.1,0c0,0,0,0,0,0
					c0,0,0.1,0,0.2,0.1c0,0,0,0,0,0c0.5,0.2,1.7,0.5,3.2,0.5v0c0,0,0,0,0,0c0.8,0,1.4-0.1,2-0.2v0c0,0,0,0,0,0c0.1,0,0.1,0,0.2,0
					c0.1,0,0.2,0,0.3-0.1c0.1,0,0.1,0,0.1,0c0.1,0,0.2-0.1,0.3-0.1c0,0,0.1,0,0.1,0c0.1,0,0.1,0,0.2-0.1c0,0,0,0,0.1,0
					c0.1,0,0.1,0,0.2-0.1c0,0,0,0,0,0c0,0,0,0,0,0c0-0.2,0-0.4,0-0.6c0,0,0,0,0,0c0-0.1,0-0.2,0-0.3c0,0,0-0.1,0-0.1c0,0,0,0,0,0
					c0,0,0,0,0,0c0-0.3,0-0.6-0.1-1h0c0-0.1,0-0.3,0-0.4c0,0,0,0,0,0c0-0.3-0.1-0.6-0.1-0.9c0,0,0,0,0,0c0-0.1,0-0.1,0-0.2
					c0-0.1,0-0.1,0-0.2c0,0,0,0,0-0.1l0,0c0-0.1,0-0.2-0.1-0.2c0.5,0,1,0,1.6,0c0.5,0,1.1,0,1.6,0c0,0.1,0,0.2-0.1,0.3c0,0,0,0,0,0
					c0,0,0,0,0,0c0,0.1,0,0.1,0,0.2c0,0.1,0,0.1,0,0.2c0,0,0,0,0,0c-0.1,0.3-0.1,0.6-0.1,0.9c0,0,0,0,0,0c0,0.1,0,0.3,0,0.4h0
					c0,0.3,0,0.6-0.1,0.9c0,0,0,0,0,0c0,0,0,0.1,0,0.1c0,0.1,0,0.2,0,0.3l0,0c0,0.2,0,0.4,0,0.6c0,0,0,0,0.1,0c0,0,0,0,0,0
					c0,0,0.1,0,0.2,0.1c0,0,0,0,0,0c0.5,0.2,1.7,0.5,3.2,0.5v0c0,0,0,0,0,0c0.8,0,1.4-0.1,2-0.2v0c0,0,0,0,0,0c0.1,0,0.1,0,0.2,0
					c0.1,0,0.2,0,0.3-0.1c0,0,0.1,0,0.1,0c0.1,0,0.2-0.1,0.3-0.1c0,0,0.1,0,0.1,0c0.1,0,0.1,0,0.2-0.1c0,0,0,0,0.1,0
					c0.1,0,0.1,0,0.2-0.1c0,0,0,0,0,0c0,0,0,0,0,0c0-0.2,0-0.4,0-0.6c0,0,0,0,0,0c0-0.1,0-0.2,0-0.3c0,0,0-0.1,0-0.1c0,0,0,0,0,0
					c0,0,0,0,0,0c0-0.3,0-0.6-0.1-1h0c0-0.1,0-0.3,0-0.4c0,0,0,0,0,0c0-0.3-0.1-0.6-0.1-0.9c0,0,0,0,0,0c0-0.1,0-0.1,0-0.2
					c0-0.1,0-0.1,0-0.2c0,0,0,0,0-0.1c0,0,0,0,0,0c-0.1-0.3-0.1-0.6-0.2-0.9c0,0,0,0,0.1,0c0.3-0.1,0.6-0.1,0.8-0.2
					c0.1,0,0.1,0,0.2,0c0.3-0.1,0.6-0.2,0.9-0.2c0,0,0.1,0,0.1,0c0.2-0.1,0.4-0.1,0.6-0.2c0.1,0,0.1,0,0.2-0.1
					c0.2-0.1,0.3-0.1,0.4-0.2l0,0c0,0,0,0,0,0c0,0,0,0,0.1,0c0.1,0,0.1-0.1,0.2-0.1c0,0,0.1,0,0.1,0c0,0,0.1,0,0.1,0
					c0,0,0.1,0,0.1,0c0,0,0,0,0,0c0,0,0,0,0.1,0c0,0,0.1,0,0.1,0c0,0,0,0,0,0c0,0,0,0,0,0c0,0,0.1,0,0.1,0l-0.5-1.3L33.7,66z"/>
				<path class="st10" d="M21.5,58.5h2.6C23.2,58.5,22.3,58.5,21.5,58.5 M33.3,65.7l-0.9-2.2l-0.7-1.9L31,59.8l-0.7-1.7h0.3
					c0,0,0,0,0.1,0c0.5,0,2.3-0.1,4.6-0.2c0,0,0,0,0,0c2.6-0.1,5.6-0.3,7.6-0.4c1,0,1.7-0.1,1.9-0.1c0.1,0,0.2,0,0.3,0
					c0.5-0.1,0.4-0.4,0.4-0.4c0.1-1.1,0-2.1-0.2-3.1c0-0.2-0.1-0.4-0.1-0.5c0-0.2-0.1-0.4-0.2-0.6c-0.1-0.2-0.1-0.5-0.2-0.7
					c0-0.1-0.1-0.2-0.1-0.3c-0.1-0.3-0.3-0.7-0.4-1c0,0,0-0.1,0-0.1c-0.7-1.6-1.8-3-2.9-4.1c0,0,0.1,0.1,0.1,0.1
					c-1.6-1.7-3.4-2.8-4.7-3.5c-3.1-1.7-4.3-3.8-4.9-6.3c-0.1-0.3-0.2-0.6-0.3-0.9v0c0,0,0,0,0,0c-0.1-0.2-0.2-0.4-0.3-0.6
					c0,0,0,0,0,0c-0.1-0.2-0.2-0.3-0.4-0.5c0,0,0,0-0.1-0.1c-0.1-0.1-0.3-0.3-0.4-0.4c0,0,0,0,0,0c-0.1-0.1-0.2-0.2-0.3-0.3v-5.2V28
					v-8.2h0C29.7,15,24.1,2.4,23.6,1.6c-0.1-0.1-0.1-0.2-0.2-0.2c0,0,0,0-0.1-0.1c0,0-0.1-0.1-0.1-0.1c0,0,0,0-0.1,0
					c0,0-0.1-0.1-0.1-0.1c0,0,0,0,0,0c0,0-0.1,0-0.1,0c0,0,0,0,0,0c0,0,0,0,0,0c-0.1,0-0.3-0.1-0.3,0c-0.2,0-0.6,0-1,0.6
					C21.1,2.4,15.5,15,15,19.8h0V28v0.7v6.8c0,0.1-0.1,0.2-0.1,0.3c0,0,0,0,0,0v0c-0.1,0.3-0.2,0.6-0.3,0.9
					c-0.6,2.6-1.8,4.7-4.9,6.3c-1.3,0.7-3.1,1.9-4.7,3.5c0,0,0.1-0.1,0.1-0.1c-1.1,1.1-2.1,2.5-2.9,4.1c0,0,0,0.1,0,0.1
					c-0.1,0.3-0.3,0.6-0.4,1c0,0.1-0.1,0.2-0.1,0.3c-0.1,0.2-0.2,0.5-0.2,0.7c-0.1,0.2-0.1,0.4-0.2,0.6c0,0.2-0.1,0.4-0.1,0.5
					c-0.2,1-0.2,2-0.2,3.1c0,0-0.1,0.3,0.4,0.4c0.1,0,0.2,0,0.3,0c0.2,0,0.9,0,1.9,0.1c1.9,0.1,5,0.2,7.6,0.4c0,0,0,0,0,0
					c1.5,0.1,2.8,0.1,3.7,0.2l-0.7,1.7l-0.7,1.7l-0.7,1.9l-0.8,2.2l-0.7,1.8l-0.6,1.5c0,0,0,0,0.1,0c0,0,0,0,0,0c0,0,0.1,0,0.2,0.1
					c0,0,0,0,0.1,0c0.1,0,0.2,0.1,0.2,0.1c0,0,0.1,0,0.1,0c0.1,0,0.3,0.1,0.4,0.2c0,0,0,0,0.1,0c0.7,0.2,1.7,0.5,3.1,0.8
					c0,0,0,0,0,0c0,0,0,0,0,0c-0.1,0.3-0.1,0.6-0.2,0.9h0c0,0,0,0,0,0c0,0.1,0,0.1,0,0.2c0,0.1,0,0.2,0,0.2c0,0,0,0,0,0
					c-0.1,0.3-0.1,0.6-0.1,0.9c0,0,0,0,0,0c0,0.1,0,0.3,0,0.4c0,0,0,0,0,0c0,0.3,0,0.6-0.1,0.9h0c0,0,0,0,0,0c0,0,0,0.1,0,0.1
					c0,0.1,0,0.2,0,0.3c0,0,0,0,0,0c0,0.2,0,0.4,0,0.6c0,0,0,0,0.1,0c0,0,0,0,0,0c0,0,0.1,0,0.2,0.1c0,0,0,0,0,0v0
					c0.5,0.2,1.7,0.5,3.2,0.5v0c0,0,0,0,0,0c0.8,0,1.4-0.1,2-0.2v0c0,0,0,0,0,0c0.1,0,0.1,0,0.2,0c0.1,0,0.2,0,0.3-0.1
					c0.1,0,0.1,0,0.1,0c0.1,0,0.2-0.1,0.3-0.1c0,0,0.1,0,0.1,0c0.1,0,0.1,0,0.2-0.1c0,0,0,0,0.1,0c0.1,0,0.1,0,0.2-0.1c0,0,0,0,0,0
					c0,0,0,0,0,0c0-0.2,0-0.4,0-0.6c0,0,0,0,0,0c0-0.1,0-0.2,0-0.3c0,0,0-0.1,0-0.1c0,0,0,0,0,0h0c0-0.3,0-0.6-0.1-1h0
					c0-0.1,0-0.3,0-0.4c0,0,0,0,0,0c0-0.3-0.1-0.6-0.1-0.9c0,0,0,0,0,0c0-0.1,0-0.1,0-0.2c0-0.1,0-0.1,0-0.2c0,0,0,0,0-0.1h0
					c0-0.1,0-0.2-0.1-0.2c0.5,0,1,0,1.6,0c0.5,0,1.1,0,1.6,0c0,0.1,0,0.2-0.1,0.3h0c0,0,0,0,0,0c0,0.1,0,0.1,0,0.2
					c0,0.1,0,0.1,0,0.2c0,0,0,0,0,0c-0.1,0.3-0.1,0.6-0.1,0.9c0,0,0,0,0,0c0,0.1,0,0.3,0,0.4h0c0,0.3,0,0.6-0.1,0.9h0v0
					c0,0,0,0.1,0,0.1c0,0.1,0,0.2,0,0.3c0,0,0,0,0,0c0,0.2,0,0.4,0,0.6c0,0,0,0,0.1,0c0,0,0,0,0,0c0,0,0.1,0,0.2,0.1c0,0,0,0,0,0v0
					c0.5,0.2,1.7,0.5,3.2,0.5v0c0,0,0,0,0,0c0.8,0,1.4-0.1,2-0.2v0c0,0,0,0,0,0c0.1,0,0.1,0,0.2,0c0.1,0,0.2,0,0.3-0.1
					c0,0,0.1,0,0.1,0c0.1,0,0.2-0.1,0.3-0.1c0,0,0.1,0,0.1,0c0.1,0,0.1,0,0.2-0.1c0,0,0,0,0.1,0c0.1,0,0.1,0,0.2-0.1c0,0,0,0,0,0
					c0,0,0,0,0,0c0-0.2,0-0.4,0-0.6c0,0,0,0,0,0c0-0.1,0-0.2,0-0.3c0,0,0-0.1,0-0.1c0,0,0,0,0,0h0c0-0.3,0-0.6-0.1-1c0,0,0,0,0,0
					c0-0.1,0-0.3,0-0.4c0,0,0,0,0,0c0-0.3-0.1-0.6-0.1-0.9c0,0,0,0,0,0c0-0.1,0-0.1,0-0.2c0-0.1,0-0.1,0-0.2c0,0,0,0,0-0.1h0
					c-0.1-0.3-0.1-0.6-0.2-0.9c0,0,0,0,0.1,0c0.3-0.1,0.6-0.1,0.8-0.2c0.1,0,0.1,0,0.2,0c0.3-0.1,0.6-0.2,0.9-0.2c0,0,0.1,0,0.1,0
					c0.2-0.1,0.4-0.1,0.6-0.2c0.1,0,0.1,0,0.2-0.1c0.2-0.1,0.3-0.1,0.4-0.2c0,0,0,0,0,0c0,0,0,0,0,0c0,0,0,0,0.1,0
					c0.1,0,0.1-0.1,0.2-0.1c0,0,0.1,0,0.1,0c0,0,0.1,0,0.1,0c0,0,0,0,0.1,0c0,0,0,0,0,0c0,0,0,0,0.1,0c0,0,0.1,0,0.1,0c0,0,0,0,0,0
					c0,0,0,0,0,0c0,0,0.1,0,0.1,0l-0.5-1.3L33.3,65.7z"/>
				<path class="st11" d="M21.1,58.2h2.6C22.8,58.2,22,58.2,21.1,58.2 M33,65.3l-0.9-2.2l-0.7-1.9l-0.7-1.8L30,57.7h0.3
					c0,0,0,0,0.1,0c0.5,0,2.3-0.1,4.6-0.2h0c2.6-0.1,5.6-0.3,7.6-0.4c1,0,1.7-0.1,1.9-0.1c0.1,0,0.2,0,0.3,0
					c0.5-0.1,0.4-0.4,0.4-0.4c0.1-1.1,0-2.1-0.2-3.1c0-0.2-0.1-0.4-0.1-0.5c0-0.2-0.1-0.4-0.2-0.6c-0.1-0.2-0.1-0.5-0.2-0.7
					c0-0.1-0.1-0.2-0.1-0.3c-0.1-0.3-0.3-0.7-0.4-1c0,0,0-0.1,0-0.1c-0.7-1.6-1.8-3-2.9-4.1c0,0,0.1,0.1,0.1,0.1
					c-1.6-1.7-3.4-2.8-4.7-3.5c-3.1-1.7-4.3-3.8-4.9-6.3c-0.1-0.3-0.2-0.6-0.3-0.9v0c0,0,0,0,0,0c-0.1-0.2-0.2-0.4-0.3-0.6
					c0,0,0,0,0,0c-0.1-0.2-0.2-0.3-0.4-0.5c0,0,0,0-0.1-0.1c-0.1-0.1-0.3-0.3-0.4-0.4c0,0,0,0,0,0c-0.1-0.1-0.2-0.2-0.3-0.3v-5.1
					v-0.7v-8.2h0c-0.4-4.8-6.1-17.4-6.6-18.2c-0.1-0.1-0.1-0.2-0.2-0.2c0,0,0,0-0.1-0.1c0,0-0.1-0.1-0.1-0.1c0,0,0,0-0.1,0
					c0,0-0.1-0.1-0.1-0.1c0,0,0,0,0,0c0,0-0.1,0-0.1,0c0,0,0,0,0,0c0,0,0,0,0,0c-0.1,0-0.3-0.1-0.3,0c-0.2,0-0.6,0-1,0.6
					c-0.5,0.8-6.1,13.4-6.6,18.2h0v8.2v0.7v6.8c0,0.1-0.1,0.2-0.1,0.3c0,0,0,0,0,0c0,0,0,0,0,0c-0.1,0.3-0.2,0.6-0.3,0.9
					c-0.6,2.6-1.8,4.7-4.9,6.3c-1.3,0.7-3.1,1.9-4.7,3.5c0,0,0.1-0.1,0.1-0.1c-1.1,1.1-2.1,2.5-2.9,4.1c0,0,0,0.1,0,0.1
					c-0.1,0.3-0.3,0.6-0.4,1c0,0.1-0.1,0.2-0.1,0.3c-0.1,0.2-0.2,0.5-0.2,0.7C1,52.5,1,52.7,0.9,52.9c0,0.2-0.1,0.4-0.1,0.5
					c-0.2,1-0.2,2-0.2,3.1c0,0-0.1,0.3,0.4,0.4c0.1,0,0.2,0,0.3,0c0.2,0,0.9,0,1.9,0.1c1.9,0.1,5,0.2,7.6,0.4
					c1.5,0.1,2.8,0.1,3.7,0.2l-0.7,1.7l-0.7,1.7L12.5,63l-0.8,2.2L10.9,67l-0.6,1.5c0,0,0,0,0.1,0c0,0,0,0,0,0c0,0,0.1,0,0.1,0.1
					c0,0,0,0,0.1,0c0.1,0,0.2,0.1,0.2,0.1c0,0,0.1,0,0.1,0c0.1,0,0.3,0.1,0.4,0.2c0,0,0,0,0.1,0c0.7,0.2,1.7,0.5,3.1,0.8
					c0,0,0,0,0,0c0,0,0,0,0,0c-0.1,0.3-0.1,0.6-0.2,0.9l0,0c0,0,0,0,0,0c0,0.1,0,0.1,0,0.2c0,0.1,0,0.2,0,0.2c0,0,0,0,0,0
					c-0.1,0.3-0.1,0.6-0.1,0.9c0,0,0,0,0,0c0,0.1,0,0.3,0,0.4l0,0c0,0.3,0,0.6-0.1,0.9h0c0,0,0,0,0,0c0,0,0,0.1,0,0.1
					c0,0.1,0,0.2,0,0.3l0,0c0,0.2,0,0.4,0,0.6c0,0,0,0,0.1,0c0,0,0,0,0,0c0,0,0.1,0,0.2,0.1c0,0,0,0,0,0v0c0.5,0.2,1.7,0.5,3.2,0.5
					v0h0c0.8,0,1.4-0.1,2-0.2v0c0,0,0,0,0,0c0.1,0,0.1,0,0.2,0c0.1,0,0.2,0,0.3-0.1c0.1,0,0.1,0,0.1,0c0.1,0,0.2-0.1,0.3-0.1
					c0,0,0.1,0,0.1,0c0.1,0,0.1,0,0.2-0.1c0,0,0,0,0.1,0c0.1,0,0.1,0,0.2-0.1c0,0,0,0,0,0c0,0,0,0,0,0c0-0.2,0-0.4,0-0.6
					c0,0,0,0,0,0c0-0.1,0-0.2,0-0.3c0,0,0-0.1,0-0.1c0,0,0,0,0,0c0,0,0,0,0,0c0-0.3,0-0.6-0.1-1h0c0-0.1,0-0.3,0-0.4c0,0,0,0,0,0
					c0-0.3-0.1-0.6-0.1-0.9c0,0,0,0,0,0c0-0.1,0-0.1,0-0.2c0-0.1,0-0.1,0-0.2c0,0,0,0,0-0.1c0,0,0,0,0,0c0-0.1,0-0.2-0.1-0.2
					c0.5,0,1,0,1.6,0c0.5,0,1.1,0,1.6,0c0,0.1,0,0.2-0.1,0.3c0,0,0,0,0,0c0,0,0,0,0,0c0,0.1,0,0.1,0,0.2c0,0.1,0,0.1,0,0.2
					c0,0,0,0,0,0c-0.1,0.3-0.1,0.6-0.1,0.9c0,0,0,0,0,0c0,0.1,0,0.3,0,0.4h0c0,0.3,0,0.6-0.1,0.9h0c0,0,0,0,0,0c0,0,0,0.1,0,0.1
					c0,0.1,0,0.2,0,0.3c0,0,0,0,0,0c0,0.2,0,0.4,0,0.6c0,0,0,0,0.1,0c0,0,0,0,0,0c0,0,0.1,0,0.2,0.1c0,0,0,0,0,0v0
					c0.5,0.2,1.7,0.5,3.2,0.5v0h0c0.8,0,1.4-0.1,2-0.2c0,0,0,0,0,0c0,0,0,0,0,0c0.1,0,0.1,0,0.2,0c0.1,0,0.2,0,0.3-0.1
					c0,0,0.1,0,0.1,0c0.1,0,0.2-0.1,0.3-0.1c0,0,0.1,0,0.1,0c0.1,0,0.1,0,0.2-0.1c0,0,0,0,0.1,0c0.1,0,0.1,0,0.2-0.1c0,0,0,0,0,0
					c0,0,0,0,0,0c0-0.2,0-0.4,0-0.6c0,0,0,0,0,0c0-0.1,0-0.2,0-0.3c0,0,0-0.1,0-0.1c0,0,0,0,0,0c0,0,0,0,0,0c0-0.3,0-0.6-0.1-1h0
					c0-0.1,0-0.3,0-0.4c0,0,0,0,0,0c0-0.3-0.1-0.6-0.1-0.9c0,0,0,0,0,0c0-0.1,0-0.1,0-0.2c0-0.1,0-0.1,0-0.2c0,0,0,0,0-0.1h0
					c-0.1-0.3-0.1-0.6-0.2-0.9c0,0,0,0,0.1,0c0.3-0.1,0.6-0.1,0.8-0.2c0.1,0,0.1,0,0.2,0c0.3-0.1,0.6-0.2,0.9-0.2c0,0,0.1,0,0.1,0
					c0.2-0.1,0.4-0.1,0.6-0.2c0.1,0,0.1,0,0.2-0.1c0.2-0.1,0.3-0.1,0.4-0.2v0c0,0,0,0,0,0c0,0,0,0,0.1,0c0.1,0,0.1-0.1,0.2-0.1
					c0,0,0.1,0,0.1,0c0,0,0.1,0,0.1,0c0,0,0,0,0.1,0c0,0,0,0,0,0c0,0,0,0,0.1,0c0,0,0.1,0,0.1,0c0,0,0,0,0,0c0,0,0,0,0,0
					c0,0,0.1,0,0.1,0l-0.5-1.3L33,65.3z"/>
				<path class="st12" d="M20.8,57.8h2.6C22.5,57.9,21.6,57.9,20.8,57.8 M32.7,65l-0.9-2.2L31.1,61l-0.7-1.8l-0.7-1.7H30
					c0,0,0,0,0.1,0c0.5,0,2.3-0.1,4.6-0.2h0c2.6-0.1,5.6-0.3,7.6-0.4c1,0,1.7-0.1,1.9-0.1c0.1,0,0.2,0,0.3,0
					c0.5-0.1,0.4-0.4,0.4-0.4c0.1-1.1,0-2.1-0.2-3.1c0-0.2-0.1-0.4-0.1-0.5c0-0.2-0.1-0.4-0.2-0.6c-0.1-0.2-0.1-0.5-0.2-0.7
					c0-0.1-0.1-0.2-0.1-0.3c-0.1-0.3-0.3-0.7-0.4-1c0,0,0-0.1,0-0.1c-0.7-1.6-1.8-3-2.9-4.1c0,0,0.1,0.1,0.1,0.1
					c-1.6-1.7-3.4-2.8-4.7-3.5c-3.1-1.7-4.3-3.8-4.9-6.3c-0.1-0.3-0.2-0.6-0.3-0.9c0,0,0,0,0,0c0,0,0,0,0,0
					c-0.1-0.2-0.2-0.4-0.3-0.6c0,0,0,0,0,0c-0.1-0.2-0.2-0.3-0.4-0.5c0,0,0,0-0.1-0.1c-0.1-0.1-0.3-0.3-0.4-0.4c0,0,0,0,0,0
					c-0.1-0.1-0.2-0.2-0.3-0.3V28v-0.7v-8.2h0C29,14.3,23.4,1.7,22.9,1c-0.1-0.1-0.1-0.2-0.2-0.2c0,0,0,0-0.1-0.1
					c0,0-0.1-0.1-0.1-0.1c0,0,0,0-0.1,0c0,0-0.1-0.1-0.1-0.1c0,0,0,0-0.1,0c0,0-0.1,0-0.1,0c0,0,0,0,0,0l0,0c-0.1,0-0.3-0.1-0.3,0
					c-0.2,0-0.6,0-1,0.6c-0.5,0.8-6.1,13.4-6.6,18.2h0v8.2V28v6.8c0,0.1-0.1,0.2-0.1,0.3c0,0,0,0,0,0v0c-0.1,0.3-0.2,0.6-0.3,0.9
					c-0.6,2.6-1.8,4.7-4.9,6.3c-1.3,0.7-3.1,1.9-4.7,3.5c0,0,0.1-0.1,0.1-0.1c-1.1,1.1-2.1,2.5-2.9,4.1c0,0,0,0.1,0,0.1
					c-0.1,0.3-0.3,0.6-0.4,1C1.1,51,1,51.1,1,51.2c-0.1,0.2-0.2,0.5-0.2,0.7c-0.1,0.2-0.1,0.4-0.2,0.6c0,0.2-0.1,0.4-0.1,0.5
					c-0.2,1-0.2,2-0.2,3.1c0,0-0.1,0.3,0.4,0.4c0.1,0,0.2,0,0.3,0c0.2,0,0.9,0,1.9,0.1c1.9,0.1,5,0.2,7.6,0.4h0
					c1.5,0.1,2.8,0.1,3.7,0.2l-0.7,1.7l-0.7,1.7l-0.7,1.9l-0.8,2.2l-0.7,1.8L10,68.2c0,0,0,0,0.1,0c0,0,0,0,0,0c0,0,0.1,0,0.2,0.1
					c0,0,0,0,0.1,0c0.1,0,0.2,0.1,0.2,0.1c0,0,0.1,0,0.1,0c0.1,0,0.3,0.1,0.4,0.2c0,0,0,0,0.1,0v0c0.7,0.2,1.7,0.5,3.1,0.8
					c0,0,0,0,0,0c0,0,0,0,0,0c-0.1,0.3-0.1,0.6-0.2,0.9h0c0,0,0,0,0,0c0,0.1,0,0.1,0,0.2c0,0.1,0,0.2,0,0.2c0,0,0,0,0,0
					c-0.1,0.3-0.1,0.6-0.1,0.9c0,0,0,0,0,0c0,0.1,0,0.3,0,0.4h0c0,0.3,0,0.6-0.1,0.9c0,0,0,0,0,0c0,0,0,0.1,0,0.1c0,0.1,0,0.2,0,0.3
					c0,0,0,0,0,0c0,0.2,0,0.4,0,0.6c0,0,0,0,0.1,0c0,0,0,0,0,0c0,0,0.1,0,0.2,0.1c0,0,0,0,0,0c0.5,0.2,1.7,0.5,3.2,0.5v0
					c0,0,0,0,0,0c0.8,0,1.4-0.1,2-0.2v0c0,0,0,0,0,0c0.1,0,0.1,0,0.2,0c0.1,0,0.2,0,0.3-0.1c0.1,0,0.1,0,0.1,0
					c0.1,0,0.2-0.1,0.3-0.1c0,0,0.1,0,0.1,0c0.1,0,0.1,0,0.2-0.1c0,0,0,0,0.1,0c0.1,0,0.1,0,0.2-0.1c0,0,0,0,0,0c0,0,0,0,0,0
					c0-0.2,0-0.4,0-0.6c0,0,0,0,0,0c0-0.1,0-0.2,0-0.3c0,0,0-0.1,0-0.1c0,0,0,0,0,0l0,0c0-0.3,0-0.6-0.1-1h0c0-0.1,0-0.3,0-0.4l0,0
					c0-0.3-0.1-0.6-0.1-0.9c0,0,0,0,0,0c0-0.1,0-0.1,0-0.2c0-0.1,0-0.1,0-0.2c0,0,0,0,0-0.1h0c0-0.1,0-0.2-0.1-0.2c0.5,0,1,0,1.6,0
					c0.5,0,1.1,0,1.6,0c0,0.1,0,0.2-0.1,0.3h0c0,0,0,0,0,0c0,0.1,0,0.1,0,0.2c0,0.1,0,0.1,0,0.2c0,0,0,0,0,0
					c-0.1,0.3-0.1,0.6-0.1,0.9c0,0,0,0,0,0c0,0.1,0,0.3,0,0.4h0c0,0.3,0,0.6-0.1,0.9c0,0,0,0,0,0c0,0,0,0.1,0,0.1c0,0.1,0,0.2,0,0.3
					c0,0,0,0,0,0c0,0.2,0,0.4,0,0.6c0,0,0,0,0.1,0c0,0,0,0,0,0c0,0,0.1,0,0.2,0.1c0,0,0,0,0,0c0.5,0.2,1.7,0.5,3.2,0.5v0
					c0,0,0,0,0,0c0.8,0,1.4-0.1,2-0.2v0c0,0,0,0,0,0c0.1,0,0.1,0,0.2,0c0.1,0,0.2,0,0.3-0.1c0,0,0.1,0,0.1,0c0.1,0,0.2-0.1,0.3-0.1
					c0,0,0.1,0,0.1,0c0.1,0,0.1,0,0.2-0.1c0,0,0,0,0.1,0c0.1,0,0.1,0,0.2-0.1c0,0,0,0,0,0c0,0,0,0,0,0c0-0.2,0-0.4,0-0.6
					c0,0,0,0,0,0c0-0.1,0-0.2,0-0.3c0,0,0-0.1,0-0.1c0,0,0,0,0,0c0,0,0,0,0,0c0-0.3,0-0.6-0.1-1h0c0-0.1,0-0.3,0-0.4c0,0,0,0,0,0
					c0-0.3-0.1-0.6-0.1-0.9c0,0,0,0,0,0c0-0.1,0-0.1,0-0.2c0-0.1,0-0.1,0-0.2c0,0,0,0,0-0.1c0,0,0,0,0,0c-0.1-0.3-0.1-0.6-0.2-0.9
					c0,0,0,0,0.1,0c0.3-0.1,0.6-0.1,0.8-0.2c0.1,0,0.1,0,0.2,0c0.3-0.1,0.6-0.2,0.9-0.2c0,0,0.1,0,0.1,0c0.2-0.1,0.4-0.1,0.6-0.2
					c0.1,0,0.1,0,0.2-0.1c0.2-0.1,0.3-0.1,0.4-0.2l0,0c0,0,0,0,0,0c0,0,0,0,0.1,0c0.1,0,0.1-0.1,0.2-0.1c0,0,0.1,0,0.1,0
					c0,0,0.1,0,0.1,0c0,0,0.1,0,0.1,0c0,0,0,0,0,0c0,0,0,0,0.1,0c0,0,0.1,0,0.1,0c0,0,0,0,0,0c0,0,0,0,0,0c0,0,0.1,0,0.1,0l-0.5-1.3
					L32.7,65z"/>
				<path class="st13" d="M20.5,57.5h2.6C22.2,57.5,21.3,57.5,20.5,57.5 M32.4,64.7l-0.9-2.2l-0.7-1.9l-0.7-1.8l-0.7-1.7h0.3
					c0,0,0,0,0.1,0c0.5,0,2.3-0.1,4.6-0.2h0c2.6-0.1,5.6-0.3,7.6-0.4c1,0,1.7-0.1,1.9-0.1c0.1,0,0.2,0,0.3,0
					c0.5-0.1,0.4-0.4,0.4-0.4c0.1-1.1,0-2.1-0.2-3.1c0-0.2-0.1-0.4-0.1-0.5c0-0.2-0.1-0.4-0.2-0.6c-0.1-0.2-0.1-0.5-0.2-0.7
					c0-0.1-0.1-0.2-0.1-0.3c-0.1-0.3-0.3-0.7-0.4-1c0,0,0-0.1,0-0.1c-0.7-1.6-1.8-3-2.9-4.1c0,0,0.1,0.1,0.1,0.1
					c-1.6-1.7-3.4-2.8-4.7-3.5c-3.1-1.7-4.3-3.8-4.9-6.3c-0.1-0.3-0.2-0.6-0.3-0.9v0c0,0,0,0,0,0c-0.1-0.2-0.2-0.4-0.3-0.6
					c0,0,0,0,0,0c-0.1-0.2-0.2-0.3-0.4-0.5c0,0,0,0-0.1-0.1c-0.1-0.1-0.3-0.3-0.4-0.4c0,0,0,0,0,0c-0.1-0.1-0.2-0.2-0.3-0.3v-5.1V27
					v-8.2h0C28.7,14,23.1,1.4,22.6,0.6c-0.1-0.1-0.1-0.2-0.2-0.2c0,0,0,0-0.1-0.1c0,0-0.1-0.1-0.1-0.1c0,0,0,0-0.1,0
					c0,0-0.1-0.1-0.1-0.1c0,0,0,0,0,0c0,0-0.1,0-0.1,0c0,0,0,0,0,0c0,0,0,0,0,0c-0.1,0-0.3-0.1-0.3,0c-0.2,0-0.6,0-1,0.6
					c-0.5,0.8-6.1,13.4-6.6,18.2h0V27v0.7v6.8c0,0.1-0.1,0.2-0.1,0.3c0,0,0,0,0,0v0c-0.1,0.3-0.2,0.6-0.3,0.9
					c-0.6,2.6-1.8,4.7-4.9,6.3c-1.3,0.7-3.1,1.9-4.7,3.5c0,0,0.1-0.1,0.1-0.1c-1.1,1.1-2.1,2.5-2.9,4.1c0,0,0,0.1,0,0.1
					c-0.1,0.3-0.3,0.6-0.4,1c0,0.1-0.1,0.2-0.1,0.3c-0.1,0.2-0.2,0.5-0.2,0.7c-0.1,0.2-0.1,0.4-0.2,0.6c0,0.2-0.1,0.4-0.1,0.5
					c-0.2,1-0.2,2-0.2,3.1c0,0-0.1,0.3,0.4,0.4c0.1,0,0.2,0,0.3,0c0.2,0,0.9,0,1.9,0.1c1.9,0.1,5,0.2,7.6,0.4h0
					c1.5,0.1,2.8,0.1,3.7,0.2l-0.7,1.7l-0.7,1.7l-0.7,1.9L11,64.5l-0.7,1.8l-0.6,1.5c0,0,0,0,0.1,0c0,0,0,0,0,0c0,0,0.1,0,0.2,0.1
					c0,0,0,0,0.1,0c0.1,0,0.2,0.1,0.2,0.1c0,0,0.1,0,0.1,0c0.1,0,0.3,0.1,0.4,0.2c0,0,0,0,0.1,0c0.7,0.2,1.7,0.5,3.1,0.8
					c0,0,0,0,0,0c0,0,0,0,0,0c-0.1,0.3-0.1,0.6-0.2,0.9h0c0,0,0,0,0,0c0,0.1,0,0.1,0,0.2c0,0.1,0,0.2,0,0.2c0,0,0,0,0,0
					c-0.1,0.3-0.1,0.6-0.1,0.9c0,0,0,0,0,0c0,0.1,0,0.3,0,0.4h0c0,0.3,0,0.6-0.1,0.9c0,0,0,0,0,0c0,0,0,0.1,0,0.1c0,0.1,0,0.2,0,0.3
					c0,0,0,0,0,0c0,0.2,0,0.4,0,0.6c0,0,0,0,0.1,0c0,0,0,0,0,0c0,0,0.1,0,0.2,0.1c0,0,0,0,0,0v0c0.5,0.2,1.7,0.5,3.2,0.5v0
					c0,0,0,0,0,0c0.8,0,1.4-0.1,2-0.2v0c0,0,0,0,0,0c0.1,0,0.1,0,0.2,0c0.1,0,0.2,0,0.3-0.1c0.1,0,0.1,0,0.1,0
					c0.1,0,0.2-0.1,0.3-0.1c0,0,0.1,0,0.1,0c0.1,0,0.1,0,0.2-0.1c0,0,0,0,0.1,0c0.1,0,0.1,0,0.2-0.1c0,0,0,0,0,0c0,0,0,0,0,0
					c0-0.2,0-0.4,0-0.6c0,0,0,0,0,0c0-0.1,0-0.2,0-0.3c0,0,0-0.1,0-0.1c0,0,0,0,0,0h0c0-0.3,0-0.6-0.1-1h0c0-0.1,0-0.3,0-0.4
					c0,0,0,0,0,0c0-0.3-0.1-0.6-0.1-0.9c0,0,0,0,0,0c0-0.1,0-0.1,0-0.2c0-0.1,0-0.1,0-0.2c0,0,0,0,0-0.1c0,0,0,0,0,0
					c0-0.1,0-0.2-0.1-0.2c0.5,0,1,0,1.6,0c0.5,0,1.1,0,1.6,0c0,0.1,0,0.2-0.1,0.3h0c0,0,0,0,0,0c0,0.1,0,0.1,0,0.2
					c0,0.1,0,0.1,0,0.2c0,0,0,0,0,0c-0.1,0.3-0.1,0.6-0.1,0.9c0,0,0,0,0,0c0,0.1,0,0.3,0,0.4h0c0,0.3,0,0.6-0.1,0.9h0v0
					c0,0,0,0.1,0,0.1c0,0.1,0,0.2,0,0.3c0,0,0,0,0,0c0,0.2,0,0.4,0,0.6c0,0,0,0,0.1,0c0,0,0,0,0,0c0,0,0.1,0,0.2,0.1c0,0,0,0,0,0
					c0.5,0.2,1.7,0.5,3.2,0.5v0c0,0,0,0,0,0c0.8,0,1.4-0.1,2-0.2v0c0,0,0,0,0,0c0.1,0,0.1,0,0.2,0c0.1,0,0.2,0,0.3-0.1
					c0,0,0.1,0,0.1,0c0.1,0,0.2-0.1,0.3-0.1c0,0,0.1,0,0.1,0c0.1,0,0.1,0,0.2-0.1c0,0,0,0,0.1,0c0.1,0,0.1,0,0.2-0.1c0,0,0,0,0,0
					c0,0,0,0,0,0c0-0.2,0-0.4,0-0.6c0,0,0,0,0,0c0-0.1,0-0.2,0-0.3c0,0,0-0.1,0-0.1c0,0,0,0,0,0h0c0-0.3,0-0.6-0.1-1h0
					c0-0.1,0-0.3,0-0.4c0,0,0,0,0,0c0-0.3-0.1-0.6-0.1-0.9c0,0,0,0,0,0c0-0.1,0-0.1,0-0.2c0-0.1,0-0.1,0-0.2c0,0,0,0,0-0.1h0
					c-0.1-0.3-0.1-0.6-0.2-0.9c0,0,0,0,0.1,0c0.3-0.1,0.6-0.1,0.8-0.2c0.1,0,0.1,0,0.2,0c0.3-0.1,0.6-0.2,0.9-0.2c0,0,0.1,0,0.1,0
					c0.2-0.1,0.4-0.1,0.6-0.2c0.1,0,0.1,0,0.2-0.1c0.2-0.1,0.3-0.1,0.4-0.2c0,0,0,0,0,0c0,0,0,0,0,0c0,0,0,0,0.1,0
					c0.1,0,0.1-0.1,0.2-0.1c0,0,0.1,0,0.1,0c0,0,0.1,0,0.1,0c0,0,0.1,0,0.1,0c0,0,0,0,0,0c0,0,0,0,0.1,0c0,0,0.1,0,0.1,0
					c0,0,0,0,0,0c0,0,0,0,0,0c0,0,0.1,0,0.1,0l-0.5-1.3L32.4,64.7z"/>
			</g>
		</g>
		<path class="st14" d="M28.1,32.2c0,0,2.3,0.9,2.9,3.5c0.6,2.6,1.8,4.7,4.9,6.3c3.1,1.7,9.2,6.1,8.6,13.9c0,0,0.1,0.4-0.7,0.5
			s-14.2,0.7-14.2,0.7h-2.2L28.1,32.2z"/>
		<g class="st1">
			<g>
				<defs>
					<rect id="SVGID_7_" x="40.5" y="45.4" width="4.1" height="11.1"/>
				</defs>
				<clipPath id="SVGID_8_">
					<use xlink:href="#SVGID_7_"  style="overflow:visible;"/>
				</clipPath>
				<path class="st15" d="M40.5,45.4c0.3,0.4,0.6,0.9,1,1.4c0.5,0.7,0.9,1.4,1.3,2.2c0.7,1.6,1.2,3.4,1.2,5.1c0,0.5,0.1,1.2-0.4,1.6
					c-0.5,0.5-1.4,0.7-2.1,0.8c0,0-0.1,0-0.1,0c1.3-0.1,2.3-0.1,2.5-0.1c0.8-0.1,0.7-0.5,0.7-0.5C44.9,51.3,42.8,47.8,40.5,45.4"/>
			</g>
		</g>
		<path class="st16" d="M28,35.9c0,0,1.9,0.7,2.4,2.9s1.5,3.9,4.1,5.3c2.6,1.4,7.6,5.1,7.1,11.5c0,0,0.1,0.4-0.6,0.4
			c-0.7,0-11.8,0.6-11.8,0.6h-1.8L28,35.9z"/>
		<g class="st1">
			<g>
				<defs>
					<rect id="SVGID_9_" x="33.7" y="40.8" width="7.7" height="6.5"/>
				</defs>
				<clipPath id="SVGID_10_">
					<use xlink:href="#SVGID_9_"  style="overflow:visible;"/>
				</clipPath>
				<path class="st17" d="M34.1,41.1c-0.1-0.1-0.3-0.2-0.4-0.3c0.4,0.7,1.4,1.3,2.2,1.8c0.3,0.2,0.6,0.3,0.9,0.5
					c3.2,1.6,4.4,3.7,4.6,4.2C40.1,44.2,36.7,43,34.1,41.1"/>
			</g>
		</g>
		<g class="st1">
			<g>
				<defs>
					<rect id="SVGID_11_" x="27.4" y="32.2" width="6.9" height="24.9"/>
				</defs>
				<clipPath id="SVGID_12_">
					<use xlink:href="#SVGID_11_"  style="overflow:visible;"/>
				</clipPath>
				<path class="st18" d="M33.2,56.5c-0.5-0.2-0.9-0.4-1.2-0.8c-0.1-0.1-0.1-0.2-0.2-0.4c-0.7-1.1-0.7-2.5-0.7-3.9
					c-0.1-5.5-0.1-11.1-0.6-16.6c-0.9-1.9-2.6-2.5-2.6-2.5l-0.7,24.9h2.2c0,0,2.1-0.1,4.7-0.2C34,56.8,33.6,56.6,33.2,56.5"/>
			</g>
		</g>
		<path class="st19" d="M29.9,38.2c0,0.1-0.1,0.2-0.2,0.2c-0.1,0-0.2-0.1-0.2-0.2c0-0.1,0.1-0.2,0.2-0.2
			C29.8,38.1,29.9,38.2,29.9,38.2"/>
		<path class="st19" d="M30.9,41c0,0.1-0.1,0.2-0.2,0.2c-0.1,0-0.2-0.1-0.2-0.2c0-0.1,0.1-0.2,0.2-0.2C30.8,40.8,30.9,40.9,30.9,41"
			/>
		<path class="st19" d="M32.7,43.1c0,0.1-0.1,0.2-0.2,0.2c-0.1,0-0.2-0.1-0.2-0.2c0-0.1,0.1-0.2,0.2-0.2C32.6,43,32.7,43,32.7,43.1"
			/>
		<path class="st19" d="M35.3,44.7c0,0.1-0.1,0.2-0.2,0.2s-0.2-0.1-0.2-0.2c0-0.1,0.1-0.2,0.2-0.2S35.3,44.6,35.3,44.7"/>
		<path class="st19" d="M37.5,46.3c0,0.1-0.1,0.2-0.2,0.2c-0.1,0-0.2-0.1-0.2-0.2c0-0.1,0.1-0.2,0.2-0.2
			C37.4,46.2,37.5,46.2,37.5,46.3"/>
		<path class="st19" d="M39.3,48.3c0,0.1-0.1,0.2-0.2,0.2c-0.1,0-0.2-0.1-0.2-0.2s0.1-0.2,0.2-0.2C39.2,48.1,39.3,48.2,39.3,48.3"/>
		<path class="st19" d="M40.7,50.8c0,0.1-0.1,0.2-0.2,0.2c-0.1,0-0.2-0.1-0.2-0.2c0-0.1,0.1-0.2,0.2-0.2
			C40.6,50.6,40.7,50.7,40.7,50.8"/>
		<path class="st19" d="M41.4,55.4c0,0.1-0.1,0.2-0.2,0.2s-0.2-0.1-0.2-0.2c0-0.1,0.1-0.2,0.2-0.2S41.4,55.3,41.4,55.4"/>
		<path class="st19" d="M41.3,53.2c0,0.1-0.1,0.2-0.2,0.2c-0.1,0-0.2-0.1-0.2-0.2s0.1-0.2,0.2-0.2C41.2,53.1,41.3,53.1,41.3,53.2"/>
		<path class="st14" d="M16.5,32.2c0,0-2.3,0.9-2.9,3.5c-0.6,2.6-1.8,4.7-4.9,6.3C5.5,43.7-0.5,48.2,0,55.9c0,0-0.1,0.4,0.7,0.5
			c0.8,0.1,14.2,0.7,14.2,0.7h2.2L16.5,32.2z"/>
		<g class="st1">
			<g>
				<defs>
					<rect id="SVGID_13_" x="0" y="45.4" width="4.1" height="11.1"/>
				</defs>
				<clipPath id="SVGID_14_">
					<use xlink:href="#SVGID_13_"  style="overflow:visible;"/>
				</clipPath>
				<path class="st20" d="M4.1,45.4c-0.3,0.4-0.6,0.9-1,1.4c-0.5,0.7-0.9,1.4-1.3,2.2c-0.7,1.6-1.2,3.4-1.2,5.1
					c0,0.5-0.1,1.2,0.4,1.6c0.5,0.5,1.4,0.7,2.1,0.8c0,0,0.1,0,0.1,0c-1.3-0.1-2.3-0.1-2.5-0.1c-0.8-0.1-0.7-0.5-0.7-0.5
					C-0.3,51.3,1.7,47.8,4.1,45.4"/>
			</g>
		</g>
		<path class="st16" d="M16.6,35.9c0,0-1.9,0.7-2.4,2.9c-0.5,2.1-1.5,3.9-4.1,5.3C7.5,45.4,2.5,49.1,3,55.5c0,0-0.1,0.4,0.6,0.4
			c0.7,0,11.8,0.6,11.8,0.6h1.8L16.6,35.9z"/>
		<g class="st1">
			<g>
				<defs>
					<rect id="SVGID_15_" x="3.1" y="40.8" width="7.7" height="6.5"/>
				</defs>
				<clipPath id="SVGID_16_">
					<use xlink:href="#SVGID_15_"  style="overflow:visible;"/>
				</clipPath>
				<path class="st21" d="M10.5,41.1c0.1-0.1,0.3-0.2,0.4-0.3c-0.4,0.7-1.4,1.3-2.2,1.8c-0.3,0.2-0.6,0.3-0.9,0.5
					c-3.2,1.6-4.4,3.7-4.6,4.2C4.4,44.2,7.9,43,10.5,41.1"/>
			</g>
		</g>
		<g class="st1">
			<g>
				<defs>
					<rect id="SVGID_17_" x="10.2" y="32.2" width="6.9" height="24.9"/>
				</defs>
				<clipPath id="SVGID_18_">
					<use xlink:href="#SVGID_17_"  style="overflow:visible;"/>
				</clipPath>
				<path class="st22" d="M11.3,56.5c0.5-0.2,0.9-0.4,1.2-0.8c0.1-0.1,0.1-0.2,0.2-0.4c0.7-1.1,0.7-2.5,0.7-3.9
					c0.1-5.5,0.1-11.1,0.6-16.6c0.9-1.9,2.6-2.5,2.6-2.5l0.7,24.9h-2.2c0,0-2.1-0.1-4.7-0.2C10.6,56.8,11,56.6,11.3,56.5"/>
			</g>
		</g>
		<path class="st19" d="M14.7,38.2c0,0.1,0.1,0.2,0.2,0.2c0.1,0,0.2-0.1,0.2-0.2c0-0.1-0.1-0.2-0.2-0.2
			C14.7,38.1,14.7,38.2,14.7,38.2"/>
		<path class="st19" d="M13.7,41c0,0.1,0.1,0.2,0.2,0.2c0.1,0,0.2-0.1,0.2-0.2c0-0.1-0.1-0.2-0.2-0.2C13.8,40.8,13.7,40.9,13.7,41"
			/>
		<path class="st19" d="M11.9,43.1c0,0.1,0.1,0.2,0.2,0.2c0.1,0,0.2-0.1,0.2-0.2c0-0.1-0.1-0.2-0.2-0.2C12,43,11.9,43,11.9,43.1"/>
		<path class="st19" d="M9.3,44.7c0,0.1,0.1,0.2,0.2,0.2c0.1,0,0.2-0.1,0.2-0.2c0-0.1-0.1-0.2-0.2-0.2C9.4,44.5,9.3,44.6,9.3,44.7"
			/>
		<path class="st19" d="M7.1,46.3c0,0.1,0.1,0.2,0.2,0.2c0.1,0,0.2-0.1,0.2-0.2c0-0.1-0.1-0.2-0.2-0.2C7.2,46.2,7.1,46.2,7.1,46.3"
			/>
		<path class="st19" d="M5.3,48.3c0,0.1,0.1,0.2,0.2,0.2c0.1,0,0.2-0.1,0.2-0.2s-0.1-0.2-0.2-0.2C5.4,48.1,5.3,48.2,5.3,48.3"/>
		<path class="st19" d="M3.9,50.8C3.9,50.9,4,51,4.1,51c0.1,0,0.2-0.1,0.2-0.2c0-0.1-0.1-0.2-0.2-0.2C4,50.6,3.9,50.7,3.9,50.8"/>
		<path class="st19" d="M3.1,55.4c0,0.1,0.1,0.2,0.2,0.2c0.1,0,0.2-0.1,0.2-0.2c0-0.1-0.1-0.2-0.2-0.2C3.2,55.2,3.1,55.3,3.1,55.4"
			/>
		<path class="st19" d="M3.3,53.2c0,0.1,0.1,0.2,0.2,0.2c0.1,0,0.2-0.1,0.2-0.2s-0.1-0.2-0.2-0.2C3.3,53.1,3.3,53.1,3.3,53.2"/>
		<rect x="14" y="18.8" class="st16" width="15.1" height="38.7"/>
		<path class="st14" d="M22.6,0.6C22.2,0,21.8,0,21.6,0c-0.2,0-0.6,0-1,0.6C20.1,1.4,14.4,14.2,14,19h7.1h1h7.1
			C28.8,14.2,23.1,1.4,22.6,0.6"/>
		<g class="st1">
			<g>
				<defs>
					<rect id="SVGID_19_" x="21.9" y="0" width="7.2" height="18.9"/>
				</defs>
				<clipPath id="SVGID_20_">
					<use xlink:href="#SVGID_19_"  style="overflow:visible;"/>
				</clipPath>
				<path class="st23" d="M26.2,19h3c-0.3-4.7-6.1-17.6-6.6-18.3c-0.2-0.4-0.5-0.5-0.7-0.6C22.3,1,25.5,15.6,26.2,19"/>
			</g>
		</g>
		<g class="st24">
			<g>
				<defs>
					<rect id="SVGID_21_" x="15.1" y="1" width="6" height="17.4"/>
				</defs>
				<clipPath id="SVGID_22_">
					<use xlink:href="#SVGID_21_"  style="overflow:visible;"/>
				</clipPath>
				<path class="st25" d="M19.6,11.3c0.2-1.9,0.5-3.8,0.8-5.7c0.2-1,0.3-2.1,0.5-3.1C20.9,2,21,1.6,21.1,1.2c0-0.1,0-0.1,0-0.1
					s-4.4,10.3-5.9,16.2c0,0-0.5,1.3,0.8,1.2h2.7C19,16.1,19.3,13.7,19.6,11.3"/>
			</g>
		</g>
		<path class="st26" d="M22.7,19.5h-6.6c0,0-1.1-0.1-1,1.3v34c0,0-0.1,1.2,1.2,1.6l5.6,0.2c0,0,1.6,0,1.6-1.5V20.5
			C23.5,20.5,23.5,19.5,22.7,19.5"/>
		<rect x="14" y="27" class="st27" width="15.1" height="0.7"/>
		<rect x="14" y="51.1" class="st27" width="15.1" height="0.8"/>
		<rect x="14" y="53.1" class="st27" width="15.1" height="0.8"/>
		<g class="st1">
			<g>
				<defs>
					<rect id="SVGID_23_" x="26" y="18.8" width="3.2" height="38.7"/>
				</defs>
				<clipPath id="SVGID_24_">
					<use xlink:href="#SVGID_23_"  style="overflow:visible;"/>
				</clipPath>
				<rect x="26" y="18.8" class="st28" width="3.2" height="38.7"/>
			</g>
		</g>
		<rect x="27.4" y="55.9" class="st27" width="0.8" height="0.8"/>
		<rect x="26.4" y="55.9" class="st27" width="0.8" height="0.8"/>
		<rect x="25.5" y="55.9" class="st27" width="0.8" height="0.8"/>
		<rect x="24.5" y="55.9" class="st27" width="0.8" height="0.8"/>
	</g>
	<g class="st0">
		<defs>
			<path id="SVGID_25_" d="M25.1,64.9c0,0-2.4,3.6-2.3,8.9c0,0,1.4,0.6,3.6,0.6c2.1,0,3.6-0.6,3.6-0.6c0.1-5.4-2.3-8.9-2.3-8.9H25.1
				z"/>
		</defs>
		<clipPath id="SVGID_26_">
			<use xlink:href="#SVGID_25_"  style="overflow:visible;"/>
		</clipPath>
		
			<linearGradient id="SVGID_27_" gradientUnits="userSpaceOnUse" x1="0" y1="78.0161" x2="1" y2="78.0161" gradientTransform="matrix(1.805 15.0577 15.0577 -1.805 -1149.2352 203.1885)">
			<stop  offset="0" style="stop-color:#E5E0DF"/>
			<stop  offset="0.4575" style="stop-color:#E5E0DF"/>
			<stop  offset="1" style="stop-color:#8CA99C"/>
		</linearGradient>
		<polygon class="st29" points="30,64 31.2,74.3 22.8,75.3 21.6,65 		"/>
	</g>
	<g class="st0">
		<defs>
			<path id="SVGID_28_" d="M25.1,64.9c0,0-0.6,0.9-1.2,2.5c1.1,0.2,2.8,0.3,5-0.1c-0.6-1.6-1.2-2.5-1.2-2.5H25.1z"/>
		</defs>
		<clipPath id="SVGID_29_">
			<use xlink:href="#SVGID_28_"  style="overflow:visible;"/>
		</clipPath>
		
			<linearGradient id="SVGID_30_" gradientUnits="userSpaceOnUse" x1="0" y1="77.9977" x2="1" y2="77.9977" gradientTransform="matrix(1.805 15.0577 15.0577 -1.805 -1148.5743 203.1093)">
			<stop  offset="0" style="stop-color:#E5E0DF"/>
			<stop  offset="0.4575" style="stop-color:#E5E0DF"/>
			<stop  offset="1" style="stop-color:#8CA99C"/>
		</linearGradient>
		<polygon class="st30" points="28.8,64.3 29.2,67.7 23.9,68.3 23.5,64.9 		"/>
	</g>
	<g class="st0">
		<defs>
			<rect id="SVGID_31_" y="0" width="48.2" height="78"/>
		</defs>
		<clipPath id="SVGID_32_">
			<use xlink:href="#SVGID_31_"  style="overflow:visible;"/>
		</clipPath>
		<path class="st31" d="M22.8,72.8c0,0.1,0,0.3,0,0.4c0.6,0.2,1.7,0.4,3.3,0.4c1.1,0,2.4-0.1,3.8-0.5c0-0.1,0-0.3,0-0.4
			C26.3,73.7,23.7,73,22.8,72.8"/>
		<path class="st31" d="M22.9,71.4c0,0.1,0,0.3,0,0.4c0.6,0.2,1.7,0.4,3.2,0.4c1.1,0,2.3-0.1,3.8-0.5c0-0.1,0-0.3,0-0.4
			C26.3,72.2,23.9,71.7,22.9,71.4"/>
		<path class="st31" d="M29.4,69.1c0-0.1-0.1-0.3-0.1-0.4c-2.7,0.6-4.7,0.3-5.9,0.1c0,0.1-0.1,0.3-0.1,0.4c0.6,0.2,1.6,0.3,2.8,0.3
			C27.1,69.4,28.2,69.3,29.4,69.1"/>
		<path class="st31" d="M23.1,70c0,0.1-0.1,0.3-0.1,0.4c0.6,0.2,1.7,0.4,3.1,0.4c1,0,2.2-0.1,3.6-0.4c0-0.1-0.1-0.3-0.1-0.4
			C26.5,70.7,24.2,70.3,23.1,70"/>
		<path class="st31" d="M29,67.8c0-0.1-0.1-0.3-0.1-0.4c-2.2,0.4-3.9,0.3-5,0.1c0,0.1-0.1,0.3-0.1,0.4c0.6,0.1,1.4,0.2,2.4,0.2
			C26.9,68,27.9,68,29,67.8"/>
		<g class="st32">
			<g>
				<defs>
					<rect id="SVGID_33_" x="22.8" y="64.9" width="7.2" height="9.5"/>
				</defs>
				<clipPath id="SVGID_34_">
					<use xlink:href="#SVGID_33_"  style="overflow:visible;"/>
				</clipPath>
				<path class="st33" d="M27.7,64.9h-2.6c0,0-2.4,3.6-2.3,8.9c0,0,0.1,0,0.3,0.1c-0.1-1.2,0.2-2.5,0.4-3.7c0.1-0.8,0.5-2.7,1.7-2.6
					c1.3,0.1,1,5.6,1.1,6.8c0,0,0,0,0,0c2.1,0,3.6-0.6,3.6-0.6C30.1,68.4,27.7,64.9,27.7,64.9"/>
			</g>
		</g>
		<g class="st32">
			<g>
				<defs>
					<rect id="SVGID_35_" x="26.3" y="64.9" width="3.6" height="9.3"/>
				</defs>
				<clipPath id="SVGID_36_">
					<use xlink:href="#SVGID_35_"  style="overflow:visible;"/>
				</clipPath>
				<path class="st34" d="M27.7,64.9h-1.3c1.4,2.9,1.9,6.2,2,9.3c1-0.2,1.6-0.4,1.6-0.4C30.1,68.4,27.7,64.9,27.7,64.9"/>
			</g>
		</g>
	</g>
	<g class="st0">
		<defs>
			<path id="SVGID_37_" d="M15.6,64.9c0,0-2.4,3.6-2.3,8.9c0,0,1.4,0.6,3.6,0.6c2.1,0,3.6-0.6,3.6-0.6c0.1-5.4-2.3-8.9-2.3-8.9H15.6
				z"/>
		</defs>
		<clipPath id="SVGID_38_">
			<use xlink:href="#SVGID_37_"  style="overflow:visible;"/>
		</clipPath>
		
			<linearGradient id="SVGID_39_" gradientUnits="userSpaceOnUse" x1="0" y1="78.0161" x2="1" y2="78.0161" gradientTransform="matrix(1.805 15.0578 15.0578 -1.805 -1158.7406 203.1893)">
			<stop  offset="0" style="stop-color:#E5E0DF"/>
			<stop  offset="0.4575" style="stop-color:#E5E0DF"/>
			<stop  offset="1" style="stop-color:#8CA99C"/>
		</linearGradient>
		<polygon class="st35" points="20.5,64 21.7,74.3 13.3,75.3 12.1,65 		"/>
	</g>
	<g class="st0">
		<defs>
			<path id="SVGID_40_" d="M15.6,64.9c0,0-0.6,0.9-1.2,2.5c1.1,0.2,2.8,0.3,5-0.1c-0.6-1.6-1.2-2.5-1.2-2.5H15.6z"/>
		</defs>
		<clipPath id="SVGID_41_">
			<use xlink:href="#SVGID_40_"  style="overflow:visible;"/>
		</clipPath>
		
			<linearGradient id="SVGID_42_" gradientUnits="userSpaceOnUse" x1="0" y1="77.9977" x2="1" y2="77.9977" gradientTransform="matrix(1.805 15.0578 15.0578 -1.805 -1158.0841 203.1107)">
			<stop  offset="0" style="stop-color:#E5E0DF"/>
			<stop  offset="0.4575" style="stop-color:#E5E0DF"/>
			<stop  offset="1" style="stop-color:#8CA99C"/>
		</linearGradient>
		<polygon class="st36" points="19.3,64.3 19.7,67.7 14.4,68.3 14,64.9 		"/>
	</g>
	<g class="st0">
		<defs>
			<rect id="SVGID_43_" y="0" width="48.2" height="78"/>
		</defs>
		<clipPath id="SVGID_44_">
			<use xlink:href="#SVGID_43_"  style="overflow:visible;"/>
		</clipPath>
		<path class="st37" d="M13.3,72.8c0,0.1,0,0.3,0,0.4c0.6,0.2,1.7,0.4,3.3,0.4c1.1,0,2.4-0.1,3.8-0.5c0-0.1,0-0.3,0-0.4
			C16.8,73.7,14.2,73,13.3,72.8"/>
		<path class="st37" d="M13.4,71.4c0,0.1,0,0.3,0,0.4c0.6,0.2,1.7,0.4,3.2,0.4c1.1,0,2.3-0.1,3.8-0.5c0-0.1,0-0.3,0-0.4
			C16.8,72.2,14.4,71.7,13.4,71.4"/>
		<path class="st37" d="M19.9,69.1c0-0.1-0.1-0.3-0.1-0.4c-2.7,0.6-4.7,0.3-5.9,0.1c0,0.1-0.1,0.3-0.1,0.4c0.6,0.2,1.6,0.3,2.8,0.3
			C17.6,69.4,18.7,69.3,19.9,69.1"/>
		<path class="st37" d="M13.6,70c0,0.1-0.1,0.3-0.1,0.4c0.6,0.2,1.7,0.4,3.1,0.4c1,0,2.2-0.1,3.6-0.4c0-0.1,0-0.3-0.1-0.4
			C17,70.7,14.7,70.3,13.6,70"/>
		<path class="st37" d="M19.5,67.8c0-0.1-0.1-0.3-0.1-0.4c-2.2,0.4-3.9,0.3-5,0.1c0,0.1-0.1,0.3-0.1,0.4c0.6,0.1,1.4,0.2,2.4,0.2
			C17.4,68,18.4,68,19.5,67.8"/>
		<g class="st38">
			<g>
				<defs>
					<rect id="SVGID_45_" x="13.3" y="64.9" width="7.2" height="9.5"/>
				</defs>
				<clipPath id="SVGID_46_">
					<use xlink:href="#SVGID_45_"  style="overflow:visible;"/>
				</clipPath>
				<path class="st39" d="M18.2,64.9h-2.6c0,0-2.4,3.6-2.3,8.9c0,0,0.1,0,0.3,0.1c-0.1-1.2,0.2-2.5,0.4-3.7c0.1-0.8,0.5-2.7,1.7-2.6
					c1.3,0.1,1,5.6,1.1,6.8c0,0,0,0,0,0c2.1,0,3.6-0.6,3.6-0.6C20.6,68.4,18.2,64.9,18.2,64.9"/>
			</g>
		</g>
		<g class="st38">
			<g>
				<defs>
					<rect id="SVGID_47_" x="16.8" y="64.9" width="3.6" height="9.3"/>
				</defs>
				<clipPath id="SVGID_48_">
					<use xlink:href="#SVGID_47_"  style="overflow:visible;"/>
				</clipPath>
				<path class="st40" d="M18.2,64.9h-1.3c1.4,2.9,1.9,6.2,2,9.3c1-0.2,1.6-0.4,1.6-0.4C20.6,68.4,18.2,64.9,18.2,64.9"/>
			</g>
		</g>
		<path class="st41" d="M30.1,58.8l-0.7-1.9c-6.2,1-11.7,0.6-15.4-0.1l-0.7,1.9C17,59.5,23.1,60.1,30.1,58.8"/>
		<path class="st42" d="M30.8,60.6l-0.7-1.8c-6.9,1.2-13,0.6-16.8-0.1l-0.7,1.7C16.4,61.3,23.1,62.1,30.8,60.6"/>
		<path class="st42" d="M10.2,66.3l-0.6,1.5c0,0,3.9,2,12,1.9c8,0.1,12-1.9,12-1.9l-0.5-1.3C22.5,69.1,13.5,67.2,10.2,66.3"/>
		<path class="st41" d="M12.5,60.5l-0.7,1.9c3.8,0.9,11.2,1.9,19.7,0.2l-0.7-1.9C23.1,62.1,16.4,61.3,12.5,60.5"/>
		<path class="st41" d="M11,64.5l-0.7,1.8c3.2,0.9,12.3,2.8,22.8,0.2l-0.7-1.8C22.8,66.8,14.6,65.4,11,64.5"/>
		<path class="st42" d="M11.8,62.3L11,64.5c3.6,0.9,11.9,2.4,21.4,0.2l-0.9-2.2C23,64.3,15.6,63.2,11.8,62.3"/>
		<g class="st43">
			<g>
				<defs>
					<rect id="SVGID_49_" x="9.6" y="56.9" width="5.2" height="11.4"/>
				</defs>
				<clipPath id="SVGID_50_">
					<use xlink:href="#SVGID_49_"  style="overflow:visible;"/>
				</clipPath>
				<path class="st44" d="M12.4,63.9c0.8-2.3,1.6-4.6,2.5-6.9c-0.3,0-0.6-0.1-0.9-0.1l-0.7,1.9l-0.7,1.7l-0.7,1.9L11,64.5l-0.7,1.8
					l-0.6,1.5c0,0,0.4,0.2,1.1,0.5C11.3,66.8,11.9,65.4,12.4,63.9"/>
			</g>
		</g>
		<g class="st43">
			<g>
				<defs>
					<rect id="SVGID_51_" x="24.4" y="56.9" width="9.2" height="12.4"/>
				</defs>
				<clipPath id="SVGID_52_">
					<use xlink:href="#SVGID_51_"  style="overflow:visible;"/>
				</clipPath>
				<path class="st45" d="M26.7,64.9c0.4,1.5,0.9,3,1.3,4.5c3.8-0.6,5.6-1.5,5.6-1.5l-0.5-1.3l-0.7-1.8l-0.9-2.2l-0.7-1.9l-0.7-1.8
					l-0.7-1.9c-1.7,0.3-3.3,0.4-4.9,0.5C25.2,59.9,26,62.4,26.7,64.9"/>
			</g>
		</g>
		<g class="st43">
			<g>
				<defs>
					<rect id="SVGID_53_" x="27.6" y="56.9" width="6" height="11.3"/>
				</defs>
				<clipPath id="SVGID_54_">
					<use xlink:href="#SVGID_53_"  style="overflow:visible;"/>
				</clipPath>
				<path class="st46" d="M30.5,63.6c0.6,1.3,1.2,2.7,1.9,4c0.1,0.2,0.2,0.4,0.3,0.6c0.6-0.2,0.9-0.4,0.9-0.4l-0.5-1.3l-0.7-1.8
					l-0.9-2.2l-0.7-1.9l-0.7-1.8l-0.7-1.9c-0.6,0.1-1.1,0.2-1.7,0.2C28.4,59.4,29.5,61.5,30.5,63.6"/>
			</g>
		</g>
		<g class="st47">
			<g>
				<defs>
					<rect id="SVGID_55_" x="15.1" y="19.5" width="3.6" height="37"/>
				</defs>
				<clipPath id="SVGID_56_">
					<use xlink:href="#SVGID_55_"  style="overflow:visible;"/>
				</clipPath>
				<path class="st48" d="M18.6,19.5h-2.5c0,0-1.1-0.1-1,1.3v34c0,0-0.1,1.2,1.2,1.6l2.3,0.1V19.5z"/>
			</g>
		</g>
		<g class="st43">
			<g>
				<defs>
					<rect id="SVGID_57_" x="24.1" y="45.8" width="3.8" height="4.4"/>
				</defs>
				<clipPath id="SVGID_58_">
					<use xlink:href="#SVGID_57_"  style="overflow:visible;"/>
				</clipPath>
				<path class="st49" d="M27.9,48.5c0,1-0.8,1.8-1.8,1.8h-0.3c-1,0-1.8-0.8-1.8-1.8v-0.9c0-1,0.8-1.8,1.8-1.8h0.3
					c1,0,1.8,0.8,1.8,1.8V48.5z"/>
			</g>
		</g>
		<g class="st43">
			<g>
				<defs>
					<rect id="SVGID_59_" x="24.4" y="46.3" width="3.1" height="3.6"/>
				</defs>
				<clipPath id="SVGID_60_">
					<use xlink:href="#SVGID_59_"  style="overflow:visible;"/>
				</clipPath>
				<path class="st50" d="M27.5,48.5c0,0.8-0.6,1.4-1.4,1.4h-0.2c-0.8,0-1.4-0.6-1.4-1.4v-0.7c0-0.8,0.6-1.4,1.4-1.4h0.2
					c0.8,0,1.4,0.6,1.4,1.4V48.5z"/>
			</g>
		</g>
	</g>
</g>
</svg>
