<?xml version="1.0" encoding="utf-8"?>
<!-- Generator: Adobe Illustrator 22.0.0, SVG Export Plug-In . SVG Version: 6.00 Build 0)  -->
<svg version="1.1" id="Layer_1" xmlns="http://www.w3.org/2000/svg" xmlns:xlink="http://www.w3.org/1999/xlink" x="0px" y="0px"
	 viewBox="0 0 4000 4000" style="enable-background:new 0 0 4000 4000;" xml:space="preserve">
<style type="text/css">
	.st0{display:none;}
	.st1{display:inline;}
	.st2{fill:#3AAAFF;}
	.st3{fill:#FFDA22;}
	.st4{opacity:0.35;}
	.st5{fill:#371A45;}
	.st6{opacity:0.4;}
	.st7{fill:#FFFFFF;}
	.st8{opacity:0.3;}
	.st9{fill:#22A7F0;}
	.st10{opacity:0.8;}
	.st11{fill:#293856;}
	.st12{fill:#21102B;}
	.st13{opacity:0.5;}
</style>
<g>
	<g class="st0">
		<g class="st1">
			<g>
				<g>
					<rect class="st2" width="4000" height="4000"/>
				</g>
			</g>
		</g>
	</g>
	<g>
		<g>
			<g>
				<g>
					<g>
						<g>
							<path class="st3" d="M3434.4,1656.3c-260,181.8-618.1,118.4-799.9-141.7c-31.5-45.1-55.6-93.1-72.6-142.6
								c-7.4-21.6-13.5-43.4-18.2-65.4c-45.5-211.7,31.5-439.1,212.8-577.4c6.5-5,13-9.8,19.8-14.5c19.5-13.6,39.6-25.9,60.1-36.8
								c71.2-37.9,147.8-59.4,224.7-65.3c5-0.4,10-0.7,14.9-0.9c82-4.2,164.2,9.4,240.5,39.5c101.4,39.9,192.5,109.1,259.6,205.1
								c37,53,63.9,110,81,168.8C3723.9,1255,3641.5,1511.6,3434.4,1656.3z"/>
						</g>
					</g>
				</g>
			</g>
			<g>
				<g class="st4">
					<g>
						<g>
							<g>
								<path class="st5" d="M2532.3,1229.2c2.1,18.6,5.1,37.1,9.1,55.4c4.7,22,10.8,43.8,18.2,65.4c17,49.5,41.1,97.5,72.6,142.6
									c181.8,260,539.9,323.4,799.9,141.7c174.8-122.2,260.7-324.1,243-522.3c-1.9-17.8-4.6-35.6-8.2-53.2
									c0.7,181.9-84.9,361.2-245.3,473.4c-260,181.8-618.1,118.4-799.9-141.7c-31.5-45.1-55.6-93.1-72.6-142.6
									c-7.4-21.6-13.5-43.4-18.2-65.4c-0.4-1.8-0.7-3.6-1.1-5.4c0.1,22.8,1.6,45.7,4.4,68.4
									C2533.4,1240.1,2532.8,1234.7,2532.3,1229.2z"/>
							</g>
						</g>
					</g>
				</g>
			</g>
			<g class="st6">
				<g>
					<g>
						<g>
							<path class="st7" d="M3570.6,848.8c-66.6-92-155.5-158.7-254.1-197.6c-76.3-30.1-158.5-43.6-240.5-39.5
								c-5,0.3-10,0.6-14.9,0.9c-76.9,5.9-153.5,27.3-224.7,65.3c-20.5,10.9-40.6,23.1-60.1,36.8c-6.7,4.7-13.3,9.5-19.8,14.5
								c-181.2,138.3-258.3,365.7-212.8,577.4c4.7,22,10.8,43.8,18.2,65.4c1.7,4.9,3.5,9.7,5.3,14.6
								c-60.4-230.3,24.4-483.8,230.9-628.3c19.6-13.7,39.7-26,60.3-37c0.4,1.5,0.8,3.1,1.4,4.6c11.7,32.1,61.6,43.5,111.5,25.3
								c49.9-18.2,80.9-58.9,69.2-91.1l0-0.1C3233.5,629.2,3435.3,696.5,3570.6,848.8z"/>
						</g>
					</g>
				</g>
			</g>
			<g>
				<g>
					<g>
						<g>
							<path class="st5" d="M3108.8,1779c-34.8,0-69.6-3.1-104.3-9.2c-76-13.5-147.6-41-212.7-81.9
								c-67.4-42.3-124.9-97.1-170.9-162.9c-46-65.8-77.7-138.6-94.3-216.4c-16-75.2-17.3-151.8-3.9-227.8
								c13.5-76,41-147.6,81.9-212.7c42.3-67.4,97.1-124.9,162.9-170.9c65.8-46,138.6-77.7,216.4-94.3c75.2-16,151.8-17.3,227.8-3.9
								c76,13.5,147.6,41,212.7,81.9c67.4,42.3,124.9,97.1,170.9,162.9c46,65.8,77.7,138.6,94.3,216.4c16,75.2,17.3,151.8,3.9,227.8
								c-13.5,76-41,147.6-81.9,212.7c-42.3,67.4-97.1,124.9-162.9,170.9c-65.8,46-138.6,77.7-216.4,94.3
								C3191.5,1774.6,3150.2,1779,3108.8,1779z M3107.1,629.9c-112.6,0-222.3,34.3-316.5,100.2
								c-121.4,84.9-202.4,211.9-228.3,357.7s6.7,293,91.5,414.3c84.9,121.4,211.9,202.4,357.7,228.3c32.6,5.8,65.4,8.6,97.9,8.6
								c112.6,0,222.3-34.3,316.5-100.2c121.4-84.9,202.4-211.9,228.3-357.7c25.8-145.8-6.7-293-91.5-414.3
								c-84.9-121.4-211.9-202.4-357.7-228.3C3172.3,632.8,3139.5,629.9,3107.1,629.9z"/>
						</g>
					</g>
				</g>
			</g>
			<g class="st4">
				<g>
					<g>
						<g>
							
								<ellipse transform="matrix(0.9717 -0.2362 0.2362 0.9717 -117.0718 717.9492)" class="st5" cx="2938.7" cy="847.7" rx="127.5" ry="79.9"/>
						</g>
					</g>
				</g>
			</g>
			<g>
				<g>
					<g>
						<g>
							
								<ellipse transform="matrix(0.9717 -0.2362 0.2362 0.9717 -122.819 719.7712)" class="st3" cx="2943.4" cy="872.6" rx="111.5" ry="50.1"/>
						</g>
					</g>
				</g>
			</g>
			<g>
				<g>
					<g>
						<g>
							<path class="st5" d="M3039.1,777.2c5.2,2.9,10.2,6.4,14.7,10.7c2.2,2.2,4.3,4.5,6.2,7c1.9,2.5,3.6,5.2,5.2,8
								c1.5,2.8,2.8,5.8,3.8,8.9l0.7,2.3c0.2,0.8,0.4,1.6,0.6,2.4l0.6,2.4c0.1,0.8,0.3,1.6,0.4,2.4c1,6.4,0.9,13-0.2,19.4
								c-1,6.4-3,12.5-5.5,18.3c-2.5,5.8-5.7,11.2-9.2,16.3c-3.5,5.1-7.5,9.8-11.7,14.2c-2.1,2.2-4.3,4.3-6.5,6.4l-3.4,3
								c-1.1,1-2.3,1.9-3.5,2.9c-4.7,3.8-9.5,7.4-14.6,10.6c-2.5,1.7-5.1,3.2-7.7,4.7c-2.6,1.4-5.2,3-7.9,4.3
								c-10.6,5.5-21.8,9.9-33.2,13.5c-2.9,0.9-5.7,1.7-8.6,2.4c-2.9,0.7-5.8,1.5-8.7,2.1c-5.8,1.3-11.7,2.3-17.7,3.1
								c-11.9,1.4-24,2-36.1,1.1c-12.1-0.8-24.2-2.9-36.1-6.8c-11.8-4-23.4-9.6-33.5-18.1c-5-4.2-9.7-9.1-13.5-14.8
								c-3.8-5.6-6.8-12-8.6-18.6c-1.8-6.6-2.5-13.5-2-20.3c0.4-6.7,1.9-13.3,4.1-19.3c2.2-6.1,5.2-11.8,8.6-17
								c0.9-1.3,1.7-2.6,2.6-3.9l2.8-3.7l2.9-3.6c1-1.2,2-2.3,3.1-3.4c4.1-4.5,8.6-8.6,13.2-12.4c4.7-3.8,9.5-7.2,14.5-10.4
								c5-3.1,10.1-6,15.4-8.7c5.3-2.6,10.6-5,16.1-7c10.9-4.2,22.1-7.2,33.4-9.2c2-0.4,3.9,1,4.3,3c0.3,1.8-0.7,3.5-2.4,4.1l-0.1,0
								c-5.2,1.9-10.5,3.7-15.5,6c-2.6,1-5,2.2-7.6,3.3c-1.2,0.6-2.5,1.2-3.7,1.8c-1.2,0.6-2.5,1.2-3.7,1.9l-3.6,1.9l-3.6,2l-1.8,1
								l-1.7,1.1c-1.2,0.7-2.3,1.4-3.5,2.1c-4.6,2.9-9,6-13.3,9.3c-4.2,3.3-8.3,6.8-12.1,10.5c-3.8,3.7-7.4,7.6-10.6,11.6
								c-6.5,8.1-11.6,17.1-14.4,26.3c-1.4,4.6-2.2,9.2-2.2,13.8c0,4.5,0.6,9,2,13.2c2.7,8.4,8.2,15.8,15.7,21.6
								c7.4,5.8,16.5,10.1,26.1,13.1c9.7,2.9,19.9,4.7,30.3,5.3c10.4,0.6,21,0.3,31.5-1c10.5-1.4,20.9-3.4,31.1-6.3
								c2.5-0.8,5.1-1.5,7.6-2.3c2.5-0.8,5-1.7,7.5-2.6c5-1.9,9.9-3.9,14.6-6.2c2.4-1.1,4.7-2.3,7.1-3.5c2.3-1.3,4.7-2.5,6.9-3.9
								c4.5-2.7,8.9-5.6,13.2-8.7c4.2-3.1,8.2-6.4,12-10c3.8-3.5,7.3-7.3,10.5-11.3c3.2-4,6-8.2,8.4-12.6c2.4-4.4,4.2-9,5.4-13.7
								c1.2-4.7,1.8-9.5,1.5-14.3l-0.1-1.8l-0.2-1.8c-0.1-0.6-0.1-1.2-0.2-1.8l-0.3-1.8c-0.5-2.4-1.2-4.7-2.1-7
								c-0.9-2.3-2-4.5-3.3-6.7c-1.3-2.2-2.7-4.2-4.3-6.2c-1.6-2-3.4-3.9-5.2-5.8c-1.9-1.8-3.9-3.5-6-5.2l-0.1-0.1
								c-2-1.6-2.3-4.4-0.7-6.4C3034.8,776.6,3037.2,776.2,3039.1,777.2z"/>
						</g>
					</g>
				</g>
			</g>
			<g>
				<g>
					<g>
						<g>
							<path class="st5" d="M2979.8,969.3c-4.1,3.4-8.6,6.3-13.3,8.9c-4.7,2.6-9.6,4.9-14.6,6.8c-10.1,3.9-20.7,6.4-31.5,7.6
								c-10.8,1.3-21.7,1.2-32.5,0.1c-10.8-1.2-21.4-3.4-31.8-6.7c-10.3-3.3-20.4-7.7-29.8-13.2c-2.4-1.4-4.7-2.8-7-4.3
								c-2.3-1.5-4.5-3.1-6.7-4.8c-4.4-3.3-8.5-6.9-12.5-10.8c-7.8-7.8-14.6-16.9-19.1-27.1c-4.6-10.1-6.9-21.5-5.7-32.4
								c0.2-2,2-3.5,4.1-3.3c1.6,0.2,2.8,1.3,3.2,2.8l0,0.1c4.5,18.8,16.5,33.5,31.1,44.7c14.6,11.3,31.8,19.4,49.7,24.9
								c18,5.5,36.7,8.3,55.6,8.3c9.4,0,18.9-0.8,28.3-2.4c4.7-0.8,9.4-1.8,14.1-3c4.7-1.2,9.3-2.7,14-4.2l0.1,0
								c2.4-0.8,5,0.5,5.8,2.9C2981.9,966.1,2981.3,968.1,2979.8,969.3z"/>
						</g>
					</g>
				</g>
			</g>
			<g class="st4">
				<g>
					<g>
						<g>
							
								<ellipse transform="matrix(0.9898 -0.1427 0.1427 0.9898 -153.4518 401.8961)" class="st5" cx="2725.4" cy="1270.8" rx="80" ry="127.7"/>
						</g>
					</g>
				</g>
			</g>
			<g>
				<g>
					<g>
						<g>
							
								<ellipse transform="matrix(0.9898 -0.1427 0.1427 0.9898 -152.826 405.4506)" class="st3" cx="2750.4" cy="1268.2" rx="50.1" ry="111.5"/>
						</g>
					</g>
				</g>
			</g>
			<g>
				<g>
					<g>
						<g>
							<path class="st5" d="M2664.6,1163.9c3.4-4.9,7.4-9.5,12-13.6c2.4-2,4.9-3.9,7.5-5.6c2.7-1.7,5.5-3.1,8.4-4.4
								c3-1.2,6-2.2,9.2-3l2.4-0.5c0.8-0.1,1.6-0.2,2.4-0.4l2.4-0.3c0.8-0.1,1.6-0.1,2.4-0.2c6.5-0.4,13,0.4,19.3,2
								c6.2,1.6,12.1,4.2,17.7,7.2c5.5,3.1,10.6,6.7,15.4,10.7c4.8,4,9,8.4,13.1,13c2,2.3,3.9,4.7,5.8,7.1l2.7,3.7
								c0.9,1.2,1.7,2.5,2.6,3.7c3.3,5,6.5,10.2,9.2,15.6c1.4,2.7,2.7,5.4,4,8.1c1.2,2.7,2.5,5.5,3.5,8.3
								c4.5,11.1,7.8,22.6,10.3,34.3c0.6,2.9,1.1,5.9,1.6,8.8c0.4,3,0.9,5.9,1.2,8.9c0.8,5.9,1.1,11.9,1.4,17.9
								c0.3,12-0.3,24.1-2.4,36c-2,12-5.2,23.8-10.2,35.2c-5.1,11.3-11.8,22.4-21.2,31.6c-4.7,4.6-10,8.7-16,12
								c-6,3.3-12.6,5.6-19.3,6.8c-6.8,1.2-13.7,1.2-20.4,0.1c-6.7-1.1-13-3.2-18.9-6c-5.9-2.8-11.2-6.3-16.1-10.1
								c-1.2-1-2.4-1.9-3.6-3l-3.4-3.1l-3.3-3.3c-1.1-1.1-2.1-2.2-3.1-3.4c-4-4.6-7.7-9.3-11.1-14.3c-3.3-5-6.3-10.1-9-15.4
								c-2.6-5.3-5.1-10.7-7.2-16.1c-2-5.5-3.9-11-5.4-16.7c-3.1-11.2-5.1-22.7-6-34.1c-0.2-2,1.3-3.8,3.3-4c1.8-0.2,3.4,1,3.9,2.7
								l0,0.1c1.4,5.4,2.7,10.8,4.5,16c0.8,2.6,1.7,5.2,2.6,7.8c0.5,1.3,1,2.6,1.4,3.9c0.5,1.3,1,2.6,1.5,3.8l1.6,3.8l1.7,3.7
								l0.8,1.9l0.9,1.8c0.6,1.2,1.2,2.5,1.8,3.7c2.5,4.8,5.1,9.6,8,14.1c2.9,4.5,6,8.9,9.3,13.1c3.3,4.1,6.8,8,10.6,11.7
								c7.4,7.2,15.9,13.2,24.8,16.8c4.4,1.8,9,3,13.5,3.5c4.5,0.5,9,0.2,13.3-0.7c8.6-1.9,16.5-6.7,23-13.5
								c6.5-6.8,11.7-15.5,15.6-24.8c3.8-9.4,6.6-19.4,8.2-29.7c1.6-10.3,2.3-20.9,2-31.4c-0.3-10.6-1.3-21.2-3.4-31.6
								c-0.5-2.6-1-5.2-1.6-7.8c-0.5-2.6-1.2-5.2-1.9-7.7c-1.4-5.1-3-10.2-4.8-15.2c-0.9-2.5-1.9-4.9-2.8-7.4
								c-1.1-2.4-2-4.9-3.2-7.2c-2.2-4.8-4.7-9.4-7.4-13.9c-2.7-4.5-5.6-8.8-8.8-12.9c-3.2-4.1-6.6-8-10.2-11.5
								c-3.7-3.5-7.6-6.8-11.7-9.5c-4.1-2.8-8.5-5.1-13.1-6.7c-4.6-1.7-9.3-2.7-14.1-2.9l-1.8-0.1l-1.8,0.1c-0.6,0-1.2,0-1.8,0.1
								l-1.8,0.2c-2.4,0.3-4.8,0.8-7.2,1.4c-2.4,0.7-4.7,1.6-6.9,2.6c-2.3,1.1-4.5,2.3-6.6,3.7c-2.2,1.4-4.2,3-6.2,4.6
								c-2,1.7-3.9,3.5-5.8,5.5l-0.1,0.1c-1.8,1.8-4.6,1.8-6.4,0.1C2663.5,1168.1,2663.3,1165.6,2664.6,1163.9z"/>
						</g>
					</g>
				</g>
			</g>
			<g>
				<g>
					<g>
						<g>
							<path class="st5" d="M2850.1,1241.2c3,4.4,5.5,9.2,7.6,14.1c2.2,4.9,3.9,10,5.4,15.2c2.9,10.4,4.4,21.2,4.6,32.1
								c0.2,10.8-0.8,21.7-2.9,32.3c-2.2,10.6-5.4,21-9.7,31c-4.3,10-9.6,19.5-15.9,28.4c-1.6,2.2-3.2,4.4-4.9,6.5
								c-1.7,2.1-3.5,4.2-5.4,6.2c-3.7,4.1-7.7,7.8-11.9,11.4c-8.5,7-18.2,12.9-28.8,16.5c-10.5,3.6-22.1,4.8-32.8,2.6
								c-2-0.4-3.3-2.4-2.9-4.4c0.3-1.6,1.6-2.7,3.1-2.9l0.1,0c19.2-2.7,34.9-13.2,47.4-26.7c12.6-13.5,22.3-29.8,29.5-47.1
								c7.1-17.4,11.7-35.8,13.5-54.5c0.9-9.4,1-18.9,0.3-28.4c-0.3-4.8-0.9-9.5-1.7-14.3c-0.8-4.8-1.8-9.5-2.9-14.4l0-0.1
								c-0.6-2.5,1-4.9,3.4-5.5C2847.2,1238.8,2849.1,1239.6,2850.1,1241.2z"/>
						</g>
					</g>
				</g>
			</g>
			<g class="st4">
				<g>
					<g>
						<g>
							
								<ellipse transform="matrix(0.9667 -0.256 0.256 0.9667 -192.1174 848.3261)" class="st5" cx="3162.7" cy="1162.2" rx="107.6" ry="91.8"/>
						</g>
					</g>
				</g>
			</g>
			<g>
				<g>
					<g>
						<g>
							
								<ellipse transform="matrix(3.165111e-02 -0.9995 0.9995 3.165111e-02 1851.7869 4309.3042)" class="st3" cx="3149.9" cy="1199" rx="65.2" ry="80.8"/>
						</g>
					</g>
				</g>
			</g>
			<g>
				<g>
					<g>
						<g>
							<path class="st5" d="M3188.9,1249.7l3.8-1.6c1.3-0.5,2.5-1,3.8-1.6l3.7-1.8c1.2-0.6,2.5-1.1,3.6-1.8l3.6-1.9l1.8-1l1.7-1.1
								c2.3-1.4,4.6-2.8,6.8-4.4l3.3-2.3l3.2-2.5l1.6-1.2c0.5-0.4,1-0.8,1.5-1.3l3-2.6l1.5-1.3l1.4-1.4l2.8-2.8
								c0.9-0.9,1.8-2,2.7-2.9c0.9-1,1.8-1.9,2.6-3l2.4-3.1c0.4-0.5,0.8-1,1.2-1.5l1.1-1.6l2.2-3.2c0.7-1.1,1.4-2.2,2-3.3
								c1.4-2.2,2.6-4.5,3.8-6.7c0.6-1.1,1.1-2.3,1.6-3.5c0.5-1.2,1.1-2.3,1.5-3.5l1.3-3.6c0.2-0.6,0.5-1.2,0.7-1.8l0.5-1.8l1.1-3.6
								c0.3-1.2,0.6-2.4,0.8-3.7c1-4.9,1.6-9.9,1.7-14.8c0.1-9.9-1.7-19.6-5.4-28.7c-3.6-9.1-9.2-17.2-16-24.2
								c-6.8-7.1-15.1-12.7-24.1-17.2c-4.5-2.2-9.2-4.1-14-5.6l-1.8-0.6l-1.8-0.5c-1.2-0.3-2.4-0.7-3.7-0.9l-3.7-0.8l-3.8-0.7
								c-40.1-6.6-84.7,9.1-110.3,41.4c-3.2,4-6.1,8.3-8.6,12.7c-2.5,4.5-4.6,9.1-6.3,13.9c-3.4,9.6-5.1,19.9-4.6,30.1
								c0.2,5.1,1,10.3,2.2,15.3c1.2,5.1,3,10,5.3,14.8c2.3,4.8,5,9.3,8.2,13.6c3.1,4.3,6.8,8.4,10.7,12.2l0,0
								c1.5,1.4,1.5,3.7,0.1,5.2c-1.3,1.3-3.3,1.5-4.7,0.5c-4.9-3.4-9.3-7.2-13.5-11.5c-4.2-4.3-7.8-9.1-11.1-14.2
								c-6.5-10.3-10.7-22.1-12.4-34.3c-1.7-12.3-0.7-24.9,2.6-36.9c3.2-12,8.8-23.3,15.9-33.4c14.3-20.2,34.8-35.7,57.7-44.8
								c5.7-2.2,11.6-4.2,17.5-5.8c6-1.5,12-2.7,18.2-3.4c6.1-0.7,12.3-1.1,18.5-1c6.2,0.1,12.4,0.7,18.6,1.6
								c6.2,0.9,12.3,2.4,18.2,4.3c6,1.9,11.8,4.2,17.5,7c5.7,2.8,11.1,6.1,16.2,9.8c5.1,3.7,10,8,14.4,12.6
								c4.4,4.7,8.3,9.8,11.8,15.3c3.4,5.5,6.3,11.3,8.5,17.4c4.5,12.1,6.3,25.1,5.4,37.9c-0.4,6.4-1.5,12.7-3.2,18.8
								c-0.4,1.5-0.9,3-1.3,4.5l-1.6,4.4l-0.8,2.2c-0.3,0.7-0.6,1.4-0.9,2.2l-1.9,4.3c-5.5,11.2-12.9,21.2-21.4,29.9
								c-8.6,8.6-18.5,15.8-29,21.4c-2.6,1.5-5.3,2.7-8,3.9l-2,0.9l-2.1,0.8l-4.1,1.6c-1.4,0.6-2.8,0.9-4.2,1.4l-4.2,1.3
								c-2.8,0.8-5.7,1.4-8.6,2.1c-2.4,0.6-4.9-0.9-5.5-3.4c-0.5-2.2,0.6-4.4,2.7-5.2L3188.9,1249.7z"/>
						</g>
					</g>
				</g>
			</g>
			<g>
				<g>
					<g>
						<g>
							<path class="st5" d="M3019.3,1147.2c-1,5.3-1.9,10.5-2.3,15.8c-0.5,5.3-0.6,10.5-0.3,15.8c0.5,10.5,2.4,20.7,5.6,30.5
								c0.7,2.5,1.8,4.8,2.7,7.2c0.4,1.2,1,2.4,1.5,3.5l1.6,3.5c2.3,4.6,4.7,9,7.6,13.2c0.7,1,1.4,2.1,2.1,3.2l2.3,3l1.1,1.5
								l1.2,1.5l2.5,2.9c0.8,1,1.7,1.9,2.6,2.8c0.9,0.9,1.7,1.9,2.6,2.7l2.7,2.6c0.5,0.4,0.9,0.9,1.4,1.3l1.4,1.2l2.9,2.5
								c1,0.8,2,1.6,3,2.4c2,1.6,4.1,3,6.2,4.5c1,0.8,2.1,1.4,3.2,2.1l3.2,2.1l3.3,1.9c1.1,0.6,2.2,1.3,3.3,1.9
								c9,4.8,18.6,8.6,28.4,11.5c9.8,2.9,20,4.7,30.3,5.7c10.3,1,20.6,0.9,30.9,0c20.6-1.8,41-7.3,59.8-16
								c18.8-8.7,36.1-20.8,50.5-35.9l1.4-1.4l1.3-1.5l2.6-2.9c1.7-2,3.3-4,4.9-6c3.1-4.2,6.2-8.4,8.8-12.8
								c5.4-8.9,10-18.3,13.2-28.2c3.2-9.9,5.3-20.3,5.9-30.8c0.1-2.6,0.3-5.3,0.2-7.9l-0.1-4l-0.3-4c-0.1-2.7-0.5-5.3-0.9-8
								c-0.1-1.3-0.4-2.6-0.7-4l-0.7-4l0-0.3c-0.4-2,1-3.9,2.9-4.2c1.8-0.3,3.5,0.7,4.1,2.4c0.9,2.7,2,5.4,2.7,8.2
								c0.8,2.8,1.6,5.5,2.1,8.4l0.9,4.3l0.6,4.3c0.5,2.9,0.6,5.8,0.9,8.7c0.2,1.5,0.1,2.9,0.2,4.4c0,1.5,0.1,2.9,0.1,4.4l-0.2,4.4
								l-0.1,2.2l-0.2,2.2l-0.4,4.4c-0.2,1.5-0.4,2.9-0.6,4.4c-0.4,2.9-1,5.8-1.6,8.7c-0.3,1.4-0.7,2.9-1,4.3l-1.2,4.3l-1.4,4.2
								c-0.5,1.4-0.9,2.8-1.4,4.2c-1.1,2.7-2.1,5.5-3.3,8.2l-1.8,4l-2,3.9c-5.4,10.5-12,20.3-19.7,29.3c-7.7,9-16.2,17.2-25.6,24.4
								c-1.1,0.9-2.3,1.8-3.5,2.7l-3.6,2.6c-2.4,1.7-4.9,3.3-7.4,4.9c-2.5,1.5-5.1,3-7.6,4.5c-2.6,1.4-5.2,2.8-7.8,4.1
								c-10.5,5.3-21.6,9.6-32.9,12.8c-11.3,3.3-23,5.5-34.7,6.6c-23.5,2.3-47.6,0.1-70.4-6.9c-11.4-3.6-22.4-8.3-32.8-14.3
								c-10.4-6-20-13.3-28.6-21.6c-8.7-8.3-16.1-18-22.1-28.4c-3-5.2-5.5-10.7-7.8-16.2c-0.5-1.4-1-2.8-1.5-4.2
								c-0.5-1.4-1-2.8-1.4-4.2c-0.8-2.9-1.7-5.7-2.3-8.6c-5.4-23.2-3.5-47.7,4.8-69.2c0.9-2.3,3.5-3.5,5.9-2.6
								C3018.6,1142.9,3019.8,1145.1,3019.3,1147.2L3019.3,1147.2z"/>
						</g>
					</g>
				</g>
			</g>
			<g class="st4">
				<g>
					<g>
						<g>
							
								<ellipse transform="matrix(0.9992 -3.892022e-02 3.892022e-02 0.9992 -29.2828 130.2024)" class="st5" cx="3329.5" cy="817.2" rx="57.1" ry="48.7"/>
						</g>
					</g>
				</g>
			</g>
			<g>
				<g>
					<g>
						<g>
							
								<ellipse transform="matrix(0.249 -0.9685 0.9685 0.249 1683.8914 3841.0151)" class="st3" cx="3318.5" cy="834.8" rx="34.6" ry="42.9"/>
						</g>
					</g>
				</g>
			</g>
			<g>
				<g>
					<g>
						<g>
							<path class="st5" d="M3332.9,865.1c11.4-1.9,22.2-6.2,30.8-13c1-0.9,2.2-1.7,3.1-2.6l1.5-1.4c0.5-0.5,0.9-1,1.4-1.5
								c1.9-1.9,3.5-4,5-6.2c0.7-1.1,1.5-2.2,2.1-3.4l0.9-1.7c0.3-0.6,0.6-1.2,0.8-1.8c1.1-2.4,1.9-4.8,2.5-7.3
								c2.3-9.9,0.5-20.4-4.9-28.9c-5.3-8.6-14-15.2-23.7-19.2c-19.5-7.9-44-5.1-60.7,8.3c-8.4,6.6-14.6,15.9-16.6,26.4
								c-0.5,2.6-0.7,5.3-0.7,8c0,2.7,0.4,5.4,0.9,8.1c1.1,5.4,3.4,10.6,6.5,15.5l0,0c0.7,1.1,0.4,2.5-0.7,3.2c-1,0.6-2.2,0.4-3-0.4
								c-2.2-2.3-4.1-4.8-5.8-7.5c-1.7-2.7-3.1-5.7-4.2-8.7c-2.3-6.1-3.1-12.8-2.6-19.5c0.5-6.7,2.5-13.3,5.6-19.2
								c3.1-6,7.3-11.3,12.2-15.8c9.9-9,22.5-14.8,35.6-17c13.1-2.2,26.8-1,39.4,4c3.1,1.2,6.2,2.7,9.1,4.4c2.9,1.7,5.8,3.6,8.4,5.8
								c5.3,4.3,10,9.5,13.5,15.5c3.5,6,6,12.8,6.8,19.7c0.9,6.9,0.3,14.1-1.7,20.7c-1,3.3-2.3,6.5-3.9,9.5
								c-0.4,0.8-0.8,1.5-1.3,2.2l-1.4,2.1c-0.9,1.5-2,2.8-3,4.1c-4.2,5.2-9.3,9.6-14.9,13.1c-11.2,6.9-24.1,10.2-36.6,9.9
								c-1.6,0-2.9-1.4-2.8-3C3330.5,866.5,3331.5,865.3,3332.9,865.1L3332.9,865.1z"/>
						</g>
					</g>
				</g>
			</g>
			<g>
				<g>
					<g>
						<g>
							<path class="st5" d="M3257.4,793.1c-4.5,10.4-6.4,21.5-5.1,32.2c0.6,5.3,1.9,10.6,3.9,15.5c1.9,4.9,4.5,9.6,7.7,13.8
								c6.3,8.5,14.7,15.5,24.1,20.6c9.4,5.2,19.9,8.4,30.6,9.8c10.7,1.4,21.8,1,32.4-1.3c10.6-2.3,20.9-6.4,29.9-12.4
								c4.6-3,8.8-6.4,12.6-10.3c3.8-3.9,7.3-8.1,10.1-12.8c2.9-4.7,5.1-9.7,6.7-15c1.6-5.3,2.4-10.9,2.6-16.6l0,0
								c0-1.3,1.1-2.3,2.4-2.3c1.1,0,2.1,0.9,2.2,2c1,6.1,1,12.3,0.1,18.5c-0.2,1.5-0.5,3.1-0.8,4.6l-0.6,2.3
								c-0.2,0.8-0.4,1.5-0.6,2.3l-0.7,2.2c-0.2,0.7-0.5,1.5-0.8,2.2c-0.5,1.5-1.2,2.9-1.8,4.4c-2.6,5.8-6.1,11.1-10.1,16
								c-4,4.9-8.6,9.3-13.7,13.1c-10.1,7.7-21.8,13.2-34.1,16.3c-12.3,3.1-25.1,3.9-37.7,2.3c-12.6-1.6-25-5.5-36.1-11.9
								c-5.5-3.2-10.8-7-15.5-11.4c-4.7-4.4-8.9-9.4-12.4-14.8c-3.6-5.4-6.3-11.4-8.2-17.6c-1-3.1-1.6-6.3-2.1-9.4
								c-0.2-1.6-0.4-3.2-0.5-4.8c-0.1-1.6-0.2-3.2-0.2-4.8c0-6.4,1-12.8,2.9-18.8c0.9-3,2.1-5.9,3.4-8.7c1.4-2.8,2.9-5.5,4.7-8
								c0.9-1.3,2.7-1.6,4-0.7C3257.5,790.4,3257.9,791.9,3257.4,793.1L3257.4,793.1z"/>
						</g>
					</g>
				</g>
			</g>
			<g>
				<g>
					<g>
						<g>
							<path class="st5" d="M3471.1,950.8c-6,3.9-11.4,8.2-16.4,13c-4.9,4.9-9.3,10.1-13.1,15.7c-7.5,11.2-12.5,23.8-14.9,36.9
								c-2.3,13.1-2.2,26.6,0.1,39.7c2.3,13.2,6.9,26,13.2,37.8c6.4,11.9,14.5,22.9,24.1,32.6c4.9,4.7,9.9,9.4,15.4,13.5l4.1,3.1
								l4.3,2.8c2.8,2,5.8,3.6,8.8,5.3c1.5,0.9,3,1.6,4.5,2.4l4.6,2.3l4.8,2l2.4,1c0.8,0.4,1.6,0.6,2.4,0.9l4.9,1.7
								c0.8,0.3,1.6,0.5,2.5,0.8l2.5,0.7l2.5,0.7c0.8,0.2,1.7,0.5,2.5,0.6c1.7,0.4,3.4,0.7,5.1,1.1c1.7,0.4,3.4,0.6,5.1,0.9
								c1.7,0.2,3.4,0.6,5.2,0.8l5.2,0.4c0.9,0.1,1.8,0.2,2.6,0.2l2.6,0l5.3,0.1l5.3-0.3l2.7-0.1l2.6-0.3c1.8-0.2,3.6-0.4,5.3-0.6
								l0.3,0c2-0.2,3.8,1.3,4,3.3c0.2,1.7-0.9,3.3-2.4,3.8c-1.8,0.6-3.6,1.3-5.5,1.9l-2.8,0.9l-2.8,0.7l-5.7,1.4
								c-1.9,0.3-3.8,0.6-5.8,0.9l-2.9,0.5c-1,0.1-1.9,0.2-2.9,0.3l-5.9,0.4c-2,0.1-3.9,0-5.9,0c-2,0-3.9,0-5.9-0.2
								c-2-0.1-3.9-0.3-5.9-0.5c-1-0.1-2-0.2-2.9-0.4l-2.9-0.4l-2.9-0.4c-1-0.1-2-0.3-2.9-0.5l-5.8-1.3c-1-0.2-1.9-0.4-2.9-0.7
								l-2.8-0.9l-5.7-1.8l-5.5-2.1c-1.8-0.7-3.7-1.4-5.5-2.3c-14.5-6.5-27.9-15.4-39.7-26.2c-11.7-10.8-21.7-23.6-29.4-37.7
								c-3.9-7-7.1-14.4-9.8-22.1c-2.6-7.6-4.5-15.5-5.7-23.5c-2.3-16-1.7-32.6,2.4-48.4c4.1-15.7,11.8-30.6,22.6-42.6
								c1.3-1.5,2.7-2.9,4.2-4.4c1.4-1.5,2.9-2.8,4.4-4.1c1.5-1.4,3.1-2.6,4.6-3.8c1.5-1.2,3.1-2.4,4.8-3.5c3.3-2.2,6.7-4.2,10.2-6
								c3.5-1.7,7.1-3.3,10.8-4.6c2.4-0.8,5,0.5,5.8,2.9C3473.7,947.5,3472.9,949.6,3471.1,950.8L3471.1,950.8z"/>
						</g>
					</g>
				</g>
			</g>
			<g class="st4">
				<g>
					<g>
						<g>
							
								<ellipse transform="matrix(0.9049 -0.4257 0.4257 0.9049 -113.1039 1603.998)" class="st5" cx="3532.4" cy="1055.1" rx="73.8" ry="89"/>
						</g>
					</g>
				</g>
			</g>
			<g>
				<g>
					<g>
						<g>
							<path class="st3" d="M3554.8,1127.7c-25.3,7.2-55.7-3.1-76.8-28.5c-28.1-33.8-28.9-81.7-1.9-106.9c3.8-3.6,8-6.5,12.4-8.8
								c20.7,2.5,41.6,14,57.7,33.3C3574.7,1051.2,3577.8,1098.7,3554.8,1127.7z"/>
						</g>
					</g>
				</g>
			</g>
			<g>
				<g>
					<g>
						<g>
							<path class="st5" d="M3587.2,1010.1c-6-5.3-12.5-9.8-19.3-13.4c-6.8-3.6-14-6.3-21.3-8c-14.6-3.4-29.8-2.4-42.4,3.3l-2.3,1.1
								l-1.2,0.6l-1.1,0.6c-1.5,0.8-2.9,1.8-4.3,2.7c-1.4,1-2.7,2-4,3.1c-1.3,1.1-2.5,2.3-3.7,3.5c-4.7,4.9-8.4,10.6-10.9,16.9
								c-2.6,6.3-3.9,13.1-4.1,20c-0.2,6.9,0.7,14,2.6,20.8c3.8,13.7,11.7,26.4,22.2,36.5l2,1.9c0.7,0.6,1.4,1.2,2.1,1.8l2.1,1.8
								l2.2,1.6l2.2,1.6l2.3,1.5c0.8,0.5,1.5,1,2.3,1.5l2.4,1.3c6.4,3.5,13.2,6.2,20.3,7.8c7.1,1.7,14.4,2.1,21.7,1.5
								c0.9-0.1,1.8-0.1,2.7-0.3l2.7-0.5c1.8-0.3,3.6-0.7,5.3-1.1c3.5-0.9,6.9-2.3,10.2-3.8c6.6-3.2,12.7-7.7,17.7-13.3
								c5.1-5.6,9.1-12.3,12-19.6l0-0.1c0.7-1.9,2.9-2.8,4.8-2.1c1.6,0.6,2.6,2.3,2.3,4c-1.4,8.7-4.7,17.3-9.7,24.9
								c-5,7.6-11.7,14.3-19.5,19.4c-3.9,2.6-8.1,4.7-12.4,6.4c-2.2,0.9-4.4,1.7-6.7,2.2l-3.4,0.9c-1.1,0.3-2.3,0.5-3.4,0.7
								c-9.2,1.8-18.7,1.9-27.9,0.6c-18.5-2.8-36-11.2-49.9-23.7c-0.9-0.8-1.8-1.5-2.6-2.3l-2.5-2.5c-0.8-0.8-1.7-1.6-2.5-2.5
								l-2.3-2.6c-3-3.6-5.9-7.3-8.4-11.3c-2.5-4-4.9-8.1-6.8-12.4c-1.9-4.3-3.6-8.8-4.9-13.3c-1.4-4.6-2.3-9.3-2.9-14
								c-0.6-4.8-0.8-9.6-0.6-14.4c0.4-9.7,2.5-19.4,6.4-28.4c4-9,9.8-17.3,16.9-24.1c7.1-6.7,15.8-12,24.8-15.2
								c9.1-3.4,18.7-4.8,28.1-4.6c1.2,0,2.3,0.1,3.5,0.2l3.5,0.3c1.2,0.1,2.3,0.3,3.5,0.4l3.4,0.6c4.5,0.9,9,2.1,13.3,3.6
								c17.2,6.2,32.1,17.6,42.4,31.7c1.5,2,1,4.9-1,6.4C3591.2,1011.7,3588.8,1011.6,3587.2,1010.1L3587.2,1010.1z"/>
						</g>
					</g>
				</g>
			</g>
			<g>
				<g>
					<g>
						<g>
							<path class="st3" d="M3424.6,1426.1c28.3,11.4,51.5,29.9,65.9,55c26.2,45.6,16.6,99.9-17.5,150.4
								c-22.4,33.1-55.8,63.4-98,85.8c-106.4,56.5-227.9,41.1-271.2-34.4c-16.1-28.1-19.2-60.5-11.2-93.1
								c13.5-55,59.9-107.6,126.7-143.1"/>
						</g>
					</g>
				</g>
			</g>
			<g>
				<g>
					<g>
						<g>
							<path class="st5" d="M3495.2,1478.4c7.3,10.7,12.8,22.8,16,35.6c3.3,12.8,4.2,26.2,3.2,39.4c-1,13.2-3.8,26.2-8,38.7
								c-2.1,6.2-4.5,12.3-7.3,18.2c-2.7,5.9-5.6,11.8-8.9,17.4c-6.5,11.2-13.8,22.1-22,32.2c-8.2,10.1-17.2,19.5-26.7,28.3
								c-2.4,2.2-4.8,4.3-7.3,6.4c-2.5,2-5,4.1-7.5,6.1c-5.1,4-10.3,7.9-15.6,11.5c-10.7,7.3-21.8,13.9-33.3,19.8
								c-23,11.7-47.5,20.6-72.8,25.9c-6.3,1.3-12.7,2.5-19.1,3.4c-6.4,0.9-12.9,1.5-19.3,1.9c-12.9,0.9-25.9,0.7-38.9-0.5
								c-6.5-0.6-12.9-1.6-19.3-2.8c-6.4-1.2-12.7-2.7-19-4.6c-12.5-3.7-24.7-8.6-36.1-15.1c-11.4-6.4-22-14.4-31.1-23.7
								c-4.6-4.7-8.7-9.7-12.5-15c-3.7-5.3-7-10.9-9.7-16.7c-1-2.2-0.1-4.7,2.1-5.7c1.9-0.9,4.2-0.3,5.3,1.4l0,0
								c3.5,4.9,7.1,9.5,11.2,13.8c4,4.3,8.3,8.3,12.9,11.9c9.2,7.2,19.2,13.2,29.8,17.8c21.3,9.3,44.5,13.8,67.8,14.6
								c23.3,0.8,46.8-2,69.6-7.5c5.7-1.4,11.3-3,16.9-4.7c5.6-1.7,11.2-3.7,16.6-5.7c5.5-2.1,10.9-4.3,16.3-6.7
								c5.4-2.4,10.7-4.9,15.9-7.6c10.4-5.4,20.6-11.3,30.3-17.9c9.8-6.5,19.1-13.6,27.9-21.3c8.8-7.6,17.1-15.9,24.9-24.6
								c7.7-8.7,14.7-18,21.1-27.8c6.3-9.8,11.8-20.1,16.3-30.7c4.4-10.6,7.8-21.7,9.7-33c1.9-11.3,2.3-22.8,0.8-34.2
								c-1.5-11.4-4.8-22.6-9.8-33.3l0,0c-1.2-2.7-0.1-5.9,2.6-7.1C3490.9,1475.5,3493.7,1476.3,3495.2,1478.4z"/>
						</g>
					</g>
				</g>
			</g>
			<g class="st4">
				<g>
					<g>
						<g>
							
								<ellipse transform="matrix(0.9353 -0.3537 0.3537 0.9353 -346.0945 1268.4817)" class="st5" cx="3297" cy="1581" rx="165.7" ry="120.4"/>
						</g>
					</g>
				</g>
			</g>
			<g>
				<g>
					<g>
						<g>
							
								<ellipse transform="matrix(0.961 -0.2765 0.2765 0.961 -318.2817 973.512)" class="st3" cx="3292.6" cy="1615.3" rx="140.5" ry="88.6"/>
						</g>
					</g>
				</g>
			</g>
			<g>
				<g>
					<g>
						<g>
							<path class="st5" d="M3198,1705.3c-3.8-1.3-7.7-2.7-11.4-4.4c-1.9-0.8-3.7-1.7-5.5-2.6c-1.8-1-3.6-1.9-5.4-3
								c-7.1-4.2-13.8-9.3-19.8-15.2c-12.1-11.8-20.9-27.1-25.3-43.8c-2.2-8.3-3.3-16.9-3.3-25.5c-0.1-8.6,0.9-17.1,2.7-25.4
								c1.8-8.3,4.4-16.4,7.6-24.1l1.2-2.9c0.4-1,0.8-1.9,1.3-2.9c0.9-1.9,1.8-3.8,2.7-5.7l3-5.5c1-1.8,2.1-3.6,3.2-5.4
								c1-1.8,2.2-3.5,3.3-5.3c1.1-1.7,2.3-3.5,3.5-5.2c1.2-1.7,2.4-3.4,3.7-5l3.9-4.9c5.3-6.4,10.8-12.5,16.8-18.2
								c11.9-11.4,25.1-21.5,39.1-30c28-17,59.6-28.6,92.5-32.5c8.2-0.9,16.5-1.4,24.9-1.4c8.3,0.1,16.7,0.7,25.1,1.9
								c16.6,2.4,33.2,7.3,48.5,15.5c7.6,4.1,14.9,9,21.6,14.8c6.6,5.8,12.6,12.4,17.6,19.8c5,7.3,9,15.3,11.9,23.6
								c2.9,8.4,4.6,17.1,5.3,25.8c0.6,8.7,0.1,17.4-1.2,25.8c-1.4,8.4-3.7,16.6-6.6,24.4c-3,7.8-6.6,15.3-10.7,22.4
								c-4.2,7.1-8.8,13.8-13.9,20.2c-5.1,6.4-10.5,12.3-16.4,17.9c-2.9,2.8-5.9,5.5-8.9,8.1c-1.5,1.3-3.1,2.5-4.7,3.8
								c-0.8,0.6-1.6,1.3-2.3,1.9l-2.4,1.8c-6.4,4.9-13,9.2-19.8,13.3l-5.2,3c-1.7,1-3.5,1.9-5.3,2.8c-3.5,1.9-7.1,3.5-10.7,5.2
								c-2.1,1-4.7,0.1-5.7-2c-1-2-0.3-4.3,1.5-5.5l0.2-0.1c6.4-4.1,12.8-8.2,18.7-12.9c6-4.6,11.9-9.3,17.3-14.4l2.1-1.9
								c0.7-0.6,1.3-1.3,2-2l4-4c2.6-2.7,5.1-5.4,7.5-8.2l1.8-2.1c0.6-0.7,1.2-1.4,1.8-2.2c1.2-1.4,2.4-2.9,3.5-4.3l3.3-4.4
								c1.1-1.5,2.1-3,3.1-4.5c4.1-6.1,7.9-12.4,11-18.9c3.2-6.5,5.9-13.2,8-20c2.1-6.8,3.6-13.7,4.3-20.6
								c0.7-6.9,0.7-13.8-0.1-20.5c-0.8-6.7-2.4-13.2-4.9-19.4c-2.5-6.2-5.7-12-9.6-17.3c-3.9-5.3-8.5-10.1-13.7-14.3
								c-5.1-4.3-10.9-7.9-17-10.9c-6.1-3.1-12.6-5.5-19.2-7.5c-6.7-2-13.5-3.4-20.5-4.3c-7-0.9-14.1-1.3-21.2-1.3
								c-7.1,0.1-14.3,0.5-21.4,1.4c-28.5,3.6-56.4,13.5-81.5,28.2c-6.3,3.6-12.3,7.7-18.2,11.9c-5.9,4.2-11.4,8.9-16.8,13.7
								c-5.4,4.8-10.4,10-15.1,15.4c-4.7,5.4-9.1,11.1-13.1,17c-4,5.9-7.5,12.1-10.5,18.5c-3,6.4-5.5,13-7.4,19.7
								c-1.9,6.7-3.1,13.6-3.5,20.5c-0.4,6.9-0.1,13.8,1.2,20.6c1.2,6.8,3.3,13.4,6.3,19.6l1.1,2.4l1.2,2.3c0.4,0.8,0.8,1.5,1.3,2.3
								c0.5,0.7,0.9,1.5,1.4,2.2c1,1.5,1.9,2.9,3,4.3c1,1.4,2.1,2.8,3.2,4.2c4.5,5.4,9.7,10.4,15.6,14.7c5.7,4.4,12.1,8.1,18.8,11.4
								l0.1,0.1c2.6,1.3,3.7,4.5,2.4,7.2C3203.3,1705,3200.5,1706.1,3198,1705.3z"/>
						</g>
					</g>
				</g>
			</g>
		</g>
		<g>
			<g>
				<g>
					<g>
						<g>
							<path class="st7" d="M1155.9,2868.8c-10.6,64.7-62.7,90.4-165.3,70.1c-102.6-20.3-142.1,23.2-149,31.6
								c-23.1,28.3-189.6,296.5-31.1,372.6c111.8,53.7,228.6-121.8,228.6-121.8s263.6,176.8,629.3-225.2"/>
						</g>
					</g>
				</g>
			</g>
			<g>
				<g>
					<g>
						<g>
							<path class="st5" d="M1327.6,3220.3c-31.3,0-61.3-5.3-88.9-15.9c-88.8-34-154.3-120.3-194.6-256.4c-2.7-9,2.5-18.4,11.4-21
								c9-2.7,18.4,2.5,21,11.4c37.2,125.5,95.9,204.4,174.3,234.4c109.4,41.9,221.9-25.8,223-26.5c8-4.9,18.4-2.4,23.3,5.6
								c4.9,8,2.4,18.4-5.6,23.3c-1.3,0.8-32.4,19.7-78.8,32.8C1383.8,3216.2,1355.2,3220.3,1327.6,3220.3z"/>
						</g>
					</g>
				</g>
			</g>
			<g class="st4">
				<g>
					<g>
						<g>
							<path class="st5" d="M810.5,3343.2c111.8,53.7,228.6-121.8,228.6-121.8s263.6,176.7,629.3-225.2l-335.3-83.3
								c-118.8,218.5-307.9,210.1-307.9,210.1s-64.5,216.6-231.8,163.6c-45.1-14.3-37.9-69.8-48.5-89
								C737.1,3258,750.5,3314.3,810.5,3343.2z"/>
						</g>
					</g>
				</g>
			</g>
			<g>
				<g>
					<g>
						<g>
							<path class="st5" d="M854.8,3370.2c-17.9,0-35.2-3.9-51.7-11.8c-39.2-18.8-63.8-49.5-73.1-91.3
								c-11.1-49.8-0.1-113.6,32.8-189.7c24.1-55.8,54.7-104.2,65.7-117.7c11.6-14.2,57.6-58.8,165.4-37.5
								c54.9,10.9,94.7,8.1,118.3-8.3c14.6-10.1,23.4-25.8,27.1-47.9c1.5-9.2,10.2-15.5,19.4-14c9.2,1.5,15.5,10.2,14,19.4
								c-5.1,31.2-19,54.8-41.2,70.3c-31.8,22.1-79,26.6-144.1,13.7c-91.5-18.1-126.5,18.2-132.6,25.6
								c-14.3,17.6-114.6,175.6-91.6,278.6c7,31.5,24.9,53.8,54.7,68.1c97.2,46.7,206.1-114.3,207.2-115.9l9.4-14.1l14.1,9.4
								c0.6,0.4,64.2,41.6,169.6,35.2c98.2-6,253.8-55.5,437.7-257.7c6.3-6.9,17-7.4,23.9-1.1c6.9,6.3,7.4,17,1.1,23.9
								c-84.7,93.1-171.3,163.2-257.3,208.3c-69.5,36.5-138.9,56.8-206.1,60.5c-7.5,0.4-14.8,0.6-21.9,0.6
								c-75.2,0-127.7-21.3-151.6-33.4c-12.2,16.3-35.8,45.4-66.3,71.6C935.3,3351.7,893.6,3370.2,854.8,3370.2z"/>
						</g>
					</g>
				</g>
			</g>
			<g>
				<g>
					<g>
						<g>
							<g>
								<path class="st7" d="M1624.1,2213.4c-10.7-1.9-235.9-107.8-386.9-105.6c-125.9,1.8-365.8,427-323.6,538.8
									c39.1,103.6,257,197.7,257,197.7L1624.1,2213.4z"/>
							</g>
						</g>
					</g>
				</g>
				<g>
					<g>
						<g>
							<g>
								<path class="st7" d="M1624.1,2213.4l-73.7,102.5l-379.8,528.3c0,0-105.6-45.6-183-108.4c-33.8-27.3-62.1-57.9-74-89.3
									c-42.2-111.7,197.7-537,323.6-538.8C1388.3,2105.6,1613.4,2211.5,1624.1,2213.4z"/>
							</g>
						</g>
					</g>
				</g>
				<g class="st4">
					<g>
						<g>
							<g>
								<path class="st5" d="M1550.4,2315.9l-379.8,528.3c0,0-0.1,0-0.2-0.1c-0.5-0.2-2-0.9-4.5-2c-0.5-0.2-1-0.5-1.6-0.8
									c-0.1,0-0.2-0.1-0.3-0.1c-0.5-0.2-1.1-0.5-1.7-0.8c-1.4-0.7-3-1.4-4.8-2.2c-0.4-0.2-0.9-0.4-1.3-0.6
									c-0.4-0.2-0.8-0.4-1.2-0.6c-0.5-0.3-1.1-0.5-1.6-0.8c-5.6-2.6-12.5-6-20.2-9.8c-0.9-0.5-1.9-0.9-2.9-1.4
									c-2.9-1.5-5.9-3-9.1-4.6c-1-0.5-2.1-1.1-3.2-1.6c-1.2-0.6-2.5-1.3-3.8-2c-1.5-0.8-3.1-1.7-4.7-2.5c-0.5-0.2-0.9-0.5-1.4-0.7
									c-1.2-0.6-2.3-1.2-3.5-1.9c-3.3-1.8-6.7-3.6-10.1-5.5c-0.1-0.1-0.2-0.1-0.4-0.2c-2.4-1.3-4.8-2.7-7.2-4.1
									c-0.1,0-0.1-0.1-0.2-0.1c-1.8-1-3.5-2-5.3-3c-1.1-0.6-2.2-1.3-3.4-2c-4.2-2.5-8.6-5-12.9-7.6c-2.8-1.7-5.6-3.4-8.5-5.2
									c-2.6-1.6-5.2-3.2-7.8-4.8c-2.6-1.6-5.2-3.3-7.8-5c-2.6-1.7-5.2-3.4-7.8-5.1c-2.6-1.7-5.2-3.5-7.8-5.3
									c-2.6-1.8-5.2-3.5-7.7-5.4c0,0,0,0,0,0c-2.6-1.8-5.1-3.6-7.7-5.5c-2.6-1.9-5.1-3.7-7.6-5.6c-0.4-0.3-0.8-0.6-1.2-0.9
									c-2.1-1.6-4.2-3.2-6.3-4.8c-2.5-1.9-4.9-3.9-7.3-5.8c-33.8-27.3-62.1-57.9-74-89.3c-22-58.3,32.8-202,108.1-326.3
									c-33.5,79-50.4,150.2-36.4,187.2c4.9,12.9,12.6,25.7,22.3,38.2c11.3,14.6,24,27.2,37.8,37.9
									c84.9-151.5,242.3-327.8,326.6-319.4c48.8,4.9,103.9,21.9,156.6,42.8C1535.9,2309.9,1543.2,2312.9,1550.4,2315.9z"/>
							</g>
						</g>
					</g>
				</g>
				<g>
					<g>
						<g>
							<g>
								<path class="st5" d="M1176.4,2865.2l-12.5-5.4c-2.3-1-56.3-24.4-116-61.1c-82-50.4-132.6-99.6-150.2-146.1
									c-16.8-44.4,5.1-119.4,26.4-174.5c27-69.7,68.8-148.4,114.7-215.9c43.2-63.5,126.5-170.3,198.1-171.3
									c55.6-0.8,126.9,12.3,212,39.1c68.5,21.5,127.9,46.1,159.9,59.3c8.4,3.5,16.4,6.8,19,7.7l25.8,4.5L1176.4,2865.2z
									 M1241.8,2124.6c-1.5,0-2.9,0-4.3,0c-39.9,0.6-105.3,60.5-170.6,156.5c-44.6,65.5-85.1,141.7-111.1,209.1
									c-26.7,69-36.3,123.8-26.3,150.3c14.6,38.7,61.6,83.4,135.9,129c41.2,25.3,80.4,44.5,99.7,53.5l432.7-601.9
									c-0.6-0.2-1.2-0.5-1.8-0.7C1538.2,2196.6,1364.1,2124.6,1241.8,2124.6z M1628.2,2197C1628.2,2197,1628.2,2197,1628.2,2197
									C1628.2,2197,1628.2,2197,1628.2,2197z"/>
							</g>
						</g>
					</g>
				</g>
				<g>
					<g>
						<g>
							<g>
								<path class="st5" d="M1228.8,2100.5c5.5,6,10.8,11.9,16.1,17.9c5.3,6,10.5,12,15.7,18.1c10.4,12.1,20.6,24.4,30.6,37
									c10,12.6,19.8,25.2,29.1,38.4c1.2,1.6,2.4,3.3,3.5,4.9l3.4,5c2.2,3.4,4.6,6.6,6.7,10.1c2.2,3.5,4.4,6.9,6.5,10.4l6.1,10.7
									c2.6,4.6,1,10.5-3.6,13.2c-4.5,2.6-10.3,1.1-13-3.3l-0.2-0.3c-7.9-12.9-17.3-25.4-26.9-37.6c-9.7-12.2-19.9-24.1-30.3-35.8
									c-10.4-11.7-21.1-23.2-32-34.6c-5.4-5.7-10.9-11.3-16.4-16.9c-5.5-5.6-11.1-11.2-16.6-16.5l0,0c-5.9-5.8-6.1-15.2-0.3-21.1
									c5.8-5.9,15.2-6.1,21.1-0.3C1228.4,2100.1,1228.6,2100.3,1228.8,2100.5z"/>
							</g>
						</g>
					</g>
				</g>
				<g>
					<g>
						<g>
							<g>
								<path class="st7" d="M1007.2,2335.6l106.4,83.3c9.5,7.4,12.8,20.3,8,31.4c-17.6,40.5-63.2,132-117,136.3
									c-44.6,3.6-90.2-30.8-102.3-72.9c-13.5-47.1,38.7-131.7,66.6-172.3C977.7,2328.8,995.2,2326.2,1007.2,2335.6z"/>
							</g>
						</g>
					</g>
				</g>
				<g class="st4">
					<g>
						<g>
							<g>
								<path class="st5" d="M1121.6,2450.3c-17.6,40.5-63.2,132-117,136.3c-44.6,3.6-90.2-30.8-102.3-72.9
									c-8.3-28.9,8.3-72.1,28.8-110.5c-7,21.4-8.8,41.2-5.3,57.4c19.8,92.6,105.2,56.1,105.2,56.1s-3.2,20.6,2.1,25.4
									c21.9,20,67.9-59.7,90.7-101.5C1123.7,2443.9,1123,2447.2,1121.6,2450.3z"/>
							</g>
						</g>
					</g>
				</g>
				<g>
					<g>
						<g>
							<g>
								<path class="st5" d="M998.3,2603.8c-49,0-98.3-36.9-112.2-85.4c-14.4-50.2,29.5-129.2,68.9-186.6
									c6.8-9.8,17.4-16.5,29.2-18.3c11.8-1.8,24,1.4,33.4,8.7h0l106.4,83.3c15.6,12.2,21,33.4,13.1,51.5
									c-9.9,22.7-26,55.8-46.7,84.8c-27.5,38.6-56,59.3-84.5,61.6C1003.5,2603.7,1000.9,2603.8,998.3,2603.8z M990.9,2346.9
									c-0.6,0-1.1,0-1.5,0.1c-1.5,0.2-4.4,1.1-6.4,4c-48.4,70.5-72.4,129.6-64.3,158.1c9.8,34,45.4,60.9,79.5,60.9
									c1.7,0,3.4-0.1,5.1-0.2c36.6-2.9,77.1-67.1,102.8-126.2c1.7-4,0.5-8.6-2.9-11.3l-106.4-83.3
									C994.7,2347.3,992.5,2346.9,990.9,2346.9z"/>
							</g>
						</g>
					</g>
				</g>
				<g>
					<g>
						<g>
							<g>
								<path class="st5" d="M940.4,2550.4c0,0-0.2,0-0.2,0l0,0C940.4,2550.4,940.4,2550.4,940.4,2550.4l0.4,0.1
									c0.3,0,0.6,0.1,1,0.1c0.7,0.1,1.4,0.1,2.2,0.2c1.5,0.1,3.1,0.1,4.7,0c3.2-0.1,6.5-0.5,9.7-1c3.3-0.5,6.6-1.3,9.8-2.3
									c3.3-0.9,6.5-2.1,9.7-3.4c12.8-5.2,24.9-13.1,35.8-22.8c5.4-4.8,10.6-10.1,15.5-15.7l3.6-4.2l3.6-4.4c1.2-1.5,2.4-3,3.5-4.5
									c1.2-1.5,2.3-3,3.5-4.5c4.6-6,8.9-12.2,12.9-18.6c2-3.2,3.9-6.4,5.7-9.7c0.9-1.6,1.7-3.3,2.5-4.9c0.4-0.8,0.8-1.7,1.1-2.5
									c0.2-0.4,0.3-0.8,0.5-1.2l0.4-1l0.2-0.5c0.9-2.3,3.5-3.4,5.8-2.6c2.1,0.8,3.2,3,2.7,5.2l-0.2,0.9l-0.2,0.8
									c-0.1,0.5-0.3,1-0.4,1.5c-0.3,1-0.6,2-0.9,2.9c-0.7,1.9-1.4,3.8-2.1,5.7c-1.5,3.7-3.1,7.3-4.8,10.9
									c-3.4,7.1-7.2,14.1-11.2,20.9c-1,1.7-2,3.4-3,5.1c-1,1.7-2,3.4-3.1,5l-3.2,5l-3.4,5c-4.6,6.6-9.6,13-15,19.1
									c-10.9,12.2-23.8,23-38.8,31.3c-3.7,2-7.6,3.9-11.6,5.6c-4,1.7-8.1,3.2-12.3,4.4c-4.2,1.2-8.6,2.2-13.1,2.9
									c-2.3,0.3-4.5,0.6-6.9,0.8c-1.2,0.1-2.4,0.1-3.6,0.2c-0.6,0-1.3,0-1.9,0l-1,0l-0.6,0l-0.3,0l-0.5,0c-8.2-1-14-8.5-12.9-16.7
									C924.8,2555.2,932.2,2549.4,940.4,2550.4z"/>
							</g>
						</g>
					</g>
				</g>
			</g>
			<g>
				<g>
					<g>
						<g>
							<path class="st7" d="M1882.3,2572.1c0,0,51.9,7.2,132.9,1.2c162-12.1,440.7-76.8,654.9-357.3
								c27.9-36.5,163.1-51.5,127.8-127.7c-10.7-23.1-38.7-28-38.7-28s41.1-16.8,31.5-59.6c-15.1-67.6-137.9-38.6-137.9-38.6
								s41.1-43.3,50.2-84c6.4-28.5-13.6-54.4-31.3-61.2c-50.3-19.3-153.5,56.5-216.3,99c-59.2,39.9-97.3,91.6-136.6,144.7
								c-61.3,82.7-125.7,168.8-277.8,218.8c-51,16.7-111.8,29.5-185.6,36.6l18.2,172.7L1882.3,2572.1z"/>
						</g>
					</g>
				</g>
			</g>
			<g class="st4">
				<g>
					<g>
						<g>
							<path class="st5" d="M1882.3,2572.1c0,0,51.9,7.2,132.9,1.2c162-12.1,440.7-76.8,654.9-357.3c23.6-30.9,124-46.4,133-96.5
								c-11.1-23.7-104.1,43.8-129,50.8c-48.2,13.6-58.8-15.8-60.8-28.6c-7.6-48.8,173.5-74.4,175.7-117.1
								c2.9-54.5-55.2,41.5-191.9,44.2c-43.2,0.8-54-52.5-55.6-48.8c-49,110.6,35.1,186.2-14.1,258.5
								c-146.8,216-368.6,182.3-505.7,192.5c-81,6-132.9-1.2-132.9-1.2l-8.8-83.4l-7.6-72.2c-5.6,0.7-11.4,1.3-17.1,1.8l18.2,172.7
								L1882.3,2572.1z"/>
						</g>
					</g>
				</g>
			</g>
			<g>
				<g>
					<g>
						<g>
							<path class="st5" d="M1951.9,2592.7c-43.4,0-69.7-3.5-71.9-3.8c-9.3-1.3-15.7-9.8-14.4-19.1c1.3-9.3,9.8-15.7,19.1-14.4
								c1.1,0.2,116.4,15.3,268.6-20.3c139.9-32.7,340.8-116.5,503.4-329.4c12-15.7,35.5-26.4,60.5-37.9
								c28.6-13.1,61-27.9,68.2-47.3c2.6-7.2,1.7-15.4-2.8-25.1c-6.6-14.2-25.2-18.2-26.4-18.5c-7.5-1.2-13.3-7.2-14.1-14.8
								c-0.8-7.6,3.5-14.7,10.6-17.5c3.2-1.4,27.6-13,21.5-40.3c-2-9.1-6.8-15.7-14.9-20.8c-27.8-17.4-83.5-9.5-102.7-5
								c-7.3,1.7-14.8-1.6-18.6-8c-3.7-6.5-2.7-14.7,2.4-20.1c0.4-0.4,38-40.5,46-76.1c4.6-20.4-11.1-38-20.8-41.7
								c-10.5-4-32.7-3.8-78.9,19.9c-35.1,18-73.3,44.1-103.9,65.1c-6.3,4.3-12.3,8.4-18,12.2c-56.3,38-92.8,87.3-131.5,139.5
								c-41.8,56.4-85,114.7-156.3,163.1c-80.3,54.4-185,87.3-320.1,100.4c-9.3,0.9-17.6-5.9-18.5-15.2c-0.9-9.3,5.9-17.6,15.2-18.5
								c288-28,371.6-140.9,452.5-250c38.7-52.2,78.6-106.1,139.7-147.4c5.6-3.8,11.6-7.9,17.8-12.1c31.5-21.5,70.6-48.2,107.6-67.2
								c47.3-24.3,81.2-31.1,106.5-21.4c26.6,10.2,49.7,45.1,41.7,80.7c-4.6,20.6-16.1,41.2-27.3,57.8c0.8-0.1,1.6-0.1,2.5-0.1
								c35.3-2,63.1,3.2,82.6,15.5c15.8,9.9,25.9,24.1,29.9,42.1c5.8,26.1-2.9,46-14.9,59.6c8,5.6,15.9,13.5,21,24.6
								c8.4,18.1,9.6,35.2,3.8,51c-12,32.6-51.3,50.5-85.8,66.4c-20.1,9.2-40.8,18.7-47.7,27.6c-74.6,97.7-163.2,177.6-263.4,237.4
								c-80.2,47.9-167.8,83.1-260.6,104.7C2074.9,2588,2002,2592.7,1951.9,2592.7z"/>
						</g>
					</g>
				</g>
			</g>
			<g>
				<g>
					<g>
						<g>
							<path class="st7" d="M463.3,2885.8c76.3,89.8,187.2-17.5,187.2-17.5s84.6,234.7,262.2,283.5
								c149.2,40.9,334.3-57.2,334.3-57.2s631.9,175.4,768.2-521.3c9.3-47.8,16.4-99.7,20.7-156c3.3-43.3,5.1-89.2,5.1-137.9
								c0-25.5-0.5-51.7-1.5-78.7l-523.9-47.3l-60.4-5.4l-15.1-1.4c-0.8,3.4-1.7,6.7-2.6,10c-26,95-77,166.9-131.8,224.1
								c-69.4,72.7-144.7,121.8-181.9,164.5c-20.5,23.5-36.5,46.4-48.5,66c-21.6,35.1-30.8,59.9-30.8,59.9
								c-23,18.2-96.1,70.9-156.4,31.5c-20.9-13.7-35.1-36.9-47.5-62.2c-22.1-44.7-38.9-96-78.6-112.6c-57.4-24-123.2-2.3-178.1,38
								c-34.2,25.1-64.1,57.5-85,90.5C462.8,2713.1,407.5,2820.3,463.3,2885.8z"/>
						</g>
					</g>
				</g>
			</g>
			<g class="st4">
				<g>
					<g>
						<g>
							<path class="st5" d="M450.4,2866.3c3.4,6.8,7.7,13.4,12.9,19.5c76.3,89.8,187.2-17.5,187.2-17.5s84.6,234.7,262.2,283.5
								c149.2,40.9,334.3-57.2,334.3-57.2s614.9,170.7,762.4-493.6c-148.6,465.5-557.5,439.4-694.1,416.5
								c-29.4-4.9-59.6-1.5-87.1,9.9c-63.3,26.3-186.7,66.9-292.3,37.9c-177.6-48.7-221.5-278.4-298.1-297.8
								C619.9,2762.9,584.3,2956,450.4,2866.3z"/>
						</g>
					</g>
				</g>
			</g>
			<g>
				<g>
					<g>
						<g>
							<path class="st5" d="M992.1,3178.7c-30.1,0-58.2-3.5-83.9-10.6c-43-11.8-84.3-34.8-122.6-68.4
								c-30.2-26.5-58.7-59.6-84.7-98.5c-28.2-42.2-47.2-81.6-57.4-105c-22.8,17.2-63.5,42.4-107.5,42.4c-1.8,0-3.7,0-5.5-0.1
								c-31-1.5-58-15.5-80.1-41.6c-28.2-33.2-35-78.1-20.1-133.4c9.5-35.3,27.8-74.3,54.2-116.1c30.1-47.5,74.9-90,123-116.7
								c26.7-14.8,53.3-24.2,79.2-27.9c29.1-4.1,56.6-0.9,81.7,9.6c38.9,16.3,57.9,57.5,76.2,97.3c14.4,31.3,29.4,63.7,52.7,79
								c21.1,13.8,47,15.2,77.1,4.1c18-6.6,37.2-17.6,56-32c6.5-15.8,30.7-69.3,80.6-126.5c18.4-21.1,44.6-42.9,75-68.1
								c83.4-69.3,197.7-164.1,237.6-323.5c2.3-9.1,11.5-14.6,20.5-12.3c9.1,2.3,14.6,11.5,12.3,20.5
								c-42.5,170.2-161.8,269.2-248.8,341.4c-29.3,24.3-54.6,45.3-71.1,64.3c-53.9,61.9-76,120.1-76.2,120.7l-1.7,4.4l-3.7,3
								c-22.7,17.9-46.5,31.8-68.9,40c-40.1,14.7-77.1,12.1-107.2-7.6c-31.5-20.6-48.5-57.5-64.9-93.1
								c-16.4-35.5-31.8-69.1-58.6-80.2c-80.5-33.7-188.4,37-242.2,121.9c-24.6,38.9-41.5,74.8-50.1,106.8
								c-11.9,43.9-7.4,78.4,13.2,102.7c16.1,18.9,34.4,28.7,55.9,29.7c52.8,2.7,106.2-48,106.7-48.5l18.8-18.1l8.9,24.5
								c0.2,0.6,21.2,58.1,63.1,120.4c37.9,56.5,101.2,128.7,187.7,152.5c73,20,156.2,4,213.1-13c62.7-18.7,108.3-42.7,108.8-42.9
								l6-3.2l6.5,1.8c0.7,0.2,76.3,20.7,178.5,18.9c93.4-1.6,229.1-22.8,345-114.4c178.2-140.9,261.5-403.9,247.5-781.5
								c-0.3-9.3,6.9-17.2,16.3-17.5c9.3-0.3,17.2,6.9,17.5,16.3c7.7,208.4-14.3,385.3-65.3,525.8
								c-43.8,120.5-109.5,215.9-195.3,283.7c-54.7,43.2-117.8,75.4-187.8,95.7c-55.7,16.2-115.8,24.9-178.6,25.9
								c-4.1,0.1-8.2,0.1-12.2,0.1c-84.4,0-148.1-13.7-168.1-18.6c-14.7,7.3-55.3,26.3-108.3,42.2c-38.8,11.6-76.2,19.1-111.3,22.2
								C1016.7,3178.1,1004.2,3178.7,992.1,3178.7z"/>
						</g>
					</g>
				</g>
			</g>
			<g>
				<g>
					<g>
						<g>
							<path class="st7" d="M2433.2,1955.2c41.9-65.6,131.1-81.5,148.7-78.1c13.4,2.6,45,45.3,12.4,71.1
								c-32.6,25.8-59.7,25.2-59.2,38.1s22.6,58.9-13,104.1"/>
						</g>
					</g>
				</g>
			</g>
			<g>
				<g>
					<g>
						<g>
							<path class="st5" d="M2428.4,1952.1c8-17.7,20.8-33.3,35.6-46.2c14.9-12.9,32-23.1,50.1-30.8c9.1-3.8,18.3-7.2,28-9.7
								c4.8-1.3,9.7-2.4,14.7-3.4c5-0.9,10.1-1.6,15.6-1.9l2.1-0.1c0.7,0,1.5,0,2.2,0c1.4,0,3.2,0.1,4.9,0.2c1,0.1,2.1,0.3,3.1,0.4
								c1.3,0.2,3.2,0.7,4.4,1.2c2.5,1,4.5,2,6.2,3.1c3.4,2.1,5.9,4.2,8.2,6.4c2.3,2.2,4.3,4.4,6.1,6.8c3.7,4.6,6.7,9.6,9.3,15
								c2.5,5.4,4.5,11.2,5.5,17.5c1,6.3,1.2,13.1-0.3,19.8c-1.4,6.8-4.4,13.3-8.3,18.8c-0.9,1.4-2,2.6-3.1,3.9
								c-1,1.3-2.2,2.4-3.4,3.5c-1.1,1.2-2.4,2.1-3.5,3.1l-0.9,0.7c-0.3,0.2-0.6,0.5-0.9,0.7l-1.5,1.1c-4.1,3-8.4,5.9-12.7,8.5
								c-8.7,5.3-18,9.5-26.9,13.1c-4.4,1.7-8.8,3.4-12.1,4.8c-1.6,0.7-2.9,1.4-3.2,1.5c0,0,0.1-0.2,0.5-0.9
								c0.4-0.7,0.8-1.9,0.8-2.8c0-0.2,0-0.4,0-0.6l0-0.1c0,0,0,0,0,0l0,0.1l0,0.1c0,0,0,0,0,0.1l0,0.5c0,0.6,0.2,1.6,0.3,2.6
								c0.3,2,0.8,4.2,1.2,6.5c0.8,4.6,1.7,9.5,2.3,14.5c1.2,9.9,1.4,20.2,0,30.4c-1.4,10.2-4.4,20.2-8.9,29.2
								c-4.5,9.1-10.5,17.2-17.3,24.1c-2.2,2.2-5.8,2.3-8,0.1c-1.9-1.9-2.2-4.7-0.9-6.9l0.1-0.1c4.4-7.6,8.1-15.4,10.4-23.5
								c1.1-4,2-8.1,2.6-12.2c0.5-4.1,0.8-8.2,0.7-12.3c0-4.1-0.4-8.2-0.9-12.3c-0.5-4.1-1.4-8.2-2.3-12.3c-1-4.1-2.1-8.2-3.5-12.6
								c-0.6-2.2-1.3-4.4-2-6.9c-0.3-1.3-0.7-2.6-1-4.2l-0.2-1.3c0-0.2-0.1-0.5-0.1-0.7l-0.1-0.8l-0.1-0.8c0-0.1,0-0.2,0-0.4l0-0.6
								c0-0.8,0-1.5,0-2.3c0.2-3.2,1.3-6.6,2.9-9.3c1.6-2.7,3.4-4.6,5.1-6.1c3.3-2.8,6-4.4,8.5-5.8c4.9-2.7,9.1-4.5,13.1-6.5
								c4-1.9,7.8-3.8,11.5-5.9c3.7-2,7.2-4.2,10.6-6.5c3.4-2.3,6.7-4.7,9.9-7.3l1.2-1c0.2-0.2,0.3-0.3,0.5-0.4l0.4-0.4
								c0.5-0.5,1.1-1,1.6-1.5c1-1,1.8-2,2.5-3.1c1.4-2.1,2.2-4.1,2.6-6.4c0.1-0.6,0.1-1.2,0.2-1.7c0-0.6,0.1-1.2,0-1.9
								c-0.1-0.6,0-1.3-0.1-2l-0.1-1l-0.2-1c-0.9-5.6-4.1-12-8.1-17.1c-1-1.3-2.1-2.5-3.1-3.5c-1-1-2-1.8-2.6-2.2
								c-0.3-0.2-0.3-0.2,0.1-0.1l0.1,0l0.1,0.1c0.1,0,0.2,0.1,0.3,0.1c0.1,0,0.2,0.1,0.3,0.1c0.1,0,0.3,0,0.2,0
								c-0.1,0-0.2,0-0.3-0.1c-0.6,0-1.1-0.1-2-0.1c-0.4,0-0.8,0-1.2,0l-1.3,0c-3.6,0.1-7.7,0.5-11.8,1.1c-4.1,0.5-8.3,1.3-12.4,2.1
								c-4.2,0.9-8.3,1.9-12.5,3c-4.1,1.1-8.3,2.3-12.3,3.7c-16.3,5.3-32.2,12.3-46.9,21.4c-14.7,9-28.2,20.2-40,33.6l-0.1,0.1
								c-2.1,2.4-5.7,2.6-8,0.5C2427.9,1957.1,2427.4,1954.3,2428.4,1952.1z"/>
						</g>
					</g>
				</g>
			</g>
			<g>
				<g>
					<g>
						<g>
							<g>
								<path class="st7" d="M2012,2672.5l-187.8,247.3l-189.6,18.5l-100.3,9.8c0,0-77.3-29.6-95.9-37.1
									c-25.3-10.1-15.1-40.8-3.3-57.8c20.2-29.1,36.1-58.2,49.2-86c21.1-44.9,34.9-86.6,47.7-120.7c10.5-28,38.5-45.5,68.3-42.3
									c177.6,19.1,352.4,18.3,352.4,18.3L2012,2672.5z"/>
							</g>
						</g>
					</g>
				</g>
				<g>
					<g>
						<g>
							<g>
								<path class="st5" d="M1534.3,2963.1c-1.8,0-3.7-0.3-5.4-1c-3.2-1.2-77.6-29.8-96.1-37.2c-11.8-4.7-19.9-13.2-23.3-24.6
									c-5.7-18.8,3.1-41.1,13.3-55.7c44.5-64.3,67.8-128.3,86.5-179.8c3-8.3,5.8-16.1,8.7-23.6c12.9-34.5,47.5-55.9,84-52
									c174.7,18.8,349,18.2,350.7,18.2c3.5,0,7,1.2,9.7,3.5l59.3,50c6.1,5.1,7.1,14.2,2.3,20.5l-187.8,247.3
									c-2.5,3.3-6.3,5.5-10.5,5.9l-289.9,28.2C1535.3,2963,1534.8,2963.1,1534.3,2963.1z M1593.4,2618.8c-20.8,0-39.8,13-47.3,33
									c-2.8,7.4-5.6,15.1-8.6,23.3c-19.3,53.1-43.3,119.1-90.1,186.6c-7.2,10.5-11.2,23.3-9.2,29.9c0.5,1.7,1.6,3.7,5.7,5.4
									c16.2,6.4,77.5,30,92.4,35.7l279.8-27.3l175.2-230.8l-44.2-37.3c-31.3-0.1-189.7-1.3-348.5-18.4
									C1597,2618.9,1595.2,2618.8,1593.4,2618.8z"/>
							</g>
						</g>
					</g>
				</g>
				<g class="st8">
					<g>
						<g>
							<g>
								<path class="st5" d="M1634.6,2938.3l-100.3,9.8c0,0-77.3-29.6-95.9-37.1c-19.3-7.7-17.9-27.4-10.9-43.9
									c2.2-5.1,4.9-9.9,7.7-13.9c20.2-29.1,36.1-58.2,49.2-86c4.1,12.7,16-0.5,47.8-10.4c37.6-11.7,55.7-43.5,77.7-51
									C1673.9,2683.9,1650.8,2866.7,1634.6,2938.3z"/>
							</g>
						</g>
					</g>
				</g>
				<g>
					<g>
						<g>
							<g>
								<path class="st7" d="M1893.1,2833.5c-8.7,23.6-16.9,53.8-16.9,53.8s-49.6-13.1-53.5-14.5c-12.9-4.8-13.1-36.1-0.6-70
									c12.5-33.9,33.1-57.5,46-52.7c9.4,3.5,49.3,13.6,49.3,13.6S1896.5,2824.4,1893.1,2833.5z"/>
							</g>
						</g>
					</g>
				</g>
				<g>
					<g>
						<g>
							<g>
								
									<ellipse transform="matrix(0.347 -0.9379 0.9379 0.347 -1411.4813 3623.3313)" class="st7" cx="1896.1" cy="2825.2" rx="65.4" ry="33"/>
							</g>
						</g>
					</g>
				</g>
				<g>
					<g>
						<g>
							<g>
								<path class="st7" d="M2007.5,2686c-13.5,24.2-34.8,62.6-58.3,102.2c-33.7,56.6-72,115.4-98.3,137.6
									c-45.9,38.6-211.1,36.3-316.5,22.3c-27.6-3.7-43.5-32.7-28-55.9c25.4-38,47.2-75.7,64.9-108.7
									c16.7-31.3,29.8-58.4,38.6-77.6c8.1-17.6,26.9-27.7,46.1-24.8c166.7,25.2,285.7,1.6,337.6-12.9
									C2004,2665.1,2012.8,2676.4,2007.5,2686z"/>
							</g>
						</g>
					</g>
				</g>
				<g class="st8">
					<g>
						<g>
							<g>
								<path class="st5" d="M1905.7,2857.5c-16.3,24.3-32,45.5-45.6,59.5c-3.2,3.4-6.3,6.3-9.2,8.8
									c-45.9,38.6-211.1,36.3-316.5,22.3c-27.6-3.7-43.5-32.7-28-55.9c25.4-38,47.2-75.7,64.9-108.7
									c5.4,29.9,29.2,94.3,134.9,116.7c27.4,5.8,56,2.2,84.3-7.3c-4.1-12.8-1.7-35.8,7.3-60c12.5-33.9,33.1-57.5,46-52.7
									c7.9,2.9,37,10.4,46.4,12.9c1.5,0.1,2.9,0.5,4.3,1c9.1,3.3,14.4,14.1,15.5,28.6C1910.6,2832.8,1909.3,2844.9,1905.7,2857.5z
									"/>
							</g>
						</g>
					</g>
				</g>
				<g class="st8">
					<g>
						<g>
							<g>
								<path class="st5" d="M1905.7,2857.5c3.6-12.6,5-24.7,4.2-35c14.1-11.4,27.3-23.1,39.3-34.3
									C1935.1,2811.8,1920.2,2835.9,1905.7,2857.5z"/>
							</g>
						</g>
					</g>
				</g>
				<g>
					<g>
						<g>
							<g>
								<path class="st5" d="M1678,2972.4c-47.5,0-99.7-3.3-145.7-9.5c-19.1-2.5-35.1-14.1-42.7-31c-7.2-15.9-5.6-33.4,4.2-48.1
									c49.3-73.8,85.3-147.1,102.3-184.2l13.6,6.3l-13.6-6.3c10.8-23.5,36.3-37.3,62-33.4c161.7,24.4,277,2.6,331.3-12.5
									c10.7-3,22,0.7,28.8,9.4c6.8,8.7,7.8,20.6,2.4,30.2l-3.3,5.9c-36.2,64.9-111.4,199.9-156.9,238.1
									c-23.5,19.8-72.3,31.4-145,34.4C1703.5,2972.1,1690.9,2972.4,1678,2972.4z M1649.4,2695.5c-11,0-21.3,6.4-26,16.6
									c-17.4,37.9-54.2,112.8-104.6,188.4c-5.4,8.1-3.4,15.4-1.8,19.1c3.3,7.4,10.6,12.5,19.3,13.7
									c117.2,15.6,267.1,12.8,304.8-18.9c41.2-34.7,117.4-171.4,150-229.7l0.2-0.3c-58.9,15.7-176.3,36-337.7,11.6
									C1652.2,2695.6,1650.8,2695.5,1649.4,2695.5z"/>
							</g>
						</g>
					</g>
				</g>
				<g>
					<g>
						<g>
							<g>
								<g>
									<path class="st9" d="M1893.1,2833.5c-8.7,23.6-16.9,53.8-16.9,53.8s-49.6-13.1-53.5-14.5c-12.9-4.8-13.1-36.1-0.6-70
										c12.5-33.9,33.1-57.5,46-52.7c9.4,3.5,49.3,13.6,49.3,13.6S1896.5,2824.4,1893.1,2833.5z"/>
								</g>
							</g>
						</g>
					</g>
					<g class="st10">
						<g>
							<g>
								<g>
									<path class="st7" d="M1917.4,2763.7c0,0-21,60.7-24.3,69.8c-8.8,23.6-16.9,53.8-16.9,53.8s-1-0.3-2.7-0.7
										c3-9.8,6.8-21.7,10.7-32.2c3.4-9.1,24.3-69.9,24.3-69.9s-40-10.1-49.4-13.6c-10.4-3.9-26,11-38.2,34.9
										c0.4-1,0.7-2.1,1.1-3.1c12.5-33.9,33.1-57.5,46-52.7C1877.5,2753.5,1917.4,2763.7,1917.4,2763.7z"/>
								</g>
							</g>
						</g>
					</g>
					<g class="st8">
						<g>
							<g>
								<g>
									<path class="st5" d="M1889.1,2844.8c-7.1,20.9-13,42.5-13,42.5s-49.6-13.1-53.5-14.6c-12.8-4.7-13.1-36.1-0.6-69.9
										c4.2-11.4,9.4-21.7,14.8-30.1c-8.7,29.4-7.2,54.8,4.2,59C1844.2,2832.9,1876.1,2841.4,1889.1,2844.8z"/>
								</g>
							</g>
						</g>
					</g>
					<g>
						<g>
							<g>
								<g>
									<path class="st5" d="M1876.2,2899.8c-1.1,0-2.1-0.1-3.2-0.4c-15.1-4-50.6-13.4-54.6-14.9c-24-8.9-21-50.8-8-86
										c6.6-17.8,15.5-33.7,25.2-44.7c16.6-19.1,30.2-17.8,36.9-15.4c7.2,2.7,37.1,10.4,48.1,13.2c3.4,0.9,6.3,3.1,7.9,6.2
										c1.7,3.1,2,6.7,0.8,10c-0.9,2.5-21,61-24.4,70.1c-8.4,22.8-16.5,52.4-16.6,52.7C1886.7,2896.1,1881.7,2899.8,1876.2,2899.8
										z M1827.6,2861.2c4.2,1.3,21.6,6,39.9,10.9c3.2-11.1,8.4-28.1,13.9-42.9c2.3-6.3,13.5-38.5,19.8-56.8
										c-12.4-3.2-29.9-7.9-36.8-10.4c-4.7,1.1-19.3,14.9-30.5,45.1C1822.7,2837.2,1824.7,2857.2,1827.6,2861.2z M1893.1,2833.5
										L1893.1,2833.5L1893.1,2833.5z"/>
								</g>
							</g>
						</g>
					</g>
					<g>
						<g>
							<g>
								<g>
									
										<ellipse transform="matrix(0.347 -0.9379 0.9379 0.347 -1411.4813 3623.3313)" class="st9" cx="1896.1" cy="2825.2" rx="65.4" ry="33"/>
								</g>
							</g>
						</g>
					</g>
					<g class="st10">
						<g>
							<g>
								<g>
									<path class="st7" d="M1927.1,2836.7c-0.8,2.2-1.7,4.4-2.6,6.5c5.8-27,0.8-50.1-13.3-55.4c-16-5.9-38.1,13.2-51.1,43.5
										c1.2-5.7,2.9-11.5,5.1-17.4c12.5-33.9,36.6-56.2,53.7-49.9C1935.9,2770.2,1939.6,2802.8,1927.1,2836.7z"/>
								</g>
							</g>
						</g>
					</g>
					<g class="st8">
						<g>
							<g>
								<g>
									<path class="st5" d="M1926,2839.6c-12.8,32.3-35.9,53.1-52.6,47c-17.1-6.3-20.8-38.9-8.3-72.8
										c6.6-17.7,16.2-32.3,26.4-41.2c-0.4,0.9-0.7,1.9-1.1,2.8c-12.5,33.9-8.8,66.5,8.3,72.8
										C1906.9,2851.2,1916.6,2847.7,1926,2839.6z"/>
								</g>
							</g>
						</g>
					</g>
					<g>
						<g>
							<g>
								<g>
									<path class="st5" d="M1879.6,2900.2c-3.6,0-7.1-0.6-10.5-1.9c-24.3-9-31.1-47.2-15.7-88.9c6.7-18.2,16.8-34.1,28.3-44.8
										c13.8-12.8,28.5-17.2,41.4-12.4c24.3,9,31.1,47.2,15.7,88.9c-6.7,18.2-16.8,34.1-28.3,44.8
										C1900.3,2895.3,1889.7,2900.2,1879.6,2900.2z M1912.7,2775.3c-3.5,0-8.7,2.8-13.9,7.6c-8.6,8-16.6,20.8-21.9,35.2
										c-5.3,14.4-7.6,29.3-6.3,41c0.9,8.3,3.8,14.5,7.2,15.8c3.4,1.3,9.6-1.6,15.7-7.3c8.6-8,16.6-20.8,21.9-35.2
										c5.3-14.4,7.6-29.3,6.3-41c-0.9-8.3-3.8-14.5-7.2-15.8C1913.9,2775.4,1913.3,2775.3,1912.7,2775.3z"/>
								</g>
							</g>
						</g>
					</g>
				</g>
				<g>
					<g>
						<g>
							<g>
								<path class="st5" d="M1657,2969.7c-2.1,0-4.3-0.5-6.2-1.7c-6-3.4-8.1-11.1-4.6-17.1l59.4-103.5l-28.4-25.4
									c-4-3.6-5.3-9.3-3.1-14.3l53-122.7c2.7-6.3,10.1-9.3,16.4-6.5c6.3,2.7,9.3,10.1,6.5,16.4l-49.5,114.5l29.3,26.2
									c4.4,3.9,5.4,10.4,2.5,15.5l-64.5,112.2C1665.6,2967.4,1661.4,2969.7,1657,2969.7z"/>
							</g>
						</g>
					</g>
				</g>
			</g>
			<g>
				<g>
					<g>
						<g>
							<path class="st5" d="M869.9,3150.8c-3.9,0-7.7-1.5-10.7-4.5c-32.5-32.9-51.1-77.4-55.1-132.2c-3.2-42.6,2.4-91.5,16.6-145.5
								c23.9-90.9,63.5-163.9,65.1-167c4-7.3,13.1-10,20.4-6c7.3,4,10,13.1,6,20.4c-0.5,0.9-39.7,73.5-62.6,160.8
								c-20.5,78.3-31.8,184.9,31,248.5c5.8,5.9,5.8,15.4-0.1,21.2C877.5,3149.4,873.7,3150.8,869.9,3150.8z"/>
						</g>
					</g>
				</g>
			</g>
			<g>
				<g>
					<g>
						<g>
							<path class="st5" d="M2361,2492c-0.3,0-0.7,0-1.1,0c-82.7-5.7-141.2-58.5-169.1-152.5c-20.3-68.6-17.2-134.5-17-137.2
								c0.4-8.3,7.5-14.6,15.8-14.2c8.3,0.4,14.6,7.5,14.2,15.8c-0.1,1.1-2.9,64.3,16,127.8c24.4,81.7,72.2,125.6,142.2,130.5
								c8.3,0.6,14.5,7.7,13.9,16C2375.4,2486,2368.8,2492,2361,2492z"/>
						</g>
					</g>
				</g>
			</g>
			<g>
				<g>
					<g>
						<g>
							<path class="st5" d="M2766.4,2073.4c-2.4,1.8-5,3.4-7.5,5c-1.3,0.8-2.6,1.5-3.9,2.2c-1.3,0.7-2.7,1.4-4,2
								c-2.7,1.4-5.5,2.4-8.3,3.6c-2.8,1.1-5.6,2-8.5,2.9c-11.4,3.5-23,5.2-34,6.5c-11,1.3-21.5,2.4-32.1,4.1
								c-10.5,1.7-21.1,4.1-32,7l0,0c-1.2,0.3-2.4-0.4-2.7-1.6c-0.2-0.8,0.1-1.6,0.6-2.2c8.3-7.9,17.9-14.7,28.2-20.2
								c10.3-5.5,21.2-9.8,31.6-13.6c10.5-3.8,20.3-7.4,29.8-11c2.3-1,4.8-1.7,7-2.8l3.5-1.4l1.8-0.7c0.6-0.2,1.1-0.5,1.7-0.7
								c2.3-1,4.7-1.8,7-2.8c2.3-1,4.7-1.9,7.2-2.7l1.1-0.3c8-2.5,16.4,1.9,18.9,9.9C2773.9,2063,2771.5,2069.7,2766.4,2073.4z"/>
						</g>
					</g>
				</g>
			</g>
			<g>
				<g>
					<g>
						<g>
							<path class="st5" d="M2664.5,1971.4l-1.1,1.8c-0.3,0.5-0.6,1-0.9,1.5c-0.6,0.9-1.3,1.9-1.9,2.7c-1.3,1.8-2.7,3.4-4.1,5.1
								c-2.8,3.2-5.8,6.2-8.9,9c-6.2,5.6-13.1,10.5-20,15.1c-7,4.6-14.1,8.8-21.5,12.8c-3.7,1.9-7.5,3.8-11.3,5.6
								c-1.9,0.9-3.9,1.7-5.8,2.5c-2,0.8-3.9,1.6-6,2.3c-1.2,0.4-2.5-0.2-2.9-1.4c-0.2-0.7-0.1-1.4,0.2-1.9l0,0
								c1.1-1.8,2.2-3.6,3.4-5.4c1.2-1.8,2.3-3.5,3.5-5.2c2.4-3.4,4.8-6.8,7.3-10.1c4.9-6.6,9.9-13,14.9-19.3
								c5.1-6.2,10-12.5,15.3-18.2c2.6-2.9,5.3-5.7,8.1-8.3c1.4-1.3,2.8-2.6,4.2-3.9c0.7-0.6,1.4-1.2,2.1-1.8c0.3-0.3,0.7-0.6,1-0.8
								l0.5-0.4l0.2-0.2c0.1,0,0.1,0,0.1,0l7.2-2.3c7.5-2.3,15.4,1.8,17.8,9.3C2667.2,1963.8,2666.5,1968,2664.5,1971.4z"/>
						</g>
					</g>
				</g>
			</g>
			<g>
				<g>
					<g>
						<g>
							<path class="st7" d="M1054.5,2640.2c70.2,227.7,434.3,264.4,469.1,147.4c11.8-39.6-20.3-64.4-20.3-64.4
								s-308.4,1.3-389.3-192.5C1114,2530.8,1030.2,2561.3,1054.5,2640.2z"/>
						</g>
					</g>
				</g>
			</g>
			<g class="st8">
				<g>
					<g>
						<g>
							<path class="st5" d="M1054.5,2640.2c70.2,227.7,434.4,264.4,469.1,147.4c4.7-15.7,2.4-29.1-2-39.6
								c-71.8,116.1-429.6,33.2-448.2-178.9c-0.3-3.2-1.8-6.2-2.4-9.1C1055.1,2577.6,1043.3,2603.8,1054.5,2640.2z"/>
						</g>
					</g>
				</g>
			</g>
			<g>
				<g>
					<g>
						<g>
							<path class="st5" d="M1384.5,2869.4c-67.7,0-141-19.5-201.5-53.6c-72.9-41.1-122.9-100.1-144.7-170.6
								c-15.1-48.9,5.3-82.2,25-101.4c20.3-19.8,43.9-28.6,44.9-28.9c8.5-3.1,17.9,1,21.4,9.4c31.4,75.1,103.1,128.6,213.1,158.9
								c84.1,23.2,159.8,23.2,160.5,23.2c0,0,0,0,0.1,0c3.8,0,7.4,1.2,10.4,3.5c1.7,1.3,41,32.5,26.1,82.6
								c-14.2,47.8-71.6,76.5-153.6,77C1385.7,2869.4,1385.1,2869.4,1384.5,2869.4z M1105.9,2553.6c-6,3.6-13.1,8.6-19.6,15.1
								c-18.6,18.6-23.7,40.3-15.6,66.6c40.2,130.4,191.3,200.3,313.8,200.3c0.5,0,1.1,0,1.6,0c65.2-0.3,111.7-20.5,121.3-52.8
								c6.2-20.8-4.7-36.2-10.8-42.8c-21.1-0.5-87.6-3.7-162-24.1c-52.4-14.4-97.8-34.3-135-59.4
								C1157.7,2628.5,1126.3,2593.9,1105.9,2553.6z"/>
						</g>
					</g>
				</g>
			</g>
			<g>
				<g>
					<g>
						<g>
							<path class="st7" d="M487.9,2452.5c0,0-4.3,28.6,12,50.3c8.2,10.9,21.3,22.4,37.2,33.7c14.1,10.1,30.2,20.1,46.7,29.4
								c36.5,20.5,75,37.9,97.7,46.2c47.8,17.6,102.2,26.6,159,28.4c77.6,2.4,159.4-8.6,234.7-29.2c70.7-19.4,135.6-47.4,185.3-80.9
								l35.4-52.3l48.4-71.5l171.2-253.2l38.9-57.5c-1.7,1-39.4,22.5-99.3,52.1c-5.7,2.8-11.6,5.7-17.7,8.6
								c-68,33-159.5,73.7-257.7,107.1c-152.8,52-321.8,86.3-443.6,46c-141.8-47-208.7-81.4-244.2-43.9c-36,38,7.4,88.8,7.4,88.8
								s-31.3,22.2-31.5,54.4C467.7,2434.6,487.9,2452.5,487.9,2452.5z"/>
						</g>
					</g>
				</g>
			</g>
			<g class="st4">
				<g>
					<g>
						<g>
							<path class="st5" d="M681.4,2415.8c0,0,1.3,8.1,7.8,20.8C685,2424.1,681.4,2415.8,681.4,2415.8z"/>
						</g>
					</g>
				</g>
			</g>
			<g class="st4">
				<g>
					<g>
						<g>
							<path class="st5" d="M537.1,2536.5c14.1,10.1,30.2,20.1,46.7,29.4c36.5,20.5,75,37.9,97.7,46.2
								c47.8,17.6,102.2,26.6,159,28.4c77.6,2.4,159.4-8.6,234.7-29.2c70.7-19.4,135.6-47.4,185.3-80.9l0,0
								c11.1-16.4-5-37.6-23.8-31.2c-96.7,33-255,79.4-336.8,61.7c-144.9-31.3-194.4-92.4-210.8-124.4c12,36.1,28,108-27.4,120.8
								C640.6,2562.3,576,2552.9,537.1,2536.5z"/>
						</g>
					</g>
				</g>
			</g>
			<g>
				<g>
					<g>
						<g>
							<path class="st5" d="M1557.2,2100.8c-5,4.3-10,8.4-15.2,12.3c-5.1,3.9-10.4,7.7-15.7,11.3c-10.6,7.3-21.4,14.3-32.3,20.9
								c-21.9,13.2-44.7,25-67.5,36.5c-45.8,22.9-93.2,42.4-140.9,61c-23.9,9.3-47.8,18.4-71.9,27.1c-24.1,8.7-48.4,16.8-73,24.5
								c-49.1,15.2-99,28.1-149.9,37.3c-25.4,4.6-51.1,8.2-77.1,10.4c-25.9,2.2-52.1,3-78.3,1.9l-9.9-0.6l-4.9-0.3
								c-1.6-0.1-3.3-0.3-4.9-0.4l-9.9-0.9c-3.3-0.3-6.6-0.8-9.8-1.2c-6.6-0.7-13.1-2-19.7-3.1c-1.6-0.3-3.3-0.6-4.9-0.9l-4.9-1
								l-4.9-1c-0.8-0.2-1.6-0.3-2.4-0.5l-2.4-0.6l-9.7-2.5c-0.8-0.2-1.6-0.4-2.4-0.6l-2.4-0.7l-4.8-1.5c-6.6-1.9-12.5-4-18.5-6
								c-12.1-4.1-24.2-8.2-36.2-12.4c-24.1-8.3-48-16.9-71.8-24.7c-11.9-3.9-23.8-7.7-35.5-10.8c-2.9-0.8-5.9-1.6-8.8-2.2
								c-2.9-0.7-5.8-1.3-8.7-1.9c-5.7-1.1-11.5-2.1-16.9-2.5c-5.5-0.4-10.7-0.5-15.5,0.1c-4.8,0.6-8.9,1.8-12.5,3.6
								c-3.6,1.9-6.8,4.4-9.8,7.8c-3,3.4-5.2,7-6.6,10.9c-1.4,3.8-2,8-1.9,12.5c0.1,4.5,1.1,9.2,2.6,14c1.6,4.8,3.7,9.7,6.3,14.4
								c1.3,2.4,2.7,4.7,4.2,6.9c0.7,1.1,1.5,2.2,2.3,3.3c0.4,0.5,0.8,1.1,1.2,1.6l1,1.2l11.1,13.9l-14.1,10.9l-0.8,0.6l-1.1,0.9
								c-0.7,0.6-1.5,1.2-2.2,1.9c-1.5,1.3-2.9,2.7-4.2,4.1c-2.7,2.8-5.2,5.8-7.4,8.9c-4.3,6.2-7.3,12.8-8.3,19.1
								c-0.1,0.8-0.3,1.6-0.3,2.4c-0.1,0.8-0.1,1.6-0.1,2.4c0,0.4,0,0.8,0,1.2l0.1,1.2l0,1.2c0,0.4,0.1,0.8,0.2,1.2
								c0.1,0.8,0.2,1.6,0.4,2.3c0.2,0.8,0.4,1.6,0.5,2.4c0.5,1.6,0.9,3.2,1.6,4.7c1.3,3.2,3,6.3,5.1,9.3l0.8,1.1l0.8,1.1
								c0.5,0.7,1.1,1.4,1.7,2.1c0.6,0.7,1.2,1.4,1.8,2c0.3,0.3,0.6,0.6,0.9,0.9l0.4,0.4c0.1,0.1,0.3,0.3,0.2,0.2l5.5,15.2l0,0
								c0,0,0,0,0,0l0,0.2c0,0.2,0,0.3-0.1,0.5c0,0.4-0.1,0.8-0.1,1.2c-0.1,0.9-0.1,1.7-0.1,2.6c0,0.9,0,1.8,0,2.7l0.1,2.7
								c0.2,3.6,0.7,7.2,1.5,10.6c0.3,1.7,0.9,3.3,1.4,5c0.6,1.6,1.1,3.2,1.9,4.6c0.6,1.5,1.5,2.9,2.2,4.3c0.4,0.7,0.9,1.3,1.3,2
								l0.6,1c0.2,0.3,0.5,0.7,0.8,1c4.4,5.7,10.3,11.4,16.6,16.7c6.4,5.4,13.2,10.5,20.3,15.5c14.2,9.9,29.4,18.9,44.8,27.5
								c15.5,8.6,31.3,16.6,47.4,24.2c8,3.8,16.1,7.4,24.2,10.9c4.1,1.7,8.1,3.4,12.2,5c4.1,1.6,8,3.1,12.2,4.5
								c4.1,1.4,8.2,2.8,12.3,4.2l12.5,3.7l3.1,0.9l3.2,0.8l6.3,1.6l6.3,1.6c2.1,0.5,4.3,0.9,6.4,1.4c34.1,7.4,69.3,10.9,104.6,11.8
								c8.8,0.1,17.7,0.3,26.5,0l6.6-0.1c2.2,0,4.4-0.1,6.6-0.2l13.3-0.6c17.7-1,35.4-2.4,53-4.7c35.2-4.2,70.2-11,104.6-19.6
								c17.2-4.5,34.2-9.5,50.8-15.5l3.1-1.1l3.1-1.2l6.2-2.3c4.1-1.6,8.3-3,12.4-4.7c4.1-1.6,8.2-3.2,12.4-4.7
								c4.1-1.6,8.2-3.3,12.3-4.9c2.1-0.8,4.1-1.6,6.2-2.4l6.1-2.5l6.2-2.4l3.1-1.2l3.1-1.3c4.1-1.7,8.1-3.4,12.3-5
								c4.1-1.7,8.2-3.4,12.3-5c4.2-1.5,8.2-3.3,12.4-4.9c2.1-0.8,4.2-1.6,6.3-2.4c1.1-0.4,2.1-0.8,3.1-1.2l3.1-1.2
								c2.1-0.8,4.2-1.6,6.3-2.4c1.1-0.4,2.1-0.8,3.2-1.1c1.1-0.4,2.1-0.8,3.2-1.2c4.2-1.6,8.6-3.1,13.1-4.4l0.2-0.1
								c3.1-0.9,6.3,0.9,7.2,4c0.6,2,0,4-1.2,5.5c-3.1,3.6-6.4,7-9.7,10.3c-1.7,1.7-3.4,3.2-5.2,4.8c-1.8,1.5-3.5,3.1-5.3,4.6
								c-3.6,3.1-7.3,5.9-11.1,8.7c-3.8,2.8-7.6,5.5-11.5,8c-3.9,2.5-7.9,5-11.9,7.4c-4.1,2.3-8.2,4.5-12.3,6.7l-3.1,1.6
								c-1,0.5-2.1,1-3.1,1.5l-6.3,3l-6.3,3c-2.1,1-4.3,1.9-6.4,2.8c-17,7.5-34.7,13.3-52.4,18.9l-13.3,4c-4.4,1.3-8.9,2.5-13.4,3.7
								l-6.7,1.9c-2.2,0.6-4.5,1.2-6.7,1.8l-13.4,3.6c-35.8,9-72.2,16.1-108.9,20.5c-18.3,2.3-36.8,3.8-55.3,4.9l-13.9,0.6
								c-2.3,0.1-4.6,0.2-6.9,0.2l-6.9,0.1c-9.3,0.3-18.5,0-27.8,0c-37.1-1-74.3-4.6-111-12.6c-2.3-0.5-4.6-0.9-6.9-1.5l-6.8-1.7
								l-6.8-1.7l-3.4-0.9l-3.4-1l-13.6-4c-4.5-1.4-8.9-3-13.4-4.6c-4.5-1.5-9-3.2-13.3-4.9c-4.4-1.7-8.7-3.5-13-5.3
								c-8.6-3.6-17-7.4-25.4-11.4c-16.7-7.9-33.2-16.2-49.4-25.2c-16.2-9-32.2-18.6-47.7-29.4c-7.8-5.4-15.4-11.1-22.9-17.4
								c-7.5-6.3-14.7-13.3-21.5-21.8c-0.4-0.6-0.8-1-1.3-1.6l-1.3-1.8c-0.8-1.2-1.7-2.4-2.4-3.7c-1.4-2.6-2.9-5.1-4.1-7.8
								c-1.3-2.6-2.2-5.3-3.2-8c-0.8-2.7-1.7-5.4-2.2-8.1c-1.2-5.4-2-10.8-2.3-16.3l-0.2-4.1c0-1.4,0-2.7,0-4.1
								c0-1.4,0.1-2.7,0.2-4.1c0-0.7,0.1-1.4,0.2-2.2c0-0.4,0.1-0.7,0.1-1.1l0.1-0.6l0.1-0.8l5.5,15.2c-0.6-0.5-0.8-0.8-1.2-1.1
								l-0.9-0.9c-0.6-0.6-1.1-1.1-1.6-1.7c-1.1-1.1-2-2.2-3-3.3c-0.9-1.1-1.9-2.3-2.8-3.4l-1.3-1.8l-1.3-1.8
								c-3.3-4.8-6.2-10.1-8.5-15.7c-1.2-2.8-2.1-5.8-3-8.8l-1.1-4.6c-0.3-1.5-0.5-3.1-0.7-4.7c-0.1-0.8-0.2-1.6-0.3-2.4l-0.1-2.4
								l-0.1-2.4c0-0.8,0-1.6,0-2.4c0-1.6,0.1-3.2,0.3-4.8c0.1-1.6,0.4-3.1,0.6-4.7c1-6.2,2.9-12.2,5.3-17.7
								c2.4-5.5,5.4-10.6,8.6-15.3c3.3-4.7,6.9-9,10.8-13.1c1.9-2,3.9-3.9,6-5.8c1-0.9,2.1-1.9,3.2-2.8l1.7-1.4l0.9-0.7l1.2-0.9
								l-3.1,24.8l-1.1-1.4l-0.9-1.2c-0.6-0.8-1.1-1.5-1.7-2.3c-1.1-1.5-2.1-3-3.2-4.5c-2-3-3.9-6.1-5.7-9.3
								c-3.5-6.4-6.6-13.2-9-20.5c-2.3-7.3-3.9-15.1-4.2-23.4c-0.2-8.2,0.9-16.9,3.9-25c2.9-8.1,7.5-15.5,12.9-21.6
								c5.3-6.2,12.1-11.8,19.8-15.7c7.7-4,16-6.2,23.8-7.1c7.9-1,15.4-0.8,22.6-0.2c14.3,1.3,27.5,4.3,40.3,7.7
								c12.8,3.4,25.1,7.3,37.4,11.4c24.4,8.1,48.4,16.6,72.3,24.9c12,4.2,23.9,8.2,35.9,12.3c6,2,12.1,4.1,17.7,5.7l4.3,1.3
								l2.1,0.7c0.7,0.2,1.5,0.4,2.2,0.6l8.7,2.2l2.2,0.6c0.7,0.2,1.5,0.3,2.2,0.5l4.4,0.9l4.4,0.9c1.5,0.3,3,0.6,4.5,0.9
								c6,1,11.9,2.1,18,2.8c3,0.4,6,0.8,9.1,1.1l9.1,0.8c1.5,0.1,3,0.3,4.6,0.4l4.6,0.3l9.2,0.5c24.5,1,49.2,0.2,74-1.8
								c24.7-2.1,49.4-5.5,74-10c49.1-8.9,97.8-21.5,145.8-36.3c24-7.4,47.9-15.5,71.6-24c23.7-8.5,47.3-17.4,70.6-27.1l17.5-7.3
								l17.4-7.5c11.5-5.1,23.1-10.2,34.6-15.4l68.9-31.3c23-10.4,45.9-21.1,69.2-31c11.6-5,23.4-9.8,35.2-14.4
								c5.9-2.3,11.9-4.6,17.9-6.8c6-2.2,12.1-4.3,18.2-6.3l0.1,0c3-1,6.3,0.7,7.2,3.7C1559.7,2096.9,1558.9,2099.3,1557.2,2100.8z"
								/>
						</g>
					</g>
				</g>
			</g>
			<g>
				<g>
					<g>
						<g>
							<g>
								<path class="st7" d="M2373.1,2004.4c-390.4,807.5-1531,305.5-1240.9-508.2C1512.3,660.1,2690.8,1180.2,2373.1,2004.4z"/>
							</g>
						</g>
					</g>
				</g>
				<g>
					<g>
						<g>
							<g>
								<path class="st7" d="M2373.1,2004.4c-390.4,807.5-1531,305.5-1240.9-508.2C1512.3,660.1,2690.8,1180.2,2373.1,2004.4z"/>
							</g>
						</g>
					</g>
				</g>
				<g class="st4">
					<g>
						<g>
							<g>
								<path class="st5" d="M1159.7,2259.8c37.4,45.1,80.6,84.9,127.9,118.9c12.8,9.1,25.9,17.9,39.3,26.2
									c158.2,98.1,354.7,133.9,537.7,83.5c56.8-15.6,112.3-39.6,165-72.5c3.4-44,5.1-90.7,5.1-140.2c0-25.9-0.6-52.5-1.6-79.9
									l-532.3-48l39.5-58.4c-1.7,1-40.1,22.9-100.9,52.9l-15.3-1.4c-0.9,3.4-1.7,6.8-2.6,10.2
									C1352.4,2184.4,1259.4,2225.8,1159.7,2259.8z"/>
							</g>
						</g>
					</g>
				</g>
				<g>
					<g>
						<g>
							<g>
								<path class="st7" d="M2373.1,2004.4c-390.4,807.5-1531,305.5-1240.9-508.2C1512.3,660.1,2690.8,1180.2,2373.1,2004.4z"/>
							</g>
						</g>
					</g>
				</g>
				<g>
					<g>
						<g>
							<g>
								<path class="st5" d="M1767.4,2426.3c-91.1,0-183.4-18.5-271.5-55.4c-77.1-32.3-147-76.9-207.9-132.6
									c-62.8-57.5-113.1-124.5-149.4-198.9c-80.6-164.9-86.8-354.1-17.9-547.3l0.4-1c89.2-196.3,229-332.9,404.3-395.1
									c78.8-28,162.3-40.1,248.3-36.1c82.7,3.9,164.2,22.4,242.3,55.2c78.4,32.9,149.3,78.3,210.8,135.1
									c63.6,58.7,114.1,126.9,150.2,202.7c80.2,168.3,82.8,360.5,7.5,555.9l-0.4,0.9c-91.8,189.8-231.7,321.7-404.8,381.4
									C1911.3,2414.6,1839.7,2426.3,1767.4,2426.3z M1143.6,1500.8c-148.2,416.2,83.6,731,361.7,847.4
									c82.9,34.7,173.4,54.1,265,54.1c223,0,452.1-114.8,591.5-402.8c162.2-421.6-70.4-742.3-355.4-861.8
									C1724.3,1019.3,1334,1082.5,1143.6,1500.8z M2373.1,2004.4L2373.1,2004.4L2373.1,2004.4z"/>
							</g>
						</g>
					</g>
				</g>
				<g class="st4">
					<g>
						<g>
							<g>
								<path class="st5" d="M2373.1,2004.3c-325.1,703.4-1326.4,431.9-1285.9-311.7c64.9,234,147.9,236.4,283.9,346.6
									c419.6,364,998.6,19.3,1033.2-468C2442.9,1717.2,2430.2,1869.6,2373.1,2004.3z"/>
							</g>
						</g>
					</g>
				</g>
				<g>
					<g>
						<g>
							<g>
								<path class="st11" d="M1767.4,2431.2c-91.8,0-184.7-18.7-273.4-55.8c-77.6-32.5-148-77.4-209.3-133.5
									c-63.3-58-113.9-125.4-150.6-200.3c-81.2-166.1-87.4-356.7-18.1-551.1l0.2-0.7l0.3-0.7c89.8-197.5,230.6-335.1,407.2-397.8
									c79.4-28.2,163.6-40.4,250.2-36.4c83.3,3.9,165.3,22.6,244,55.6c78.9,33.1,150.3,78.9,212.2,136.1
									c64.1,59.2,115,127.8,151.4,204.2c80.8,169.6,83.5,363.1,7.7,559.8l-0.3,0.7l-0.3,0.6c-92.3,191-233.3,323.8-407.6,383.9
									C1912.4,2419.4,1840.3,2431.2,1767.4,2431.2z M1148.2,1502.7c-146.9,413.1,83.1,725.5,359.1,841
									c282.5,118.2,654.8,57,850.1-346.2c160.9-418.4-70-736.7-352.7-855.3C1724.6,1024.8,1337.3,1087.5,1148.2,1502.7z
									 M2373.1,2004.4L2373.1,2004.4L2373.1,2004.4z"/>
							</g>
						</g>
					</g>
				</g>
				<g>
					<g>
						<g>
							<g>
								<path class="st5" d="M1767.4,2431.2c-91.8,0-184.7-18.7-273.4-55.8c-77.6-32.5-148-77.4-209.3-133.5
									c-63.3-58-113.9-125.4-150.6-200.3c-81.2-166.1-87.4-356.7-18.1-551.1l0.2-0.7l0.3-0.7c89.8-197.5,230.6-335.1,407.2-397.8
									c79.4-28.2,163.6-40.4,250.2-36.4c83.3,3.9,165.3,22.6,244,55.6c78.9,33.1,150.3,78.9,212.2,136.1
									c64.1,59.2,115,127.8,151.4,204.2c80.8,169.6,83.5,363.1,7.7,559.8l-0.3,0.7l-0.3,0.6c-92.3,191-233.3,323.8-407.6,383.9
									C1912.4,2419.4,1840.3,2431.2,1767.4,2431.2z M1148.2,1502.7c-146.9,413.1,83.1,725.5,359.1,841
									c282.5,118.2,654.8,57,850.1-346.2c160.9-418.4-70-736.7-352.7-855.3C1724.6,1024.8,1337.3,1087.5,1148.2,1502.7z
									 M2373.1,2004.4L2373.1,2004.4L2373.1,2004.4z"/>
							</g>
						</g>
					</g>
				</g>
				<g>
					<g>
						<g>
							<g>
								<path class="st5" d="M2286.4,2152.7c-614.1,493-1297.1-208.1-853.5-736C1965.8,855.7,2747.3,1497.5,2286.4,2152.7z"/>
							</g>
						</g>
					</g>
				</g>
				<g>
					<g>
						<g>
							<g>
								<path class="st12" d="M2399.2,1665.2c104.6,704-894.4,908.1-1095.7,280.1C1681.1,2277.9,2259.6,2033.3,2399.2,1665.2z"/>
							</g>
						</g>
					</g>
				</g>
				<g>
					<g>
						<g>
							<g>
								<path class="st5" d="M1833,2405.2c-64.7,0-129.5-10.6-192.9-31.6c-70-23.2-135.1-58-193.7-103.4
									c-59.8-46.4-110-101.9-149.3-165c-41.3-66.4-69-139-82.4-215.9c-14.3-82.2-11.9-168.1,7.1-255.1l0.1-0.4
									c21.9-89.1,63.4-172.1,123.3-246.6c56.5-70.3,129.2-131.5,210.2-176.8c81.2-45.5,171.7-75.6,261.6-87
									c95.5-12.1,188.6-4,276.9,24.2l1.4,0.4l1.3,0.7c148.9,77.3,260.2,213.5,313.4,383.6c50.3,160.6,42.5,335.3-21.2,479.2
									l-0.1,0.1c-39.3,86.9-89.2,161.3-148.2,221.2c-55.3,56.1-118.4,99.3-187.7,128.6c-65.2,27.5-134.8,42.3-206.9,43.9
									C1841.6,2405.2,1837.3,2405.2,1833,2405.2z M1255.5,1641.7c-75.9,347.9,141.4,615.1,395.4,699.2
									c221.1,73.2,538.7,27.2,706.5-343.6c117.2-264.5,34.5-655.8-275.3-817.6c-163.1-51.6-348.8-29.6-509.8,60.5
									C1411.6,1330.3,1296.1,1476.6,1255.5,1641.7z M2373.1,2004.4L2373.1,2004.4L2373.1,2004.4z"/>
							</g>
						</g>
					</g>
				</g>
				<g>
					<g>
						<g>
							<g>
								<path class="st5" d="M1850.4,2337.4c-11.2,0-22.3-0.3-33.5-0.9c-145.7-8.2-282.2-70.2-384.2-174.5
									c-94.2-96.3-150.3-220.6-158-349.9c-8.5-142.8,41.7-283.3,145.1-406.4l0.7-0.8c126-132.7,274.8-208.4,430.3-218.9
									c139.8-9.5,277.1,34.7,386.7,124.5c112.1,91.8,183.7,221.7,201.6,365.7c20,160.9-27.9,329.1-138.5,486.4l-1.4,2l-1.9,1.5
									C2157.1,2278.6,2003.3,2337.4,1850.4,2337.4z M1445.8,1428.2c-217.7,259.4-151.1,543.3,11.5,709.7
									c179.1,183.2,500.8,254.9,816.4,2.9c231-330.2,132-648-58.1-803.7C2024.4,1180.4,1712.3,1147.9,1445.8,1428.2z
									 M2286.4,2152.7L2286.4,2152.7L2286.4,2152.7z"/>
							</g>
						</g>
					</g>
				</g>
				<g>
					<g>
						<g>
							<g>
								<path class="st7" d="M1023.1,1987.3c87.2,304,399.2,242.3,345.2-56.4C1288.7,1609,955.2,1675,1023.1,1987.3z"/>
							</g>
						</g>
					</g>
				</g>
				<g class="st4">
					<g>
						<g>
							<g>
								<path class="st5" d="M1252.1,2185.6c93.7-17.8,146.8-142.2,112.6-270.1c-41,144.4-214.6-61.5-233.3-124.6
									C897.3,1884.5,1080.8,2222,1252.1,2185.6z"/>
							</g>
						</g>
					</g>
				</g>
				<g>
					<g>
						<g>
							<g>
								<path class="st5" d="M1224,2204.6c-37.6,0-75.5-13.5-109.6-39.5c-48.7-37.1-86-96.9-107.8-173l-0.3-1.1
									c-16.2-74.4-11.5-141.3,13.6-193.4c23.2-48.1,62.2-80.6,109.9-91.7c24.5-5.7,49.8-5.4,75.3,0.9c26,6.5,50.7,18.9,73.6,37
									c49.8,39.4,86.6,102.7,106.4,183l0.2,1.1c12.9,71.4,6.4,135.3-18.6,184.8c-23.3,45.9-61.4,77.1-107.3,87.8
									C1247.7,2203.2,1235.9,2204.6,1224,2204.6z M1039.8,1983.1c43.2,150.2,140,200.6,211.7,183.9c35.9-8.4,65.9-33.2,84.5-69.9
									c21.6-42.7,27-98.9,15.6-162.6c-18-72.6-50.6-129.2-94.3-163.8c-37.3-29.5-79.8-40.7-119.7-31.4
									c-37.4,8.7-68.1,34.7-86.7,73.2C1029.2,1857.5,1025.4,1916.5,1039.8,1983.1z"/>
							</g>
						</g>
					</g>
				</g>
				<g>
					<g>
						<g>
							<g>
								<path class="st7" d="M1013.3,2006.3c70.9,246.3,305.4,204,261.8-37.6C1211.1,1704.5,956.2,1750.8,1013.3,2006.3z"/>
							</g>
						</g>
					</g>
				</g>
				<g>
					<g>
						<g>
							<g>
								<path class="st5" d="M1171.5,2188.9c-30.3,0-61-11.8-88.8-34.5c-38.2-31.2-67.9-80.8-85.9-143.3l-0.3-1
									c-13.6-60.9-11.1-115.5,7.2-157.7c17.2-39.7,47.3-66.4,84.8-75.2c39.3-9.2,82.6,3.3,118.7,34.2
									c39.2,33.6,68.5,86.6,84.7,153.3l0.2,1c10.4,57.8,6.2,109.4-12.1,149.1c-17.4,37.6-46.7,62.8-82.4,71.2
									C1188.9,2187.9,1180.2,2188.9,1171.5,2188.9z M1029.9,2002c16.1,55.6,41.8,99,74.5,125.7c27.4,22.4,57.7,31.1,85.3,24.7
									c48.2-11.3,88.1-71.3,68.6-180.2c-30.2-123.8-104.3-175.1-162-161.6c-26.6,6.2-48.3,25.8-61,55.3
									C1019.9,1901.4,1018,1948.4,1029.9,2002z"/>
							</g>
						</g>
					</g>
				</g>
				<g class="st13">
					<g>
						<g>
							<g>
								<path class="st7" d="M1410.9,1792.7c52.7,122.3,192.6,64.6,164.9-48.8C1532.7,1602.9,1366.7,1668.3,1410.9,1792.7z"/>
							</g>
						</g>
					</g>
				</g>
				<g class="st13">
					<g>
						<g>
							<g>
								<path class="st7" d="M1514.4,1982c22.9,45.6,84.5,21.5,64.3-30.3C1555.9,1906,1494.2,1930.1,1514.4,1982z"/>
							</g>
						</g>
					</g>
				</g>
				<g class="st13">
					<g>
						<g>
							<g>
								<path class="st7" d="M2336.7,1729.4c22.1-508.3-502-508.5-645.3-383.3C2025,1327.5,2196.9,1513.5,2336.7,1729.4z"/>
							</g>
						</g>
					</g>
				</g>
				<g class="st4">
					<g>
						<g>
							<g>
								<path class="st5" d="M1294.9,2024.1c0.1-36.1-9.7-72.3-26.4-104.4c-23.5,175.6-203.9,122-258.9,5.1
									C1003.4,2180.9,1273.7,2266.3,1294.9,2024.1z"/>
							</g>
						</g>
					</g>
				</g>
				<g>
					<g>
						<g>
							<g>
								<path class="st5" d="M1322.3,1745.3c-7.9,0-17.5-2.4-29.1-9.2c-8.2-4.8-10.9-15.4-6.1-23.5s15.4-10.9,23.5-6.1
									c7.4,4.3,10.9,4.5,11.7,4.5c1.1-1.1,3.8-6.3,4.5-18.4c0.6-9.8-0.4-18.5-0.4-18.6c-1.2-9.4,5.5-18,15-19.2
									c9.4-1.2,18,5.5,19.2,15c0.1,0.5,1.5,12.4,0.6,25.9c-1.5,21.6-8.2,36.5-20.1,44.2
									C1336.6,1742.8,1330.4,1745.3,1322.3,1745.3z"/>
							</g>
						</g>
					</g>
				</g>
			</g>
			<g>
				<g>
					<g>
						<g>
							<path class="st7" d="M760.3,2324.9c-104.8-29.8-186.2-24.5-196.4,3.4c-7.5,20.4-1.1,53.5,41.7,67.8
								c29.3,9.7,71.3,7.9,71.3,7.9s21.8,65.5,56.9,92.1"/>
						</g>
					</g>
				</g>
			</g>
			<g>
				<g>
					<g>
						<g>
							<path class="st5" d="M755.7,2341.2c-28.8-7.7-57.9-14.1-87.1-17.3c-14.6-1.7-29.1-2.6-43.4-2.2c-7.1,0.2-14.1,0.7-20.7,1.7
								c-6.6,1-13,2.5-18.1,4.7c-1.3,0.5-2.4,1.1-3.4,1.7c-1,0.6-1.9,1.2-2.5,1.7c-0.7,0.5-1.1,1-1.4,1.4c-0.1,0.1-0.2,0.2-0.2,0.3
								c-0.1,0.1-0.1,0.1-0.1,0.2c-0.1,0.1-0.1,0.1-0.1,0.2c0,0,0,0-0.1,0.1l-0.2,0.4c-1.7,4.5-2.3,9.9-1.6,15.1
								c0.7,5.2,2.7,10.2,5.7,14.7c3.1,4.5,7.4,8.6,12.5,11.9c10.3,6.8,23.6,10.7,37.8,13.1c7.1,1.2,14.3,2.1,21.7,2.7
								c3.7,0.3,7.3,0.5,11,0.7c1.8,0.1,3.7,0.1,5.5,0.2l2.7,0.1l2.6,0l9,0.1l2.4,7.8l0.9,3l1,3.1c0.7,2.1,1.4,4.2,2.2,6.2
								c1.5,4.2,3,8.3,4.6,12.4c3.2,8.3,6.6,16.4,10.3,24.5c3.7,8,7.7,15.9,12.2,23.5c0.5,1,1.1,1.9,1.7,2.8
								c0.6,0.9,1.2,1.9,1.8,2.8l1.8,2.8l1.9,2.7c2.6,3.6,5.4,7.2,8.4,10.6l0,0c0.5,0.6,0.5,1.5-0.1,2c-0.5,0.4-1.1,0.5-1.6,0.2
								c-8.5-4.3-16-10.4-22.7-17.2c-6.7-6.8-12.6-14.3-18-22.1c-1.3-1.9-2.6-3.9-3.9-5.9c-1.2-2-2.5-4-3.7-6
								c-2.4-4-4.7-8.2-6.9-12.4c-2.2-4.2-4.2-8.4-6.2-12.7c-1-2.2-1.9-4.3-2.8-6.5l-1.4-3.3c-0.5-1.1-0.9-2.2-1.3-3.5l11.4,7.8
								l-3.1,0.2l-3,0.1c-2,0.1-4,0.1-6,0.2c-4,0.1-7.9,0.1-11.9,0c-8-0.2-16-0.6-24-1.5c-8.1-0.9-16.2-2.2-24.5-4.5
								c-4.2-1.1-8.3-2.5-12.4-4.1c-4.1-1.7-8.2-3.6-12.1-5.9c-7.9-4.6-15.4-10.8-21.4-18.6c-6-7.8-10.3-17.2-12-27.1
								c-0.9-5-1.2-10-0.9-15.1c0.3-5.1,1.2-10.1,2.9-15.1l0.3-0.9c0.1-0.4,0.3-0.8,0.5-1.2c0.3-0.8,0.7-1.7,1.1-2.4
								c0.4-0.8,0.8-1.6,1.2-2.3c0.4-0.8,0.9-1.5,1.4-2.2c1.9-2.8,4.1-5.1,6.3-7.1c2.2-2,4.5-3.6,6.7-5c2.3-1.4,4.5-2.6,6.7-3.7
								c8.9-4.2,17.5-6.3,25.9-7.9c8.4-1.6,16.7-2.4,24.9-2.8c16.4-0.8,32.4-0.1,48.3,1.5c31.7,3.3,62.6,9.8,92.7,18.8
								c9,2.7,14.1,12.1,11.4,21.1C773.7,2338.5,764.6,2343.5,755.7,2341.2L755.7,2341.2z"/>
						</g>
					</g>
				</g>
			</g>
			<g>
				<g>
					<g>
						<g>
							<path class="st5" d="M979.4,2646.7c-4.1,0-8.1-1.6-11.1-4.9c-5.6-6.1-5.2-15.6,0.9-21.2c46-42.1,59.4-103.9,39.7-183.8
								c-15.2-61.9-45.5-111.5-45.8-112c-4.3-7.1-2.1-16.3,4.9-20.6c7.1-4.3,16.3-2.1,20.6,4.9c1.3,2.2,32.7,53.6,49.2,119.8
								c9.8,39.5,12.2,76.2,7.1,108.9c-6.5,41.9-25.2,77.2-55.6,104.9C986.6,2645.4,983,2646.7,979.4,2646.7z"/>
						</g>
					</g>
				</g>
			</g>
			<g>
				<g>
					<g>
						<g>
							<path class="st5" d="M509.8,2343.8c2.6,1.9,5.2,3.8,7.6,5.9c2.5,2,5,3.8,7.4,5.8c1.2,1,2.4,1.9,3.7,2.8l3.7,2.8
								c1.2,1,2.5,1.8,3.7,2.7c1.2,0.9,2.4,1.8,3.7,2.7c5,3.4,10.1,6.7,15.5,9.9c2.7,1.6,5.5,3.2,8.3,4.8l8.7,4.8
								c11.9,6.4,24,13.5,35.5,21.3c2.8,2,5.7,4,8.5,6c2.8,2,5.5,4.2,8.2,6.3l4.1,3.2c1.3,1.1,2.6,2.3,3.9,3.4
								c2.6,2.2,5.2,4.5,7.7,6.9c0.9,0.8,0.9,2.2,0.1,3.1c-0.6,0.6-1.5,0.9-2.3,0.6l-0.1,0c-6.6-2.1-12.9-4.6-19.3-6.8l-9.5-3.4
								c-3.2-1.1-6.3-2.2-9.5-3.3c-12.7-4.3-25.2-8.2-38.1-12.4c-3.3-1.1-6.5-2.1-9.8-3.3l-5-1.8c-1.7-0.6-3.3-1.3-5-2l-2.5-1
								c-0.8-0.3-1.7-0.7-2.5-1.1l-5-2.4c-1.7-0.8-3.3-1.7-4.9-2.6c-1.6-0.9-3.2-1.8-4.9-2.8c-1.6-1-3.1-2-4.7-3.1l-2.3-1.6
								c-0.8-0.5-1.5-1-2.3-1.6c-2.9-2.3-5.9-4.5-8.6-6.9c-1.3-1.2-2.7-2.4-4-3.7c-1.3-1.2-2.7-2.5-3.9-3.8c-2.5-2.6-4.9-5.2-7.2-8
								c-5.4-6.4-4.5-15.9,1.8-21.2c5.4-4.5,13-4.6,18.4-0.8L509.8,2343.8z"/>
						</g>
					</g>
				</g>
			</g>
			<g>
				<g>
					<g>
						<g>
							<path class="st5" d="M499.7,2443.1c3,2.4,5.7,4.3,8.9,6.1c3.2,1.8,6.9,3.4,11.1,5c8.5,3.1,18.7,6,29.3,9.5
								c10.8,3.6,21.1,7.9,31.1,12.8c10,4.9,19.7,10.4,28.9,16.9c1,0.7,1.2,2.1,0.5,3.1c-0.5,0.7-1.2,1-2,0.9l0,0
								c-11-1-21.8-2.3-32.5-3.6c-10.7-1.3-21.2-2.5-31.6-3.4c-10.5-1-21.6-1.6-33.7-5.2c-6-1.8-12.3-4.3-18.3-8.2
								c-5.9-3.9-11.4-9.1-15.2-15.2c-4.4-7.1-2.1-16.4,5-20.7c5.6-3.4,12.4-2.8,17.3,1L499.7,2443.1z"/>
						</g>
					</g>
				</g>
			</g>
			<g>
				<g>
					<g>
						<g>
							<path class="st5" d="M646.7,2703.8c-2.2,13.8-3,27.6-3.1,41.4c0,3.4,0,6.9,0.1,10.3l0.4,10.3l0.8,10.2
								c0.1,1.7,0.3,3.4,0.5,5.1l0.6,5.1l0.6,5l0.8,5c0.6,3.3,1.1,6.7,1.7,10c1.5,6.6,2.7,13.2,4.6,19.6c3.2,13,7.9,25.4,12.8,37.5
								l0.2,0.5c3.5,8.7-0.7,18.7-9.4,22.2c-8.7,3.5-18.7-0.7-22.2-9.4c-0.4-1-0.7-2.2-1-3.3c-2.7-14.6-4.9-29.1-5.6-43.6
								c-0.6-7.2-0.5-14.5-0.6-21.7c0-3.6,0.2-7.2,0.4-10.8l0.2-5.4l0.4-5.4l0.4-5.3c0.1-1.8,0.3-3.6,0.5-5.3l1.3-10.6l1.7-10.5
								c0.6-3.5,1.3-7,2-10.4C638.1,2730.5,641.8,2716.9,646.7,2703.8z"/>
						</g>
					</g>
				</g>
			</g>
		</g>
	</g>
</g>
</svg>
