<?xml version="1.0" encoding="utf-8"?>
<!-- Generator: Adobe Illustrator 22.0.0, SVG Export Plug-In . SVG Version: 6.00 Build 0)  -->
<svg version="1.1" id="Layer_1" xmlns="http://www.w3.org/2000/svg" xmlns:xlink="http://www.w3.org/1999/xlink" x="0px" y="0px"
	 viewBox="0 0 4000 4000" style="enable-background:new 0 0 4000 4000;" xml:space="preserve">
<style type="text/css">
	.st0{display:none;}
	.st1{display:inline;fill:#9D91FF;}
	.st2{opacity:0.35;}
	.st3{fill:#371A45;}
	.st4{fill:#FFFFFF;}
	.st5{fill:#FFAC40;}
	.st6{opacity:0.7;}
	.st7{fill:#22A7F0;}
	.st8{opacity:0.3;}
	.st9{fill:none;stroke:#FFFFFF;stroke-width:30.3878;stroke-linecap:round;stroke-miterlimit:10;}
	.st10{fill:#FFB200;}
	.st11{fill:#D66B09;}
	.st12{fill:#FFC943;}
	.st13{fill:#FFEC90;}
	.st14{opacity:0.41;}
	.st15{fill:#293856;}
	.st16{opacity:0.4;}
	.st17{fill:#111A28;}
</style>
<g>
	<g class="st0">
		<rect class="st1" width="4000" height="4000"/>
	</g>
	<g>
		<g class="st2">
			<ellipse class="st3" cx="2455" cy="3392.5" rx="970" ry="142.5"/>
		</g>
		<g>
			<g>
				<path class="st4" d="M3107.9,2211.4c-82.4,65.4-177,55.7-246.1,33.3c-58-18.8-98-46.5-98-46.5v-439.5c0,0,35,179.4,170.3,165.9
					c18.2-1.8,38.3-7.2,60.4-16.9c31.4-13.8,66.7-36.6,106.6-70.9l44.8,33.8C3145.7,1870.6,3253.5,2095.8,3107.9,2211.4z"/>
			</g>
			<g class="st2">
				<path class="st3" d="M3107.9,2211.4c-82.4,65.4-177,55.7-246.1,33.3c-58-18.8-98-46.5-98-46.5v-439.5c0,0,0.6,2.8,1.8,7.6V2052
					c0,0,40,27.7,98,46.5c69.1,22.4,163.7,32,246.1-33.3c35.5-28.2,56-62.9,66.6-99.3C3191.6,2041.3,3192,2144.6,3107.9,2211.4z"/>
			</g>
			<g>
				<path class="st3" d="M2961.3,2277.5c-27.7,0-56.7-4-86.6-12.2c-68.9-18.8-118.1-52.5-120.1-53.9l-6.9-4.8v-447.9l31.7-3.1
					c0.2,1.2,24.5,120.2,104.6,147.9c54.4,18.8,123.9-7.7,206.4-78.9c6.7-5.8,16.8-5,22.6,1.7c5.8,6.7,5,16.8-1.7,22.6
					c-91.8,79.2-171.9,107.7-237.8,84.8c-44.6-15.5-74.4-51.6-93.8-86.8v342.5c34.7,21.3,193.4,108.4,318.2,9.4
					c133.9-106.2,34.4-319.3,33.4-321.4c-3.8-8-0.4-17.5,7.5-21.3c8-3.8,17.5-0.4,21.3,7.5c4.6,9.7,111.5,238.2-42.4,360.3
					C3073,2259.5,3019.9,2277.5,2961.3,2277.5z"/>
			</g>
			<g>
				<path class="st5" d="M2951.7,684.5c0.4,2.3,0.7,4.6,1,6.9l87.1,811.1c29.8,277.9,87.7,673.3,133.8,949l0,0.2l-87,14.6l0,0
					c-46.2-275.9-120.3-668.7-182.6-941.3l-181.7-795c-15-65.7,28.4-130.3,94.7-141.5C2881.1,577.8,2941.1,621.2,2951.7,684.5z"/>
			</g>
			<g class="st6">
				<path class="st4" d="M3173.6,2451.7l-35,5.8c-46-275.4-103.1-666.4-132.7-942.1l-87.1-811c-0.3-2.4-0.6-4.7-1-7
					c-10.6-63.2-70.6-106.7-134.7-96c-1.8,0.3-3.6,0.6-5.4,1c11.8-6.8,24.9-11.6,39.2-14c64.1-10.7,124.1,32.7,134.7,96
					c0.4,2.3,0.7,4.6,1,6.9l87.1,811.1c29.8,278,87.6,673.3,133.8,949L3173.6,2451.7z"/>
			</g>
			<g class="st2">
				<path class="st3" d="M3173.6,2451.7l-87,14.6c-23.1-137.9-53.1-305.1-85.2-471.8c-32.1-166.8-66.2-333.1-97.4-469.5l-181.7-795
					c-15-65.7,28.3-130.4,94.7-141.5c8.8-1.5,17.6-1.9,26.2-1.4c-32.3,27.2-48.8,71.2-38.7,115.6l181.8,795
					c31.2,136.3,65.3,302.7,97.4,469.4c32.1,166.8,62.2,334,85.2,471.9l2.5-0.4c0.7,4.4,1.4,8.7,2.2,13L3173.6,2451.7z"/>
			</g>
			<g>
				<path class="st3" d="M3073.4,2484.7l-2.6-15.8c-44.3-264.7-117.9-658.1-182.4-940.4l-181.7-795c-8.2-36.1-1.5-72.9,19.1-103.6
					c20.6-30.7,52-51,88.6-57.2c72.4-12.1,141,36.8,153.1,109.1c0.4,2.6,0.8,5.1,1.1,7.7l87.1,811.2
					c30.9,287.7,89.4,683.5,133.7,948.1l2.6,15.8l-15.7,2.9L3073.4,2484.7z M2836.4,602.9c-5.5,0-11.1,0.5-16.7,1.4
					c-27.7,4.6-51.6,20.1-67.3,43.4c-15.6,23.3-20.8,51.3-14.5,78.7l181.7,795c63.4,277.3,135.5,661.6,180.1,926.5l55.4-9.3
					c-44-264.9-101-651.7-131.4-934.4l-87.1-811.1c-0.2-1.9-0.5-4-0.8-6l0,0C2927.7,637.9,2884.8,602.9,2836.4,602.9z"/>
			</g>
			<g>
				<path class="st4" d="M2247.5,1940.1l-4.3,89.6l-2.2,45.6l-37.5,787c0,0-53.5-5.6-124.7-18.9c-13.9-2.6-28.5-5.5-43.5-8.7
					c-111.8-23.8-246.1-64.7-291.2-129c-67.4-96.2-29.4-522,60.3-681.8c41.1-73.3,207-87.4,323.7-87.9c13-0.1,25.5,0,37,0.3
					C2214,1937.3,2247.5,1940.1,2247.5,1940.1z"/>
			</g>
			<g class="st2">
				<path class="st3" d="M2243.2,2029.7l-2.2,45.6l-29.8,624.9l-7.7,162.1c0,0-1.1-0.1-3.2-0.4c-0.6-0.1-1.3-0.2-2.1-0.2
					c-0.6-0.1-1.3-0.2-2-0.2c-0.5,0-1-0.1-1.6-0.2c-0.2,0-0.4,0-0.6-0.1c-1-0.1-2-0.2-3.2-0.4c-0.2,0-0.5,0-0.8-0.1
					c-0.9-0.1-1.9-0.2-2.9-0.4c-1.4-0.2-2.8-0.4-4.4-0.6c-1.1-0.2-2.2-0.3-3.4-0.4c-1.2-0.2-2.4-0.3-3.6-0.5
					c-1.6-0.2-3.2-0.4-4.9-0.6c-3.4-0.5-7-1-10.8-1.5c-3.4-0.4-6.9-1-10.6-1.5c-4.2-0.6-8.7-1.3-13.3-2c-17-2.6-36.4-5.9-57.4-9.8
					c-4.1-0.8-8.2-1.6-12.4-2.4c-2.9-0.6-5.9-1.2-8.9-1.8c-7.2-1.4-14.7-3-22.2-4.6c-111.8-23.8-246.1-64.7-291.2-129
					c-55.6-79.2-39.6-381.9,17.9-575.6c-26.5,171.2-25.2,357.8,16.6,417.5c20.7,29.5,63.2,54.2,114.1,74.6
					c21.7,8.7,44.2-10,40.3-33.1c0-0.2-0.1-0.4-0.1-0.6c-7-42.2-29.9-98.1-26.1-153.4c9.8-142.8,50.6-323.8,192.5-419.9
					C2103.1,2012.9,2178.8,2030.2,2243.2,2029.7z"/>
			</g>
			<g class="st2">
				<path class="st3" d="M2121.4,2845.1c4.6,0.7,9,1.4,13.3,2C2130.5,2846.5,2126,2845.8,2121.4,2845.1z"/>
			</g>
			<g class="st2">
				<path class="st3" d="M2196.4,2692l-7.7,162.1c0,0,0,0,0,0L2196.4,2692L2196.4,2692z"/>
			</g>
			<g>
				<path class="st3" d="M2218.8,2880.1l-16.8-1.8c-15.7-1.6-385.6-41.7-470.9-163.3c-70.8-101.1-34.2-532.2,59.5-698.9
					c29.8-53.1,116.9-84.6,258.9-93.5c102.6-6.5,198.5,1.5,199.4,1.6l15.4,1.3L2218.8,2880.1z M2137.2,1951.9
					c-122.4,0-282.4,15.1-318.7,79.9c-40.5,72.2-73.9,209.5-87.1,358.4c-12.9,145.3-2.7,265.6,26,306.5
					c67.5,96.3,357.8,138.6,431.1,147.9l42.3-889.6C2205.5,1953.2,2172.9,1951.9,2137.2,1951.9z"/>
			</g>
			<g class="st2">
				<path d="M1908.1,1352.2c-2.2,4.1-4.2,8.3-6.3,12.4c-4.5,9.3-8.8,18.6-12.8,28c7-21.8,12.2-34.3,12.2-34.3L1908.1,1352.2z"/>
			</g>
			<g>
				<path class="st4" d="M3118.8,3358.9c-94.7,52.5-347.2,58.6-418.6-27c-35.2-42.3-10.6-138.2-7.2-169.6
					c10.8-100.9,36.6-253.4-94.2-264.6c-40.3-0.4-128.1,8-128.1,8c-39,165.6-144.7,254.3-212,293.4c115.9,14.7,161.8,193,7.4,209.5
					c-182.6,19.5-375.5,4.3-375.2-120.6c0.3-119.2,37.6-203.3,70.1-278.7c51.9-120.1,76.2-152,39.8-276.2
					c-12.1-41.3-26.1-84.2-35.1-133.4c0,0,0,0,0,0c-8.2-44.6-12.4-94.3-7.8-152.9c8.9-112.7,50.7-257.9,160.4-460.8
					c1.2-2.2,2.4-4.4,3.6-6.6c25.5-46.9,54.6-96.8,87.8-150.2l554.2,65.8l78.2,9.3c1.1,28.7,2.6,60,4.4,93.1
					c0.7,12.7,1.4,25.7,2.2,38.9c3.8,66.8,8.4,138.6,13.2,208.4c13.7,197.6,28.6,378,28.6,378s311.1,227.6,130,539.6
					C3114.3,3182.4,3242.3,3290.4,3118.8,3358.9z"/>
			</g>
			<g class="st2">
				<path class="st3" d="M2220.6,1830.6c-6.3,3.8-12.6,7.6-18.8,11.2c2.6-4.2,5.2-8.4,7.8-12.6L2220.6,1830.6z"/>
			</g>
			<g class="st2">
				<path class="st3" d="M2799.5,2700.9l-413,24.6c-48.9,2.9-91.3-34.7-94.2-83.7l-0.9-15.8c-99.2,8.6-179.5,3.4-242-6.9
					c7.6,22.4,14.8,43.4,20.6,63.3c36.4,124.2,51.4,180,8.6,277.5c-33,75.2-118.1,158.1-118.4,277.4
					c-0.3,124.9,192.5,140.1,375.2,120.6c7.8-0.8,15.6-2.1,23.4-3.8c-13,27.5-42.6,49.3-92.6,54.6
					c-182.6,19.5-375.5,4.3-375.2-120.6c0.3-119.2,37.6-203.3,70.1-278.7c51.9-120.1,76.2-152,39.8-276.2
					c-12.1-41.3-26-84.2-35.1-133.4c-0.3-1.5-0.6-3-0.8-4.5c-0.5-2.6-0.9-5.2-1.3-7.7c-0.8-5-1.6-10-2.2-15
					c-0.5-3.3-0.9-6.6-1.3-9.9c-1-7.8-1.7-15.7-2.4-23.9c-0.2-2.8-0.4-5.7-0.6-8.6c0-0.2,0-0.3,0-0.5c-0.2-2.7-0.3-5.4-0.4-8.2
					c-0.2-3.1-0.3-6.3-0.4-9.5c-0.1-2.8-0.2-5.5-0.2-8.4c0-3-0.1-6-0.1-9v-0.1c0-3.8,0-7.6,0.1-11.5c0.1-3.9,0.2-7.8,0.4-11.8
					c0.2-4,0.4-8,0.6-12.1c0-0.5,0-1,0.1-1.5c0.2-3.4,0.4-6.9,0.7-10.4c0-0.2,0-0.3,0-0.5c16.3,7,33,12.8,50,17.4
					c107.1,29.7,222,17.2,274.5,8.7l-3-50.9c-2.6-42.9,26-80.7,66-91.4c5.7-1.6,11.6-2.5,17.7-2.9l412.9-24.5
					c48.9-2.9,91.3,34.7,94.2,83.6l10.4,174.1l2.8,45.7C2886.1,2655.7,2848.4,2698,2799.5,2700.9z"/>
			</g>
			<g class="st2">
				<path class="st3" d="M2007.8,2464.3c-17-4.7-33.7-10.4-50-17.4c5.2-66.2,21.8-143.6,56.8-237.3
					C1993.6,2310.2,1995.9,2393.4,2007.8,2464.3z"/>
			</g>
			<g class="st2">
				<path class="st3" d="M3162,3320.2c-7.8,13.6-21.6,26.8-43.2,38.7c-94.7,52.5-347.2,58.6-418.6-27
					c-35.2-42.3-10.6-138.2-7.2-169.6c10.8-100.9,36.6-253.4-94.2-264.6c-33.6-0.4-100.5,5.4-121.6,7.4c-8-39.6-10.4-81.8-0.2-124.9
					c0,0,143.6,7.7,189.6,36.3c145.6,90.7,106.4,182.1,95.7,283c-3.4,31.4-43.4,154.1-11.6,199
					C2808.6,3380.4,3050,3364.2,3162,3320.2z"/>
			</g>
			<g>
				<path class="st3" d="M2856.1,2075c6.4,45.4,11.6,90.9,16.3,136.4c2.5,22.7,4.5,45.5,6.8,68.3l6.1,68.3l11.4,136.7l10.7,136.7
					l-6.9-12.4c5.8,4.4,10.6,8.4,15.7,12.8c5,4.3,9.9,8.7,14.7,13.1c9.7,8.9,18.9,18.2,27.9,27.7c17.9,19.1,34.6,39.3,49.9,60.6
					c30.4,42.6,55.3,90,69.7,141.2c7.2,25.5,12.1,51.8,13.8,78.4c1.4,26.6,0.4,53.3-3.7,79.6c-8.5,52.6-28.1,102.6-54.3,148
					l-10.5-23.7c27.3,6,52.5,16.8,76,30.7c23.3,14,45.2,31,62.9,53.6c8.7,11.3,16.4,24.3,20.4,39.6l1.4,5.7l0.8,6
					c0.7,3.9,0.5,8.1,0.5,12.2c-0.3,4.1-0.7,8.2-1.6,12.2c-1.1,4-1.9,8-3.6,11.7c-6.1,15.2-16.5,27.2-27.6,36.6
					c-11.3,9.4-23.1,16.8-35.8,22.9c-25.2,11.8-51.1,18.9-77.1,24.3c-26,5.1-52.2,8.5-78.5,10.1c-52.5,3.1-105.5,0.9-157.8-10.5
					c-13.1-2.9-26-6.6-38.9-11c-12.8-4.6-25.5-10.1-37.7-16.9c-12.2-7-23.9-15.5-34.2-26.3c-5-5-10.4-12-13.9-18.9
					c-3.7-7-6.3-14.2-8.3-21.3c-3.7-14.3-5-28.4-5.2-42.1c-0.2-13.7,0.7-27.2,2.2-40.4c1.4-13.2,3.4-26.2,5.5-39l3-18.8l0.6-4.4
					l0.5-4.5l1.1-9.6c2.9-25.6,5.8-50.8,7.2-75.8c1.4-25,1.4-49.8-2.4-73.4c-3.7-23.4-11.8-45.6-26.6-60.7
					c-14.6-15.3-36-22.9-59.1-24.9l1.2,0.1c-10.1-0.1-20.6,0.3-31.1,0.8c-10.5,0.5-21.1,1.2-31.7,1.9c-21.2,1.5-42.4,3.2-63.5,5.2
					l14-12.3c-7.7,31-17.7,61.6-30.6,90.9c-12.9,29.4-29.2,57.2-47.8,83.4c-18.7,26.1-40.1,50.2-63.8,72
					c-23.6,21.8-49.6,40.9-77.4,57.4l-4.6-29.5c25.8,5.9,50.6,17.6,70.7,35.2c20.2,17.4,36.4,40,44.6,66.3
					c4.1,13.1,6.1,27.1,5.2,41.3c-0.9,14.2-4.9,28.5-12.1,41.1c-7.1,12.6-17.2,23.3-28.6,31.5c-11.4,8.3-24,13.8-36.7,17.9
					c-12.7,4.3-25.7,6.2-38.4,7.8c-12.1,1.3-24.1,2.4-36.2,3.4c-24.2,1.9-48.5,3.2-72.9,3.5c-48.7,0.6-97.9-1.6-146.9-12.4
					c-6.1-1.2-12.2-3.1-18.3-4.6c-6-1.9-12.1-3.5-18.1-5.8c-12-4.1-23.9-9.5-35.3-16c-22.8-12.6-44.3-32.7-55.3-59
					c-1.2-3.3-2.7-6.5-3.7-9.9l-2.7-10.2c-1.1-6.8-2.3-13.7-2.3-20.5l-0.2-5.1l0.1-4.6l0.2-9.2c0.1-6.2,0.3-12.3,0.8-18.5
					c1.4-24.6,4.5-49.2,9.2-73.5c9.3-48.6,25.7-95.4,44.4-140c9.3-22.4,18.9-44.3,28.6-66.4c9.6-22,19.6-43.8,27.7-65.4
					c8.2-21.7,14.1-43.3,15.7-65.2c1.8-21.9-1.2-44.5-5.9-67c-4.8-22.6-11.8-45-18.6-68.2c-6.9-23-13.7-46.4-19.3-70.2
					c-11.6-47.6-17.9-97-17.9-146.3c0.1-24.7,1.8-49.2,4.5-73.6l2.5-18.2c0.8-6.1,1.7-12.1,2.9-18.2l3.2-18.1l3.8-17.9
					c10.4-47.8,24.7-94.5,41.3-140.1c16.7-45.6,35.5-90.4,56.4-134c20.8-43.7,43.8-86.3,68.8-127.5c24.8-41.4,52-81.3,81.7-119.4
					c1.8-2.3,5.2-2.8,7.5-0.9c2,1.6,2.6,4.3,1.6,6.5l0,0c-41.4,87-88.1,170.1-128.7,256.1c-20.4,42.9-40.1,86.2-56.8,130.5
					c-16.7,44.3-30.7,89.6-40.6,135.6l-3.7,17.3l-3.1,17.3c-1.1,5.8-2,11.6-2.7,17.4l-2.4,17.4c-2.5,23.3-4.1,46.6-4.3,69.9
					c0,46.7,5.9,93.1,17,138.8c5.5,22.9,12.1,45.6,18.9,68.5c6.8,22.8,14.1,46.3,19.2,70.7c5,24.3,8.5,49.9,6.5,75.9
					c-1.8,26-8.9,51.1-17.7,74.3c-8.8,23.2-18.8,45.1-28.4,67.1c-9.6,21.9-19.2,43.9-28.4,65.8c-18.4,43.7-33.8,88-42.6,133.8
					c-4.4,22.9-7.3,46-8.6,69.2c-0.4,5.8-0.7,11.6-0.7,17.5l-0.2,8.7l-0.1,4.4l0.2,3.9c0,5.2,0.9,10.2,1.7,15.2l1.9,7.2
					c0.7,2.4,1.8,4.6,2.6,7c7.7,18.2,22.7,33.1,41.7,43.6c9.4,5.3,19.5,9.9,30.1,13.6c5.2,2,10.7,3.4,16.1,5.2
					c5.5,1.4,11,3,16.6,4.1c44.9,10,92.2,12.2,139.3,11.7c23.6-0.4,47.2-1.6,70.8-3.4c11.8-0.9,23.6-2.1,35.4-3.3
					c11-1.5,21.9-3,32-6.5c10.1-3.3,19.7-7.5,27.8-13.4c8.1-5.8,14.7-13,19.4-21.3c9.6-16.5,10.4-37.5,4.2-57.1
					c-6.1-19.7-18.8-37.7-34.9-51.5c-16.1-14-35.9-23.4-56.8-28.2l-39-9l34.5-20.4c25.6-15.2,49.9-32.9,71.8-53.3
					c22-20.3,42-42.8,59.4-67.1c17.4-24.3,32.5-50.3,44.6-77.7c12.1-27.4,21.4-56,28.7-85.2l2.8-11.2l11.3-1.1
					c21.5-2,42.9-3.8,64.4-5.3c10.8-0.8,21.5-1.4,32.4-1.9c10.9-0.5,21.7-0.9,33-0.8l0.6,0l0.5,0.1c14,1.3,28.3,4.1,42,9.7
					c13.7,5.5,26.8,13.9,37.3,24.8c10.6,10.9,18.5,23.8,24.1,37.1c5.6,13.4,9,27.1,11.2,40.7c4.3,27.2,4.1,54,2.7,80.3
					c-1.5,26.3-4.5,52.1-7.3,77.6l-1,9.5l-0.6,5l-0.7,5.1l-3.1,19.3c-2.1,12.6-4,25-5.3,37.3c-2.6,24.5-3.4,49.4,2.1,70.7
					c1.4,5.3,3.3,10.2,5.6,14.6c2.4,4.5,4.9,7.8,8.9,11.9c7.5,7.8,16.7,14.6,26.7,20.4c10.2,5.7,21.2,10.4,32.5,14.5
					c11.5,3.9,23.2,7.3,35.2,9.9c48.2,10.6,98.9,12.8,148.8,9.8c25-1.5,49.8-4.7,74.2-9.5c24.2-5,48.2-11.7,69.6-21.7
					c20.8-10.2,40.6-24.8,47.6-42.5c7.4-17.1,0.5-38.1-13.6-56c-14-18-33.2-33.3-53.8-45.6c-20.7-12.3-43.4-21.9-66.3-26.9
					l-21.4-4.7l10.9-19c24.5-42.7,42.6-88.9,50.3-137c3.8-24,4.7-48.3,3.4-72.6c-1.5-24.2-6-48.2-12.6-71.7
					c-6.6-23.5-15.7-46.3-26.9-68.1c-11.1-21.9-24.1-42.8-38.5-62.8c-14.4-20-30.4-38.9-47.5-56.7c-8.6-8.8-17.4-17.6-26.6-25.8
					c-4.6-4.1-9.2-8.2-13.9-12.1c-4.6-3.9-9.6-7.9-14-11.1l-6.3-4.7l-0.6-7.7l-11-136.9l-4.8-68.5l-4.4-68.5l-3.7-68.6
					c-0.9-22.9-2-45.7-2.7-68.6c-1.5-45.8-2.2-91.6-1.3-137.5c0.1-3,2.5-5.3,5.5-5.2C2853.5,2070.4,2855.7,2072.4,2856.1,2075z"/>
			</g>
			<g>
				<g>
					<path class="st4" d="M2427.1,1740.4c1.7-2.5,3.5-5,5.5-7.6l-6.4,5.8L2427.1,1740.4z"/>
				</g>
			</g>
			<g>
				<path class="st3" d="M2015.3,3221.3c18-11.2,37.5-19.2,57.5-25.9c20.1-6.5,40.7-11.5,61.7-14.6c21-2.9,42.3-5.1,63.5-4.2
					c10.7-0.1,21.3,1.2,31.8,2.2c10.6,1.2,21,3.4,31.4,5.6c8.1,1.7,13.2,9.7,11.5,17.8c-1.6,7.3-8.2,12.2-15.4,11.8l-1.2-0.1
					c-10-0.5-19.9-1.9-29.8-2.7c-9.9-0.6-19.8-1.9-29.7-2.2c-19.8-1.4-39.7-1.7-59.7-1.3c-20,0.5-40,2.3-60.1,5.1
					c-20,2.8-40.1,6.7-59.7,12.3l-0.1,0c-1.1,0.3-2.3-0.3-2.7-1.5C2014.1,3222.8,2014.5,3221.8,2015.3,3221.3z"/>
			</g>
			<g>
				<path class="st3" d="M2793.4,3224.3c6.9-7.9,14.8-14.3,23.3-20.1c8.4-5.9,17.2-11,26.3-15.7c18.2-9.4,37.3-16.8,56.7-22.7
					c19.4-6.1,39.3-10.6,59.3-13.9c10-1.4,20.1-2.6,30.2-3.5c10.1-0.6,20.2-1,30.3-0.9c8.3,0.1,15,6.8,14.9,15.1
					c-0.1,7.4-5.5,13.6-12.6,14.7l-0.6,0.1c-9.6,1.6-19.3,2.6-28.9,3.5c-9.6,1.2-19.2,2.3-28.8,3.2c-19.1,2.6-38.4,4.4-57.3,7.9
					c-9.5,1.6-18.9,3.6-28.4,5.6c-4.6,1.2-9.3,2.4-14,3.5c-4.7,1.1-9.3,2.6-13.9,3.9c-4.7,1.3-9.2,2.9-13.8,4.4
					c-4.5,1.7-9.1,3.3-13.6,5.1c-8.9,3.6-17.9,7.8-25.9,12.9l-0.2,0.1c-1,0.6-2.3,0.3-3-0.7C2792.7,3226,2792.8,3225,2793.4,3224.3z
					"/>
			</g>
			<g>
				<path class="st4" d="M1784.5,2391.8l152.7,26c13.6,2.3,24,13.5,25.2,27.3c4.3,50.5,8.3,167.5-43.6,201.2
					c-43,28-107.7,18.1-142.8-17.7c-39.3-40.1-32.8-153.9-26.8-210C1751.1,2401.1,1767.2,2388.9,1784.5,2391.8z"/>
			</g>
			<g class="st2">
				<path class="st3" d="M1962.4,2445.1c4.4,50.4,8.3,167.5-43.6,201.2c-43,28-107.7,18.1-142.8-17.7c-24.1-24.7-31-77.2-31.3-127.1
					c4.6,25.3,13.6,46.4,25.9,60.8c70.5,82.6,136.7-0.8,136.7-0.8s8,22.5,15.9,24.5c33,8.2,35.9-97.2,36.1-151.8
					C1961,2437.5,1962.1,2441.2,1962.4,2445.1z"/>
			</g>
			<g>
				<path class="st3" d="M1860.7,2678.5c-35.3,0-71.4-13.4-96.1-38.7c-41-41.9-39.6-144.3-31.3-222.9c1.3-12.7,7.9-24.4,18.1-32.1
					c10.2-7.7,23.2-10.9,35.8-8.8l152.7,26c20.8,3.5,36.6,20.7,38.4,41.7c5.5,64.7,6.3,178.9-50.8,216
					C1908.1,2672.4,1884.6,2678.5,1860.7,2678.5z M1779.4,2407.4c-3.1,0-6.1,1-8.6,2.9c-3.2,2.4-5.2,6-5.6,9.9
					c-10.5,98.5-2.1,172.2,22.3,197.2c30.9,31.5,87.1,38.6,122.7,15.5c31-20.2,44.6-89.9,36.4-186.4c-0.6-6.5-5.5-11.8-11.9-12.9
					l-152.7-26C1781,2407.4,1780.2,2407.4,1779.4,2407.4z"/>
			</g>
			<g>
				<path class="st3" d="M1835.4,2647.6c0.6-0.2,2.7-1.1,4.1-1.8c1.6-0.8,3.2-1.7,4.9-2.7c3.2-1.9,6.4-4.2,9.4-6.6
					c6-5,11.8-10.5,16.8-16.9c10.2-12.6,18-27.4,23.5-43.3c2.6-8,5.1-16.1,6.7-24.5c2-8.2,3.2-17.1,4.6-25.6
					c1.2-8.6,2.2-17.3,2.6-25.9c0.4-8.5,0.6-17.6-0.6-25.3l-0.1-0.5c-0.4-2.3,1.2-4.4,3.5-4.8c2.2-0.3,4.2,1.1,4.7,3.1
					c2.4,9.7,2.9,18.4,3.4,27.5c0.3,9,0.2,18.1-0.2,27c-0.5,9-0.9,17.9-2.2,27c-0.9,9.1-2.8,18.1-4.8,27.2
					c-4.4,18-11.6,35.7-22.3,51.7c-5.1,8.1-11.5,15.6-18.5,22.5c-3.5,3.5-7.3,6.7-11.4,9.7c-2,1.5-4.1,3-6.3,4.4
					c-2.4,1.4-4.2,2.6-7.7,4.2l-0.7,0.3c-7.1,3.2-15.6,0.1-18.8-7.1c-3.2-7.1-0.1-15.6,7.1-18.8
					C1833.9,2648.1,1834.7,2647.8,1835.4,2647.6z"/>
			</g>
			<g>
				<path class="st3" d="M2038.2,2033.9c-19.5,0.6-38.5,0-57.5-0.9c-19-0.8-37.8-2.4-56.5-3.4c-18.8-1-37.5-2.1-56-2.4
					c-18.5-0.5-36.9-0.5-54.6,0.6l-0.3,0c-8.3,0.5-15.4-5.8-15.9-14.1c-0.5-7.8,5.2-14.6,12.8-15.8c20.1-2.9,39.8-2.6,59.2-1.5
					c19.4,1.2,38.6,3.7,57.6,6.8c19,3.2,37.8,6.8,56.4,11.8C2002,2020.2,2020.4,2025.9,2038.2,2033.9z"/>
			</g>
			<g>
				<path class="st3" d="M2238,3024.3c-138.7,0-256.9-37.5-264.3-40c-8.4-2.7-13-11.7-10.3-20.1c2.7-8.4,11.8-13,20.1-10.3
					c2.6,0.9,266.8,84.6,461.5,0.5c8.1-3.5,17.5,0.2,21,8.3c3.5,8.1-0.2,17.5-8.3,21C2387.5,3014.2,2310,3024.3,2238,3024.3z"/>
			</g>
			<g>
				<path class="st3" d="M2844.8,2995.9c-82,0-146.5-10.1-151.5-10.9c-8.7-1.4-14.7-9.6-13.2-18.3c1.4-8.7,9.6-14.7,18.3-13.3
					c2.3,0.4,229.8,36,371.6-27.7c8.1-3.6,17.5,0,21.1,8c3.6,8.1,0,17.5-8,21.1C3010.8,2987.2,2920.4,2995.9,2844.8,2995.9z"/>
			</g>
			<g>
				
					<ellipse transform="matrix(0.7071 -0.7071 0.7071 0.7071 -907.2892 2749.9563)" class="st4" cx="2865.8" cy="2470.2" rx="70.9" ry="70.9"/>
			</g>
			<g class="st2">
				<path class="st3" d="M2936.8,2470.2c0,39.2-31.7,71-70.9,71s-71-31.8-71-71c0-10.8,2.4-21.1,6.8-30.3
					c11.4,24,35.9,40.6,64.2,40.6c28.3,0,52.8-16.6,64.1-40.6C2934.3,2449,2936.8,2459.3,2936.8,2470.2z"/>
			</g>
			<g>
				<path class="st3" d="M2865.8,2557.1c-47.9,0-86.9-39-86.9-86.9s39-86.9,86.9-86.9s86.9,39,86.9,86.9
					S2913.8,2557.1,2865.8,2557.1z M2865.8,2415.2c-30.3,0-54.9,24.6-54.9,54.9s24.6,54.9,54.9,54.9c30.3,0,54.9-24.6,54.9-54.9
					S2896.1,2415.2,2865.8,2415.2z"/>
			</g>
			<g class="st2">
				<path class="st3" d="M1957.6,2538.8c0.6,8.2,1.4,16.1,2.4,23.9C1959,2554.9,1958.2,2547,1957.6,2538.8z"/>
			</g>
			<g class="st2">
				<path class="st3" d="M1965.6,2599.8C1965.6,2599.8,1965.6,2599.8,1965.6,2599.8c-0.3-1.5-0.6-3-0.8-4.5
					C1965.1,2596.8,1965.3,2598.3,1965.6,2599.8z"/>
			</g>
			<g>
				<path class="st4" d="M2791.9,2646.2l-374.4,22.3c-44.3,2.6-82.8-31.5-85.4-75.8l-11.8-199.2c-2.3-38.8,23.6-73.1,59.8-82.8
					c5.1-1.4,10.5-2.3,16-2.6l374.3-22.3c44.4-2.6,82.8,31.5,85.4,75.8l9.4,157.8l2.5,41.4
					C2870.4,2605.1,2836.2,2643.5,2791.9,2646.2z"/>
			</g>
			<g class="st2">
				<path class="st3" d="M2791.9,2646.2l-374.4,22.3c-44.3,2.6-82.8-31.5-85.4-75.8l-11.8-199.2c-2.3-38.8,23.6-73.1,59.8-82.8
					c22.1,12.9,36.1,21.1,36.1,21.1c27.7,158.8,78,235.9,276.8,227.3c85.8-3.7,139.1-20,172.2-39.6l2.5,41.4
					C2870.4,2605.1,2836.2,2643.5,2791.9,2646.2z"/>
			</g>
			<g>
				<path class="st3" d="M2412.7,2684.6c-50.7,0-93.5-39.7-96.5-91l-11.9-199.3c-1.5-25.7,7.1-50.5,24.3-69.9
					c17.2-19.4,40.8-30.9,66.5-32.4l374.3-22.3c25.7-1.5,50.5,7.1,69.9,24.3c19.4,17.2,30.9,40.8,32.4,66.5l11.9,199.3
					c3.2,53.3-37.6,99.2-90.8,102.3l-374.3,22.3C2416.5,2684.5,2414.6,2684.6,2412.7,2684.6z M2775.3,2301.6c-1.3,0-2.6,0-3.9,0.1
					l-374.3,22.3c-17.2,1-33,8.7-44.5,21.7c-11.5,13-17.3,29.6-16.3,46.8l11.9,199.3c1,17.2,8.7,33,21.7,44.5
					c13,11.5,29.6,17.3,46.8,16.3l374.3-22.3c35.6-2.1,62.9-32.8,60.8-68.5l-11.9-199.3c-1-17.2-8.7-33-21.7-44.5
					C2806.2,2307.3,2791.1,2301.6,2775.3,2301.6z"/>
			</g>
			<g>
				<path class="st4" d="M2806.8,2643.8c-4.8,1.3-9.8,2.1-14.9,2.4l-374.4,22.3c-32.5,1.9-61.8-15.8-76.2-43
					c-5.2-9.9-8.5-21-9.2-32.8l-5.3-88.5l-1.7-29.2l-4.8-81.5c-2.6-44.4,31.5-82.8,75.8-85.4l80.9-4.8c-36.9,9.2-63.3,43.8-61,83
					l6.4,107.6l5.5,91.7c2.6,44.3,41.1,78.5,85.4,75.8L2806.8,2643.8z"/>
			</g>
			<g class="st2">
				<path class="st3" d="M2806.8,2643.8c-4.8,1.3-9.8,2.1-14.9,2.4l-374.4,22.3c-44.3,2.6-82.8-31.5-85.3-75.8l-7-117.7
					c10.7,20.2,29.1,44.8,56.3,45.8c14.9,0.6,28.9-10.9,40.9-26.9l5.5,91.7c2.6,44.3,41.1,78.5,85.4,75.8L2806.8,2643.8z"/>
			</g>
			<g>
				<path class="st3" d="M2412.6,2684.6c-23.6,0-46.1-8.6-64-24.5c-19.4-17.2-30.9-40.8-32.4-66.6l-11.9-199.2
					c-3.2-53.2,37.5-99.1,90.8-102.3l80.9-4.8l4.9,31.5c-30.2,7.6-50.7,35.6-48.9,66.6l11.9,199.2c1,17.2,8.7,33,21.7,44.5
					c13,11.5,29.6,17.3,46.7,16.3l293.6-17.5l5,31.4c-5.9,1.6-12,2.5-18.2,2.8l-374.3,22.3
					C2416.5,2684.5,2414.6,2684.6,2412.6,2684.6z M2419.9,2322.6l-22.8,1.4c-35.7,2.1-62.9,32.9-60.8,68.5l11.9,199.3
					c1,17.2,8.7,33,21.7,44.5c13,11.5,29.6,17.3,46.7,16.3l25.5-1.5c-18-17-28.7-39.8-30.2-64.5l-11.9-199.2
					C2398.6,2363.3,2406.1,2340.5,2419.9,2322.6z"/>
			</g>
			<g>
				<path class="st7" d="M2569.6,2478.7c0.4,7.4-6.8,67.4-6.8,67.4s-18.8,1-42,2.3c-28.9,1.6-54-27.1-55.9-64.1
					c-2-36.9,19.8-68.1,48.8-69.7c19.5-1,42-2.3,42-2.3S2569,2466.7,2569.6,2478.7z"/>
			</g>
			<g class="st2">
				<path class="st3" d="M2569.6,2478.7c0.4,7.4-6.8,67.4-6.8,67.4s-18.8,1-42,2.3c-28.9,1.6-54-27.1-55.9-64.1
					c-2-36.9,19.8-68.1,48.8-69.7c19.5-1,42-2.3,42-2.3S2569,2466.7,2569.6,2478.7z"/>
			</g>
			<g>
				<path class="st3" d="M2518.7,2560.4c-34.3,0-63.4-33.2-65.7-75.5c-2.3-43.5,24.6-80.4,60.1-82.3l51.9-2.8l2.4,9.7
					c2.3,9.3,13.6,56,14.3,68.5v0c0.4,7.8-5.1,55.2-6.8,69.5l-1.2,10l-52.1,2.8C2520.6,2560.4,2519.6,2560.4,2518.7,2560.4z
					 M2546.4,2424.9l-32,1.7c-22.3,1.2-39,26.8-37.4,57.1s21.1,53.9,43.3,52.7l31.9-1.7c3-25.5,5.6-51.2,5.5-55.4
					C2557.3,2472.5,2551.2,2445.4,2546.4,2424.9z"/>
			</g>
			<g>
				
					<ellipse transform="matrix(0.9986 -5.365919e-02 5.365919e-02 0.9986 -129.3478 140.9001)" class="st7" cx="2559.3" cy="2479.3" rx="52.4" ry="67"/>
			</g>
			<g class="st2">
				<path class="st3" d="M2562.8,2546.1c-28.9,1.6-53.9-27.1-55.9-64c-0.4-8.5,0.3-16.7,2.2-24.2c7,29.3,29,50.2,53.7,48.9
					c22.3-1.2,40.4-20,46.6-45.4c1.2,4.8,1.9,9.9,2.2,15.2C2613.6,2513.4,2591.8,2544.5,2562.8,2546.1z"/>
			</g>
			<g class="st6">
				<path class="st4" d="M2610.8,2493.9c-4.9-32.9-28.3-57.4-55.1-55.9c-24.2,1.3-43.5,23.4-47.9,52.3c-0.4-2.6-0.7-5.4-0.8-8.2
					c-2-36.9,19.8-68.1,48.8-69.7c28.9-1.6,54,27.1,55.9,64C2611.9,2482.4,2611.6,2488.3,2610.8,2493.9z"/>
			</g>
			<g>
				<path class="st3" d="M2560.7,2558.2c-34.3,0-63.4-33.2-65.7-75.5c-2.3-43.5,24.6-80.4,60.1-82.3c35.5-1.9,66.2,31.9,68.6,75.4v0
					c2.3,43.5-24.6,80.4-60.1,82.3C2562.6,2558.2,2561.6,2558.2,2560.7,2558.2z M2557.9,2424.3c-0.5,0-1.1,0-1.6,0
					c-22.3,1.2-39,26.8-37.4,57.1c1.6,30.3,21.1,53.9,43.3,52.7c22.3-1.2,39-26.8,37.4-57.1v0
					C2598,2447.6,2579.5,2424.3,2557.9,2424.3z"/>
			</g>
			<g>
				<path class="st3" d="M2675.4,2663.6c-6.4,0-11.8-5.1-12-11.6l-5.2-144.8l61.6-44l-9.7-173.9c-0.4-6.6,4.7-12.3,11.3-12.7
					c6.7-0.4,12.3,4.7,12.7,11.3l10.5,187l-61.8,44.2l4.7,131.9c0.2,6.6-4.9,12.2-11.6,12.4
					C2675.7,2663.6,2675.6,2663.6,2675.4,2663.6z"/>
			</g>
			<g>
				<path class="st4" d="M1952.5,2367.6c0,0-37.9,27.8-35.6,74.7c2.6,54.3,40.5,78.7,40.5,78.7s128.9,87.6,412.5,53.2
					c0,0,66.7-83.9-20.4-139.6C2349.5,2434.6,2092.2,2494.2,1952.5,2367.6z"/>
			</g>
			<g class="st2">
				<path class="st3" d="M2369.9,2574.2c-283.6,34.3-412.5-53.2-412.5-53.2s-37.9-24.5-40.5-78.7c-0.1-2.4-0.1-4.7,0-7
					c12.1,25.1,30.1,36.8,30.1,36.8s116.6,79.2,371.8,57.4c33.1-2.8,60.5-27.9,64.5-60.9c0-0.3,0.1-0.6,0.1-1
					C2414.3,2518.5,2369.9,2574.2,2369.9,2574.2z"/>
			</g>
			<g>
				<path class="st3" d="M2242.1,2598.3c-196.7,0-289.1-60.9-293.7-64c-1.5-1-44.5-29.5-47.5-91.2c-2.7-54.9,40.3-87,42.2-88.4
					l10.5-7.7l9.7,8.8c131.9,119.6,380.1,63.9,382.6,63.3l6.6-1.5l5.7,3.6c29.2,18.6,46.3,42.3,51,70.4
					c8.1,48.4-25.2,90.9-26.6,92.7l-4.1,5.1l-6.5,0.8C2324.4,2595.9,2281.2,2598.3,2242.1,2598.3z M1953,2389
					c-9,9.9-21.3,28.1-20.1,52.5c2.2,44.8,32,65.3,33.3,66.1c1.4,0.9,126.6,82.3,394.7,51.6c6.9-10.6,21-36.3,16.5-62.6
					c-2.9-17-13.4-32.1-31.3-44.9C2303.9,2460.3,2087.1,2497.7,1953,2389z"/>
			</g>
			<g>
				<path class="st3" d="M2479,2779.8c4.9,10.1,8,20.7,10.5,31.5c2.3,10.8,3.9,21.8,4.4,32.8c0.5,11,0.7,22.2-0.8,33.2
					c-1.3,11-3.8,21.9-7.9,32.2c-3.1,7.7-11.9,11.5-19.7,8.4c-6.2-2.5-9.8-8.6-9.4-14.9l0.1-1c0.3-5.1,1.3-10,2.1-15
					c0.7-5,1.9-9.8,2.7-14.8c2-9.8,4.1-19.7,6-29.7c3.6-20,6.3-40.6,7.9-61.8l0-0.1c0.1-1.2,1.1-2.1,2.4-2
					C2478,2778.6,2478.7,2779.1,2479,2779.8z"/>
			</g>
			<g class="st8">
				<path class="st9" d="M2106.9,2444.4"/>
			</g>
			<g class="st2">
				<path class="st3" d="M2263,2632.1c-0.6,1.2-1.3,2.3-2,3.4c-2.1-0.5-3.2-0.8-3.2-0.8C2259.6,2634,2261.3,2633.1,2263,2632.1z"/>
			</g>
			<g>
				<path class="st4" d="M2328.2,2095c388.2,190.5,713-46.3,803.7,34.3c34.3,30.5,48.8,94.6,38,192.2
					c-23.3,210.7-746.5,210-884.9,63.5"/>
			</g>
			<g class="st2">
				<path class="st3" d="M3169.9,2321.5c-23.3,210.7-739.5,213.1-878,66.6l0,0c4-14.1,20.4-20.9,33-13.3
					c193.5,116,823.1,64.4,845-133c0.6-5.8,1.2-11.5,1.7-17C3174.5,2252.3,3174,2284.5,3169.9,2321.5z"/>
			</g>
			<g>
				<path class="st3" d="M2330.5,2090.2c20.4,5.1,39.9,11.3,59.5,17.1c19.5,5.8,38.9,11.8,58.4,17.1c39,10.6,78.5,19.3,118.7,24.8
					c80.4,10.9,162.3,5.9,243-6.7c40.4-6.3,80.6-14.8,121-23.6c20.2-4.4,40.5-8.9,61.1-12.9c20.6-4,41.5-7.7,63.3-9.3
					c10.9-0.8,22.1-1.1,33.6,0c11.5,1.1,23.6,3.5,35.3,8.9c5.8,2.9,11.5,6.2,16.6,10.6c4.8,4.2,9.1,8.5,12.9,13.3
					c7.6,9.4,13.7,19.7,18.2,30.3c9,21.3,13.3,43.2,15.6,64.9c2.1,21.7,2.2,43.2,1,64.5l-1.1,15.9l-1.5,15.8
					c-0.2,2.5-0.8,5.7-1.2,8.7c-0.5,3-1,6-1.9,8.9c-0.8,2.9-1.5,5.9-2.6,8.7l-3.3,8.4c-4.9,11-11.4,21-18.7,30
					c-7.5,8.8-15.7,16.8-24.4,23.9c-17.5,14.1-36.6,25-56.2,34.3c-19.6,9.2-39.7,16.7-60,23c-40.6,12.7-82.1,21-123.7,27
					c-41.6,6-83.4,9.5-125.3,11.2c-83.7,3.1-167.7-0.8-250.8-13.6c-20.8-3.3-41.5-7.2-62.1-11.8c-20.6-4.7-41.2-9.5-61.7-15.8
					c-20.4-6.4-40.4-14.7-59.2-25.9c-9.4-5.6-18.3-12.2-26.4-19.7c-8-7.7-15.5-16.2-20.7-26.2c-1.4-2.7-0.4-6.1,2.3-7.5
					c1.7-0.9,3.6-0.8,5.2,0l0.2,0.1c9.1,4.9,17.8,9.5,26.7,13.7c9,4,17.8,8.1,27,11.9c18,7.8,36.8,14.5,55.6,21.1
					c18.9,6.6,38.3,12.6,58.1,17c19.8,4.5,39.8,8.3,59.9,11.4c80.6,12.5,162.8,16.3,244.5,13.3c40.9-1.6,81.6-5,122-10.9
					c40.3-5.8,80.3-13.9,118.7-25.9c19.2-6,38-13,55.9-21.4c17.8-8.5,34.9-18.3,49.6-30.2c7.4-5.9,14-12.5,19.9-19.4
					c5.7-7.1,10.5-14.6,14-22.5l2.3-6c0.8-2,1.2-4.1,1.8-6.2c0.7-2,1-4.2,1.3-6.3c0.3-2.2,0.8-4,1-6.7l1.5-15.1l1-15
					c1.1-20,1-40-0.9-59.6c-2-19.4-6-38.5-13.2-55.4c-3.5-8.5-8.2-16.1-13.6-22.8c-2.6-3.4-5.8-6.4-8.7-9c-2.8-2.5-6.1-4.3-9.5-6.1
					c-14.4-6.6-33.7-7.4-53.1-5.9c-19.5,1.5-39.5,5-59.5,8.8c-20,3.9-40.2,8.4-60.4,12.8c-40.5,8.8-81.4,17.4-122.8,23.9
					c-41.4,6.5-83.3,11-125.4,12.5c-42.1,1.4-84.5,0-126.5-4.6c-42.1-4.4-84-12.5-124.2-25.8c-40.3-12.9-79.2-30.8-113-56.5
					c-2.4-1.8-2.9-5.2-1.1-7.6c1.4-1.8,3.6-2.5,5.6-2L2330.5,2090.2z"/>
			</g>
			<g>
				<path class="st3" d="M2688.2,2505.8c-5.7,0-11.1-3-14.1-8.3c-69.5-127.2,4.2-324.4,7.4-332.7c3.1-8.3,12.4-12.4,20.6-9.3
					c8.3,3.1,12.4,12.4,9.3,20.6c-0.7,1.9-71.6,191.8-9.2,306c4.2,7.8,1.4,17.5-6.4,21.7C2693.4,2505.1,2690.8,2505.8,2688.2,2505.8
					z"/>
			</g>
			<g>
				<path class="st10" d="M1476.2,1973.1c-1,10.5-2.6,20.9-4.8,31.1c-3.1,14.4-7.5,28.5-13,42.1c-23.9,59-69.7,109.3-132.3,137.7
					c-62.8,28.4-130.9,29.5-191.1,8.3c-13.2-4.7-26.1-10.4-38.4-17.1c-9.7-5.3-19-11.2-27.9-17.7c63-15.9,135.9-41.4,211.2-75.5
					C1355.4,2047.7,1422.7,2009.9,1476.2,1973.1z"/>
			</g>
			<g>
				<path class="st11" d="M1280,2081.8c75.4-34.1,142.7-71.9,196.2-108.8c-1,10.5-2.6,20.9-4.8,31.1
					c-41.2,29.9-107,66.9-183.6,101.5c-73.4,33.2-141.8,57.6-191.1,69.4c-9.7-5.3-19-11.2-27.9-17.7
					C1131.8,2141.5,1204.6,2115.9,1280,2081.8z"/>
			</g>
			<g>
				<path class="st10" d="M1465.8,1873.9c-41.8,33.8-124.4,81.1-223,125.7c-98.6,44.6-188.7,75.4-241.7,84.4
					c-5.5-9-10.5-18.5-15-28.3c-0.2-0.5-0.4-0.9-0.6-1.4c-1.9-4.4-3.8-8.7-5.4-13.1c-3.9-10.3-7.2-20.7-9.7-31.2
					c-0.1-0.4-0.2-0.8-0.3-1.3c-3.7-15.6-5.9-31.3-6.6-46.9c-1.4-29.8,2.5-59.3,11.1-87.3c3-9.6,6.5-19.1,10.6-28.3
					c4.7-10.7,10.2-21.2,16.4-31.2c5.3-8.6,11.1-16.9,17.4-24.9c0,0,0,0,0,0c2.5-3.1,5-6.2,7.7-9.2c23.5-26.9,53-49.4,87.7-65.1
					c4.8-2.2,9.7-4.2,14.5-6.1c65.3-24.9,135.3-21.4,195.3,5.2c0.4,0.2,0.8,0.3,1.1,0.5c5.6,2.5,11.2,5.3,16.6,8.2
					c19.7,10.6,38.2,23.8,54.7,39.4c10.3,9.7,19.9,20.4,28.6,32c0.9,1.2,1.9,2.5,2.8,3.8c0.8,1,1.5,2.1,2.3,3.2
					c6.2,8.8,11.9,18.1,17,27.9c1.9,3.6,3.8,7.3,5.5,11c0.5,1,1,2.1,1.4,3.1C1458.9,1853.8,1462.7,1863.8,1465.8,1873.9z"/>
			</g>
			<g>
				<path class="st11" d="M1453,1840.8c0.5,1,1,2,1.4,3.1c4.5,9.9,8.3,19.9,11.4,30c-41.8,33.8-124.4,81.1-223,125.7
					c-98.6,44.6-188.7,75.4-241.7,84.4c-5.5-9-10.5-18.5-15-28.3c-0.2-0.5-0.4-0.9-0.6-1.4c50.2-5.6,141.9-35.3,242.4-80.8
					C1332.5,1926.2,1418,1874.9,1453,1840.8z"/>
			</g>
			<g>
				<g>
					<path class="st11" d="M967,1967.7c-1.3,0-2.6,0-3.8-0.1l0.6-11.8c35.5,1.8,127.5-27.4,224-71c101.7-46,187.4-98.5,203.9-125
						l10,6.2c-17.8,28.7-103.8,81.9-209,129.5C1096.3,1939.1,1006.8,1967.7,967,1967.7z"/>
				</g>
			</g>
			<g>
				<g>
					<path class="st11" d="M975.5,1880.2l-1.7-11.7c39.6-5.9,108.2-29.4,179-61.4c74.2-33.5,138.4-70.6,167.6-96.7l7.9,8.8
						c-30.1,26.8-95.4,64.6-170.6,98.6C1085.9,1850.3,1016.2,1874.1,975.5,1880.2z"/>
				</g>
			</g>
			<g>
				<g>
					<path class="st11" d="M970.5,2014.5c-0.1,0-0.3,0-0.4,0l0.1-11.8c0.1,0,0.3,0,0.4,0c40.8,0,135.6-30.5,236.3-76.1
						c106-47.9,195.1-102,216.6-131.5l9.5,7c-23,31.4-111.9,85.8-221.3,135.3C1109.6,1983.6,1012.8,2014.5,970.5,2014.5z"/>
				</g>
			</g>
			<g>
				<g>
					<path class="st11" d="M1135.3,2195.1l-0.2-2.9l-1.3-2.6l0.5-0.3l0.6,0c34.9-2.5,101.3-24,169.3-54.7
						c68.3-30.9,126.6-65.5,152.3-90.4l4.1,4.2c-26.1,25.3-85.1,60.4-153.9,91.6C1237,2171.3,1171.4,2192.5,1135.3,2195.1z"/>
				</g>
			</g>
			<g>
				<path class="st3" d="M1220.5,2220.2c-56.5,0-112.6-17.6-159.7-51.9l-23.5-17.1l28.2-7.1c64.5-16.2,136.8-42.1,209-74.7
					c72.2-32.6,139.3-69.8,194.1-107.6l23.9-16.5l-2.7,28.9c-8.9,96.9-69.4,181.9-158,222
					C1296.3,2212.3,1258.3,2220.2,1220.5,2220.2z M1102.1,2162.5c66.8,37,148,40.9,218.5,9c70.5-31.9,121.2-95.4,137.5-170
					c-50.8,32.6-109.8,64.4-172.5,92.8C1222.9,2122.6,1160.1,2145.9,1102.1,2162.5z"/>
			</g>
			<g>
				<path class="st12" d="M1602.2,1817c15.5,34.3-35.6,93.8-126,156.1c-53.5,36.9-120.8,74.7-196.2,108.8
					c-75.4,34.1-148.2,59.7-211.2,75.5c-106.4,26.8-184.9,25.8-200.4-8.4c-14.1-31.1,26.8-83.1,102.1-139
					c2.5,10.5,5.8,20.9,9.7,31.2c-20.8,17-31.1,30.5-27.5,38.4c3.6,8,21.1,9.1,48.5,4.5c53-9.1,143-39.8,241.7-84.4
					c98.6-44.6,181.2-91.9,223-125.7c21.6-17.5,32.3-31.4,28.7-39.4c-3.6-7.9-20.5-9.1-47-4.7c-5.1-9.8-10.8-19.1-17-27.9
					C1522.2,1782.2,1588.2,1785.8,1602.2,1817z"/>
			</g>
			<g>
				<g>
					<path class="st13" d="M964.6,2110.9c-21.6,0-34.8-4.9-39.2-14.8c-7-15.4,9.2-38.9,48-69.7l5.5,6.9
						c-33.3,26.4-50.2,48.5-45.4,59.1c2,4.5,10.5,11.7,44.3,9c26.2-2.1,62.2-9.8,103.9-22.4c51.4-15.6,109.5-37.8,168.1-64.3
						c58.6-26.5,113.6-55.5,159.2-83.8c37-23,66.6-44.9,85.5-63.2c24.3-23.6,24.5-34.7,22.5-39.2c-4.8-10.6-32.6-12.5-74.4-4.9
						l-1.6-8.7c48.8-8.8,77-5.5,84,10c5.3,11.8-2.9,28.3-24.4,49.2c-19.3,18.8-49.4,41-87,64.4c-45.9,28.5-101.4,57.7-160.3,84.3
						c-58.9,26.6-117.4,49-169.2,64.7c-42.3,12.8-78.9,20.7-105.8,22.8C973.5,2110.7,968.9,2110.9,964.6,2110.9z"/>
				</g>
			</g>
			<g>
				<g>
					<path class="st13" d="M950.3,2145.6c-27.7,0-50.3-5.6-57.7-21.9c-7.6-16.7-0.2-49,77.6-108l5.3,7
						c-55.5,42.1-83.5,78.4-74.9,97.3c5.2,11.4,23.7,17.2,53.5,16.7c30.4-0.5,71.6-7.7,119.1-20.8c58.5-16.1,124.4-40.4,190.4-70.2
						c66-29.9,127.7-63.3,178.5-96.6c41.2-27.1,73.8-53.3,94.3-75.8c20.1-22.1,28-39.8,22.8-51.2c-8.5-18.9-54.4-21.9-122.6-8
						l-1.8-8.7c95.7-19.5,124.8-3.6,132.4,13.1c18.6,41.1-77.9,110.2-120.3,138c-51.1,33.6-113.2,67.2-179.7,97.3
						c-66.4,30-132.7,54.5-191.7,70.7C1046.2,2132.6,992.4,2145.6,950.3,2145.6z"/>
				</g>
			</g>
			<g>
				<path class="st3" d="M942.6,2189.8c-40.3,0-74.6-8.8-86.6-35.3c-21.4-47.4,46-110.7,106.4-155.5l16.5-12.2l4.8,20
					c2.4,10,5.5,19.9,9.2,29.6l3.5,9.2l-7.6,6.2c-13,10.6-18.7,17.4-21.3,21.2c4.6,0.6,13.9,0.8,31.4-2.2
					c53.5-9.1,144.8-41.1,238.3-83.4c93.5-42.3,177.8-89.8,220-123.9c13.7-11.1,19.8-18.2,22.4-22.1c-4.6-0.6-13.5-0.8-29.9,2
					l-9.7,1.6l-4.6-8.7c-4.8-9.1-10.2-18-16.1-26.4l-11.8-16.8l20.1-4.3c73.5-15.7,165.6-24.5,187,22.8
					c24.9,55-71.2,131.9-130.7,172.9c-56.1,38.6-124.7,76.6-198.3,110c-73.6,33.3-147.5,59.7-213.5,76.3
					C1035.8,2179.7,985.8,2189.8,942.6,2189.8z M962.8,2032.8c-71.5,56.2-89.3,94.3-82,110.4c9.6,21.1,70.4,29.6,184.7,0.9
					c64.5-16.2,136.8-42.1,209-74.7c72.2-32.6,139.3-69.8,194.1-107.6c97.1-66.9,130.9-118.1,121.3-139.3l0,0
					c-7.3-16.1-47.7-27.9-137.1-11.3c0.7,1.2,1.4,2.4,2.1,3.6c21.8-2.8,44.6-2.4,52,13.9c8.6,19-12.9,39.7-32.5,55.6
					c-44.6,36-129,83.7-225.9,127.5c-96.9,43.8-188.5,75.8-245,85.4c-24.9,4.3-54.6,6.7-63.2-12.3c-7.4-16.3,7.4-33.8,23.9-48.3
					C963.7,2035.5,963.2,2034.2,962.8,2032.8z"/>
			</g>
			<g class="st14">
				<g>
					<path class="st4" d="M1465.8,1873.8c-4.9,3.9-10.3,8-16.2,12.3c-2.4-6.8-5.1-13.5-8.1-20.1c-0.5-1-1-2.1-1.4-3.1
						c-1.7-3.8-3.6-7.4-5.5-11.1c-5.1-9.8-10.8-19.1-17-27.9c-0.7-1.1-1.5-2.1-2.3-3.2c-9.4-13-20-25-31.4-35.8
						c-21.4-20.2-46-36.4-72.5-48.1c-64.5-28.5-140.5-30.5-209.9,0.8c-46.3,20.9-83.4,53.9-109.2,93.6
						c25.6-49.5,67.5-91,122.2-115.7c69.4-31.4,145.3-29.4,209.9-0.8c26.5,11.7,51.1,27.9,72.5,48.1c11.4,10.8,22,22.7,31.4,35.8
						c0.8,1,1.5,2.1,2.3,3.2c6.2,8.8,11.9,18.1,17,27.9c1.9,3.6,3.7,7.3,5.5,11.1c0.5,1,1,2,1.4,3.1
						C1458.9,1853.8,1462.7,1863.8,1465.8,1873.8z"/>
				</g>
			</g>
			<g>
				<path class="st3" d="M994.4,2098.9l-4.8-7.9c-5.8-9.5-11.1-19.5-15.8-29.8c-2.3-5-4.4-10.2-6.4-15.3
					c-4.1-10.7-7.5-21.7-10.2-32.9c-30.5-126,33.3-256.3,151.6-309.8c118.3-53.5,258.3-15.3,332.8,90.8c6.6,9.4,12.6,19.3,17.9,29.4
					c2.5,4.8,5,9.8,7.3,14.9v0c4.6,10.3,8.7,20.9,12,31.5l2.7,8.8l-7.2,5.8c-44.5,36-129,83.7-225.9,127.5
					c-96.9,43.8-188.5,75.8-245,85.4L994.4,2098.9z M1220.2,1706.4c-33.7,0-67.8,7-100.2,21.6c-106.4,48.1-163.8,165.3-136.4,278.7
					c2.4,10,5.5,19.9,9.2,29.6c1.8,4.6,3.7,9.3,5.7,13.8c2.9,6.4,6.1,12.7,9.5,18.8c54.4-11,140.8-41.7,229.1-81.7
					c88.3-40,168.5-84.5,212.7-118.1c-2.3-6.6-5-13.1-7.9-19.5v0c-2.1-4.5-4.3-9.1-6.6-13.4c-4.8-9.1-10.2-18-16.1-26.4
					C1372.7,1743.2,1297.5,1706.4,1220.2,1706.4z"/>
			</g>
			<g class="st2">
				<g>
					<path class="st3" d="M1600.2,1851.3c-14.2,33.6-58.9,77-123.9,121.8c-53.5,36.9-120.8,74.7-196.2,108.8
						c-75.4,34.1-148.2,59.7-211.2,75.5c-106.4,26.8-184.9,25.8-200.4-8.5c-9.4-20.8,5.7-50.9,39.3-85.3
						c-5.5,13.1-6.4,24.7-2.1,34.3c15.5,34.3,94,35.2,200.4,8.5c63-15.8,135.9-41.4,211.2-75.5c75.4-34.1,142.7-71.9,196.2-108.8
						C1549,1897.6,1578.4,1873.6,1600.2,1851.3z"/>
				</g>
			</g>
			<g>
				<path class="st11" d="M878.5,1789.9c-0.3,0.6-0.5,1.3-0.7,2L878.5,1789.9z"/>
			</g>
			<g>
				<path class="st4" d="M1198.5,1807"/>
			</g>
			<g class="st2">
				<path class="st3" d="M1465.8,1873.9c-95.2,78.4-367.2,196.2-464.6,210.1c-55.8-88.3-49-211.7,17.9-294c0,0,0,0,0,0
					c11-14.1,27.2-30.5,43.2-42.9c-1.4,1.7-2.9,3.5-4.2,5.2c0,0,0,0,0,0c-14.6,18-26.3,37.9-35.2,59.1
					c-47.9,114.1,66.6,229.2,181.5,183.2c96.8-38.8,203.4-91.1,258.9-128.8C1464.1,1868.5,1465,1871.2,1465.8,1873.9z"/>
			</g>
			<g>
				<path class="st5" d="M3161.3,2477.5l-47.2,7.4c-19.1,3-37.2-10.2-40.2-29.3l-0.5-2.9c-3-19.1,10.2-37.2,29.3-40.2l47.2-7.4
					c19.1-3,37.2,10.2,40.2,29.3l0.5,2.9C3193.5,2456.4,3180.4,2474.5,3161.3,2477.5z"/>
			</g>
			<g class="st2">
				<path class="st3" d="M3161.3,2477.5l-47.2,7.4c-19.1,3-37.2-10.2-40.2-29.2l-0.5-2.9c-0.9-5.6-0.4-11,1.3-16.1
					c7.5,10.5,20.5,16.4,34,14.3l47.2-7.4c13.5-2.2,24.1-11.8,28-24.1c3.1,4.3,5.3,9.4,6.2,14.9l0.5,2.9
					C3193.5,2456.4,3180.4,2474.5,3161.3,2477.5z"/>
			</g>
			<g>
				<path class="st3" d="M3108.5,2501.4c-24.7,0-46.5-18-50.5-43.2l-0.5-2.9c-2.1-13.5,1.1-27,9.2-38s19.9-18.3,33.4-20.5l47.2-7.4
					c27.9-4.4,54.1,14.7,58.5,42.6l0.5,2.9c4.4,27.9-14.7,54.1-42.6,58.5l-47.2,7.4C3113.8,2501.2,3111.1,2501.4,3108.5,2501.4z
					 M3155.3,2420.7c-1,0-2,0.1-3,0.2l-47.2,7.4c-10.4,1.6-17.6,11.5-16,21.9l0.5,2.9c1.6,10.4,11.5,17.6,21.9,15.9l47.2-7.4
					c5-0.8,9.5-3.5,12.5-7.7c3-4.2,4.3-9.2,3.5-14.2l-0.5-2.9C3172.8,2427.5,3164.6,2420.7,3155.3,2420.7z"/>
			</g>
			<g>
				<path class="st4" d="M2947.7,2011.6c0,0-33.1,11.5-54.3-22.2c-19.1-30.3-46.8-92.8-18.2-137.9c20-31.6,91.6-30.1,91.6-30.1
					L2947.7,2011.6z"/>
			</g>
			<g>
				<path class="st4" d="M2972.4,1826.6l-1,10.3l-19.4,193c0,0-5,1.7-12.4,2c-12.4,0.4-31.5-3.2-45.6-25.7
					c-20.4-32.4-50.1-99.1-19.5-147.3C2896,1825,2972.4,1826.6,2972.4,1826.6z"/>
			</g>
			<g class="st2">
				<path class="st3" d="M2971.4,1836.9l-19.4,193c0,0-5,1.7-12.4,2c-5.6-3.9-11.2-9.4-16.1-17.3c-20.4-32.4-50.1-99.1-19.4-147.3
					C2916.5,1847.5,2947.6,1839.8,2971.4,1836.9z"/>
			</g>
			<g>
				<path class="st3" d="M2938.2,2047.9c-18.1,0-41.3-7.2-57.7-33.3c-14.4-23-58.5-102.8-19.4-164.4c25.5-40.2,103-39.8,111.7-39.6
					l17.3,0.4l-23.1,230.7l-9.7,3.4C2952.4,2046.6,2945.8,2047.9,2938.2,2047.9z M2952,2029.8L2952,2029.8L2952,2029.8z
					 M2954.7,1843.1c-25.5,2-57,9-66.6,24.2c-29.8,47,11,116.7,19.5,130.2c9.5,15.1,21.6,18.3,29.8,18.4L2954.7,1843.1z"/>
			</g>
			<g>
				<path class="st4" d="M3102.8,1783.9c-29.9-38.9-175.4,6.4-184.3,78.5c-8.9,72.1,21.5,202.6,54.2,235.7
					c39.7,40.2,163.8,29.9,184.6-9.1S3178.7,1882.7,3102.8,1783.9z"/>
			</g>
			<g class="st2">
				<path class="st3" d="M3169.3,2012c-0.2,35.4-4.9,63.6-12,76.9c-20.8,39-144.8,49.4-184.6,9.2c-32.7-33.1-63.1-163.6-54.2-235.7
					c1.2-9.6,4.8-18.8,10.3-27.3c4.1,71.5,28.9,161,55.2,187.6c39.8,40.2,163.8,29.9,184.6-9.2
					C3168.8,2013,3169.1,2012.6,3169.3,2012z"/>
			</g>
			<g>
				<path class="st3" d="M3058.4,2139.7c-37.1,0-75.8-8.7-97.1-30.3c-36.4-36.8-68.2-171.7-58.7-248.9
					c6.1-49.4,61.6-85.9,113.9-100.2c45.7-12.5,82.6-7.3,98.9,13.9l0,0c80.9,105.2,78.6,279.8,55.9,322.3
					c-15.2,28.6-60.5,38-79.3,40.8C3081.4,2138.8,3070,2139.7,3058.4,2139.7z M3061.8,1785.7c-10.3,0-22.8,1.6-36.9,5.5
					c-41.9,11.5-86.5,40.3-90.6,73.2c-8.7,71,22.6,195.1,49.7,222.5c16.9,17.1,60.4,25,103.4,18.7c32.1-4.7,51.1-15.5,55.7-24.1
					c17.2-32.2,19.6-193.3-53.1-287.8l0,0C3086.4,1788.9,3076.3,1785.7,3061.8,1785.7z"/>
			</g>
			<g>
				<g>
					<path class="st4" d="M1921.1,1757.8c444.3,690.9,1425.7,108.3,1071.9-599.3C2554.9,440.4,1541.1,1043.7,1921.1,1757.8z"/>
				</g>
				<g>
					<path class="st4" d="M1921.1,1757.8c444.3,690.9,1425.7,108.3,1071.9-599.3C2554.9,440.4,1541.1,1043.7,1921.1,1757.8z"/>
				</g>
				<g class="st2">
					<path class="st3" d="M2879.8,1972.8c-10.9,8.6-22,16.8-33.4,24.7c-26.3,18.2-53.9,34.5-82.6,48.6
						c-197,97.3-442.8,94.6-642-66.7c25.5-46.9,54.6-96.8,87.8-150.2l554.2,65.8v-136.4C2763.7,1758.8,2898.7,1957.8,2879.8,1972.8z
						"/>
				</g>
				<g>
					<path class="st4" d="M1921.1,1757.8c444.3,690.9,1425.7,108.3,1071.9-599.3C2554.9,440.4,1541.1,1043.7,1921.1,1757.8z"/>
				</g>
				<g>
					<path class="st3" d="M2445.1,2079c-41.4,0-82.7-4.3-123.3-13c-164-35.1-305.9-139.6-410.3-302l-0.5-0.8
						c-90.1-169.3-109-344.4-54.7-506.4c48.5-144.5,151.8-267.8,290.9-347.2c138.8-79.2,296.5-104.7,444-71.7
						c166.3,37.2,308.6,146,411.4,314.6l0.5,0.8c84,168,99.3,340.8,44.3,499.7c-49.2,142.1-151.6,263.2-288.2,341
						C2660.9,2050.1,2552.6,2079,2445.1,2079z M1931,1752c223.7,347.5,571.5,362,817,222.2c239.9-136.6,415.7-448.3,235-810.2
						c-219.4-359.2-581.1-373.4-824.4-234.6C1912.8,1069.6,1736.9,1386.8,1931,1752z"/>
				</g>
				<g class="st2">
					<path class="st3" d="M1921.1,1757.8c373.4,603.5,1253.7,245.9,1134.6-425.7c-33.1,220-108.3,231.3-219.8,346.6
						c-341.2,377.4-905.7,128.1-991.1-311.1C1825.8,1504.5,1854.3,1641.6,1921.1,1757.8z"/>
				</g>
				<g>
					<path class="st15" d="M2445.1,2083.6c-41.8,0-83.4-4.3-124.3-13.1c-165.2-35.4-308.1-140.5-413.2-304l-0.7-1.1
						c-90.7-170.5-109.7-346.8-55-510c48.8-145.6,152.9-269.8,293-349.7c139.8-79.8,298.7-105.4,447.3-72.2
						c167.6,37.5,310.8,147,414.4,316.7l0.7,1.2c84.6,169.1,100,343.2,44.6,503.2c-49.6,143.2-152.7,265.1-290.3,343.5
						C2662.5,2054.5,2553.4,2083.6,2445.1,2083.6z M1934.9,1749.7c222.1,344.8,567.2,359.2,810.8,220.5
						c238-135.5,412.5-444.9,233.2-804c-217.8-356.3-576.7-370.5-818.1-232.8C1917,1072.5,1742.4,1387.2,1934.9,1749.7z"/>
				</g>
				<g>
					<path class="st3" d="M2445.1,2083.6c-41.8,0-83.4-4.3-124.3-13.1c-165.2-35.4-308.1-140.5-413.2-304l-0.7-1.1
						c-90.7-170.5-109.7-346.8-55-510c48.8-145.6,152.9-269.8,293-349.7c139.8-79.8,298.7-105.4,447.3-72.2
						c167.6,37.5,310.8,147,414.4,316.7l0.7,1.2c84.6,169.1,100,343.2,44.6,503.2c-49.6,143.2-152.7,265.1-290.3,343.5
						C2662.5,2054.5,2553.4,2083.6,2445.1,2083.6z M1934.9,1749.7c222.1,344.8,567.2,359.2,810.8,220.5
						c238-135.5,412.5-444.9,233.2-804c-217.8-356.3-576.7-370.5-818.1-232.8C1917,1072.5,1742.4,1387.2,1934.9,1749.7z"/>
				</g>
				<g>
					<path class="st3" d="M2016.4,1883.1c612.9,380.2,1156.2-332.8,694.4-763.6C2164.3,668.4,1524.8,1338.4,2016.4,1883.1z"/>
				</g>
				<g class="st16">
					<path class="st17" d="M1859.8,1452.3c-17.2,651.7,913.7,726.6,1027.1,133.4C2580.6,1929.9,2027.5,1771.6,1859.8,1452.3z"/>
				</g>
				<g>
					<path class="st3" d="M2392.2,2066.5c-47.6,0-94.9-6.5-140.5-19.5c-137.5-39.3-256.5-136.4-344.3-280.9l-0.1-0.1
						c-73.9-123.8-100.3-281.8-72.4-433.5c29.6-160.6,115.7-296.8,242.6-383.6l2.4-1.3c150.8-69.2,331.8-70.1,496.7-2.5
						c164.3,67.4,291.9,194.3,350.2,348.2c52.6,150.4,47,301.5-16.1,437.2c-57.2,123-157.4,223.2-282.2,282.1
						C2552.8,2048.4,2472,2066.5,2392.2,2066.5z M1934.8,1749.5c193.5,318.4,487.2,325.2,680,234.1
						c221.6-104.6,389.5-371.6,281.9-679.4c-55-145.3-176.2-265.5-332.3-329.6c-156.2-64.1-327.4-63.6-469.9,1.4
						C1830.9,1157.5,1799.1,1522.1,1934.8,1749.5z"/>
				</g>
				<g>
					<path class="st3" d="M2366.3,2007c-118.6,0-240.8-37.4-358.4-110.3l-1.9-1.2l-1.5-1.7c-118-130.8-180.2-278.5-179.9-427
						c0.3-133,51.1-259,142.9-355c89.7-93.8,209.7-149.2,337.9-156c142.6-7.6,286.3,44.7,415.6,151.4l0.7,0.6
						c107.7,100.5,168.9,222.7,177,353.6c7.3,118.4-30,237.7-105,335.8c-81.2,106.2-198.5,177.7-330.1,201.3
						C2431.6,2004.1,2399.1,2007,2366.3,2007z M2026.7,1870.7c314.7,194.1,599.1,93.3,741.6-93c129.4-169.1,158.5-434.5-68-646.1
						c-273.1-225.2-553.2-161.1-709.6,2.4C1835.1,1296.5,1780.3,1596.1,2026.7,1870.7z"/>
				</g>
				<g>
					<path class="st4" d="M3146.6,1592.9c-45.6,286.1-336.1,264.4-320.1-13C2863.2,1278.3,3173.8,1301.4,3146.6,1592.9z"/>
				</g>
				<g class="st2">
					<path class="st3" d="M2960.3,1798.5c-87.1-5.8-149.2-113-132.3-233.1c53.3,126.7,188.3-79.6,198.3-139.1
						C3249.6,1485.5,3120.1,1812.6,2960.3,1798.5z"/>
				</g>
				<g>
					<path class="st3" d="M2970.2,1813.9c-5,0-9.9-0.3-14.8-0.8c-78.4-8.5-153.6-84.2-144.9-234.1l0.1-1
						c19.9-163.1,119.6-238.9,207.9-229.4c79.6,8.6,158.7,89.1,144,245.8l-0.1,1C3138.1,1747.9,3048.6,1813.9,2970.2,1813.9z
						 M2842.4,1581.3c-7.2,128.6,53.2,193.1,116.5,200c66.9,7.3,149.2-49.3,171.8-190.4c12.4-134.7-51.2-203.6-115.6-210.5
						C2942.4,1372.6,2859.9,1439.1,2842.4,1581.3z M3146.6,1592.9L3146.6,1592.9L3146.6,1592.9z"/>
				</g>
				<g>
					<path class="st4" d="M3157.6,1609c-37.2,231.8-255.1,219.3-242.2-5.2C2944.4,1356.6,3181.2,1370.4,3157.6,1609z"/>
				</g>
				<g>
					<path class="st3" d="M3020.9,1793.5c-3.7,0-7.3-0.2-10.9-0.6c-60.1-6.5-117.6-67.8-110.6-190l0.1-0.9
						c16-136.8,94.8-200.7,164.4-193.2c61.8,6.7,122.4,72.7,109.6,201.8l-0.1,1C3153.1,1738.5,3082.2,1793.5,3020.9,1793.5z
						 M2931.4,1605.2c-5.7,100.9,37.1,151,82.1,155.9c49,5.3,109.9-40.7,128.3-154.2c10.4-107.1-34.8-161.3-81.3-166.4
						C3006.7,1434.8,2945.1,1489.5,2931.4,1605.2z M3157.6,1609L3157.6,1609L3157.6,1609z"/>
				</g>
				<g class="st6">
					<path class="st4" d="M2772,1454.3c-34.4,117-167.9,80-155.3-26.1C2640.2,1295.2,2798.4,1336.3,2772,1454.3z"/>
				</g>
				<g class="st6">
					<path class="st4" d="M2698.8,1637.8c-15.7,44-74.5,28.9-61.8-20.4C2652.7,1573.4,2711.4,1588.5,2698.8,1637.8z"/>
				</g>
				<g class="st6">
					<path class="st4" d="M1923.2,1499.3c-76.3-459.7,400.1-517.9,544.2-419.9C2162.1,1099.4,2026.4,1287.5,1923.2,1499.3z"/>
				</g>
				<g class="st2">
					<path class="st3" d="M2903.5,1656.4c-4.1-32.8,0.8-66.8,12.5-97.8c40.8,157,198.9,88.4,235.9-24.1
						C3185.9,1766.7,2949.7,1874.3,2903.5,1656.4z"/>
				</g>
				<g>
					<path class="st3" d="M2843.7,1406.5c-5.5,0-10.1-1.4-13.8-3.2c-23.9-11.8-25.6-50.3-25.6-61.8c0-8.8,7.2-16,16-16c0,0,0,0,0,0
						c8.8,0,16,7.2,16,16l0,0c0,15.1,4.3,30.8,7.8,33.1c0-0.1,3.1-0.4,9.7-5.4c7-5.4,17.1-4,22.4,3s4,17.1-3,22.4
						C2861.6,1403.6,2851.7,1406.5,2843.7,1406.5z"/>
				</g>
			</g>
			<g>
				<path class="st3" d="M731.3,1892.2l236.6-6.8c7.5-0.2,13.8,5.7,14,13.2c0.2,7.5-5.7,13.8-13.2,14c-0.2,0-0.5,0-0.8,0l-236.6-6.8
					c-3.8-0.1-6.7-3.2-6.6-7C724.8,1895.2,727.7,1892.3,731.3,1892.2z"/>
			</g>
			<g>
				<path class="st3" d="M594.9,1789.7l414.5-6.8c7.5-0.1,13.7,5.9,13.8,13.4c0.1,7.5-5.9,13.7-13.4,13.8c-0.1,0-0.3,0-0.4,0
					l-414.5-6.8c-3.8-0.1-6.8-3.2-6.7-6.9C588.3,1792.7,591.3,1789.8,594.9,1789.7z"/>
			</g>
			<g>
				<path class="st3" d="M923.8,1703.6l205.1-6.8c7.5-0.2,13.8,5.6,14.1,13.2c0.2,7.5-5.6,13.8-13.2,14.1c-0.3,0-0.6,0-0.9,0
					l-205.1-6.8c-3.8-0.1-6.7-3.3-6.6-7C917.4,1706.6,920.3,1703.7,923.8,1703.6z"/>
			</g>
			<g>
				<path class="st3" d="M682.3,2133.1l183.3-6.8c7.5-0.3,13.8,5.6,14.1,13.1c0.3,7.5-5.6,13.8-13.1,14.1c-0.3,0-0.7,0-1,0
					l-183.3-6.8c-3.8-0.1-6.7-3.3-6.5-7.1C675.9,2136.1,678.8,2133.3,682.3,2133.1z"/>
			</g>
			<g>
				<path class="st3" d="M387.5,1984l578.5-6.8c7.5-0.1,13.7,5.9,13.8,13.4c0.1,7.5-5.9,13.7-13.4,13.8c-0.1,0-0.2,0-0.3,0
					l-578.5-6.8c-3.8,0-6.8-3.1-6.7-6.9C380.8,1987,383.8,1984,387.5,1984z"/>
			</g>
			<g class="st2">
				<path class="st3" d="M1467.7,2019c-2.6,9.2-5.7,18.3-9.3,27.2c-23.9,59-69.7,109.3-132.3,137.7c-62.8,28.4-130.9,29.5-191.1,8.3
					c-13.2-4.7-26.1-10.4-38.4-17.1c-9.7-5.3-19-11.2-27.9-17.7c20.6-5.2,42.3-11.4,64.7-18.6c6.3,2.8,12.7,5.4,19.2,7.6
					c60.2,21.2,128.4,20.1,191.1-8.3C1399.8,2112.8,1442.3,2070,1467.7,2019z"/>
			</g>
		</g>
	</g>
</g>
</svg>
