<?xml version="1.0" encoding="utf-8"?>
<!-- Generator: Adobe Illustrator 22.0.0, SVG Export Plug-In . SVG Version: 6.00 Build 0)  -->
<svg version="1.1" id="Layer_1" xmlns="http://www.w3.org/2000/svg" xmlns:xlink="http://www.w3.org/1999/xlink" x="0px" y="0px"
	 viewBox="0 0 4000 4000" style="enable-background:new 0 0 4000 4000;" xml:space="preserve">
<style type="text/css">
	.st0{display:none;}
	.st1{display:inline;}
	.st2{fill:#95C4FC;}
	.st3{opacity:0.3;}
	.st4{fill:#371A45;}
	.st5{fill:#F92323;}
	.st6{opacity:0.7;}
	.st7{fill:#FFFFFF;}
	.st8{opacity:0.35;}
	.st9{fill:#FF2261;}
	.st10{opacity:0.6;}
	.st11{fill:#33AEF1;}
	.st12{fill:#421861;}
	.st13{fill:#FFCE00;}
	.st14{fill:#111A28;}
</style>
<g>
	<g class="st0">
		<g class="st1">
			<rect class="st2" width="4000" height="4000"/>
		</g>
	</g>
	<g>
		<g class="st3">
			<ellipse class="st4" cx="1970" cy="3377.5" rx="890" ry="137.5"/>
		</g>
		<g>
			<g>
				<path class="st5" d="M1423.1,1884.8c-8.7-76.8-96.1-273-179.6-365.9c0,0,271.6,129.8,510.4,129.8"/>
			</g>
			<g class="st6">
				<path class="st7" d="M1686.6,1696.7c-187.9-28.7-344.5-115-353.3-107.6c-8.8,7.4,84.8,175.1,102.1,278.2l-12.3,17.5
					c-8.7-76.8-96-273-179.5-365.9c4.2,2,273.4,129.7,510.3,129.7L1686.6,1696.7z"/>
			</g>
			<g class="st8">
				<path class="st4" d="M1630,1737.1l-146.3,104.4c-33-64.7-92.9-186.7-87.9-203.2C1400.9,1621.7,1462.1,1701.8,1630,1737.1z"/>
			</g>
			<g>
				<path class="st4" d="M1423.1,1901.3c-8.3,0-15.4-6.2-16.4-14.6c-8.1-71.4-91.7-263.6-175.5-356.8c-5.3-5.8-5.7-14.6-0.9-20.9
					c4.7-6.3,13.2-8.4,20.3-5c2.7,1.3,271.2,128.2,503.3,128.2c9.1,0,16.5,7.4,16.5,16.5c0,9.1-7.4,16.5-16.5,16.5
					c-174.6,0-363.5-66.9-457.5-105.3c73.1,105.4,135.6,257.7,143.1,323.1c1,9-5.5,17.2-14.5,18.2
					C1424.4,1901.2,1423.7,1901.3,1423.1,1901.3z"/>
			</g>
			<g>
				<path class="st5" d="M2471.9,1884.8c8.7-76.8,96.1-273,179.6-365.9c0,0-271.6,129.8-510.4,129.8"/>
			</g>
			<g class="st6">
				<path class="st7" d="M2208.4,1696.7c187.9-28.7,344.5-115,353.3-107.6c8.8,7.4-84.8,175.1-102.1,278.2l12.3,17.5
					c8.7-76.8,96-273,179.5-365.9c-4.2,2-273.4,129.7-510.3,129.7L2208.4,1696.7z"/>
			</g>
			<g class="st8">
				<path class="st4" d="M2265,1737.1l146.3,104.4c33-64.7,92.9-186.7,87.9-203.2C2494.1,1621.7,2432.9,1701.8,2265,1737.1z"/>
			</g>
			<g>
				<path class="st4" d="M2471.9,1901.3c-0.6,0-1.3,0-1.9-0.1c-9-1-15.6-9.2-14.5-18.2c7.4-65.3,70-217.7,143.1-323.1
					c-94.1,38.4-282.9,105.3-457.5,105.3c-9.1,0-16.5-7.4-16.5-16.5c0-9.1,7.4-16.5,16.5-16.5c232.2,0,500.6-126.9,503.3-128.2
					c7.1-3.4,15.6-1.3,20.3,5c4.7,6.3,4.3,15-0.9,20.9c-83.8,93.2-167.4,285.4-175.5,356.8
					C2487.3,1895.1,2480.2,1901.3,2471.9,1901.3z"/>
			</g>
			<g>
				<path class="st9" d="M2327.6,1802.8c-198.9-0.4-396.3-48.1-396.3-48.1l-8,0c0,0-197.6,45.6-396.5,44.6
					c0,0-101.7,645.8-394.9,1153.2c0,0,273.3,68.1,565-32.6c0,0,103,69.2,227.5,69.7c124.5,0.4,227.8-68,227.8-68
					c291.3,102.7,564.9,36.6,564.9,36.6C2426.3,2448.8,2327.6,1802.8,2327.6,1802.8z"/>
			</g>
			<g>
				<path class="st5" d="M2717.1,2958.1c0,0-29.4,7.1-79,13c-102,12.2-289.9,19.4-485.8-49.6c0,0-103.3,68.5-227.8,68.1
					c-124.5-0.4-227.5-69.7-227.5-69.7c-195.9,67.6-383.5,59.1-485.5,46.2c-50-6.3-79.5-13.6-79.5-13.6
					c293.2-507.3,394.9-1153.1,394.9-1153.1c198.9,1.1,396.5-44.6,396.5-44.6l8,0c0,0,197.4,47.7,396.3,48
					C2327.6,1802.8,2426.3,2448.8,2717.1,2958.1z"/>
			</g>
			<g class="st6">
				<path class="st7" d="M2717.1,2958.1c0,0-9.3,2.3-26.2,5.3c-261.9-420.7-367.7-922-367.7-922c-196.7-0.3-391.9-40.6-391.9-40.6
					l-7.9,0c0,0-195.5,38.6-392.1,37.7c0,0-104.5,501.2-368.3,920.4c-20-3.5-31-6.3-31-6.3c293.2-507.3,394.9-1153.1,394.9-1153.1
					c198.9,1.1,396.5-44.6,396.5-44.6l8,0c0,0,197.4,47.7,396.3,48C2327.6,1802.8,2426.3,2448.8,2717.1,2958.1z"/>
			</g>
			<g class="st8">
				<path class="st4" d="M2638,2971.2c-102,12.2-289.9,19.4-485.8-49.6c0,0-103.3,68.5-227.8,68.1c-124.5-0.4-227.5-69.7-227.5-69.7
					c-195.9,67.6-383.5,59.1-485.5,46.2c262.5-394.9,353.5-895,353.5-895c179.7,0.9,358.2-34.6,358.2-34.6h7.3
					c0,0,178.4,37.3,358.1,37.6C2288.5,2074.1,2377.3,2574.4,2638,2971.2z"/>
			</g>
			<g>
				<path class="st4" d="M1925.6,3006.1c-0.4,0-0.9,0-1.3,0c-110.7-0.4-203.7-52.2-229.6-68c-290.1,97.4-555.6,33.2-566.8,30.4
					l-21.2-5.3l11-19c288.2-498.7,391.8-1141,392.9-1147.5l2.2-14l14.2,0.1c194.5,0.8,390.8-43.7,392.7-44.2l1.9-0.4l11.8,0l1.9,0.5
					c2,0.5,197.9,47.2,392.5,47.6l14.1,0l2.1,14c1,6.4,101.6,648.9,387.5,1149.6l10.9,19.1l-21.3,5.2c-11.3,2.7-277.1,65-566.7-34.5
					C2128.4,2955.3,2035.8,3006.1,1925.6,3006.1z M1699.3,2901.6l6.8,4.6c1,0.7,100.6,66.5,218.3,66.9c0.4,0,0.8,0,1.1,0
					c117.2,0,216.5-64.7,217.5-65.3l6.8-4.5l7.7,2.7c237,83.6,464.3,53.1,533.9,40.5c-257.3-461.7-361.8-1031.6-378-1127.3
					c-183.4-2.3-363.7-43.2-384.2-48l-4.2,0c-20.4,4.6-201,43.6-384.4,44.6c-16.7,95.8-123.8,665.3-383.2,1125.2
					c69.5,13.1,296.9,45.2,534.1-36.7L1699.3,2901.6z"/>
			</g>
			<g class="st10">
				<path class="st7" d="M3209.2,1585.3c-18,41-48,69.1-79.5,88.3c23.5-37,39.1-80.7,28.5-125.2c-19-79.1-148-110.5-239.6-128.7
					c13.3-6.8,55.7-28.6,60.3-30.5C3031.4,1366.3,3260.6,1467.9,3209.2,1585.3z"/>
			</g>
			<g>
				<path class="st7" d="M3202.8,1590.2c-1,2.2-2,4.5-3.1,6.6c-0.8,1.7-1.6,3.4-2.6,5c-0.7,1.4-1.4,2.8-2.2,4.1
					c-1.2,2.2-2.5,4.4-3.8,6.5c-1.1,1.7-2.2,3.5-3.3,5.2c-2,3-4,5.9-6.1,8.7c-1.1,1.6-2.3,3.1-3.5,4.6c-1.6,2.1-3.3,4-5,6
					c-1.6,1.9-3.3,3.8-5,5.6c-1.7,1.8-3.4,3.6-5.2,5.4c-4.3,4.2-8.7,8.2-13.3,12c-1.3,1.1-2.6,2.2-4,3.2c-2.7,2.1-5.4,4.1-8.2,6.1
					c-1.4,1-2.8,1.9-4.2,2.9c-2.5,1.7-5,3.3-7.5,4.9c-0.8,0.5-1.7,1-2.5,1.5c-5.1,3.1-10.3,6-15.4,8.6c-1.2,0.7-2.5,1.3-3.7,1.9
					c-0.6,0.3-1.3,0.6-1.9,0.9c0,0-0.1,0,0,0.1c-0.4,0.1-0.7,0.4-1.1,0.5c-10.5,5.1-20.8,9.3-30.6,12.7c-1.4,0.5-2.6,1-4,1.4
					c-7.9,2.7-15.3,4.8-22.2,6.6c-2.3,0.6-4.5,1.2-6.7,1.6c-2.3,0.6-4.6,1.1-6.7,1.5c-1.8,0.4-3.5,0.8-5.2,1.1
					c-9,1.8-15.9,2.7-20.1,3.2c-0.6,0-1.1,0.1-1.6,0.2c-1.8,0.2-2.8,0.3-2.8,0.3L2674.4,1927l-401.6,255.3l-56-384.4
					c0,0,135.8-73.6,292.5-158c61.8-33.3,126.8-68.3,188.1-101c29.9-16,58.9-31.5,86.2-46.1c3-1.6,6-3.2,9-4.8
					c34.4-18.3,65.8-35,92.5-49c3.2-1.7,6.3-3.4,9.4-5c18-9.4,33.6-17.6,46.2-24c1.5-0.8,3-1.6,4.5-2.3c0.1,0,0.1,0,0.1-0.1
					c2.4-1.2,4.7-2.4,6.8-3.5c3.7-1.9,7.1-3.5,10-4.9c1.1-0.6,2.2-1.1,3.2-1.6c3-1.5,5.4-2.6,7.1-3.3
					C3025,1371.3,3254.2,1472.8,3202.8,1590.2z"/>
			</g>
			<g>
				<path class="st7" d="M3202.8,1590.2c-1,2.2-2,4.5-3.1,6.6c-0.8,1.7-1.6,3.4-2.6,5c-0.7,1.4-1.4,2.8-2.2,4.1
					c-1.2,2.2-2.5,4.4-3.8,6.5c-1.1,1.7-2.2,3.5-3.3,5.2c-2,3-4,5.9-6.1,8.7c-1.1,1.6-2.3,3.1-3.5,4.6c-1.6,2.1-3.3,4-5,6
					c-1.6,1.9-3.3,3.8-5,5.6c-1.7,1.8-3.4,3.6-5.2,5.4c-4.3,4.2-8.7,8.2-13.3,12c-1.3,1.1-2.6,2.2-4,3.2c-2.7,2.1-5.4,4.1-8.2,6.1
					c-1.4,1-2.8,1.9-4.2,2.9c-2.5,1.7-5,3.3-7.5,4.9c-0.8,0.5-1.7,1-2.5,1.5c-5.1,3.1-10.3,6-15.4,8.6c-1.2,0.7-2.5,1.3-3.7,1.9
					c-0.6,0.3-1.3,0.6-1.9,0.9c-0.4,0.2-0.7,0.4-1.1,0.6c-10.5,5.1-20.8,9.3-30.6,12.7c-1.4,0.5-2.6,1-4,1.4
					c-7.9,2.7-15.3,4.8-22.2,6.6c-2.3,0.6-4.6,1.2-6.7,1.6c-2.3,0.6-4.6,1.1-6.7,1.5c-1.8,0.4-3.5,0.8-5.2,1.1
					c-9,1.8-15.9,2.7-20.1,3.2c-0.6,0-1.1,0.1-1.6,0.2c-1.8,0.2-2.8,0.3-2.8,0.3L2674.4,1927c-25.7-40.7-39.4-81.7-45-121
					c-20.8-145,68-267.1,68-267.1c29.9-16,58.9-31.5,86.2-46.1c3-1.6,6-3.2,9-4.8c34.4-18.3,65.8-35,92.5-49c3.2-1.7,6.3-3.4,9.4-5
					c18-9.4,33.6-17.6,46.2-24c1.5-0.8,3-1.6,4.5-2.3c0.1,0,0.1,0,0.1-0.1c2.4-1.2,4.7-2.4,6.8-3.5c3.7-1.9,7.1-3.5,10-4.9
					c1.1-0.6,2.2-1.1,3.2-1.6c3-1.5,5.4-2.6,7.1-3.3C3025,1371.3,3254.2,1472.8,3202.8,1590.2z"/>
			</g>
			<g>
				<path class="st4" d="M2272.9,2198.8c-2.3,0-4.7-0.5-6.9-1.5c-5.1-2.3-8.6-7.1-9.4-12.6l-56-384.4c-1-6.8,2.4-13.6,8.5-16.9
					c28.7-15.6,704.3-381.5,756.9-404.4c44.1-19.2,157.1,24.6,216.1,83.7c42.4,42.5,55.2,90.1,35.9,134.1
					c-50.4,115-184.8,135.4-211,138.3l-725.2,461.1C2279,2197.9,2275.9,2198.8,2272.9,2198.8z M2234.9,1806.9l50.7,347.8l707-449.5
					c2.3-1.5,4.9-2.3,7.6-2.5c1.4-0.1,140.8-12.4,187.6-119.1c13.8-31.5,4-64.4-29-97.5c-57.9-58-155.9-87.1-179.6-76.8
					C2931.2,1430.1,2321.4,1760.1,2234.9,1806.9z"/>
			</g>
			<g>
				<path class="st4" d="M2965.1,1525.4c23.6,2,46.3,8.1,68.4,16.8c11,4.4,21.8,9.7,32.2,16.1c10.5,6.4,20.7,13.9,29.7,24.3
					c4.5,5.2,8.8,11.2,11.6,18.8c3,7.4,4.3,16.4,2.8,25.1c-0.5,2.1-1,4.2-1.6,6.2c-0.6,2.1-1.3,3.4-2,5.1c-0.6,1.6-1.4,3.2-2.3,4.9
					c-0.8,1.6-1.7,3.2-2.7,4.8c-3.9,6.3-9.1,12.3-15.6,16.9c-6.4,4.6-13.9,7.7-21.2,9.1c-7.3,1.5-14.5,1.6-21.3,1.1
					c-6.8-0.6-13.3-1.9-19.6-3.7c-3.1-0.9-6.2-1.9-9.3-3c-3.2-1.2-5.8-2.2-9.4-4l21.5-13.1c0,3.4-0.2,5.7-0.4,8.5
					c-0.2,2.7-0.5,5.3-0.8,7.9c-0.6,5.3-1.6,10.5-2.8,15.6c-2.5,10.3-5.9,20.6-11,30.4c-5.1,9.8-11.8,19.1-20.3,26.9
					c-8.4,7.9-18.5,14-29.1,18.1c-10.6,4.3-21.7,5.8-32.5,6.4c-10.8,0.7-21.3-0.7-31.4-2.7c-5-1.3-10-2.5-14.7-4.1
					c-4.7-1.8-9.5-3.4-14-5.6c-9.1-4.1-17.7-9.3-25.8-15.2c-1.1-0.8-1.3-2.4-0.5-3.5c0.5-0.7,1.3-1.1,2.2-1l0.1,0
					c19.7,1.4,38.2,3.8,56.1,4.2c17.7,0.2,34.8-0.9,49-7.3c14.2-6.2,25.4-16.8,33.3-31c3.9-7,7-14.9,9.2-23
					c1.1-4.1,2.1-8.3,2.7-12.5c0.4-2.1,0.6-4.2,0.9-6.3c0.2-2,0.4-4.4,0.4-5.8l0-0.6c0.3-8.1,7.1-14.5,15.2-14.2
					c2.3,0.1,4.5,0.7,6.3,1.7c1.5,0.8,4.1,2,6.3,2.8c2.3,0.9,4.6,1.7,7,2.4c4.7,1.4,9.4,2.4,14,2.8c9.2,0.9,17.3-0.8,22.7-5.1
					c2.8-2.1,5.1-5,7.1-8.5c0.5-0.8,1-1.8,1.4-2.8c0.4-0.9,0.9-1.9,1.2-3c0.3-1,0.9-2.2,1-2.9c0.1-0.7,0.3-1.4,0.5-2.1
					c0.2-2.7-0.2-5.3-1.5-8.5c-1.2-3.1-3.6-6.6-6.5-10.1c-2.8-3.4-6.5-6.9-10.2-10.2c-3.9-3.2-7.9-6.6-12.2-9.7
					c-8.6-6.2-17.8-12.2-27.2-17.9c-18.9-11.6-38.6-22.8-58.3-35.2l-0.1,0c-1.2-0.7-1.5-2.2-0.8-3.4
					C2963.3,1525.8,2964.2,1525.3,2965.1,1525.4z"/>
			</g>
			<g>
				<path class="st4" d="M3039.1,1486.9c3.3,13,6,25.2,9.2,36.7c1.5,5.8,3.4,11.3,4.8,16.7c1.2,5.5,2.8,10.7,3.1,16.4l0.1,1.6
					c0.4,8.1-5.8,14.9-13.9,15.3c-5.6,0.3-10.6-2.7-13.3-7.2c-3.7-6.3-5.8-13.3-6.8-20.3c-1-7-0.7-14.1,0-21
					c0.8-6.9,2.2-13.7,4.2-20.2c2.1-6.6,4.7-12.9,8.5-18.9c0.7-1,2-1.3,3.1-0.7c0.5,0.3,0.8,0.8,1,1.3L3039.1,1486.9z"/>
			</g>
			<g>
				<path class="st4" d="M2674.4,1939.4c-4.1,0-8.1-2-10.5-5.8c-51.1-81-63.3-176.3-35-275.6c21.2-74.5,57.1-124.3,58.6-126.4
					c4-5.5,11.7-6.7,17.3-2.7c5.5,4,6.8,11.7,2.7,17.3c-1.4,1.9-137,193.1-22.6,374.3c3.6,5.8,1.9,13.4-3.9,17.1
					C2679,1938.7,2676.7,1939.4,2674.4,1939.4z"/>
			</g>
			<g class="st8">
				<path class="st4" d="M3102.4,1690C3102.4,1690,3102.3,1690,3102.4,1690c-0.4,0.2-0.7,0.4-1.1,0.6c-10.5,5.1-20.8,9.3-30.6,12.7
					c-1.4,0.5-2.6,1-4,1.4c-7.9,2.7-15.3,4.8-22.2,6.6c-2.3,0.6-4.6,1.2-6.7,1.6c-2.3,0.6-4.6,1.1-6.7,1.5c-1.8,0.4-3.5,0.8-5.2,1.1
					c-9,1.8-15.9,2.7-20.1,3.2c-0.6,0-1.1,0.1-1.6,0.2c-1.8,0.2-2.8,0.3-2.8,0.3L2674.4,1927l-401.6,255.3l-24.3-166.7l100.3-88.6
					c87.8-50,176-34.1,255.8-63.4c17.7-6.5,33.9-12.7,46-18c92.9-40.2,158.7-83.4,158.7-83.4c-44.6-24.6,0.6-76.8,0.6-76.8
					c136.1,22.2,154.6-76.9,173.6-82.5c19-5.6,109.9,26.1,109.9,26.1C3114.4,1643.4,3112.7,1666.5,3102.4,1690z"/>
			</g>
			<g>
				<path class="st7" d="M2522.7,3284.2c-0.3,2.6-0.6,5.1-1.1,7.6c-13.3,75.3-105.8,102.2-272.3,81.5
					c-75.4-9.4-179.7-20.5-207.1-77.8c-54.9-114.3,1.2-345.6-5.4-493.7v-0.3c0,0-30.3,3.6-67.9,3.6c-37.6,0-67.9-3.6-67.9-3.6
					c0,1.2-0.1,2.4-0.1,3.6c-5.6,148.3,49.2,376.9-5.3,490.4c-27.5,57.3-131.7,68.4-207.1,77.8c-166.7,20.7-259.2-6.2-272.4-81.7
					c-0.4-2.4-0.8-4.8-1.1-7.3c-9.6-92,125-134.7,125-134.7s-29.4-195.3-48.7-371.5c-48-437.7,122.6-964.7,122.6-964.7h710
					c0,0,170.7,527,122.6,964.7c-19.4,176.2-48.7,371.5-48.7,371.5S2532.3,3192.2,2522.7,3284.2z"/>
			</g>
			<g>
				<path class="st11" d="M1519.5,3004.5c11.4,84.2,20.5,144.9,20.5,144.9s-134.6,42.7-125,134.7c0.3,2.5,0.6,4.9,1.1,7.3
					c13.2,75.5,105.7,102.5,272.4,81.7c75.4-9.4,179.6-20.5,207.1-77.8c34.9-72.6,25-192.5,14.8-308.3
					C1721.2,3054.3,1585.2,3027.4,1519.5,3004.5z"/>
			</g>
			<g>
				<path class="st11" d="M2397.8,3149.4c0,0,10.1-67.3,22.3-158.4c-60.6,23-197.6,55.8-392.1-10.9
					c-10.4,117.9-21.4,241.2,14.1,315.4c27.5,57.3,131.7,68.4,207.1,77.8c166.5,20.7,259-6.2,272.3-81.5c0.5-2.5,0.8-5,1.1-7.6
					C2532.3,3192.2,2397.8,3149.4,2397.8,3149.4z"/>
			</g>
			<g class="st8">
				<path class="st4" d="M1732,2733.3c0,0,125.3,20.2,222.1,20.2c96.8,0,251.7-20.2,251.7-20.2s-93,71.3-241.3,68.2
					C1812.5,2798.3,1732,2733.3,1732,2733.3z"/>
			</g>
			<g class="st8">
				<path class="st4" d="M1895.6,3295.5c-27.5,57.3-131.7,68.4-207.1,77.8c-166.7,20.7-259.2-6.2-272.4-81.7
					c136.5,51.7,377.1,22.2,418.2-43.4c53.3-85,61.9-169.9-20.9-275.8c-82.8-105.8-89.2-244-89.2-244c39.6,27.8,121,58,176.8,76.9
					C1895.3,2953.4,1950.1,3182,1895.6,3295.5z"/>
			</g>
			<g class="st8">
				<path class="st4" d="M2521.6,3291.8c-13.3,75.3-105.8,102.2-272.3,81.5c-75.4-9.4-179.7-20.5-207.1-77.8
					c-54.9-114.3,1.2-345.6-5.4-493.7c46.1-13.8,131.6-41.9,176.6-73.5c0,0,22.7,99.4-73.8,235.2c-77.8,109.6-83.5,196.8-30.2,281.7
					C2147,3305.4,2371.6,3330.2,2521.6,3291.8z"/>
			</g>
			<g>
				<path class="st4" d="M1619.1,1814.9c-12.3,54.9-24.6,109.8-36.2,164.8c-3,13.7-6,27.4-8.7,41.2l-8.6,41.2
					c-5.3,27.6-11,55-16,82.6l-7.4,41.4l-3.7,20.7l-3.2,20.8c-4.4,27.7-9.2,55.3-12.6,83.1c-3.7,27.8-7.7,55.5-10.3,83.4l-4.4,41.8
					c-1.6,13.9-2.1,27.9-3.2,41.8l-2.8,41.9c-0.6,7-0.7,14-0.9,20.9l-0.6,21l-1.1,41.9c-0.3,7,0,14,0.1,20.9l0.5,20.9l1,41.9
					c0,7,0.7,13.9,1.3,20.9l1.6,20.8l3.3,41.7c1.2,13.9,3,27.9,4.5,41.9c13,111.7,28.1,223.4,44.5,334.7l2,13.7l-13.3,4.4
					c-5.1,1.7-11.2,4.1-16.7,6.4c-5.6,2.4-11.2,5-16.7,7.7c-10.9,5.5-21.5,11.7-31.2,18.6c-19.5,13.8-36.3,31-44.2,50.8
					c-4.1,9.8-5.5,20.3-4.9,30.9c0.6,10.8,3.5,21.5,8.2,30.6c9.6,18.4,28.4,31.5,50.6,39.3c22.1,7.9,46.8,11.6,71.6,13.1
					c24.9,1.5,50.2,0.9,75.5-0.9c25.3-1.7,50.6-5,76.3-8.2c25.5-3.3,50.7-7,75-12.7c24.2-5.7,47.9-13.3,66.9-25.6
					c9.4-6.1,17.3-13.5,22.6-21.9c0.7-1,1.2-2.1,1.8-3.2c0.6-1,1.2-2.2,1.8-3.6l3.5-8c2-5.6,4.1-11.1,5.7-17
					c1.8-5.7,3-11.7,4.5-17.6c1.1-6,2.4-12,3.2-18.2c1.9-12.2,3-24.7,3.9-37.2c1.5-25.1,1.4-50.6,0.4-76.1
					c-2-51.1-7-102.5-11.5-154.3c-4.3-51.8-8.8-103.9-6.8-157.4l0.7-17.6l17.7,1.9c10.6,1.1,21.9,2,32.8,2.6
					c11.1,0.6,22.1,0.9,33.1,0.9c11,0,22.1-0.3,33.1-0.9c11-0.6,22.3-1.4,32.8-2.6l17.7-1.9l0.7,17.6c2,53.5-2.5,105.6-6.8,157.4
					c-4.5,51.7-9.5,103.1-11.5,154.3c-0.9,25.5-1,51,0.4,76.1c0.9,12.5,1.9,25,3.9,37.2c0.8,6.2,2.1,12.1,3.2,18.2
					c1.5,5.9,2.7,11.9,4.5,17.6c1.6,5.9,3.7,11.4,5.7,17l3.5,8c0.6,1.4,1.2,2.6,1.8,3.6c0.6,1.1,1.1,2.2,1.8,3.2
					c5.2,8.4,13.1,15.8,22.6,21.9c19,12.3,42.8,19.9,66.9,25.6c24.3,5.7,49.5,9.4,75,12.7c25.7,3.2,51,6.6,76.3,8.2
					c25.3,1.8,50.6,2.4,75.5,0.9c24.8-1.5,49.4-5.2,71.6-13.1c22.1-7.8,41-20.9,50.6-39.3c4.7-9.2,7.6-19.8,8.2-30.6
					c0.6-10.6-0.8-21-4.9-30.9c-7.9-19.8-24.7-37.1-44.2-50.8c-9.8-7-20.3-13.1-31.2-18.6c-5.5-2.8-11-5.3-16.7-7.7
					c-5.5-2.4-11.6-4.7-16.7-6.4l-13.3-4.4l2-13.7c15.1-102.4,29.1-205.2,41.4-308c2.9-25.7,6.2-51.5,8.5-77
					c1.1-12.8,2.6-25.5,3.3-38.3l2.3-38.4c2.1-51.3,1.8-102.7-0.4-154.2c-4-102.9-16.9-205.4-34.5-307.1
					c-8.8-50.7-18-101.9-27.3-152.1c-10.4-50.5-20.3-101.3-31.1-151.8l0-0.1c-0.6-3,1.3-5.9,4.3-6.6c2.5-0.5,5.1,0.8,6.1,3
					c11.4,23.8,20.4,48.5,28.8,73.2c8.3,24.8,15.8,49.8,22.5,75c12.7,51.1,23.1,101.9,31.4,153.5c8.5,51.5,14.9,103.3,20.7,155.2
					c2.8,26,5.1,52,7.4,78l2.7,39.1c0.9,13,1.3,26.1,2,39.2c2.2,52.2,2.5,104.6,0.4,157l-2.3,39.3c-0.7,13.1-2.3,26.2-3.4,39.2
					c-2.4,26.2-5.6,51.8-8.6,77.7c-12.4,103.3-26.3,206.1-41.5,309l-11.3-18.2c7.2,2.4,13.2,4.8,19.6,7.5c6.3,2.7,12.5,5.5,18.6,8.6
					c12.2,6.2,24.1,13.1,35.5,21.2c11.4,8,22.2,17.2,31.9,28c9.7,10.7,18.1,23.3,23.9,37.5c5.9,14.1,8.2,30,7.2,45.2
					c-0.9,15-4.8,30-11.9,43.9c-7.3,13.7-17.8,25.7-29.9,34.6c-12,9.1-25.2,15.6-38.6,20.4c-26.8,9.6-54,13.3-80.8,15
					c-26.9,1.6-53.5,0.9-79.8-0.9c-26.4-1.8-52.5-5.2-78.2-8.4c-25.9-3.4-52.1-7.1-78.3-13.3c-26.1-6.3-52.7-14.3-77.4-30.1
					c-12.2-8-24-18.4-32.5-32.1c-1.1-1.6-2-3.5-3-5.2c-1-1.8-1.9-3.6-2.5-5.1l-4.3-9.8c-2.4-6.6-4.9-13.2-6.7-19.9
					c-2.1-6.7-3.5-13.4-5.1-20c-1.2-6.7-2.7-13.4-3.6-20.1c-2.1-13.4-3.2-26.8-4.2-40.1c-1.6-26.6-1.4-53.1-0.5-79.3
					c2-52.5,7.1-104.3,11.5-155.9c4.3-51.4,8.6-102.9,6.7-153.1l18.4,15.6c-12,1.3-23.3,2.1-35,2.7c-11.6,0.6-23.2,0.9-34.8,0.9
					c-11.6,0-23.3-0.3-34.8-0.9c-11.7-0.6-23-1.4-35-2.7l18.4-15.6c-2,50.2,2.4,101.7,6.7,153.1c4.4,51.5,9.5,103.4,11.5,155.9
					c0.9,26.3,1.1,52.7-0.5,79.3c-0.9,13.3-2,26.7-4.2,40.1c-0.9,6.7-2.3,13.4-3.5,20.1c-1.6,6.7-3,13.4-5.1,20
					c-1.8,6.7-4.3,13.3-6.7,19.9l-4.3,9.8c-0.6,1.6-1.5,3.3-2.5,5.1c-1,1.8-1.9,3.6-3,5.2c-8.5,13.7-20.3,24.1-32.5,32.1
					c-24.8,15.9-51.3,23.9-77.4,30.1c-26.2,6.1-52.4,9.9-78.3,13.3c-25.7,3.2-51.8,6.7-78.2,8.4c-26.4,1.9-53,2.5-79.9,0.9
					c-26.8-1.7-54.1-5.5-80.8-15c-13.3-4.8-26.5-11.3-38.6-20.4c-12.1-8.9-22.6-20.9-29.9-34.6c-7.2-13.9-11.1-28.8-11.9-43.9
					c-1-15.3,1.3-31.1,7.2-45.2c5.7-14.2,14.1-26.8,23.9-37.5c9.7-10.8,20.5-20,31.9-28c11.4-8.1,23.3-15,35.5-21.2
					c6.1-3.1,12.3-5.9,18.6-8.6c6.4-2.7,12.4-5.1,19.6-7.5l-11.3,18.2c-16.5-111.8-31.6-223.6-44.7-335.9c-1.5-14.1-3.4-28-4.6-42.2
					l-3.4-42.6l-1.7-21.3c-0.5-7.1-1.3-14.2-1.3-21.3l-1-42.7l-0.5-21.3c-0.2-7.1-0.5-14.2-0.2-21.3l0.9-42.6l0.4-21.3
					c0.2-7.1,0.2-14.2,0.8-21.3l2.6-42.5c1-14.2,1.4-28.4,2.8-42.5l4-42.4l2-21.2c0.6-7.1,1.4-14.1,2.3-21.2l5.5-42.2
					c7.3-56.3,16.9-112.2,28-167.8c2.6-13.9,5.9-27.7,8.9-41.6c3.1-13.8,5.9-27.7,9.3-41.5c6.8-27.5,13.3-55.1,21.2-82.3
					c15.3-54.6,32.2-108.6,53.5-161.3c1.1-2.8,4.3-4.2,7.2-3c2.5,1,3.9,3.7,3.3,6.3L1619.1,1814.9z"/>
			</g>
			<g class="st8">
				<path class="st4" d="M2454.3,2454c-10.9,13.5-26.9,23-45.6,25.2c-57.6,7-139.1,11.8-199.6-4.7
					c-42.8,70.9-119.2,142.1-254.9,184.8c-135.9-42.8-212.4-114.1-255.1-185.1c-60.6,17-142.9,12.1-201,5.1
					c-5.2-0.7-10.3-1.8-15.1-3.6c0.7-44.5,3-88.9,6.5-132.8c5.4-1.4,11.1-2.1,16.9-2.1c1.1,0,2.2,0,3.3,0c40,1.9,93.3,3.1,141.4,0
					c-8.1-51.6-3-87.6-3-87.6c78.2-78.1,306.1-83.8,306.1-83.8s228,5.7,306.2,83.8c0,0,5.1,36-3.1,87.7c47.7,3,100.3,1.8,139.9-0.1
					c1.1,0,2.2,0,3.3,0c19,0,36.5,7.8,49.2,20.6C2451.9,2392,2453.5,2423,2454.3,2454z"/>
			</g>
			<g>
				<path class="st5" d="M1736.5,2413.3c-61.3,24.8-156.2,19.6-220.9,11.8c-38.8-4.7-66-40.5-60.3-79.1l0,0
					c5.2-35.3,36.3-60.9,71.9-59.3c60.5,2.8,151.2,4.2,208.7-8.6"/>
			</g>
			<g class="st6">
				<path class="st7" d="M1527.3,2317.7c60.5,2.8,151.2,4.2,208.7-8.6l0.5,109.5c0,0,0.1,0,0.1,0l-0.6-135.2
					c-57.5,12.7-148.2,11.4-208.7,8.6c-35.6-1.7-66.7,24-71.9,59.3h0c-1.2,7.9-0.9,15.7,0.5,23.1
					C1462.2,2340.4,1492.5,2316,1527.3,2317.7z"/>
			</g>
			<g class="st8">
				<path class="st4" d="M1736.6,2413.3c-61.3,24.9-156.2,19.6-220.9,11.8c-38.8-4.7-66-40.5-60.3-79.2c1.1-7.9,3.6-15.3,7.1-22
					c10.2,19.5,29.6,33.9,53.2,36.7c64.6,7.8,159.3,13,220.6-11.7L1736.6,2413.3z"/>
			</g>
			<g>
				<path class="st4" d="M1614.7,2448.1c-35.5,0-70.8-2.9-101-6.6c-23.2-2.8-43.8-14.6-57.9-33.2c-14.2-18.6-20.1-41.6-16.7-64.8
					c6.5-43.9,44.9-75.4,89-73.3c89.1,4.2,161.7,1.3,204.4-8.2c8.6-1.9,30.1-2,42.7,38.6c12.8,41.1,11.4,110.3-32.4,128l0,0
					C1706.7,2443.2,1660.5,2448.1,1614.7,2448.1z M1524,2303.1c-26.2,0-48.4,19.1-52.3,45.3c-2.1,14.3,1.5,28.5,10.3,39.9
					c8.7,11.4,21.4,18.7,35.7,20.4c92.4,11.2,168,7.4,212.7-10.7l0,0c13.1-5.3,16.9-26.5,18-35.4c3.7-31.4-5.8-60.6-11.8-67.8
					c-58.3,12.2-146.1,11.3-210,8.3C1525.6,2303.2,1524.8,2303.1,1524,2303.1z"/>
			</g>
			<g>
				<path class="st5" d="M2205.4,2413.3c61.3,24.8,156.2,19.6,220.9,11.8c38.8-4.7,66-40.5,60.3-79.1l0,0
					c-5.2-35.3-36.3-60.9-71.9-59.3c-60.5,2.8-151.2,4.2-208.7-8.6"/>
			</g>
			<g class="st6">
				<path class="st7" d="M2206,2309.1c57.5,12.7,148.2,11.4,208.7,8.6c33.8-1.6,63.4,21.4,70.8,53.9c1.9-8.2,2.3-16.8,1-25.6
					c-5.2-35.3-36.3-60.9-71.9-59.3c-60.5,2.8-151.2,4.2-208.7-8.6l-0.6,135.2c0,0,0.1,0,0.1,0L2206,2309.1z"/>
			</g>
			<g class="st8">
				<path class="st4" d="M2426.3,2425.2c-64.7,7.8-159.5,13-220.9-11.8l0.3-64.9c61.3,24.7,156,19.5,220.6,11.7
					c23.5-2.8,42.7-17.1,53-36.5c3.6,6.8,6.2,14.3,7.3,22.4C2492.3,2384.6,2465.1,2420.5,2426.3,2425.2z"/>
			</g>
			<g>
				<path class="st4" d="M2327.3,2448.1c-45.9,0-92.1-4.9-128.1-19.5c-43.7-17.7-45.2-86.8-32.4-128c12.6-40.6,34.1-40.5,42.7-38.6
					c42.7,9.5,115.2,12.4,204.4,8.2c44.3-2.2,82.5,29.4,89,73.3c3.4,23.2-2.5,46.2-16.7,64.8c-14.2,18.6-34.7,30.3-57.9,33.2
					C2398.1,2445.2,2362.8,2448.1,2327.3,2448.1z M2205.5,2294.9c-6,7.2-15.5,36.4-11.8,67.8c1,8.9,4.9,30.1,18,35.4l0,0
					c44.7,18.1,120.2,21.9,212.7,10.7c14.3-1.7,26.9-9,35.7-20.4c8.8-11.5,12.4-25.7,10.3-40c-4-27-27.5-46.4-54.8-45.2
					C2351.6,2306.2,2263.8,2307.1,2205.5,2294.9z"/>
			</g>
			<g>
				<path class="st4" d="M2259.1,3039.6c-58.5,0-134.4-11-231.6-42.7c-8.7-2.8-13.4-12.1-10.6-20.8c2.8-8.7,12.1-13.4,20.8-10.6
					c287.1,93.7,371.2-2.6,372-3.6c5.8-6.9,16.1-8,23.1-2.4c7,5.7,8.2,15.9,2.6,22.9C2432.9,2985.8,2388.4,3039.6,2259.1,3039.6z"/>
			</g>
			<g>
				<path class="st4" d="M1665.7,3046.6c-61.7,0-121-11.1-159.1-44.7c-6.8-6-7.5-16.4-1.5-23.3c6-6.8,16.4-7.5,23.3-1.5
					c95.6,84.3,371.4-2.5,374.2-3.3c8.7-2.8,18,2,20.7,10.7c2.8,8.7-2,18-10.7,20.7C1904.7,3007.8,1781.1,3046.6,1665.7,3046.6z"/>
			</g>
			<g>
				<path class="st11" d="M1954.2,2602.3c326.9-102.9,287.5-381.4,287.5-381.4c-73.4-73.4-287.5-78.7-287.5-78.7
					s-214.1,5.3-287.5,78.7C1666.6,2220.9,1627.3,2499.4,1954.2,2602.3z"/>
			</g>
			<g class="st6">
				<path class="st7" d="M2242.6,2267.6c-0.4-6.5-0.9-10-0.9-10c-73.4-73.4-287.6-78.7-287.6-78.7s-214.1,5.3-287.5,78.7
					c0,0-0.5,3.5-0.9,10c-1.6-28.6,0.9-46.7,0.9-46.7c73.4-73.4,287.5-78.7,287.5-78.7s214.1,5.3,287.6,78.7
					C2241.7,2220.9,2244.3,2239,2242.6,2267.6z"/>
			</g>
			<g class="st8">
				<path class="st4" d="M2241.7,2220.9c-3.2-3.2-6.7-6.3-10.4-9.2c-3.5,77.3-38.2,243.2-262.8,320.2c-9.2,3.2-19.3,3.2-28.6,0
					c-224.6-77-259.4-242.9-262.8-320.2c-3.7,3-7.2,6-10.4,9.2c0,0-39.3,278.5,287.5,381.4C2281,2499.4,2241.7,2220.9,2241.7,2220.9
					z"/>
			</g>
			<g>
				<path class="st7" d="M2000.3,2290.7l57.6,8.1c7.8,1.1,10.9,10.6,5.3,16.1l-41.5,40.7c-2.2,2.2-3.2,5.3-2.7,8.4l10.1,57.3
					c1.4,7.7-6.7,13.6-13.7,10l-51.6-26.8c-2.8-1.4-6.1-1.4-8.8,0l-51.3,27.3c-6.9,3.7-15.1-2.2-13.8-9.9l9.6-57.3
					c0.5-3.1-0.5-6.2-2.8-8.4l-41.8-40.4c-5.6-5.4-2.6-15,5.2-16.2l57.5-8.6c3.1-0.5,5.7-2.4,7.1-5.2l25.5-52.2
					c3.4-7,13.5-7.1,17-0.1l25.9,52C1994.6,2288.4,1997.3,2290.3,2000.3,2290.7z"/>
			</g>
			<g>
				<path class="st4" d="M1954.2,2619.6l-5-1.6c-175.2-55.1-247.2-160.5-276.8-239.2c-32.1-85.4-22.5-157.2-22.1-160.2l0.8-5.5
					l3.9-3.9c77.2-77.2,289.8-83.3,298.8-83.5l0.4,0l0.4,0c9,0.2,221.6,6.3,298.8,83.5l3.9,3.9l0.8,5.5c0.4,3,10.1,74.8-22.1,160.2
					c-29.6,78.7-101.6,184-276.8,239.2L1954.2,2619.6z M1682.4,2228.7c-1.4,17.5-3.4,74.9,21.4,139.9
					c39.1,102.4,123.3,175.2,250.4,216.4c127.1-41.2,211.3-114,250.4-216.4c24.8-65,22.8-122.4,21.4-139.9
					c-70.2-62.8-261.5-69.6-271.7-70C1943.9,2159,1752.6,2165.9,1682.4,2228.7z"/>
			</g>
			<g>
				<path class="st7" d="M1358.8,2659.3c-171.4-35-121.9-196.1-120.8-199.9l0.1-0.1c-7-4.5-13.7-9-20.2-13.4
					c0,0,231.8-28.2,276.8-135.5c1.7-3.8,3-7.8,4.1-11.8c0,0,0,0,0.1,0C1635.6,2502,1514,2690.9,1358.8,2659.3z"/>
			</g>
			<g>
				<path class="st7" d="M1439.3,2226.3c0.4,0.4,0.8,0.8,1.2,1.2c222.9,227.7,91.5,467.1-81.7,431.7
					c-173.5-35.4-120.7-200-120.7-200c-440.2-280.3,201.3-625.3,201.3-625.3c121.2-66.9,245.9-109.2,245.9-109.2l-78.3,239.5
					l-62.2,190.3C1460.6,2191.1,1439.3,2226.3,1439.3,2226.3z"/>
			</g>
			<g class="st8">
				<path class="st4" d="M1563.3,1999.8l-18.6,154.8c-84.1,36.5-105.4,71.7-105.4,71.7c0.4,0.4,0.8,0.8,1.2,1.2
					c-22.5-18.6-52.8-39.9-84.5-51.8c0,0,58.5-32.1,78.1-55.1c84.2-99.1,62.5-181.4,141.7-171.3
					C1588.1,1950.9,1571.5,1982.8,1563.3,1999.8z"/>
			</g>
			<g>
				<path class="st4" d="M1392.2,2679.2c-12.1,0-24.3-1.2-36.7-3.7c-56.7-11.6-97.1-37.4-120.2-76.8c-29.3-50-21.6-107.2-16.1-131.9
					c-103.9-69-155-148.2-151.8-235.7c8-217.4,349.6-403.6,364.1-411.4c121-66.7,247.2-109.8,248.5-110.3c8.6-2.9,18,1.7,20.9,10.3
					c2.9,8.6-1.7,18-10.3,20.9c-1.2,0.4-124.8,42.6-243.3,108c-3.5,1.9-339.7,185.1-347,383.7c-2.8,77.7,46.5,149.5,146.6,213.2
					l10.7,6.8l-3.9,12.1c-0.2,0.6-20.3,66.1,10.1,117.8c18.2,30.9,51.2,51.4,98.2,61c64.7,13.2,124.9-15.6,157.2-75
					c40.1-73.9,37-199.4-91.7-330.2l-9-9.1l6.6-11c2.2-3.6,23.3-35.9,96.5-70.8c8.2-3.9,18.1-0.4,22,7.8c3.9,8.2,0.4,18.1-7.8,22
					c-41.5,19.8-63.8,38.2-74.4,48.9c131,139.9,131.3,276.1,86.8,358.2C1515.5,2644.1,1456.7,2679.2,1392.2,2679.2z"/>
			</g>
			<g>
				<path class="st4" d="M1430.3,2237.9c-5.6-5.9-11.9-11.9-18.1-17.6c-6.3-5.8-12.7-11.4-19.2-16.9c-13.2-10.9-26.9-21.2-42.1-29.7
					c16.9,4,33.5,10.2,49.7,17.2c8.1,3.5,16.1,7.3,24,11.2c8,4,15.7,8,23.7,12.6L1430.3,2237.9z"/>
			</g>
			<g>
				<path class="st4" d="M1245,2446.4c6.8,4.1,13.9,8.6,20.9,13l21.1,13.2l21.3,13.2c7.2,4.4,14.4,8.6,21.9,13
					c-8.6-0.3-17.1-1.6-25.6-3.1c-8.4-1.6-16.8-3.7-25-6c-8.2-2.3-16.4-4.9-24.4-7.8c-8.1-2.9-15.9-5.9-23.9-9.5L1245,2446.4z"/>
			</g>
			<g class="st3">
				<path class="st12" d="M1358.8,2659.3c-171.4-35-121.9-196.1-120.8-199.9l0.1-0.1c0,0,29.8,159.5,184.7,115.8
					c99.1-28,90.7-167.7,71.8-264.7c1.7-3.8,3-7.8,4.1-11.8c0,0,0,0,0.1,0C1635.6,2502,1514,2690.9,1358.8,2659.3z"/>
			</g>
			<g>
				<path class="st5" d="M1951.7,1968v51.9c0,0-229.7,33-352.6-194.5c-17.3-32-32.5-69.1-44.6-112.2l125.8,19.7
					c0,0,50.3,83.6,122.1,151.4C1846.3,1925.9,1898.3,1961.5,1951.7,1968z"/>
			</g>
			<g class="st8">
				<path class="st4" d="M1951.7,1968v51.9c0,0-229.7,33-352.6-194.5c31,33.6,119.4,125.4,160.3,123.1c37.4-2-43.8-59.7-40-74
					c3.9-14.4,94.7,99.5,114.1,66.1c5.3-9.2-39.5-24-31.3-56.2C1846.3,1925.9,1898.3,1961.5,1951.7,1968z"/>
			</g>
			<g>
				<path class="st4" d="M1920.4,2033.9c-30.9,0-80.4-4.1-134.8-24.8c-82-31.1-190.8-107.1-243-292.7l-5.2-18.6l150.5,23.6l3,4.9
					c1.3,2.1,129.7,212.9,262.4,229.2l10.9,1.3v73.5l-10.6,1.5C1952.2,2032.3,1940,2033.9,1920.4,2033.9z M1571.9,1728.4
					c41.1,130.6,115.8,217.2,222.4,257.6c64.4,24.4,122,24,145,22.5v-30c-130-24.8-246-201.5-266.6-234.3L1571.9,1728.4z"/>
			</g>
			<g>
				<path class="st5" d="M2223.1,1732.9c0,0-131.1,217.8-271.5,235.1v51.8c0,0,298.8,42.9,397.2-306.7L2223.1,1732.9z"/>
			</g>
			<g>
				<path class="st4" d="M1982.9,2033.9c-19.6,0-31.8-1.7-33-1.8l-10.6-1.5v-73.5l10.9-1.3c132.7-16.3,261.1-227.1,262.4-229.2
					l3-4.9L2366,1698l-5.2,18.6c-52.2,185.5-161,261.6-243,292.7C2063.3,2029.8,2013.9,2033.9,1982.9,2033.9z M1964,2008.6
					c23.2,1.4,81.4,1.8,146-22.9c106.1-40.6,180.5-127.1,221.4-257.2l-100.8,15.8c-20.6,32.9-136.7,209.6-266.6,234.3V2008.6z"/>
			</g>
			<g>
				<path class="st4" d="M1577.9,1949.9c-4.5,41.8-10,83.1-15.9,124.3c-3,20.6-5.8,41.3-9.6,61.7c-3.7,20.4-7.7,40.9-13.3,60.9
					l0,0.1c-2.4,8.8-11.6,14-20.4,11.5c-7.9-2.2-12.9-9.8-12-17.7c2.2-20.9,6.2-41.4,10.6-61.9c4.4-20.4,9.9-40.6,15.6-60.8
					c5.7-20.2,11.8-40.3,18.4-60.2c6.7-19.9,13.7-39.8,22-59.2c0.5-1.2,1.9-1.8,3.1-1.3C1577.5,1947.9,1578,1948.9,1577.9,1949.9z"
					/>
			</g>
			<g>
				<path class="st4" d="M1122.3,2367.1c-6.8,0-12.3-5.5-12.4-12.3c-0.1-48.7,40.5-99.3,103.5-128.9
					c71.7-33.6,180.6-42.6,271.4,33.2c5.2,4.4,5.9,12.2,1.6,17.4c-4.4,5.2-12.2,5.9-17.4,1.6c-81.8-68.4-180.2-60.2-245-29.8
					c-54.3,25.5-89.4,67.3-89.3,106.4C1134.6,2361.6,1129.1,2367.1,1122.3,2367.1C1122.3,2367.1,1122.3,2367.1,1122.3,2367.1z"/>
			</g>
			<g class="st8">
				<path class="st4" d="M1951.7,1968v51.9c0,0,229.7,33,352.6-194.5c-31,33.6-119.4,125.4-160.3,123.1c-37.4-2,43.8-59.7,40-74
					c-3.9-14.4-94.7,99.5-114.1,66.1c-5.3-9.2,39.5-24,31.3-56.2C2057.1,1925.9,2005,1961.5,1951.7,1968z"/>
			</g>
			<g>
				<path class="st13" d="M1923.9,1942.9l17.8-37.6c3.6-7.6,14.3-7.7,18.1-0.3l19,37c1.5,3,4.4,5,7.7,5.4l41.3,5.3
					c8.3,1.1,11.8,11.2,5.9,17.1l-29.3,29.5c-2.3,2.4-3.4,5.7-2.8,9l7.7,40.9c1.5,8.2-7,14.6-14.5,10.9l-37.1-18.8
					c-3-1.5-6.5-1.4-9.4,0.2l-36.5,20c-7.3,4-16.1-2.1-14.8-10.4l6.4-41.1c0.5-3.3-0.6-6.6-3-8.9l-30.3-28.5
					c-6.1-5.7-2.9-16,5.3-17.3l41.1-6.7C1919.6,1948.1,1922.4,1945.9,1923.9,1942.9z"/>
			</g>
			<g class="st6">
				<path class="st7" d="M2033.6,1969.9l-11.6,11.7c-1-3.6-4-6.6-8.4-7.2l-41.3-5.3c-3.3-0.4-6.2-2.4-7.7-5.4l-19-37
					c-2.4-4.6-7.4-6.3-11.6-5.1l7.7-16.2c3.6-7.6,14.3-7.7,18.1-0.3l19,37c1.5,2.9,4.4,5,7.7,5.4l41.3,5.3
					C2036,1953.8,2039.5,1963.9,2033.6,1969.9z"/>
			</g>
			<g class="st8">
				<path class="st4" d="M1937.5,2047.4l-25.8,14.1c-7.3,4-16.1-2.1-14.8-10.4l6.3-41.1c0.5-3.3-0.6-6.6-3-8.9l-30.3-28.5
					c-6.1-5.8-2.9-16,5.3-17.3l20.2-3.3c0.4,1.9,1.3,3.9,3,5.4l30.2,28.6c2.4,2.3,3.6,5.6,3.1,8.9l-6.3,41.1
					C1924.4,2043.2,1931,2048.9,1937.5,2047.4z"/>
			</g>
			<g>
				<path class="st4" d="M1906.9,2075.1c-4.5,0-9-1.4-12.9-4.1c-7.1-4.9-10.6-13.3-9.3-21.8l6.2-39.9l-29.4-27.7
					c-6.3-5.9-8.6-14.7-6.1-22.9c2.5-8.2,9.4-14.2,17.9-15.6l39.9-6.5l17.3-36.5c3.7-7.8,11.3-12.7,19.9-12.8
					c8.5-0.2,16.4,4.5,20.3,12.2l18.5,35.9l40.1,5.2c8.5,1.1,15.6,6.8,18.4,15c2.8,8.1,0.8,17-5.3,23.1l-28.5,28.7l7.5,39.7
					c1.6,8.5-1.7,16.9-8.6,22.1c-6.9,5.2-15.9,6-23.6,2.1l-36.1-18.2l-35.5,19.4C1914.3,2074.2,1910.6,2075.1,1906.9,2075.1z
					 M1881.8,1966.7l26.9,25.4c5.4,5.1,7.9,12.5,6.8,19.8l-5.7,36.6l32.5-17.8c6.5-3.5,14.3-3.7,20.9-0.3l33,16.7l-6.9-36.4
					c-1.4-7.3,0.9-14.7,6.1-20l26.1-26.3l-36.7-4.7c-7.3-0.9-13.7-5.4-17.1-12l-16.9-32.9l-15.8,33.4v0c0,0,0,0,0,0l0,0
					c-3.2,6.7-9.4,11.4-16.7,12.6L1881.8,1966.7z"/>
			</g>
			<g>
				<g>
					<path class="st7" d="M2592.2,1421.4L2592.2,1421.4c-7.1,0.5-13.2-4.8-13.8-11.8l-27.5-368.5c-0.5-7.1,4.8-13.2,11.8-13.8h0
						c74.1-5.5,138.7,50.1,144.3,124.2l9.4,125.7C2721.9,1351.3,2666.3,1415.9,2592.2,1421.4z"/>
					<path class="st4" d="M2591.2,1424.4c-3.8,0-7.4-1.3-10.3-3.8c-3.2-2.8-5.1-6.6-5.4-10.8l-27.5-368.5c-0.3-4.2,1-8.3,3.8-11.5
						c2.8-3.2,6.6-5.1,10.8-5.4c36.6-2.8,72.2,9,100,32.9c27.8,24,44.7,57.4,47.4,94l9.4,125.7c5.6,75.6-51.3,141.8-126.9,147.4l0,0
						C2592,1424.4,2591.6,1424.4,2591.2,1424.4z M2573,1029.9c-3.3,0-6.7,0.1-10,0.4c-2.6,0.2-5,1.4-6.7,3.4c-1.7,2-2.6,4.5-2.4,7.2
						l27.5,368.5c0.2,2.6,1.4,5,3.4,6.7c2,1.7,4.6,2.6,7.2,2.4l0,0c72.4-5.4,126.9-68.7,121.5-141.1l-9.4-125.7
						c-2.6-35.1-18.7-67-45.4-90C2634.6,1041,2604.4,1029.9,2573,1029.9z"/>
				</g>
				<g class="st8">
					<path class="st4" d="M2712,1218.2l4.4,58.9c5.5,74.1-50.1,138.7-124.2,144.3c-7.1,0.5-13.2-4.8-13.8-11.9l-7.4-98
						c2.3,4.3,7,7.1,12.2,6.7l8.7-0.7C2650.6,1313.3,2697.6,1272,2712,1218.2z"/>
				</g>
				<g>
					<path class="st4" d="M2591.2,1437.9c-7,0-13.7-2.5-19.1-7.1c-5.9-5.1-9.5-12.2-10.1-20l-27.5-368.5c-0.6-7.8,1.9-15.4,7-21.3
						c5.1-5.9,12.2-9.5,20-10.1c40.2-3,79.2,9.8,109.8,36.2c30.6,26.3,49.1,63,52.1,103.2l9.4,125.7
						c6.2,83.1-56.3,155.7-139.4,161.9C2592.7,1437.9,2591.9,1437.9,2591.2,1437.9z M2567.6,1043.5l27,361.1
						c63.1-6.7,110.1-62.5,105.3-126.3l-9.4-125.7c-2.4-31.5-16.8-60.1-40.7-80.7C2626.9,1052.2,2597.8,1042.1,2567.6,1043.5z"/>
				</g>
				<g>
					<path class="st7" d="M1346.3,1118.1L1346.3,1118.1c7.1-0.5,13.2,4.8,13.8,11.8l27.5,368.5c0.5,7.1-4.8,13.2-11.8,13.8h0
						c-74.1,5.5-138.7-50.1-144.3-124.2l-9.4-125.7C1216.5,1188.3,1272.1,1123.7,1346.3,1118.1z"/>
					<path class="st4" d="M1365.5,1515.6c-32.9,0-64.4-11.6-89.5-33.3c-27.8-24-44.7-57.4-47.4-94l-9.4-125.7
						c-5.6-75.6,51.3-141.8,126.9-147.4l0,0c4.2-0.3,8.3,1,11.5,3.8c3.2,2.8,5.1,6.6,5.4,10.8l27.5,368.5
						c0.6,8.7-5.9,16.3-14.6,16.9C1372.4,1515.5,1369,1515.6,1365.5,1515.6z M1347.3,1121.1c-0.3,0-0.5,0-0.8,0l0,0
						c-72.4,5.4-126.9,68.7-121.5,141.1l9.4,125.7c2.6,35.1,18.7,67,45.4,90s60.6,34.1,95.7,31.5c5.4-0.4,9.5-5.1,9.1-10.6
						l-27.5-368.5c-0.2-2.6-1.4-5-3.4-6.7C1351.9,1121.9,1349.6,1121.1,1347.3,1121.1z"/>
				</g>
				<g class="st8">
					<path class="st4" d="M1380,1396.3l7.6,102.2c0.5,7.1-4.8,13.2-11.9,13.8c-38.9,2.9-75.2-11-101.7-35.7
						c-23.9-22.3-39.9-53.3-42.5-88.5l-4-53c24.5,44.9,73.8,73.8,128.2,69.7l13.4-1C1374,1403.5,1378,1400.4,1380,1396.3z"/>
				</g>
				<g>
					<path class="st4" d="M1365.5,1529.1c-36.1,0-70.7-12.8-98.3-36.6c-30.6-26.3-49.1-63-52.1-103.2l-9.4-125.7
						c-6.2-83.1,56.3-155.7,139.4-161.9c7.8-0.6,15.4,1.9,21.3,7c5.9,5.1,9.5,12.2,10.1,20l27.5,368.5c1.2,16.1-10.9,30.2-27.1,31.4
						C1373.1,1529,1369.3,1529.1,1365.5,1529.1z M1343.9,1134.9c-63.1,6.7-110.1,62.5-105.3,126.3l9.4,125.7
						c2.4,31.5,16.8,60.1,40.7,80.7c23,19.8,52,29.8,82.2,28.5L1343.9,1134.9z"/>
				</g>
				<g>
					<circle class="st7" cx="1969.3" cy="1269.8" r="629.8"/>
					<path class="st4" d="M1969.2,1902.5c-168.1,0-326.4-65.2-445.7-183.7c-119.9-119.1-186.3-277.7-186.9-446.7
						c-1.2-348.9,281.6-633.7,630.5-635c169.2-0.8,328.1,64.6,448.1,183.7s186.3,277.7,186.9,446.7c0.6,169-64.6,328.1-183.7,448.1
						c-119.1,119.9-277.7,186.3-446.7,186.9C1970.8,1902.5,1970,1902.5,1969.2,1902.5z M1969.4,643c-0.8,0-1.5,0-2.3,0
						c-345.6,1.2-625.8,283.4-624.6,629c0.6,167.4,66.4,324.6,185.2,442.6c118.3,117.4,275,182,441.6,182c0.8,0,1.5,0,2.3,0
						c167.4-0.6,324.6-66.4,442.6-185.2c118-118.8,182.6-276.4,182-443.9c-0.6-167.4-66.4-324.6-185.2-442.6
						C2292.7,707.6,2135.9,643,1969.4,643z"/>
				</g>
				<g class="st8">
					<path class="st4" d="M2592.7,1180.4c4.1,28.5,6.2,57.6,6.4,87.2c1.2,347.8-279.7,630.8-627.5,632
						c-347.8,1.2-630.8-279.7-632-627.5c0-10,0.2-20,0.6-29.9c43.6,306.4,307.4,541.5,625.7,540.4
						C2303.6,1781.3,2578.3,1514.4,2592.7,1180.4z"/>
				</g>
				<g>
					<path class="st4" d="M1969.2,1916c-171.7,0-333.3-66.6-455.3-187.7c-122.5-121.6-190.3-283.7-190.9-456.3
						c-1.3-356.3,287.6-647.3,643.9-648.6c0.8,0,1.6,0,2.4,0c171.7,0,333.3,66.6,455.3,187.7c122.5,121.6,190.3,283.7,190.9,456.3
						l0,0c0.6,172.6-66,335.1-187.7,457.6c-121.6,122.5-283.7,190.3-456.3,190.9C1970.8,1916,1970,1916,1969.2,1916z M1969.4,656.5
						c-0.8,0-1.5,0-2.3,0C1629,657.7,1354.8,933.8,1356,1272c0.6,163.8,64.9,317.6,181.2,433c116.3,115.4,270.6,178.5,434.3,178.1
						c163.8-0.6,317.6-64.9,433-181.2c115.4-116.2,178.7-270.5,178.1-434.3l0,0c-0.6-163.8-64.9-317.6-181.2-433
						C2285.7,719.7,2132.3,656.5,1969.4,656.5z"/>
				</g>
				<g>
					<path class="st4" d="M2597.1,1283.7c2.3,123.2-35.6,238.4-102.2,334.3c-50,71.9-258.5,200-518.7,207.2
						c-241.3,6.7-463.3-117.9-516-187.9c-70.2-93.4-112.3-207-114.6-330.2c-6.1-326.1,271.5-466.5,617.1-472.9
						S2591,957.6,2597.1,1283.7z"/>
				</g>
				<g>
					<path class="st4" d="M1957.1,1842c-242.1,0-456.2-123.1-510-194.8c-74.8-99.6-115.6-217.1-117.9-339.8
						c-3-160,58.9-284.6,183.8-370.2c109-74.7,264.4-116,449.5-119.5c185.1-3.5,341.9,32,453.6,102.6
						c128.1,80.9,194.6,203.1,197.5,363.1l0,0c2.3,122.7-34.1,241.7-105.1,344c-49.3,71-255.9,206.7-531.8,214.3
						C1970.1,1841.9,1963.6,1842,1957.1,1842z M1987.1,850.4c-7.9,0-15.9,0.1-24,0.2c-183.2,3.4-608.4,54.7-601,456.1
						c2.2,115.7,40.6,226.6,111.3,320.6c50.2,66.7,266.9,187.9,502.3,181.3c260.9-7.2,461.1-136,505.6-200.2
						c67.1-96.6,101.4-208.8,99.3-324.6l0,0c-2.8-148.2-64.1-261.2-182.2-335.8C2297,884.1,2155.1,850.4,1987.1,850.4z"/>
				</g>
				<g class="st6">
					
						<ellipse transform="matrix(0.1599 -0.9871 0.9871 0.1599 783.0972 3406.5588)" class="st7" cx="2392.9" cy="1243.2" rx="111.4" ry="80.8"/>
				</g>
				<g class="st6">
					
						<ellipse transform="matrix(0.2948 -0.9556 0.9556 0.2948 220.0782 3229.7661)" class="st7" cx="2298.1" cy="1465.8" rx="51.2" ry="43.9"/>
				</g>
				<g class="st8">
					<path class="st14" d="M2469.7,981.8c77.9,71.6,124.9,170.9,127.4,301.9c2.3,123.2-35.6,238.4-102.2,334.3
						c-50,71.9-258.5,200-518.8,207.3c-91.9,2.6-181-13.9-259-39.2c319.7-15.7,573.7-172.9,635.7-262.1
						c84.6-121.7,132.6-267.9,129.7-424.2C2481.8,1057.9,2477.3,1018.6,2469.7,981.8z"/>
				</g>
				<g>
					<path class="st4" d="M1387.6,1044.6c-3.5,0-7.1-1.1-10.1-3.5c-7-5.4-8.4-15.3-3.4-22.5c107.5-164.4,320.2-261.6,583.7-266.5
						c261.3-4.9,477.5,81.1,592.9,235.9c5.1,6,5.3,14.9,0.1,21.2c-5.8,7-16.2,7.9-23.2,2.1l-1.8-1.4l-1-1.5
						c-108.8-146.6-315.3-228-566.3-223.3c-252.5,4.7-455.5,96.5-556.9,251.9l-0.9,1.2C1397.3,1042.5,1392.5,1044.6,1387.6,1044.6z
						 M1386.5,1027.3l1.1,0.8L1386.5,1027.3z"/>
				</g>
				<g class="st6">
					<path class="st7" d="M1489.8,1498.4c0,0-107-319.8,64-451.2c171-131.4,420.4-135.6,414.8-119.5c0,0-274.9,72-378.8,292.3
						C1509.6,1390,1489.8,1498.4,1489.8,1498.4z"/>
				</g>
			</g>
			<g>
				<path class="st4" d="M1898.5,2816.8c-9-0.7-16.9-2.2-25.2-4c-8.1-1.8-16.1-4.1-24-6.7c-15.8-5.1-31-11.9-45.8-19.3
					c-7.5-3.5-14.6-7.9-21.8-11.8c-7.1-4.3-14.1-8.6-20.9-13.4c-13.6-9.3-26.3-19.9-38.1-31.3c-0.9-0.9-0.9-2.3,0-3.2
					c0.7-0.7,1.7-0.9,2.5-0.5l0.1,0c14.9,6.5,29.3,13.2,44.2,18.7c7.2,3.1,14.9,5.4,22.2,8.3c7.5,2.5,14.9,5.1,22.4,7.4
					c14.9,4.8,30,8.8,45,13l11.2,3.1c3.8,1,7.5,2,11.2,3.1c7.4,2,15.1,4.1,21.9,6.2l0.8,0.2c8.2,2.5,12.8,11.1,10.3,19.3
					C1912.4,2812.9,1905.6,2817.3,1898.5,2816.8z"/>
			</g>
			<g>
				<path class="st4" d="M2034,2786.2c6.8-2.1,14.6-4.2,21.9-6.2c3.7-1.1,7.5-2.1,11.2-3.1l11.2-3.1c15-4.2,30.1-8.2,45-13
					c7.5-2.3,14.9-4.9,22.4-7.4c7.3-2.9,14.9-5.2,22.2-8.3c14.9-5.5,29.3-12.3,44.2-18.7l0.1,0c1.1-0.5,2.5,0,2.9,1.2
					c0.4,0.9,0.2,1.9-0.5,2.5c-11.7,11.4-24.4,22.1-38.1,31.3c-6.7,4.8-13.8,9.1-20.9,13.4c-7.2,4-14.3,8.3-21.8,11.8
					c-14.8,7.4-30,14.2-45.8,19.3c-7.9,2.6-15.9,4.9-24,6.7c-8.2,1.9-16.1,3.3-25.2,4c-8.5,0.7-16-5.7-16.7-14.2
					c-0.6-7.4,4.1-14,10.9-16.1L2034,2786.2z"/>
			</g>
			<g>
				<path class="st4" d="M1537.4,3134.2c10.8-2.6,21-4.1,31.5-5.1c5.2-0.6,10.5-1,15.7-1.2c5.2-0.4,10.5-0.5,15.7-0.5
					c21-0.3,42.1,1.6,62.9,4.7c20.8,3.4,41.4,8.7,61.2,15.9c19.7,7.7,38.5,17.7,54.8,30.6c1,0.8,1.1,2.2,0.4,3.1
					c-0.6,0.8-1.7,1-2.6,0.7l-0.1,0c-19-7.5-38-13-57.5-16.6c-19.6-3.3-39.2-5.1-58.9-5.9c-19.8-0.5-39.5,0.2-59.2,1.1
					c-19.6,0.9-39.7,2.5-58.7,3.8l-0.6,0c-8.5,0.6-15.9-5.8-16.5-14.4C1525,3142.7,1530.1,3135.9,1537.4,3134.2z"/>
			</g>
			<g>
				<path class="st4" d="M2395.1,3164.7c-19-1.3-39.1-2.9-58.7-3.8c-19.7-0.9-39.4-1.6-59.2-1.1c-19.7,0.8-39.4,2.6-58.9,5.9
					c-19.5,3.6-38.6,9.1-57.5,16.6l-0.1,0c-1.1,0.5-2.4-0.1-2.9-1.2c-0.4-0.9-0.1-2,0.7-2.6c16.4-12.9,35.2-22.9,54.8-30.6
					c19.8-7.2,40.4-12.4,61.2-15.9c20.8-3.1,41.9-5,62.9-4.7c5.3,0,10.5,0.1,15.7,0.5c5.2,0.3,10.5,0.6,15.7,1.2
					c10.5,1,20.7,2.5,31.5,5.1c8.3,2,13.4,10.3,11.5,18.7c-1.8,7.5-8.7,12.4-16.1,11.9L2395.1,3164.7z"/>
			</g>
		</g>
	</g>
</g>
</svg>
