<?xml version="1.0" encoding="utf-8"?>
<!-- Generator: Adobe Illustrator 22.0.0, SVG Export Plug-In . SVG Version: 6.00 Build 0)  -->
<svg version="1.1" id="Layer_1" xmlns="http://www.w3.org/2000/svg" xmlns:xlink="http://www.w3.org/1999/xlink" x="0px" y="0px"
	 viewBox="0 0 4000 4000" style="enable-background:new 0 0 4000 4000;" xml:space="preserve">
<style type="text/css">
	.st0{display:none;}
	.st1{display:inline;fill:#C5C5FF;}
	.st2{fill:#FFFFFF;}
	.st3{opacity:0.35;}
	.st4{fill:#371A45;}
	.st5{fill:#1698F9;}
	.st6{opacity:0.7;}
	.st7{fill:none;stroke:#371A45;stroke-width:26.9514;stroke-linecap:round;stroke-miterlimit:10;}
	.st8{fill:#32B1D1;}
	.st9{fill:#22A7F0;}
	.st10{fill:#848484;}
	.st11{fill:#293856;}
	.st12{fill:#21102B;}
	.st13{opacity:0.5;}
	.st14{fill:#FDD800;}
	.st15{opacity:0.6;}
	.st16{opacity:0.3;}
	.st17{fill:#FF2465;}
</style>
<g>
	<g class="st0">
		<rect class="st1" width="4000" height="4000"/>
	</g>
	<g>
		<g>
			<g>
				<path class="st2" d="M2986.6,1999.7c-40.4,164.9-154.3,231.1-237.3,266.6c-88.3,37.8-219.4,75.4-418.1,50.2
					c-27.6-3.5-56.5-8.2-86.8-14.3l-199.8-178.1l-24.1-21.5l-207.4-185l235.1-31.8l5-0.7c0,0,33.6,32.5,102.8,63.6
					c10.3,4.6,21.4,9.3,33.3,13.7c66.6,24.9,158.2,45.4,275.8,41.7c274.1-8.5,467.2-263.7,467.2-263.7S3043,1769.1,2986.6,1999.7z"
					/>
			</g>
			<g class="st3">
				<path class="st4" d="M2977.5,2031.7c-46.5,141.7-150.8,201.5-228.2,234.7c-88.3,37.8-219.4,75.4-418.1,50.2
					c-27.6-3.5-56.5-8.2-86.8-14.3l-199.8-178.1l-231.5-206.4l102.8-13.9l114,101.7l92.6,97.7c57-37.8,263.5,197.1,619.7,109.4
					C2850.1,2186,2927.2,2124.2,2977.5,2031.7z"/>
			</g>
			<g>
				<path class="st4" d="M2457.1,2342.9c-62.8,0-134.4-6.6-216.3-23c-9.7-2-16-11.4-14.1-21.2c2-9.7,11.5-16,21.2-14.1
					c251.9,50.7,402.7,4.4,494.3-34.8c79-33.8,188.4-97,226.9-254.4c40.6-165.7-9.4-218.1-31.6-232.6
					c-42.3,51.3-223,251.6-471.8,259.4c-284.4,8.8-419.5-118.6-425.1-124.1c-7.1-6.9-7.3-18.3-0.4-25.4c6.9-7.1,18.2-7.3,25.4-0.4
					c1.5,1.5,131.3,122.4,399,114c262.4-8.2,451.6-254.2,453.4-256.6l7.2-9.5l11.6,3c5.2,1.3,127.1,35.9,67.2,280.9
					c-42.3,173-161.6,242-247.7,278.9C2690.4,2311.2,2595.2,2342.9,2457.1,2342.9z"/>
			</g>
			<g>
				<path class="st4" d="M2637.2,2319c-2,0-4-0.4-6-1.3c-160.7-70.3-119.8-312.1-118-322.3c1.4-8.2,9.2-13.6,17.4-12.1
					c8.2,1.4,13.6,9.2,12.2,17.4c-0.4,2.3-38.6,228.8,100.5,289.6c7.6,3.3,11.1,12.2,7.7,19.8C2648.5,2315.6,2643,2319,2637.2,2319z
					"/>
			</g>
			<g>
				<path class="st5" d="M2744.5,1652.9l-100.9,321c-2.7,8.5,1.9,17.6,10.4,20.5l159.9,54.4c8.8,3,18.3-1.9,21-10.7l106.2-344
					c2.9-9.4-3-19.2-12.6-21l-165.2-31.4C2755.1,1640.1,2747,1645,2744.5,1652.9z"/>
			</g>
			<g class="st6">
				<path class="st2" d="M2941.1,1694.1l-106.2,344c-0.9,3.1-2.7,5.6-4.9,7.5l100.5-325.7c2.9-9.3-3-19.2-12.6-21l-165.2-31.4
					c-5.2-1-10.3,0.6-14,3.9l5.8-18.6c2.5-8,10.6-12.8,18.7-11.2l165.2,31.4C2938.1,1674.9,2944,1684.7,2941.1,1694.1z"/>
			</g>
			<g>
				<path class="st2" d="M2887.4,1733.3l-76.5,241.7c-3,9.5-13.1,14.7-22.5,11.5l-80.2-26.7c-9.3-3.1-14.3-13-11.3-22.3l74.1-230.9
					c2.8-8.5,11.5-13.7,20.3-12l22.7,4.4c2.9,0.6,4.9,3.4,4.3,6.4l0,0c-1.3,7.1,3.4,14,10.5,15.4l0,0c6.6,1.3,13.2-2.7,15.1-9.2
					l0.5-1.7c0.8-2.7,3.5-4.3,6.3-3.8l23.2,4.5C2884.3,1712.5,2890.6,1723.2,2887.4,1733.3z"/>
			</g>
			<g>
				<path class="st4" d="M2819.2,2067.7c-3.7,0-7.5-0.6-11.1-1.9l-159.9-54.4c-17.8-6.1-27.4-24.9-21.7-42.9l100.9-321
					c5.2-16.6,22.1-26.7,39.2-23.5l165.2,31.4c9.6,1.8,18,7.7,23.1,16.1c5,8.4,6.3,18.5,3.4,27.9l-106.2,344
					c-2.8,9-8.9,16.2-17.2,20.5C2829.9,2066.4,2824.6,2067.7,2819.2,2067.7z M2661.2,1977.9l156.9,53.4l105.2-340.9l-162.2-30.8
					L2661.2,1977.9z M2761.6,1658.3C2761.6,1658.3,2761.6,1658.3,2761.6,1658.3L2761.6,1658.3z"/>
			</g>
			<g>
				<path class="st2" d="M2963.1,1785.7c3.8-6.1,11.6-12.7,8.4-17.1c-27.3-37.5-81.1-56.5-97.8-1.6c-7.4,24.3,3.4,36.5,0,43.5
					c0,0-16.6,14.1-19.2,34.9c-1.9,14.9,3.7,23.6-0.8,35.7c0,0-43.7,58.7-20.1,120.2c7.3,19.1,20.4,27.2,17.6,46.9L2963.1,1785.7z"
					/>
			</g>
			<g>
				<path class="st4" d="M2851.2,2066.2c-0.8,0-1.7-0.1-2.5-0.2c-9.8-1.4-16.7-10.5-15.3-20.3c0.9-6-0.9-9.3-6.2-17.9
					c-3.2-5.2-7.2-11.8-10.4-20.1c-24.1-62.7,11.5-121.2,20.5-134.6c0.4-2,0.2-4.3-0.3-8.9c-0.6-5.5-1.4-12.4-0.3-21
					c2.3-18.3,12.1-32.3,18.9-39.9c-1.9-8.4-4.9-22.3,0.9-41.5c11.6-38,37.1-45.7,51.3-46.8c32.3-2.7,70.2,22.9,88.2,59.5
					c4.4,8.9,0.7,19.7-8.2,24.1c-8.9,4.4-19.7,0.7-24.1-8.2c-11.3-22.9-35.7-40.9-53.1-39.6c-3.4,0.3-13.6,1.1-19.8,21.5
					c-3.2,10.4-1.6,17.1-0.2,23.5c1.4,6.4,3.2,14.3-0.9,22.7l-1.7,3.4l-2.9,2.4c0,0-11.3,10.1-13,23.4c-0.5,4.4-0.1,8.2,0.4,12.6
					c0.8,7.3,1.8,16.4-2.2,27.2l-0.9,2.4l-1.5,2.1c-0.3,0.5-37.4,51.8-17.7,103c2,5.2,4.7,9.5,7.5,14.1
					c6.2,10.1,13.9,22.6,11.2,41.7C2867.7,2059.8,2860,2066.2,2851.2,2066.2z"/>
			</g>
			<g>
				<path class="st2" d="M2725.4,1713.8c0,0,47.4,0.1,35.4,47c-14.8,57.8-70.9,65.8-70.9,65.8S2651.5,1747.7,2725.4,1713.8z"/>
			</g>
			<g>
				<path class="st4" d="M2681.2,1843l-4.8-9.8c-0.8-1.7-20.6-43-6.4-82.7c7.9-22.1,24.4-39,49-50.3l3-1.4l3.3,0
					c2.9,0,28.5,0.6,43.2,19.5c6.4,8.2,12.7,22.9,6.8,46.3c-17.1,66.8-80.6,76.5-83.3,76.9L2681.2,1843z M2728.3,1729.1
					c-15.3,7.7-25.1,18.1-29.9,31.6c-6.2,17.3-2.6,36.3,0.9,48c14.5-5.3,38.7-18.8,47-51.5c2.4-9.3,1.9-16.1-1.4-20.4
					C2741.1,1731.7,2733.1,1729.7,2728.3,1729.1z"/>
			</g>
			<g>
				<path class="st4" d="M2474.2,2314.8c-3.8,0-7.5-0.1-11.2-0.4c-53.5-4.3-89.8-40.3-94.9-94c-6.5-69.1-16.9-74.3-44.8-88
					c-19.2-9.5-45.6-22.6-80.1-58.3c-131-135.6-55.2-355.2-51.9-364.5c2.3-6.5,9.4-9.9,15.9-7.6c6.5,2.3,9.9,9.4,7.6,16
					c-0.8,2.1-73.9,214.4,46.3,338.8c31.5,32.6,54.6,44,73.2,53.2c34.2,16.9,51,28.6,58.6,108.1c3.9,41.4,30.8,68.1,72,71.4
					c71.2,5.8,197.1-62.2,251.9-272.7c1.7-6.7,8.6-10.7,15.2-8.9c6.7,1.7,10.7,8.6,8.9,15.2
					C2690.6,2217.2,2570.9,2314.8,2474.2,2314.8z"/>
			</g>
			<g>
				<path class="st5" d="M1672.4,626.1c0,0,167.2,18,296.5,140.1c157.7,149,235.8,422.5,235.8,422.5l-171.1,6.1
					c0,0-61.4-293.8-297.5-393.7c-139.4-58.9-385.4-65.8-648.7,174.3c0,0,26.6-104.8,108.2-237.8c43.5-70.9,81.2-66.8,202.7-98.4
					C1546.4,600.7,1672.4,626.1,1672.4,626.1z"/>
			</g>
			<g>
				<g class="st3">
					<path class="st4" d="M2177.2,1189.7c-27.8-80.9-102-269-223.2-383.5c-129.3-122.1-296.5-140.1-296.5-140.1
						s-126.1-25.4-274.2,13.1c-121.5,31.6-159.2,27.5-202.7,98.4c-38.7,63.1-65,119.9-82,162.1c-7.8,22.6-11.2,35.7-11.2,35.7
						c263.3-240.1,509.3-233.2,648.7-174.3c236.1,99.8,297.5,393.7,297.5,393.7l170.6-6.1L2177.2,1189.7z"/>
				</g>
			</g>
			<g>
				<path class="st4" d="M2033.6,1212.8c-8.5,0-15.8-5.9-17.6-14.3c-0.6-2.8-62.5-285.9-286.9-380.8c-70.8-30-325.6-106.2-629.6,171
					c-5.9,5.3-14.5,6.2-21.3,2.1c-6.8-4.1-10.1-12.1-8.2-19.8c1.1-4.4,28.2-109,110.3-242.7c39.7-64.7,78.8-74,156.8-92.5
					c16.6-3.9,35.4-8.4,56.7-13.9c145.8-37.9,269.3-15.9,281.4-13.5c14.5,1.7,177.2,23,306.1,144.8
					c159.5,150.6,237.5,419.2,240.7,430.6c1.5,5.3,0.5,11-2.7,15.5c-3.2,4.5-8.4,7.2-13.9,7.4l-171.1,6.1
					C2034.1,1212.8,2033.8,1212.8,2033.6,1212.8z M1556.5,749.2c89.2,0,155,22.1,186.6,35.4c214,90.5,288.4,329.1,304.6,391.7
					l132.9-4.7c-22.2-67.3-97.4-272.7-223.9-392.3C1833.5,663,1672.1,644.2,1670.5,644c-0.5-0.1-1.1-0.1-1.6-0.2
					c-1.9-0.4-124.5-23.9-266.1,12.9c-21.7,5.6-40.7,10.1-57.4,14.1c-76.7,18.2-102.5,24.3-134.5,76.3
					c-42,68.5-69.3,129.7-85.7,172.2C1292,784.8,1443.1,749.2,1556.5,749.2z"/>
			</g>
			<g>
				<g>
					<path class="st2" d="M1039.1,2288.6c-55.7,128,52.5,524.9,192.5,718.6c140,193.7,513.7,1.4,718.7-124s-64.4-597-139.1-721.9
						C1694.6,1966.4,1121.6,2099,1039.1,2288.6z"/>
				</g>
				<g class="st3">
					<path class="st4" d="M1950.2,2883.2c-204.9,125.5-578.7,317.7-718.7,124c-18.3-25.4-36.1-54.2-53-85.5
						c83.4,12.5,140.8-73.5,118.9-134.4c-134.9-376.1-82.2-579.8-46.1-659.8c202.7-80.5,482.3-95.8,559.8,33.9
						C1885.9,2286.2,2155.1,2757.7,1950.2,2883.2z"/>
				</g>
				<g>
					<path class="st4" d="M1413.8,3107.9c-81.3,0-150.4-25.9-196.8-90.2c-67.2-93-131.7-238.8-172.4-389.8
						c-42-155.8-50-282.1-22-346.5c55.4-127.5,300-219.9,494.8-232.5c153.7-9.9,263.5,26.7,309.2,103.2
						c54.8,91.6,129.7,229.1,176,364.1c66.8,195.3,52.4,323.9-42.9,382.3C1785.2,3005.3,1575.5,3107.9,1413.8,3107.9z
						 M1055.6,2295.8c-52.2,119.9,54.7,513,190.6,700.9c129.3,178.9,490.7-3.9,694.7-128.8c79-48.4,88.3-162.8,27.7-340
						c-45.2-132.1-118.9-267.2-172.8-357.3c-37.9-63.4-138.5-94.6-276-85.7C1312,2098.2,1099.5,2194.8,1055.6,2295.8L1055.6,2295.8z
						"/>
				</g>
				<g>
					<path class="st2" d="M1256.7,2623.4l-113.6,15.8c-25.7,3.6-42.5,28.8-35.7,53.9c23.3,86.1,81.8,258.8,175.5,247.6
						c113.5-13.5,85.9-137.6,19.4-291.8C1294.6,2631.1,1275.9,2620.7,1256.7,2623.4z"/>
				</g>
				<g class="st3">
					<path class="st4" d="M1301.9,2648.8c66.8,154.1,94.8,278.1-18.7,291.8c-46.6,5.7-84.6-34.3-113.9-86.4
						c16.1,10.5,33.6,15.8,52.6,13.5c101.6-12.3,89.9-113.1,38.2-244.6C1277.9,2621.9,1294.7,2632.1,1301.9,2648.8z"/>
				</g>
				<g>
					<path class="st4" d="M1274.3,2956.1c-96.4,0-154.9-160.7-181.6-258.9c-4.4-16-1.6-33.2,7.5-47.1c9.2-13.9,23.9-23.3,40.5-25.6
						l113.6-16c25.8-3.6,51.1,10.5,61.4,34.3c59.4,136.9,73.5,219.5,45.9,267.8c-14.5,25.4-40.3,40.5-76.5,44.9
						C1281.4,2955.9,1277.8,2956.1,1274.3,2956.1z M1258.5,2638.2l-113.6,16c-8,1.1-15.2,5.7-19.6,12.4c-4.5,6.8-5.8,14.9-3.6,22.7
						c15.4,56.5,71,236.7,153,236.7c2.3,0,4.5-0.1,6.8-0.4c26.7-3.2,44.4-13.1,54.1-30c29.2-50.9-13.1-161.9-47.3-241
						C1283.2,2643.2,1271,2636.4,1258.5,2638.2L1258.5,2638.2z"/>
				</g>
				<g>
					<path class="st4" d="M1027.4,2311.9c13.8-2.5,27.3-4.6,41-6.7c13.6-2,27.3-3.9,41-5.6c27.4-3.3,54.8-5.9,82.5-6.9
						c5-0.2,9.1,3.7,9.3,8.7c0.2,4.6-3.2,8.5-7.6,9.2l-0.1,0c-26.6,3.9-53.1,9.4-79.4,15.5c-13.2,3.1-26.3,6.4-39.3,9.8
						c-13,3.4-26.2,7.1-38.9,10.8l-0.1,0c-9.5,2.8-19.5-2.6-22.4-12.1c-2.8-9.5,2.6-19.5,12.1-22.4
						C1026.1,2312.2,1026.8,2312.1,1027.4,2311.9z"/>
				</g>
			</g>
			<g>
				<path class="st7" d="M2541.8,2785.9"/>
			</g>
			<g>
				<path class="st7" d="M2647.1,2381.2"/>
			</g>
			<g>
				<path class="st2" d="M2012.4,1977.1l-86.6-151.4C1951.8,1880,1981.3,1930.5,2012.4,1977.1z"/>
			</g>
			<g>
				<path class="st2" d="M2824.2,2907c0,0-124.5-54.4-254.2-81.1c-85-17.5-172.3-23.1-228.1,6.4c0,0-408.1,398.2-796-139.8
					c-123-170.6-175.5-308.3-181.2-419.5c-0.8-15.6-0.7-30.7,0.3-45.3c1-15.4,3-30.2,5.9-44.5c7.9-39.3,22.4-74.5,41.9-106
					c14.8-23.9,32.5-45.6,52.3-65.4c183.8-183.4,554.3-201.1,554.3-201.1c9.2,26.1,18.7,51.2,28.7,75.3
					c18.8,45.8,38.7,88.1,59.2,127c5.9,11.2,11.9,22.1,17.9,32.8c70.6,125.5,146.4,213.5,206,270.8c64.1,61.7,109.4,88.2,109.4,88.2
					c311.8-131.7,436.2,127.2,436.2,127.2s199.4-202.3,245.4,13.8C3156.3,2705.6,2970,2961.8,2824.2,2907z"/>
			</g>
			<g class="st3">
				<path class="st4" d="M2824.2,2907c0,0-341.3-149.3-482.3-74.7c0,0-408.1,398.2-796-139.8c-123-170.6-175.5-308.3-181.2-419.5
					c-1.7-32.1,0.6-62,6.2-89.8c2.2-11,4.9-21.7,8.1-32c-0.2,9,0,18.2,0.4,27.6c5.7,111.2,58.2,248.9,181.2,419.5
					c387.9,538,768.5,85.4,768.5,85.4c238.5-133.5,382,119.6,497.3,147.1c115.3,27.5,255.8-112.7,299.7-250.7
					C3130.7,2739.6,2959.9,2958,2824.2,2907z"/>
			</g>
			<g>
				<path class="st4" d="M2149.7,2076c13.1,13.6,24.5,28,36.1,42.3c12,13.9,22.7,28.8,34.4,42.8c5.7,7.1,11.3,14.3,16.9,21.5
					c5.7,7.1,11.7,14,17.3,21.1c11.4,14.2,23.5,27.7,35.2,41.6c24.1,27.2,48.8,53.8,75.6,78.1c6.7,6.1,13.4,12.2,20.3,18l10.3,8.8
					l10.6,8.4c7,5.6,14.3,10.9,21.5,16.2c3.6,2.6,7.3,5.2,10.9,7.6c3.6,2.4,7.5,5,10.7,6.9l-16-1c39.8-16.8,81.9-29.5,125.5-35.3
					c43.5-6,88.8-4.2,131.9,7.4c43.2,11.2,83.5,33,117.6,61.2c17.1,14.1,32.8,29.8,46.8,46.9c7.1,8.5,13.7,17.3,19.9,26.5
					c3.1,4.6,6.1,9.2,9,14c1.5,2.4,2.9,4.8,4.3,7.3c1.4,2.6,2.7,4.8,4.2,8l-29-4.8c11-10.9,21.9-20.3,33.4-29.6
					c11.5-9.2,23.5-18,36.1-26.1c12.6-8.1,25.8-15.5,40-21.6c14.2-6.1,29.3-11,45.8-13.1c16.3-2,34.5-0.7,51,6.5
					c16.6,7,30.1,19.5,39.6,33l3.7,5.1l3,5.3c1.9,3.5,4.2,7,5.8,10.6c3.2,7.2,6.6,14.4,8.8,21.8l3.6,11l2.8,11
					c0.8,3.7,2,7.2,2.6,11.1l1.9,11.6c4.3,30.9,1.4,61.6-4.7,91c-6.5,29.3-16.6,57.4-29.1,84.2c-12.6,26.8-27.8,52.3-45.4,76.1
					c-17.6,23.8-37.4,46-60,65.7c-11.5,9.6-23.3,19-36.3,27c-6.3,4.3-13.2,7.8-19.9,11.5c-3.4,1.8-7,3.3-10.5,4.9
					c-3.5,1.6-7,3.3-10.7,4.5l-11,4l-11.5,3.1c-3.8,1.1-7.7,1.8-11.7,2.4c-4,0.5-7.8,1.5-11.9,1.6c-16.1,1.7-32.5,0-48.5-4
					l-12.1-3.8l-1.5-0.5l-1.5-0.7l-2.4-1l-4.8-2l-19.5-7.9c-13-5.2-26.2-10.2-39.4-15c-26.4-9.6-53-18.6-79.9-26.8
					c-26.8-8.2-53.9-15.5-81.1-21.8c-27.2-6.3-54.6-11.5-82.1-14.2c-27.5-2.6-54.7-4-81.6-3.9c-27.1,0.1-52.7,2.3-80.5,7.3l-0.6,0.1
					c-3.3,0.6-6.5-1.6-7.1-4.9c-0.4-2.2,0.5-4.4,2.1-5.8c5.7-4.9,11.9-9.9,18.7-13.4c3.4-1.8,6.8-3.8,10.2-5.4l10.7-4.2
					c7.2-3,14.5-4.4,21.9-6.5c3.7-0.7,7.4-1.4,11.1-2c3.7-0.6,7.5-1.3,11.2-1.5c29.9-3.2,59.6-1.1,88.4,3.2
					c28.9,4.4,57.4,9.7,85.6,16.2c28.2,6.5,56,14.1,83.5,22.5c27.5,8.4,54.7,17.6,81.7,27.4c13.5,4.9,26.9,10,40.3,15.3l20,8.1
					l5,2.1l2.5,1.1l0.9,0.4l1,0.3l8.3,2.5c11.5,2.7,23.7,4.2,36,2.9c3.1,0,6.1-0.9,9.2-1.3c3.1-0.5,6.1-0.9,9.2-1.9l9.1-2.4l9-3.3
					c3-1,6-2.4,8.9-3.7c2.9-1.4,5.9-2.6,8.8-4.1c5.7-3.2,11.5-6.1,17-9.8c11.3-6.8,21.7-15.3,32-23.8c20.2-17.7,38.4-38,54.6-59.9
					c16.2-21.9,30.3-45.4,41.8-70.1c11.5-24.6,20.7-50.3,26.5-76.5c5.4-26.2,7.8-52.9,4.2-78.4l-1.6-9.5c-0.5-3.1-1.5-6.4-2.2-9.6
					l-2.4-9.7l-3.1-9.2c-1.8-6.3-4.6-11.9-7.1-17.7c-1.2-2.9-3-5.4-4.4-8.1l-2.2-4l-2.6-3.5c-6.8-9.6-15.1-17-24.8-21.1
					c-9.6-4.2-20.8-5.2-32.5-3.8c-23.7,3-48.2,14.8-70.7,29.2c-11.3,7.3-22.3,15.3-33,23.8c-10.5,8.5-21.2,17.8-30.3,26.8
					l-17.7,17.5l-11.3-22.3c-1.8-3.5-4.4-8.2-6.9-12.2c-2.5-4.2-5.2-8.4-8-12.4c-5.6-8.2-11.5-16.2-17.9-23.8
					c-12.6-15.4-26.7-29.5-42-42.1c-30.6-25.1-65.9-44.3-104.1-54.2c-38-10.2-78.3-12-117.9-6.5c-39.7,5.3-78.7,16.9-116.2,32.8
					l-8.4,3.6l-7.6-4.6c-4.7-2.8-8.5-5.4-12.6-8.1c-4.1-2.7-7.9-5.5-11.8-8.2c-7.7-5.6-15.4-11.2-22.8-17.1l-11.1-8.8l-10.9-9.1
					c-7.4-6-14.4-12.3-21.4-18.5c-28-25.2-54.9-51.6-80.2-79.5c-12.2-14.3-24.8-28.3-36-43.4c-5.7-7.4-11.6-14.8-17-22.5
					c-5.4-7.7-10.8-15.3-16.1-23.1c-5.4-7.7-10.4-15.6-15-23.8c-4.8-8.1-9.5-16.2-13.9-24.5c-8.7-16.6-16.5-33.8-23.2-51.4
					c-1.2-3.1,0.4-6.7,3.5-7.8c2.3-0.9,4.9-0.2,6.5,1.5L2149.7,2076z"/>
			</g>
			<g>
				<path class="st2" d="M2407,3173.5"/>
			</g>
			<g>
				<path class="st8" d="M1630.4,2300.3"/>
			</g>
			<g>
				<path class="st2" d="M2817.6,3189.4c-20.3,109.8-149.5,201.9-285.5,168.7c-89.9-21.9-153.3-80.7-192.7-133.1
					c-46.1-61.3-82.3-126.2-148.3-145.9c-75.2-22.5-174.9,126-432.4,40.3c-80.3-26.7-181.7-97.8-270.5-215.3
					c-28.7-37.9-56-80.5-80.9-128.2c-53.8-102.8-96.3-228.5-116-377.9c-8.5-64.8-12.8-134-11.9-207.8c0.4-34.2,2-69.4,4.8-105.6
					c3.7-48.6,9.6-98.9,18-151l82.6,107l28.1,36.3l20.2,26.1l126.4,163.8l193.2,250.3l225.5,292.2l15.6,20.3
					c13.5-20.5,28.7-39.8,45.4-57.7c50.8-54.3,115.1-94.9,187-115.3c1.5-0.4,3-0.9,4.5-1.3c33.7-9.1,69.6-14.1,105.2-10.9
					c101.7,9,197.2,96.6,234,181.2c10.4,23.8,16.1,47.3,15.9,68.9c-0.3,38.6,0.1,80.9,0.1,80.9
					C2615.9,2983.9,2840.7,3064,2817.6,3189.4z"/>
			</g>
			<g class="st3">
				<path class="st4" d="M2817.6,3189.4c-20.3,109.8-149.5,201.9-285.5,168.7c-89.9-21.9-153.3-80.7-192.7-133.1
					c-46.1-61.3-82.3-126.2-148.3-145.9c-75.2-22.5-174.9,126-432.4,40.3c-80.3-26.7-181.7-97.8-270.5-215.3
					c-4-5.3-8-10.7-11.9-16.2c-3.1-4.3-6.2-8.7-9.3-13.1c-1.8-2.5-3.5-5-5.3-7.6c-5.7-8.4-11.2-16.9-16.8-25.7
					c-1.3-2.2-2.7-4.4-4-6.6c-1.6-2.5-3.1-5-4.6-7.5c-1.7-2.8-3.3-5.5-4.9-8.3c-5-8.4-9.9-17-14.6-25.7c-3.2-5.7-6.3-11.6-9.4-17.5
					c-102.6-196-163.9-475.2-105.2-842.2l7.6,9.9c-34,379.2,65,653.4,193,829.1c126.5-23.2,241.2-112.1,273.2-138.8l-20.3-33
					c-16.2-26.2-16.3-57.9-3-83.5c4.3-8.4,10.1-16.2,17.2-22.9c4-3.9,8.6-7.3,13.5-10.3l335.4-206.7c39.8-24.5,92.3-12.1,116.8,27.7
					l21.1,34.2c2.2-1.6,4.5-3,6.9-4.3c36.3-19.5,81.5-5.9,100.9,30.4c19.4,36,6.1,80.9-29.7,100.6l10.9,17.6
					c24.5,39.8,11.9,92.3-27.8,116.7l-91.6,56.4l-187,115.3l-56.8,35c-1.4,0.9-2.8,1.7-4.2,2.4c-39.1,21.2-88.9,8.3-112.5-30.1
					l-16.5-26.8c-101.3,70.7-187,108.7-251.4,129c64.2,61,129.4,100.4,184.7,118.8c257.5,85.7,357.2-62.8,432.4-40.3
					c66,19.7,102.2,84.7,148.3,145.9c39.5,52.4,102.9,111.2,192.7,133.1c106.3,26,208.6-24.7,257.7-100.5
					C2819.2,3154.5,2820.9,3171.5,2817.6,3189.4z"/>
			</g>
			<g>
				<path class="st4" d="M1988.8,2826.5c33.3-66,89.2-121.3,155.9-156.8c8.2-4.6,16.9-8.5,25.4-12.6c8.7-3.6,17.4-7.5,26.4-10.6
					c17.8-6.5,36-11.9,54.8-15.5c18.7-3.7,37.9-6,57.2-6.4c9.7-0.2,19.4,0.1,29.1,1c4.9,0.6,9.8,1.2,14.7,1.9
					c4.8,1,9.7,1.7,14.5,2.9c38.3,8.9,73.4,26.6,104.3,48.8c31,22.3,58.1,49.5,80.7,80.1c22.4,30.7,41,65.2,49,104.6
					c1.9,9.9,3,20,3,30.4l0.1,27.1l0.1,54.1l-13.2-17.2c8.5,2.4,15.8,5,23.4,7.8c7.5,2.7,14.9,5.7,22.3,8.7
					c14.7,6.1,29.2,12.6,43.5,19.7c28.5,14.3,56.3,30.5,81.9,50.8c12.8,10.1,25.1,21.3,36.2,34c11.1,12.7,21.1,27,28.3,43.3
					c7.2,16.2,11.3,34.6,10.5,53c-0.9,18.8-5.3,34.8-11.2,50.8c-12.1,31.8-31.8,59.9-55.7,83c-23.9,23.2-52.3,41.5-83,54.1
					c-30.7,12.6-63.9,19.3-97.2,19.4c-16.6,0.1-33.3-1.5-49.6-4.6l-12.2-2.6l-11.9-3.2l-5.9-1.6l-5.8-1.9l-11.6-3.9
					c-15.3-5.8-30.3-12.5-44.6-20.4c-14.3-8-28.1-16.7-41.1-26.4c-26-19.5-49.5-42.1-70-67.1c-20.6-25.2-37.5-50.9-55.8-75.2
					c-18.1-24.2-37.3-46.7-60.1-62.4c-2.8-1.9-5.7-3.9-8.7-5.5c-3-1.6-5.8-3.5-9-4.8c-3.1-1.3-6.1-3-9.3-4l-4.8-1.7
					c-1.5-0.5-3.4-1.3-4.5-1.4c-9.8-2.8-22.3-0.9-35.6,3.3c-13.3,4.3-27.2,10.4-41.3,16.5c-14.1,6.2-28.6,12.5-43.5,18.3
					c-29.7,11.5-61,20.8-93.2,25.5c-16,2.6-32.2,3.7-48.4,4.4c-8.1,0-16.2,0.3-24.3-0.1l-12.1-0.5l-12.1-1
					c-32.1-2.8-63.8-9-94.4-17.8c-7.7-2.2-15.2-4.7-22.9-7c-7.6-2.3-15.3-5.5-22.9-8.2c-7.6-3-14.9-6.5-22.3-9.7
					c-7.3-3.4-14.4-7.3-21.6-10.9c-56.5-30.9-106.3-71.4-150.4-116.8l-16.3-17.3c-5.4-5.8-10.4-11.9-15.7-17.8
					c-10.6-11.8-20.1-24.4-30-36.7c-4.9-6.2-9.4-12.7-14.1-19.1c-4.6-6.4-9.5-12.6-13.7-19.3c-8.6-13.2-17.8-26.1-25.7-39.8
					c-33-53.8-60.6-110.7-83-169.5c-45-117.7-68.8-242.5-77-367.4l-2.5-46.9c-0.6-7.8-0.4-15.7-0.6-23.5l-0.5-23.5
					c-0.1-7.8-0.5-15.7-0.3-23.5l0.5-23.5l0.7-23.5l0.4-11.7l0.9-11.7c1.2-15.6,2.7-31.2,4.2-46.8c0.6-7.8,2.1-15.5,3.2-23.3
					c1.1-7.7,2.3-15.5,3.7-23.2c1.4-7.7,2.5-15.4,4.1-23.1c1.7-7.6,3.4-15.3,5.4-22.9c3.7-15.2,7.9-30.3,12.7-45.3
					c1-3.2,4.5-4.9,7.6-3.9c2.5,0.8,4.1,3.1,4.2,5.7l0,0.1c1,62.6-4.6,123.5-6.9,184.7c-1.1,15.3-1,30.6-1.7,45.9l-0.9,22.9
					c-0.4,7.6-0.2,15.3-0.3,22.9c0,15.3-0.4,30.6,0.1,45.9l1.9,45.8c8,121.9,31.2,243.1,74.7,356.9c21.7,56.9,48.4,111.8,80.1,163.5
					c7.6,13.2,16.4,25.5,24.7,38.2c4.1,6.4,8.8,12.3,13.2,18.5c4.5,6.1,8.8,12.4,13.5,18.3c9.5,11.8,18.6,23.9,28.7,35.2
					c5,5.7,9.8,11.5,15,17.1l15.6,16.5c42,43.3,89.5,81.7,141.7,110.2c6.6,3.3,13.1,6.9,19.8,10.1c6.8,2.9,13.4,6.2,20.3,8.8
					c6.9,2.5,13.5,5.3,20.8,7.5c7.2,2.2,14.3,4.6,21.5,6.6c28.8,8.2,58.2,14,87.8,16.5c29.5,2.6,59.2,2,88.3-2.5
					c29.2-4.3,57.6-12.7,85.6-23.5c14-5.4,27.9-11.5,42.1-17.7c14.2-6.2,28.7-12.6,44.9-17.9c8.2-2.5,16.7-4.8,26.1-5.7
					c9.3-0.9,19.6-0.9,29.6,2c17.4,4.9,32.9,12.7,47.2,22.4c28.4,19.6,49.6,45.3,68.5,70.4c19,25.1,36.2,51.2,54.8,73.9
					c37.6,45.7,85.6,82.9,140.5,103l10.4,3.5l5.2,1.7l5.3,1.4l10.5,2.9l10.5,2.3c14.1,2.7,28.4,4,42.7,4
					c28.6-0.1,57.2-5.9,83.7-16.8c26.5-10.9,51.1-26.8,71.6-46.7c20.5-19.9,37.1-43.8,47.1-69.9c4.9-12.9,8.4-27.2,8.9-39.4
					c0.5-12.6-2.2-25.2-7.5-37.2c-10.7-24.2-31-45.5-53.8-63.5c-22.9-18.1-48.9-33.4-75.7-46.8c-13.4-6.7-27.2-12.9-41.1-18.6
					c-7-2.8-14-5.6-21-8.1c-6.9-2.5-14.3-5.1-20.6-6.9l-13.2-3.8l0-13.4l-0.1-54.4l-0.1-27.2c-0.1-7.7-0.9-15.6-2.4-23.5
					c-6.4-31.7-22.5-62.7-42.7-90.2c-20.2-27.6-45.1-52-73-71.7c-27.8-19.7-59-34.6-91.3-41.5c-31.9-6.8-66.5-5.3-99.8,1.5
					c-16.7,3.5-33.4,7.9-49.7,13.6c-8.2,2.6-16.1,6-24.2,9c-7.9,3.5-15.9,6.7-23.5,10.8c-62.1,30.6-116.3,76.2-162.6,130.9l0,0
					c-2.2,2.5-6,2.9-8.5,0.7C1988.1,2832,1987.6,2828.9,1988.8,2826.5z"/>
			</g>
			<g>
				<path class="st4" d="M2216.5,3103.1c-4.3,0-8.5-2.1-11.1-5.9c-76.5-112-47.2-251.1,15.8-339.3c56.8-79.5,138.9-116,214.2-95.2
					c7.2,2,11.4,9.4,9.4,16.6c-2,7.2-9.4,11.4-16.6,9.4c-65.1-18-134.2,13.7-185.1,84.9c-55.7,77.9-84.3,207.7-15.5,308.4
					c4.2,6.1,2.6,14.5-3.5,18.7C2221.8,3102.3,2219.1,3103.1,2216.5,3103.1z"/>
			</g>
			<g>
				<path class="st4" d="M2600,2981.4c-4.7,9.3-9.4,17.4-14.6,25.7c-5.1,8.2-10.5,16.2-16.2,24c-11.4,15.6-23.9,30.4-38,43.7
					c-14,13.2-29.7,25-47,33.4c-8.7,4.1-17.7,7.6-27,9.6c-9.3,2-18.8,2.9-28.2,2.5c9.4-0.9,18.5-3,27.1-6.1
					c8.7-3.1,16.8-7.6,24.4-12.5c7.7-4.9,14.7-10.8,21.3-17.1c6.6-6.2,12.8-13,18.5-20.1c11.5-14.1,21.3-29.5,30-45.5
					c4.3-8,8.4-16.1,12.1-24.4c3.7-8.2,7.3-16.9,10-24.7l0.1-0.2c2.7-7.9,11.2-12.1,19.1-9.4s12.1,11.2,9.4,19.1
					C2600.6,2980.1,2600.3,2980.8,2600,2981.4z"/>
			</g>
			<g>
				<path class="st4" d="M2640.8,2856.5c-3.6,0-7.3-1.5-9.9-4.4c-83-90.5-121.7-183.2-115.1-275.7
					c9.5-132.4,108.3-214.7,112.5-218.1c5.8-4.7,14.3-3.9,19,1.9c4.7,5.8,3.9,14.2-1.9,19l0,0c-0.9,0.8-94.3,78.8-102.8,199.5
					c-6,84.7,30.4,170.5,108.1,255.2c5,5.5,4.7,14-0.8,19C2647.3,2855.3,2644,2856.5,2640.8,2856.5z"/>
			</g>
			<g>
				<g>
					
						<ellipse transform="matrix(0.7071 -0.7071 0.7071 0.7071 -980.6268 2301.3789)" class="st2" cx="2287.7" cy="2334.4" rx="74.5" ry="74.5"/>
				</g>
				<g class="st3">
					<path class="st4" d="M2353.3,2299.1c19.5,36.3,5.9,81.5-30.4,101c-36.3,19.5-81.5,5.9-101-30.4c-5.4-10-8.3-20.8-8.8-31.5
						c22.5,16.5,53.4,19.7,79.6,5.7c26.2-14.1,40.6-41.6,39.2-69.4C2340.6,2280.8,2348,2289.1,2353.3,2299.1z"/>
				</g>
				<g>
					<path class="st4" d="M2287.8,2424c-8.7,0-17.4-1.3-25.9-3.8c-22.9-6.9-41.7-22.3-53.1-43.4c-23.4-43.5-7-97.9,36.5-121.3
						c21.1-11.3,45.3-13.7,68.2-6.9c22.9,6.9,41.7,22.3,53.1,43.4l0,0c11.3,21.1,13.8,45.3,6.9,68.2c-6.9,22.9-22.3,41.7-43.4,53.1
						C2316.9,2420.4,2302.4,2424,2287.8,2424z M2287.6,2274.9c-9.5,0-19.1,2.3-28.1,7.1c-28.9,15.5-39.8,51.7-24.3,80.6
						c7.5,14,20.1,24.3,35.3,28.8c15.2,4.6,31.3,3,45.3-4.6c14-7.5,24.3-20.1,28.8-35.3c4.6-15.2,3-31.3-4.6-45.3l0,0
						C2329.4,2286.3,2308.8,2274.9,2287.6,2274.9z"/>
				</g>
				<g>
					<path class="st2" d="M2306.7,2534.1l-335.5,206.7c-39.7,24.5-92.2,12-116.8-27.7l-110-178.5c-21.4-34.8-14.5-79.4,14.2-106.4
						c4-3.9,8.6-7.3,13.5-10.4l335.4-206.7c39.8-24.5,92.3-12.1,116.8,27.7l87.2,141.4l22.9,37.1
						C2359,2457.1,2346.4,2509.6,2306.7,2534.1z"/>
				</g>
				<g class="st3">
					<path class="st4" d="M2306.7,2534.1l-335.5,206.7c-39.7,24.5-92.2,12-116.8-27.7l-110-178.5c-21.4-34.8-14.5-79.4,14.2-106.4
						c26.8,0.9,43.9,1.6,43.9,1.6c104.6,133.2,163.8,243.3,377.1,91.6c73.5-52.3,111-106.5,131.9-141.1l22.9,37.1
						C2359,2457.1,2346.4,2509.6,2306.7,2534.1z"/>
				</g>
				<g>
					<path class="st4" d="M1926.9,2770.9c-34.4,0-68-17.3-87.3-48.6l-110-178.5c-29.6-48-14.6-111.2,33.4-140.8l335.4-206.7
						c48.1-29.6,111.2-14.6,140.8,33.4l110,178.5c29.6,48,14.6,111.2-33.4,140.8l-335.4,206.7l-9.2-14.9l9.2,14.9
						C1963.8,2766,1945.3,2770.9,1926.9,2770.9z M2152.1,2216c-12.1,0-24.2,3.2-35.2,10l-335.4,206.7c-31.6,19.5-41.5,61.1-22,92.7
						l110,178.5c19.5,31.6,61.1,41.5,92.7,22l335.4-206.7c31.6-19.5,41.5-61.1,22-92.7l-110-178.5
						C2196.8,2227.4,2174.7,2216,2152.1,2216z"/>
				</g>
				<g>
					<path class="st2" d="M2319.4,2524.5c-3.8,3.6-8,6.8-12.7,9.6l-335.5,206.7c-29.1,17.9-65.1,16.1-91.9-1.9
						c-9.8-6.5-18.3-15.2-24.8-25.8l-48.9-79.3l-16.1-26.2l-45-73c-24.5-39.7-12-92.3,27.7-116.8l72.5-44.7
						c-29.5,26.9-36.8,72-15.2,107.2l59.4,96.4l50.6,82.1c24.5,39.7,77.1,52.2,116.8,27.7L2319.4,2524.5z"/>
				</g>
				<g class="st3">
					<path class="st4" d="M2319.4,2524.5c-3.8,3.6-8,6.8-12.7,9.6l-335.5,206.7c-39.7,24.5-92.2,12-116.7-27.8l-65-105.5
						c19.9,13.4,49.2,27,74.9,14.4c14.1-6.9,21.3-24.5,24.5-45.2l50.6,82.1c24.5,39.7,77.1,52.2,116.8,27.7L2319.4,2524.5z"/>
				</g>
				<g>
					<path class="st4" d="M1927.1,2770.9c-8,0-16-0.9-24-2.8c-26.7-6.3-49.2-22.6-63.5-45.8l-110-178.5
						c-29.6-48-14.6-111.2,33.4-140.8l72.5-44.6l21,27.8c-23.9,21.8-29,57.6-12,85.1l110,178.5c9.4,15.2,24.2,25.9,41.8,30.1
						c17.6,4.2,35.6,1.3,50.8-8.1l263.1-162.2l21.1,27.7c-4.7,4.4-10,8.4-15.5,11.8l-335.4,206.7
						C1964.2,2765.8,1945.9,2770.9,1927.1,2770.9z M1800.6,2420.9l-19.2,11.8c-31.6,19.5-41.5,61.1-22,92.7l110,178.6
						c9.4,15.2,24.2,25.9,41.8,30.1c17.6,4.2,35.6,1.3,50.8-8.1l21.5-13.3c-24.7-7-45.4-22.7-58.9-44.6l-110-178.5
						C1801.6,2468.4,1797.2,2444.1,1800.6,2420.9z"/>
				</g>
				<g>
					<path class="st9" d="M2017.7,2489.6c4,6.6,27.3,65.8,27.3,65.8s-16.9,10.3-37.7,23c-26,15.8-63.4,1.7-83.6-31.5
						c-20.2-33.2-15.5-72.9,10.5-88.7c17.5-10.7,37.7-23,37.7-23S2011.2,2478.8,2017.7,2489.6z"/>
				</g>
				<g class="st3">
					<path class="st4" d="M2017.7,2489.6c4,6.6,27.3,65.8,27.3,65.8s-16.9,10.3-37.7,23c-26,15.8-63.4,1.7-83.6-31.5
						c-20.2-33.2-15.5-72.9,10.5-88.7c17.5-10.7,37.7-23,37.7-23S2011.2,2478.8,2017.7,2489.6z"/>
				</g>
				<g>
					<path class="st4" d="M1983.5,2598.3c-8.2,0-16.6-1.6-25-4.7c-18.6-7-35.1-21.1-46.4-39.7c-24-39.5-17.3-87.6,15-107.3
						l47.3-28.8l7.5,8.3c6.7,7.4,40.5,45.2,47.4,56.5l0,0c4.2,6.9,21.2,49.7,28.3,67.9l4.1,10.5l-47.4,28.9
						C2005,2595.5,1994.5,2598.3,1983.5,2598.3z M1969.3,2452.5l-28.2,17.1c-19.6,11.9-22.3,43.4-6,70.2
						c8.2,13.5,19.9,23.6,32.9,28.5c11.8,4.5,23.3,3.9,32.2-1.5l28-17.1c-9.8-24.8-19.9-49.3-22.1-53.2
						C2002.5,2490.5,1983.9,2468.9,1969.3,2452.5z"/>
				</g>
				<g>
					
						<ellipse transform="matrix(0.8543 -0.5198 0.5198 0.8543 -1004.3215 1407.4198)" class="st9" cx="2008.4" cy="2495.2" rx="55.1" ry="70.4"/>
				</g>
				<g class="st3">
					<path class="st4" d="M1961.4,2523.9c20.2,33.2,57.6,47.3,83.6,31.5c26-15.8,30.7-55.6,10.5-88.8c-2.7-4.5-5.8-8.6-9.1-12.4
						c7.2,26.9-0.1,53.6-20.3,65.8c-22.4,13.7-53.5,5-74.5-19.1C1953.6,2508.7,1956.9,2516.5,1961.4,2523.9z"/>
				</g>
				<g>
					<path class="st2" d="M1961.4,2523.9c1.4,2.3,2.8,4.4,4.4,6.5c-10.7-29.1-3.9-59.6,18.1-73c24.2-14.7,58.4-3.5,79.2,25
						c-1.9-5.4-4.5-10.7-7.6-15.8c-20.2-33.2-57.6-47.3-83.6-31.5C1945.9,2451,1941.2,2490.7,1961.4,2523.9z"/>
				</g>
				<g>
					<path class="st4" d="M2021.5,2575.2c-26.4,0-54.5-16.3-71.6-44.4c-24-39.5-17.3-87.6,15-107.3c16.2-9.8,36-11.2,55.7-3.7
						c18.6,7,35.1,21.1,46.4,39.7c11.3,18.6,16.3,39.7,13.9,59.5c-2.5,21-12.8,37.9-28.9,47.8
						C2042.7,2572.5,2032.2,2575.2,2021.5,2575.2z M1995.6,2442.1c-6.1,0-11.8,1.5-16.8,4.5c-19.6,11.9-22.3,43.4-6,70.2
						c16.3,26.8,45.5,38.9,65.1,27c9-5.4,14.7-15.4,16.2-27.9c1.6-13.8-2-28.8-10.2-42.3c-8.2-13.5-19.9-23.6-32.9-28.5
						C2005.8,2443.1,2000.6,2442.1,1995.6,2442.1z"/>
				</g>
				<g>
					<path class="st4" d="M2201.7,2609.6c-4.3,0-8.5-2.2-10.8-6.2l-66.6-113.9c-6.4-10.9-6.9-24.3-1.3-35.6l23.1-47
						c1.9-3.9,1.7-8.5-0.6-12.2l-91.8-150.2c-3.6-5.9-1.7-13.6,4.1-17.2c5.9-3.6,13.6-1.7,17.2,4.1l91.8,150.2
						c6.8,11.1,7.4,24.6,1.7,36.3l-23.1,47c-1.9,3.8-1.7,8.3,0.4,12l66.6,113.9c3.5,6,1.5,13.6-4.5,17.1
						C2206,2609,2203.8,2609.6,2201.7,2609.6z"/>
				</g>
				<g>
					<path class="st2" d="M1379.5,2706.8c0,0-21.4,43.9,3,83.7c28.2,46,74.5,47.8,74.5,47.8s159.4,9.7,402-166.9
						c0,0,21-107.8-85.1-111.3C1773.8,2560,1567.2,2745.1,1379.5,2706.8z"/>
				</g>
				<g class="st3">
					<path class="st4" d="M1381.9,2789.6C1381.9,2789.6,1381.9,2789.6,1381.9,2789.6c28.1,46.9,75,48.7,75,48.7
						s159.4,9.7,401.9-166.9c0,0,16.1-82.4-50.8-105.5c0.1,0.3,0.3,0.6,0.4,0.9c13.4,31.4,2,68.1-26.2,87.3
						c-224.2,152.8-369.4,144-369.4,144S1399,2797.6,1381.9,2789.6z"/>
				</g>
				<g>
					<path class="st4" d="M1462.1,2855.9c-3.5,0-5.6-0.1-6.3-0.1c-1.9-0.1-55.6-2.7-88.3-56.1c-8.1-13.2-12.8-28-14-43.8
						c-1.2-16.4,4.8-32.6,16.4-44.4c12-12.1,28.8-18.5,46-17.4c143.3,9.1,292-102.5,334.1-136.9c13.3-10.9,30.5-15.3,47-12.2
						c51,9.6,80.5,47.4,81,103.8c0.2,19.1-9.1,37.1-24.8,48.2C1640.7,2847,1493.9,2855.9,1462.1,2855.9z M1412.1,2728.9
						c-6.5,0-12.8,2.6-17.3,7.1c-4.6,4.6-6.9,10.7-6.4,17.2c0.8,10.3,3.8,19.7,8.9,28.1c22.7,37,58.8,39.4,60.3,39.5
						c1.7,0.1,150.5,6.2,375.3-152.5c6.3-4.5,10.1-11.7,10-19.3c-0.4-39.8-18-63.2-52.5-69.7c-6.4-1.2-13.1,0.6-18.4,4.9
						c-44.6,36.4-202.4,154.5-358.5,144.7l0,0C1413.2,2728.9,1412.7,2728.9,1412.1,2728.9z"/>
				</g>
			</g>
			<g class="st3">
				<path class="st4" d="M2244.4,2636.3c-2.4-5.1-14-29.3-32.1-68.1C2230.5,2607,2242,2631.3,2244.4,2636.3z"/>
			</g>
			<g class="st3">
				<path class="st4" d="M2244.9,2637.3L2244.9,2637.3c0,0-0.1-0.3-0.4-1C2244.7,2637,2244.9,2637.3,2244.9,2637.3z"/>
			</g>
			<g>
				<path class="st4" d="M2888.8,2540.9c-6.6,7-13.3,14.8-19.6,22.6c-6.3,7.8-12.6,15.8-18.4,24.1c-5.8,8.3-11.4,16.7-16.4,25.6
					c-4.9,8.8-9.4,18-12.7,27.8c0.8-10.3,3.1-20.5,5.8-30.6c2.8-10.1,6.3-20,10.1-29.8c3.8-9.8,8.1-19.4,12.5-28.9
					c4.5-9.6,9.1-18.8,14.5-28.4c4.1-7.3,13.3-9.9,20.6-5.8c7.3,4.1,9.9,13.3,5.8,20.6C2890.4,2539,2889.7,2540,2888.8,2540.9z"/>
			</g>
			<g>
				<path class="st2" d="M1470.5,2010.1l-37.5,93.2l-37.3,92.8l-14.9,37.1l-16,39.8l-32.4,80.5c-15,15.3-28.7,30.2-41.1,44.7
					c-173.3,202.6-99,323.2-99,323.2s54.7,51.7,60,88.6c5.2,36.4-33.8,64.2-33.8,64.2s38,107.9-23,166.1
					c-41.6,39.6-175.4,39-216.8,32.6C876.6,3057,788,2843.7,780.1,2784.7c-43.1-319.9,199.4-530.3,408.8-649.9
					c21.8-12.5,43.2-23.9,63.9-34.5c10.7-5.4,21.2-10.6,31.4-15.5c37.6-18,71.9-32.7,100.6-44c40-15.9,69-25.4,80.4-29.1
					C1468.7,2010.7,1470.5,2010.1,1470.5,2010.1z"/>
			</g>
			<g class="st3">
				<path class="st4" d="M1218.5,2874.1c0,0,38,107.9-23,166.1c-41.6,39.6-175.4,39-216.8,32.6c-27.4-4.3-53.9-22.8-78.1-48.7
					c1.5,0.4,3,0.6,4.5,0.9c41.4,6.4,222.6,7.3,264.2-32.3c30.6-29.2,32.8-60,27.4-83.5c-5.3-23.3,4.6-47.1,25.1-59.2
					c15.4-9.1,29.4-20.6,31-33C1252.6,2849.8,1218.5,2874.1,1218.5,2874.1z"/>
			</g>
			<g class="st3">
				<path class="st4" d="M1332.4,2353.4L1332.4,2353.4c-225.4,229.4-140.1,367.9-140.1,367.9s54.7,51.7,60,88.6
					c-19.4-75.8-70.1-56.6-115.9-97.4c-37.6-33.6-98-258.4,167.6-385.6C1321.1,2318.7,1339.5,2335.7,1332.4,2353.4z"/>
			</g>
			<g class="st3">
				<path class="st4" d="M1252.3,2809.9c0.6,2.4,0.8,4.6,0.5,6.7C1252.8,2814.5,1252.6,2812.2,1252.3,2809.9z"/>
			</g>
			<g>
				<path class="st4" d="M1472.2,2015.9c-70.1,36.6-141.8,66.5-211.1,101.9c-69.7,34.5-137,74.4-198.4,121.7
					c-61.4,47.1-118,100.8-163.5,162.7c-11.4,15.4-22.1,31.3-31.9,47.7c-10,16.3-18.8,33.3-27,50.5c-16,34.6-28.7,70.7-36.4,107.9
					c-4.2,18.5-6.7,37.4-8.7,56.3c-1.5,18.9-2.6,38-1.9,57c0.2,19,2,38.1,4.2,57l0.4,3.6l0.5,3.1c0.3,2,0.8,4.2,1.2,6.4
					c1,4.3,2.1,8.8,3.4,13.3c2.5,9,5.4,18,8.7,27c12.9,35.9,29.2,71.1,48.1,104.3c9.5,16.6,19.8,32.6,31,47.8
					c11.2,15.1,23.4,29.4,36.8,41.5c13.4,12,28.1,22.2,43.4,26.9l2.8,1l2.9,0.6c2,0.4,3.7,0.9,5.8,1.2c4.3,0.6,8.9,1.1,13.5,1.5
					c9.3,0.8,18.8,1.2,28.4,1.4c19.1,0.3,38.3-0.3,57.2-1.8c18.9-1.6,37.8-4.1,55.6-8.5c8.9-2.2,17.5-4.8,25.4-8.1
					c7.9-3.3,14.9-7.4,19.9-11.9c11.7-10.9,20.1-25.5,24.6-41.9c4.7-16.4,5.7-34.4,4.5-52.5c-0.6-9-1.8-18.1-3.6-27.1
					c-0.9-4.5-1.8-9-3-13.4c-1.1-4.3-2.4-9.1-3.6-12.6l-4.2-12.4l10.7-8.2c0.6-0.5,2.1-1.7,3.3-2.6c1.2-1,2.4-2.1,3.6-3.2
					c2.3-2.2,4.6-4.6,6.6-7c4.1-4.8,7.5-9.9,9.8-15.1c2.3-5.1,3.5-10.1,3.6-14.9c0-4.7-1.4-9.6-3.7-15.4c-5-11.5-13-23.5-22-34.7
					c-8.9-11.2-19.1-22.4-29.2-32.2l-2-1.9l-1-1.7l-1.3-2.3l-0.9-1.9l-1.8-3.6c-1.1-2.4-1.9-4.7-2.9-7c-1.9-4.7-3.1-9.3-4.6-14
					c-1.3-4.7-2.2-9.4-3.3-14.1c-1.1-4.7-1.4-9.4-2.1-14.2l-0.9-7.1l-0.3-7.1l-0.5-14.2l0.8-14c0.4-4.7,0.3-9.4,1.3-13.9l2.2-13.8
					c0.8-4.6,1.3-9.2,2.6-13.6c2.4-8.9,4.5-17.9,7.2-26.7l9.4-25.8c1.4-4.4,3.5-8.4,5.4-12.5l5.7-12.4l5.6-12.4
					c2-4.1,4.3-7.9,6.4-11.9l13.2-23.7c4.6-7.7,10-14.9,15-22.3c2.5-3.7,5.2-7.3,7.8-10.9c2.7-3.6,5.1-7.4,8.2-10.7
					c11.8-13.4,23.3-27.1,36.4-39.1c13.6-11.6,27.3-22.9,42.5-32.5c2.9-1.8,6.7-0.9,8.5,1.9c1.2,1.9,1.2,4.2,0.2,6.1l-0.2,0.3
					c-8.4,16-18.2,30.2-28.2,44.1c-2.6,3.4-4.9,7-7.3,10.6l-7.2,10.5c-4.9,7-10,13.7-15,20.5c-5,6.8-9.3,14-14.1,20.9l-7.1,10.4
					c-2.3,3.5-5.1,6.8-7.1,10.4l-13,21.4c-2.1,3.6-4.4,7.1-6.4,10.8l-5.5,11.2c-15.3,29.5-25.4,61.4-29.5,93.3c-0.8,4-0.7,8-1.1,12
					l-0.7,12l0.4,11.9l0.2,5.9l0.8,5.8c0.6,3.9,0.8,7.8,1.7,11.6c0.9,3.8,1.6,7.6,2.6,11.3c1.2,3.5,2.1,7.4,3.5,10.7
					c0.7,1.7,1.3,3.5,2,5l1.1,2.2l0.5,1l0.3,0.6l-3-3.6c12,11.6,22.5,23.2,32.7,36c10.1,12.8,19.6,26.4,26.9,43.1
					c3.4,8.4,6.5,18.5,6.5,29.3c-0.1,10.6-2.7,20.8-6.7,29.7c-4,8.9-9.3,16.6-15.1,23.5c-2.9,3.5-6,6.7-9.2,9.8
					c-1.6,1.5-3.3,3-5,4.5c-1.8,1.5-3.3,2.8-5.7,4.6l6.5-20.6c1.9,5.8,3.2,10.5,4.6,15.8c1.3,5.1,2.4,10.3,3.4,15.4
					c2,10.3,3.4,20.8,4.1,31.4c1.4,21.2,0.4,43.1-5.7,64.7c-6,21.6-17.6,42.5-34.9,58.5c-9.7,8.7-20.1,14.3-30.4,18.6
					c-10.3,4.3-20.6,7.4-30.8,9.9c-20.5,5-40.8,7.7-61.2,9.4c-20.3,1.7-40.6,2.3-60.9,1.9c-10.2-0.2-20.3-0.6-30.7-1.5
					c-5.2-0.4-10.4-0.9-15.8-1.7c-2.7-0.4-5.8-1.1-8.7-1.7l-4.4-1l-4.2-1.4c-22.5-7.2-40.6-20.4-56.6-34.5
					c-15.8-14.3-29.3-30.3-41.6-46.8c-12.3-16.5-23.2-33.7-33.3-51.3c-20.1-35.3-37-71.9-50.8-110.2c-3.4-9.6-6.6-19.3-9.4-29.3
					c-1.4-5-2.7-10.1-3.9-15.4c-0.6-2.7-1.2-5.3-1.6-8.1l-0.7-4.2l-0.4-3.8c-2.4-20.2-4.3-40.5-4.5-60.8
					c-0.7-20.4,0.5-40.8,2.1-61.1c2.2-20.3,4.9-40.5,9.4-60.5c8.3-40,21.9-78.7,39-115.6c8.8-18.3,18.1-36.4,28.8-53.7
					c10.4-17.4,21.8-34.2,33.8-50.5c48-65.3,107.1-121.1,170.6-169.9c63.8-48.5,131.9-90.8,202.7-127.7
					c35.5-18.3,72-34.4,109.3-48.5c9.3-3.5,18.7-6.8,28.3-9.8l14.3-4.5l14.4-4.1c19.3-5.2,38.8-9.7,59-12c3.3-0.4,6.4,2,6.7,5.3
					c0.3,2.6-1.1,4.9-3.2,6.1L1472.2,2015.9z"/>
			</g>
			<g>
				<path class="st10" d="M2186.4,1746.5c-133.8,17.7-259.5-97.9-280.7-258.3c-5.3-40.5-3.5-79.9,4.3-116.5
					c23.2-108.7,99.5-192.7,199.5-206c133.5-17.7,259,97.5,280.6,257.5c0,0.3,0.1,0.5,0.1,0.8
					C2411.4,1584.4,2320.1,1728.7,2186.4,1746.5z"/>
			</g>
			<g class="st6">
				<path class="st2" d="M2342.3,1289.2c-40.2-21.9-85.3-31.6-131.3-25.5c-100,13.3-176.3,97.3-199.5,206
					c-7.8,36.6-9.6,76-4.3,116.5c6.6,50.2,23.6,96.1,47.7,134.8c-76.5-41.7-135.4-127.6-149.3-232.8c-5.3-40.5-3.5-79.9,4.3-116.5
					c23.2-108.7,99.5-192.7,199.5-206C2201.3,1153.5,2289.3,1204.3,2342.3,1289.2z"/>
			</g>
			<g class="st3">
				<path class="st4" d="M2186.4,1746.5c-133.8,17.7-259.5-97.9-280.7-258.3c-5.3-40.5-3.5-79.9,4.3-116.5h277.3
					c0,0,97.6,170.3,156.4,141.7c37-17.9,43.1-58.4,46.3-90.2c0,0.3,0.1,0.5,0.1,0.8C2411.4,1584.4,2320.1,1728.7,2186.4,1746.5z"/>
			</g>
			<g>
				<path class="st4" d="M2159.4,1766.2c-132,0-250.6-117.4-271.5-275.7c-10.8-81.7,5.6-162.2,46.4-226.7
					c41.4-65.5,102.8-106.7,172.8-116c143.4-19,278.3,103.8,300.9,273.7v0c10.8,81.7-5.6,162.2-46.4,226.7
					c-41.4,65.5-102.8,106.7-172.8,116C2178.9,1765.6,2169.1,1766.2,2159.4,1766.2z M2136.5,1181.9c-8.2,0-16.4,0.5-24.7,1.6
					c-59.3,7.9-111.6,43.2-147.2,99.5c-36.2,57.4-50.8,129.4-41.1,202.8c19.9,150.3,136.8,259.2,260.5,242.8
					c59.3-7.9,111.6-43.2,147.2-99.5c36.2-57.4,50.8-129.4,41.1-202.8v0C2353.7,1286.1,2250.7,1181.9,2136.5,1181.9z"/>
			</g>
			<g>
				<g>
					<path class="st2" d="M2186,1838.9c-503.9,751.7-1572.6,89.3-1168-682.7C1515.6,374.5,2619.6,1060.3,2186,1838.9z"/>
				</g>
				<g>
					<path class="st2" d="M2186,1838.9c-503.9,751.7-1572.6,89.3-1168-682.7C1515.6,374.5,2619.6,1060.3,2186,1838.9z"/>
				</g>
				<g class="st3">
					<path class="st4" d="M2156,1948.9c-15.7,22.7-31.9,44-48.6,64.1c-27.7,33.4-56.8,63.3-86.8,89.7
						c-140.8,123.7-303.9,172.4-461.1,164.4c-61-3.1-121.1-14.8-178.6-34c-5.3-1.8-10.5-3.5-15.7-5.4c-29.3-10.6-57.9-23-85.7-37.3
						c-31.5-16.3-61.8-34.9-90.5-55.6c21.8-12.5,43.2-23.9,63.9-34.5c10.7-5.4,21.2-10.6,31.4-15.5c3.7-48.6,9.6-98.9,18-151
						l82.6,107c40-15.9,69-25.4,80.4-29.1c183.8-183.4,554.3-201.1,554.3-201.1c9.2,26.1,18.7,51.2,28.7,75.3l5-0.7
						C2053.1,1885.3,2086.7,1917.8,2156,1948.9z"/>
				</g>
				<g>
					<path class="st2" d="M2186,1838.9c-503.9,751.7-1572.6,89.3-1168-682.7C1515.6,374.5,2619.6,1060.3,2186,1838.9z"/>
				</g>
				<g>
					<path class="st4" d="M1614.7,2181.9c-122.6,0-245.9-34.2-356.9-100.3c-148.9-88.6-259.2-224.2-310.4-381.8
						c-57.3-176.2-36.8-366.3,59.3-549.6l0.5-0.9c116.9-183.6,275.9-300.4,459.9-337.9c163.2-33.2,336.4-1.9,487.7,88.3
						c151.6,90.4,262.9,228.4,313.2,388.6c56.4,179.6,31.9,372.1-70.9,556.8l-0.6,0.9c-118.5,176.8-277,288.8-458.4,324.1
						C1697.5,2178,1656.1,2181.9,1614.7,2181.9z M1029.1,1162.6c-206.5,394.6-19.5,741.6,241.7,897
						c267.4,159.1,650.6,150.4,904.3-227.5c221.4-398.1,34.3-751-233.3-910.5C1676.8,763.7,1278.2,771.8,1029.1,1162.6z
						 M2186,1838.9L2186,1838.9L2186,1838.9z"/>
				</g>
				<g class="st3">
					<path class="st4" d="M2186,1838.8c-424,656.8-1386.1,244.4-1240.7-492.7c31.8,243,114.5,257,234.8,386.3
						c367.8,422.8,994.9,160.1,1098.2-321.8C2296.3,1561.9,2262,1712.3,2186,1838.8z"/>
				</g>
				<g>
					<path class="st11" d="M1614.7,2187.1c-123.5,0-247.7-34.5-359.6-101c-150-89.2-261-225.8-312.7-384.6
						c-57.7-177.6-37.1-369,59.7-553.6l0.8-1.3c117.6-184.8,277.8-302.4,463.3-340.2c164.5-33.5,339-1.9,491.4,88.9
						c152.7,91,264.8,230.1,315.5,391.5c56.9,181,32.2,374.9-71.3,560.8l-0.8,1.3c-119.3,177.9-279,290.8-461.8,326.3
						C1698.1,2183.1,1656.4,2187.1,1614.7,2187.1z M1033.6,1165.2c-204.8,391.6-19.3,735.8,239.9,890
						c265.3,157.8,645.5,149.1,897.2-225.7c219.5-395,33.9-745.1-231.6-903.3C1676.2,769.4,1280.8,777.5,1033.6,1165.2z
						 M2186,1838.9L2186,1838.9L2186,1838.9z"/>
				</g>
				<g>
					<path class="st4" d="M1614.7,2187.1c-123.5,0-247.7-34.5-359.6-101c-150-89.2-261-225.8-312.7-384.6
						c-57.7-177.6-37.1-369,59.7-553.6l0.8-1.3c117.6-184.8,277.8-302.4,463.3-340.2c164.5-33.5,339-1.9,491.4,88.9
						c152.7,91,264.8,230.1,315.5,391.5c56.9,181,32.2,374.9-71.3,560.8l-0.8,1.3c-119.3,177.9-279,290.8-461.8,326.3
						C1698.1,2183.1,1656.4,2187.1,1614.7,2187.1z M1033.6,1165.2c-204.8,391.6-19.3,735.8,239.9,890
						c265.3,157.8,645.5,149.1,897.2-225.7c219.5-395,33.9-745.1-231.6-903.3C1676.2,769.4,1280.8,777.5,1033.6,1165.2z
						 M2186,1838.9L2186,1838.9L2186,1838.9z"/>
				</g>
				<g>
					<path class="st4" d="M2078.5,1974.8c-683.1,405.9-1266.4-390.9-748.8-855.6C1941.1,633.8,2631.4,1385.2,2078.5,1974.8z"/>
				</g>
				<g>
					<path class="st12" d="M2260,1503.7c5.2,718.1-1021.6,781.1-1134.1,125.3C1456.1,2014.6,2068.6,1851.8,2260,1503.7z"/>
				</g>
				<g>
					<path class="st4" d="M1671.7,2169.4c-91.5,0-184.1-21.8-270.3-64.5c-136.2-67.5-244.6-180-305-316.8
						c-66.7-150.9-69.7-317.4-8.8-481.7c67.6-168.8,211-306,393.4-376.8c183.1-71.1,382.6-66.3,547.3,13.2l1.4,0.7l1.2,0.9
						c137.9,98.3,230,250.2,259.2,427.8c27.6,167.7-4.8,341.3-88.9,476.1l-0.1,0.1c-99.7,157.3-233,261.9-385.3,302.3
						C1768.9,2163.2,1720.4,2169.4,1671.7,2169.4z M1744.8,915.6c-83.6,0-168.9,15.8-250.8,47.6
						c-173.2,67.2-309.1,197.1-372.9,356.2c-124.8,336.1,54.5,633.5,296.2,753.3c210.3,104.2,533.8,103,753.5-243.5
						c154.2-247.5,126.8-649.6-159.5-854.7C1929.3,935.3,1838.1,915.6,1744.8,915.6z M2186,1838.9L2186,1838.9L2186,1838.9z"/>
				</g>
				<g>
					<path class="st4" d="M1702.3,2104.4c-40.2,0-79.9-3.9-118.9-11.6c-144.6-28.8-272.3-110-359.6-228.8
						c-80.6-109.7-119.2-241.9-108.6-372.2c11.7-144,81.7-277.5,202.5-385.9l0.8-0.7c144.7-114.9,304.2-169.5,461.1-158.1
						c141.1,10.3,272.2,73.9,369.1,179.1c99.2,107.7,152.4,247.7,150,394.2c-2.7,163.7-74.3,325.2-207.2,466.8l-1.7,1.9l-2.2,1.3
						C1960.5,2065.8,1829.3,2104.4,1702.3,2104.4z M1341.3,1132.9c-253.8,228.2-227.3,520.9-88.5,709.8
						c152.9,208.1,463.9,324.9,814.3,118c277-297,223-628,55.2-810.2C1953.6,967.2,1646.7,890.8,1341.3,1132.9z M2078.5,1974.8
						L2078.5,1974.8L2078.5,1974.8z"/>
				</g>
				<g>
					<path class="st2" d="M839.8,1631.5c44.2,316,364.6,298.3,352.9-7.6C1158.5,1290.9,815.9,1309.8,839.8,1631.5z"/>
				</g>
				<g class="st3">
					<path class="st4" d="M1040.6,1861.8c96.1-4.6,166.7-121.3,150.6-254c-61.3,138.4-205.7-91.7-215.5-157.4
						C728.6,1511,864.3,1874,1040.6,1861.8z"/>
				</g>
				<g>
					<path class="st4" d="M1032.3,1878.9c-87.2,0-186.5-74.4-210.3-245l-0.1-1.2c-12.8-173.1,76.1-260.3,164.1-268.1
						c97.5-8.7,206,77,224.5,257.3l0.1,1.1c6.4,165.6-78.2,247.5-164.9,255.2C1041.3,1878.7,1036.8,1878.9,1032.3,1878.9z
						 M857.6,1629.5c22,155.7,111.2,219.6,184.9,213c69.6-6.2,137.4-75.8,132.2-217.5c-16.3-156.8-105.6-231.6-185.6-224.6
						C918.2,1406.8,846.8,1481.1,857.6,1629.5z"/>
				</g>
				<g>
					<path class="st2" d="M827.2,1649c36.1,256.1,276.4,246.9,266.9-0.6C1067.4,1375.4,806.3,1385.7,827.2,1649z"/>
				</g>
				<g>
					<path class="st4" d="M976.1,1855.5c-68.2,0-146.7-62.1-166.7-204l-0.1-1.1c-11.4-142.7,57-214.3,125.3-220.3
						c76.9-6.8,162.6,65.4,177.4,216.6l0.1,1.1c5.2,135-59.6,201.4-126.1,207.3C982.7,1855.3,979.4,1855.5,976.1,1855.5z
						 M845.1,1647c17.8,125.2,83.8,177,137.7,172.2c49.5-4.4,97.5-58.6,93.4-169.6c-12.7-127.6-79.2-189-138.4-183.7
						C886.7,1470.4,835.9,1529,845.1,1647z"/>
				</g>
				<g class="st13">
					<path class="st2" d="M1255.3,1486.7c35.4,129.6,183.3,91.7,171.6-25.5C1403.7,1314.2,1228.7,1356.1,1255.3,1486.7z"/>
				</g>
				<g class="st13">
					<path class="st2" d="M1332,1690.4c16.4,48.8,81.4,33.4,68.5-21.2C1384.1,1620.4,1319.1,1635.7,1332,1690.4z"/>
				</g>
				<g class="st13">
					<path class="st2" d="M2162.7,1538.6c87.2-469.3-399.7-538.3-549.2-440.8C1925.8,1124.3,2061.1,1319.6,2162.7,1538.6z"/>
				</g>
				<g class="st3">
					<path class="st4" d="M1106.1,1706.5c5.2-36,0.5-73.6-11.7-108c-48.3,172.1-220.9,93.2-259.3-31.5
						C792.8,1822,1050.7,1945.5,1106.1,1706.5z"/>
				</g>
				<g>
					<path class="st4" d="M1178,1432.9c-9,0-20.2-3.4-33.3-13.8c-7.8-6.2-9.1-17.5-2.9-25.2c6.2-7.8,17.5-9.1,25.2-2.9
						c6.1,4.9,9.5,5.8,10.5,6c3.8-3.2,8.6-19.9,8.9-35.8c0.2-9.9,8.5-17.8,18.3-17.6c9.9,0.2,17.8,8.3,17.6,18.3
						c-0.2,12.7-3,55.3-29.7,67.9C1188.7,1431.4,1183.8,1432.9,1178,1432.9z"/>
				</g>
			</g>
			<g>
				
					<ellipse transform="matrix(0.9913 -0.1313 0.1313 0.9913 -209.2649 147.6848)" class="st10" cx="1015.1" cy="1660.5" rx="244.3" ry="292.9"/>
			</g>
			<g>
				<path class="st10" d="M1053.6,1950.9c-133.8,17.7-259.5-97.9-280.7-258.3c-0.9-7.1-1.7-14.1-2.2-21.1
					c-11-151.7,78-284.4,205.9-301.4c132.7-17.6,257.5,96.2,280.2,254.6c0.2,1.2,0.4,2.4,0.5,3.7
					C1278.6,1788.8,1187.4,1933.2,1053.6,1950.9z"/>
			</g>
			<g class="st6">
				<path class="st2" d="M1243.5,1566.9c-65.7-93.3-167.5-147.6-273.4-133.5c-76.5,10.1-141.6,54.1-186.6,118.1
					c28.8-96.5,100.8-169.1,193.2-181.3C1092.6,1354.8,1202.5,1439.6,1243.5,1566.9z"/>
			</g>
			<g class="st3">
				<path class="st4" d="M1053.6,1950.9c-133.8,17.7-259.5-97.9-280.7-258.3c-0.9-7.1-1.7-14.1-2.2-21.1l358.8-15.2
					c0,0,28.8,49.4,65.7,49.4c36.4,0,54.2-50.2,61.6-80.9c0.2,1.2,0.4,2.4,0.5,3.7C1278.6,1788.8,1187.4,1933.2,1053.6,1950.9z"/>
			</g>
			<g>
				<path class="st4" d="M1026.2,1970.7c-59.9,0-118.4-23.9-167.3-68.9c-56.1-51.6-93-125.1-103.8-206.8
					c-10.8-81.7,5.6-162.2,46.4-226.7c41.4-65.5,102.8-106.7,172.8-116c143.4-19,278.3,103.8,300.9,273.7v0
					c10.8,81.7-5.6,162.2-46.4,226.7c-41.4,65.5-102.8,106.7-172.8,116C1046,1970,1036.1,1970.7,1026.2,1970.7z M1003.7,1386.3
					c-8.2,0-16.4,0.5-24.7,1.6c-59.3,7.9-111.6,43.2-147.2,99.5c-36.2,57.4-50.8,129.4-41.1,202.8c9.7,73.4,42.6,139.1,92.5,185.1
					c49,45.1,108.7,65.6,168,57.8c59.3-7.9,111.6-43.2,147.2-99.5c36.2-57.4,50.8-129.4,41.1-202.8v0
					C1221,1490.6,1118,1386.3,1003.7,1386.3z"/>
			</g>
			<g>
				<path class="st5" d="M1672.4,626.1c-237.9-4.3-420.5,74.2-524.4,227.4c0,0,0,0,0,0c-23.4,34.4-42.8,72.6-57.9,114.5
					c-94.9,261.9-37.8,549.8-37.8,549.8l-202.6,83.6c0,0-24.8-83.9-32.3-201.6c-5.7-86.9-2-192.3,27.9-295.9
					c77.9-270.3,237-352.7,293.3-382.9C1363.1,600.5,1672.4,626.1,1672.4,626.1z"/>
			</g>
			<g class="st3">
				<path class="st4" d="M1090,968c-94.9,261.9-37.8,549.8-37.8,549.8l-202.6,83.6c0,0-24.8-83.9-32.3-201.6
					c76-58.6,163.3-21.8,175.7-95.7c38.7-229.7,81.4-382.4,154.9-450.6C1124.6,887.9,1105.2,926.2,1090,968z"/>
			</g>
			<g class="st6">
				<path class="st2" d="M1672.4,626.1c-114.6-2.1-216.4,15.1-302.7,50.5c-69.5,15.4-140.9,38.5-205.5,73.2
					c-59.1,31.7-225.9,118.1-307.7,401.7c-40,138.6-35.3,280.1-22.6,380.7c-17.2-91.9-36.5-262.3,11.3-428.3
					c77.9-270.3,237-352.7,293.3-382.9C1363.1,600.5,1672.4,626.1,1672.4,626.1z"/>
			</g>
			<g>
				<path class="st4" d="M849.7,1619.4c-2.7,0-5.3-0.6-7.8-1.8c-4.6-2.2-8-6.2-9.5-11.1c-3.1-10.6-75.4-261.3-4.5-507.5
					c74.4-257.9,224.2-347.3,288.2-385.5c4.8-2.8,9.1-5.4,12.9-7.8c251.3-155.9,535-99.7,547-97.2c9.5,2,15.8,11.2,14.1,20.8
					c-1.7,9.6-10.7,16.1-20.4,14.6c-231.7-35.1-484.2,113-562.8,330.2c-91.9,254-37.6,537.3-37,540.2c1.7,8.4-2.8,16.8-10.8,20.1
					l-202.6,83.7C854.3,1619,852,1619.4,849.7,1619.4z M1388.1,646.4c-76.7,13.8-160.6,40.6-240,89.9c-3.9,2.4-8.4,5.1-13.4,8.1
					c-60.4,36-201.7,120.3-272.1,364.6c-57.1,198.1-15.9,404.9-0.6,468l170.2-70.3c-10.4-62.7-43.3-311.7,41.1-544.8
					C1124.6,819.9,1245.4,705.4,1388.1,646.4z"/>
			</g>
			<g>
				<path class="st4" d="M936.2,1931.9c-110.8,0-210.2-98.3-227.7-230.8c-9.1-68.3,4.7-135.7,38.8-189.6
					c34.7-55,86.3-89.5,145.2-97.4c58.9-7.8,117.7,12.2,165.6,56.2c47,43.2,77.8,104.6,86.8,173l0,0c9.1,68.3-4.7,135.7-38.8,189.6
					c-34.7,55-86.3,89.5-145.2,97.4C952.6,1931.4,944.3,1931.9,936.2,1931.9z M917.3,1448.5c-6.7,0-13.4,0.4-20.2,1.3
					c-48.2,6.4-90.6,35.1-119.6,80.9c-29.6,46.8-41.5,105.7-33.6,165.7c16.2,122.6,111.4,211.6,212.1,198.2
					c48.2-6.4,90.6-35.1,119.6-80.9c29.6-46.8,41.5-105.7,33.6-165.7c-7.9-60-34.8-113.7-75.6-151.2
					C999.4,1465.2,958.7,1448.5,917.3,1448.5z"/>
			</g>
			<g>
				<path class="st4" d="M936.2,1931.9c-110.8,0-210.2-98.3-227.7-230.8c-9.1-68.3,4.7-135.7,38.8-189.6
					c34.7-55,86.3-89.5,145.2-97.4c58.9-7.8,117.7,12.2,165.6,56.2c47,43.2,77.8,104.6,86.8,173l0,0c9.1,68.3-4.7,135.7-38.8,189.6
					c-34.7,55-86.3,89.5-145.2,97.4C952.6,1931.4,944.3,1931.9,936.2,1931.9z M917.3,1448.5c-6.7,0-13.4,0.4-20.2,1.3
					c-48.2,6.4-90.6,35.1-119.6,80.9c-29.6,46.8-41.5,105.7-33.6,165.7c16.2,122.6,111.4,211.6,212.1,198.2
					c48.2-6.4,90.6-35.1,119.6-80.9c29.6-46.8,41.5-105.7,33.6-165.7c-7.9-60-34.8-113.7-75.6-151.2
					C999.4,1465.2,958.7,1448.5,917.3,1448.5z"/>
			</g>
			<g>
				<path class="st4" d="M936.2,1931.9c-110.8,0-210.2-98.3-227.7-230.8c-9.1-68.3,4.7-135.7,38.8-189.6
					c34.7-55,86.3-89.5,145.2-97.4c58.9-7.8,117.7,12.2,165.6,56.2c47,43.2,77.8,104.6,86.8,173l0,0c9.1,68.3-4.7,135.7-38.8,189.6
					c-34.7,55-86.3,89.5-145.2,97.4C952.6,1931.4,944.3,1931.9,936.2,1931.9z M917.3,1448.5c-6.7,0-13.4,0.4-20.2,1.3
					c-48.2,6.4-90.6,35.1-119.6,80.9c-29.6,46.8-41.5,105.7-33.6,165.7c16.2,122.6,111.4,211.6,212.1,198.2
					c48.2-6.4,90.6-35.1,119.6-80.9c29.6-46.8,41.5-105.7,33.6-165.7c-7.9-60-34.8-113.7-75.6-151.2
					C999.4,1465.2,958.7,1448.5,917.3,1448.5z"/>
			</g>
			<g>
				<path class="st5" d="M958.5,1912.5c-110.7,14.6-214.7-81-232.2-213.7c-2.2-16.3-2.9-32.4-2.4-48.1
					c3.8-112.3,73.8-205.8,171-218.7c110.7-14.6,214.6,81,232.2,213.6c0,0,0,0,0,0C1144.6,1778.4,1069.2,1897.8,958.5,1912.5z"/>
			</g>
			<g class="st6">
				<path class="st2" d="M1116.7,1767.8c3.1-23.9,3.2-49-0.2-74.6c0,0,0,0,0,0c-17.7-132.6-121.6-228.3-232.2-213.6
					c-74.7,9.9-133.4,67.5-158.2,144.6c13-100.2,79.4-180.3,168.8-192.1c110.7-14.6,214.6,81,232.2,213.6c0,0,0,0,0,0
					C1132.8,1688.8,1128.6,1730.6,1116.7,1767.8z"/>
			</g>
			<g class="st3">
				<path class="st4" d="M958.5,1912.5c-110.7,14.6-214.7-81-232.2-213.7c-2.2-16.3-2.9-32.4-2.4-48.1l259.7-8.4
					c0,0,53.3,69.1,95.5,58.6c26.1-6.5,40.4-28.7,48-55.2C1144.6,1778.4,1069.2,1897.8,958.5,1912.5z"/>
			</g>
			<g>
				<path class="st4" d="M936.2,1931.9c-110.8,0-210.2-98.3-227.7-230.8c-9.1-68.3,4.7-135.7,38.8-189.6
					c34.7-55,86.3-89.5,145.2-97.4c58.9-7.8,117.7,12.2,165.6,56.2c47,43.2,77.8,104.6,86.8,173l0,0c9.1,68.3-4.7,135.7-38.8,189.6
					c-34.7,55-86.3,89.5-145.2,97.4C952.6,1931.4,944.3,1931.9,936.2,1931.9z M917.3,1448.5c-6.7,0-13.4,0.4-20.2,1.3
					c-48.2,6.4-90.6,35.1-119.6,80.9c-29.6,46.8-41.5,105.7-33.6,165.7c16.2,122.6,111.4,211.6,212.1,198.2
					c48.2-6.4,90.6-35.1,119.6-80.9c29.6-46.8,41.5-105.7,33.6-165.7c-7.9-60-34.8-113.7-75.6-151.2
					C999.4,1465.2,958.7,1448.5,917.3,1448.5z"/>
			</g>
			<g>
				
					<ellipse transform="matrix(0.9913 -0.1313 0.1313 0.9913 -215.021 127.6312)" class="st2" cx="860.2" cy="1694.1" rx="132.4" ry="158.7"/>
			</g>
			<g class="st6">
				<path class="st2" d="M989.5,1738c0-8.4-0.5-16.9-1.7-25.6c-11.5-86.9-79.6-149.5-152.1-139.9c-54.8,7.2-96.3,53.6-108.4,113.3
					c0.3-76.1,46.8-140.4,112-149c72.5-9.6,140.6,53,152.1,139.9C994.2,1698,993.4,1718.7,989.5,1738z"/>
			</g>
			<g class="st3">
				<path class="st4" d="M881,1851.4c-72.5,9.6-140.6-53-152.1-139.9c-0.7-5.1-1.2-10.2-1.4-15.3c28.4,48.2,77.3,77.2,128.3,70.4
					c68.2-9,116-78.8,111.8-159.3c11.9,20.2,20.3,43.8,23.7,69.4C1002.9,1763.6,953.5,1841.8,881,1851.4z"/>
			</g>
			<g>
				<path class="st4" d="M866.4,1870.4c-75.6,0-143.4-66.6-155.3-156.5c-12.8-96.6,43.7-184,125.8-194.9
					c40.4-5.3,80.7,8.3,113.4,38.4c31.8,29.3,52.7,70.8,58.8,117c6.1,46.2-3.2,91.7-26.3,128.3c-23.7,37.6-59.1,61.2-99.5,66.6
					C877.7,1870,872.1,1870.3,866.4,1870.4z M854.1,1553.8c-4.1,0-8.2,0.3-12.4,0.8c-62.5,8.3-105.1,77.6-94.9,154.5
					c10.2,76.9,69.4,132.7,131.9,124.5c29.7-3.9,55.9-21.7,73.9-50.1c18.6-29.4,26.1-66.5,21.1-104.4l0,0
					c-5-37.9-21.9-71.7-47.5-95.3C904.8,1564.2,879.6,1553.8,854.1,1553.8z"/>
			</g>
			<g>
				<path class="st4" d="M1214.2,2525c-6.3,0-12.2-4.1-14.3-10.4c-23-71.3-60.2-117.2-110.8-136.5c-90.6-34.5-196.4,26.6-197.4,27.2
					c-7.1,4.2-16.3,1.8-20.5-5.3c-4.2-7.1-1.8-16.3,5.3-20.5c4.8-2.8,119-69,223.2-29.5c59.6,22.6,102.9,74.9,128.9,155.4
					c2.5,7.9-1.8,16.3-9.7,18.9C1217.3,2524.7,1215.7,2525,1214.2,2525z"/>
			</g>
			<g>
				<path class="st4" d="M2852.1,1809.8c7.1-5.5,15.2-10,24-12.4c8.8-2.5,18-2.7,26.4-1.3c8.4,1.4,16.2,4.3,23.2,8.4
					c7,4.2,13.3,8.8,18.8,17.1c2.7,4.1,1.6,9.6-2.6,12.3c-3.4,2.3-7.9,1.8-10.8-0.8l-1.4-1.3c-2.8-2.5-8.2-5.5-13.4-6.9
					c-5.3-1.6-10.8-2.3-15.8-1.9c-5.1,0.4-9.7,1.7-13.6,4c-3.9,2.3-7.2,5.4-10.1,9c-6.3,7.7-17.8,8.9-25.5,2.5s-8.9-17.8-2.5-25.5
					c0.9-1,1.8-2,2.8-2.8L2852.1,1809.8z"/>
			</g>
			<g>
				<path class="st4" d="M2836.2,1875.9c7.7-8.2,18.8-13.2,28.6-14.2c9.9-1.1,18.6,0.5,26.5,2.9c7.9,2.4,15,5.7,21.7,9.4
					c6.8,3.9,12.8,7.8,19.2,13.8c3.6,3.3,3.9,9,0.5,12.7c-2.9,3.1-7.5,3.7-11,1.7l-1-0.6c-4.6-2.6-10.9-5.3-16.9-7.1
					c-6-1.9-12.2-3.1-18-3.6c-5.8-0.4-11.2,0.1-15,1.6c-3.9,1.6-5.6,3.6-6.9,6.2c-4.6,9-15.6,12.6-24.6,8c-9-4.6-12.6-15.6-8-24.6
					c0.8-1.5,1.7-2.9,2.8-4.1L2836.2,1875.9z"/>
			</g>
			<g>
				<path class="st10" d="M2878.7,2913.9c-10.9-8.6-18.6-23.5-20.3-47.7c-8.3-116.6,130.6-410.7,248.7-367.4
					c6,12.8,11.1,28.3,15.1,46.9C3152.2,2686.2,3012,2901,2878.7,2913.9z"/>
			</g>
			<g class="st3">
				<path class="st4" d="M3090.1,2727.8c-46.3,95.4-130.1,178.3-211.4,186.1c-10.9-8.6-18.6-23.5-20.3-47.7
					c-3.8-53.2,23.1-143.3,64.7-221.5c-11.1,46.2-23.6,159.6,26.7,173.9C3000.2,2832.8,3049.2,2763,3090.1,2727.8z"/>
			</g>
			<g class="st6">
				<path class="st2" d="M3107.9,2685c7.1-33.5,8.3-66.3,2-95.9c-0.2-0.9-0.4-1.7-0.6-2.6c-7.9-35.6-47.4-54.4-79.8-37.7
					c-67,34.6-131,145.2-162.9,242.4c31.5-134.4,143-328.1,240.4-292.4c6,12.8,11.1,28.3,15.1,46.9
					C3131.2,2587.9,3124.9,2636.9,3107.9,2685z"/>
			</g>
			<g>
				<path class="st4" d="M2873.2,2932.5l-5.7-4.5c-16-12.7-25.1-33.1-27.1-60.5c-6.8-95.5,75.8-292.5,169.5-363
					c44.7-33.6,80.8-30.8,103.3-22.6l6.9,2.5l3.1,6.7c6.8,14.5,12.3,31.6,16.4,50.9c16.3,76.6-12.8,177.8-76.1,264.3
					c-54,73.7-120.8,119.5-183.3,125.5L2873.2,2932.5z M3083,2512.5c-15.9,0-33.1,6.9-51.4,20.7c-84.2,63.3-161.3,246.4-155.2,331.8
					c0.9,13.2,3.9,23.2,8.9,30c49.5-8.3,104.8-48.8,149.5-109.9c56.5-77.2,84-169.7,69.9-235.5c-2.8-13.4-6.4-25.4-10.6-35.8
					C3090.4,2512.9,3086.7,2512.5,3083,2512.5z"/>
			</g>
			<g>
				<path class="st4" d="M3003,2593c-18.6,0-32.5-0.8-36.6-1.1c-9.9-0.6-17.4-9.2-16.8-19.1c0.6-9.9,9.2-17.4,19.1-16.8
					c43.3,2.8,120.7,0.6,143.7-17.4c7.8-6.1,19.1-4.7,25.2,3.1c6.1,7.8,4.7,19.1-3.1,25.2C3106.3,2589.1,3043.7,2593,3003,2593z"/>
			</g>
			<g>
				<path class="st4" d="M3003.3,2679c-48.3,0-85.5-11.6-88.2-12.5c-9.4-3-14.6-13.2-11.6-22.6c3-9.4,13.2-14.6,22.6-11.6l0,0
					c1.1,0.3,108.7,33.7,186.6-19.7c8.2-5.6,19.4-3.5,25,4.7c5.6,8.2,3.5,19.4-4.7,25C3091,2671,3043.3,2679,3003.3,2679z"/>
			</g>
			<g>
				<path class="st4" d="M2972.9,2760.5c-62.1,0-93.5-22.5-95.5-23.9c-8-5.9-9.6-17.2-3.7-25.1c5.9-7.9,17-9.6,25-3.8
					c1.3,0.9,62.8,41.9,190-7.5c9.2-3.6,19.7,1,23.3,10.2c3.6,9.2-1,19.7-10.2,23.3C3049.5,2753.9,3006.7,2760.5,2972.9,2760.5z"/>
			</g>
			<g>
				<path class="st4" d="M2955.9,2854.7c-60.6,0-101.2-28.1-103.5-29.8c-8.1-5.7-10-17-4.2-25.1c5.7-8.1,16.9-10,25-4.3
					c2.8,2,65.1,44.2,148.4,9.7c9.2-3.8,19.7,0.6,23.5,9.7c3.8,9.2-0.5,19.7-9.7,23.5C3006.5,2850.4,2979.6,2854.7,2955.9,2854.7z"
					/>
			</g>
		</g>
		<g>
			<g>
				<path class="st14" d="M2936.9,1057.8c-15.7,34.8-57.6,58.2-93.6,52.2c-24.1-4-40.5-20.2-43.2-42.8c0-0.2-0.1-0.5-0.1-0.7
					c-1.3-12,1.6-23.4,6.8-34.1c16.3-33.4,56.3-55.3,91.6-50.2c2.2,0.3,4.5,0.8,5.7,1c-2.1-12-3.9-24.2-6.4-36.3c-1-5-2.1-10-3.2-15
					c-6-28.5-12.2-56.9-18.2-85.3c-1.1-5.1-2.5-10-6.2-14c-4.6-4.9-10.2-5.8-15.9-2.2c-50.3,31.7-100.6,63.4-150.7,95.3
					c-8.9,5.6-11.3,14.9-11.4,24.7c-0.1,10.3,3.4,20.1,5.5,30c8.4,39.5,17,78.9,25.6,118.4c1.3,6,2.4,12,3.7,18
					c0.9,4.3,1.9,8.6,3,12.8c1.1,3.8,1.8,7.6,2.1,11.3c1.5,14.7-2.3,28.4-10.8,41c-20.5,30.6-49.1,46.7-86.5,43.2
					c-20-1.9-35.2-12.1-42.6-31.6c-4.7-12.5-4-24.8,0.1-36.8c1.1-3.1,2.3-6.1,3.8-9.1c15.8-32.8,55.7-56.1,92.2-50.4
					c3,0.5,3-0.5,2.5-2.8c-7.6-34.5-15.2-69.1-22.7-103.6c-2.8-13-5.7-26-8.5-38.9c-2.5-11.3-4.9-22.6-7.4-33.9
					c-1.7-8.1-0.7-16,2.9-23.5c1.9-3.8,4.5-7,8.1-9.3c66.2-42.5,132.4-85,198.6-127.5c12.6-8.1,22.1-4.1,25.4,10.8
					c1,4.4,2,8.8,2.9,13.1c1.5,6.7,3,13.4,4.4,20.1c3.3,15.2,6.6,30.4,9.9,45.6c3.9,17.8,7.7,35.5,11.5,53.3c2.6,12,5.2,24,7.8,36
					c5.8,27,11.5,54,17.6,80.9C2944.4,1031.6,2942.7,1044.9,2936.9,1057.8z"/>
			</g>
			<g class="st15">
				<path class="st2" d="M2890.1,781.6c-14-19.7-26.3-10.8-26.3-10.8S2699.1,877.2,2672,896c-11.6,8-13.8,31.6-12.4,55.9
					c-2.5-11.3-4.9-22.6-7.4-33.9c-1.7-8.1-0.7-16,2.9-23.5c1.9-3.8,4.5-7,8.1-9.3c66.2-42.5,132.4-85,198.6-127.5
					c12.6-8.1,22.1-4.1,25.4,10.8C2888.2,772.9,2889.1,777.3,2890.1,781.6z"/>
			</g>
			<g>
				<path class="st4" d="M2873.4,753.6c6.7,0,11.6,5.1,13.8,14.9c2.5,11.1,4.9,22.2,7.3,33.3c9.7,44.9,19.5,89.9,29.2,134.8
					c5.8,27,11.5,54,17.6,80.9c3.2,14.1,1.5,27.4-4.4,40.3c-14,31.2-49,53.1-82.1,53.1c-3.9,0-7.8-0.3-11.6-0.9
					c-24.4-4.1-40.8-20.5-43.3-43.6c-1.3-12,1.6-23.4,6.8-34.2c14.7-30.1,48.7-50.9,81.1-50.9c3.5,0,7,0.2,10.5,0.7
					c2.2,0.3,4.5,0.8,5.7,1c-2.1-12-3.9-24.2-6.4-36.3c-7-33.5-14.3-66.9-21.4-100.4c-1.1-5.1-2.5-10-6.2-14c-2.7-2.9-5.7-4.4-9-4.4
					c-2.2,0-4.6,0.7-6.9,2.2c-50.3,31.7-100.6,63.4-150.7,95.3c-8.9,5.6-11.3,14.9-11.4,24.7c-0.1,10.3,3.4,20.1,5.5,30
					c8.4,39.5,17.1,78.9,25.6,118.4c2.2,10.3,3.9,20.7,6.7,30.7c5.2,18.9,2,36.4-8.6,52.3c-18.7,27.8-44,43.7-76.6,43.7
					c-3.2,0-6.6-0.2-10-0.5c-20-1.9-35.2-12.1-42.6-31.6c-5.9-15.7-3.3-31.1,3.9-45.9c14.2-29.4,47.8-51.2,81-51.2
					c3.8,0,7.5,0.3,11.3,0.9c0.5,0.1,0.9,0.1,1.2,0.1c1.8,0,1.6-1,1.2-2.9c-7.6-34.5-15.2-69.1-22.7-103.6
					c-5.3-24.3-10.6-48.6-15.9-72.9c-1.8-8.1-0.7-16,2.9-23.5c1.9-3.8,4.5-7,8.1-9.3c66.2-42.5,132.4-85,198.6-127.5
					C2866,755,2870,753.6,2873.4,753.6 M2873.4,721.1c-9.8,0-19.6,3.1-29.2,9.2l-87.3,56l-111.3,71.4c-8.6,5.5-15.3,13.1-19.8,22.5
					c-6.8,14-8.6,29.4-5.4,44.5c4.5,20.9,9.1,41.8,13.7,62.7l2.2,10.3c5,23,10.1,46.1,15.1,69.1c-35.9,8.3-68.6,33.4-84.6,66.6
					c-11.9,24.7-13.6,48.7-5,71.5c11.4,30.2,36.9,49.4,69.9,52.5c4.4,0.4,8.7,0.6,13,0.6c42.2,0,78-20.1,103.5-58
					c16.1-24,20.6-51.4,13-79.1c-1.6-5.6-2.8-11.7-4.1-18.2c-0.7-3.6-1.4-7.2-2.2-10.7c-2.5-11.8-5.1-23.5-7.7-35.3
					c-5.9-27.2-12-55.3-17.9-83c-0.7-3.4-1.5-6.6-2.3-9.6c-1.3-5.2-2.6-10.1-2.5-13.3l0,0c41.3-26.2,83.2-52.7,124-78.4
					c1.3,6.1,2.6,12.2,3.9,18.3c4.3,19.8,8.7,40.3,12.9,60.5c-37,7.5-71.3,32.9-87.8,66.8c-8.4,17.2-11.8,34.7-10,51.8
					c4,37.4,31.5,65.7,70.2,72.2c5.5,0.9,11.2,1.4,16.9,1.4c46.6,0,92.6-29.7,111.7-72.3c8.9-19.8,11.1-40.3,6.4-60.8
					c-4.2-18.7-8.3-37.8-12.3-56.3c-1.7-8.1-3.5-16.2-5.2-24.3l-5.2-24c-8-37-16-73.9-24-110.9c-2.4-11.2-4.9-22.4-7.4-33.5
					C2912.2,731.7,2890.2,721.1,2873.4,721.1L2873.4,721.1z"/>
			</g>
			<g class="st16">
				<path class="st4" d="M2936.9,1057.8c-15.7,34.8-57.6,58.2-93.6,52.2c-24.1-4-40.5-20.2-43.2-42.8c13.2,4,43.5,9.3,79.1-10.6
					c17.2-9.6,48.7-38.7,45.2-58.7c-9.8-56.1-23.2-143-28.5-176.6c2.6,12,25.1,103.3,27.7,115.3c5.8,27,11.5,54,17.6,80.9
					C2944.4,1031.6,2942.7,1044.9,2936.9,1057.8z"/>
			</g>
			<g class="st16">
				<path class="st4" d="M2894.6,931.8c-6-28.5-12.2-56.9-18.2-85.3c-1.1-5.1-2.5-10-6.2-14c-4.6-4.9-10.2-5.8-15.9-2.2
					c-50.3,31.7-100.6,63.4-150.7,95.3c-8.9,5.6-11.3,14.9-11.4,24.7c-0.1,10.3,3.4,20.1,5.5,30c8.4,39.5,17,78.9,25.6,118.4
					c1.3,6,2.4,12,3.7,18c0.9,4.3,1.9,8.6,3,12.8c0.8,3,1.5,6,1.9,9c0.1,0.4,0.1,0.8,0.1,1.1c0,0.4,0.1,0.8,0.1,1.2
					c1.5,14.7-2.3,28.4-10.8,41c-20.5,30.6-49.1,46.7-86.5,43.2c-20-1.9-35.2-12.1-42.6-31.6c-4.7-12.5-4-24.8,0.1-36.8
					c5.4,8.2,12.7,14.8,19.2,16.8c19.2,5.9,43.1,1.7,60.4-7.3c17-8.8,41.8-24.7,39.5-42.3c-10.2-75.3-32.4-165.5-32.4-165.5
					s-9.3-32.5,13.2-47c22.5-14.4,158.3-99.4,158.3-99.4S2883,783.9,2894.6,931.8z"/>
			</g>
			<g class="st15">
				
					<ellipse transform="matrix(0.8713 -0.4908 0.4908 0.8713 -134.3044 1533.1248)" class="st2" cx="2855.8" cy="1022.6" rx="25" ry="16.8"/>
			</g>
			<g class="st15">
				
					<ellipse transform="matrix(0.8713 -0.4908 0.4908 0.8713 -218.4037 1445.0419)" class="st2" cx="2645.8" cy="1138.9" rx="25" ry="16.8"/>
			</g>
		</g>
		<g>
			<g>
				<path class="st17" d="M3312.2,1354.6c-16.5,39.6-47.8,59.2-89.1,64.6c-0.2,0-0.4,0-0.6,0.1c-3.3,0.5-8,1.4-9.4-3.1
					c-1.3-4.2,2.8-6.6,5.7-9c14.5-11.5,27.5-24.2,38.1-39.5c26.5-38.6,26.3-76.1-1.1-114c-11.5-15.9-24.3-30.8-43.1-42.4l-5.1,27.5
					c-12.2,66-26.1,131.7-35.8,198.1c-6.1,41.8-38.5,62.8-75.6,66.8c-33.7,3.6-63.1-7.7-86.5-32.7c-15.3-16.3-20.6-35.9-17.9-57.9
					c0.4-1.7,0.9-3.3,1.3-5c20.1-48.4,76.1-58.2,119.8-42.1c16.1,5.9,15.7,6.3,18.7-9.8c14.9-81.1,29.9-162.1,44.8-243.2
					c1-5.5,2.1-10.9,6-15.3c6.4-7.3,14.3-11.1,23.2-10c1.4,0.2,2.8,0.5,4.3,0.9c10,3,15.9,11.2,17.7,21.2
					c5.5,29.2,49.2,78.2,52.6,82.1c24.3,28.1,42.5,59,43.9,97.4C3325.6,1307.4,3317.8,1341.2,3312.2,1354.6z"/>
			</g>
			<g class="st15">
				
					<ellipse transform="matrix(0.1113 -0.9938 0.9938 0.1113 1338.7903 4294.4541)" class="st2" cx="3070.6" cy="1398.7" rx="22.4" ry="32.1"/>
			</g>
			<g class="st15">
				<path class="st2" d="M3312.2,1354.6c-16.5,39.6-47.8,59.2-89.1,64.6c-0.2,0-0.4,0-0.6,0.1c2.7-1.1,5.4-2.2,8.1-3.4
					c13.2-5.6,26.3-12.8,38-21c19.7-13.8,32.2-46.8,34-70.9c1.8-23.8-5.7-50.7-17.1-72.7c-14.8-28.6-36-52.8-51.4-80.8
					c-13.3-24-30.5-53.6-28.5-82.7c1.4,0.2,2.8,0.5,4.3,0.9c10,3,15.9,11.2,17.7,21.2c5.5,29.2,49.2,78.2,52.6,82.1
					c24.3,28.1,42.5,59,43.9,97.4C3325.6,1307.4,3317.8,1341.2,3312.2,1354.6z"/>
			</g>
			<g>
				<path class="st4" d="M3084.1,1517.1c-31.9,0-60.6-12.7-83.7-37.3c-17.4-18.5-24.5-41.4-21.2-68.1c0.1-0.6,0.2-1.1,0.3-1.7l1.3-5
					c0.1-0.6,0.3-1.1,0.6-1.6c23.2-55.9,87.3-67,135.9-49.2l1.4,0.5c0.1,0,0.2,0.1,0.3,0.1c0,0,0-0.1,0-0.1l0.1-0.7
					c12.4-67.3,24.8-134.6,37.2-201.9l7.6-41.3c1-5.6,2.6-14.2,8.9-21.3c11.2-12.7,25.6-17.3,40.6-12.9c14,4.1,23.7,15.4,26.6,31
					c2.8,15.2,21.6,44.1,49,75.4l0.7,0.8c19.3,22.3,45.2,57.5,47,105c1.6,20.1-6.6,55.7-12.9,70.6c-17.3,41.6-50.7,66-99.1,72.3
					l-0.8,0.1c-16,2.4-21.2-6.5-22.9-11.9c-3.8-12.2,5.9-19.6,9.1-22l0.9-0.7c15.2-12.1,26.8-24.1,35.5-36.8
					c23.6-34.3,23.3-65.9-1-99.3c-6.8-9.4-14.4-19-24.1-27.6l-1.4,7.5c-3.6,19.7-7.4,39.3-11.2,58.9c-8.7,45.4-17.8,92.3-24.6,138.7
					c-6.4,43.4-38.8,72.4-86.8,77.6C3093,1516.9,3088.5,1517.1,3084.1,1517.1z M3004.2,1415.6c-2.1,18.8,2.7,34.1,14.6,46.9
					c20.9,22.2,46.4,31.9,75.9,28.7c17.2-1.9,57.8-11,64.4-56.1c6.9-46.9,16-94.1,24.7-139.8c3.8-19.6,7.5-39.1,11.1-58.7l5.1-27.5
					c0.8-4.1,3.5-7.6,7.3-9.3c3.8-1.7,8.2-1.4,11.8,0.8c21.5,13.1,35.7,30.5,46.8,45.7c30.6,42.1,31,85.4,1.3,128.6
					c-6.3,9.2-13.9,18-22.8,26.7c26.6-8.6,45-25.7,55.9-51.9c5.3-12.6,12.3-44.1,11-59c0-0.2,0-0.4,0-0.6
					c-1.1-30.6-13.7-58.2-40.8-89.6l-0.6-0.7c-18.3-20.9-49.8-60.1-54.9-87.4c-1.1-6.1-4.1-10-8.9-11.4c-3.6-1.1-8.5-1.4-14.4,5.3
					c-1.6,1.8-2.2,4.9-3,9.2l-7.6,41.3c-12.4,67.3-24.8,134.6-37.2,201.9l-0.1,0.7c-1.8,9.9-3.1,17-10.4,21.2
					c-7.3,4.2-14.2,1.6-23.7-1.9l-1.4-0.5c-37.3-13.7-86-6.3-103.4,34.3L3004.2,1415.6z"/>
			</g>
			<g>
				<path class="st4" d="M3202.5,1087.7c2.4,0,4.8,0.4,7.4,1.1c10.1,3,15.9,11.2,17.8,21.2c5.5,29.2,49.2,78.2,52.6,82.1
					c24.3,28.1,42.5,59,43.9,97.5c1.5,17.8-6.3,51.5-11.9,65c-16.5,39.6-47.7,59.2-89,64.6c-1.4,0.2-3,0.5-4.6,0.5
					c-2.3,0-4.5-0.7-5.3-3.5c-1.3-4.3,2.8-6.7,5.8-9c14.4-11.5,27.5-24.3,38-39.5c26.5-38.6,26.3-76.2-1.1-114
					c-11.5-15.9-24.3-30.9-43.1-42.4c-1.8,10-3.5,18.8-5.1,27.5c-12.1,66-26.1,131.7-35.8,198.1c-6.1,41.8-38.5,62.8-75.6,66.8
					c-4.1,0.4-8.2,0.7-12.2,0.7c-28.6,0-53.8-11.4-74.4-33.3c-15.3-16.3-20.6-35.9-17.9-57.9c0.4-1.7,0.9-3.3,1.3-5
					c14.3-34.4,46.6-49.3,79.8-49.3c13.6,0,27.3,2.5,40,7.2c6.2,2.3,10,3.7,12.4,3.7c3.9,0,4.5-3.7,6.3-13.5
					c14.9-81.1,29.9-162.1,44.8-243.2c1-5.5,2.1-10.9,6-15.2C3188,1091.5,3194.8,1087.7,3202.5,1087.7 M3202.5,1072.7
					c-11.7,0-22.6,5.3-31.4,15.3c-6.7,7.7-8.4,16.6-9.5,22.4l-7.6,41.3c-12.3,66.7-24.6,133.3-36.9,200c-14.1-5.1-29.4-7.8-44.3-7.8
					c-43.4,0-78.4,21.9-93.6,58.5c-0.3,0.6-0.5,1.3-0.7,1.9l-1.1,4.2l-0.2,0.8c-0.2,0.6-0.3,1.3-0.4,2c-3.4,27.4,4,51,21.8,70
					c23.4,24.9,52.9,38,85.3,38c4.5,0,9.1-0.3,13.8-0.8c49.1-5.3,82.3-35.1,88.8-79.6c6.8-46.3,15.8-93.2,24.5-138.6
					c3.7-19.3,7.6-39.3,11.2-59l0.6-3.4c8.1,7.7,14.7,16.1,20.7,24.4c23.6,32.5,23.9,63.2,0.9,96.6c-8.6,12.5-20,24.4-35,36.3
					l-0.9,0.7c-9.4,7.2-12.7,15.4-9.9,24.5c2.7,8.7,10.2,14.1,19.7,14.1c2.3,0,4.3-0.3,5.8-0.5l0.8-0.1
					c49.3-6.5,83.3-31.3,100.9-73.8c6.4-15.5,14.7-50.9,13-71.7c-1.8-48.2-28-83.8-47.5-106.4l-0.7-0.8
					c-27.2-31-45.7-59.5-48.5-74.3c-3.1-16.5-13.4-28.4-28.3-32.8C3210.2,1073.3,3206.3,1072.7,3202.5,1072.7L3202.5,1072.7z"/>
			</g>
			<g class="st16">
				<path class="st4" d="M3269.6,1371.2c-13.1,20.9-33,37-56.2,45.9c-0.1-0.3-0.2-0.5-0.3-0.8c-1.3-4.3,2.8-6.7,5.8-9
					c14.4-11.5,27.5-24.2,38-39.5c26.5-38.6,26.3-76.1-1.1-114c-11.5-15.9-24.3-30.8-43.1-42.4l-5.1,27.5
					c-12.2,66-26.1,131.7-35.8,198.1c-6.1,41.8-38.5,62.8-75.6,66.8c-33.7,3.6-63.1-7.7-86.5-32.6c-15.3-16.3-20.6-36-17.9-57.9
					c0.4-1.7,0.9-3.3,1.3-5c3.8-9.2,9-17.1,15-23.6c-9.2,39.5,45.2,76,84.4,65.3c40.8-11.1,57-61.5,63.7-98.1
					c11.1-60.9,22.7-125.1,37-186.1c14.1,11.1,61.9,71.3,72.3,89.8C3283.2,1287.3,3289.7,1339.1,3269.6,1371.2z"/>
			</g>
		</g>
	</g>
</g>
</svg>
