<?xml version="1.0" encoding="utf-8"?>
<!-- Generator: Adobe Illustrator 22.0.0, SVG Export Plug-In . SVG Version: 6.00 Build 0)  -->
<svg version="1.1" id="Layer_1" xmlns="http://www.w3.org/2000/svg" xmlns:xlink="http://www.w3.org/1999/xlink" x="0px" y="0px"
	 viewBox="0 0 4000 4000" style="enable-background:new 0 0 4000 4000;" xml:space="preserve">
<style type="text/css">
	.st0{display:none;}
	.st1{display:inline;fill:#FDA8F3;}
	.st2{fill:#FFFFFF;}
	.st3{fill:#371A45;}
	.st4{fill:#FFB200;}
	.st5{fill:#D66B09;}
	.st6{fill:#293856;}
	.st7{fill:#FFD766;}
	.st8{fill:#FFEC90;}
	.st9{opacity:0.3;}
	.st10{opacity:0.41;}
	.st11{opacity:0.35;}
	.st12{fill:#22A7F0;}
	.st13{opacity:0.7;}
	.st14{opacity:0.4;}
	.st15{fill:#111A28;}
	.st16{fill:#16B767;}
	.st17{opacity:0.5;}
	.st18{fill:#A44F32;}
	.st19{fill:#9B5639;}
	.st20{fill:#FCF7FB;}
	.st21{fill:#6B184E;}
	.st22{fill:#F8AC4C;}
	.st23{fill:#FF55B6;}
	.st24{fill:#55DFFF;}
	.st25{fill:#FEF26B;}
	.st26{fill:#FFD2D2;}
</style>
<g>
	<g class="st0">
		<rect class="st1" width="4000" height="4000"/>
	</g>
	<g>
		<g>
			<g>
				<path class="st2" d="M2439.9,1464.6v474.7c0,39.3-14.1,75.2-37.5,103c-6.4,7.6-13.5,14.7-21.3,21
					c-27.6,22.6-62.9,36.2-101.4,36.2h-549.3c-38.5,0-73.8-13.6-101.4-36.2c-24.5-20-42.9-47.1-52.1-78.2
					c-4.4-14.5-6.7-29.9-6.7-45.8v-474.7c0-46.6,19.9-88.6,51.7-117.9c22.9-21.1,52-35.6,84.3-40.5c7.9-1.2,16.1-1.8,24.3-1.8h549.3
					c36.1,0,69.5,11.9,96.2,32.1C2414.8,1365.7,2439.9,1412.2,2439.9,1464.6z"/>
			</g>
			<g>
				<path class="st3" d="M2279.7,2114.7h-549.3c-96.7,0-175.4-78.7-175.4-175.4v-474.7c0-96.7,78.7-175.4,175.4-175.4h549.3
					c96.7,0,175.4,78.7,175.4,175.4v474.7C2455.2,2036,2376.5,2114.7,2279.7,2114.7z M1730.4,1319.5c-80,0-145,65.1-145,145v474.7
					c0,80,65.1,145,145,145h549.3c80,0,145-65.1,145-145v-474.7c0-80-65.1-145-145-145H1730.4z"/>
			</g>
		</g>
		<g>
			<g>
				<g>
					<path class="st4" d="M2728.8,2827.1c-2.8,30.6-7.5,60.9-14,90.8c-9.1,42-21.8,83.1-37.9,122.9
						c-69.8,172.5-203.5,319.4-386.4,402.1c-183.3,82.9-382.4,86.1-558.3,24.2c-38.6-13.6-76.1-30.3-112.1-50
						c-28.2-15.4-55.4-32.7-81.6-51.7c184.1-46.3,396.9-121,617.1-220.6C2375.9,3045.2,2572.5,2934.7,2728.8,2827.1z"/>
				</g>
				<g>
					<path class="st5" d="M2155.7,3144.8c220.2-99.6,416.8-210.1,573.1-317.7c-2.8,30.6-7.5,60.9-14,90.8
						c-120.3,87.4-312.6,195.3-536.4,296.6c-214.4,97-414.3,168.1-558.3,202.6c-28.2-15.4-55.4-32.7-81.6-51.7
						C1722.7,3319.1,1935.4,3244.4,2155.7,3144.8z"/>
				</g>
				<g>
					<path class="st4" d="M2698.4,2537.2c-122.1,98.7-363.3,237-651.4,367.3c-288.1,130.3-551.2,220.1-706,246.6
						c-16.1-26.3-30.7-53.9-43.8-82.8c-0.6-1.4-1.2-2.7-1.8-4.1c-5.7-12.7-11-25.5-15.9-38.4c-11.5-30.1-20.9-60.6-28.3-91.2
						c-0.3-1.3-0.6-2.5-0.9-3.7c-10.8-45.5-17.1-91.5-19.2-137.1c-4-87,7.3-173.3,32.4-255.1c18.8-60.9,45.2-119.4,78.7-173.9
						c75.8-123.1,187.9-225.7,329.5-289.7c14.1-6.4,28.2-12.3,42.5-17.7c190.8-72.8,395.2-62.4,570.6,15.2c1.1,0.5,2.2,1,3.3,1.5
						c76.1,34,146.7,80.9,208.4,139c30.2,28.5,58.2,59.7,83.6,93.5c2.8,3.6,5.5,7.4,8.2,11.1c2.3,3,4.4,6.1,6.6,9.2
						c18.1,25.8,34.8,53,49.8,81.5c5.6,10.6,11,21.4,16.1,32.3c1.4,3,2.8,6,4.1,9C2678.1,2478.5,2689.2,2507.7,2698.4,2537.2z"/>
				</g>
				<g>
					<path class="st5" d="M2660.9,2440.7c1.4,3,2.8,6,4.2,9c13,28.8,24.1,58.1,33.2,87.5c-122.1,98.7-363.3,237-651.4,367.3
						c-288.1,130.3-551.2,220.1-705.9,246.6c-16.1-26.3-30.7-53.9-43.8-82.8c-0.6-1.4-1.2-2.7-1.8-4.1
						c146.8-16.2,414.6-103.1,708.3-236C2309,2690.2,2558.6,2540.4,2660.9,2440.7z"/>
				</g>
				<g>
					<path class="st5" d="M1241.3,2810.6c-3.8,0-7.5-0.1-11-0.3l1.7-33.2c103.6,5.3,372.8-79.9,654.7-207.5
						c297.1-134.4,547.7-288,595.8-365.4l28.2,17.6c-52.1,83.6-303,239.1-610.3,378.1C1618.9,2727.3,1357.5,2810.6,1241.3,2810.6z"
						/>
				</g>
				<g>
					<path class="st5" d="M1266.1,2555.1l-4.9-32.9c115.8-17.2,316.2-86,523-179.5c216.7-98,404.4-206.3,489.8-282.5l22.1,24.8
						c-87.8,78.4-278.7,188.7-498.2,288C1588.4,2467.7,1384.7,2537.5,1266.1,2555.1z"/>
				</g>
				<g>
					<path class="st5" d="M1251.5,2947.5c-0.4,0-0.8,0-1.2,0l0.2-33.2c0.4,0,0.8,0,1.1,0c119.2,0,396.3-89.2,690.5-222.2
						c309.8-140.1,570-298.1,633-384.2l26.8,19.6c-67,91.7-326.7,250.5-646.1,394.9C1657.7,2857.2,1375,2947.5,1251.5,2947.5z"/>
				</g>
				<g>
					<path class="st5" d="M1732.8,3475.4l-0.6-8.3l-3.7-7.5l1.5-0.7l1.7-0.1c102-7.3,296.1-70.1,494.6-159.8
						c199.5-90.2,370-191.5,444.9-264.2l11.6,11.9c-76.2,74-248.5,176.4-449.6,267.4C2029.9,3406,1838.2,3467.8,1732.8,3475.4z"/>
				</g>
				<g>
					<path class="st6" d="M1981.6,3526c-160.2,0-319.3-49.9-452.8-147.2l-28.7-20.9l34.4-8.7c189.7-47.7,402.2-123.7,614.3-219.6
						c212.1-95.9,409.4-205.3,570.6-316.3l29.2-20.1l-3.2,35.3c-25.2,274.7-196.9,515.9-448,629.4
						C2196.6,3503.6,2088.9,3526,1981.6,3526z M1577.9,3372.4c209.3,137.4,476.5,159.1,705.8,55.4
						c229.3-103.7,389.4-318.7,424.5-566.5c-156.9,105-344.7,207.9-545.6,298.7C1961.6,3250.8,1760.3,3323.9,1577.9,3372.4z"/>
				</g>
				<g>
					<path class="st5" d="M2708.6,2351.7c0.7,1.5,1.2,3.2,1.6,4.8L2708.6,2351.7z"/>
				</g>
				<g>
					<path class="st7" d="M3097,2371.1c45.3,100.2-104.1,274.1-368.2,456c-156.4,107.7-352.9,218.1-573.1,317.7
						c-220.2,99.6-433,174.3-617.1,220.6c-311,78.2-540.2,75.5-585.5-24.7c-41.2-91,78.2-242.7,298.2-406.1
						c7.4,30.6,16.8,61.1,28.3,91.2c-60.8,49.7-90.8,89.2-80.4,112.2c10.6,23.4,61.7,26.7,141.8,13
						c154.8-26.5,417.9-116.3,705.9-246.6c288.1-130.3,529.3-268.5,651.4-367.3c63.1-51.1,94.4-91.6,83.8-115.1
						c-10.4-23-59.8-26.6-137.3-13.8c-15-28.5-31.7-55.7-49.8-81.5C2863,2269.5,3055.8,2280.1,3097,2371.1z"/>
				</g>
				<g>
					<path class="st8" d="M1234.3,3229.5c-56.8,0-100-11.7-114.1-43.1c-20.3-44.9,26.8-113.2,140-203l15.5,19.5
						c-97.3,77.2-147,141.9-132.8,173.2c16.9,37.3,140.5,49.5,433.3-39c150.2-45.4,320-110.4,491-187.7
						c171.1-77.4,331.9-162,465.2-244.8c259.9-161.4,332.4-262.3,315.5-299.7c-14.1-31.3-95.6-36.8-217.8-14.7l-4.4-24.5
						c142.2-25.7,224.6-16,244.9,28.9c39.7,87.8-186.6,245.1-325,331.1c-134.2,83.3-296.1,168.5-468.1,246.3
						c-172.1,77.8-342.9,143.1-494.1,188.9C1483.2,3191.3,1336.7,3229.5,1234.3,3229.5z"/>
				</g>
				<g>
					<path class="st8" d="M1195.1,3330.7c-92.5,0-151.6-21.3-170.8-63.7c-39.9-88.1,101.2-220,226.6-315.1l15.1,19.9
						c-162.2,123-244,229.5-219,284.9c31.6,69.8,225,65.3,505-11.6c171-47,363.4-118,556.3-205.2
						c192.9-87.2,373.2-184.8,521.4-282.2c242.6-159.4,373.8-301.8,342.2-371.5c-25.1-55.4-159.1-64.3-358.6-23.7l-5-24.4
						c154.2-31.4,346.4-50.2,386.2,37.9c38.1,84.2-89.9,231-351.2,402.6c-149.3,98.1-330.8,196.3-524.8,284.1
						c-194,87.8-387.7,159.2-559.9,206.5C1409.2,3310.1,1286,3330.6,1195.1,3330.7z"/>
				</g>
				<g>
					<path class="st3" d="M1171.3,3437.1c-125.3,0-206.4-30-233.4-89.6c-43.9-97,63.9-248.4,303.4-426.2l20.2-15l5.9,24.4
						c7.3,30.1,16.6,60.2,27.7,89.2l4.3,11.2l-9.3,7.6c-84.8,69.4-76.1,91.6-75.7,92.5c0.4,0.9,11.6,22.7,123.9,3.5
						c158.1-27,427-121.1,701.9-245.4c274.9-124.3,523.1-264.2,647.8-365c88.5-71.6,79.6-94.4,79.1-95.3
						c-0.4-0.9-11.3-22.1-119.4-4.2l-11.8,2l-5.6-10.6c-14.5-27.5-30.8-54.3-48.7-79.7l-14.4-20.5l24.5-5.3
						c291.8-62.4,476.6-43.4,520.5,53.6h0c48,106.1-88.3,279.8-373.9,476.5c-162.7,112.1-361.8,222.4-575.7,319.2
						c-213.9,96.7-428.3,173.4-619.9,221.6C1394.9,3418.6,1269.5,3437.1,1171.3,3437.1z M1241.4,2962.8
						c-205.9,156.6-307.8,294.5-273.2,371c39.5,87.4,256.5,93.3,566.3,15.4c189.7-47.7,402.2-123.7,614.3-219.6
						c212.1-95.9,409.4-205.3,570.6-316.3c263.1-181.2,402-348,362.4-435.4c-34.6-76.5-205.4-91.1-459-39.9
						c11.1,16.9,21.5,34.3,31.2,52c84.2-12.6,129.9-4.6,143.4,25.2c14.3,31.6-13.9,74.4-88.5,134.8
						c-128.7,104.1-373.5,242.2-655,369.5c-281.4,127.3-546.9,219.9-710,247.8c-94.7,16.2-145.5,9-159.7-22.6
						c-13.4-29.7,10.7-69.4,75.8-124.3C1253,3001.6,1246.8,2982.3,1241.4,2962.8z"/>
				</g>
				<g>
					<g class="st9">
						<path class="st3" d="M2155.7,3144.8c-206,93.2-405.5,164.5-581.1,211.3c10.3,6.3,20.7,12.4,31.3,18.2
							c35.9,19.7,73.5,36.4,112.1,50c175.9,61.9,375,58.7,558.3-24.2c182.9-82.7,316.6-229.7,386.4-402.1
							c16.1-39.8,28.8-80.9,37.9-122.9c2.4-11,4.5-22.1,6.4-33.2c7.4-5,14.7-9.9,21.9-14.9c-0.7,7.7-1.5,15.3-2.5,22.9
							c0.9-7.6,1.8-15.2,2.5-22.9C2572.5,2934.7,2375.9,3045.2,2155.7,3144.8z"/>
					</g>
				</g>
				<g class="st9">
					<path class="st3" d="M2698.4,2537.2c-122.1,98.7-363.3,237-651.4,367.3c-288.1,130.3-551.2,220.2-706,246.6
						c-16.1-26.4-30.7-54-43.8-82.8c-0.6-1.4-1.2-2.7-1.8-4c-5.7-12.8-11-25.5-15.8-38.4c-11.5-30.1-20.9-60.6-28.4-91.2
						c-0.3-1.3-0.6-2.5-0.8-3.7c-10.8-45.5-17.1-91.5-19.3-137.1c-4-87,7.3-173.3,32.5-255.1c18.8-60.9,45.2-119.4,78.7-173.9
						c5.4-8.7,10.9-17.3,16.6-25.8c2.6-3.9,5.3-7.8,8-11.7c0.3-0.5,0.7-1,1.1-1.5c2.5-3.5,5-7.1,7.6-10.6c0.4-0.6,0.8-1.1,1.3-1.7
						c2.8-3.9,5.7-7.7,8.7-11.5c0.2-0.3,0.4-0.6,0.7-1c3.1-4.1,6.3-8.1,9.5-12.1c6.6-8.3,13.5-16.4,20.5-24.4c3.5-4,7-8,10.6-11.9
						c3.1-3.4,6.2-6.8,9.4-10.1c0.9-0.9,1.8-1.9,2.7-2.8c7-7.3,14.2-14.5,21.5-21.6c3.9-3.7,7.7-7.3,11.6-11c0,0,0,0,0.1,0
						c7.9-7.3,16-14.4,24.2-21.4c8.3-7,16.7-13.8,25.3-20.4c6.2-4.8,12.6-9.5,19-14.2c1.1-0.8,2.3-1.6,3.5-2.4
						c5.3-3.8,10.7-7.5,16.1-11.2c0.4-0.3,0.9-0.6,1.3-0.9c0,0,0,0.1,0,0.1c34.5-23.2,71.3-43.9,110.4-61.6
						c14.1-6.4,28.2-12.3,42.5-17.7l574,16.7c76.1,34,146.7,80.9,208.4,139c30.2,28.5,58.2,59.7,83.6,93.5
						c-21.6,66.2-64.4,95.3-139.2,85.7c-59.8-7.7-93.2-38.7-125.6-53.7c-29.7-13.7-52.8-15.9-67.8-14.9c-33.3,2.2-66.6,4-100,4
						h-406.2c-33.4,0-66.7-1.9-100-4c-15-1-38.1,1.2-67.8,14.9c-30.9,14.3-62.7,43.1-117.3,52.5c-13.1,61.8-18.4,125.4-15.5,189.4
						c2.1,45.7,8.4,91.6,19.2,137.1c0.3,1.3,0.6,2.5,0.9,3.8c0.4,1.6,1,3.7,1.6,6.1c37.7,129.1,176.4,183.7,310.4,172.1
						c255.5-22,809.7-318.6,927.7-387C2708.8,2532.3,2692.1,2517.1,2698.4,2537.2z"/>
				</g>
				<g class="st10">
					<g>
						<path class="st2" d="M2698.3,2537.2c-14.2,11.5-30,23.5-47.3,36c-7-19.7-14.9-39.4-23.7-58.8c-1.4-3-2.8-6-4.2-9
							c-5.1-11-10.4-21.8-16-32.3c-15-28.5-31.7-55.7-49.8-81.5c-2.2-3.1-4.4-6.2-6.6-9.2c-27.6-38-58.4-73-91.8-104.5
							c-62.5-59-134.3-106.3-211.7-140.5c-188.6-83.4-410.5-89.2-613.1,2.5c-135.3,61.2-243.6,157.5-319.1,273.3
							c74.9-144.5,197.1-265.8,356.9-338.1c202.6-91.6,424.6-85.9,613.1-2.5c77.4,34.2,149.2,81.5,211.7,140.5
							c33.4,31.5,64.2,66.4,91.8,104.5c2.3,3.1,4.4,6.2,6.6,9.3c18.1,25.8,34.8,53,49.8,81.5c5.6,10.6,10.9,21.4,16,32.3
							c1.4,3,2.8,6,4.2,9C2678.1,2478.5,2689.2,2507.7,2698.3,2537.2z"/>
					</g>
				</g>
				<g>
					<path class="st3" d="M1332.7,3169.3l-5.9-9.6c-16.5-27-31.6-55.4-44.7-84.6c-6.5-14.3-12.5-28.9-18.1-43.4
						c-11.6-30.3-21.3-61.7-29-93.2c-86.4-357.4,94.4-726.9,429.9-878.6c335.5-151.7,732.4-43.5,943.7,257.4
						c18.6,26.5,35.8,54.6,50.9,83.3c7.2,13.7,14.2,27.9,20.7,42.2c13.2,29.1,24.6,59.2,34,89.5l3.3,10.8l-8.8,7.1
						c-128.7,104.1-373.5,242.2-655,369.5c-281.4,127.3-546.9,219.9-710,247.8L1332.7,3169.3z M1980.9,2025
						c-101.7,0-204.6,21.1-302.2,65.2c-321,145.2-494,498.7-411.3,840.5c7.3,30.1,16.6,60.1,27.7,89.2c5.3,13.9,11.1,27.9,17.3,41.5
						c11.1,24.4,23.5,48.4,37,71.2c159.4-29.4,422.3-121.9,690.7-243.4c268.5-121.4,511.6-257.7,638.9-358
						c-8.3-25.3-18-50.4-29.1-74.8h0c-6.2-13.7-12.8-27.3-19.8-40.4c-14.5-27.5-30.9-54.3-48.7-79.7
						C2440.8,2136,2214,2025,1980.9,2025z"/>
				</g>
				<g class="st9">
					<path class="st3" d="M2142.1,3150.9c-215.4,96.6-423.3,169.1-603.6,214.5c-310.9,78.2-540.2,75.5-585.5-24.7
						c-41.1-91,78.3-242.7,298.2-406.1c7.4,30.6,16.9,61.1,28.4,91.2c-60.8,49.7-90.8,89.2-80.4,112.2
						c10.6,23.4,61.7,26.7,141.8,13.1c102.7-17.6,253-63,426.8-129.7c-4.2,22.6-2.4,43.3,5.9,61.5
						C1807.6,3157.9,1944.8,3178.2,2142.1,3150.9z"/>
				</g>
			</g>
		</g>
		<g>
			<path class="st2" d="M2402.4,2042.3c-0.2,6.9-0.5,13.9-0.7,21h-823.5c-1-26.5-1.4-52.6-1.3-78.2c0-25.1,0.6-49.8,1.6-74
				c1.2-28.3,2.9-55.9,5.2-82.8c1-11.8,2.1-23.4,3.3-34.9c8.6-83.4,22-159.3,37.2-226.1c15.1-65.8,31.9-123,47.8-170.1
				c0.5-1.5,1-3,1.5-4.4c1.4-4.2,2.9-8.4,4.3-12.4c10.3-29.2,19.9-54.2,28.3-74.3c1.5-3.6,2.9-7,4.3-10.3
				c14.2-33.4,23.5-51.2,23.5-51.2h512c0,0,11.3,20.7,27.8,59.6c5.6,13,11.6,28,18.1,45c6.1,16.1,12.6,33.8,19.1,53.3
				c7,20.8,14.2,43.4,21.2,67.9c15.5,53.7,30.6,116.3,42.8,186.6c8.3,47.7,15.3,98.9,20.3,153.5c3.8,41.6,6.4,85.2,7.4,130.6
				C2403.4,1974,2403.3,2007.7,2402.4,2042.3z"/>
		</g>
		<g>
			<path class="st2" d="M2402.4,2042.3c-0.2,6.9-0.5,13.9-0.7,21h-823.5c-1-26.5-1.4-52.6-1.3-78.2c0-25.1,0.6-49.8,1.6-74
				c1.2-28.3,2.9-55.9,5.2-82.8c1-11.8,2.1-23.4,3.3-34.9c8.6-83.4,22-159.3,37.2-226.1c15.1-65.8,31.9-123,47.8-170.1
				c0.5-1.5,1-3,1.5-4.4c1.4-4.2,2.9-8.4,4.3-12.4c10.3-29.2,19.9-54.2,28.3-74.3c1.5-3.6,2.9-7,4.3-10.3
				c14.2-33.4,23.5-51.2,23.5-51.2h512c0,0,11.3,20.7,27.8,59.6c5.6,13,11.6,28,18.1,45c6.1,16.1,12.6,33.8,19.1,53.3
				c7,20.8,14.2,43.4,21.2,67.9c15.5,53.7,30.6,116.3,42.8,186.6c8.3,47.7,15.3,98.9,20.3,153.5c3.8,41.6,6.4,85.2,7.4,130.6
				C2403.4,1974,2403.3,2007.7,2402.4,2042.3z"/>
		</g>
		<g>
			<path class="st3" d="M2416.3,2078.4h-852.8l-0.6-14.6c-6.4-168.6,9.3-336.8,46.5-499.8c1.9-8.2,10-13.3,18.2-11.5
				c8.2,1.9,13.3,10,11.5,18.2c-35.5,155.7-51.1,316.2-46.2,477.3H2387c4.2-131.4-4.9-262-27-388.4c-1.4-8.3,4.1-16.2,12.4-17.6
				c8.3-1.4,16.2,4.1,17.6,12.4c23.2,133.2,32.3,270.9,26.9,409.4L2416.3,2078.4z"/>
		</g>
		<g>
			<path class="st2" d="M1715.7,1347.1c0,0-114.5,94.5-182,194.8c-83.5,124.1-77.3,250.6-77.3,250.6l408.8,3.3L1715.7,1347.1z"/>
		</g>
		<g>
			<path class="st3" d="M1865.3,1810.9c0,0-0.1,0-0.1,0l-408.8-3.3c-8.1-0.1-14.7-6.4-15.1-14.5c-0.3-5.4-5.5-132.9,79.8-259.8
				c67.9-100.9,180.2-194.1,184.9-198c6.5-5.4,16.1-4.4,21.4,2c5.3,6.5,4.4,16.1-2,21.4c-1.1,0.9-113.6,94.3-179,191.5
				c-63.7,94.7-73.3,191.3-74.6,227l393.7,3.1c8.4,0.1,15.2,6.9,15.1,15.3C1880.4,1804.2,1873.6,1810.9,1865.3,1810.9z"/>
		</g>
		<g class="st11">
			<path class="st3" d="M2402.7,1941.2c-41.8,2.2-87.5,1.1-124.9-8.7v26.7c0,5.9-0.8,11.5-2.2,17c-3.1,11.7-9.2,22.2-17.5,30.5
				c-3.5,3.5-7.4,6.5-11.6,9.2c-10.4,6.6-22.7,10.5-35.9,10.5h-366.9c-12.6,0-24.3-3.6-34.5-9.7c-19.6-11.8-32.7-33.2-32.7-57.5
				v-21.3c-50.9,7.7-110.5,3.7-154.7-1.6c-18-2.2-33.3-11.7-43.3-25.1c1.2-28.3,2.9-55.9,5.2-82.8c12.3-12.7,29.8-20.3,48.7-19.4
				c40.8,1.9,96.5,3,144.1-1.1V1760c0-5.7,0.8-11.3,2.2-16.6c7.5-29,33.8-50.6,65-50.6h366.9c0.3,0,0.5,0,0.8,0c1.7,0,3.3,0.1,5,0.3
				c0.6,0,1.2,0.1,1.7,0.2c1.7,0.2,3.5,0.5,5.2,0.8c0.6,0.1,1.3,0.3,1.9,0.4c1.6,0.4,3.3,0.8,4.9,1.3c0.5,0.2,1,0.3,1.6,0.5
				c1.3,0.4,2.7,0.9,4,1.4c0.6,0.2,1.1,0.4,1.7,0.6c1.5,0.7,3,1.4,4.4,2.2c0.6,0.3,1.1,0.6,1.7,1c1.4,0.8,2.9,1.7,4.3,2.6
				c0.5,0.3,0.9,0.6,1.3,1c1.2,0.8,2.4,1.7,3.5,2.6c0.3,0.3,0.7,0.6,1.1,0.8c1.3,1.1,2.6,2.3,3.9,3.5c0.3,0.4,0.7,0.7,1.1,1.1
				c1.3,1.3,2.5,2.6,3.6,4l0.7,0.8c0.4,0.5,0.9,1.1,1.3,1.6c0.5,0.6,1,1.3,1.4,2c0.4,0.5,0.7,1,1.1,1.5c1,1.6,2,3.1,2.9,4.8
				c0,0.1,0.1,0.2,0.2,0.3c1,1.8,1.9,3.7,2.7,5.7c0.1,0.2,0.2,0.4,0.2,0.6c0.7,1.7,1.3,3.4,1.9,5.1c0.2,0.5,0.3,1,0.4,1.4
				c0.5,1.5,0.9,3.1,1.2,4.6c0.1,0.5,0.2,1.1,0.3,1.6c0.2,1.1,0.4,2.3,0.6,3.5c0.1,0.5,0.2,1,0.2,1.4c0,0.5,0.1,0.9,0.2,1.3
				c0.2,2.1,0.3,4.3,0.3,6.5v44.9c35.1,5.1,78.2,6.2,117.5,5.7C2399.1,1852.2,2401.7,1895.8,2402.7,1941.2z"/>
		</g>
		<g>
			<g>
				<path class="st2" d="M1810.5,1824.9c-56.4,22.8-143.6,18-203.1,10.8c-35.7-4.3-60.7-37.2-55.5-72.8v0
					c4.8-32.4,33.3-56,66.1-54.5c55.6,2.6,139.1,3.8,191.9-7.9"/>
			</g>
			<g class="st11">
				<path class="st3" d="M1810.5,1824.8c-56.4,22.9-143.6,18-203.1,10.9c-35.7-4.3-60.7-37.3-55.4-72.8c1-7.3,3.3-14.1,6.6-20.3
					c9.4,17.9,27.2,31.1,48.9,33.8c59.4,7.2,146.4,12,202.8-10.7L1810.5,1824.8z"/>
			</g>
			<g>
				<path class="st3" d="M1698.4,1856.9c-32.6,0-65.1-2.7-92.8-6.1c-21.3-2.6-40.3-13.4-53.3-30.5c-13.1-17.1-18.5-38.3-15.4-59.6
					c6-40.4,41.2-69.4,81.9-67.5c81.9,3.8,148.6,1.2,187.9-7.6c8-1.8,27.7-1.8,39.3,35.5c11.8,37.9,10.4,101.4-29.8,117.7l0,0
					C1783.1,1852.4,1740.6,1856.9,1698.4,1856.9z M1615,1723.6c-24,0-44.4,17.5-48,41.6c-1.9,13.1,1.4,26.2,9.5,36.7
					c8,10.5,19.7,17.2,32.8,18.8c85,10.3,154.4,6.8,195.5-9.8l0,0c12-4.9,15.5-24.3,16.5-32.4c3.4-28.8-5.3-55.7-10.8-62.3
					c-53.6,11.2-134.3,10.4-193,7.6C1616.6,1723.6,1615.8,1723.6,1615,1723.6z"/>
			</g>
			<g>
				<path class="st2" d="M2241.6,1824.9c56.4,22.8,143.6,18,203.1,10.8c35.7-4.3,60.7-37.2,55.5-72.8v0c-4.8-32.4-33.3-56-66.1-54.5
					c-55.6,2.6-139.1,3.8-191.9-7.9"/>
			</g>
			<g class="st11">
				<path class="st3" d="M2444.7,1835.7c-59.5,7.2-146.7,12-203.1-10.9l0.2-59.7c56.4,22.7,143.5,17.9,202.8,10.7
					c21.6-2.6,39.3-15.7,48.7-33.5c3.3,6.3,5.7,13.2,6.8,20.6C2505.4,1798.5,2480.3,1831.4,2444.7,1835.7z"/>
			</g>
			<g>
				<path class="st3" d="M2353.7,1856.9c-42.2,0-84.7-4.5-117.8-17.9h0c-40.2-16.3-41.6-79.9-29.8-117.7
					c11.6-37.4,31.4-37.3,39.3-35.5c39.2,8.7,106,11.4,187.9,7.6c40.7-1.9,75.9,27.1,81.9,67.5c3.1,21.3-2.3,42.5-15.4,59.6
					c-13,17.1-32,27.9-53.3,30.5C2418.7,1854.2,2386.3,1856.9,2353.7,1856.9z M2247.3,1810.8c41.1,16.6,110.5,20.1,195.5,9.8
					c13.1-1.6,24.7-8.2,32.8-18.8c8-10.5,11.4-23.6,9.5-36.7c-3.7-24.8-25.2-42.7-50.3-41.5c-58.7,2.8-139.4,3.6-193-7.6
					c-5.5,6.6-14.3,33.5-10.8,62.3C2231.8,1786.5,2235.3,1805.9,2247.3,1810.8L2247.3,1810.8z"/>
			</g>
			<g>
				<path class="st2" d="M2263.4,1659.5v199.2c0,37-30.3,67.2-67.2,67.2h-366.9c-36.9,0-67.2-30.3-67.2-67.2v-199.2
					c0-37,30.3-67.2,67.2-67.2h366.9c21.8,0,41.2,10.5,53.5,26.6C2258.3,1630.2,2263.4,1644.3,2263.4,1659.5z"/>
			</g>
			<g class="st11">
				<path class="st3" d="M2263.4,1659.5v199.2c0,37-30.2,67.2-67.2,67.2h-366.9c-37,0-67.2-30.2-67.2-67.2v-74.5
					c55.1,56.2,163.4,91.4,262.8,92c31.9,0.2,57.7-25.1,60-56.9c0-0.3,0-0.6,0.1-1c2.4-27.9,25.5-50.6,53.4-52.6
					c31.9-2.3,58.8,21.2,61.9,51.8c48.1-59.4,34-162.6,49.3-198.5C2258.3,1630.2,2263.4,1644.3,2263.4,1659.5z"/>
			</g>
			<g>
				<path class="st3" d="M2196.2,1941.1h-366.9c-45.4,0-82.4-37-82.4-82.4v-199.2c0-45.4,37-82.4,82.4-82.4h366.9
					c45.4,0,82.4,37,82.4,82.4v199.2C2278.6,1904.1,2241.6,1941.1,2196.2,1941.1z M1829.3,1607.5c-28.7,0-52,23.3-52,52v199.2
					c0,28.7,23.3,52,52,52h366.9c28.7,0,52-23.3,52-52v-199.2c0-28.7-23.3-52-52-52H1829.3z"/>
			</g>
			<g>
				<circle class="st12" cx="2142.7" cy="1759.1" r="57.9"/>
			</g>
			<g class="st13">
				<path class="st2" d="M2200.7,1759.1c0,4-0.4,7.8-1.1,11.6c-5.3-26.5-28.7-46.4-56.8-46.4c-28.1,0-51.5,19.9-56.8,46.4
					c-0.8-3.8-1.1-7.6-1.1-11.6c0-32,25.9-57.9,58-57.9C2174.7,1701.2,2200.7,1727.1,2200.7,1759.1z"/>
			</g>
			<g class="st11">
				<path class="st3" d="M2200.7,1759.1c0,32-25.9,57.9-57.9,57.9c-32,0-57.9-25.9-57.9-57.9c0-7.4,1.4-14.5,4-21
					c8.3,21.6,29.4,36.9,53.9,36.9c24.6,0,45.6-15.3,53.9-36.9C2199.3,1744.6,2200.7,1751.7,2200.7,1759.1z"/>
			</g>
			<g>
				<path class="st3" d="M2142.7,1828.4c-38.2,0-69.3-31.1-69.3-69.3s31.1-69.3,69.3-69.3s69.3,31.1,69.3,69.3
					S2181,1828.4,2142.7,1828.4z M2142.7,1712.6c-25.7,0-46.5,20.9-46.5,46.5s20.9,46.5,46.5,46.5s46.5-20.9,46.5-46.5
					S2168.4,1712.6,2142.7,1712.6z"/>
			</g>
			<g>
				<path class="st3" d="M1978.6,1937.3c-6.3,0-11.4-5.1-11.4-11.4v-96.1c0-25.2-12-49.3-32.1-64.4c-25.8-19.4-41.2-50.3-41.2-82.6
					v-90.4c0-6.3,5.1-11.4,11.4-11.4s11.4,5.1,11.4,11.4v90.4c0,25.2,12,49.3,32.1,64.4c25.8,19.4,41.2,50.3,41.2,82.6v96.1
					C1990,1932.2,1984.9,1937.3,1978.6,1937.3z"/>
			</g>
		</g>
		<g>
			<g>
				<path class="st2" d="M2492.6,1095.1L2492.6,1095.1c-5.7,0.4-10.6-3.8-11-9.5l-22-294.7c-0.4-5.7,3.8-10.6,9.5-11l0,0
					c59.3-4.4,110.9,40,115.4,99.3l7.5,100.5C2596.4,1039,2551.9,1090.7,2492.6,1095.1z"/>
				<path class="st3" d="M2491.9,1097.8c-3.1,0-6.1-1.1-8.5-3.1c-2.6-2.3-4.2-5.4-4.5-8.9l-22-294.7c-0.3-3.5,0.8-6.8,3.1-9.4
					c2.3-2.6,5.4-4.2,8.9-4.5c60.7-4.5,113.7,41.2,118.3,101.8l7.5,100.5c4.5,60.7-41.2,113.7-101.8,118.3l0,0
					C2492.5,1097.8,2492.2,1097.8,2491.9,1097.8z M2477.2,782.3c-2.6,0-5.2,0.1-7.9,0.3c-2,0.2-3.8,1.1-5.1,2.6
					c-1.3,1.5-2,3.5-1.8,5.5l22,294.7c0.2,2,1.1,3.8,2.6,5.1s3.4,1.9,5.5,1.8l0,0c57.7-4.3,101.1-54.7,96.8-112.4l-7.5-100.5
					C2577.6,824.4,2531.5,782.3,2477.2,782.3z"/>
			</g>
			<g class="st11">
				<path class="st3" d="M2588.4,932.6l3.5,47.1c4.4,59.3-40,110.9-99.3,115.4c-5.6,0.4-10.6-3.8-11-9.5l-5.9-78.3
					c1.9,3.5,5.6,5.7,9.8,5.4l7-0.5C2539.4,1008.6,2577,975.6,2588.4,932.6z"/>
			</g>
			<g>
				<path class="st3" d="M2491.8,1110.3c-6.1,0-11.9-2.2-16.6-6.2c-5.2-4.4-8.3-10.6-8.8-17.4l-22-294.7c-0.5-6.8,1.7-13.4,6.1-18.5
					c4.4-5.2,10.6-8.3,17.4-8.8c67.5-5,126.6,45.8,131.7,113.4l7.5,100.5c5,67.5-45.8,126.6-113.4,131.7
					C2493.1,1110.3,2492.5,1110.3,2491.8,1110.3z M2475.2,794.9l21.3,284.6c48.3-6.2,84-49.4,80.3-98.5l-7.5-100.5
					C2565.6,831.2,2524,793.9,2475.2,794.9z"/>
			</g>
			<g>
				<path class="st2" d="M1496.4,852.6L1496.4,852.6c5.7-0.4,10.6,3.8,11,9.5l22,294.7c0.4,5.7-3.8,10.6-9.5,11h0
					c-59.3,4.4-110.9-40-115.4-99.3l-7.5-100.5C1392.6,908.7,1437.1,857,1496.4,852.6z"/>
				<path class="st3" d="M1511.8,1170.8c-57.2,0-105.7-44.2-110-102.2l-7.5-100.5c-4.5-60.7,41.2-113.7,101.8-118.3
					c3.4-0.3,6.8,0.8,9.4,3.1c2.6,2.3,4.2,5.4,4.5,8.9l22,294.7c0.3,3.5-0.8,6.8-3.1,9.4c-2.3,2.6-5.4,4.2-8.9,4.5
					C1517.3,1170.7,1514.6,1170.8,1511.8,1170.8z M1497.1,855.3c-0.2,0-0.4,0-0.6,0l0,0c-57.7,4.3-101.1,54.7-96.8,112.4l7.5,100.5
					c4.3,57.7,54.7,101.1,112.4,96.8c2-0.2,3.8-1.1,5.1-2.6c1.3-1.5,2-3.5,1.8-5.5l-22-294.7c-0.1-2-1.1-3.8-2.6-5.1
					C1500.7,855.9,1498.9,855.3,1497.1,855.3z"/>
			</g>
			<g class="st11">
				<path class="st3" d="M1523.3,1075l6.1,81.8c0.4,5.6-3.8,10.6-9.5,11c-31.1,2.3-60.2-8.8-81.3-28.5c-19.1-17.8-31.9-42.6-34-70.8
					l-3.2-42.3c19.6,35.9,59,59,102.5,55.7l10.8-0.8C1518.6,1080.7,1521.7,1078.3,1523.3,1075z"/>
			</g>
			<g>
				<path class="st3" d="M1511.8,1183.3c-63.6,0-117.6-49.3-122.4-113.7l-7.5-100.5c-5-67.6,45.8-126.6,113.4-131.7
					c6.8-0.5,13.4,1.7,18.5,6.1c5.2,4.4,8.3,10.6,8.8,17.4l22,294.7c0.5,6.8-1.7,13.4-6.1,18.5c-4.4,5.2-10.6,8.3-17.4,8.8
					C1517.9,1183.1,1514.9,1183.3,1511.8,1183.3z M1492.6,868.2c-48.3,6.2-84,49.4-80.3,98.5l7.5,100.5
					c3.7,49.2,45.3,86.7,94.1,85.5L1492.6,868.2z M1497.5,867.7L1497.5,867.7C1497.5,867.8,1497.5,867.8,1497.5,867.7
					C1497.5,867.8,1497.5,867.8,1497.5,867.7z"/>
			</g>
			<g class="st11">
				<path class="st3" d="M2376,1336.5c-19.7,24-41.5,46.1-65,66.1c-86,73-195.4,116.9-314.6,117.3c-88.8,0.3-172.3-23.5-244.9-65.6
					c-28.2-16.4-54.8-35.5-79.3-57.1c-2.1-1.8-4.2-3.7-6.3-5.6c-15.5-14.1-30.2-29.1-44-45c22.9-21.1,52-35.6,84.3-40.5
					c1.5-3.6,2.9-7,4.3-10.3c14.2-33.4,23.5-51.2,23.5-51.2h512c0,0,11.3,20.7,27.8,59.6h5.9
					C2315.8,1304.3,2349.2,1316.3,2376,1336.5z"/>
			</g>
			<g>
				<circle class="st2" cx="1994.6" cy="973.8" r="503.6"/>
				<path class="st3" d="M1994.5,1480.2c-134.6,0-261.2-52.2-356.7-147c-96-95.3-149.1-222.3-149.6-357.5
					c-1-279.2,225.3-507.1,504.5-508.1c0.6,0,1.2,0,1.9,0c134.6,0,261.2,52.2,356.7,147c96,95.3,149.1,222.3,149.6,357.5
					c1,279.2-225.3,507.1-504.5,508.1C1995.8,1480.1,1995.1,1480.2,1994.5,1480.2z M1994.6,473c-0.6,0-1.2,0-1.8,0
					c-276.2,1-500.1,226.5-499.1,502.6c0.5,133.8,53,259.4,148,353.6c94.9,94.3,220.9,145.8,354.7,145.4
					c276.2-1,500.1-226.5,499.1-502.6C2494.4,696.5,2269.9,473,1994.6,473z"/>
			</g>
			<g class="st11">
				<path class="st3" d="M2493.1,902.3c3.3,22.8,5,46,5.1,69.7c1,278.1-223.7,504.4-501.8,505.4c-278.1,1-504.4-223.7-505.4-501.8
					c0-8,0.1-16,0.5-23.9c34.8,245,245.8,433,500.3,432.1C2261.9,1382.9,2481.5,1169.4,2493.1,902.3z"/>
			</g>
			<g>
				<path class="st3" d="M1994.5,1492.6c-137.9,0-267.6-53.5-365.5-150.6c-98.3-97.6-152.8-227.7-153.3-366.3
					c-1-286.1,230.9-519.6,517-520.7c138.7-0.4,269.1,53,367.4,150.6c98.3,97.6,152.8,227.7,153.3,366.3l0,0
					c1,286.1-230.9,519.6-517,520.7C1995.8,1492.6,1995.1,1492.6,1994.5,1492.6z M1994.6,485.4c-0.6,0-1.2,0-1.8,0
					c-269.3,1-487.6,220.8-486.6,490.1c0.5,130.4,51.7,252.9,144.3,344.8c92.6,91.9,215.3,142.4,345.8,141.8
					c269.3-1,487.6-220.8,486.6-490.1l0,0c-0.5-130.4-51.7-252.9-144.3-344.8C2246.5,535.8,2124.4,485.4,1994.6,485.4z"/>
			</g>
			<g>
				<path class="st3" d="M2496.6,985c1.8,98.5-28.4,190.6-81.7,267.3c-39.9,57.5-206.7,160-414.8,165.7
					c-193,5.3-370.5-94.3-412.6-150.3c-56.1-74.7-89.8-165.5-91.6-264.1c-4.9-260.7,217.1-373,493.5-378.2
					C2265.7,620.3,2491.7,724.2,2496.6,985z"/>
			</g>
			<g>
				<path class="st3" d="M1984.8,1433.4c-194.3,0-366.2-99-409.5-156.5c-60.1-80-92.9-174.4-94.7-272.9
					c-2.4-128.7,47.4-228.8,147.9-297.8c87.5-60,212.2-93.1,360.5-95.9c148.4-2.8,274.2,25.7,363.9,82.4
					c103,65.1,156.5,163.4,158.9,292c1.8,98.6-27.4,194.1-84.4,276.3c-39.6,57-205.5,166.1-426.9,172.2
					C1995.3,1433.3,1990,1433.4,1984.8,1433.4z M2008.8,640.5c-6.3,0-12.7,0.1-19.2,0.2c-142.4,2.7-261.3,34-343.9,90.6
					c-91.6,62.8-136.9,154.3-134.7,272.1c1.7,92.1,32.4,180.4,88.6,255.2c39.9,53.1,212.4,149.4,400,144.2
					c207.9-5.8,367.3-108.2,402.7-159.2c53.4-76.9,80.7-166.2,79-258.3c-2.2-117.8-50.9-207.6-144.7-266.9
					C2255.8,667.3,2142.8,640.5,2008.8,640.5z"/>
			</g>
			<g class="st13">
				
					<ellipse transform="matrix(0.1599 -0.9871 0.9871 0.1599 1019.9017 3103.5598)" class="st2" cx="2333.3" cy="952.6" rx="89.1" ry="64.6"/>
			</g>
			<g class="st13">
				
					<ellipse transform="matrix(0.2948 -0.9556 0.9556 0.2948 511.7559 2954.541)" class="st2" cx="2257.5" cy="1130.6" rx="40.9" ry="35.1"/>
			</g>
			<g class="st14">
				<path class="st15" d="M2394.7,743.5c62.3,57.2,99.9,136.7,101.9,241.4c1.8,98.5-28.5,190.6-81.7,267.3
					c-40,57.5-206.7,160-414.8,165.7c-73.5,2.1-144.7-11.1-207.1-31.4c255.7-12.6,458.8-138.3,508.3-209.6
					c67.6-97.4,106.1-214.2,103.7-339.2C2404.4,804.4,2400.8,773,2394.7,743.5z"/>
			</g>
			<g>
				<path class="st3" d="M1529.4,788.1c-2.9,0-5.8-1-8.1-3c-4.9-4.2-5.8-11.5-2.1-16.7c85.9-131.3,255.7-208.8,466.1-212.8
					c209.4-3.9,382,65,474,189l-10,7.5l-7.8,9.8l-1.3-1l-1-1.4c-87.1-117.4-252.4-182.6-453.4-178.9
					c-202.2,3.8-364.7,77.3-445.9,201.7l-1,1.4C1536.4,786.6,1532.9,788.1,1529.4,788.1z"/>
			</g>
			<g class="st13">
				<path class="st2" d="M1611.1,1156.7c0,0-85.6-255.7,51.1-360.8c136.7-105.1,336.2-108.4,331.7-95.5c0,0-219.8,57.6-302.9,233.7
					C1627,1069.9,1611.1,1156.7,1611.1,1156.7z"/>
			</g>
		</g>
		<g>
			<g>
				<path class="st16" d="M1790.6,1601.5l-3.3,34l-27.1,278.4c0,7.2-17.6,13.8-44.9,18c-19.6,3.1-44.2,4.9-71,5.1
					c-26.7,0.1-51.4-1.5-71-4.3c-27.4-4-45.1-10.3-45.1-17.6l-30.7-284.6l-3-27.5L1790.6,1601.5z"/>
			</g>
			<g class="st17">
				<path class="st2" d="M1494.5,1603l0.2,1.8l276.9-1.4l-3.3,34l-27.1,278.3c0,7.2-17.6,13.8-44.9,18c-3.1,0.5-6.5,0.9-9.9,1.4
					c10.4-0.8,20.2-2,28.9-3.3c27.3-4.2,45-10.8,44.9-18l27.1-278.3l3.3-34L1494.5,1603z"/>
			</g>
			<g>
				<path class="st3" d="M1641,1944.6c-25.2,0-48.9-1.5-68.9-4.4c-45.3-6.6-51.3-17.1-51.6-24.6l-34.5-320.1l312.9-1.6l-31.2,320.4
					c-0.2,7.5-6.1,18.1-51.4,25.1c-20.8,3.2-45.7,5-72.1,5.2C1643.2,1944.6,1642.1,1944.6,1641,1944.6z M1535.7,1914
					c2,2,11.8,7.2,38.6,11.1c20.1,2.9,44.2,4.4,69.9,4.3c25.6-0.1,49.8-1.9,69.8-5c26.8-4.2,36.6-9.4,38.5-11.5l29.6-303.8
					l-279.2,1.4L1535.7,1914z"/>
			</g>
			<g>
				<path class="st18" d="M1799.7,1535.9c0.1,9.8-23.8,18.7-61,24.5c-26.6,4.1-60,6.7-96.4,6.9c-36.3,0.2-69.8-2-96.4-5.9
					c-37.2-5.4-61.2-14-61.2-23.9c-0.1-16.9,70.4-30.9,157.3-31.4C1729,1505.7,1799.6,1519,1799.7,1535.9z"/>
			</g>
			<g>
				<path class="st3" d="M1638,1574.9c-34,0-66.2-2.1-93.2-6c-67.6-9.8-67.7-26-67.7-31.4c-0.1-12.9,16.5-22.2,52.1-29.3
					c30.2-6,70.2-9.5,112.8-9.7c6.7,0,165.1-0.4,165.3,37.3l0,0c0,5.3,0.1,21.5-67.4,32.1c-28.1,4.4-61.8,6.8-97.5,7
					C1640.9,1574.9,1639.4,1574.9,1638,1574.9z M1492.5,1537.4c2.1,3,14.9,10.6,54.5,16.4c27.4,4,60.4,6,95.3,5.8
					c34.9-0.2,67.8-2.5,95.2-6.8c39.6-6.2,52.3-14,54.4-17c-5.3-8.4-58.3-22.6-149.8-22.2C1550.5,1514.2,1497.7,1529,1492.5,1537.4z
					 M1792.1,1536.3L1792.1,1536.3L1792.1,1536.3z"/>
			</g>
			<g class="st11">
				<path class="st3" d="M1494.5,1603l0.2,1.5l2.8,26l4.7,43.5l4.6,42.2l6.3,58.3l6,55.9l7.5,69l1.7,15.7c0,7.2,17.7,13.6,45.1,17.6
					c19.6,2.8,44.2,4.5,71,4.3c10.4,0,20.5-0.4,30.1-0.9c15.1-0.9,29-2.3,40.9-4.2c27.4-4.2,45-10.8,44.9-18l0.7-6.9
					c-7.1,2.2-16,4.1-26.3,5.7c-12,1.9-25.9,3.3-40.9,4.2c-9.6,0.6-19.7,0.9-30,0.9c-26.7,0.2-51.4-1.5-71-4.3
					c-27.4-4-45.1-10.3-45.1-17.6l-0.7-6.8c-4.1-24-5.6-40.7-6.4-59.6l-5.8-53.3c-2.5-23.4-2.9-32.1-5.7-52.4l-7.4-69l0,0
					c-0.9-8.2,6.3-15,14.4-13.5c30,5.5,70.9,8.7,115.9,8.5c55.8-0.3,105.2-5.9,135.5-14.2l3.3-34l-274.7,1.4L1494.5,1603z"/>
			</g>
			<g>
				<path class="st19" d="M1809.3,1586.4c0.1,17.9-74.5,32.8-166.7,33.3c-92.1,0.5-166.9-13.6-167-31.5l0.4-2.4l8.7-48.3
					c0.1,9.8,24,18.5,61.2,23.9c26.7,3.9,60.1,6.1,96.4,5.9c36.3-0.2,69.7-2.7,96.4-6.9c37.1-5.8,61-14.7,61-24.5l9.1,48.2
					L1809.3,1586.4z"/>
			</g>
			<g>
				<path class="st18" d="M1799.7,1535.9l4.3,22.7l4.8,25.5l0.4,2.4c0.1,17.9-74.5,32.8-166.7,33.2c-92.1,0.5-166.9-13.6-167-31.5
					l0.4-2.4l4.3-24l4.3-24.2c0.1,9.8,24,18.5,61.2,23.9c26.7,3.9,60.1,6.1,96.4,5.9c36.3-0.2,69.8-2.8,96.4-6.9
					C1775.8,1554.6,1799.7,1545.7,1799.7,1535.9z"/>
			</g>
			<g class="st11">
				<path class="st2" d="M1799.7,1535.9l4.3,22.7c-16.6,14.6-83.1,25.7-162.6,26.1c-76.8,0.4-141.5-9.3-161-22.9l4.3-24.2
					c0.1,9.8,24,18.5,61.2,23.9c26.7,3.9,60.1,6.1,96.4,5.9c36.3-0.2,69.8-2.8,96.4-6.9C1775.8,1554.6,1799.7,1545.7,1799.7,1535.9z
					"/>
			</g>
			<g>
				<path class="st3" d="M1638,1627.3c-43.3,0-83.9-3.2-114.9-9c-37.6-7.1-55.1-16.7-55.2-30.1l0-0.7l9.2-51.3l15.1,1.3
					c1.1,2.2,13.1,10.3,54.7,16.4c27.4,4,60.4,6,95.3,5.8c34.9-0.2,67.8-2.5,95.2-6.8c41.5-6.5,53.5-14.7,54.6-17.4l15-1l9.7,51.9
					c0.2,39.5-167.1,40.9-174.2,40.9C1641.1,1627.3,1639.6,1627.3,1638,1627.3z M1483.3,1588.3c4.1,8.7,59.9,24.3,159.3,23.7
					c98.6-0.5,154.4-16.5,159-25.5l-6.5-34.2c-9.4,5.3-25.9,11-55.2,15.5c-28.1,4.4-61.8,6.8-97.5,7c-35.7,0.2-69.4-1.9-97.6-6
					c-29.3-4.2-45.9-9.7-55.3-14.9L1483.3,1588.3z"/>
			</g>
			<g>
				<path class="st18" d="M1759.5,1485.9c0,7.3-17.8,14-45.5,18.3c-19.9,3.1-44.8,5-72,5.1c-27.1,0.1-52.1-1.5-72-4.4
					c-27.8-4-45.7-10.5-45.7-17.8c-0.1-12.6,52.5-23.1,117.5-23.4C1706.8,1463.4,1759.5,1473.3,1759.5,1485.9z"/>
			</g>
			<g>
				<path class="st3" d="M1638.8,1517c-25.5,0-49.6-1.5-69.8-4.5c-46.7-6.8-52.2-17.7-52.2-25.3c-0.1-10.9,12.4-18.2,40.5-23.8
					c22.7-4.5,52.7-7.1,84.6-7.3c20.9-0.1,125.2,0.8,125.4,29.8l0,0c0,7.6-5.3,18.6-52,25.8c-21.1,3.3-46.4,5.1-73.1,5.2
					C1641,1517,1639.9,1517,1638.8,1517z M1533,1487.1c3.6,2.4,14.2,6.9,38.1,10.4c20.4,3,44.9,4.5,70.9,4.3
					c26-0.1,50.5-1.9,70.8-5.1c23.9-3.7,34.5-8.3,38-10.8c-8.1-5.8-44.8-15.1-109-14.6C1577.7,1471.7,1541,1481.2,1533,1487.1z
					 M1752.2,1487.2L1752.2,1487.2L1752.2,1487.2z"/>
			</g>
			<g>
				<path class="st18" d="M1731.2,1502.1c0,5.6-13.5,10.6-34.6,13.9c-15.1,2.4-34,3.8-54.6,3.9c-20.6,0.1-39.5-1.1-54.6-3.3
					c-21.1-3.1-34.7-7.9-34.7-13.5c0-9.6,39.9-17.5,89.1-17.8C1691.2,1485,1731.2,1492.5,1731.2,1502.1z"/>
			</g>
			<g class="st14">
				<path class="st3" d="M1731.2,1502.1c0,5.6-13.5,10.6-34.6,13.9c-15.1,2.4-34,3.8-54.6,3.9c-20.6,0.1-39.5-1.1-54.6-3.3
					c-21.1-3.1-34.7-7.9-34.7-13.5c0-9.6,39.9-17.5,89.1-17.8C1691.2,1485,1731.2,1492.5,1731.2,1502.1z"/>
			</g>
			<g>
				<path class="st3" d="M1639.6,1524.7c-19.3,0-37.5-1.2-52.8-3.4c-34.7-5-38.7-12.8-38.8-18.2c-0.1-21.5,84.3-22.5,93.9-22.6
					c9.7,0,94,0.1,94.1,21.6v0c0,5.4-3.9,13.2-38.6,18.6c-15.9,2.5-35.1,3.9-55.3,4C1641.3,1524.6,1640.4,1524.7,1639.6,1524.7z
					 M1557.8,1503c1.7,1.8,9.3,5.8,30.4,8.9c15.5,2.3,34.1,3.4,53.9,3.3c19.8-0.1,38.4-1.4,53.9-3.9c21-3.3,28.6-7.4,30.3-9.2
					c-4.1-4.7-34.2-12.2-84.3-12.1C1591.8,1490.3,1561.8,1498.2,1557.8,1503z M1726.6,1502.6L1726.6,1502.6L1726.6,1502.6z"/>
			</g>
			<g>
				<path class="st19" d="M1766.7,1523.7c0.1,13.4-55.7,24.5-124.5,24.8c-68.8,0.4-124.7-10.2-124.7-23.5l0.3-1.8l6.5-36.1
					c0,7.3,17.9,13.8,45.7,17.8c19.9,2.9,44.9,4.5,72,4.4c27.1-0.1,52.1-2,72-5.1c27.7-4.3,45.6-10.9,45.5-18.3l6.8,36
					L1766.7,1523.7z"/>
			</g>
			<g>
				<path class="st18" d="M1759.6,1485.9l3.4,18.2l3.4,17.8l0.3,1.8c0.1,13.4-55.6,24.5-124.5,24.8c-68.8,0.4-124.7-10.2-124.7-23.5
					l0.3-1.8l3.5-19.7l2.9-16.4c0,7.3,17.9,13.8,45.7,17.8c19.9,2.9,44.9,4.5,72,4.4c27.1-0.1,52.1-2.1,72-5.1
					C1741.8,1499.9,1759.6,1493.3,1759.6,1485.9z"/>
			</g>
			<g class="st11">
				<path class="st2" d="M1759.6,1485.9l3.4,18.2c-15,10.1-62.9,17.7-119.6,18c-60.1,0.3-110.3-7.7-122.1-18.6l2.9-16.4
					c0,7.3,17.9,13.8,45.7,17.8c19.9,2.9,44.9,4.5,72,4.4c27.1-0.1,52.1-2.1,72-5.1C1741.8,1499.9,1759.6,1493.3,1759.6,1485.9z"/>
			</g>
			<g>
				<path class="st3" d="M1638.8,1556.1c-32.5,0-62.9-2.4-86.1-6.8c-29.1-5.5-42.7-13.2-42.8-24.3l0-0.7l6.9-38.5l15.1,1.3
					c0-0.7-0.2-1.1-0.3-1.3c1.2,1.8,10.7,7.4,39.5,11.6c20.4,3,44.9,4.4,70.9,4.3c26-0.1,50.5-1.9,70.8-5.1
					c28.7-4.5,38.2-10.2,39.4-12c-0.1,0.1-0.3,0.6-0.3,1.3l15.1-1.5l7.3,39.1c0.1,11.1-13.5,19-42.5,24.8c-24,4.8-55.8,7.5-89.5,7.7
					C1641.1,1556.1,1640,1556.1,1638.8,1556.1z M1525.3,1524.4c5.9,6.1,45,16.9,116.9,16.5c71.7-0.4,110.9-11.6,116.7-17.7l-4.2-22
					c-7.7,3.8-20,7.5-39.5,10.6c-21.1,3.3-46.4,5.1-73.1,5.2c-26.7,0.1-52-1.4-73.1-4.5c-19.6-2.8-31.9-6.4-39.6-10.1L1525.3,1524.4
					z"/>
			</g>
			<g>
				<g>
					<path class="st20" d="M1610.7,1805.3c8.1-16.3,20.3-29.2,33-42c6.6-6.7,12.5-13.7,17.4-21.3c6.7-10.2,11.6-21.3,14.4-33.3
						c0.7-3,1.3-6.1,1.6-9.2c0.5-4.2,0.8-8.4,0.8-12.8c0-4.6-1.3-6.6-5.9-7.6c-8.4-1.8-16.5-1.7-24.3,0.1c0,0,0,0,0,0
						c-5.7,1.3-11.2,3.6-16.5,6.7c-39.1,22.9-62.6,75.2-53.9,119.7c3.1,16,9.4,30.5,23.6,41.2
						C1600.7,1831.8,1604.2,1818.2,1610.7,1805.3z"/>
				</g>
				<g>
					<path class="st20" d="M1696.4,1690.9c-0.4,21.4-6.2,39.8-15.8,56.1c-7.6,13-17.6,24.6-29.3,35.5c-6,5.6-11.2,12.1-15.8,18.9
						c-10.1,15-16.6,31.1-16.2,49.6c0.1,4.9,1.9,7.1,6.6,8.1c14.9,3.2,28.7,0.4,41.5-7.1c26.1-15.3,44.9-43.9,51.9-74.6
						c3.4-15.1,4-30.6,1.3-45.3c0-0.1,0-0.3-0.1-0.4c-0.6-3.2-1.4-6.4-2.3-9.5C1714.4,1710,1708,1699.1,1696.4,1690.9z"/>
				</g>
			</g>
			<g class="st9">
				<g>
					<path class="st21" d="M1781.4,1696.1c0,1.6-0.1,3.3-0.5,5L1781.4,1696.1z"/>
				</g>
			</g>
		</g>
		<g>
			<path class="st2" d="M1502.9,1604.7c0,0,156.2-22.5,191.3,50.6c20.7,43.3,26,166.8-37.4,215.5c-35.5,27.3-99.1,7.1-136.1,34.4
				C1483.8,1932.5,1398.9,1731.5,1502.9,1604.7L1502.9,1604.7z"/>
		</g>
		<g class="st11">
			<path class="st3" d="M1656.9,1870.9c-35.5,27.3-99.1,7.1-136.1,34.3c-25.4,18.8-73.4-70.3-67.3-168.9
				c7.2,26.4,19.6,46.2,31.2,56.6c45.5,41.2,147.3,24.8,182.9-2.5c19.5-15,32.6-37.1,40.6-61.8
				C1709.5,1779.8,1696.8,1840.2,1656.9,1870.9z"/>
		</g>
		<g>
			<path class="st3" d="M1513.2,1922.9c-7.8,0-17.6-3.3-28.3-14.6c-46.2-48.6-79.7-208.5,6.3-313.3l3.7-4.6l5.8-0.8
				c6.8-1,167.7-23.2,207.2,59.1c24.3,50.7,27,181.3-41.8,234.1c-21.4,16.5-49.1,18.4-75.8,20.3c-23.5,1.7-45.6,3.2-60.5,14.2
				C1527.3,1919.3,1521.3,1922.9,1513.2,1922.9z M1513.7,1892.5L1513.7,1892.5L1513.7,1892.5z M1511,1619
				c-54.2,70.3-49.1,164.3-27.8,224.5c11.6,32.9,24.8,46.4,29.6,48.7c21.8-15.6,49.1-17.5,75.4-19.4c23.3-1.6,45.2-3.2,59.4-14.1
				c56.9-43.8,50.8-159.6,32.9-196.9C1656.9,1612.6,1555.3,1613.8,1511,1619z"/>
		</g>
		<g>
			<g>
				<g>
					<path class="st22" d="M2110.7,1229.3c-109.7,0-198.6,88.9-198.6,198.6s88.9,198.6,198.6,198.6c109.7,0,198.6-88.9,198.6-198.6
						S2220.3,1229.3,2110.7,1229.3z M2110.7,1475.2c-26.1,0-47.3-21.2-47.3-47.3c0-26.1,21.2-47.3,47.3-47.3
						c26.1,0,47.3,21.2,47.3,47.3C2158,1454,2136.7,1475.2,2110.7,1475.2z"/>
				</g>
			</g>
			<g>
				<g>
					<path class="st23" d="M2110.7,1273.3c-85.3,0-154.6,69.2-154.6,154.5c0,85.3,69.2,154.6,154.6,154.6s154.5-69.2,154.5-154.6
						C2265.2,1342.5,2196,1273.3,2110.7,1273.3z M2110.7,1475.2c-26.1,0-47.3-21.2-47.3-47.3c0-26.1,21.2-47.3,47.3-47.3
						c26.1,0,47.3,21.2,47.3,47.3C2158,1454,2136.7,1475.2,2110.7,1475.2z"/>
				</g>
			</g>
			<g>
				<path class="st24" d="M2147.9,1355.1L2147.9,1355.1c-3.4,0-6.1-2.8-6.1-6.1v-21.2c0-3.4,2.8-6.1,6.1-6.1l0,0
					c3.4,0,6.1,2.8,6.1,6.1v21.2C2154,1352.3,2151.2,1355.1,2147.9,1355.1z"/>
			</g>
			<g>
				<path class="st25" d="M2178.4,1327.7L2178.4,1327.7c0-3.4,2.8-6.1,6.1-6.1h21.2c3.4,0,6.1,2.8,6.1,6.1l0,0
					c0,3.4-2.8,6.1-6.1,6.1h-21.2C2181.1,1333.8,2178.4,1331.1,2178.4,1327.7z"/>
			</g>
			<g>
				<path class="st26" d="M2180.9,1391.6L2180.9,1391.6c-2.7-2-3.3-5.9-1.3-8.6l12.7-17c2-2.7,5.9-3.3,8.6-1.3l0,0
					c2.7,2,3.3,5.9,1.3,8.6l-12.7,17C2187.4,1393,2183.6,1393.6,2180.9,1391.6z"/>
			</g>
			<g>
				<path class="st25" d="M2218.2,1369.9L2218.2,1369.9c2.1-2.6,6-3,8.6-0.8l16.3,13.5c2.6,2.1,3,6,0.8,8.6l0,0
					c-2.1,2.6-6,3-8.6,0.8l-16.3-13.5C2216.4,1376.4,2216.1,1372.5,2218.2,1369.9z"/>
			</g>
			<g>
				<path class="st24" d="M2204.8,1409.5L2204.8,1409.5c2.1-2.6,6-3,8.6-0.8l16.3,13.5c2.6,2.1,3,6,0.8,8.6l0,0
					c-2.1,2.6-6,3-8.6,0.8l-16.3-13.5C2203,1416,2202.7,1412.1,2204.8,1409.5z"/>
			</g>
			<g>
				<path class="st26" d="M2106.8,1308.7L2106.8,1308.7c-1.4-3-0.1-6.7,2.9-8.1l19.2-9c3-1.4,6.7-0.1,8.1,2.9l0,0
					c1.4,3,0.1,6.7-2.9,8.1l-19.2,9C2111.9,1313.1,2108.2,1311.8,2106.8,1308.7z"/>
			</g>
			<g>
				<path class="st25" d="M2073.4,1344.4L2073.4,1344.4c0.1-3.4,3-6,6.4-5.8l21.2,0.9c3.4,0.1,6,3,5.8,6.4l0,0c-0.1,3.4-3,6-6.4,5.8
					l-21.2-0.9C2075.9,1350.7,2073.3,1347.8,2073.4,1344.4z"/>
			</g>
			<g>
				<path class="st24" d="M2065.7,1290.6L2065.7,1290.6c3.2,1.1,4.9,4.5,3.9,7.7l-6.7,20.1c-1.1,3.2-4.5,4.9-7.7,3.9l0,0
					c-3.2-1.1-4.9-4.5-3.9-7.7l6.7-20.1C2059,1291.3,2062.5,1289.5,2065.7,1290.6z"/>
			</g>
			<g>
				<path class="st24" d="M2031.5,1396.7L2031.5,1396.7c-3.3-0.9-5.2-4.3-4.3-7.5l5.5-20.5c0.9-3.3,4.3-5.2,7.5-4.3l0,0
					c3.3,0.9,5.2,4.3,4.3,7.5l-5.5,20.5C2038.1,1395.6,2034.7,1397.6,2031.5,1396.7z"/>
			</g>
			<g>
				<path class="st26" d="M1997.1,1438.6L1997.1,1438.6c-1.8-2.8-0.9-6.6,1.9-8.4l17.9-11.3c2.8-1.8,6.6-0.9,8.4,1.9l0,0
					c1.8,2.8,0.9,6.6-1.9,8.4l-17.9,11.3C2002.7,1442.3,1998.9,1441.5,1997.1,1438.6z"/>
			</g>
			<g>
				<path class="st25" d="M1983.3,1370.3L1983.3,1370.3c2.5-2.2,6.4-2,8.6,0.5l14.2,15.8c2.2,2.5,2,6.4-0.5,8.6l0,0
					c-2.5,2.2-6.4,2-8.6-0.5l-14.2-15.8C1980.6,1376.5,1980.8,1372.6,1983.3,1370.3z"/>
			</g>
			<g>
				<path class="st26" d="M2039.6,1341.7L2039.6,1341.7c-0.7,3.3-3.9,5.4-7.2,4.8l-20.8-4.2c-3.3-0.7-5.4-3.9-4.8-7.2l0,0
					c0.7-3.3,3.9-5.4,7.2-4.8l20.8,4.2C2038.1,1335.1,2040.3,1338.4,2039.6,1341.7z"/>
			</g>
			<g>
				<path class="st24" d="M2078.8,1501L2078.8,1501c3.4,0,6.1,2.8,6.1,6.1v21.2c0,3.4-2.8,6.1-6.1,6.1l0,0c-3.4,0-6.1-2.8-6.1-6.1
					v-21.2C2072.7,1503.8,2075.4,1501,2078.8,1501z"/>
			</g>
			<g>
				<path class="st26" d="M2048.3,1528.4L2048.3,1528.4c0,3.4-2.8,6.1-6.1,6.1h-21.2c-3.4,0-6.1-2.8-6.1-6.1l0,0
					c0-3.4,2.8-6.1,6.1-6.1h21.2C2045.5,1522.2,2048.3,1525,2048.3,1528.4z"/>
			</g>
			<g>
				<path class="st25" d="M2045.8,1464.5L2045.8,1464.5c2.7,2,3.3,5.9,1.3,8.6l-12.7,17c-2,2.7-5.9,3.3-8.6,1.3l0,0
					c-2.7-2-3.3-5.9-1.3-8.6l12.7-17C2039.2,1463.1,2043.1,1462.5,2045.8,1464.5z"/>
			</g>
			<g>
				<path class="st24" d="M2008.4,1486.2L2008.4,1486.2c-2.1,2.6-6,3-8.6,0.8l-16.3-13.5c-2.6-2.1-3-6-0.8-8.6l0,0
					c2.1-2.6,6-3,8.6-0.8l16.3,13.5C2010.2,1479.7,2010.6,1483.6,2008.4,1486.2z"/>
			</g>
			<g>
				<path class="st26" d="M2119.9,1547.3L2119.9,1547.3c1.4,3,0.1,6.7-2.9,8.1l-19.2,9c-3,1.4-6.7,0.1-8.1-2.9l0,0
					c-1.4-3-0.1-6.7,2.9-8.1l19.2-9C2114.8,1543,2118.4,1544.3,2119.9,1547.3z"/>
			</g>
			<g>
				<path class="st25" d="M2153.3,1511.6L2153.3,1511.6c-0.1,3.4-3,6-6.4,5.8l-21.2-0.9c-3.4-0.1-6-3-5.8-6.4l0,0
					c0.1-3.4,3-6,6.4-5.8l21.2,0.9C2150.8,1505.4,2153.4,1508.3,2153.3,1511.6z"/>
			</g>
			<g>
				<path class="st26" d="M2161,1565.5L2161,1565.5c-3.2-1.1-4.9-4.5-3.9-7.7l6.7-20.1c1.1-3.2,4.5-4.9,7.7-3.9l0,0
					c3.2,1.1,4.9,4.5,3.9,7.7l-6.7,20.1C2167.7,1564.8,2164.2,1566.6,2161,1565.5z"/>
			</g>
			<g>
				<path class="st26" d="M2195.2,1459.4L2195.2,1459.4c3.3,0.9,5.2,4.3,4.3,7.5l-5.5,20.5c-0.9,3.3-4.3,5.2-7.5,4.3l0,0
					c-3.3-0.9-5.2-4.3-4.3-7.5l5.5-20.5C2188.6,1460.4,2191.9,1458.5,2195.2,1459.4z"/>
			</g>
			<g>
				<path class="st25" d="M2243.3,1485.8L2243.3,1485.8c-2.5,2.2-6.4,2-8.6-0.5l-14.2-15.8c-2.2-2.5-2-6.4,0.5-8.6l0,0
					c2.5-2.2,6.4-2,8.6,0.5l14.2,15.8C2246.1,1479.6,2245.8,1483.5,2243.3,1485.8z"/>
			</g>
			<g>
				<path class="st24" d="M2187,1514.4L2187,1514.4c0.7-3.3,3.9-5.4,7.2-4.8l20.8,4.2c3.3,0.7,5.4,3.9,4.8,7.2l0,0
					c-0.7,3.3-3.9,5.4-7.2,4.8l-20.8-4.2C2188.5,1521,2186.4,1517.7,2187,1514.4z"/>
			</g>
			<g class="st14">
				<path class="st2" d="M2110.7,1219.8c-109.7,0-198.6,88.9-198.6,198.6c0,8,0.5,15.9,1.4,23.6c11.7-98.5,95.5-174.9,197.2-174.9
					c101.7,0,185.5,76.4,197.2,174.9c0.9-7.8,1.4-15.7,1.4-23.6C2309.2,1308.7,2220.3,1219.8,2110.7,1219.8z"/>
			</g>
			<g class="st11">
				<path class="st3" d="M2304.7,1385.7c-19.3,89.4-98.9,156.3-194.1,156.3c-95.2,0-174.7-67-194.1-156.3c-3,13.6-4.5,27.7-4.5,42.2
					c0,109.7,88.9,198.6,198.6,198.6c109.7,0,198.6-88.9,198.6-198.6C2309.2,1413.4,2307.7,1399.3,2304.7,1385.7z"/>
			</g>
			<g>
				<path class="st3" d="M2110.7,1640.7c-117.4,0-212.9-95.5-212.9-212.9c0-117.4,95.5-212.8,212.9-212.8
					c117.4,0,212.8,95.5,212.8,212.8C2323.5,1545.2,2228,1640.7,2110.7,1640.7z M2110.7,1243.6c-101.6,0-184.3,82.7-184.3,184.3
					c0,101.6,82.7,184.3,184.3,184.3c101.6,0,184.3-82.7,184.3-184.3C2295,1326.2,2212.3,1243.6,2110.7,1243.6z M2110.7,1489.5
					c-34,0-61.6-27.6-61.6-61.6c0-33.9,27.6-61.6,61.6-61.6c33.9,0,61.6,27.6,61.6,61.6C2172.2,1461.8,2144.6,1489.5,2110.7,1489.5z
					 M2110.7,1394.8c-18.2,0-33.1,14.8-33.1,33c0,18.2,14.8,33.1,33.1,33.1c18.2,0,33-14.8,33-33.1
					C2143.7,1409.6,2128.9,1394.8,2110.7,1394.8z"/>
			</g>
		</g>
		<g>
			<path class="st2" d="M2516.7,1742.4c-26.8,165.7-265.1,183.5-384.6,91.3c-97.6-75.3-107.8-170.9-98.7-238.6
				c13.2-98.7,149.1-118.6,220.8-80.5c54.1,28.8,83.2,80.1,117,114.9l-1.2-5.9l-33.1-158.1l-2.1-9.7l19.3-107.1
				C2435.6,1427.6,2537.7,1612.3,2516.7,1742.4z"/>
		</g>
		<g class="st11">
			<path class="st3" d="M2434.9,1654.7c0,0-25.4,22.7-64.9-31l-27.9-151.8C2370,1505.6,2411.9,1597.8,2434.9,1654.7z"/>
		</g>
		<g class="st11">
			<path class="st3" d="M2516.7,1742.4c-26.8,165.7-265.1,183.5-384.6,91.3c-73.1-56.4-97.2-124.3-100.8-183.3
				c15.2,34.9,38.2,91.4,79.4,122c152.8,113.6,381.3,55,386.5-112.2c0.7-23.7,3.6-48.6,0.2-74.7
				C2515.5,1639.9,2524.3,1694.8,2516.7,1742.4z"/>
		</g>
		<g>
			<path class="st3" d="M2358.4,1626.1c-3.6-12.9-5.9-25.9-8-39.1c-2.1-13.1-3.5-26.4-4.8-39.6c-2.6-26.5-4.8-53.1-5.1-80
				c0-1,0.7-1.7,1.7-1.7c0.8,0,1.4,0.5,1.6,1.1c9,25.4,16.2,51.1,22.8,76.9c3.3,12.9,6.6,25.8,9.1,38.8c2.6,13,4.9,26.1,6,39.4
				c0.5,6.6-4.3,12.3-10.9,12.9C2365,1635.3,2359.8,1631.5,2358.4,1626.1z"/>
		</g>
		<g>
			<path class="st3" d="M2307.7,1904.4c-67,0-135.5-20.5-185-58.7c-103.6-79.9-114-181.5-104.5-252.6c5.4-40.1,28.6-71.8,67.3-91.7
				c51.9-26.7,125.9-26.8,175.8-0.3c40.8,21.7,68.1,55.1,92.1,84.5c9.8,12,19.1,23.4,28.7,33.2c5.9,6,5.7,15.7-0.3,21.5
				c-6,5.9-15.7,5.7-21.5-0.3c-10.5-10.8-20.2-22.6-30.4-35.2c-23.3-28.6-47.4-58.1-82.9-76.9c-41.1-21.9-104.6-21.6-147.6,0.5
				c-20.5,10.5-46,31-51,68.6c-8.4,63.2,0.8,153.4,92.9,224.5c67.7,52.3,180.1,67.4,261.3,35.3c39-15.4,87.9-48.3,99-116.9
				c20.4-126.5-80.5-305.2-158.1-380.3c-6-5.8-6.2-15.5-0.3-21.5c5.8-6,15.5-6.2,21.5-0.3c82.2,79.7,189,270.5,166.9,407
				c-10.4,64.6-52.3,114.5-117.8,140.4C2381.2,1898.1,2344.7,1904.4,2307.7,1904.4z"/>
		</g>
		<g>
			<path class="st3" d="M2382.7,1621c5.1,4.3,9.3,8.8,13.9,12.8c4.5,3.9,9,7.7,14.1,10.4c5.1,2.7,10.9,4.5,17.4,4.8
				c6.5,0.5,13.7-0.6,21.4-2.6l0.1,0c1.2-0.3,2.3,0.4,2.6,1.6c0.2,0.6,0,1.3-0.4,1.8c-4.9,6.7-11.8,12.3-20.2,15.9
				c-8.4,3.6-18.4,4.8-27.9,3.3c-9.6-1.5-18.7-5.3-26.2-10.8c-7.4-5.5-13.7-12.3-17.7-20.2c-3.6-7.1-0.7-15.8,6.4-19.4
				c5.3-2.7,11.6-1.7,15.8,1.9L2382.7,1621z"/>
		</g>
		<g>
			<path class="st3" d="M2399.5,1885.7c-3.1,0-6.2-1.3-8.4-3.7c-4.3-4.7-3.9-11.9,0.7-16.1c89-81.3-1-201.9-4.9-207
				c-3.8-5-2.9-12.2,2.2-16c5-3.8,12.2-2.9,16,2.1c1.1,1.4,106.6,142.2,2.2,237.7C2405.1,1884.7,2402.3,1885.7,2399.5,1885.7z"/>
		</g>
		<g>
			<g class="st11">
				<path class="st3" d="M2091.6,2083.2c0,0,152.7-89,279,39.4c116.1,118-19.6,234.4-19.6,234.4s41.8,171-66.8,191.6
					c-92.1,17.5-175.4-81.8-164.8-191.9c8.8-90.6,28.6-82.2,21.3-131.9c-8.3-56.3-128.2-68.9-128.2-68.9h-45.1
					c0,0-119.9,12.7-128.2,68.9c-7.3,49.7,12.6,41.3,21.3,131.9c10.6,110.2-72.6,209.4-164.8,191.9
					c-108.6-20.6-66.8-191.6-66.8-191.6s-135.7-116.4-19.6-234.4c126.3-128.4,279-39.4,279-39.4"/>
			</g>
			<g>
				<path class="st2" d="M2125.5,1993.3c0,0,203.7-118.8,372.3,52.5c154.9,157.4-26.2,312.7-26.2,312.7s55.8,175.1-89.1,202.7
					c-122.9,23.4-234-56.1-219.8-203.1c11.7-120.9,38.2-109.6,28.4-175.9c-11.1-75.1-171.1-92-171.1-92h-60.2c0,0-160,16.9-171.1,92
					c-9.8,66.3,16.8,55,28.4,175.9c14.2,147-96.9,226.5-219.8,203.1c-144.9-27.5-89.1-202.7-89.1-202.7s-181.1-155.3-26.2-312.7
					c168.6-171.3,372.3-52.5,372.3-52.5"/>
			</g>
			<g class="st11">
				<path class="st3" d="M2460.8,2513.5c-14.9,22.4-39.4,40.4-78.2,47.8c-122.9,23.4-234-56.1-219.8-203.1
					c11.7-120.9,38.2-109.6,28.4-175.9c-11.1-75.1-171.1-92-171.1-92h-60.2c0,0-160,16.9-171.1,92c-9.8,66.3,16.8,55,28.4,175.9
					c14.2,147-96.9,226.5-219.8,203.1c-38.8-7.4-63.3-25.4-78.2-47.8c1.1,0.2,2.1,0.4,3.2,0.6c146.4,25.3,278.8-60.7,261.9-220
					c-13.9-130.9-45.6-118.7-33.9-190.5c13.2-81.3,203.8-99.6,203.8-99.6h71.7c0,0,190.6,18.3,203.8,99.6
					c11.6,71.8-20,59.6-33.9,190.5c-16.9,159.2,115.4,245.3,261.9,220C2458.7,2513.9,2459.7,2513.7,2460.8,2513.5z"/>
			</g>
			<g>
				<path class="st3" d="M2235.9,1951.9c52.9-14.4,111.7-11.6,164.5,9.1c26.4,10.2,51.1,24.6,73.4,41.8
					c11.1,8.6,21.8,17.8,31.7,27.7c10,9.9,19.5,20.5,28.2,31.9c17.4,22.7,31,49.2,37.6,77.9c6.7,28.6,6.1,58.9-0.8,87
					c-6.8,28.2-19.2,54.3-34.4,78.1c-7.6,11.9-16,23.2-25,33.9c-4.5,5.4-9.2,10.6-14,15.7c-5,5.2-9.7,9.9-15.5,15.1l4.6-16.2
					c1.8,5.9,3,10.9,4.2,16.3c1.2,5.3,2.2,10.7,3.1,16.1c1.8,10.7,3,21.6,3.6,32.6c1.1,21.9-0.4,44.5-6.9,66.5
					c-6.4,22-18.6,43.5-36.7,59.2c-17.9,15.9-40.1,25.3-62,30.2c-21.8,4.7-43.8,6.4-66.1,5.1c-22.2-1.6-44.3-6.4-65-15
					c-20.8-8.6-40.1-21-56.5-36.6c-8.1-7.9-15.6-16.4-22.1-25.7c-6.4-9.3-12.2-19.1-16.8-29.3c-9.3-20.5-15-42.4-17.3-64.4
					c-0.5-5.5-1.1-11-1.1-16.5c-0.3-5.5-0.2-11-0.1-16.5c0.2-11,1.4-21.9,2.6-32.3c2.4-21,5.6-42.1,10.9-63.1
					c2.5-10.5,5.8-20.9,9.1-30.9c3.3-10,6.5-19.1,7.9-27.6c1.5-8.6,1.4-17.5,0.6-26.9l-0.9-7.2l-0.4-3.6l-0.5-2.8
					c-0.8-3.7-2.2-7.2-4-10.6c-7.3-13.9-22.7-25.3-39.5-34c-17-8.7-35.8-15.2-55-20.3c-19.1-5.1-39.3-9-58.6-11.3l1.6,0.1h-60.2
					l1.6-0.1c-19.3,2.3-39.4,6.3-58.6,11.3c-19.2,5.1-38.1,11.6-55,20.3c-16.8,8.7-32.2,20.1-39.5,34c-1.8,3.4-3.2,7-4,10.6
					l-0.5,2.8l-0.4,3.6l-0.9,7.2c-0.8,9.5-0.9,18.4,0.6,26.9c1.4,8.5,4.6,17.6,7.9,27.6c3.3,10,6.6,20.4,9.1,30.9
					c5.2,21,8.5,42.1,10.9,63.1c1.2,10.4,2.3,21.2,2.6,32.3c0.2,5.5,0.2,11-0.1,16.5c-0.1,5.5-0.6,11-1.1,16.5
					c-2.2,22-8,43.9-17.3,64.4c-4.6,10.3-10.4,20-16.8,29.3c-6.5,9.2-14,17.8-22.1,25.7c-16.4,15.6-35.7,28-56.5,36.6
					c-20.8,8.6-42.9,13.4-65,15c-22.2,1.3-44.3-0.3-66.1-5.1c-21.9-4.9-44.1-14.3-62-30.2c-18.1-15.7-30.3-37.3-36.7-59.2
					c-6.5-22.1-7.9-44.6-6.9-66.5c0.6-11,1.8-21.8,3.6-32.6c0.9-5.4,1.9-10.7,3.1-16.1c1.2-5.4,2.5-10.4,4.2-16.3l4.6,16.2
					c-6.2-5.5-11.3-10.6-16.5-16.1c-5.1-5.5-10.1-11.1-14.9-16.9c-9.5-11.6-18.4-23.8-26.3-36.6c-15.8-25.7-28.1-54.2-33.5-84.8
					c-5.5-30.5-3.3-62.9,7.1-92.4c10.1-29.6,27.4-55.7,47.6-78.1c20.5-22,42.6-42.1,67.9-58.7c25-16.8,52.6-30.2,81.9-38.2
					c29.2-8.2,59.9-11.1,89.6-9.2c29.9,1.9,59.5,9.2,85.9,22.2c2.6,1.2,3.6,4.3,2.4,6.9c-1,2-3.1,3.1-5.2,2.9
					c-28.5-3.4-56-5.2-83.5-3.8c-13.8,0.5-27.4,1.8-40.8,3.7c-13.4,2-26.6,5-39.6,8.7c-12.9,3.8-25.7,8.3-38,13.9
					c-12.3,5.5-24.4,11.8-35.8,19.2c-23,14.4-43.9,32.8-62.3,52.8c-18.1,20.1-32.9,42.9-41.4,67.6c-8.6,24.7-10.5,51.3-5.9,77.2
					c4.6,25.9,15.3,51,29.5,74.1c7.1,11.6,15.1,22.6,23.8,33.2c4.3,5.3,8.9,10.4,13.5,15.4c4.6,4.9,9.7,9.9,14.2,13.9l7.5,6.6
					l-2.9,9.5c-1.2,4-2.5,9.1-3.5,13.7c-1.1,4.8-2,9.6-2.8,14.4c-1.6,9.7-2.7,19.4-3.2,29.1c-1,19.4,0.5,38.7,5.7,56.4
					c5.2,17.7,14.3,33.5,27.6,45c13.2,11.7,30.2,19.2,48.5,23.3c18.7,4.1,38.3,5.6,57.4,4.4c19.1-1.4,37.9-5.5,55.4-12.7
					c17.5-7.2,33.5-17.6,47.1-30.5c6.7-6.6,12.9-13.6,18.3-21.3c5.3-7.7,10.1-15.8,14-24.4c7.8-17.2,12.7-35.8,14.7-55
					c0.4-4.8,0.9-9.6,1-14.4c0.3-4.8,0.2-9.7,0.1-14.5c-0.2-9.7-1.2-19.4-2.4-29.6c-2.3-20.1-5.4-40-10.2-59.2
					c-2.3-9.7-5.3-19-8.4-28.7c-3.1-9.6-7-20.1-9-32.1c-2.1-11.9-1.9-23.8-0.9-34.9l1-8.2l0.5-4.1c0.3-1.6,0.6-3.3,0.9-4.9
					c1.4-6.5,3.8-12.7,6.8-18.4c6.1-11.5,14.6-20.6,23.7-28.1c9.1-7.5,18.8-13.5,28.7-18.6c19.9-10.2,40.5-17.1,61.2-22.7
					c20.9-5.5,41.4-9.6,63.2-12.2l0.7-0.1h0.9h60.2h0.9l0.7,0.1c21.8,2.6,42.4,6.7,63.2,12.2c20.7,5.6,41.3,12.5,61.2,22.7
					c9.9,5.1,19.6,11.1,28.7,18.6c9.1,7.5,17.6,16.7,23.7,28.1c3,5.7,5.4,11.9,6.8,18.4c0.4,1.6,0.6,3.2,0.9,4.9l0.5,4.1l1,8.2
					c1,11.1,1.1,23.1-0.9,34.9c-2,11.9-5.8,22.4-9,32.1c-3.2,9.7-6.1,19-8.4,28.7c-4.8,19.2-7.9,39.1-10.2,59.2
					c-1.2,10.2-2.2,19.9-2.4,29.6c-0.1,4.9-0.2,9.7,0.1,14.5c0,4.9,0.6,9.6,1,14.4c1.9,19.1,6.9,37.8,14.7,55
					c3.9,8.6,8.7,16.7,14,24.4c5.4,7.7,11.6,14.7,18.3,21.3c13.6,12.9,29.6,23.3,47.1,30.5c17.5,7.2,36.3,11.4,55.4,12.7
					c19.1,1.2,38.7-0.3,57.4-4.4c18.4-4.1,35.4-11.6,48.5-23.3c13.3-11.6,22.4-27.4,27.6-45c5.2-17.7,6.6-37,5.7-56.4
					c-0.5-9.7-1.6-19.4-3.2-29.1c-0.8-4.8-1.7-9.6-2.8-14.4c-1-4.7-2.3-9.7-3.5-13.7l-2.9-9.5l7.5-6.6c4.2-3.7,9-8.4,13.3-13
					c4.4-4.6,8.7-9.4,12.8-14.3c8.2-9.8,15.9-20.1,22.7-30.8c13.8-21.4,24.4-44.6,30-68.7c5.7-24.1,5.9-48.9-0.1-72.5
					c-5.8-23.6-17.6-45.7-32.7-65.6c-7.6-10-16-19.4-25.2-28.3c-9.2-9-18.6-17.6-28.6-25.6c-20-15.9-41.7-29.4-65-39.7
					c-23.2-10.3-47.9-17.6-73.3-21.9c-25.5-4.3-51.7-5.4-78.3-4.7h0c-2.8,0.1-5.2-2.1-5.3-5
					C2232.1,1954.6,2233.7,1952.5,2235.9,1951.9z"/>
			</g>
			<g>
				<path class="st3" d="M1512.4,2345l19.5,2.5c6.8,0.7,13.6,1.5,20.5,1.9c13.7,0.9,27.7,1.8,41.7,1.6c14-0.4,28.3-0.9,42.5-2.8
					c7.2-0.5,14.2-2,21.5-2.8c7.2-1.1,14.3-2.6,21.7-3.6l0.1,0c1.1-0.2,2.2,0.6,2.3,1.7c0.1,0.9-0.3,1.7-1,2.1
					c-6.5,3.6-13,7.4-19.8,10.5c-6.8,3-13.7,6.2-20.8,8.6l-10.7,3.7c-3.6,1.1-7.3,2.1-10.9,3.1c-3.6,1.1-7.3,1.9-11.1,2.7
					c-3.7,0.8-7.4,1.7-11.2,2.3c-15,2.6-30.4,4.2-45.8,3.7c-3.9,0-7.7-0.3-11.6-0.6c-3.9-0.2-7.7-0.8-11.6-1.4
					c-3.9-0.6-7.7-1.3-11.5-2.3c-3.9-1-7.4-2-11.9-3.6c-7.4-2.7-11.2-10.9-8.5-18.3c2.3-6.4,8.7-10,15.1-9.2L1512.4,2345z"/>
			</g>
			<g>
				<path class="st3" d="M2474.9,2372.6c-7.9,2.4-15.1,3.9-22.7,5c-3.8,0.6-7.6,1.1-11.4,1.4c-3.8,0.4-7.6,0.7-11.4,0.8
					c-15.2,0.8-30.6-0.1-45.8-2c-15.2-2.1-30.3-5.5-44.8-10.5c-14.4-5.4-28.3-12.5-40.1-22c-0.9-0.7-1-2-0.3-2.9
					c0.5-0.7,1.4-0.9,2.2-0.7l0.1,0c14,4.5,27.9,7.4,42,9c14.1,1.4,28.2,1.7,42.3,1.4c14.1-0.5,28.1-1.9,42.1-3.2
					c13.9-1.3,28.3-3.1,41.7-4.3l0.7-0.1c7.9-0.7,14.8,5.2,15.5,13C2485.5,2364.5,2481.2,2370.6,2474.9,2372.6z"/>
			</g>
			<g>
				<path class="st3" d="M2553.4,2243.5c-0.8,0-1.6-0.1-2.4-0.3c-6.2-1.3-10.1-7.4-8.8-13.5c5.5-25.6,1.5-43.7-12.3-55.5
					c-56.5-48.5-259.3,13.3-332.7,41.2c-5.9,2.2-12.5-0.7-14.7-6.6c-2.2-5.9,0.7-12.5,6.6-14.7c11.3-4.3,277.3-104.4,355.6-37.2
					c20.4,17.5,27,43.6,19.7,77.6C2563.4,2239.8,2558.7,2243.5,2553.4,2243.5z"/>
			</g>
			<g>
				<path class="st3" d="M1431.3,2243.5c-5.3,0-10-3.7-11.1-9c-7.3-34-0.7-60.1,19.7-77.6c78.3-67.2,344.4,32.9,355.6,37.2
					c5.9,2.2,8.8,8.8,6.6,14.7c-2.2,5.9-8.8,8.9-14.7,6.6c-73.4-27.9-276.2-89.7-332.7-41.2c-13.7,11.8-17.7,29.9-12.3,55.5
					c1.3,6.2-2.6,12.2-8.8,13.5C1432.9,2243.4,1432.1,2243.5,1431.3,2243.5z"/>
			</g>
		</g>
	</g>
</g>
</svg>
