<?xml version="1.0" encoding="utf-8"?>
<!-- Generator: Adobe Illustrator 22.0.0, SVG Export Plug-In . SVG Version: 6.00 Build 0)  -->
<svg version="1.1" id="Layer_1" xmlns="http://www.w3.org/2000/svg" xmlns:xlink="http://www.w3.org/1999/xlink" x="0px" y="0px"
	 viewBox="0 0 4000 4000" style="enable-background:new 0 0 4000 4000;" xml:space="preserve">
<style type="text/css">
	.st0{display:none;}
	.st1{display:inline;}
	.st2{fill:#B3FFC7;}
	.st3{fill:#371A45;}
	.st4{fill:#FFFFFF;}
	.st5{opacity:0.35;}
	.st6{opacity:0.6;}
	.st7{fill:#111A28;}
	.st8{fill:#FFB200;}
	.st9{opacity:0.25;}
	.st10{fill:#D66B09;}
	.st11{fill:#FFCC4D;}
	.st12{fill:#FFEC90;}
	.st13{opacity:0.41;}
	.st14{opacity:0.3;}
	.st15{fill:#293856;}
	.st16{fill:#22A7F0;}
</style>
<g>
	<g class="st0">
		<g class="st1">
			<rect transform="matrix(-1 -1.224647e-16 1.224647e-16 -1 4000 4000)" class="st2" width="4000" height="4000"/>
		</g>
	</g>
	<g>
		<g>
			<path class="st3" d="M1891.3,2599.2c-8.9,0-16.1-7.2-16.1-16.1v-865.9c0-8.9,7.2-16.1,16.1-16.1s16.1,7.2,16.1,16.1v865.9
				C1907.4,2592,1900.2,2599.2,1891.3,2599.2z"/>
		</g>
		<g>
			<g>
				<path class="st4" d="M1887,3091c-136.7-0.4-375.1-18.9-385.1-154.5c-1.3-17.8-1.3-37-0.2-57.2c7.5-134.1,64.8-308.9,121.5-348.3
					c32.3-22.5,89.4-25.5,150.9-14.7c122.2,21.5,262.2,97.5,261,183.5C2034,2782.6,2023.7,3091.4,1887,3091z"/>
			</g>
			<g class="st5">
				<path class="st3" d="M1887,3091c-136.7-0.4-375.1-18.9-385.1-154.5c-1.3-17.8-1.3-37-0.2-57.2c36.7,31,90.1,6.4,97.7-29.6
					c46.9-222.4,133.3-305.4,174.6-333.4c122.2,21.5,262.2,97.5,261,183.5C2034,2782.6,2023.7,3091.4,1887,3091z"/>
			</g>
			<g>
				<path class="st3" d="M1887.3,3106.8c-0.1,0-0.2,0-0.3,0c-177.2-0.5-390.6-30.3-400.8-169.1c-9.7-131.5,53-367.5,128-419.7
					c66.6-46.4,215.3-18.1,314.9,34.8c79.3,42.1,122.6,94.4,121.9,147.3C2048.9,2852,2024.9,3106.8,1887.3,3106.8z M1709.3,2526.3
					c-32.6,0-59.9,5.7-77.1,17.6l0,0c-59.9,41.7-124.2,261.2-114.6,391.4c8.9,120.7,235.3,139.4,369.4,139.8c0.1,0,0.1,0,0.2,0
					c117.9,0,130.9-287.4,132.1-375.6c0.5-39.8-37.8-83.2-105.1-118.9C1848.4,2545.8,1769.8,2526.3,1709.3,2526.3z M1623.2,2531
					L1623.2,2531L1623.2,2531z"/>
			</g>
			<g>
				<path class="st4" d="M1622.6,2766.2l-52.9-23.1c-12-5.2-25.8,1.2-29.5,13.7c-12.7,43.1-33,132.6,10.1,152.4
					c52.3,24.1,73-36.4,85.1-120.1C1636.8,2779.5,1631.6,2770.1,1622.6,2766.2z"/>
			</g>
			<g class="st5">
				<path class="st3" d="M1635.4,2789.1c-12,83.7-32.8,144.2-85.1,120.1c-21.5-9.9-27.2-37-26-67.1c4.1,8.8,10.2,15.7,19,19.7
					c46.8,21.5,68.4-24.7,81-94.7C1632.2,2771.3,1636.7,2780.1,1635.4,2789.1z"/>
			</g>
			<g>
				<path class="st3" d="M1571.9,2927.8c-8.5,0-17.6-2.2-27.1-6.6c-48.6-22.4-36.2-103.8-17.3-168.1c2.8-9.6,9.6-17.5,18.7-21.7
					c9.1-4.2,19.5-4.4,28.7-0.3l52.9,23.1c14.3,6.3,22.8,21.4,20.6,36.9c-11.1,77.3-27.3,116.5-54,131
					C1587.5,2925.8,1579.9,2927.8,1571.9,2927.8z M1561,2754.4c-1.6,0-2.8,0.4-3.6,0.8c-1.3,0.6-3.6,2.1-4.5,5.3
					c-17,57.6-25.1,123.8,3,136.7c15.7,7.2,23.5,3,26.1,1.6c26.5-14.4,37-87.6,40.5-111.6c0.5-3.7-1.5-7.4-5-9l-52.9-23.1
					C1563.2,2754.6,1562.1,2754.4,1561,2754.4z"/>
			</g>
		</g>
		<g>
			<path class="st4" d="M2083.2,3409.3c0,0,64.4,66.7,8.7,117.9c-48.2,44.3-180.4,16.7-227.5-71.8c-30.1-56.6,0.5-106.9,5.7-195.7
				c2.7-44.2-1-97.8-21.6-166.5c-10.2-34.1-21.9-76.6-25.4-127l284.7,153.3c0,0,8.3,26.7,13.7,66.1
				C2129.8,3246.9,2131.1,3338.8,2083.2,3409.3z"/>
		</g>
		<g class="st5">
			<path class="st3" d="M2109.6,3503.2c-3.5,8.2-9.2,16.3-17.6,24c-48.2,44.3-180.4,16.7-227.5-71.8c-30.1-56.6,0.5-106.9,5.7-195.7
				c2.7-44.2-1-97.8-21.6-166.5c-10.2-34.1-21.9-76.6-25.4-127l49.1,26.5l235.5,126.9c0,0,8.3,26.7,13.7,66.1
				c-32.9,41.2-78.3,71.6-138.5,80.5c-57.1,8.4-99,60.1-90.1,117.2c1.8,11.5,5.4,22.9,11.6,34.5
				C1945.6,3495,2051.2,3525.8,2109.6,3503.2z"/>
		</g>
		<g>
			<path class="st3" d="M2026.8,3564.2c-10.3,0-21.2-0.9-32.3-2.8c-48.9-8.3-112.4-38.6-144.3-98.3c-22.4-42.1-15.2-81.1-6.8-126.4
				c10.4-56.3,23.4-126.4-10.3-238.7c-11.5-38.3-22.6-80.5-26-130.5l-2-29.2l316.2,170.3l2,6.3c2.2,7.2,52.5,172.8-20,293.2
				c10.9,14.2,28.5,42.1,27.5,73.3c-0.7,22-10,41.4-27.9,57.8C2085,3555.5,2058.2,3564.2,2026.8,3564.2z M1842.3,2994.9
				c4.8,34.4,13.1,65.2,21.7,93.7c35.9,119.8,21.6,197.3,11.1,253.9c-7.9,42.5-13.6,73.3,3.6,105.4c26.4,49.5,79.9,74.7,121.2,81.7
				c34.7,5.9,65,0.6,81.1-14.2c11.3-10.4,17-21.8,17.5-34.9c1-30.5-26.6-59.7-26.9-60l-9-9.4l7.3-10.8
				c65.3-96.3,32.6-238.6,24.2-269.7L1842.3,2994.9z"/>
		</g>
		<g>
			<path class="st3" d="M2032.5,3356.4c-89.6,0-167.4-47.5-171.6-50.1c-4.9-3.1-6.5-9.6-3.4-14.5c3.1-4.9,9.6-6.5,14.5-3.4
				c1.3,0.8,131.2,79.9,241.3,30.4c5.3-2.4,11.5,0,13.9,5.3c2.4,5.3,0,11.5-5.3,13.9C2092.2,3351.3,2061.7,3356.4,2032.5,3356.4z"/>
		</g>
		<g>
			<path class="st4" d="M2327.6,2670.6c0,0-15.1,16.5-35.4,47.7c-13.7,20.9-29.6,48.3-45.1,81.7c-21.5,46.6-41.9,104.8-53.3,173.2
				c-5.4,32-14.5,64.3-28.1,94.4c-41,91.2-122,161.8-257.5,142c-179.7-26.1-288.6-160.5-271.7-310.7c3.2-28.3,8.7-55.9,16.6-82.7
				c6-20.5,13.5-40.6,22.5-60.2c18.4-40.2,42.9-78.3,73.8-113.9c26.5-30.5,57.8-59.1,94-85.7c32.3-23.6,68.6-45.7,109-65.9
				c25.8-12.9,53.3-25.1,82.4-36.4C2076.7,2437.8,2327.6,2670.6,2327.6,2670.6z"/>
		</g>
		<g class="st5">
			<path class="st3" d="M2185.2,3008.7c0.8-1.8,1.6-3.5,2.3-5.3c-5.4,21.9-12.6,43.6-21.9,64.2c-41,91.2-122,161.8-257.5,142
				c-179.7-26.1-288.6-160.5-271.7-310.7c5-44,15.5-86.3,32-126.6c-5.7,22.1-9.9,44.6-12.4,67.7c-16.9,150.2,92,284.5,271.7,310.7
				C2063.3,3170.4,2144.3,3099.8,2185.2,3008.7z"/>
		</g>
		<g>
			<path class="st3" d="M1952.6,3229.1c-14.9,0-30.5-1.1-46.8-3.5c-183.8-26.7-303.8-164.9-285.4-328.4
				c23-204.6,164.3-363,408.5-458c12.2-4.8,35-13.6,178.2,104.7c67.5,55.8,130.7,114.4,131.4,115l11.7,10.9l-10.8,11.8
				c-1,1.1-99.2,110.9-129.9,294.4C2188.5,3102.6,2109.9,3229,1952.6,3229.1z M2039.9,2469.4c-235.2,91.7-365.6,236.9-387.5,431.3
				c-16.4,145.6,92.1,268.8,258,292.9c208.5,30.3,257.4-163.1,267.4-223.2c26.6-159.4,100.1-264,127.5-298.5
				c-20.4-18.6-65.6-59.3-113.8-99.4C2072.6,2473.9,2044.1,2469.4,2039.9,2469.4C2039.9,2469.4,2039.9,2469.4,2039.9,2469.4z"/>
		</g>
		<g>
			<path class="st4" d="M1917.9,3137.4c0,0,23.9,180.3-73.3,281.4c0,0,52.2,76.7-11.4,117.7c-55,35.5-180.6-14.1-212-109.3
				c-30.1-91.1,71.7-145.6,45.7-359.7c-4.3-35.3-8.6-79.2-3.5-129.4L1917.9,3137.4z"/>
		</g>
		<g class="st5">
			<path class="st3" d="M1853.6,3517.4c-4.8,6.8-11.5,13.3-20.4,19c-55,35.5-180.6-14.1-212-109.3c-30.1-91.1,71.7-145.6,45.7-359.7
				c-1.8-14.6-3.5-30.7-4.6-48.1c109.2,204.2-14.3,291.8,14.1,377.8C1702.2,3475.5,1792,3523,1853.6,3517.4z"/>
		</g>
		<g>
			<path class="st3" d="M1923.2,3136.7c11.1,24.6,13.7,50.5,13.4,76.3c-0.1,25.8-4,51.6-10.1,76.9c-6.3,25.2-14.1,50.3-25.4,74.2
				c-5.6,12-12.3,23.5-19.7,34.6c-7.5,11.1-16,21.5-25.2,31.3l1.7-20.2c1.8,2.7,3,4.7,4.3,7.1c1.3,2.3,2.5,4.5,3.7,6.8
				c2.3,4.6,4.4,9.3,6.3,14.2c3.7,9.7,6.6,19.9,7.9,30.7c1.3,10.8,1.1,22.4-2,33.7c-2.9,11.3-8.8,22.1-16.4,30.8
				c-3.8,4.4-8,8.2-12.4,11.7c-2.2,1.7-4.5,3.2-6.7,4.8c-2.4,1.5-5,3-7.5,4.4c-10.4,5.2-21.4,8-32.1,9.3
				c-21.5,2.4-42.1-0.7-61.4-6.4c-38.6-11.6-73.5-33.5-100.4-63.8c-6.6-7.6-12.7-15.8-18.2-24.4c-5.4-8.7-10-17.9-13.9-27.4
				c-3.7-9.5-6.8-19.8-8.4-30.4c-1.7-10.6-1.7-21.4-0.6-31.8c2.2-20.9,8.6-39.8,14.9-57.5c6.4-17.8,12.9-34.8,18.5-52
				c11.2-34.3,18.3-69.3,20.5-105.1c1.1-17.9,1.3-35.8,0.3-53.8c-0.5-9-1.1-18-2-27l-1.4-13.5c-0.3-2.1-0.6-3.7-0.9-5.6
				c-0.4-1.9-0.9-3.8-1.4-5.7c-4.2-15.5-14.5-31.7-20.1-51c-2.8-9.6-4.9-19.9-4.6-30.4c0.4-10.5,2.7-21.1,8.1-30.3
				c1.7-2.8,5.3-3.8,8.1-2.1c1.2,0.7,2,1.7,2.5,2.8l0.1,0.3c3.8,9.3,6.5,17.3,9.4,25.2c2.8,7.9,5.7,15.6,8.8,23.6
				c3.1,8,6.3,16.2,9.5,25.1c3.2,8.8,6.6,18.1,9.4,28.3c0.6,2.6,1.3,5.2,1.9,7.9c0.4,2.7,1,5.6,1.3,8.1l1.5,14.2
				c1,9.5,1.6,19,2.1,28.5c1.1,19.1,0.8,38.3-0.3,57.5c-2.3,38.4-10,76.7-22,113c-5.9,18.1-12.7,35.8-18.8,52.9
				c-6.1,17.1-11.5,33.9-13.2,50c-1.9,16.2,0.8,31.5,6.9,46.9c3.1,7.7,6.9,15.1,11.3,22.2c4.5,7.1,9.5,13.8,15.1,20.2
				c22.3,25.4,52.8,44.5,85.2,54.2c16.2,4.8,33.1,7.1,48.6,5.3c7.7-0.9,15-2.9,21.2-6c1.5-0.9,2.9-1.6,4.5-2.6
				c1.5-1.1,3.1-2.1,4.6-3.3c2.9-2.3,5.6-4.7,7.8-7.4c9.3-10.4,12.6-24.2,10.7-39.5c-0.9-7.6-3-15.4-6-23c-1.5-3.8-3.1-7.6-5-11.3
				c-0.9-1.8-1.9-3.7-2.9-5.4c-0.9-1.7-2.2-3.7-2.9-4.8l-7.1-10.8l8.8-9.5c7.8-8.4,15.2-17.3,21.7-27c6.4-9.7,12.3-19.8,17.3-30.4
				c10.1-21.2,17.6-44,22-67.4c4.4-23.5,6.8-47.4,9.1-71.4c2-24.1,3.8-48.2,9.4-73.2l0.1-0.3c0.7-3,3.7-4.9,6.7-4.2
				C1921.1,3133.9,1922.5,3135.1,1923.2,3136.7z"/>
		</g>
		<g>
			<path class="st3" d="M1843.2,3361.5c-106.6,0-196-78.1-200.3-81.9c-4.4-3.9-4.7-10.5-0.9-14.9c3.9-4.4,10.5-4.8,14.9-0.9
				c1.1,1,115.8,101,232.6,70.9c5.6-1.4,11.4,1.9,12.8,7.6c1.5,5.6-1.9,11.4-7.6,12.8C1877.3,3359.5,1860,3361.5,1843.2,3361.5z"/>
		</g>
		<g class="st5">
			<path class="st3" d="M1883.2,2950.2c-169.2-46.2-223.4-120.4-223.4-120.4s-3.9-5.1-6.6-13.7c6-20.5,13.5-40.6,22.5-60.2
				c8.1-4.6,15.2-6.1,15.2-6.1c51.7,96.6,211.5,123.9,211.5,123.9C1939.7,2922.2,1883.2,2950.2,1883.2,2950.2z"/>
		</g>
		<g>
			<path class="st4" d="M1965,2494.1l-110,89.7l-82.5,67.2c-7.4-2.2-15.1-5.2-23-8.9c-112-52-263.5-244.6-251.9-382.4
				c2.3-26.8,32.6-84.3,51.6-100.8c82.3-71.7,104.2,63.2,107.2,64.2c3.1,1,28-55,60.4-33.4c25.4,17,2.1,101.2,2.1,101.2
				s32.1,73.8,110.4,135.3c32.7,25.7,73.4,49.2,123.3,64.3C1956.5,2491.8,1960.7,2493,1965,2494.1z"/>
		</g>
		<g class="st5">
			<path class="st3" d="M1772.4,2650.9L1772.4,2650.9c-7.4-2.2-15.1-5.2-23-8.9c-112-52-263.5-244.6-251.9-382.4
				c2.3-26.8,32.6-84.3,51.6-100.8c14.9-13,27.9-19.2,39.1-20.6c-18,23.6-39,66.7-40.8,88.8c-9.9,118.5,123.3,300.7,222.7,366.7
				C1789.9,2606.9,1791,2635.9,1772.4,2650.9z"/>
		</g>
		<g>
			<path class="st3" d="M1771,2656c-10.8-0.1-21.7-2.1-31.7-5.5c-10.3-3.1-19.9-7.7-29.2-12.8c-18.3-10.5-35.2-22.9-50.7-36.7
				c-15.5-13.8-29.7-29-43.5-44.2c-13.7-15.4-26.9-31.2-39.3-47.7c-24.6-33-46.6-68.1-63.8-106c-17-37.8-30.1-78.5-31.5-121.9
				c-0.1-2.7-0.2-5.4-0.2-8.1l0.4-8.2l0.2-4.1c0.1-1.3,0.1-2.7,0.4-4.4l0.7-4.8l1-4.4c2.7-11.4,6.6-21.4,10.8-31.2
				c8.7-19.5,18.5-37.7,31.9-55.5c3.4-4.4,7.2-8.9,12.1-13.4c4.4-3.6,8.5-7.2,13.5-10.4c9.5-6.4,20.7-12.3,34.4-14.2
				c13.7-2,29.4,2.6,39.7,10.9c5.4,4,9.8,8.6,13.5,13.3c3.9,4.7,6.9,9.6,9.8,14.6c5.6,9.9,9.8,20,13.3,30.1c1.8,5,3.4,10.1,4.8,15.1
				l2.1,7.2l0.7,2.4l-0.1-0.2l0-0.1c0,0.2,0.1,0-1-1.8c-1.7-2.7-4.9-5.1-7.7-5.9c-1.9-0.7-5.3-1.3-8.1-0.6c-3.2,0.7-5.2,2.1-4.9,1.9
				c-0.8,0.5-1.6,1.1-2.3,1.7l-0.4,0.4l-0.3,0.3l0.1-0.1c0.6-0.8,2.3-3.3,3.7-5.3c1.5-2.1,3-4.4,4.7-6.6c3.3-4.4,6.9-8.9,11.2-13.2
				c4.2-4.3,9.2-8.5,15.4-12c6.1-3.5,14.2-6.1,22.7-5.7c8.5,0.4,16.3,3.6,22.1,7.5c8.1,5.6,12.3,13.4,14.7,19.9
				c4.4,13.3,4.4,24.6,4.1,35.7c-0.4,11-1.8,21.6-3.5,32c-1.8,10.5-3.9,20.4-6.7,31l-0.7-10.5c2.4,5.1,5.5,11.2,8.7,16.8
				c3.1,5.7,6.7,11.3,10.1,16.8c3.6,5.5,7.3,10.9,11.1,16.3c4,5.2,7.8,10.6,12,15.7c16.4,20.7,34.9,39.6,55.2,56.4l7.5,6.4
				c2.6,2,5.3,3.9,7.9,5.9c5.4,3.8,10.5,7.9,16,11.5c11.2,6.9,22.4,13.7,34.5,18.9c6,2.7,11.6,6.1,17.6,8.8c6,2.7,11.8,5.6,17.7,8.8
				c5.7,3.4,11.7,6.2,17.6,9.7c5.8,3.6,11.6,7.4,17.3,12.5l0.5,0.4c2.3,2.1,2.5,5.6,0.4,7.9c-1,1.1-2.3,1.7-3.6,1.8
				c-29.7,3.2-57.9-6.1-82.9-20c-25-14-48.8-30-70.7-48.3c-22-18.1-42-38.6-59.7-60.9c-4.5-5.5-8.6-11.3-12.9-17
				c-4.1-5.8-8.1-11.7-12-17.7c-3.8-6.1-7.6-12.1-11.1-18.4c-3.6-6.3-6.8-12.4-10.2-19.7l-2.2-4.8l1.5-5.7c4.7-18,8.4-37.7,9.1-55.7
				c0.4-8.9-0.2-18.1-2.3-23.9c-1-2.9-2.3-4.1-2.4-4.3c-2.5-1.6-4.4-2.1-5.9-2.3c-1.6,0-3.5,0.3-6.1,1.8c-2.5,1.4-5.4,3.7-8.2,6.5
				c-2.8,2.8-5.5,6.2-8.2,9.8l-4,5.7c-1.5,2.1-2.5,3.9-5,7l-0.5,0.6l-0.9,1c-0.4,0.4-0.5,0.5-1.1,1.1c-0.9,0.9-1.9,1.6-3,2.3
				c0.1-0.1-2,1.4-5.3,2.1c-3,0.7-6.5,0.2-8.5-0.6c-3-1.1-6.4-3.7-8.3-6.7c-1.2-2-1.2-2.3-1.2-2.2l-0.2-0.5l-0.4-1.1l-0.4-1
				l-0.2-0.6l-0.4-1.2l-0.6-2l-2.1-7.2c-1.4-4.6-2.8-9.2-4.3-13.6c-3.1-8.9-6.7-17.3-11-24.9c-4.3-7.5-9.4-14.3-14.8-18.2
				c-2.7-2.1-5.4-3.4-8.1-4.2c-2.7-0.9-5.6-0.9-8.7-0.6c-6.3,0.8-13.6,4.1-20.6,9c-3.5,2.3-7,5.3-10.4,8c-2.4,2.3-5.3,5.4-8,9
				c-10.8,14.3-20.3,31.7-27.9,48.8c-3.8,8.6-7.1,17.5-9,25.6l-0.7,3l-0.4,2.7c-0.2,0.8-0.2,1.9-0.3,3.1l-0.1,3.4l-0.3,6.9
				c0,2.3,0.1,4.6,0.2,6.9c1.2,37.1,12.8,74.6,28.7,109.8c16,35.3,36.9,68.7,60.2,100.1c23.4,31.4,50.5,60.1,80,85.3
				c14.6,12.7,29.5,25.1,44.9,36.4l23.1,17.1c7.8,5.9,15.8,10.9,24,17l0.3,0.2c2.4,1.8,2.9,5.2,1.1,7.6
				C1774.3,2655.2,1772.6,2656,1771,2656z"/>
		</g>
		<g>
			<g class="st5">
				<path class="st3" d="M2292.2,2718.3c20.3-31.2,35.4-47.7,35.4-47.7s-250.9-232.8-292.8-216.5c-29.2,11.4-56.6,23.5-82.4,36.4
					c-49.9-15.1-90.6-38.6-123.3-64.3c-5.3,44.2-0.5,88.8,14.3,130.1c3.3,9.3,7.2,18.4,11.5,27.4c4.2,8.7,8.9,17.1,14,25.3
					c33.7,53.8,88.4,113.1,176.3,153.6c24.3,11.2,48.1,19.5,71.1,25.5c45.3,11.8,87.6,14.4,125.2,12.1c9.5-20.5,25.5-46.1,50.6-63.2
					C2291.9,2730.5,2291.9,2724.2,2292.2,2718.3z"/>
			</g>
			<g>
				<g>
					<g>
						<path class="st4" d="M2569,2621.1L2569,2621.1c-4.2-1.7-6.2-6.4-4.5-10.5l86.2-216.8c1.7-4.2,6.4-6.2,10.5-4.5h0
							c43.6,17.3,64.9,66.7,47.6,110.4l-29.4,73.9C2662,2617.2,2612.6,2638.5,2569,2621.1z"/>
						<path class="st3" d="M2600.3,2629c-10.7,0-21.5-2-32-6.1h0c-5.1-2-7.6-7.9-5.6-13l86.2-216.8c1-2.5,2.9-4.4,5.3-5.5
							c2.5-1,5.2-1.1,7.6-0.1c21.6,8.6,38.5,25,47.7,46.3c9.2,21.3,9.5,44.9,0.9,66.5l-29.4,73.9
							C2667.6,2608.3,2634.8,2629,2600.3,2629z M2569.7,2619.4c42.6,16.9,91-3.9,107.9-46.5l29.4-73.9c8.2-20.6,7.9-43.2-0.9-63.6
							c-8.8-20.4-25-36.1-45.6-44.3c-1.5-0.6-3.2-0.6-4.8,0.1c-1.5,0.7-2.7,1.9-3.3,3.4l-86.2,216.8
							C2565,2614.5,2566.5,2618.1,2569.7,2619.4L2569.7,2619.4z"/>
					</g>
					<g class="st5">
						<path class="st3" d="M2693.1,2538.9l-13.8,34.7c-17.3,43.6-66.7,64.9-110.4,47.6c-4.2-1.6-6.2-6.4-4.5-10.5l22.9-57.6
							c0.1,3.1,2,6,5.1,7.2l5.1,2C2632,2575.9,2670.1,2565.4,2693.1,2538.9z"/>
					</g>
					<g>
						<path class="st3" d="M2600.3,2639.9c-12,0-24.2-2.2-36-6.9h0c-10.7-4.3-15.9-16.4-11.7-27.1l86.2-216.8
							c2.1-5.2,6-9.3,11.1-11.5c5.1-2.2,10.8-2.3,16-0.2c24.3,9.7,43.3,28.2,53.7,52.2s10.7,50.6,1.1,74.8l-29.4,73.9
							C2676,2616.6,2639.2,2639.9,2600.3,2639.9z M2578.1,2610.8c35.9,11.7,75.2-6.5,89.3-42l29.4-73.9c7.1-17.9,6.8-37.5-0.8-55.2
							c-7-16.3-19.4-29.1-35.3-36.6L2578.1,2610.8z M2573.7,2609.2L2573.7,2609.2L2573.7,2609.2L2573.7,2609.2z"/>
					</g>
					<g>
						<path class="st4" d="M1945.6,2104.7L1945.6,2104.7c4.2,1.7,6.2,6.4,4.5,10.5l-86.2,216.8c-1.7,4.2-6.4,6.2-10.5,4.5h0
							c-43.6-17.3-64.9-66.7-47.6-110.4l29.4-73.9C1852.6,2108.7,1902,2087.4,1945.6,2104.7z"/>
						<path class="st3" d="M1856.4,2339c-1.2,0-2.5-0.2-3.7-0.7c-44.5-17.7-66.3-68.3-48.6-112.8l29.4-73.9
							c17.7-44.5,68.3-66.3,112.8-48.6c2.5,1,4.4,2.9,5.5,5.3c1.1,2.5,1.1,5.2,0.1,7.6l-86.2,216.8
							C1864.1,2336.6,1860.3,2339,1856.4,2339z M1914.2,2100.5c-11.2,0-22.3,2.3-32.9,6.8c-20.4,8.8-36.1,25-44.3,45.6l-29.4,73.9
							c-16.9,42.6,3.9,91,46.5,107.9c3.2,1.3,6.8-0.3,8.1-3.5l86.2-216.8c0.6-1.5,0.6-3.2-0.1-4.8c-0.7-1.5-1.9-2.7-3.4-3.3l0,0
							C1935,2102.5,1924.6,2100.5,1914.2,2100.5z"/>
					</g>
					<g class="st5">
						<path class="st3" d="M1887.8,2271.9l-23.9,60.1c-1.6,4.2-6.4,6.2-10.5,4.5c-22.9-9.1-39.7-27.1-47.9-48.4
							c-7.4-19.2-7.9-41.3,0.3-62l12.4-31.2c1.5,32.3,21.5,62.3,53.5,75l7.9,3.1C1882.5,2274.3,1885.6,2273.7,1887.8,2271.9z"/>
					</g>
					<g>
						<path class="st3" d="M1856.4,2349.9c-2.6,0-5.2-0.5-7.7-1.5c-24.3-9.6-43.3-28.2-53.7-52.1c-10.3-24-10.7-50.6-1.1-74.8
							l29.4-73.9c19.9-50.1,76.9-74.6,127-54.7l0,0c0,0,0,0,0,0l0,0c5.2,2.1,9.3,6,11.5,11.1c2.2,5.1,2.3,10.8,0.2,16l-86.2,216.8
							C1872.5,2344.9,1864.7,2349.9,1856.4,2349.9z M1914.3,2111.5c-28.7,0-55.9,17.3-67.2,45.5l-29.4,73.9
							c-7.1,17.9-6.8,37.5,0.8,55.2c7,16.3,19.5,29.1,35.3,36.6l82.6-207.8C1929.1,2112.6,1921.6,2111.5,1914.3,2111.5z"/>
					</g>
					<g>
						<circle class="st4" cx="2257.3" cy="2362.9" r="397.6"/>
						<path class="st3" d="M2257,2762.6c-59.3,0-118.3-13.4-173.2-39.9c-96.1-46.4-168.4-127.4-203.6-228.1s-29-209.1,17.3-305.2
							c46.4-96.1,127.4-168.4,228.1-203.6c100.7-35.2,209.1-29,305.2,17.3c198.4,95.7,281.9,334.9,186.2,533.3v0
							c-46.4,96.1-127.4,168.4-228.1,203.6C2345.9,2755.1,2301.4,2762.6,2257,2762.6z M2257.6,1967c-43.9,0-88,7.4-130.8,22.3
							c-99.8,34.8-180,106.5-226,201.7c-45.9,95.2-52,202.6-17.2,302.4s106.5,180,201.7,226c95.2,45.9,202.6,52,302.4,17.2
							c99.8-34.8,180-106.5,226-201.7l1.7,0.8l-1.7-0.8c94.8-196.5,12-433.5-184.5-528.3C2374.8,1980.3,2316.4,1967,2257.6,1967z"/>
					</g>
					<g class="st5">
						<path class="st3" d="M2635.9,2484.4c-5.5,17.3-12.4,34.4-20.5,51.2c-95.4,197.8-333.1,280.7-530.8,185.4
							c-197.8-95.4-280.7-333.1-185.4-530.8c2.7-5.7,5.6-11.3,8.6-16.8c-59.9,186,24.9,392.3,205.8,479.6
							C2305.7,2745.6,2535.4,2670,2635.9,2484.4z"/>
					</g>
					<g>
						<path class="st3" d="M2257,2776.5c-61.4,0-122.4-13.8-179.3-41.3c-99.5-48-174.3-131.8-210.7-236
							c-36.4-104.2-30-216.4,17.9-315.9c48-99.5,131.8-174.3,236-210.7c104.2-36.4,216.4-30,315.9,17.9
							c205.3,99,291.8,346.6,192.7,551.9l0,0c-48,99.4-131.8,174.3-236,210.7C2349,2768.8,2302.9,2776.5,2257,2776.5z M2257.6,1981
							c-42.4,0-84.9,7.2-126.2,21.5c-96.3,33.6-173.7,102.7-218,194.6c-44.3,91.8-50.2,195.5-16.6,291.7
							c33.6,96.3,102.7,173.7,194.6,218c189.6,91.5,418.3,11.6,509.7-178c91.5-189.6,11.6-418.3-178-509.7
							C2370.7,1993.7,2314.3,1981,2257.6,1981z M2615.4,2535.7L2615.4,2535.7L2615.4,2535.7z"/>
					</g>
					<g>
						<path class="st3" d="M2609.9,2544.3c-32.7,70.6-86,125.5-150.4,161.5c-48.2,27-202,42.1-351.7-25.7
							c-138.8-62.9-230.4-195-241-249.2c-14-72.4-6.5-148.5,26.2-219.1c86.6-186.8,283-189.8,481-97.9S2696.5,2357.5,2609.9,2544.3z
							"/>
					</g>
					<g>
						<path class="st3" d="M2331,2739.3c-65.5,0-146-12.7-227.5-49.6c-143.9-65.2-235.9-199.8-246.9-256.8
							c-15-77.2-5.6-155.2,27-225.5c42.5-91.7,112.1-145.3,206.7-159.4c82.5-12.3,182.2,7.2,288.2,56.4
							c106,49.2,185.2,112.7,229.2,183.6c50.4,81.4,54.3,169.1,11.8,260.8l0,0c-32.6,70.3-86.1,127.8-154.8,166.2
							C2441.5,2727.9,2392.9,2739.3,2331,2739.3z M2138.9,2065.3c-91,0-182.6,35-236.4,150.9c-30.8,66.3-39.5,139.8-25.4,212.7
							c10,51.7,99.6,180.3,235,241.7c150.1,68,299.3,50.2,342.3,26.1c64.8-36.3,115.2-90.5,146-156.8
							c106.6-229.9-125.9-367.9-230.8-416.5C2317.5,2099.2,2228.5,2065.3,2138.9,2065.3z M2609.9,2544.3L2609.9,2544.3
							L2609.9,2544.3z"/>
					</g>
					<g class="st6">
						
							<ellipse transform="matrix(0.5758 -0.8176 0.8176 0.5758 -952.6118 3093.7368)" class="st4" cx="2505.1" cy="2464.9" rx="70.4" ry="51"/>
					</g>
					<g class="st6">
						
							<ellipse transform="matrix(0.6833 -0.7302 0.7302 0.6833 -1115.9845 2557.4519)" class="st4" cx="2389.8" cy="2565.1" rx="32.3" ry="27.7"/>
					</g>
					<g class="st5">
						<path class="st7" d="M2621,2337.7c24.4,62.1,23.7,131.5-11.1,206.6c-32.7,70.6-86.1,125.5-150.4,161.5
							c-48.2,27-202,42.1-351.7-25.7c-52.9-23.9-98.9-57.9-136.2-93.8c185.8,79.4,373.4,60.4,433.2,26.9
							c81.7-45.7,149.3-115.4,190.8-205C2606.8,2384.2,2615.1,2360.7,2621,2337.7z"/>
					</g>
					<g>
						<path class="st3" d="M2655,2379.4c-4.3,0-8.4-2.1-11-5.9c-0.4-0.7-0.9-1.4-1.2-2.2l-0.6-1.3l-0.3-1.4
							c-21.1-112.4-115.2-214.9-258.2-281.3c-143.8-66.7-283.4-70.7-383.1-11l-1.3,0.7c-6.1,2.8-13.5,0.6-16.9-5.4
							c-3.6-6.3-1.4-14.4,4.9-18c0,0,0.1,0,0.1-0.1c107.3-64.1,255.7-60.5,407.5,9.9c150.5,69.8,249.9,179,272.8,299.6
							c1.3,5.3-0.7,11-5.5,14.2C2660.1,2378.7,2657.5,2379.4,2655,2379.4z M2655,2366.2L2655,2366.2L2655,2366.2z"/>
					</g>
					<g class="st6">
						<path class="st4" d="M1922,2360.2c0,0,27.6-211.1,161-238.4c133.4-27.4,276.1,39.2,268.5,46.8c0,0-175.9-35.1-295.8,61.2
							C1963.2,2304.1,1922,2360.2,1922,2360.2z"/>
					</g>
				</g>
			</g>
		</g>
		<g>
			<path class="st3" d="M1573.2,2480.6c-4.8,0-7.6-0.2-7.8-0.2c-7.3-0.5-12.7-6.8-12.2-14.1c0.5-7.2,6.8-12.6,14.1-12.2
				c5.6,0.4,136.7,8.2,174.6-108.7c2.2-6.9,9.7-10.7,16.6-8.5c6.9,2.2,10.7,9.7,8.5,16.6C1728.4,2472.6,1605.5,2480.6,1573.2,2480.6
				z"/>
		</g>
		<g>
			<g>
				<g>
					<path class="st8" d="M1855.1,1543.6l-54.1,93.8c-20.5,35.5,5.1,79.8,46.1,79.8h94.4c40.9,0,66.5-44.3,46.1-79.8l-54.1-93.8
						C1915.9,1513.5,1872.5,1513.5,1855.1,1543.6z"/>
				</g>
				<g class="st9">
					<path class="st3" d="M1855.1,1543.6l-54.1,93.8c-20.5,35.5,5.1,79.8,46.1,79.8h94.4c40.9,0,66.5-44.3,46.1-79.8l-54.1-93.8
						C1915.9,1513.5,1872.5,1513.5,1855.1,1543.6z"/>
				</g>
				<g>
					<path class="st3" d="M1941.4,1733.3H1847c-25,0-47.5-13-60-34.6c-12.5-21.7-12.5-47.6,0-69.3l54.1-93.8
						c11.1-19.2,30.9-30.7,53.1-30.7c22.2,0,42,11.5,53.1,30.7l54.1,93.8c12.5,21.7,12.5,47.6,0,69.3
						C1988.9,1720.3,1966.5,1733.3,1941.4,1733.3z M1894.2,1537.1c-10.5,0-19.9,5.4-25.2,14.5l-54.1,93.8c-6.7,11.6-6.7,25.5,0,37.1
						c6.7,11.6,18.7,18.5,32.1,18.5h94.4c13.4,0,25.4-6.9,32.1-18.5c6.7-11.6,6.7-25.5,0-37.1l-54.1-93.8
						C1914.1,1542.6,1904.7,1537.1,1894.2,1537.1z M1855.1,1543.6L1855.1,1543.6L1855.1,1543.6z"/>
				</g>
				<g>
					<path class="st8" d="M2549.6,971.4c-2.4,26.3-6.4,52.4-12.1,78.1c-7.8,36.1-18.8,71.5-32.6,105.7
						c-60.1,148.4-175,274.8-332.4,345.9c-157.7,71.3-329,74.1-480.3,20.8c-33.2-11.7-65.5-26.1-96.4-43
						c-24.3-13.3-47.7-28.1-70.2-44.5c158.4-39.8,341.4-104.1,530.9-189.8C2245.9,1159.1,2415.1,1064.1,2549.6,971.4z"/>
				</g>
				<g>
					<path class="st10" d="M2056.5,1244.8c189.4-85.7,358.6-180.7,493.1-273.3c-2.4,26.3-6.4,52.4-12.1,78.1
						c-103.5,75.2-268.9,168-461.5,255.1c-184.5,83.4-356.4,144.6-480.3,174.3c-24.3-13.3-47.7-28.1-70.2-44.5
						C1684,1394.7,1867.1,1330.4,2056.5,1244.8z"/>
				</g>
				<g>
					<path class="st8" d="M2523.4,722.1c-105,84.9-312.5,203.8-560.4,316c-247.8,112.1-474.2,189.4-607.3,212.1
						c-13.9-22.6-26.4-46.4-37.6-71.2c-0.5-1.2-1-2.3-1.6-3.5c-4.9-10.9-9.4-21.9-13.6-33c-9.9-25.9-18-52.1-24.4-78.5
						c-0.3-1.1-0.5-2.1-0.8-3.2c-9.3-39.2-14.7-78.7-16.5-118c-3.5-74.8,6.3-149,27.9-219.5c16.1-52.4,38.8-102.7,67.7-149.6
						c65.2-105.9,161.6-194.1,283.5-249.2c12.1-5.5,24.3-10.5,36.5-15.2c164.2-62.6,340-53.7,490.9,13.1c1,0.4,1.9,0.8,2.9,1.3
						c65.5,29.3,126.2,69.6,179.3,119.6c25.9,24.5,50.1,51.3,71.9,80.4c2.4,3.1,4.7,6.3,7.1,9.5c1.9,2.6,3.8,5.3,5.7,7.9
						c15.6,22.2,29.9,45.6,42.8,70.1c4.8,9.1,9.4,18.4,13.8,27.8c1.2,2.6,2.4,5.2,3.6,7.8C2506,671.6,2515.5,696.7,2523.4,722.1z"/>
				</g>
				<g>
					<path class="st10" d="M2491.2,639c1.2,2.6,2.4,5.1,3.6,7.7c11.2,24.8,20.7,49.9,28.6,75.3c-105,84.9-312.5,203.9-560.4,316
						c-247.8,112.1-474.2,189.4-607.3,212.1c-13.8-22.6-26.4-46.4-37.7-71.2c-0.5-1.2-1-2.3-1.5-3.5
						c126.3-13.9,356.6-88.7,609.3-203C2188.4,853.7,2403.1,724.8,2491.2,639z"/>
				</g>
				<g>
					<path class="st10" d="M1269.8,959.6c-3.3,0-6.5-0.1-9.5-0.2l1.7-33.2c88.8,4.6,319.9-68.7,562.2-178.3
						c289.2-130.8,476.2-256.7,511.5-313.4l28.3,17.6c-45,72.3-261.3,206.4-526.1,326.1C1595.4,887.9,1370.1,959.6,1269.8,959.6z"/>
				</g>
				<g>
					<path class="st10" d="M1291.5,739.8l-4.9-32.9c99.4-14.8,271.6-73.9,449.3-154.2c186.2-84.2,347.4-177.2,420.7-242.7l22.2,24.8
						c-75.7,67.6-240.1,162.7-429.2,248.2C1569.3,664.5,1393.8,724.6,1291.5,739.8z"/>
				</g>
				<g>
					<path class="st10" d="M1278.7,1077.4c-0.4,0-0.7,0-1,0l0.2-33.3c0.3,0,0.6,0,1,0c102.2,0,340.2-76.6,593.1-191
						c266.1-120.4,489.7-256,543.6-329.8l26.9,19.6c-57.9,79.2-281.6,216.1-556.8,340.5C1628.8,999.6,1385.2,1077.4,1278.7,1077.4z"
						/>
				</g>
				<g>
					<path class="st10" d="M1692.8,1530.4l-0.6-8.3l-3.7-7.5l1.5-0.7l1.7-0.1c87.6-6.3,254.5-60.2,425.1-137.4
						c171.5-77.6,318.1-164.6,382.4-227.1l11.6,11.9c-65.6,63.7-214,152-387.2,230.3C1948.7,1470.6,1783.6,1523.8,1692.8,1530.4z"/>
				</g>
				<g>
					<path class="st3" d="M1906.8,1574.5c-138.2,0-275.5-43.1-390.6-127l-27.8-20.3l33.4-8.4c163.1-41,345.8-106.3,528.2-188.8
						c182.4-82.5,352-176.5,490.6-271.9l28.3-19.5l-3.1,34.3c-21.8,237-169.9,445-386.5,543
						C2092.2,1555.2,1999.3,1574.5,1906.8,1574.5z M1563.9,1441.2c179,115.8,406.5,133.7,602,45.3c195.5-88.4,332.3-271,363.5-482
						c-134.4,89.6-294.8,177.3-466.2,254.9C1891.7,1337,1719.9,1399.5,1563.9,1441.2z"/>
				</g>
				<g>
					<path class="st10" d="M2532.2,562.5c0.6,1.3,1.1,2.7,1.4,4.2L2532.2,562.5z"/>
				</g>
				<g>
					<path class="st11" d="M2866.3,579.2c39,86.2-89.5,235.8-316.7,392.3c-134.5,92.6-303.6,187.7-493.1,273.3
						c-189.5,85.7-372.5,149.9-530.9,189.8c-267.5,67.3-464.7,65-503.7-21.2c-35.4-78.3,67.3-208.8,256.5-349.3
						c6.4,26.3,14.5,52.6,24.4,78.5c-52.3,42.8-78.1,76.7-69.1,96.5c9.1,20.2,53.1,23,122,11.2c133.1-22.8,359.5-100.1,607.3-212.1
						c247.8-112.1,455.3-231,560.4-316c54.3-44,81.2-78.8,72.1-99c-8.9-19.8-51.4-22.9-118.1-11.8c-12.9-24.5-27.2-47.9-42.8-70.1
						C2665,491.8,2830.9,500.9,2866.3,579.2z"/>
				</g>
				<g>
					<path class="st12" d="M1264.2,1319.2c-49.7,0-87.6-10.3-100-37.9c-17.9-39.5,22.9-98.9,121-176.8l15.5,19.6
						c-123.1,97.6-118.2,137.1-113.8,146.9c15.4,34,136,36.5,370.7-34.5c129.1-39.1,275.1-94.9,422.2-161.4
						c147.1-66.5,285.4-139.3,400-210.4C2588.1,735.2,2665.9,643,2650.5,609c-4.4-9.8-30.9-39.6-185.4-11.6l-4.4-24.6
						c123.2-22.3,194.8-13.6,212.6,25.9c34.7,76.7-160.7,212.8-280.3,287.1c-115.5,71.7-254.8,145-402.9,212
						c-148.1,67-295.2,123.2-425.3,162.6C1478.5,1286.5,1352.6,1319.2,1264.2,1319.2z"/>
				</g>
				<g>
					<path class="st12" d="M1228.1,1406.3c-70.2,0-127.7-14.3-146.5-55.7c-34.8-76.9,87.1-191,195.5-273.1l15.1,19.9
						c-138.8,105.3-209,196.1-187.8,243c12.6,27.8,59.9,42.4,133.3,41.2c76.3-1.3,179.7-19.3,299.1-52.1
						c147.1-40.4,312.5-101.4,478.3-176.4c165.8-75,320.9-158.9,448.3-242.7c103.4-68,185.3-133.7,236.6-190.2
						c49.4-54.3,69.7-99.5,57.1-127.3c-21.2-46.9-135.8-54.1-306.5-19.4l-5-24.5c133.3-27.1,299.5-43.3,334.2,33.6
						c47.1,104.1-196.1,278.5-302.8,348.6c-128.5,84.4-284.7,169-451.7,244.5c-167,75.5-333.7,137-482,177.7
						C1469.2,1373.7,1334.2,1406.3,1228.1,1406.3z"/>
				</g>
				<g>
					<path class="st3" d="M1209.9,1498c-108.8,0-179.3-26.2-202.7-78c-51.5-113.8,141.8-280,261.6-368.9l19.5-14.5l5.7,23.7
						c6.3,25.9,14.3,51.6,23.8,76.5l4.2,10.9l-9,7.4c-59.7,48.8-66.9,72.4-64.6,77.4c2.3,5.1,25.6,15.5,104.6,2
						c135.9-23.2,367.1-104.1,603.4-210.9c236.3-106.9,449.7-227.1,556.9-313.8c62.3-50.4,69.9-74.7,67.6-79.8
						c-2.2-5-24.8-15.2-100.8-2.6l-11.5,1.9l-5.4-10.3c-12.4-23.6-26.5-46.6-41.7-68.4l-14-19.9l23.8-5.1
						c145.9-31.2,398.3-66.6,449.8,47.2c41.7,92.2-75.8,242.4-322.3,412.2c-140.1,96.5-311.5,191.5-495.6,274.7
						c-184.1,83.3-368.6,149.2-533.6,190.7C1402.5,1482.1,1294.6,1497.9,1209.9,1498z M1269,1091.3
						c-175,133.5-261.6,250.6-232.4,315.4c33.6,74.3,219.5,79,485.1,12.2c163.1-41,345.8-106.3,528.2-188.8
						c182.4-82.5,352-176.5,490.6-271.9c225.6-155.3,344.8-298,311.2-372.4v0c-29.3-64.7-174.4-77.1-390.3-33.8
						c8.8,13.5,17.1,27.4,24.8,41.5c72.6-10.7,112.1-3.4,124,22.9c12.7,28-11.7,65.6-76.7,118.2
						c-110.8,89.6-321.6,208.5-563.9,318.1c-242.3,109.6-470.8,189.3-611.2,213.3c-82.4,14.1-126.7,7.6-139.4-20.5
						c-11.9-26.3,8.7-60.8,64.7-108.2C1278.3,1122.2,1273.3,1106.8,1269,1091.3z"/>
				</g>
				<g class="st13">
					<g>
						<path class="st4" d="M2523.4,722.1c-12.2,9.9-25.8,20.2-40.7,31c-6-17-12.8-33.9-20.4-50.6c-1.2-2.6-2.4-5.2-3.6-7.7
							c-4.4-9.4-9-18.7-13.8-27.8c-12.9-24.5-27.3-47.9-42.8-70.1c-1.9-2.7-3.8-5.3-5.7-7.9c-23.7-32.7-50.2-62.8-79-89.9
							c-53.8-50.7-115.5-91.5-182.1-120.9c-162.2-71.7-353.1-76.7-527.5,2.1c-116.4,52.6-209.6,135.5-274.5,235.1
							c64.4-124.3,169.5-228.6,307.1-290.8c174.3-78.8,365.2-73.9,527.4-2.1c66.6,29.4,128.4,70.1,182.1,120.9
							c28.8,27.1,55.3,57.1,79,89.9c2,2.6,3.8,5.3,5.7,8c15.6,22.2,29.9,45.6,42.8,70.1c4.8,9.1,9.4,18.4,13.8,27.8
							c1.2,2.6,2.4,5.1,3.6,7.8C2506,671.6,2515.5,696.7,2523.4,722.1z"/>
					</g>
				</g>
				<g>
					<path class="st3" d="M1347.6,1267.9l-5.7-9.3c-14.2-23.3-27.2-47.8-38.6-73c-5.6-12.4-10.8-25-15.6-37.4
						c-10-26.2-18.4-53.2-25-80.4c-74.5-308.3,81.4-627,370.9-757.9c289.4-130.9,631.8-37.5,814.1,222
						c16.1,22.9,30.8,47.1,43.9,71.9c6.2,11.8,12.2,24,17.8,36.4c11.4,25.1,21.2,51.1,29.3,77.2l3.2,10.4l-8.5,6.9
						c-110.8,89.6-321.6,208.5-563.9,318.1c-242.3,109.6-470.8,189.3-611.2,213.3L1347.6,1267.9z M1906.2,283.2
						c-87.3,0-175.5,18.1-259.2,56c-275.3,124.5-423.7,427.8-352.8,721c6.3,25.9,14.3,51.6,23.8,76.5c4.5,11.9,9.5,23.9,14.8,35.6
						c9.3,20.6,19.7,40.7,31.1,60c137.1-25.5,362.4-104.9,592.6-209c230.2-104.1,438.6-220.9,548.3-307c-7-21.3-15.2-42.4-24.6-63
						l0,0c-5.3-11.8-11-23.4-17-34.6c-12.4-23.6-26.5-46.6-41.8-68.4C2300.7,378.5,2106.1,283.2,1906.2,283.2z"/>
				</g>
				<g class="st9">
					<path class="st3" d="M2044.9,1250c-185.3,83.1-364.1,145.5-519.2,184.5c-267.5,67.3-464.7,65-503.7-21.2
						c-35.4-78.3,67.3-208.8,256.5-349.3c6.4,26.4,14.5,52.6,24.4,78.5c-52.3,42.8-78.1,76.7-69.1,96.5c9.1,20.2,53.1,23,122,11.2
						c88.3-15.1,217.7-54.2,367.1-111.6c-3.6,19.5-2,37.2,5.1,52.9C1757.1,1256,1875.1,1273.6,2044.9,1250z"/>
				</g>
				<g class="st14">
					<path class="st15" d="M1386.6,529.6c2.4-3.3,4.9-6.6,7.5-9.9C1391.5,522.9,1389,526.2,1386.6,529.6z"/>
				</g>
				<g class="st14">
					<path class="st15" d="M1402.8,508.4c5.7-7.1,11.6-14.1,17.6-21C1414.4,494.3,1408.6,501.3,1402.8,508.4z"/>
				</g>
				<g class="st14">
					<path class="st15" d="M1458.5,447.5c-6.3,6.1-12.5,12.3-18.5,18.6C1446,459.8,1452.2,453.6,1458.5,447.5z"/>
				</g>
				<g class="st14">
					<path class="st15" d="M1468.5,438c6.8-6.3,13.7-12.4,20.8-18.4C1482.3,425.6,1475.3,431.8,1468.5,438z"/>
				</g>
				<g class="st14">
					<path class="st15" d="M1511.1,402.1c-7.4,5.7-14.7,11.6-21.8,17.5C1496.5,413.6,1503.7,407.8,1511.1,402.1z"/>
				</g>
				<g class="st9">
					<path class="st3" d="M2549.6,971.4c-2.4,26.3-6.4,52.4-12.1,78.1c-7.8,36.1-18.8,71.5-32.6,105.7
						c-60.1,148.4-175,274.8-332.4,345.9c-157.7,71.3-329,74.1-480.3,20.8c-33.2-11.7-65.5-26.1-96.4-43
						c-24.3-13.3-47.7-28.1-70.2-44.5c158.4-39.8,341.4-104.1,530.9-189.8C2245.9,1159.1,2415.1,1064.1,2549.6,971.4z"/>
				</g>
				<g class="st9">
					<path class="st3" d="M2523.4,722.1C2418.3,807,2210.9,925.9,1963,1038c-247.8,112.1-474.1,189.4-607.3,212.2
						c-13.9-22.6-26.4-46.4-37.6-71.2c-0.5-1.2-1-2.3-1.6-3.5c-4.9-10.9-9.5-22-13.7-33c-9.9-25.9-18-52.1-24.4-78.5
						c-0.3-1.1-0.5-2.1-0.8-3.2c-9.3-39.2-14.7-78.7-16.5-118c-3.5-74.8,6.3-149,27.9-219.4c16.1-52.4,38.8-102.8,67.7-149.6
						c35.9-58.4,81.4-111.4,135.3-156.4c-15.6,19.7-30,40.2-43.1,61.5c-28.8,46.8-51.6,97.2-67.7,149.6
						c-21.6,70.4-31.4,144.6-27.9,219.4c1.8,39.3,7.3,78.8,16.5,118c0.2,1.1,0.5,2.1,0.8,3.2c0.1,0.5,0.3,1.1,0.4,1.8
						c28.5,110.3,144.2,173.6,253,139.7c122.3-38.1,272.3-95.6,431.1-167.4c184.2-83.3,346.1-170.4,460.2-244.5
						C2518.4,706.4,2520.9,714.2,2523.4,722.1z"/>
				</g>
			</g>
			<g>
				<path class="st3" d="M1922.9,1604.2l27.3,104.9c2.3,8.7-2.9,17.5-11.6,19.8c-8.7,2.3-17.5-2.9-19.8-11.6
					c-0.3-1.2-0.5-2.5-0.5-3.7l-2.5-108.3c0-2,1.6-3.7,3.6-3.8C1921,1601.5,1922.5,1602.6,1922.9,1604.2z"/>
			</g>
			<g>
				<path class="st3" d="M1879.8,1605.2l-2.5,108.3c-0.2,9-7.6,16-16.6,15.8s-16-7.6-15.8-16.6c0-1.2,0.2-2.5,0.5-3.7l27.3-104.9
					c0.5-2,2.5-3.1,4.5-2.6C1878.7,1602,1879.8,1603.6,1879.8,1605.2z"/>
			</g>
		</g>
		<g class="st5">
			<path class="st3" d="M2193.8,2973.2c8.2-49.3,21.1-93.4,35.8-131.5c-6.4,22.7-11.9,46.9-16.2,72.6c-5,30.1-13.5,60.5-25.8,89.1
				C2190,2993.3,2192.1,2983.2,2193.8,2973.2z"/>
		</g>
		<g>
			
				<ellipse transform="matrix(0.7071 -0.7071 0.7071 0.7071 -1442.4608 2423.6985)" class="st4" cx="2204.4" cy="2953.1" rx="43.6" ry="43.6"/>
		</g>
		<g class="st5">
			<path class="st3" d="M2245.7,2966.9c-7.7,22.8-32.4,35.1-55.2,27.5s-35.1-32.4-27.4-55.2c2.1-6.3,5.5-11.8,9.9-16.3
				c1.9,16.2,12.9,30.6,29.4,36.2c16.5,5.5,34,0.6,45.3-11.1C2248.5,2954.1,2247.8,2960.6,2245.7,2966.9z"/>
		</g>
		<g>
			<path class="st3" d="M2204.5,3009.8c-6.1,0-12.2-1-18.1-3c-14.4-4.8-26-15-32.7-28.5c-6.7-13.6-7.8-29-3-43.3s15-26,28.5-32.7
				c13.6-6.8,29-7.8,43.3-3c14.4,4.8,26,15,32.7,28.5s7.8,29,3,43.3c-4.8,14.4-15,26-28.5,32.7
				C2221.7,3007.8,2213.1,3009.8,2204.5,3009.8z M2204.4,2922.6c-4.6,0-9.2,1.1-13.5,3.2c-7.3,3.6-12.7,9.8-15.3,17.5
				c-2.6,7.7-2,15.9,1.6,23.2c3.6,7.3,9.8,12.7,17.5,15.3c7.7,2.6,15.9,2,23.2-1.6c7.3-3.6,12.7-9.8,15.3-17.5
				c2.6-7.7,2-15.9-1.6-23.2c-3.6-7.3-9.8-12.7-17.5-15.3C2210.9,2923.2,2207.7,2922.6,2204.4,2922.6z"/>
		</g>
		<g>
			<path class="st4" d="M2127,3041.1l-222.3-60.2c-26.3-7.1-42-34.5-34.9-60.8l32.1-118.3c6.2-23.1,28-38,51-36.5
				c3.3,0.2,6.5,0.7,9.8,1.6l222.3,60.2c26.3,7.1,42.1,34.5,34.9,60.8l-25.4,93.7l-6.7,24.6
				C2180.7,3032.5,2153.3,3048.2,2127,3041.1z"/>
		</g>
		<g class="st5">
			<path class="st3" d="M2127,3041.1l-222.3-60.2c-26.3-7.1-42-34.5-34.9-60.8l32.1-118.3c6.2-23.1,28-38,51-36.5
				c10.4,11.8,16.9,19.3,16.9,19.3c-14.9,97.9-0.7,152.6,116.7,186.5c50.7,14.6,84.9,15.6,108,10.6l-6.7,24.6
				C2180.7,3032.5,2153.3,3048.2,2127,3041.1z"/>
		</g>
		<g>
			<path class="st3" d="M2139.9,3056c-5.4,0-10.9-0.7-16.4-2.2l-222.3-60.2c-33.4-9.1-53.2-43.6-44.2-77l32.1-118.3
				c9.1-33.4,43.6-53.2,77-44.2l222.3,60.2c33.4,9.1,53.2,43.6,44.2,77l-32.1,118.3C2192.9,3037.5,2167.6,3056,2139.9,3056z
				 M1908.1,2968.1l222.3,60.2c19.4,5.3,39.4-6.2,44.7-25.6l32.1-118.3c5.3-19.4-6.2-39.4-25.6-44.7l-222.3-60.2
				c-19.4-5.2-39.4,6.2-44.7,25.6l-32.1,118.3c-2.5,9.3-1.3,19.2,3.6,27.6C1890.9,2959.5,1898.7,2965.6,1908.1,2968.1L1908.1,2968.1
				z"/>
		</g>
		<g>
			<path class="st4" d="M2136.1,3042.6c-3-0.2-6.1-0.7-9.2-1.5l-222.3-60.2c-19.3-5.2-32.9-21.3-35.9-39.9
				c-1.1-6.8-0.9-13.9,1.1-20.9l14.2-52.6l4.7-17.3l13.1-48.4c7.1-26.3,34.5-42,60.8-34.9l48,13c-23.3-1.8-45.4,13.1-51.8,36.4
				l-17.3,63.9l-14.7,54.4c-7.1,26.3,8.6,53.7,34.9,60.8L2136.1,3042.6z"/>
		</g>
		<g class="st5">
			<path class="st3" d="M2136.1,3042.6c-3-0.2-6.1-0.7-9.2-1.5l-222.3-60.2c-26.3-7.1-42-34.5-34.9-60.8l18.9-69.9
				c2.2,13.9,8.2,31.7,23.8,37.7c8.6,3.3,19-0.7,29.1-7.7l-14.7,54.4c-7.1,26.3,8.6,53.7,34.9,60.8L2136.1,3042.6z"/>
		</g>
		<g>
			<path class="st3" d="M2135.3,3055.8c-4-0.3-7.9-0.9-11.8-2l-222.3-60.2c-16.1-4.4-29.6-14.8-38-29.4
				c-8.4-14.6-10.6-31.5-6.2-47.6l32.1-118.3c9-33.4,43.6-53.2,77-44.2l48,13l-4.5,25.8c-17.5-1.3-33.4,9.9-38,26.8l-32.1,118.3
				c-2.5,9.3-1.3,19.2,3.6,27.6c4.9,8.5,12.7,14.5,22,17l174.4,47.2L2135.3,3055.8z M1949.7,2778.2c-16.1,0-30.8,10.7-35.2,26.9
				l-32.1,118.3c-2.5,9.3-1.3,19.1,3.6,27.6c4.9,8.5,12.7,14.5,22,17.1l8.2,2.2c-4.9-12.5-5.7-26.1-2.1-39.2l32.1-118.3
				c3.4-12.6,10.6-23.4,20-31.4l-7-1.9C1956,2778.6,1952.8,2778.2,1949.7,2778.2z M1869.8,2920L1869.8,2920L1869.8,2920z"/>
		</g>
		<g>
			<path class="st3" d="M2058.1,3029.4c-0.7,0-1.5-0.1-2.3-0.3c-4.2-1.2-6.6-5.6-5.3-9.8l21.5-72.6c2.4-8.1,8.7-14.5,16.8-16.9
				l26.6-8.1c3.1-0.9,5.5-3.4,6.3-6.5l26.9-97.9c1.2-4.2,5.5-6.7,9.7-5.5c4.2,1.2,6.7,5.5,5.5,9.7l-26.9,97.9
				c-2.3,8.4-8.6,14.9-16.9,17.4l-26.6,8.1c-3,0.9-5.4,3.3-6.3,6.3l-21.5,72.6C2064.6,3027.2,2061.5,3029.4,2058.1,3029.4z"/>
		</g>
		<g>
			<path class="st4" d="M1694.8,2705.9c0,0-27.7,5.7-36.8,30.4c-10.5,28.5,5.7,49.6,5.7,49.6s54.2,74.1,223.4,120.3
				c0,0,56.5-28.1,19.1-76.4C1906.3,2829.9,1746.5,2802.5,1694.8,2705.9z"/>
		</g>
		<g class="st5">
			<path class="st3" d="M1887.2,2906.2c-169.2-46.2-223.4-120.4-223.4-120.4s-16.8-21.9-5.1-51.2c0.1,0,0,0,0.1,0
				c2.6,10.8,7.7,17.5,7.7,17.5s49.5,67.7,201.7,114.1c18.3,5.6,38.5-1.5,48.1-18.1c0.1-0.2,0.2-0.3,0.3-0.5
				C1930,2885,1887.2,2906.2,1887.2,2906.2z"/>
		</g>
		<g>
			<path class="st3" d="M1881.4,2916.5c-4.3,0-8.7-0.6-13-1.9c-159.8-47.1-213.1-117.9-215.3-120.9c-0.7-0.9-20.3-27-7.5-61.9
				c11.4-31.2,45.1-38.4,46.5-38.7l9.6-2l4.6,8.7c41.2,76.9,157.9,107.7,192.7,115.3c11,2.4,20.3,9.3,25.5,18.9
				c13.5,24.9,8.8,50.8-12.9,70.9C1903.5,2912.4,1892.6,2916.5,1881.4,2916.5z M1689,2722c-6.5,3.1-14.9,8.9-18.6,18.9
				c-7.7,21,3.4,36.5,3.9,37.2c0.6,0.7,51.3,67.1,201.6,111.4c6.4,1.9,13.3,0.4,17.9-3.9c17.2-15.9,12.6-29.9,7.7-39.1
				c-1.5-2.8-4.4-4.9-7.9-5.7C1857.4,2832.8,1739.3,2801.5,1689,2722z"/>
		</g>
		<g>
			<path class="st16" d="M2026.6,2899.1c-0.7,2.5-7.2,16.5-11,24.6c-1.5,3.3-5.2,5-8.8,4l-13.8-3.8c-13.7-3.8-20.8-21-16-38.5
				c4.8-17.5,19.9-28.6,33.5-24.8l13.9,3.8c3.5,1,5.8,4.3,5.4,7.9C2029.1,2880.7,2027.6,2895.1,2026.6,2899.1z"/>
		</g>
		<g>
			<path class="st3" d="M2014.1,2935.8c-1.4,0-2.8-0.2-4.1-0.6l-13.8-3.8c-17.9-5-27.5-26.6-21.5-48.2c2.8-10.1,8.6-18.9,16.4-24.6
				c8.3-6.2,17.9-8.2,26.9-5.7l13.9,3.8c7.2,2,11.9,8.8,11.2,16.2c-2.1,22.9-3.2,26.9-3.6,28.2v0c-0.3,1-1,3.5-11.4,25.8
				C2025.4,2932.5,2019.9,2935.8,2014.1,2935.8z M2010.3,2867.7c-3.3,0-6.7,1.2-9.9,3.6c-4.9,3.6-8.7,9.4-10.5,16.1
				c-3.6,13,1.2,26.2,10.5,28.8l13.5,3.7c6.9-14.7,9.9-21.6,10.4-23.1c0.5-2,1.6-9.5,3-25l-13.5-3.8
				C2012.6,2867.9,2011.5,2867.7,2010.3,2867.7z M2031.8,2899.1L2031.8,2899.1L2031.8,2899.1z"/>
		</g>
		<g>
			
				<ellipse transform="matrix(0.267 -0.9637 0.9637 0.267 -1306.8127 4077.241)" class="st16" cx="2026.9" cy="2897.7" rx="32.8" ry="25.7"/>
			<path class="st3" d="M2023.7,2938c-2.6,0-5.1-0.3-7.7-1c-9-2.5-16.2-9.1-20.1-18.7c-3.7-8.9-4.2-19.4-1.4-29.5
				c6-21.6,25.4-35.2,43.3-30.3c9,2.5,16.2,9.1,20.1,18.7c3.7,8.9,4.2,19.4,1.4,29.5l0,0c-2.8,10.1-8.6,18.9-16.4,24.6
				C2036.9,2935.7,2030.3,2938,2023.7,2938z M2030.2,2873.2c-8.4,0-17.3,8.2-20.5,19.7c-1.9,6.8-1.6,13.6,0.7,19.2
				c2.1,5,5.5,8.4,9.8,9.5s8.9,0,13.3-3.2c4.9-3.6,8.7-9.4,10.5-16.1l0,0c1.9-6.8,1.6-13.6-0.7-19.2c-2.1-5-5.5-8.4-9.8-9.5
				C2032.5,2873.4,2031.4,2873.2,2030.2,2873.2z"/>
		</g>
	</g>
</g>
</svg>
