<?xml version="1.0" encoding="utf-8"?>
<!-- Generator: Adobe Illustrator 22.0.0, SVG Export Plug-In . SVG Version: 6.00 Build 0)  -->
<svg version="1.1" id="Layer_1" xmlns="http://www.w3.org/2000/svg" xmlns:xlink="http://www.w3.org/1999/xlink" x="0px" y="0px"
	 viewBox="0 0 4000 4000" style="enable-background:new 0 0 4000 4000;" xml:space="preserve">
<style type="text/css">
	.st0{display:none;fill:#67E9FF;}
	.st1{fill:#FFFFFF;}
	.st2{opacity:0.25;}
	.st3{fill:#371A45;}
	.st4{fill:#D5D4D6;}
	.st5{opacity:0.7;}
	.st6{fill:none;stroke:#371A45;stroke-width:24.4165;stroke-linecap:round;stroke-miterlimit:10;}
	.st7{fill:#E81818;}
	.st8{fill:#E7A900;}
	.st9{fill:#FFFD01;}
	.st10{opacity:0.3;}
	.st11{opacity:0.6;}
	.st12{fill:#22A7F0;}
	.st13{fill:#FFDA00;}
	.st14{filter:url(#Adobe_OpacityMaskFilter);}
	.st15{filter:url(#Adobe_OpacityMaskFilter_1_);}
	.st16{mask:url(#SVGID_1_);fill:url(#SVGID_2_);}
	.st17{opacity:0.7;fill:url(#SVGID_3_);}
	.st18{filter:url(#Adobe_OpacityMaskFilter_2_);}
	.st19{filter:url(#Adobe_OpacityMaskFilter_3_);}
	.st20{mask:url(#SVGID_4_);fill:url(#SVGID_5_);}
	.st21{opacity:0.7;fill:url(#SVGID_6_);}
	.st22{opacity:0.35;}
	.st23{fill:#1D1D1D;}
	.st24{fill:#D66B09;}
	.st25{fill:#32B1D1;}
	.st26{fill:#921FE5;}
	.st27{opacity:0.5;}
	.st28{fill:#111A28;}
</style>
<g>
	<rect class="st0" width="4000" height="4000"/>
	<g>
		<g>
			<path class="st1" d="M2782.3,1501.3c65.3,71.5,83.5,356.6,35,515.2c-48.4,158.6-337.1,116.4-499.8,80
				c-162.8-36.4-91.8-406.5-70.8-505.3C2279.4,1436.9,2685.5,1395.3,2782.3,1501.3z"/>
		</g>
		<g class="st2">
			<path class="st3" d="M2317.5,2096.5c162.8,36.4,451.4,78.6,499.9-80c6.3-20.8,11.5-43.7,15.6-68c-52,27-109-16.7-108.3-61.6
				c4.1-277.3-76.3-399.3-117.9-443.7c-151.2-7.3-338.3,45.4-360,148C2225.6,1689.9,2154.7,2060.1,2317.5,2096.5z"/>
		</g>
		<g>
			<path class="st3" d="M2579.8,2146.7c-85.1,0-179.7-15.1-265.9-34.3c-161.7-36.1-121.6-344.2-83.2-524.6
				c13.2-61.9,78-111.7,182.6-140.1c131.8-35.8,315-29.7,381,42.6l0,0c68.9,75.4,89.8,363.2,38.6,530.9
				C2804.1,2115.7,2701.8,2146.7,2579.8,2146.7z M2578.4,1458.5c-50.7,0-105.1,6.7-156.5,20.6c-90.9,24.7-149,66.8-159.3,115.4
				c-22.5,105.9-84.8,454,58.5,486c160.7,35.9,436.9,74.7,480.7-68.9c46.7-153.1,29.1-433.1-31.5-499.5
				C2738.5,1477.4,2663.7,1458.5,2578.4,1458.5z"/>
		</g>
		<g>
			<path class="st1" d="M2714.6,1770l78.2-15.2c17.7-3.4,34.4,9.4,35.6,27.3c4.1,61.8,4.4,188.3-59.6,202.1
				c-77.6,16.6-87.3-71.1-78.3-187.3C2691.4,1783.6,2701.4,1772.6,2714.6,1770z"/>
		</g>
		<g class="st2">
			<path class="st3" d="M2690.6,1796.9c-9.3,116.2,0.2,203.9,77.9,187.5c31.9-6.7,47.9-41.5,55.4-82.3
				c-8.2,10.5-26.3,33.6-39.6,33.9c-23.9,0.7-44.8-18.9-49.7-86.7C2701.4,1952.2,2691.5,1784.3,2690.6,1796.9z"/>
		</g>
		<g>
			<path class="st3" d="M2750.7,2001.7c-17.2,0-31.9-5.3-43.8-15.7c-30.7-27-40.2-83.9-31.7-190.3c1.6-20.2,16.7-37,36.7-40.8h0
				l78.2-15c12.8-2.4,26,0.7,36.3,8.7c10.3,8,16.6,19.9,17.5,32.9c4.8,74.7,1.7,202.3-72.3,218
				C2764.3,2000.9,2757.3,2001.7,2750.7,2001.7z M2717.7,1785.1c-6.4,1.2-11.2,6.6-11.8,13c-2.7,33.7-10.9,136.4,21.4,164.7
				c8.9,7.8,21.3,9.9,38,6.4c36.9-7.8,54.8-77.3,47.9-185.9c-0.3-4.2-2.2-7.9-5.6-10.5c-3.4-2.6-7.5-3.6-11.7-2.8L2717.7,1785.1z"/>
		</g>
		<g>
			<path class="st3" d="M2734.7,1834.1c1,14.5,2.7,29,4.8,43.3c2.2,14.3,4.9,28.5,8.6,42.1c3.7,13.5,8.5,27.1,15.3,36.9
				c3.3,4.9,7.5,7.7,9.6,7.6c0.5,0.3,1.1-0.2,1.5-0.1c0.5-0.2,1.1-0.5,1.7-0.6c0.8-0.5,1.4-0.7,2.3-1.2c0.9-0.6,1.8-1.2,2.7-1.8
				l1.1-0.7c7.8-4.6,17.8-1.9,22.4,5.9c4.6,7.8,1.9,17.8-5.9,22.4c-0.7,0.4-1.5,0.8-2.2,1.1c-2.4,1-4.8,1.8-7.2,2.7
				c-2.6,0.7-5.5,1.2-8.2,1.7c-3,0.2-6.1,0.2-9.2-0.2c-3.1-0.7-6.3-1.2-9.1-2.7c-1.4-0.7-2.8-1.4-4.1-2.1c-1.2-0.8-2.3-1.7-3.5-2.6
				c-2.4-1.7-4-3.7-5.7-5.7c-3.3-4-5.5-8-7.4-12c-3.6-8-5.5-15.7-7.1-23.4c-1.5-7.6-2.4-15.2-3-22.7c-1.2-15-1.2-29.7-0.7-44.4
				C2731.9,1863.2,2733,1848.6,2734.7,1834.1z"/>
		</g>
		<g>
			<path class="st1" d="M2674.8,1803.9l-3.9,111.4c-13.3,115.4-54.6,201.9-101.8,247.9c-67.8,66.1-187,73.5-227.5,114.9
				c-35.5,36.3-35.7,91.1-43.6,147.2c-6.8,47.9-26.7,108.5-76.8,154.8c-75.9,70-192.2,56.7-244.5-6.9
				c-59.7-72.7,56.7-204.7,73-220.6c0,0-14.8-27.5-28.8-52.3c-12.8-22.7-17.4-54.5-14.3-88.5c-86.5,11.4-142.1,163.2-209.6,194.8
				c-40.2,18.9-133.9,16.9-214.6-122.9c-55.8-96.7-53.5-193.5,15.2-227.6c73.2-36.4,137.9,33.4,137.9,33.4s-34.9-319.3,261.5-210.6
				c0,0,37.9-240.4,37.7-480.9l472.7-97C2622.5,1488.6,2668.9,1661.2,2674.8,1803.9z"/>
		</g>
		<g>
			<path class="st1" d="M2034.6,1397.9c0.3,240.5-37.7,480.9-37.7,480.9c-296.4-108.8-261.5,210.6-261.5,210.6
				s-64.7-69.8-137.8-33.5c-68.7,34.2-71.1,131-15.3,227.6c80.8,139.8,174.4,141.8,214.7,122.9c96.8-45.5,169.4-338.3,343.3-108.5"
				/>
		</g>
		<g>
			<path class="st1" d="M2034.6,1397.9c0.3,240.5-37.7,480.9-37.7,480.9c-296.4-108.8-261.5,210.6-261.5,210.6
				s-64.7-69.8-137.8-33.5c-68.7,34.2-71.1,131-15.3,227.6c80.8,139.8,174.4,141.8,214.7,122.9c96.8-45.5,169.4-338.3,343.3-108.5"
				/>
		</g>
		<g>
			<path class="st1" d="M2034.6,1397.9c0.3,240.5-37.7,480.9-37.7,480.9c-296.4-108.8-261.5,210.6-261.5,210.6
				s-64.7-69.8-137.8-33.5c-68.7,34.2-71.1,131-15.3,227.6c80.8,139.8,174.4,141.8,214.7,122.9c96.8-45.5,169.4-338.3,343.3-108.5"
				/>
		</g>
		<g>
			<path class="st3" d="M1941.2,2259.9c-1.3,0-2.7-0.2-4-0.7c-6.4-2.2-9.8-9.2-7.5-15.5c44.9-129.9,5.2-235.1-46.9-290.3
				c-31.8-33.6-69.3-49.5-97.8-41.4c-6.5,1.8-13.2-1.9-15.1-8.4c-1.8-6.5,1.9-13.2,8.4-15.1c37.9-10.7,83.5,7.3,122.2,48.1
				c57,60.3,100.7,174.8,52.2,315C1951,2256.7,1946.2,2259.9,1941.2,2259.9z"/>
		</g>
		<g>
			<path class="st3" d="M1757,2136.6l-33.5-36.2c-2.3-2.4-57.5-60.4-118.7-29.9c-7.8,3.9-14.7,8.8-20.6,14.7c-6.4,6.4-16.7,6.4-23,0
				c-6.4-6.4-6.3-16.7,0-23c8.4-8.4,18.2-15.4,29.1-20.8c51.7-25.7,98.7-6.4,127.5,12.7c0.6-49.5,11-136,70.9-182.9
				c46.3-36.2,112-40.9,195.3-14c5.7-36,17.6-120.7,22.3-224.7c0.4-9,7.9-16,17-15.5c9,0.4,15.9,8,15.5,17
				c-6.4,140.6-25.7,246.8-25.9,247.8l-3.5,19l-18.1-6.7c-80.9-29.7-142.3-28.8-182.5,2.7c-71,55.6-57.3,189.5-57.2,190.8
				L1757,2136.6z"/>
		</g>
		<g>
			<path class="st3" d="M1755.9,2431.2c-6.5,0-13.1-0.5-19.8-1.4c-8.9-1.3-15.1-9.5-13.8-18.4c1.3-8.9,9.5-15.1,18.4-13.8
				c18,2.6,36,0.5,49.4-5.8c25.2-11.8,50.6-45.6,77.4-81.3c40.7-54.2,86.9-115.6,149.2-115.7c0.1,0,0.1,0,0.2,0
				c44.2,0,88.8,30.6,136.4,93.5c5.4,7.2,4,17.4-3.2,22.8c-7.2,5.4-17.4,4-22.8-3.2c-40.5-53.5-77.6-80.6-110.5-80.6
				c0,0-0.1,0-0.1,0c-46.1,0.1-85.3,52.3-123.2,102.7c-29.3,39.1-57.1,76-89.6,91.3C1790,2427.8,1773.4,2431.2,1755.9,2431.2z"/>
		</g>
		<g>
			<path class="st4" d="M1755.1,2408.6c-8.6,4.4-18.6,5-28,2.9c-43.4-10-96.4-44.3-144.7-128c-41.5-71.7-50.8-143.6-24.8-189.8
				c7.9-14.1,23.6-22.3,39.7-20.8c32.5,2.9,67.9,21.6,92.1,65.3C1731.5,2214.1,1818,2376.3,1755.1,2408.6z"/>
		</g>
		<g class="st5">
			<path class="st1" d="M1758,2279.7c-17.7-39.8-38.7-78.5-53.9-105.9c-24.2-43.6-59.6-62.3-92.1-65.2c-16-1.5-31.7,6.8-39.7,20.8
				c-18.9,33.6-19.2,80.8-1.9,131.6c-31.1-63.9-36.1-125.9-12.8-167.2c7.9-14.1,23.6-22.3,39.7-20.8c32.5,2.9,67.9,21.6,92.1,65.2
				C1709.1,2173.8,1738.7,2228.4,1758,2279.7z"/>
		</g>
		<g class="st2">
			<path class="st3" d="M1755.1,2408.6c-8.6,4.4-18.6,5.1-28,2.9c-43-10-95.6-43.8-143.6-126.2c30.5,25.6,60.3,39.4,87.1,45.6
				c11.3,2.6,23.4,1.9,33.8-3.4c40.4-20.7,29.7-85.8,3.3-155.9C1751.4,2254,1809.9,2380.5,1755.1,2408.6z"/>
		</g>
		<g>
			<path class="st3" d="M1737.5,2429c-4.6,0-9.4-0.5-14.1-1.6c-40.4-9.3-100.1-40.4-155.1-135.7c-44.7-77.3-54-154.3-24.9-206
				c11.1-19.7,32.8-31.1,55.3-29c25.2,2.3,72.3,14.9,104.9,73.6c49.7,89.5,104.4,199.9,86.5,259c-4.6,15.3-14.2,27-27.5,33.9h0
				C1755,2427,1746.4,2429,1737.5,2429z M1755.1,2408.6L1755.1,2408.6L1755.1,2408.6z M1593.6,2089c-8.9,0-17.5,4.9-21.9,12.7
				c-23.1,40.9-13.6,107.5,24.7,173.7c49.2,85.2,100.2,112.4,134.3,120.3c6.3,1.4,12.3,0.9,16.9-1.5l0,0c5.6-2.9,9.1-7.4,11.2-14.4
				c10.8-35.5-17.4-114.1-83.8-233.7c-25.3-45.6-60.6-55.2-79.3-56.9C1595.1,2089.1,1594.4,2089,1593.6,2089z"/>
		</g>
		<g>
			<path class="st3" d="M1558.3,2248.5c-6,0-11.9-3.3-14.7-9.1c-3.9-8-0.8-17.6,7.2-21.6c10.6-5.3,130.5-47.3,154.5-55.6
				c8.5-3,17.8,1.5,20.7,10c3,8.5-1.5,17.8-10,20.7c-54,18.9-142.6,50.2-150.7,54.1C1563.1,2248,1560.7,2248.5,1558.3,2248.5z"/>
		</g>
		<g>
			<path class="st3" d="M1588.9,2310.5c-6,0-11.8-3.3-14.7-9.1c-3.9-8-0.8-17.7,7.2-21.7c10.6-5.3,129.9-48.1,153.8-56.6
				c8.5-3,17.8,1.4,20.8,9.8c3,8.5-1.4,17.8-9.8,20.8c-53.9,19.3-142.3,51.3-150.2,55.1C1593.7,2310,1591.3,2310.5,1588.9,2310.5z"
				/>
		</g>
		<g>
			<path class="st3" d="M1635,2371.3c-6,0-11.8-3.3-14.6-9c-4-8-0.8-17.8,7.3-21.8c10.5-5.2,113-43.1,133.4-50.6
				c8.4-3.1,17.8,1.2,20.9,9.6s-1.2,17.8-9.6,20.9c-46.4,17.1-122.8,45.6-130.1,49.2C1639.9,2370.8,1637.5,2371.3,1635,2371.3z"/>
		</g>
		<g>
			<path class="st3" d="M1749,2080.3c5.9,10.3,10.4,19.9,14.9,30c4.4,10,8.4,20.2,12,30.5c3.6,10.3,6.9,20.7,9.6,31.2
				c2.9,10.5,5,21.2,7,31.8c0.8,4.4-2.1,8.7-6.5,9.5c-4.1,0.8-8-1.7-9.2-5.5l-0.1-0.2c-3.2-9.8-6.5-19.6-10.5-29.1
				c-3.8-9.6-8.2-18.9-12.8-28.1c-4.6-9.2-9.6-18.2-14.9-26.9c-5.2-8.6-11-17.6-16.6-25l-0.2-0.2c-5.4-7.2-4-17.4,3.2-22.9
				c7.2-5.4,17.4-4,22.9,3.2C1748.2,2079.1,1748.7,2079.7,1749,2080.3z"/>
		</g>
		<g>
			<path class="st1" d="M1790.1,2022.1"/>
		</g>
		<g>
			<path class="st6" d="M1790.1,2022.1"/>
		</g>
		<g>
			<g>
				<g>
					<path class="st7" d="M3093.4,2563.9c0,0,230-177.8,573.3,292.4c16.1,22.1,8,53.4-16.9,64.7c-133.8,60.6-516.4,207.4-641.7-29.9
						L3093.4,2563.9z"/>
				</g>
				<g>
					<path class="st8" d="M3080.1,2610.9c0,0,163.2-126.2,406.7,208.5c10.7,14.7,5.2,35.4-11.2,42.9
						c-92.7,42.2-366.5,148.8-455.7-20.2L3080.1,2610.9z"/>
				</g>
				<g>
					<path class="st9" d="M3058,2645.5c0,0,110.2-85.1,274.4,140.7c7.2,9.9,3.5,23.9-7.6,29c-62.5,28.5-247.3,100.4-307.5-13.6
						L3058,2645.5z"/>
				</g>
				<g>
					<path class="st3" d="M3258.9,3038.8c-127.6,0-216.8-46.9-265.9-139.8c-2-3.8-2.5-8.2-1.4-12.3l85.3-327.2
						c1-3.7,3.1-6.9,6.1-9.2c2.6-2,64.4-48.7,170.6-33.6c138,19.6,281.7,130.4,426.9,329.4c10.8,14.7,14.3,33.3,9.6,50.9
						c-4.6,17.6-16.8,31.9-33.3,39.4c-66.8,30.3-198.4,83.3-329.1,98.2C3303.6,3037.4,3280.7,3038.8,3258.9,3038.8z M3026.4,2888.8
						c51.2,90.9,151.3,128.5,297.4,111.9c126.1-14.4,253.9-65.9,318.9-95.4c7.1-3.2,12.3-9.4,14.3-17c2-7.6,0.5-15.6-4.2-22
						c-173.2-237.2-314.5-302.5-402.7-315.5c-77.8-11.5-127.1,14.3-141.8,23.5L3026.4,2888.8z"/>
				</g>
			</g>
			<g>
				<polygon class="st7" points="2347.7,2546.7 2949.2,2159.3 3173.8,2215.9 2850.2,2673.4 				"/>
			</g>
			<g>
				<polygon class="st7" points="2347.7,2546.7 2693.7,3173 2918.3,3229.6 2850.2,2673.4 				"/>
			</g>
			<g class="st10">
				<path class="st3" d="M2347.7,2546.8l502.5,126.7l68.1,556.2l-80.1-20.2l-19.1-156.3c-4.5-36.7-29.5-67.7-64.4-79.9
					c-56.8-19.8-111.3-45.4-162.7-76.1c-28.1-16.8-55.2-35.2-81.2-55L2347.7,2546.8z"/>
			</g>
			<g class="st10">
				<path class="st3" d="M2347.7,2546.7l502.5,126.7l323.6-457.5l-80.1-20.2l-90.9,128.5c-21.4,30.2-58.1,45.7-94.6,39.9
					c-59.4-9.5-119.5-12.8-179.3-10.1c-32.7,1.5-65.3,4.8-97.6,10L2347.7,2546.7z"/>
			</g>
			<g class="st11">
				<polygon class="st1" points="2949.2,2159.3 2992.9,2170.3 2406.2,2561.5 2347.7,2546.8 				"/>
			</g>
			<g class="st11">
				<polygon class="st1" points="2347.7,2546.8 2406.2,2561.5 2737.4,3184 2693.7,3173 				"/>
			</g>
			<g>
				<path class="st3" d="M2857.1,2691.9l-549.7-138.5l639-411.6l254.5,64.1L2857.1,2691.9z M2388,2540.1l455.4,114.8l303.4-429
					l-194.8-49.1L2388,2540.1z"/>
			</g>
			<g>
				<path class="st12" d="M2742.6,2060.2c-9.8,39,133.4,93.8,191.8,107.1l331.8,75.6c20.4,4.7,40.9-7.9,46-28.2v0l5.2-20.7
					c5.1-20.3-6.9-41-27.1-46.6l-328-90.7C2904.6,2040.8,2752.5,2021.2,2742.6,2060.2z"/>
			</g>
			<g class="st11">
				<path class="st1" d="M2962.3,2056.8l35,9.7c-68.7-13.1-178-21.9-186.3,11c-8.3,32.8,92.1,76.9,158.8,97.9l-35.4-8.1
					c-58.4-13.3-201.7-68.1-191.8-107.1C2752.5,2021.2,2904.6,2040.8,2962.3,2056.8z"/>
			</g>
			<g>
				<path class="st3" d="M2937.3,3251.2l-254.5-64.1l-367.5-665.3l549.7,138.5L2937.3,3251.2z M2704.5,3158.9l194.8,49.1
					l-63.8-521.6l-455.4-114.8L2704.5,3158.9z"/>
			</g>
			<g>
				<path class="st12" d="M2464.9,3162.4c9.8-39,161.9-19.4,219.7-3.4l328,90.7c20.2,5.6,32.3,26.3,27.1,46.6l0,0l-5.2,20.7
					c-5.1,20.3-25.5,32.8-46,28.2l-331.8-75.6C2598.3,3256.2,2455,3201.4,2464.9,3162.4z"/>
			</g>
			<g class="st10">
				<path class="st3" d="M2798.7,3190.5l213.9,59.1c20.2,5.6,32.3,26.3,27.1,46.6l-5.2,20.7c-5.1,20.3-25.5,32.8-46,28.2
					l-216.5-49.4c67.6,10.4,154.9,14.1,162.3-15.1C2941.6,3251.5,2863.1,3213.4,2798.7,3190.5z"/>
			</g>
			<g class="st11">
				<path class="st1" d="M2684.6,3159l35,9.7c-68.7-13.1-178-21.9-186.3,11c-8.3,32.8,92.1,76.9,158.8,97.9l-35.4-8.1
					c-58.4-13.3-201.7-68.1-191.8-107.1C2474.7,3123.4,2626.8,3143,2684.6,3159z"/>
			</g>
			<g>
				<path class="st3" d="M2996.9,3362.4c-4,0-8-0.4-12-1.4l-331.8-75.6c-47.3-10.8-171.7-54.5-198.7-98.7
					c-7.3-11.9-6.9-21.9-5.3-28.3c1.6-6.4,6-15.4,18.1-22.4c44.8-26.1,175-5.6,221.8,7.3l328,90.7c28.5,7.9,45.8,37.6,38.6,66.3
					l-5.2,20.7C3044,3345.6,3021.4,3362.4,2996.9,3362.4z M2480.7,3166.4c0.2,1.3,4.7,17.6,65.1,46.2c41.8,19.8,88.7,35.1,114.5,41
					l331.8,75.6c11.7,2.7,23.6-4.6,26.6-16.3l5.2-20.7c2.9-11.7-4.1-23.7-15.7-26.9l-328-90.7c-25.6-7.1-74.1-15.8-120.3-18.1
					C2493.1,3153,2481.5,3165.3,2480.7,3166.4z"/>
			</g>
			<g class="st10">
				<path class="st3" d="M3076.4,2088.3l213.9,59.1c20.2,5.6,32.3,26.3,27.1,46.6l-5.2,20.7c-5.1,20.3-25.5,32.8-46,28.2
					l-216.5-49.4c67.6,10.4,154.9,14.1,162.3-15.1S3140.9,2111.2,3076.4,2088.3z"/>
			</g>
			<g>
				<path class="st3" d="M3274.6,2260.2c-4,0-8-0.4-12-1.4l-331.8-75.6c-47.3-10.8-171.7-54.5-198.7-98.7
					c-7.3-11.9-6.9-21.9-5.3-28.3c1.6-6.4,6-15.4,18.1-22.4c44.8-26.1,175-5.6,221.8,7.3l328,90.7c28.5,7.9,45.8,37.6,38.6,66.3
					l-5.2,20.7C3321.8,2243.4,3299.2,2260.2,3274.6,2260.2z M2758.5,2064.2c0.2,1.3,4.7,17.6,65.1,46.2
					c41.8,19.8,88.7,35.1,114.5,41l331.8,75.6c11.7,2.7,23.6-4.6,26.6-16.3l5.2-20.7c2.9-11.7-4.1-23.7-15.7-26.9l-328-90.7
					c-25.6-7.1-74.1-15.8-120.3-18.1C2770.9,2050.9,2759.3,2063.1,2758.5,2064.2z"/>
			</g>
			<g>
				<path class="st1" d="M1859.4,1916.1c471.1,118.7,829.7,351.8,968.6,451.8c38.2,27.5,55.8,75.5,44.3,121.1l-90,357.2
					c-11.5,45.6-49.7,79.6-96.4,85.7c-169.7,22.2-596,57.5-1067.1-61.2c-848.9-213.9-1225.1-697.4-1197-809.2
					C450.1,1949.6,1010.5,1702.2,1859.4,1916.1z"/>
			</g>
			<g>
				<path class="st3" d="M2319.6,2970.7c-197.5,0-444.6-18.7-704.7-84.3C1149,2769,850,2579,681.1,2440.3
					c-202.1-166-291.3-318.3-275-382.9c16.3-64.6,167-156.4,423.6-206.8c214.4-42.1,567.7-67.7,1033.6,49.7
					c476.3,120,839.9,357.8,974.2,454.4c43.9,31.6,63.7,85.9,50.5,138.3l-90,357.2c-13.2,52.4-56.4,90.8-110,97.8
					C2613.6,2957.8,2483.7,2970.7,2319.6,2970.7z M1212.3,1847.8c-152.8,0-279,15.6-376.2,34.7c-252.8,49.7-387.2,138.5-398.4,182.8
					c-11.2,44.3,65,186.2,264.1,349.8c166.2,136.6,461,323.8,921,439.7c470.9,118.7,898.8,82.1,1061,60.9
					c40.3-5.3,72.8-34.1,82.7-73.5l90-357.2c9.9-39.4-5-80.2-38-103.9c-132.7-95.5-492.2-330.6-963.1-449.2h0
					C1607.2,1869.3,1391.4,1847.8,1212.3,1847.8z"/>
			</g>
			<g>
				<path class="st13" d="M2876.8,2471.3l48.6,12.3c37.6,9.5,60.4,47.6,50.9,85.2l-64.7,256.6c-9.5,37.6-47.6,60.4-85.2,50.9
					l-48.6-12.3L2876.8,2471.3z"/>
			</g>
			<g class="st10">
				<path class="st3" d="M2916.8,2727.8c-9.5,37.6-47.6,60.4-85.2,50.9l-30.3-7.6l-23.4,93l48.6,12.3c37.6,9.5,75.7-13.3,85.2-50.9
					l64.7-256.6c4.5-17.9,1.6-35.9-6.6-50.9L2916.8,2727.8z"/>
			</g>
			<g class="st5">
				<path class="st1" d="M2876.8,2471.3l48.6,12.3c37.6,9.5,60.4,47.6,50.9,85.2l-10.7,42.4c9.5-37.6-13.3-75.7-50.9-85.2
					l-48.6-12.3L2876.8,2471.3z"/>
			</g>
			<g>
				<path class="st3" d="M3055.3,2550c19.1,4.8,30.6,24.1,25.8,43.2l-65.6,260.2c-4.8,19.1-24.1,30.6-43.2,25.8
					c-6.3-1.6-12-4.8-16.6-9.5l-44.1-44.4l64.7-256.6l59.9-18.2C3042.5,2548.6,3049,2548.5,3055.3,2550z"/>
			</g>
			<g class="st5">
				<path class="st1" d="M3055.3,2550c19.1,4.8,30.6,24.1,25.8,43.2l-9.4,37.1c4.8-19.1-6.8-38.4-25.8-43.2
					c-6.3-1.6-12.8-1.4-19.1,0.4l-59.9,18.2l9.4-37.1l59.9-18.2C3042.5,2548.6,3049,2548.5,3055.3,2550z"/>
			</g>
			<g class="st5">
				<path class="st1" d="M2971.2,2883.5c19.1,4.8,38.4-6.7,43.2-25.8l9.4-37.1c-4.8,19.1-24.2,30.6-43.2,25.8
					c-6.3-1.6-12-4.8-16.6-9.4l-44.1-44.4l-9.4,37.1l44.1,44.4C2959.3,2878.7,2965,2881.9,2971.2,2883.5z"/>
			</g>
			<g>
				<path class="st7" d="M1206.9,1831.8c-12.4,127.1-35.9,262.9-71,402.4c-36.4,144.4-82,279.5-133.4,400.4
					c-415.3-225.1-600.6-493.5-580.6-573.2C442,1981.6,733.2,1832.7,1206.9,1831.8z"/>
			</g>
			<g class="st10">
				<path class="st3" d="M1478.6,2790.5c-0.5-0.1-1-0.3-1.5-0.4c5.8,1.8,11.7,3.5,17.5,5.2c3.8,1.1,7.6,2.3,11.4,3.4
					c8.2,2.4,16.5,4.8,24.9,7.2c4.1,1.2,8.2,2.4,12.3,3.5c9.1,2.5,18.3,5,27.5,7.5c3.3,0.9,6.6,1.8,9.9,2.7
					c12.7,3.4,25.4,6.7,38.3,9.9c471.1,118.7,897.3,83.5,1067,61.2c15.4-2,29.9-7.1,42.8-14.6c26.2-15.2,45.9-40.5,53.6-71l90-357.2
					c0.6-2.5,1.1-4.9,1.6-7.4c0.3,1.6,0.6,3.3,0.8,4.9c-0.3-2.5-0.8-5.1-1.3-7.6c0,0,0-0.1,0-0.1c-0.5-2.5-1.1-4.9-1.8-7.3
					c-0.2-0.7-0.4-1.5-0.7-2.2c-0.5-1.8-1.1-3.5-1.7-5.2c-0.3-0.7-0.5-1.5-0.8-2.2c-0.9-2.3-1.8-4.6-2.8-6.9
					c-0.1-0.2-0.2-0.3-0.2-0.5c-1-2.2-2-4.3-3.2-6.4c-0.4-0.7-0.8-1.4-1.2-2.1c-0.9-1.6-1.8-3.2-2.8-4.7c-0.4-0.7-0.8-1.3-1.3-2
					c-1.4-2.1-2.8-4.2-4.3-6.2v0c-6.8-9.1-15.1-17.3-24.7-24.2c-138.9-100-497.5-333.1-968.6-451.8c-48.8-12.3-96.7-23.1-143.6-32.5
					c407.3,99,1012.4,378.1,921.4,739.1c-0.2,0.6-0.3,1.2-0.5,1.8c-22.6,87.6-101.2,149.1-191.6,152.9c-91.4,3.8-198.7,4-316.6-3.3
					c69.5-50.8,122.5-125.1,145.1-214.9c51.5-204.3-72.8-412.5-277.2-464c-204.4-51.5-412.5,72.8-464,277.2
					c-28.7,113.8-2.8,228.7,61.1,317.2c-645.2-168.5-1011.7-492.4-1130.2-680.7c-21.1,17-34.5,33.2-39.9,47.5
					C458.6,2202.5,795.9,2582.3,1478.6,2790.5z"/>
			</g>
			<g class="st11">
				<path class="st1" d="M966.9,1840.6c-132.3,15.6-243.4,42.8-330,74c-129.9,46.8-205.1,102.5-215,141.7
					c-7,27.6,10.8,78,54.3,141.3c-24.6-44-34-78.9-28.6-100.2c10.1-40,88.2-97.3,223.1-144.6c34.7,16.9,91.5,19.7,151.8,4.4
					c55.9-14.2,101.6-40.8,125.9-69.7c77-11,162-18,254.1-19.4c1.6-13.9,3.1-27.7,4.5-41.4
					C1120.7,1826.8,1040.5,1831.9,966.9,1840.6z"/>
			</g>
			<g>
				<path class="st3" d="M2843.7,2894.7c-7.1,0-14.2-0.9-21.3-2.7l-64.4-16.2l106.9-424.3l64.4,16.2c46.2,11.7,74.4,58.7,62.7,105
					l-64.7,256.6c-5.6,22.4-19.7,41.3-39.5,53.1C2874.3,2890.5,2859.2,2894.7,2843.7,2894.7z M2797.6,2852.2l32.8,8.3
					c14,3.5,28.5,1.4,40.8-6c12.4-7.4,21.1-19.1,24.6-33.1l64.7-256.6c7.3-28.8-10.3-58.2-39.1-65.4l-32.8-8.3L2797.6,2852.2z"/>
			</g>
			<g>
				<path class="st3" d="M2981,2896.6c-4.2,0-8.4-0.5-12.7-1.6c-9.2-2.3-17.5-7.1-24.2-13.8l-50.6-50.9l69.2-274.5l68.7-20.9
					c9-2.8,18.6-3,27.8-0.7h0c27.7,7,44.6,35.2,37.6,63l-65.6,260.2C3025.4,2880.9,3004.2,2896.6,2981,2896.6z M2929.7,2820.4
					l37.6,37.9c2.5,2.5,5.6,4.3,9,5.1c10.3,2.6,20.8-3.7,23.4-14l65.6-260.2c2.6-10.3-3.7-20.8-14-23.4c-3.4-0.9-7-0.8-10.3,0.3
					l-51.1,15.5L2929.7,2820.4z"/>
			</g>
			<g>
				<path class="st7" d="M1941.5,2069.1c73.3,18.5,135.7,57.8,182.7,110c79,87.8,114.3,212.1,83.2,335.3
					c-27,107-98.4,191-189.6,237.4c-76.2,38.7-166.2,51.1-255.6,28.6c-196.4-49.5-315.5-248.8-266-445.2
					S1745.1,2019.6,1941.5,2069.1z"/>
			</g>
			<g class="st11">
				<path class="st1" d="M2218.4,2405.3c-11.5-69.6-42.9-134.2-89.6-186c-47-52.2-109.5-91.5-182.8-109.9
					c-196.4-49.5-395.8,69.5-445.3,266c-8.8,34.9-12.3,69.9-10.9,104.2c-8-48.2-6.3-98.7,6.4-149c49.5-196.4,248.8-315.4,445.3-266
					c73.2,18.4,135.7,57.8,182.7,109.9C2180.8,2237.3,2214.9,2318.8,2218.4,2405.3z"/>
			</g>
			<g class="st2">
				<path class="st3" d="M2207.5,2514.4c-27,107-98.4,191-189.6,237.4c-76.2,38.7-166.2,51.1-255.7,28.6
					c-172.5-43.5-285.4-202.5-276.7-373.7c32.5,125.7,130.8,230.2,265.6,264.2c89.4,22.6,179.4,10.1,255.6-28.6
					c91.2-46.4,162.6-130.4,189.6-237.4c6-23.9,9.6-47.8,10.7-71.4C2221.9,2390.8,2223,2452.7,2207.5,2514.4z"/>
			</g>
			<g>
				<path class="st3" d="M1851.8,2806.9c-30.8,0-62.1-3.8-93.4-11.6c-99-24.9-182.3-86.9-234.7-174.6
					c-52.4-87.6-67.4-190.4-42.5-289.4c51.5-204.3,259.6-328.7,464-277.2l0,0c204.3,51.5,328.7,259.6,277.2,464
					C2178.8,2691.2,2022.7,2806.9,1851.8,2806.9z M1851.3,2073.2c-62.7,0-124.4,16.9-179.6,49.9c-80.6,48.1-137.6,124.8-160.5,215.8
					c-47.3,187.9,67,379.2,254.8,426.6c187.9,47.3,379.2-67,426.6-254.8c47.3-187.9-67-379.2-254.8-426.6
					C1909.1,2076.8,1880.1,2073.2,1851.3,2073.2z"/>
			</g>
			<g>
				<path class="st12" d="M2111.7,2490.2c-22.5,89.5-87.6,156.9-168.2,186.4c-30.1,11-62.3,16.6-95.3,16.2
					c-20.5-0.3-41.2-3-61.9-8.2c-17.5-4.4-34.1-10.4-49.7-17.9c-44.2-21-80.8-53.2-107-92.3c-41-60.9-56.9-138.4-37.6-215.2
					c21.9-86.8,83.7-152.9,161-183.6c43.4-17.3,91.7-23.4,140.4-15.7c8,1.2,16,2.8,24,4.9c15.4,3.9,30.2,9,44.2,15.3
					c44.2,19.8,81.1,50.7,108.2,88.5C2114,2330.5,2131.8,2410.7,2111.7,2490.2z"/>
			</g>
			<g>
				<path class="st12" d="M2119.6,2438c-0.9,17.3-3.5,34.8-7.9,52.2c-22.5,89.5-87.6,156.9-168.2,186.4
					c-30.1,11-62.3,16.6-95.3,16.2c-20.5-0.3-41.2-3-61.9-8.2c-17.5-4.4-34.1-10.4-49.7-17.9c-44.2-21-80.8-53.2-107-92.3
					c-41-60.9-56.9-138.4-37.6-215.2c0.3-1.4,0.7-2.8,1.1-4.2c-3,58.9,13.7,115.9,45.4,163.1c26.3,39,62.8,71.3,107,92.3
					c15.7,7.5,32.3,13.5,49.7,17.9c20.7,5.2,41.4,7.9,61.9,8.2c33,0.5,65.2-5.2,95.3-16.2C2031.9,2591.3,2096.2,2525.4,2119.6,2438z
					"/>
			</g>
			<defs>
				<filter id="Adobe_OpacityMaskFilter" filterUnits="userSpaceOnUse" x="1629.6" y="2156.7" width="263.8" height="510">
					<feFlood  style="flood-color:white;flood-opacity:1" result="back"/>
					<feBlend  in="SourceGraphic" in2="back" mode="normal"/>
				</filter>
			</defs>
			<mask maskUnits="userSpaceOnUse" x="1629.6" y="2156.7" width="263.8" height="510" id="SVGID_1_">
				<g class="st14">
					<defs>
						<filter id="Adobe_OpacityMaskFilter_1_" filterUnits="userSpaceOnUse" x="1629.6" y="2156.7" width="263.8" height="510">
							<feFlood  style="flood-color:white;flood-opacity:1" result="back"/>
							<feBlend  in="SourceGraphic" in2="back" mode="normal"/>
						</filter>
					</defs>
					<mask maskUnits="userSpaceOnUse" x="1629.6" y="2156.7" width="263.8" height="510" id="SVGID_1_">
						<g class="st15">
						</g>
					</mask>
					
						<linearGradient id="SVGID_2_" gradientUnits="userSpaceOnUse" x1="1845.3694" y1="2197.4602" x2="1846.9865" y2="2595.2864" gradientTransform="matrix(0.9949 -0.1013 0.1013 0.9949 -313.1302 216.2025)">
						<stop  offset="0" style="stop-color:#FFFFFF"/>
						<stop  offset="1" style="stop-color:#000000"/>
					</linearGradient>
					<path class="st16" d="M1893.4,2160l-156.8,506.7c-44.2-21-80.8-53.2-107-92.3l123.4-398.8
						C1796.4,2158.3,1844.7,2152.3,1893.4,2160z"/>
				</g>
			</mask>
			
				<linearGradient id="SVGID_3_" gradientUnits="userSpaceOnUse" x1="1845.3694" y1="2197.4602" x2="1846.9865" y2="2595.2864" gradientTransform="matrix(0.9949 -0.1013 0.1013 0.9949 -313.1302 216.2025)">
				<stop  offset="0" style="stop-color:#FFFFFF"/>
				<stop  offset="1" style="stop-color:#FFFFFF"/>
			</linearGradient>
			<path class="st17" d="M1893.4,2160l-156.8,506.7c-44.2-21-80.8-53.2-107-92.3l123.4-398.8
				C1796.4,2158.3,1844.7,2152.3,1893.4,2160z"/>
			<defs>
				<filter id="Adobe_OpacityMaskFilter_2_" filterUnits="userSpaceOnUse" x="1806.9" y="2180.2" width="262.8" height="512.6">
					<feFlood  style="flood-color:white;flood-opacity:1" result="back"/>
					<feBlend  in="SourceGraphic" in2="back" mode="normal"/>
				</filter>
			</defs>
			<mask maskUnits="userSpaceOnUse" x="1806.9" y="2180.2" width="262.8" height="512.6" id="SVGID_4_">
				<g class="st18">
					<defs>
						<filter id="Adobe_OpacityMaskFilter_3_" filterUnits="userSpaceOnUse" x="1806.9" y="2180.2" width="262.8" height="512.6">
							<feFlood  style="flood-color:white;flood-opacity:1" result="back"/>
							<feBlend  in="SourceGraphic" in2="back" mode="normal"/>
						</filter>
					</defs>
					<mask maskUnits="userSpaceOnUse" x="1806.9" y="2180.2" width="262.8" height="512.6" id="SVGID_4_">
						<g class="st19">
						</g>
					</mask>
					
						<linearGradient id="SVGID_5_" gradientUnits="userSpaceOnUse" x1="2010.0964" y1="2233.5388" x2="2011.7238" y2="2633.865" gradientTransform="matrix(0.9949 -0.1013 0.1013 0.9949 -313.1302 216.2025)">
						<stop  offset="0" style="stop-color:#FFFFFF"/>
						<stop  offset="1" style="stop-color:#000000"/>
					</linearGradient>
					<path class="st20" d="M2069.8,2268.7l-126.2,407.9c-30.1,11-62.3,16.6-95.3,16.2l-41.3-12.8l154.6-499.8
						C2005.8,2200,2042.7,2230.9,2069.8,2268.7z"/>
				</g>
			</mask>
			
				<linearGradient id="SVGID_6_" gradientUnits="userSpaceOnUse" x1="2010.0964" y1="2233.5388" x2="2011.7238" y2="2633.865" gradientTransform="matrix(0.9949 -0.1013 0.1013 0.9949 -313.1302 216.2025)">
				<stop  offset="0" style="stop-color:#FFFFFF"/>
				<stop  offset="1" style="stop-color:#FFFFFF"/>
			</linearGradient>
			<path class="st21" d="M2069.8,2268.7l-126.2,407.9c-30.1,11-62.3,16.6-95.3,16.2l-41.3-12.8l154.6-499.8
				C2005.8,2200,2042.7,2230.9,2069.8,2268.7z"/>
			<g>
				<path class="st3" d="M1851.8,2708.2c-22.9,0-46.1-2.8-69.2-8.6c-151.5-38.2-243.7-192.5-205.5-344.1
					c38.2-151.5,192.5-243.7,344.1-205.5c151.5,38.2,243.7,192.5,205.5,344.1C2094.3,2622.4,1978.6,2708.2,1851.8,2708.2z
					 M1851.9,2172.1c-113,0-216.1,76.5-245,190.9c-34,135.1,48.1,272.6,183.2,306.7c135.1,34,272.6-48.1,306.7-183.2
					c34-135.1-48.1-272.6-183.2-306.7C1893,2174.6,1872.3,2172.1,1851.9,2172.1z"/>
			</g>
			<g>
				<path class="st7" d="M2603.7,2611.3c-9.8,39,133.4,93.8,191.8,107.1l331.8,75.6c20.4,4.7,40.9-7.9,46-28.2l0,0l5.2-20.7
					c5.1-20.3-6.9-41-27.1-46.6l-328-90.7C2765.7,2591.9,2613.6,2572.3,2603.7,2611.3z"/>
			</g>
			<g class="st11">
				<path class="st1" d="M2823.5,2607.9l42.1,11.6c-68.9-12.8-175.3-20.9-183.5,11.5c-8.2,32.4,89.4,75.8,156.2,97.1l-42.7-9.7
					c-58.4-13.3-201.7-68.1-191.8-107.1C2613.6,2572.3,2765.7,2591.9,2823.5,2607.9z"/>
			</g>
			<g>
				<path class="st3" d="M1010.4,2657.4l-15.7-8.5c-235.4-127.6-378.9-257.8-457.9-344.5c-93.2-102.4-143.3-197.1-130.7-247
					c12.6-50,101.8-109.7,232.8-155.8c110.9-39,299.5-85.6,568-86.1l18,0l-1.7,17.9c-12.8,131.4-36.9,267.6-71.4,404.8
					c-35.8,142-80.9,277.5-134.2,402.8L1010.4,2657.4z M1188.9,1848.2c-483.3,4.7-736.4,158.5-751.2,217.2
					c-14.8,58.5,134.8,313.3,556.8,546.3c49.6-119.1,91.8-247.3,125.6-381.4C1152.7,2100.8,1175.8,1972.4,1188.9,1848.2z"/>
			</g>
			<g class="st10">
				<path class="st3" d="M2937.7,2638.9l213.9,59.1c20.2,5.6,32.3,26.3,27.1,46.6l-5.2,20.7c-5.1,20.3-25.5,32.8-46,28.2
					l-216.5-49.4c67.6,10.4,154.9,14.1,162.3-15.1S3002.1,2661.8,2937.7,2638.9z"/>
			</g>
			<g>
				<path class="st3" d="M3135.7,2811.3c-4,0-8-0.4-12-1.4l-331.8-75.6c-47.3-10.8-171.7-54.5-198.7-98.7
					c-7.3-11.9-6.9-21.9-5.3-28.3c1.6-6.4,6-15.4,18.1-22.4c44.8-26.1,175-5.6,221.8,7.3l328,90.7c28.5,7.9,45.8,37.6,38.6,66.3
					l-5.2,20.7C3182.9,2794.5,3160.3,2811.3,3135.7,2811.3z M2619.6,2615.3c0.2,1.3,4.7,17.6,65.1,46.2
					c41.8,19.8,88.7,35.1,114.5,41l331.8,75.6c11.7,2.7,23.6-4.6,26.6-16.3l5.2-20.7c2.9-11.7-4.1-23.7-15.7-26.9l-328-90.7
					c-25.6-7.1-74.1-15.8-120.3-18.1C2632,2602,2620.4,2614.2,2619.6,2615.3z"/>
			</g>
		</g>
		<g>
			<path class="st6" d="M1956.9,2220.1"/>
		</g>
		<g>
			<path class="st1" d="M2069.8,1408.7c0,0-189.5,233.6-270.9,20.1l-167.3,101.7c0,0,41,240.2,240.8,245.8
				c120.1,3.4,164.1-103.3,164.1-103.3L2069.8,1408.7z"/>
		</g>
		<g class="st22">
			<path class="st3" d="M1872.4,1776.3c120.1,3.4,164.1-103.3,164.1-103.3l0,0c1.7-15-16.7-23.7-27.1-12.7
				c-25.8,27.3-67.7,55.2-130.1,53.4c-141.1-3.9-234.5-134.2-103.1-219.1l-144.6,35.9C1631.6,1530.5,1672.6,1770.7,1872.4,1776.3z"
				/>
		</g>
		<g>
			<path class="st3" d="M2074,1412.1c-11.4,29.8-32.8,51.9-56.2,71.8c-11.9,9.8-24.7,18.6-38.4,26.2c-13.7,7.6-28.2,14.3-43.9,19.1
				c-15.6,4.8-32.8,7.3-50.3,5.1c-17.5-2.1-34.5-9.5-48-20.1c-3.6-2.4-6.6-5.4-9.7-8.3c-3.1-2.9-6.2-5.8-8.7-9.1l-7.8-9.6l-6.6-10.1
				l-3.3-5.1l-2.8-5.3l-5.5-10.5c-3.3-7.1-6.2-14.3-9.3-21.5l23.7,8.1l-167.3,101.7l7.6-16.6c0.9,5,2.3,10.9,3.7,16.4
				c1.4,5.6,3,11.2,4.6,16.7c3.3,11.1,7.2,22.1,11.4,32.8c8.5,21.5,18.9,42.3,31.2,61.6c12.5,19.1,26.7,37.2,43.4,52.2
				c16.6,15.1,35.3,27.7,55.7,36.4c20.4,8.7,42.3,13.8,64.7,15.5c5.6,0.4,11.2,0.9,16.7,0.5l8.3-0.2c2.7-0.1,5.5,0,8.2-0.6
				c5.4-0.9,10.8-1.4,16.2-2.4l15.7-4.2c5-2,10.1-3.9,15.1-6c4.8-2.6,9.7-4.8,14.4-7.6c9.2-5.8,17.8-12.6,25.3-20.5
				c15.8-15.2,28.9-32.1,49.2-47.3l0.6-0.4c2.6-2,6.3-1.4,8.3,1.2c0.8,1,1.1,2.2,1.2,3.4c0.4,14.4-4.1,26.9-10.6,38.4
				c-6.6,11.3-15,21.6-25,30.2c-20.1,16.9-42.9,31.4-68.2,39.6c-6.4,1.8-12.8,3.4-19.2,5.1c-6.5,1.3-13,2-19.5,3
				c-3.3,0.6-6.5,0.6-9.8,0.7l-9.8,0.3c-6.6,0.4-13-0.2-19.4-0.6c-25.6-1.9-51.3-7.8-75.2-18c-23.9-10.2-45.7-25-64.8-42.3
				c-19.2-17.2-35-37.5-48.8-58.6c-13.6-21.3-24.9-43.9-34.1-67.2c-4.6-11.6-8.7-23.4-12.3-35.4c-1.8-6-3.5-12-5-18.1
				c-1.6-6.2-2.9-12-4.2-18.9l-2-10.8l9.6-5.8l167.3-101.7l15.9-9.7l7.8,17.8c2.8,6.3,5.3,12.8,8.2,19l4.7,9l2.3,4.5l2.7,4.2
				l5.4,8.3l6.1,7.5c1.9,2.7,4.3,4.7,6.5,6.8c2.2,2.2,4.4,4.5,7,6c9.6,7.5,20.5,12.2,32.3,13.7c11.7,1.5,24.3-0.1,36.7-4
				c25.1-7.8,47.9-24.4,70-41.3l16.6-13c5.5-4.5,11-9,16.6-13.4c11.3-8.8,23.1-17.4,36.3-24.9l0.3-0.2c2.7-1.6,6.2-0.6,7.8,2.2
				C2074.5,1408.8,2074.6,1410.6,2074,1412.1z"/>
		</g>
		<g>
			<g>
				<path class="st1" d="M1831.7,1416.9c-6.2,123.9-127.8,135.5-162.3,133.7c-71.8-3.8-107.6-64-107.6-64l41.6-83.6l17.1-44.3
					l27.7-14.4c15.2-46.5,55.4-103.5,86.8-92C1735.1,1252.2,1837,1310,1831.7,1416.9z"/>
			</g>
			<g class="st22">
				<path class="st3" d="M1544.4,1450.2c7,36.9,61.7,61.3,163.5,29.5c35.9-11.2,61.2-42.6,54.2-79.5s-42.6-61.2-79.5-54.2
					C1645.7,1352.9,1537.4,1413.3,1544.4,1450.2z"/>
			</g>
			<g>
				<path class="st1" d="M1525.5,1330c32.5,22.3,60.3,38,60.3,38l91.6,64l27.9-136.2c0,0-4.5-25.6-12.9-59
					c-16.5-66.2-48-163-88.8-152.6c-73.5,18.7,12.7,205.1,12.7,205.1s-148.6-135.8-187.6-81.9
					C1405.8,1239,1472.1,1293.3,1525.5,1330z"/>
			</g>
			<g class="st22">
				<path class="st3" d="M1525.5,1330c32.5,22.3,60.3,38,60.3,38l91.6,64l27.9-136.2c0,0-4.5-25.6-12.9-59
					c-17,19.5-48.7,55.1-58.5,74.6C1617,1344.9,1554.4,1318.5,1525.5,1330z"/>
			</g>
			<g>
				<path class="st3" d="M1677.3,1448.3c-3.3,0-6.6-1-9.3-2.9l-90.9-63.6c-18.8-10.7-155.3-90.1-168.2-149.7
					c-2.7-12.6-0.5-24.4,6.6-34.2c8-11,19.7-17.6,34-19.1c37-3.8,89.9,29.1,128.6,58c-15.3-45.3-29.4-105.2-12.8-140.1
					c7-14.6,18.8-24.4,34.3-28.4c11.5-2.9,23.3-0.8,34.2,6.3c53.7,34.7,84.3,199.6,87.6,218.3c0.4,2,0.3,4.1-0.1,6.1l-27.9,136.3
					c-1.1,5.4-4.8,9.8-9.9,11.9C1681.4,1447.9,1679.4,1448.3,1677.3,1448.3z M1456.1,1211c-1.1,0-2.3,0.1-3.3,0.2
					c-6.5,0.7-9.3,3.4-11,5.8c-1.1,1.5-2.1,3.7-1.1,8.1c7.6,34.8,98,97.4,153.2,128.7c0.4,0.3,0.9,0.5,1.3,0.8l71.3,49.8l22.3-108.9
					c-11.9-65.6-41.6-173.5-72.7-193.6c-4.1-2.7-6.7-2.5-8.5-2c-6.1,1.6-10.1,4.9-13,10.8c-15.9,33.3,13.9,123,36.4,171.8
					c3.2,7,1.1,15.4-5.2,20c-6.3,4.6-14.9,4.1-20.6-1.1C1566.2,1265.7,1492.6,1211,1456.1,1211z"/>
			</g>
			<g>
				<path class="st1" d="M1545.2,1475.5c23.8,26.2,103.7,25.4,128.2-2.3c20.8-23.6-8.1-43.1-16.2-47.9c-1.3-0.8-2-1.2-2-1.2
					s28-14.7,28.5-40.7c0-1.7-0.1-3.4-0.3-5.2c-3.6-29.2-85.4-39.6-119.3-27.3c-25.4,9.2-33.3,21.7-33.6,33.6
					c-0.3,12.6,8,24.5,13.3,30.7c2.4,2.8,4.2,4.5,4.2,4.5S1526.1,1454.5,1545.2,1475.5z"/>
			</g>
			<g class="st22">
				<path class="st3" d="M1543.6,1415.1c22.7,6.7,67.5,16.9,113.6,10.2c-1.3-0.8-2-1.2-2-1.2s28-14.7,28.5-40.7
					c-26.3,11.2-99.8,36.9-153.3,1C1530,1397.1,1538.3,1408.9,1543.6,1415.1z"/>
			</g>
			<g class="st22">
				<path class="st3" d="M1545.2,1475.5c23.8,26.2,103.7,25.4,128.2-2.3c10.2-11.6,8.5-22.2,3-30.5c-1,1.7-2.3,3.4-3.9,5.2
					c-24.5,27.7-104.4,28.4-128.2,2.3c-2.5-2.7-4.3-5.7-5.5-8.7C1536.3,1452.5,1536.1,1465.5,1545.2,1475.5z"/>
			</g>
			<g>
				<path class="st3" d="M1606.8,1510c-32,0-59.2-9-73-24.1c-17.5-19.2-12.6-45.9-4.6-64c-7.6-9.9-17.3-26.7-13.5-45.2
					c3.7-17.8,18.1-31.3,43-40.3l0,0c28.6-10.3,88.2-7.5,119.1,11.5c15.4,9.5,19.8,20.7,20.7,28.4c2.6,21.2-7.7,37.2-18,47.5
					c6.6,6.5,13,15.1,14.9,25.6c1.5,8.3,0.9,20.9-10.7,34c-14.5,16.4-43.3,26.3-76.9,26.5C1607.6,1509.9,1607.2,1510,1606.8,1510z
					 M1569.2,1365.4c-13.6,4.9-21.9,11.1-23.2,17.5c-1.8,8.7,7.6,21,12.4,25.6c5.3,5,6.4,13.1,2.5,19.3c-0.1,0.2-14.9,25.8-4.3,37.4
					c7.8,8.5,28.1,14.3,51.2,14c24-0.2,45.7-6.7,54.1-16.1c4.1-4.6,3.6-7,3.4-7.9c-1.1-6.2-11-14-17.3-17.3
					c-5.1-2.7-8.3-7.9-8.2-13.7c0-5.7,3.1-11,8.2-13.6c0.1-0.1,22.3-12.3,20-30.4c-0.1-0.6-1.4-3-6.3-6
					C1639.9,1360.7,1590.3,1357.8,1569.2,1365.4L1569.2,1365.4z"/>
			</g>
			<g>
				<path class="st3" d="M1611,1439.7c-37.3,0-65.1-9.8-66.7-10.4c-5.3-1.9-8.1-7.8-6.2-13.1c1.9-5.3,7.8-8.1,13.1-6.2
					c0.9,0.3,49.5,17.2,101.4,4.2c5.5-1.4,11.1,2,12.5,7.5c1.4,5.5-2,11.1-7.5,12.5C1641.3,1438.2,1625.4,1439.7,1611,1439.7z"/>
			</g>
			<g>
				<path class="st1" d="M1735.1,1252.2c-41.7-15.3-98.9,90.1-92.5,131.4c4.9,31.5,46.9,50.6,83.7,2.3
					C1763.5,1337,1800.6,1276.2,1735.1,1252.2z"/>
			</g>
			<g>
				<path class="st1" d="M1561.8,1486.5c0,0,35.8,60.2,107.6,64c34.4,1.8,156.1-9.7,162.3-133.7c5.3-106.8-96.6-164.6-96.6-164.6
					c-41.7-15.3-98.9,90.1-92.5,131.4c4.9,31.5,54.8,40.5,83.3-22c0,0-11.1,53.9,39.2,79.8l-92.1,79l-81-0.5L1561.8,1486.5z"/>
			</g>
			<g>
				<path class="st1" d="M1740.2,1421.3l1.8-1.6c-1.8-0.9-3.4-1.8-5-2.8C1738,1418.4,1739,1419.9,1740.2,1421.3z"/>
			</g>
			<g class="st22">
				<path class="st3" d="M1722.5,1352.7c1.7-21.3-46.7,41.2-79.4,33.7c6.2,25.1,42.5,33.6,70.2-3.2
					C1712.2,1366.5,1722.5,1352.7,1722.5,1352.7z"/>
			</g>
			<g class="st22">
				<path class="st3" d="M1605.7,1520l-13.7-0.1c17.8,14.6,43.6,28.8,77.4,30.6c34.5,1.8,156.1-9.8,162.3-133.7
					c3.6-72.7-42.4-122.7-72.2-147.2c25.8,27.8,51.9,70.1,49.2,125.5c-6.2,123.9-127.8,135.5-162.3,133.7
					C1631.2,1528,1617.6,1524.8,1605.7,1520z"/>
			</g>
			<g>
				<path class="st1" d="M1561.8,1486.6c0.4,0.6,3.2,5.2,8.5,11.7l2.1,0L1561.8,1486.6z"/>
			</g>
			<g>
				<path class="st1" d="M1568.9,1498.3c1.3,1.1,2.7,2.2,4.1,3.2c-0.9-1.1-1.8-2.2-2.7-3.2L1568.9,1498.3z"/>
			</g>
			<g>
				<path class="st3" d="M1794.3,1503.3c12.5-21.7,19-43.6,20.9-66.3c0.5-5.6,0.8-11.3,0.8-17c0.2-5.7-0.6-11.2-0.8-16.8
					c-0.7-11.1-2.9-22-6.2-32.5c-0.4-1.3-0.7-2.7-1.1-4l-1.5-3.9l-3-7.7c-2.1-5.1-5-9.9-7.3-15c-3-4.8-5.7-9.7-8.9-14.3
					c-3.4-4.5-6.4-9.3-10.2-13.6c-7-8.9-15.2-17.1-23.6-24.9c-4.3-3.9-8.7-7.5-13.2-11.1c-2.3-1.7-4.6-3.5-6.9-5.1
					c-2.2-1.6-4.8-3.3-6.6-4.4l2.5,1.2c-1.8-0.7-3.8-0.8-7.1,0.2c-3.2,1-7.2,3.1-11,6c-7.7,5.9-15.1,14.3-21.4,23.4
					c-12.7,18.2-22.7,39.8-27.8,60.7c-1.2,5.2-2.1,10.4-2.3,15c-0.1,2.3-0.1,4.5,0.1,6.2l0.1,1.3l0.3,0.9c0.3,0.6,0.2,1.3,0.5,1.8
					c0.8,2.3,2.4,3.7,4.3,4.9c2,1.1,4.5,2.1,7.7,1.9c0.7,0.2,1.6-0.1,2.4-0.2c0.8-0.2,1.7-0.1,2.5-0.4c1.7-0.7,3.5-1,5.4-2.1
					l2.8-1.3l2.7-1.9c1.9-1.1,3.6-2.7,5.4-4.3c7-6.4,13.2-15.1,18.6-24.6l1.8-3.1c3.9-6.9,12.7-9.2,19.6-5.3
					c6.2,3.5,8.7,11,6.3,17.4c-0.3,0.7-0.7,2.7-0.9,4.1c-0.3,1.6-0.5,3.3-0.7,4.9c-0.4,3.3-0.5,6.7-0.5,10.1
					c0.1,6.8,1.2,13.5,3.2,20.1c1.9,6.6,5.1,12.9,9.4,18.7c2,3.1,4.6,5.7,7.1,8.5c2.6,2.8,5.6,5.1,8.5,7.9l0.3,0.3
					c1.1,1.1,1.1,2.8,0,3.9c-0.8,0.8-1.8,1-2.8,0.7c-7.9-2.6-16-5.9-22.9-11.4c-3.7-2.5-6.8-5.7-10-8.9c-2.8-3.5-5.8-7-8.1-11
					c-4.8-7.8-8.1-16.6-10-25.5c-0.9-4.5-1.5-9-1.8-13.7c-0.1-2.3-0.2-4.6-0.1-7c0.1-2.5,0.1-4.5,0.6-7.7l27.6,9
					c-5.1,12.5-11.7,25-22,35.9c-2.6,2.7-5.2,5.4-8.4,7.7l-4.6,3.6c-1.7,1.1-3.5,2.1-5.2,3.1c-7,4.1-15.5,6.7-24.5,7.3
					c-9,0.8-18.9-1.4-27.4-6.4c-8.4-5-15.8-13-19.1-22.3c-1.1-2.3-1.4-4.6-2.1-7c-0.3-1.2-0.6-2.4-0.8-3.5l-0.3-3.2
					c-0.4-4.3-0.3-8.3,0-12c0.7-7.5,2.1-14.4,3.9-21c7.5-26.2,19.3-49.3,34.5-71.1c7.7-10.8,16.3-21.3,27.9-30.5
					c5.9-4.5,12.5-8.8,20.9-11.7c8.2-2.9,19.1-3.7,28.9-0.1l0,0c0.8,0.3,1.7,0.7,2.5,1.2c3.5,2,6.1,3.7,9,5.6
					c2.9,1.8,5.5,3.8,8.3,5.7c5.4,3.9,10.6,8,15.7,12.4c10,8.7,19.7,17.9,28.2,28.4c4.5,5,8.3,10.6,12.3,16.1
					c3.8,5.6,7.2,11.5,10.7,17.3c2.9,6.2,6.2,12.2,8.6,18.6l3.5,9.7l1.7,4.9c0.5,1.6,0.8,3.3,1.3,5c6.7,26.7,7.4,55,0.4,81
					c-3.5,13.1-9,25.8-16.5,37c-7.5,11.2-17.1,20.9-28.2,27.8c-1.3,0.8-3,0.4-3.9-0.9C1793.8,1505.3,1793.8,1504.2,1794.3,1503.3z"
					/>
			</g>
			<g>
				<path class="st3" d="M1575.8,1478.2c1.2,1,2.9,3.1,4.5,4.7l4.8,5.3c1.6,1.8,3.3,3.5,4.8,5.3c1.7,1.7,3.3,3.4,4.9,5.3
					c6.7,6.9,13.4,13.8,21,20c3.7,3.2,7.7,6,11.8,9c4.3,2.4,8.3,5.6,12.9,7.7c8.9,5.2,18.7,8.7,29,12.8l0.2,0.1
					c1.2,0.5,1.8,1.9,1.4,3.1c-0.3,0.8-1,1.3-1.8,1.5c-11.1,2.1-23,2.9-34.6,1.1c-5.9-0.6-11.6-2.2-17.4-3.7
					c-5.6-2-11.4-3.7-16.8-6.5c-10.9-5.1-21.4-11.4-30.2-19.6c-4.4-4.1-8.7-8.4-12.4-13.2c-1.9-2.4-3.6-4.9-5.3-7.4
					c-1.7-2.7-3.1-5.1-4.7-8.7c-3.8-8.1-0.3-17.7,7.8-21.4c5.9-2.7,12.5-1.7,17.2,2.2L1575.8,1478.2z"/>
			</g>
		</g>
		<g>
			<path class="st3" d="M1822.1,1778.4c-1.9,0-3.8-0.1-5.7-0.2c-5.7-0.3-10-5.1-9.7-10.8c0.3-5.7,5.2-9.9,10.8-9.7
				c20.7,1.1,36.1-5,47.2-18.8c46.1-57.2,2.7-218.5,2.3-220.1c-1.5-5.5,1.7-11.1,7.2-12.6c5.5-1.5,11.1,1.7,12.6,7.2
				c1.9,7,46.6,173.1-6.1,238.5C1866.4,1769.4,1846.7,1778.4,1822.1,1778.4z"/>
		</g>
		<g>
			<path class="st23" d="M2162.6,1701.9l0.4,1.5l-0.3-1.7C2162.7,1701.8,2162.6,1701.8,2162.6,1701.9z"/>
		</g>
		<g>
			<path class="st3" d="M2799.1,1537.1c-18.8,2-37.7,4.3-56.5,6.8c-18.8,2.5-37.6,5.2-56.3,8.4l0,0c-4.4,0.8-8.7-2.2-9.4-6.7
				c-0.7-4.1,1.7-7.9,5.5-9.1c18.3-5.9,36.8-11.3,55.3-16.5c18.5-5.2,37-10.2,55.7-14.9c8.7-2.2,17.6,3.1,19.8,11.8
				c2.2,8.7-3.1,17.6-11.8,19.8c-0.7,0.2-1.5,0.3-2.2,0.4L2799.1,1537.1z"/>
		</g>
		<g>
			<path class="st24" d="M1732.5,1266.3c-1.5,1.7-2.9,3.5-4.1,5.5L1732.5,1266.3z"/>
		</g>
		<g>
			<path class="st25" d="M2371.6,1581.2"/>
		</g>
		<g>
			<path class="st1" d="M2674.8,1803.9l-3.9,111.4c-13.3,115.4-54.6,201.9-101.7,247.9c-67.8,66.1-187,73.5-227.6,114.8
				c-35.5,36.3-35.7,91.1-43.6,147.2c-6.7,47.9-26.7,108.5-76.8,154.7c-75.9,70-192.2,56.7-244.5-6.9
				c-59.7-72.6,56.7-204.7,73-220.6c0,0-14.9-27.4-28.8-52.3c-35.4-63-8.1-196.7,71.9-250.6c21.9-14.8,46.8-24.4,71.8-30.6
				c72.3-17.7,149.1-6.8,215.2,27.8l15.5-90.6l16.9-99.1l0,0l95-556C2622.5,1488.6,2668.9,1661.2,2674.8,1803.9z"/>
		</g>
		<g class="st2">
			<path class="st3" d="M2674.8,1803.9l0,0.2l-3.8,111.2c-13.3,115.4-54.6,202-101.7,247.9c-67.8,66.1-187,73.5-227.6,114.8
				c-35.5,36.3-35.7,91.1-43.6,147.2c-6.7,47.9-26.7,108.5-76.8,154.7c-75.9,70-192.2,56.7-244.5-6.9
				c-19.5-23.8-20.2-53.8-11.7-84.1c34.3,115.7,167.8,100.8,236.6,37.4c50.2-46.3,46.9-151.8,53.7-199.8c7.9-56,8-110.8,43.6-147.2
				c40.5-41.3,159.7-48.8,227.5-114.8c28.3-27.5,54.4-69.7,73.7-123.9c-47,11.9-114.5,21.1-204.7,15.5c-8.1-0.5-16.4-1.1-24.8-1.8
				c0,0-53.6-59.4,11.4-101.5c0,0,11.5,2.2,30.4,4.2l0,0c46.7,5,138.5,9,213.7-23.9C2643.4,1825.6,2660,1815.9,2674.8,1803.9z"/>
		</g>
		<g class="st2">
			<path class="st3" d="M2670.9,1915.3l3.8-111.2C2676.4,1843.5,2675,1880.7,2670.9,1915.3z"/>
		</g>
		<g class="st2">
			<path class="st3" d="M2674.8,1803.9c-14.9,12-31.4,21.7-48.8,29.3c16.1-113.7,4.9-257.6-56.6-419.5
				C2639.7,1557.7,2670.1,1690.3,2674.8,1803.9z"/>
		</g>
		<g>
			<path class="st3" d="M2377.5,2051.2c-49.9-17.4-100.7-27.1-151.3-24.7c-25.2,1.2-50.2,5.8-74.1,13.1
				c-11.9,3.8-23.4,8.4-34.2,14.1c-5.4,2.8-10.7,5.8-15.8,9.2c-4.7,3.7-9.6,7-14.2,10.9c-18.2,15.8-32.7,36.4-43.5,58.8
				c-10.9,22.4-18,46.9-21.3,71.7l-0.7,4.6l-0.3,4.7l-0.7,9.3c-0.3,6.2,0,12.3,0,18.5c1.1,12.1,2.4,24.4,6.3,35.3
				c1.4,5.8,4.3,10.5,6.5,15.7l9.6,17.6l19.4,35.2l5.5,10l-8.3,8.4c-6.4,6.5-13.4,14.7-19.8,22.5c-6.4,8-12.6,16.1-18.5,24.5
				c-11.7,16.7-22.4,34.1-30.9,52.2c-8.3,18-14.8,36.9-15.9,55.1c-0.6,9.1,0.3,17.9,2.7,25.9c2.6,8.1,6.5,15.1,12.5,21.8
				c24.6,28.2,63.2,43.9,101.7,45.7c38.8,2.1,77.9-10.5,108.3-34.2c3.7-3.1,7.5-6.1,11.1-9.3c3.5-3.5,7.2-6.8,10.4-10.5
				c6.9-7.1,12.8-15,18.6-23c11.2-16.3,20.5-34,27.3-52.8c7-18.7,11.7-38.4,14.6-58.3c2.9-20.5,4.8-41.6,8.1-63.2
				c3.5-21.6,8.4-44.2,19.8-65.4c5.8-10.6,12.9-20.4,21.9-29l7.2-6.3c2.4-2,5-3.5,7.5-5.2c5-3.6,10.1-6,15.2-8.8
				c20.5-10.3,40.9-17,60.9-24.1c20-6.9,39.7-13.8,58.5-21.8c18.8-8,36.9-17.1,53.2-28.3c3.9-2.9,8-5.7,11.8-8.8l10.9-9.6
				c3.4-3.5,6.8-7.1,10.2-10.6l9.5-11.4c12.2-15.8,22.6-33.2,31.6-51.4c9-18.2,16.8-37.2,23-56.7c25.3-78.2,31.8-162.4,25.4-245.1
				c-6.4-82.8-25.5-164.7-53.9-243.2c-7.5-19.5-14.9-39-23.7-58c-8.3-19.2-17.6-37.8-26.2-56.9c-17.7-37.9-36.5-75.1-51-115.7l0-0.1
				c-1-2.7,0.4-5.7,3.2-6.7c2-0.7,4.2-0.1,5.6,1.4c7.4,8,14.2,16.2,20.8,24.8c6.7,8.4,12.8,17.3,18.6,26.3
				c12.1,17.8,22.2,36.7,32.2,55.6c9.5,19.2,18.7,38.6,26.5,58.6c8.3,19.8,15.7,39.9,23,60.1c29.2,80.7,49,165.2,55.6,251.3
				c6.6,85.9,0,173.8-26.8,257c-6.6,20.8-14.9,41.1-24.7,60.9c-9.8,19.7-21.1,38.8-34.9,56.6l-10.8,13c-3.9,4.1-7.8,8.3-11.8,12.3
				l-12.9,11.4c-4.5,3.5-9.1,6.8-13.7,10.2c-18.6,12.8-38.6,22.8-58.7,31.4c-20.1,8.5-40.5,15.6-60.4,22.6
				c-19.9,7-39.7,13.7-57.1,22.5c-4.2,2.3-8.7,4.4-12.2,7c-1.8,1.3-3.9,2.4-5.6,3.8l-4.7,4.1c-6.3,6-11.8,13.5-16.1,21.4
				c-8.8,16.2-13.3,35.5-16.5,55.6c-3.1,20.2-5.1,41.3-8.1,62.7c-3.2,22-8.4,43.7-16.3,64.7c-7.7,21-18.2,41.1-31,59.7
				c-6.6,9.1-13.5,18.1-21.3,26.3c-3.7,4.3-7.9,8.1-11.9,12c-4.2,3.8-8.8,7.4-13.2,11.1c-36.3,28.4-82.8,43.2-128.7,40.8
				c-22.9-1.1-45.7-6.2-67-15.5c-21.2-9.3-40.9-22.9-56.5-40.8c-8.2-9-15-20.7-18.7-32.9c-3.8-12.2-4.8-24.8-4.1-36.9
				c1.5-24.2,9.4-46,18.7-66.3c9.5-20.3,21.1-39.1,33.6-57c6.3-8.9,12.9-17.6,19.8-26.1c7-8.6,13.7-16.6,22.2-25.1l-2.8,18.3
				l-19.2-34.9l-9.6-17.5c-3.2-7-7-13.9-8.9-21.1c-5-14.3-6.6-28.8-7.8-43.2c0-7.2-0.4-14.4,0-21.5l0.7-10.6l0.4-5.3l0.8-5.3
				c3.7-28.1,11.8-55.4,23.8-81.1c12.1-25.6,28.6-49.7,50.3-69.5c22-20.1,48.5-32.9,75.4-41.5c13.5-4.3,27.2-7.6,41.2-9.7
				c6.9-1.3,14-1.8,20.9-2.6c7-0.4,14-1,21.1-0.9c56.1-0.8,112.4,15.2,157,47.3c2.3,1.7,2.9,4.9,1.2,7.2
				C2382.1,2051.3,2379.6,2052,2377.5,2051.2L2377.5,2051.2z"/>
		</g>
		<g>
			<path class="st3" d="M2316.9,2328.6c-1.1,0-2.2-0.2-3.3-0.5c-5.4-1.8-8.3-7.6-6.5-13c41.3-123.6-21.7-197.2-50.7-223.1
				c-46.3-41.4-109.9-57.5-151.2-38.3c-5.1,2.4-11.3,0.2-13.6-5c-2.4-5.1-0.2-11.2,5-13.6c49.2-22.8,120.5-5.7,173.5,41.6
				c32,28.6,101.7,109.7,56.5,244.9C2325.2,2325.9,2321.1,2328.6,2316.9,2328.6z"/>
		</g>
		<g>
			<path class="st3" d="M2053.5,2325.8c1.1,1.9,3,4.5,4.7,6.7c1.8,2.3,3.6,4.6,5.6,6.9c3.8,4.5,8,8.9,12.3,12.9
				c8.7,8.2,18.4,15.4,29,21.2c10.6,5.9,22.3,9.5,34.5,11.3l9.3,0.9l9.4-0.4c1.6-0.1,3.2-0.1,4.8-0.3l4.7-0.9l9.5-1.8l-8.9,3.7
				l-4.5,1.9c-1.5,0.5-3.1,0.8-4.7,1.3l-9.6,2.4l-9.9,1.1c-13.3,0.9-27.2-0.3-40.4-4.3c-13.2-3.9-25.8-9.6-37.7-16.7
				c-5.9-3.6-11.7-7.4-17.2-11.7c-2.8-2.1-5.5-4.3-8.2-6.6c-2.7-2.4-5.2-4.5-8.1-7.6l-0.5-0.5c-6.3-6.6-6.1-17,0.5-23.2
				c6.6-6.3,17-6.1,23.2,0.5C2052.1,2323.6,2052.9,2324.7,2053.5,2325.8z"/>
		</g>
		<g>
			<g>
				<circle class="st1" cx="1972.7" cy="1837.8" r="54.3"/>
			</g>
			<g class="st22">
				<path class="st3" d="M1918.4,1840.4c1.4,30,26.9,53.1,56.8,51.7s53.1-26.9,51.7-56.9c-0.4-8.3-2.6-16.1-6.3-22.9
					c-7.8,18.7-25.9,32.4-47.6,33.4c-21.6,1-41-10.8-50.5-28.7C1919.5,1824.1,1918.1,1832.1,1918.4,1840.4z"/>
			</g>
			<g>
				<path class="st3" d="M1972.7,1907.5c-36.9,0-67.8-29.1-69.6-66.4v0c-0.9-18.6,5.5-36.4,18-50.2c12.5-13.8,29.7-21.9,48.3-22.8
					c38.4-1.8,71.1,27.9,73,66.3c1.8,38.4-27.9,71.1-66.3,73C1974.9,1907.5,1973.8,1907.5,1972.7,1907.5z M1972.7,1798.9
					c-0.6,0-1.3,0-1.9,0c-10.4,0.5-20,5-26.9,12.7c-7,7.7-10.6,17.6-10.1,28c0,0,0,0,0,0c1,21.4,19.3,38,40.7,37
					c21.4-1,38-19.3,37-40.7C2010.6,1815.1,1993.3,1798.9,1972.7,1798.9z"/>
			</g>
			<g>
				<path class="st1" d="M2035.7,1969.7l287.2,3.3c34,0.4,62.1-27.1,62.5-61.1l1.8-152.8c0.3-29.8-20.7-55.1-48.8-61.1
					c-4-0.9-8.1-1.3-12.3-1.4l-287.1-3.3c-34-0.4-62.2,27.1-62.5,61.1l-1.4,121l-0.4,31.8
					C1974.2,1941.2,2001.7,1969.3,2035.7,1969.7z"/>
			</g>
			<g class="st2">
				<path class="st3" d="M2035.7,1969.7l287.2,3.3c34,0.4,62.1-27.1,62.5-61.1l1.8-152.8c0.3-29.8-20.7-55.1-48.8-61.1
					c-16.4,10.6-26.9,17.4-26.9,17.4c-15.4,122.5-11.1,213.5-201.2,198.7c-65.6-5.1-109.3-24.9-135.3-38.7l-0.4,31.8
					C1974.2,1941.2,2001.7,1969.3,2035.7,1969.7z"/>
			</g>
			<g>
				<path class="st3" d="M2323.6,1988.4c-0.3,0-0.6,0-0.9,0l-287.1-3.3c-20.6-0.2-39.8-8.5-54.3-23.3c-14.5-14.8-22.3-34.3-22-54.8
					l1.8-152.8c0.5-42.6,35.4-77,78.1-76.3l287.1,3.3c42.6,0.5,76.8,35.5,76.3,78.1l-1.8,152.8c-0.2,20.6-8.5,39.8-23.3,54.3
					C2362.9,1980.6,2343.8,1988.4,2323.6,1988.4z M2038.2,1708.6c-25.4,0-46.1,20.5-46.4,45.9l-1.8,152.8
					c-0.1,12.3,4.6,24,13.3,32.9c8.7,8.9,20.3,13.9,32.6,14l287.1,3.3l0,0c12.6,0.2,24-4.6,32.9-13.3s13.9-20.3,14-32.6l1.8-152.8
					c0.1-12.3-4.6-24-13.3-32.9s-20.3-13.9-32.6-14l-287.1-3.3C2038.6,1708.6,2038.4,1708.6,2038.2,1708.6z"/>
			</g>
			<g>
				<path class="st1" d="M2024.2,1968.4c3.7,0.8,7.5,1.2,11.5,1.3l287.2,3.3c24.9,0.3,46.7-14.4,56.7-35.7
					c3.6-7.7,5.7-16.4,5.8-25.4l0.8-67.9l0.3-22.4l0.7-62.5c0.4-34-27.1-62.1-61.1-62.5l-62-0.7c28.5,5.7,50,31.2,49.7,61.3
					l-0.9,82.5l-0.8,70.3c-0.4,34-28.6,61.5-62.5,61.1L2024.2,1968.4z"/>
			</g>
			<g class="st2">
				<path class="st3" d="M2024.2,1968.4c3.7,0.8,7.5,1.2,11.5,1.3l287.2,3.3c34,0.4,62.1-27.1,62.5-61.1l1.1-90.3
					c-7.4,15.9-20.6,35.3-41.4,37.1c-11.4,1-22.5-7.3-32.3-19.1l-0.8,70.3c-0.4,34-28.6,61.5-62.5,61.1L2024.2,1968.4z"/>
			</g>
			<g>
				<path class="st3" d="M2323.6,1988.4c-0.3,0-0.6,0-0.9,0l-287.1-3.3c-4.8,0-9.8-0.6-14.5-1.6c-7.7-1.6-13-8.9-12.1-16.8
					c0.9-7.8,7.5-13.7,15.3-13.7c0.1,0,0.1,0,0.2,0l225.2,2.6c12.2,0.1,24-4.6,32.9-13.3c8.9-8.7,13.9-20.3,14-32.6l1.8-152.8
					c0.3-22.3-15.4-41.6-37.3-46c-7.8-1.6-13.1-8.8-12.3-16.7c0.8-7.8,7.4-13.8,15.3-13.8c0.1,0,0.1,0,0.2,0l62,0.7
					c42.6,0.5,76.9,35.6,76.3,78.2l-1.8,152.8c-0.2,20.6-8.5,39.8-23.3,54.3C2362.9,1980.6,2343.8,1988.4,2323.6,1988.4z
					 M2310.3,1957.5l12.7,0.1c0.2,0,0.4,0,0.6,0c12.1,0,23.6-4.7,32.4-13.3c8.9-8.7,13.9-20.3,14-32.6c0,0,0,0,0,0l1.8-152.8
					c0.3-25.6-20.3-46.7-45.9-47l-11-0.1c9.2,12.9,14.4,28.7,14.2,45.5l-1.8,152.8C2327.1,1927.5,2321.2,1944,2310.3,1957.5z"/>
			</g>
			<g>
				<path class="st12" d="M2199.6,1833.5c0,5.7,7.6,51.3,7.6,51.3s14.5,0.1,32.2,0.2c22.2,0.1,40.3-22.7,40.4-51
					c0.2-28.3-17.7-51.4-39.8-51.5c-15-0.1-32.2-0.2-32.2-0.2S2199.6,1824.3,2199.6,1833.5z"/>
			</g>
			<g class="st22">
				<path class="st3" d="M2199.6,1833.5c0,5.7,7.6,51.3,7.6,51.3s14.5,0.1,32.2,0.2c22.2,0.1,40.3-22.7,40.4-51
					c0.2-28.3-17.7-51.4-39.8-51.5c-15-0.1-32.2-0.2-32.2-0.2S2199.6,1824.3,2199.6,1833.5z"/>
			</g>
			<g>
				<path class="st3" d="M2239.6,1895.3c-0.1,0-0.2,0-0.2,0l-32.2-0.2c-5,0-9.2-3.6-10.1-8.6c-2.4-14-7.8-47.2-7.8-53.1c0,0,0,0,0,0
					c0.1-9.7,7-46,8.4-53.1c0.9-4.8,5.2-8.2,10.1-8.3l32.2,0.2c27.8,0.2,50.2,27.9,50,61.8
					C2289.9,1867.8,2267.3,1895.3,2239.6,1895.3z M2215.9,1874.6l23.5,0.1c0,0,0.1,0,0.1,0c16.4,0,29.9-18.3,30-40.8
					c0.1-22.6-13.2-41.1-29.6-41.2l-23.7-0.1c-2.9,15.7-6.4,35.8-6.5,40.9C2209.9,1836.8,2212.8,1855.6,2215.9,1874.6z"/>
			</g>
			<g>
				
					<ellipse transform="matrix(5.864644e-03 -1 1 5.864644e-03 361.0797 4030.2422)" class="st12" cx="2207.5" cy="1833.5" rx="51.3" ry="40.1"/>
			</g>
			<g class="st22">
				<path class="st3" d="M2247.7,1833.8c-0.2,28.3-18.3,51.2-40.4,51c-22.2-0.1-40-23.2-39.8-51.5c0-3.8,0.4-7.6,1-11.2
					c5.6,19.5,20.2,33.4,37.4,33.5c19.1,0.1,35.3-16.9,39.4-39.8C2246.8,1821.4,2247.7,1827.4,2247.7,1833.8z"/>
			</g>
			<g>
				<path class="st1" d="M2247.7,1833.8c0,1.9-0.1,3.8-0.3,5.7c-4.3-22.2-19.9-38.7-38.7-38.8c-20.7-0.1-37.8,19.7-40.1,45.4
					c-0.8-4.1-1.2-8.4-1.2-12.8c0.2-28.3,18.3-51.2,40.4-51C2230,1782.4,2247.8,1805.4,2247.7,1833.8z"/>
			</g>
			<g>
				<path class="st3" d="M2207.4,1895.1c-0.1,0-0.2,0-0.3,0c-13.9-0.1-26.9-6.9-36.4-19.2c-8.9-11.5-13.8-26.7-13.7-42.7l0,0
					c0.2-33.8,22.8-61.2,50.5-61.2c0.1,0,0.2,0,0.2,0c13.9,0.1,26.9,6.9,36.4,19.2c8.9,11.5,13.8,26.7,13.7,42.7
					c-0.1,16-5.1,31.1-14.2,42.5C2234.2,1888.4,2221.3,1895.1,2207.4,1895.1z M2167.4,1833.3l10.3,0.1c-0.1,11.4,3.3,22.1,9.4,30
					c5.6,7.2,12.7,11.2,20.2,11.2c7.4-0.1,14.7-3.8,20.4-11c6.2-7.8,9.7-18.5,9.7-29.9c0.1-11.4-3.3-22.1-9.4-30
					c-5.6-7.2-12.7-11.2-20.2-11.2c0,0-0.1,0-0.1,0c-16.4,0-29.9,18.3-30,40.8L2167.4,1833.3z"/>
			</g>
			<g>
				<path class="st3" d="M2119.8,1979.9c-5.6,0-10.2-4.5-10.3-10.1l-1.2-95.8c0-2.9-1.5-5.6-4-7.2l-31.5-20.3
					c-8.5-5.5-13.5-14.7-13.4-24.8l1-127.9c0-5.6,4.6-10.2,10.3-10.2c0,0,0.1,0,0.1,0c5.7,0,10.2,4.7,10.2,10.4l-1,127.9
					c0,3,1.5,5.8,4,7.4l31.5,20.3c8.3,5.3,13.3,14.4,13.4,24.2l1.2,95.8c0.1,5.7-4.5,10.3-10.1,10.4
					C2119.9,1979.9,2119.9,1979.9,2119.8,1979.9z"/>
			</g>
			<g>
				<path class="st1" d="M2679.9,1729.8c0,0,29.8,19.4,29.5,53.4c-0.4,39.3-28.6,57.8-28.6,57.8s-95.9,65.9-313.8,46.5
					c0,0-53.6-59.4,11.4-101.5C2378.4,1786,2576.9,1824.1,2679.9,1729.8z"/>
			</g>
			<g class="st2">
				<path class="st3" d="M2709.4,1782.4C2709.4,1782.4,2709.4,1782.4,2709.4,1782.4c0,39.9-28.6,58.6-28.6,58.6
					s-95.9,65.9-313.7,46.5c0,0-40.9-45.4-7.9-85c0,0.2,0.1,0.5,0.1,0.7c3.4,24.6,24.3,43.3,49.2,44.7
					c197.4,11.4,284.8-48.6,284.8-48.6S2701.7,1793.8,2709.4,1782.4z"/>
			</g>
			<g>
				<path class="st3" d="M2445.3,1903.9c-21.3,0-44.1-0.8-68.5-2.7c-11.3-0.9-21.7-7-27.8-16.5c-24.3-37.6-19.8-75.7,12-101.9
					c8-6.6,18.5-9.5,28.8-8c40.6,6.1,179.9,21.2,266.8-42.5l0,0c8.1-6,18.1-8.4,28-6.7c9.8,1.6,18.3,7,24,15.1
					c9.2,13.2,13.8,27.5,13.7,42.6c-0.4,45.7-33,67.5-34.4,68.4C2684.5,1854,2609.7,1903.9,2445.3,1903.9z M2384.3,1800.1
					c-2.5,0-5,0.9-7,2.5c-27.4,22.5-18.8,49.5-6.8,68.1c1.8,2.8,4.9,4.6,8.2,4.8c202.2,15.7,293.9-44.6,294.8-45.2
					c1-0.7,22.7-15.7,23-47.3c0.1-9.6-2.9-18.9-9-27.6c-1.7-2.4-4.2-4-7.2-4.5c-3-0.5-6.1,0.2-8.6,2.1
					c-94.8,69.5-242.7,53.7-285.8,47.2C2385.4,1800.1,2384.9,1800.1,2384.3,1800.1z"/>
			</g>
		</g>
		<g>
			<path class="st26" d="M2853.3,732.2c0.1-0.1,0.1-0.3,0.2-0.4C2853.3,732,2853.3,732.2,2853.3,732.2z"/>
		</g>
		<g>
			<path class="st1" d="M2523.6,1361.1c0,0,229.6,194.4,270-30.5l183.2,68.9c0,0,4.3,243.6-191,286.2c-117.4,25.6-180.5-71-180.5-71
				L2523.6,1361.1z"/>
		</g>
		<g class="st22">
			<path class="st3" d="M2785.8,1685.6c-117.4,25.6-180.4-71-180.4-71l0,0c-4.4-14.4,12-26.4,24.3-17.5
				c30.4,22,76.7,41.7,137.7,28.4c138-30.1,205.5-175.4,60.7-234.4l148.7,8.4C2976.8,1399.5,2981.1,1643.1,2785.8,1685.6z"/>
		</g>
		<g>
			<path class="st3" d="M2527.1,1356.9c14.4,4.9,27.6,11.2,40.3,17.7c6.4,3.3,12.6,6.7,18.8,10.1l18.8,9.7
				c24.9,12.5,50.4,24.6,76.4,27.6c12.9,1.5,25.6,0.7,36.8-2.9c11.3-3.6,21.1-10.3,29.2-19.4c2.2-2,3.9-4.7,5.7-7.2
				c1.8-2.5,3.7-5,5.1-7.9l4.6-8.5l3.8-9.2l1.9-4.6l1.5-4.9l3-9.7c1.7-6.6,3-13.4,4.5-20.1l4.3-18.9l17.4,6.5l183.2,68.9l10.5,3.9
				l0.1,11c0,7-0.2,13-0.6,19.3c-0.4,6.3-0.9,12.5-1.6,18.7c-1.3,12.4-3.2,24.8-5.5,37.1c-4.7,24.6-11.6,48.8-21,72.3
				c-9.6,23.4-21.5,46.2-37.1,66.7c-15.5,20.5-34.2,39.1-55.8,53.6c-21.6,14.5-45.7,25.1-70.5,31.7c-6.2,1.6-12.4,3.3-18.9,4.2
				l-9.7,1.5c-3.2,0.5-6.4,1.1-9.8,1.1c-6.6,0.2-13.2,0.7-19.7,0.7c-6.6-0.5-13.2-0.9-19.8-1.5c-26.4-3.4-51.5-13.4-74.4-26.3
				c-11.5-6.5-21.6-15.2-30.2-25c-8.5-10-15.2-21.5-17.5-35.7c-0.5-3.2,1.7-6.3,4.9-6.8c1.3-0.2,2.5,0,3.6,0.5l0.6,0.3
				c22.8,11.2,38.8,25.3,57.1,37.4c8.9,6.4,18.6,11.5,28.7,15.5c5.1,1.9,10.4,3.2,15.5,4.8c5.3,1.1,10.6,2,16,3l16.2,1.2
				c5.4,0,10.9-0.4,16.4-0.6c2.7,0,5.4-0.5,8.2-1l8.2-1.3c5.4-0.6,10.9-2.2,16.3-3.6c21.7-5.8,42.3-14.8,60.7-27.2
				c18.4-12.4,34.4-28.2,48-46.1c13.7-17.8,24.2-38.2,32.9-59.3c8.5-21.3,14.9-43.6,19.2-66.3c2.2-11.4,3.9-22.9,5.1-34.4
				c0.6-5.8,1.1-11.5,1.5-17.3c0.3-5.6,0.6-11.7,0.6-16.8l10.5,14.9l-183.2-68.9l21.8-12.4c-1.7,7.6-3.2,15.2-5.1,22.8l-3.5,11.4
				l-1.8,5.7l-2.3,5.6l-4.6,11.2l-5.9,10.9c-1.8,3.7-4.4,7.1-6.8,10.5c-2.5,3.4-4.8,6.9-7.9,10c-11.3,12.9-26.6,23.4-43.4,28.6
				c-16.8,5.4-34.1,6.1-50.3,4.3c-16.3-1.8-31.8-5.7-46.7-10.6c-14.9-4.9-29.1-11.2-42.6-18.6c-26.6-15.2-51.8-32.9-68.5-60.1
				c-1.7-2.7-0.8-6.2,1.9-7.8c1.5-0.9,3.3-1.1,4.8-0.5L2527.1,1356.9z"/>
		</g>
		<g>
			<g>
				<path class="st1" d="M2759.1,1324.9c29.1,120.6,150.8,109.4,184.3,101.2c69.9-17,93.8-82.9,93.8-82.9l-56.4-74.5l-25.1-40.3
					l-29.9-9c-23.5-42.9-73.6-91.5-102.4-74.3C2823.5,1145.2,2734,1220.9,2759.1,1324.9z"/>
			</g>
			<g class="st22">
				<path class="st3" d="M3047.6,1304.3c0,37.6-49.2,71.7-155.2,59.3c-37.3-4.4-68.1-30.5-68.1-68.1c0-37.6,30.5-68.1,68.1-68.1
					C2930,1227.6,3047.6,1266.8,3047.6,1304.3z"/>
			</g>
			<g>
				<path class="st1" d="M3043.8,1182.7c-27.8,27.9-52.2,48.5-52.2,48.5l-78.1,79.9l-52.7-128.7c0,0-0.3-26,1.7-60.4
					c3.9-68.1,16.9-169,59-166.4c75.7,4.7,25.6,203.9,25.6,203.9s120.8-161,169.2-115.3C3144.6,1071.1,3089.5,1136.8,3043.8,1182.7z
					"/>
			</g>
			<g class="st22">
				<path class="st3" d="M3043.8,1182.7c-27.8,27.9-52.2,48.5-52.2,48.5l-78.1,79.9l-52.7-128.7c0,0-0.3-26,1.7-60.4
					c20.3,16,58.1,45.1,71.3,62.5C2956.7,1214.4,3013.3,1176.8,3043.8,1182.7z"/>
			</g>
			<g>
				<path class="st3" d="M2913.6,1327.4c-1,0-2.1-0.1-3.1-0.3c-5.4-1-9.9-4.7-11.9-9.8l-52.7-128.7c-0.8-1.9-1.2-3.9-1.2-6
					c-0.2-19-0.8-186.7,45.6-230.7c9.4-8.9,20.6-13.2,32.4-12.5c16,1,29.4,8.4,39,21.5c22.8,31.1,20,92.6,13.4,140
					c32.6-35.6,78.5-77.7,115.6-80.8c14.3-1.2,27.1,3.1,37,12.4c8.7,8.3,13.2,19.5,12.8,32.3c-1.7,61-121,164.3-137.5,178.3
					l-77.6,79.4C2922.1,1325.7,2917.9,1327.4,2913.6,1327.4z M2877.1,1179.2l42.1,102.9l60.8-62.2c0.4-0.4,0.7-0.7,1.1-1.1
					c48.4-41,125.6-119.2,126.6-154.9c0.1-4.5-1.3-6.5-2.6-7.8c-2.1-2-5.3-4.2-11.8-3.6c-35.3,3-100.4,73.3-133.1,116.9
					c-4.7,6.2-13,8.3-20,4.9c-7-3.3-10.7-11.1-8.8-18.7c13.1-52.1,25.7-145.8,3.9-175.5c-3.9-5.3-8.4-7.8-14.7-8.2
					c-1.8-0.1-4.4,0.2-8,3.6C2885.8,1000.9,2876.7,1112.5,2877.1,1179.2z"/>
			</g>
			<g>
				<path class="st1" d="M3051.5,1329.4c-18.5,30.1-97.2,44.2-126.4,21.5c-24.8-19.3,0-43.8,7-50.1c1.1-1,1.8-1.5,1.8-1.5
					s-30.2-9.3-35.5-34.7c-0.3-1.6-0.6-3.4-0.7-5.2c-1.9-29.4,76.6-54.7,112.2-49c26.6,4.3,36.8,15.1,39.3,26.7
					c2.7,12.4-3.3,25.6-7.3,32.6c-1.9,3.2-3.3,5.1-3.3,5.1S3066.4,1305.2,3051.5,1329.4z"/>
			</g>
			<g class="st22">
				<path class="st3" d="M3041.9,1269.8c-21,10.8-63.2,29.1-109.7,31.1c1.1-1,1.8-1.5,1.8-1.5s-30.2-9.3-35.5-34.7
					c27.9,6.1,105,17.7,150.8-27.4C3051.9,1249.5,3045.9,1262.7,3041.9,1269.8z"/>
			</g>
			<g class="st22">
				<path class="st3" d="M3051.5,1329.4c-18.5,30.1-97.2,44.2-126.4,21.5c-12.2-9.5-12.4-20.2-8.6-29.4c1.3,1.5,2.9,3,4.8,4.4
					c29.2,22.6,107.8,8.6,126.4-21.5c1.9-3.1,3.2-6.3,3.8-9.6C3056,1305.1,3058.5,1317.9,3051.5,1329.4z"/>
			</g>
			<g>
				<path class="st3" d="M2968,1378.4c-21.7,0-40.5-5-52.8-14.6c-14.1-10.9-17.1-23.5-17.1-32.1c0-10.5,4.4-20,9.5-27.6
					c-12.8-9.1-24.8-23.4-26.1-43.6c-0.5-8,1.7-20.1,15.4-32.5c27.1-24.6,85.4-38.5,115.6-33.6l0,0c26.4,4.3,43.4,15.1,50.4,32.1
					c7.2,17.6,1.1,35.9-4.6,47.2c11.3,16.6,20.8,42,7.1,64.2c-11,17.8-36.8,32-69,37.8C2986.5,1377.5,2977,1378.4,2968,1378.4z
					 M2998.8,1225.9c-23.6,0-62.6,10.9-79.5,25.7c-4.4,3.9-5.3,6.4-5.3,6.8c1.1,17.6,24.6,25.3,24.8,25.4
					c5.7,1.8,10.1,6.7,11.1,12.7c1.1,5.9-1.2,12-5.9,15.7c-5.6,4.5-13.4,13.8-13.4,19.5c0,0.7,0,3,4.5,6.4
					c9.8,7.6,32.1,9.9,55.4,5.6c25.7-4.7,42.2-14.8,47.1-22.9c7.9-12.9-10.9-34.8-11.1-35c-5.2-5.7-5.6-14.3-1.1-20.6
					c3.8-5.2,10.5-18.7,7.3-26.5c-2.4-5.7-11.4-10.1-25.4-12.3l0,0C3004.8,1226.1,3001.9,1225.9,2998.8,1225.9z"/>
			</g>
			<g>
				<path class="st3" d="M2943.8,1309.9c-3.5,0-6.9-0.1-10.5-0.3c-5.7-0.3-10-5.2-9.6-10.9c0.3-5.7,5.2-10,10.9-9.6
					c53.8,3.1,98.4-22.7,98.8-23c4.9-2.9,11.2-1.3,14.1,3.6c2.9,4.9,1.3,11.2-3.6,14.1C3041.9,1284.9,2998.9,1309.9,2943.8,1309.9z"
					/>
			</g>
			<g>
				<path class="st1" d="M2823.5,1145.2c38.2-22.8,113.9,70.2,115.3,112c1.1,31.9-36.7,58.4-81.8,17.8
					C2811.3,1233.8,2763.5,1181,2823.5,1145.2z"/>
			</g>
			<g>
				<path class="st1" d="M3037.2,1343.3c0,0-24,65.8-93.8,82.8c-33.5,8.2-155.2,19.4-184.3-101.2c-25.1-104,64.4-179.7,64.4-179.7
					c38.2-22.8,113.9,70.2,115.3,112c1.1,31.9-46.3,49.9-86-6.1c0,0,20.9,50.9-23.7,85.7l105.1,60.6l79.5-15.5L3037.2,1343.3z"/>
			</g>
			<g>
				<path class="st1" d="M2849.9,1312.3l-2.1-1.2c1.6-1.2,3-2.4,4.4-3.7C2851.5,1309,2850.7,1310.7,2849.9,1312.3z"/>
			</g>
			<g class="st22">
				<path class="st3" d="M2854.5,1241.6c-5.6-20.6,53.5,31.8,84.3,18.4c-1.5,25.9-35.5,40.9-69.5,9.9
					C2867.2,1253.3,2854.5,1241.6,2854.5,1241.6z"/>
			</g>
			<g class="st22">
				<path class="st3" d="M3000.3,1384.4l13.4-2.6c-14.8,17.6-37.5,36.4-70.3,44.4c-33.5,8.2-155.2,19.4-184.3-101.3
					c-17.1-70.7,18.9-128.5,43.7-158.1c-20.1,32.1-38,78.5-25,132.5c29.1,120.6,150.8,109.4,184.3,101.3
					C2976.8,1396.9,2989.5,1391.2,3000.3,1384.4z"/>
			</g>
			<g>
				<path class="st1" d="M3037.2,1343.4c-0.2,0.7-2.2,5.7-6.2,13.1l-2.1,0.4L3037.2,1343.4z"/>
			</g>
			<g>
				<path class="st1" d="M3032.4,1356.2c-1.1,1.3-2.2,2.6-3.4,3.9c0.7-1.3,1.4-2.5,2.1-3.7L3032.4,1356.2z"/>
			</g>
			<g>
				<path class="st3" d="M2808.7,1407.4c-12.2-4.8-23.4-12.5-32.9-22.1c-9.5-9.6-17.2-21.1-23.1-33.3
					c-11.7-24.3-16.3-52.2-14.6-79.7c0.1-1.7,0.1-3.4,0.3-5.2l0.8-5.1l1.6-10.2c1.2-6.8,3.2-13.3,5-19.9c2.4-6.4,4.5-12.8,7.3-19
					c2.9-6.1,5.6-12.3,9.1-18.1c6.4-11.9,14.2-22.7,22.4-33.1c4.2-5.2,8.6-10.2,13.1-15c2.4-2.4,4.6-4.8,7.1-7.1
					c2.5-2.4,4.7-4.5,7.8-7.2c0.7-0.6,1.4-1.1,2.1-1.5l0.1-0.1c8.9-5.3,19.8-6.5,28.4-5.2c8.8,1.2,16.1,4.3,22.7,7.6
					c13.1,6.9,23.5,15.6,33.1,24.8c19,18.6,34.8,39.1,47.1,63.4c3,6.2,5.7,12.7,7.7,20c1,3.7,1.8,7.5,2.3,11.8l0.3,3.2
					c0,1.2-0.1,2.4-0.1,3.6c-0.2,2.4-0.1,4.8-0.7,7.2c-1.5,9.8-7.2,19-14.6,25.5c-7.4,6.5-16.7,10.6-25.7,11.4
					c-9,1.1-17.8,0.1-25.5-2.7c-1.9-0.7-3.9-1.3-5.7-2.1l-5.2-2.7c-3.6-1.7-6.6-3.9-9.7-6.1c-12.1-8.8-20.9-19.9-28.2-31.2l25.5-14
					c1,3.1,1.4,5,2,7.4c0.5,2.3,0.9,4.6,1.2,6.9c0.6,4.6,0.8,9.2,0.8,13.8c-0.2,9.2-1.8,18.4-5.1,26.9c-1.5,4.3-3.8,8.3-5.9,12.3
					c-2.5,3.8-5,7.5-8.1,10.6c-5.8,6.7-13.1,11.5-20.4,15.4c-1.3,0.7-3,0.2-3.7-1.1c-0.5-0.9-0.4-2.1,0.2-2.9l0.2-0.3
					c2.3-3.3,4.8-6.1,6.9-9.3c1.9-3.3,4-6.3,5.4-9.7c3.1-6.5,5-13.3,5.7-20.2c0.8-6.8,0.6-13.6-0.6-20.3c-0.6-3.3-1.3-6.7-2.3-9.9
					c-0.5-1.6-1-3.2-1.6-4.7c-0.5-1.4-1.3-3.2-1.7-3.9c-4.1-6.8-1.9-15.6,4.8-19.7c6.1-3.7,13.8-2.3,18.3,2.9l2.3,2.7
					c7.1,8.3,14.8,15.7,22.9,20.7c2,1.2,4,2.5,6.1,3.2l3,1.3l3,0.8c2,0.7,3.8,0.7,5.6,1c0.9,0.2,1.7-0.1,2.6,0
					c0.8,0,1.7,0.1,2.4-0.2c3.2-0.4,5.4-1.8,7.2-3.3c1.7-1.6,2.9-3.3,3.3-5.6c0.3-0.5,0-1.3,0.2-1.9l0.1-1l-0.1-1.3
					c-0.1-1.7-0.5-3.9-1.1-6.2c-1.1-4.5-2.9-9.4-5-14.3c-8.9-19.7-22.7-39-38.6-54.5c-7.9-7.7-16.7-14.6-25.4-19
					c-4.3-2.2-8.6-3.5-11.9-3.9c-3.4-0.3-5.3,0.2-7,1.2l2.3-1.6c-1.6,1.4-3.8,3.6-5.7,5.6c-2,2-3.9,4.2-5.8,6.2
					c-3.8,4.3-7.5,8.7-10.9,13.3c-6.8,9.2-13.3,18.8-18.5,28.9c-2.9,4.9-4.9,10.2-7.5,15.2c-2.3,5.1-4,10.5-6.1,15.7
					c-1.3,5.4-3.3,10.7-4.4,16.1l-1.5,8.2l-0.8,4.1c-0.2,1.4-0.2,2.7-0.4,4.1c-1.3,11-1.4,22.1-0.1,33.1c0.9,5.5,1.1,11.1,2.4,16.7
					c1.1,5.6,2.4,11.1,4,16.5c6.1,21.9,16.5,42.2,32.8,61.2c1,1.2,0.9,2.9-0.3,3.9C2810.8,1407.6,2809.7,1407.7,2808.7,1407.4z"/>
			</g>
			<g>
				<path class="st3" d="M3052.5,1348.9c-1,3.8-1.9,6.4-3,9.4c-1.2,2.9-2.4,5.6-3.8,8.3c-2.7,5.4-6.1,10.4-9.7,15.3
					c-7.2,9.7-16.3,17.9-26.1,24.9c-4.7,3.7-10.2,6.5-15.3,9.5c-5.4,2.6-10.8,5.1-16.5,6.8c-11.1,3.9-22.9,5.4-34.2,5.4
					c-1.3,0-2.4-1.1-2.4-2.4c0-0.8,0.4-1.6,1.1-2l0.2-0.1c9.5-5.9,18.4-11.1,26.2-17.9c4.1-2.9,7.5-6.8,11.3-10
					c3.4-3.7,6.8-7.2,9.9-11c6.3-7.5,11.6-15.5,16.9-23.5c1.2-2.1,2.5-4.1,3.8-6.1c1.2-2.1,2.5-4.1,3.7-6.1l3.7-6.1
					c1.2-1.9,2.5-4.2,3.5-5.4l2.5-3.1c5.6-6.9,15.8-7.9,22.7-2.3C3052.1,1336.5,3054,1343,3052.5,1348.9z"/>
			</g>
		</g>
		<g>
			<path class="st3" d="M2819,1680c-17.3,0-32.7-5.6-45.8-16.8c-63.9-54.4-50.8-225.9-50.3-233.2c0.5-5.7,5.4-9.9,11.1-9.4
				c5.7,0.5,9.9,5.4,9.4,11.1c-0.1,1.7-12.8,168.3,43.1,215.9c13.4,11.4,29.7,14.6,49.8,9.7c5.5-1.4,11.1,2,12.4,7.5
				c1.4,5.5-2,11.1-7.5,12.4C2833.5,1679,2826.1,1680,2819,1680z"/>
		</g>
		<g>
			<g>
				<path class="st1" d="M2730.4,1111.9L2730.4,1111.9c-5.2,1.2-10.4-2.1-11.5-7.3l-60.7-271c-1.2-5.2,2.1-10.4,7.3-11.5l0,0
					c54.5-12.2,108.6,22.1,120.8,76.6l20.7,92.4C2819.2,1045.6,2785,1099.7,2730.4,1111.9z"/>
				<path class="st3" d="M2728.3,1115.2c-5.8,0-11-4-12.4-9.9l-60.7-271c-1.5-6.8,2.8-13.6,9.6-15.1
					c56.1-12.6,111.9,22.8,124.4,78.9l20.7,92.4c12.6,56-22.8,111.9-78.9,124.4h0C2730.2,1115.1,2729.3,1115.2,2728.3,1115.2z
					 M2687.7,822.7c-7.1,0-14.3,0.8-21.5,2.4c-3.6,0.8-5.8,4.3-5,7.9l60.7,271c0.8,3.6,4.3,5.8,7.9,5l0,0
					c52.8-11.8,86.1-64.4,74.3-117.2l-20.7-92.4C2773.2,853.8,2732.6,822.7,2687.7,822.7z"/>
			</g>
			<g class="st22">
				<path class="st3" d="M2797.3,947.8l9.7,43.3c12.2,54.5-22.1,108.6-76.6,120.8c-5.2,1.2-10.4-2.1-11.5-7.3l-16.2-72
					c2.2,3,6,4.5,9.8,3.7l6.4-1.5C2762.1,1025.2,2792.5,989.3,2797.3,947.8z"/>
			</g>
			<g>
				<path class="st3" d="M2728.3,1129c-12.1,0-23.1-8.4-25.8-20.7l-60.7-271c-3.2-14.2,5.8-28.4,20-31.6
					c63.5-14.2,126.7,25.9,140.9,89.3l20.7,92.4c14.2,63.5-25.9,126.7-89.3,140.9h0C2732.2,1128.8,2730.2,1129,2728.3,1129z
					 M2726.8,1095.5C2726.8,1095.5,2726.8,1095.5,2726.8,1095.5C2726.8,1095.5,2726.8,1095.5,2726.8,1095.5z M2676.3,837.3
					l57.4,256.4c41.3-13,66.5-55.8,56.9-98.8l-20.7-92.4C2760.3,859.4,2719.2,831.4,2676.3,837.3z"/>
			</g>
			<g>
				<path class="st1" d="M1771.1,1022.4L1771.1,1022.4c5.2-1.2,10.4,2.1,11.5,7.3l60.7,271c1.2,5.2-2.1,10.4-7.3,11.5h0
					c-54.5,12.2-108.6-22.1-120.8-76.6l-20.7-92.4C1682.3,1088.7,1716.6,1034.6,1771.1,1022.4z"/>
				<path class="st3" d="M1813.9,1317.7c-47.7,0-90.8-33-101.6-81.4l-20.7-92.4c-12.6-56,22.8-111.9,78.9-124.4h0
					c6.8-1.5,13.6,2.8,15.1,9.6l60.7,271c1.5,6.8-2.8,13.6-9.6,15.1C1829,1316.9,1821.4,1317.7,1813.9,1317.7z M1771.8,1025.4
					c-52.8,11.8-86.1,64.4-74.3,117.2l20.7,92.4c11.8,52.8,64.4,86.1,117.2,74.3c3.6-0.8,5.8-4.3,5-7.9l-60.7-271
					C1778.9,1026.8,1775.3,1024.6,1771.8,1025.4L1771.8,1025.4z"/>
			</g>
			<g class="st22">
				<path class="st3" d="M1826.5,1225.5l16.8,75.2c1.2,5.2-2.1,10.4-7.3,11.5c-28.6,6.4-57.1,0-79.5-15.4
					c-20.2-13.9-35.5-35.3-41.3-61.2l-8.7-38.9c23.1,30.7,62.9,46.8,102.9,37.8l9.9-2.2C1822.9,1231.5,1825.5,1228.8,1826.5,1225.5z
					"/>
			</g>
			<g>
				<path class="st3" d="M1813.9,1331.5c-54,0-102.8-37.4-115.1-92.2l-20.7-92.4c-6.9-30.7-1.4-62.3,15.5-88.9
					c16.9-26.6,43.1-45.1,73.8-51.9h0c14.2-3.2,28.4,5.8,31.6,20l60.7,271c3.2,14.2-5.8,28.4-20,31.6
					C1831,1330.6,1822.4,1331.5,1813.9,1331.5z M1767.8,1040.7c-19,6-35.1,18.3-45.8,35.3c-12.1,19-16,41.6-11.1,63.6l20.7,92.4
					c9.6,43,50.7,71,93.6,65.1L1767.8,1040.7z"/>
			</g>
			<g>
				<circle class="st1" cx="2250.8" cy="1067.2" r="473.2"/>
				<path class="st3" d="M2249.8,1543.5c-101.1,0-199.1-32.1-281.9-93.2c-102.3-75.6-169.1-186.5-188-312.3
					c-18.9-125.8,12.3-251.4,87.8-353.8c75.6-102.3,186.5-169.1,312.3-188c125.8-18.9,251.4,12.3,353.8,87.8
					c102.3,75.6,169.1,186.5,188,312.3c18.9,125.8-12.3,251.4-87.8,353.8s-186.5,169.1-312.3,188
					C2297.7,1541.7,2273.6,1543.5,2249.8,1543.5z M2251.8,596.9c-23.5,0-47.2,1.8-70.9,5.3c-124.2,18.7-233.7,84.6-308.3,185.6
					s-105.4,225.1-86.7,349.3c18.7,124.2,84.6,233.7,185.6,308.3c101,74.6,225.1,105.4,349.3,86.7
					c124.2-18.7,233.7-84.6,308.3-185.6s105.4-225.1,86.7-349.3c-18.7-124.2-84.6-233.7-185.6-308.3
					C2448.4,628.6,2351.6,596.9,2251.8,596.9z"/>
			</g>
			<g class="st22">
				<path class="st3" d="M2704.5,932.7c6.2,20.7,10.9,42.1,14.2,64.1c38.8,258.4-139.1,499.5-397.6,538.4
					c-258.4,38.8-499.5-139.1-538.4-397.6c-1.1-7.4-2.1-14.9-2.8-22.3c65.8,223,287.7,369,524.1,333.5
					C2555.2,1411,2730.2,1182.6,2704.5,932.7z"/>
			</g>
			<g>
				<path class="st3" d="M2249.8,1557.3c-104,0-204.9-33-290.1-95.9c-105.3-77.8-174-191.9-193.5-321.3s12.6-258.7,90.4-364
					s191.9-174,321.3-193.5c267.2-40.2,517.3,144.5,557.5,411.7l0,0c19.5,129.4-12.6,258.7-90.4,364
					c-77.8,105.3-191.9,174-321.3,193.5C2299,1555.5,2274.3,1557.3,2249.8,1557.3z M2251.1,610.7c-22.5,0-45.3,1.7-68.2,5.1
					C2062.4,634,1956.1,698,1883.7,796c-72.4,98.1-102.3,218.5-84.2,339c18.1,120.6,82.1,226.8,180.2,299.2
					c98.1,72.4,218.5,102.3,339,84.2c120.6-18.1,226.8-82.1,299.2-180.2s102.3-218.5,84.2-339l0,0
					C2668.2,773.3,2473,610.7,2251.1,610.7z"/>
			</g>
			<g>
				<path class="st3" d="M2719.1,1009c15.2,91.4-0.4,181.1-39.5,259.7c-29.3,58.9-170.3,176.9-363,210.7
					c-178.7,31.3-357.3-37.1-404.1-83.4c-62.4-61.8-106.1-141.7-121.2-233c-40.1-241.7,151-376.4,407.2-418.9
					C2454.7,701.5,2679,767.3,2719.1,1009z"/>
			</g>
			<g class="st27">
				
					<ellipse transform="matrix(1.484337e-02 -0.9999 0.9999 1.484337e-02 1496.9167 3564.2649)" class="st1" cx="2557.2" cy="1022.5" rx="79.4" ry="57.6"/>
			</g>
			<g class="st27">
				
					<ellipse transform="matrix(0.1529 -0.9882 0.9882 0.1529 953.9668 3491.3723)" class="st1" cx="2513.4" cy="1189.3" rx="36.5" ry="31.3"/>
			</g>
			<g class="st22">
				<path class="st28" d="M2591.4,798.5c65.7,44.7,111.5,113.5,127.6,210.5c15.2,91.4-0.4,181.1-39.5,259.7
					c-29.3,58.9-170.3,176.9-363.1,210.7c-68,11.9-136.1,9.4-196.8-0.9c236-46.6,407.6-191.2,444-264.2
					c49.6-99.7,69.4-213.6,50.1-329.6C2608.7,853.7,2601.1,825,2591.4,798.5z"/>
			</g>
			<g>
				<path class="st3" d="M1792,966.4c-2.7,0-5.4-0.7-7.9-2.2c-7-4.2-9.5-13-5.8-20.1c62.5-134.8,210.8-230.8,407-263.4
					c195-32.4,366.1,8.4,469.4,111.8c5.1,4.9,6.4,12.8,2.6,19.1c-4.4,7.3-13.8,9.7-21.1,5.3l-1.6-1l-1.4-1.4
					c-96.2-96.4-257.5-134.1-442.8-103.4C2004,742,1864,831.8,1806,957.4l-0.8,1.5C1802.3,963.7,1797.2,966.4,1792,966.4z"/>
			</g>
			<g class="st27">
				<path class="st1" d="M1929.5,1274.7c0,0-107.1-211.5-1.6-320.4c105.5-108.9,278.6-137.2,276.4-125.5c0,0-183.9,78.2-233.7,242
					C1932.2,1197.2,1929.5,1274.7,1929.5,1274.7z"/>
			</g>
		</g>
	</g>
</g>
</svg>
